<?xml version="1.0" encoding="UTF-8" standalone="no"?>
<!DOCTYPE svg PUBLIC "-//W3C//DTD SVG 1.1//EN"
 "http://www.w3.org/Graphics/SVG/1.1/DTD/svg11.dtd">
<!-- Generated by graphviz version 14.1.1 (20251213.1925)
 -->
<!-- Pages: 1 -->
<svg width="720pt" height="305pt"
 viewBox="0.00 0.00 720.00 305.00" xmlns="http://www.w3.org/2000/svg" xmlns:xlink="http://www.w3.org/1999/xlink">
<g id="graph0" class="graph" transform="scale(0.846292 0.846292) rotate(0) translate(4 356.7)">
<polygon fill="white" stroke="none" points="-4,4 -4,-356.7 846.77,-356.7 846.77,4 -4,4"/>
<!-- start_0 -->
<g id="node1" class="node">
<title>start_0</title>
</g>
<!-- (0, 0) -->
<g id="node2" class="node">
<title>(0, 0)</title>
<ellipse fill="none" stroke="black" cx="59.32" cy="-128.6" rx="21.6" ry="21.6"/>
<text xml:space="preserve" text-anchor="middle" x="59.32" y="-123.55" font-family="Times New Roman,serif" font-size="14.00">0,0</text>
</g>
<!-- start_0&#45;&gt;(0, 0) -->
<g id="edge1" class="edge">
<title>start_0&#45;&gt;(0, 0)</title>
<path fill="none" stroke="black" d="M0.89,-128.6C2.38,-128.6 13.8,-128.6 26.08,-128.6"/>
<polygon fill="black" stroke="black" points="25.81,-132.1 35.81,-128.6 25.81,-125.1 25.81,-132.1"/>
</g>
<!-- (0, 0)&#45;&gt;(0, 0) -->
<g id="edge3" class="edge">
<title>(0, 0)&#45;&gt;(0, 0)</title>
<path fill="none" stroke="gray" d="M51.98,-149.38C51.08,-159.38 53.52,-168.2 59.32,-168.2 62.67,-168.2 64.9,-165.25 66.01,-160.83"/>
<polygon fill="gray" stroke="gray" points="69.5,-161.07 66.57,-150.89 62.52,-160.68 69.5,-161.07"/>
<text xml:space="preserve" text-anchor="middle" x="59.32" y="-171.4" font-family="Times New Roman,serif" font-size="14.00" fill="gray">empty</text>
</g>
<!-- (0, 1) -->
<g id="node3" class="node">
<title>(0, 1)</title>
<ellipse fill="none" stroke="black" cx="152.02" cy="-28.6" rx="21.6" ry="21.6"/>
<text xml:space="preserve" text-anchor="middle" x="152.02" y="-23.55" font-family="Times New Roman,serif" font-size="14.00">0,1</text>
</g>
<!-- (0, 0)&#45;&gt;(0, 1) -->
<g id="edge2" class="edge">
<title>(0, 0)&#45;&gt;(0, 1)</title>
<path fill="none" stroke="green" d="M73.59,-111.98C80.89,-102.99 90.22,-91.77 98.92,-82.1 108.21,-71.77 118.86,-60.71 128.09,-51.34"/>
<polygon fill="green" stroke="green" points="130.47,-53.92 135.03,-44.36 125.5,-48.99 130.47,-53.92"/>
<text xml:space="preserve" text-anchor="middle" x="105.67" y="-85.3" font-family="Times New Roman,serif" font-size="14.00" fill="green">o1</text>
</g>
<!-- (2, 3) -->
<g id="node4" class="node">
<title>(2, 3)</title>
<ellipse fill="none" stroke="black" cx="152.02" cy="-273.6" rx="21.6" ry="21.6"/>
<text xml:space="preserve" text-anchor="middle" x="152.02" y="-268.55" font-family="Times New Roman,serif" font-size="14.00">2,3</text>
</g>
<!-- (0, 0)&#45;&gt;(2, 3) -->
<g id="edge4" class="edge">
<title>(0, 0)&#45;&gt;(2, 3)</title>
<path fill="none" stroke="red" d="M71.62,-146.67C87.26,-171.66 115.61,-216.99 133.86,-246.17"/>
<polygon fill="red" stroke="red" points="130.79,-247.85 139.06,-254.47 136.72,-244.14 130.79,-247.85"/>
<text xml:space="preserve" text-anchor="middle" x="105.67" y="-212.98" font-family="Times New Roman,serif" font-size="14.00" fill="red">o2</text>
</g>
<!-- (1, 7) -->
<g id="node5" class="node">
<title>(1, 7)</title>
<ellipse fill="none" stroke="black" cx="152.02" cy="-162.6" rx="21.6" ry="21.6"/>
<text xml:space="preserve" text-anchor="middle" x="152.02" y="-157.55" font-family="Times New Roman,serif" font-size="14.00">1,7</text>
</g>
<!-- (0, 0)&#45;&gt;(1, 7) -->
<g id="edge5" class="edge">
<title>(0, 0)&#45;&gt;(1, 7)</title>
<path fill="none" stroke="red" d="M80,-135.98C91.89,-140.43 107.28,-146.2 120.69,-151.23"/>
<polygon fill="red" stroke="red" points="119.37,-154.47 129.96,-154.71 121.83,-147.92 119.37,-154.47"/>
<text xml:space="preserve" text-anchor="middle" x="105.67" y="-150.84" font-family="Times New Roman,serif" font-size="14.00" fill="red">o3</text>
</g>
<!-- (0, 1)&#45;&gt;(0, 1) -->
<g id="edge7" class="edge">
<title>(0, 1)&#45;&gt;(0, 1)</title>
<path fill="none" stroke="gray" d="M143.59,-48.97C142.42,-59.14 145.23,-68.2 152.02,-68.2 156.05,-68.2 158.68,-65 159.91,-60.28"/>
<polygon fill="gray" stroke="gray" points="163.39,-60.64 160.38,-50.49 156.4,-60.31 163.39,-60.64"/>
<text xml:space="preserve" text-anchor="middle" x="152.02" y="-71.4" font-family="Times New Roman,serif" font-size="14.00" fill="gray">empty</text>
</g>
<!-- (0, 2) -->
<g id="node6" class="node">
<title>(0, 2)</title>
<ellipse fill="none" stroke="black" cx="251.47" cy="-25.6" rx="21.6" ry="21.6"/>
<text xml:space="preserve" text-anchor="middle" x="251.47" y="-20.55" font-family="Times New Roman,serif" font-size="14.00">0,2</text>
</g>
<!-- (0, 1)&#45;&gt;(0, 2) -->
<g id="edge6" class="edge">
<title>(0, 1)&#45;&gt;(0, 2)</title>
<path fill="none" stroke="black" d="M173.69,-27.96C186.65,-27.56 203.63,-27.04 218.32,-26.59"/>
<polygon fill="black" stroke="black" points="218.1,-30.1 227.98,-26.29 217.88,-23.1 218.1,-30.1"/>
<text xml:space="preserve" text-anchor="middle" x="201.75" y="-30.57" font-family="Times New Roman,serif" font-size="14.00">uo2</text>
</g>
<!-- (2, 3)&#45;&gt;(2, 3) -->
<g id="edge8" class="edge">
<title>(2, 3)&#45;&gt;(2, 3)</title>
<path fill="none" stroke="gray" d="M143.59,-293.97C142.42,-304.14 145.23,-313.2 152.02,-313.2 156.05,-313.2 158.68,-310 159.91,-305.28"/>
<polygon fill="gray" stroke="gray" points="163.39,-305.64 160.38,-295.49 156.4,-305.31 163.39,-305.64"/>
<text xml:space="preserve" text-anchor="middle" x="152.02" y="-316.4" font-family="Times New Roman,serif" font-size="14.00" fill="gray">empty</text>
</g>
<!-- (2, 6) -->
<g id="node7" class="node">
<title>(2, 6)</title>
<ellipse fill="none" stroke="black" cx="251.47" cy="-296.6" rx="21.6" ry="21.6"/>
<text xml:space="preserve" text-anchor="middle" x="251.47" y="-291.55" font-family="Times New Roman,serif" font-size="14.00">2,6</text>
</g>
<!-- (2, 3)&#45;&gt;(2, 6) -->
<g id="edge9" class="edge">
<title>(2, 3)&#45;&gt;(2, 6)</title>
<path fill="none" stroke="blue" d="M173.21,-278.37C186.45,-281.49 204.03,-285.64 219.07,-289.19"/>
<polygon fill="blue" stroke="blue" points="217.96,-292.52 228.5,-291.41 219.57,-285.71 217.96,-292.52"/>
<text xml:space="preserve" text-anchor="middle" x="201.75" y="-290.36" font-family="Times New Roman,serif" font-size="14.00" fill="blue">o4</text>
</g>
<!-- (1, 7)&#45;&gt;(1, 7) -->
<g id="edge10" class="edge">
<title>(1, 7)&#45;&gt;(1, 7)</title>
<path fill="none" stroke="gray" d="M143.59,-182.97C142.42,-193.14 145.23,-202.2 152.02,-202.2 156.05,-202.2 158.68,-199 159.91,-194.28"/>
<polygon fill="gray" stroke="gray" points="163.39,-194.64 160.38,-184.49 156.4,-194.31 163.39,-194.64"/>
<text xml:space="preserve" text-anchor="middle" x="152.02" y="-205.4" font-family="Times New Roman,serif" font-size="14.00" fill="gray">empty</text>
</g>
<!-- (1, 4) -->
<g id="node8" class="node">
<title>(1, 4)</title>
<ellipse fill="none" stroke="black" cx="251.47" cy="-162.6" rx="21.6" ry="21.6"/>
<text xml:space="preserve" text-anchor="middle" x="251.47" y="-157.55" font-family="Times New Roman,serif" font-size="14.00">1,4</text>
</g>
<!-- (1, 7)&#45;&gt;(1, 4) -->
<g id="edge11" class="edge">
<title>(1, 7)&#45;&gt;(1, 4)</title>
<path fill="none" stroke="black" d="M173.69,-162.6C186.65,-162.6 203.63,-162.6 218.32,-162.6"/>
<polygon fill="black" stroke="black" points="217.98,-166.1 227.98,-162.6 217.98,-159.1 217.98,-166.1"/>
<text xml:space="preserve" text-anchor="middle" x="201.75" y="-165.8" font-family="Times New Roman,serif" font-size="14.00">uo1</text>
</g>
<!-- (0, 2)&#45;&gt;(0, 2) -->
<g id="edge13" class="edge">
<title>(0, 2)&#45;&gt;(0, 2)</title>
<path fill="none" stroke="gray" d="M243.04,-45.97C241.87,-56.14 244.68,-65.2 251.47,-65.2 255.5,-65.2 258.13,-62 259.36,-57.28"/>
<polygon fill="gray" stroke="gray" points="262.84,-57.64 259.83,-47.49 255.85,-57.31 262.84,-57.64"/>
<text xml:space="preserve" text-anchor="middle" x="251.47" y="-68.4" font-family="Times New Roman,serif" font-size="14.00" fill="gray">empty</text>
</g>
<!-- (0, 5) -->
<g id="node9" class="node">
<title>(0, 5)</title>
<ellipse fill="none" stroke="black" cx="344.17" cy="-21.6" rx="21.6" ry="21.6"/>
<text xml:space="preserve" text-anchor="middle" x="344.17" y="-16.55" font-family="Times New Roman,serif" font-size="14.00">0,5</text>
</g>
<!-- (0, 2)&#45;&gt;(0, 5) -->
<g id="edge12" class="edge">
<title>(0, 2)&#45;&gt;(0, 5)</title>
<path fill="none" stroke="green" d="M273.51,-24.67C284.61,-24.18 298.48,-23.57 310.91,-23.02"/>
<polygon fill="green" stroke="green" points="310.9,-26.53 320.74,-22.59 310.59,-19.53 310.9,-26.53"/>
<text xml:space="preserve" text-anchor="middle" x="297.82" y="-27.04" font-family="Times New Roman,serif" font-size="14.00" fill="green">o1</text>
</g>
<!-- (2, 6)&#45;&gt;(2, 6) -->
<g id="edge14" class="edge">
<title>(2, 6)&#45;&gt;(2, 6)</title>
<path fill="none" stroke="gray" d="M243.04,-316.97C241.87,-327.14 244.68,-336.2 251.47,-336.2 255.5,-336.2 258.13,-333 259.36,-328.28"/>
<polygon fill="gray" stroke="gray" points="262.84,-328.64 259.83,-318.49 255.85,-328.31 262.84,-328.64"/>
<text xml:space="preserve" text-anchor="middle" x="251.47" y="-339.4" font-family="Times New Roman,serif" font-size="14.00" fill="gray">empty</text>
</g>
<!-- (1, 4)&#45;&gt;(1, 4) -->
<g id="edge16" class="edge">
<title>(1, 4)&#45;&gt;(1, 4)</title>
<path fill="none" stroke="gray" d="M243.04,-182.97C241.87,-193.14 244.68,-202.2 251.47,-202.2 255.5,-202.2 258.13,-199 259.36,-194.28"/>
<polygon fill="gray" stroke="gray" points="262.84,-194.64 259.83,-184.49 255.85,-194.31 262.84,-194.64"/>
<text xml:space="preserve" text-anchor="middle" x="251.47" y="-205.4" font-family="Times New Roman,serif" font-size="14.00" fill="gray">empty</text>
</g>
<!-- (1, 6) -->
<g id="node10" class="node">
<title>(1, 6)</title>
<ellipse fill="none" stroke="black" cx="821.17" cy="-201.6" rx="21.6" ry="21.6"/>
<text xml:space="preserve" text-anchor="middle" x="821.17" y="-196.55" font-family="Times New Roman,serif" font-size="14.00">1,6</text>
</g>
<!-- (1, 4)&#45;&gt;(1, 6) -->
<g id="edge15" class="edge">
<title>(1, 4)&#45;&gt;(1, 6)</title>
<path fill="none" stroke="green" d="M269.6,-174.94C287.17,-186.37 315.75,-201.6 343.17,-201.6 343.17,-201.6 343.17,-201.6 729.47,-201.6 748.82,-201.6 770.5,-201.6 787.81,-201.6"/>
<polygon fill="green" stroke="green" points="787.76,-205.1 797.76,-201.6 787.76,-198.1 787.76,-205.1"/>
<text xml:space="preserve" text-anchor="middle" x="543.07" y="-204.8" font-family="Times New Roman,serif" font-size="14.00" fill="green">o1</text>
</g>
<!-- (1, 1) -->
<g id="node11" class="node">
<title>(1, 1)</title>
<ellipse fill="none" stroke="black" cx="344.17" cy="-117.6" rx="21.6" ry="21.6"/>
<text xml:space="preserve" text-anchor="middle" x="344.17" y="-112.55" font-family="Times New Roman,serif" font-size="14.00">1,1</text>
</g>
<!-- (1, 4)&#45;&gt;(1, 1) -->
<g id="edge17" class="edge">
<title>(1, 4)&#45;&gt;(1, 1)</title>
<path fill="none" stroke="red" d="M271.26,-153.28C283.67,-147.12 300.16,-138.94 314.23,-131.96"/>
<polygon fill="red" stroke="red" points="315.64,-135.16 323.05,-127.58 312.53,-128.89 315.64,-135.16"/>
<text xml:space="preserve" text-anchor="middle" x="297.82" y="-145.99" font-family="Times New Roman,serif" font-size="14.00" fill="red">o2</text>
</g>
<!-- (0, 5)&#45;&gt;(0, 0) -->
<g id="edge19" class="edge">
<title>(0, 5)&#45;&gt;(0, 0)</title>
<path fill="none" stroke="blue" d="M330.75,-38.75C318.12,-54.83 297.04,-78.21 273.07,-90.6 214.42,-120.92 135.89,-127.51 92.51,-128.67"/>
<polygon fill="blue" stroke="blue" points="92.7,-125.17 82.77,-128.84 92.83,-132.16 92.7,-125.17"/>
<text xml:space="preserve" text-anchor="middle" x="201.75" y="-121.01" font-family="Times New Roman,serif" font-size="14.00" fill="blue">o4</text>
</g>
<!-- (0, 5)&#45;&gt;(0, 5) -->
<g id="edge18" class="edge">
<title>(0, 5)&#45;&gt;(0, 5)</title>
<path fill="none" stroke="gray" d="M335.74,-41.97C334.57,-52.14 337.38,-61.2 344.17,-61.2 348.2,-61.2 350.83,-58 352.06,-53.28"/>
<polygon fill="gray" stroke="gray" points="355.54,-53.64 352.53,-43.49 348.55,-53.31 355.54,-53.64"/>
<text xml:space="preserve" text-anchor="middle" x="344.17" y="-64.4" font-family="Times New Roman,serif" font-size="14.00" fill="gray">empty</text>
</g>
<!-- (1, 6)&#45;&gt;(1, 7) -->
<g id="edge21" class="edge">
<title>(1, 6)&#45;&gt;(1, 7)</title>
<path fill="none" stroke="cyan" d="M803.98,-215.35C786.7,-228.58 757.95,-246.6 729.47,-246.6 250.47,-246.6 250.47,-246.6 250.47,-246.6 215.53,-246.6 186.9,-215.23 169.92,-190.83"/>
<polygon fill="cyan" stroke="cyan" points="172.85,-188.91 164.41,-182.5 167.01,-192.78 172.85,-188.91"/>
<text xml:space="preserve" text-anchor="middle" x="493.35" y="-249.8" font-family="Times New Roman,serif" font-size="14.00" fill="cyan">uo3</text>
</g>
<!-- (1, 6)&#45;&gt;(1, 6) -->
<g id="edge20" class="edge">
<title>(1, 6)&#45;&gt;(1, 6)</title>
<path fill="none" stroke="gray" d="M812.74,-221.97C811.57,-232.14 814.38,-241.2 821.17,-241.2 825.2,-241.2 827.83,-238 829.06,-233.28"/>
<polygon fill="gray" stroke="gray" points="832.54,-233.64 829.53,-223.49 825.55,-233.31 832.54,-233.64"/>
<text xml:space="preserve" text-anchor="middle" x="821.17" y="-244.4" font-family="Times New Roman,serif" font-size="14.00" fill="gray">empty</text>
</g>
<!-- (1, 1)&#45;&gt;(1, 1) -->
<g id="edge23" class="edge">
<title>(1, 1)&#45;&gt;(1, 1)</title>
<path fill="none" stroke="gray" d="M335.74,-137.97C334.57,-148.14 337.38,-157.2 344.17,-157.2 348.2,-157.2 350.83,-154 352.06,-149.28"/>
<polygon fill="gray" stroke="gray" points="355.54,-149.64 352.53,-139.49 348.55,-149.31 355.54,-149.64"/>
<text xml:space="preserve" text-anchor="middle" x="344.17" y="-160.4" font-family="Times New Roman,serif" font-size="14.00" fill="gray">empty</text>
</g>
<!-- (1, 2) -->
<g id="node12" class="node">
<title>(1, 2)</title>
<ellipse fill="none" stroke="black" cx="443.62" cy="-52.6" rx="21.6" ry="21.6"/>
<text xml:space="preserve" text-anchor="middle" x="443.62" y="-47.55" font-family="Times New Roman,serif" font-size="14.00">1,2</text>
</g>
<!-- (1, 1)&#45;&gt;(1, 2) -->
<g id="edge22" class="edge">
<title>(1, 1)&#45;&gt;(1, 2)</title>
<path fill="none" stroke="black" d="M362.59,-105.98C377.33,-96.15 398.69,-81.9 415.64,-70.6"/>
<polygon fill="black" stroke="black" points="417.38,-73.64 423.76,-65.18 413.5,-67.82 417.38,-73.64"/>
<text xml:space="preserve" text-anchor="middle" x="393.9" y="-94.12" font-family="Times New Roman,serif" font-size="14.00">uo2</text>
</g>
<!-- (1, 2)&#45;&gt;(1, 2) -->
<g id="edge25" class="edge">
<title>(1, 2)&#45;&gt;(1, 2)</title>
<path fill="none" stroke="gray" d="M434.62,-72.57C433.24,-82.89 436.24,-92.2 443.62,-92.2 448.12,-92.2 450.99,-88.74 452.23,-83.71"/>
<polygon fill="gray" stroke="gray" points="455.72,-84.2 452.56,-74.08 448.72,-83.95 455.72,-84.2"/>
<text xml:space="preserve" text-anchor="middle" x="443.62" y="-95.4" font-family="Times New Roman,serif" font-size="14.00" fill="gray">empty</text>
</g>
<!-- (1, 5) -->
<g id="node13" class="node">
<title>(1, 5)</title>
<ellipse fill="none" stroke="black" cx="543.07" cy="-52.6" rx="21.6" ry="21.6"/>
<text xml:space="preserve" text-anchor="middle" x="543.07" y="-47.55" font-family="Times New Roman,serif" font-size="14.00">1,5</text>
</g>
<!-- (1, 2)&#45;&gt;(1, 5) -->
<g id="edge24" class="edge">
<title>(1, 2)&#45;&gt;(1, 5)</title>
<path fill="none" stroke="green" d="M465.29,-52.6C478.25,-52.6 495.23,-52.6 509.92,-52.6"/>
<polygon fill="green" stroke="green" points="509.58,-56.1 519.58,-52.6 509.58,-49.1 509.58,-56.1"/>
<text xml:space="preserve" text-anchor="middle" x="493.35" y="-55.8" font-family="Times New Roman,serif" font-size="14.00" fill="green">o1</text>
</g>
<!-- (1, 5)&#45;&gt;(1, 5) -->
<g id="edge26" class="edge">
<title>(1, 5)&#45;&gt;(1, 5)</title>
<path fill="none" stroke="gray" d="M534.64,-72.97C533.47,-83.14 536.28,-92.2 543.07,-92.2 547.1,-92.2 549.73,-89 550.96,-84.28"/>
<polygon fill="gray" stroke="gray" points="554.44,-84.64 551.43,-74.49 547.45,-84.31 554.44,-84.64"/>
<text xml:space="preserve" text-anchor="middle" x="543.07" y="-95.4" font-family="Times New Roman,serif" font-size="14.00" fill="gray">empty</text>
</g>
<!-- (1, 0) -->
<g id="node14" class="node">
<title>(1, 0)</title>
<ellipse fill="none" stroke="black" cx="635.77" cy="-117.6" rx="21.6" ry="21.6"/>
<text xml:space="preserve" text-anchor="middle" x="635.77" y="-112.55" font-family="Times New Roman,serif" font-size="14.00">1,0</text>
</g>
<!-- (1, 5)&#45;&gt;(1, 0) -->
<g id="edge27" class="edge">
<title>(1, 5)&#45;&gt;(1, 0)</title>
<path fill="none" stroke="blue" d="M561.13,-64.83C574.47,-74.39 593.26,-87.85 608.51,-98.78"/>
<polygon fill="blue" stroke="blue" points="606.08,-101.35 616.25,-104.33 610.16,-95.66 606.08,-101.35"/>
<text xml:space="preserve" text-anchor="middle" x="589.42" y="-92.19" font-family="Times New Roman,serif" font-size="14.00" fill="blue">o4</text>
</g>
<!-- (1, 0)&#45;&gt;(1, 1) -->
<g id="edge28" class="edge">
<title>(1, 0)&#45;&gt;(1, 1)</title>
<path fill="none" stroke="green" d="M613.74,-117.6C563.67,-117.6 437.1,-117.6 377.35,-117.6"/>
<polygon fill="green" stroke="green" points="377.51,-114.1 367.51,-117.6 377.51,-121.1 377.51,-114.1"/>
<text xml:space="preserve" text-anchor="middle" x="493.35" y="-120.8" font-family="Times New Roman,serif" font-size="14.00" fill="green">o1</text>
</g>
<!-- (1, 0)&#45;&gt;(1, 0) -->
<g id="edge29" class="edge">
<title>(1, 0)&#45;&gt;(1, 0)</title>
<path fill="none" stroke="gray" d="M627.34,-137.97C626.17,-148.14 628.98,-157.2 635.77,-157.2 639.8,-157.2 642.43,-154 643.66,-149.28"/>
<polygon fill="gray" stroke="gray" points="647.14,-149.64 644.13,-139.49 640.15,-149.31 647.14,-149.64"/>
<text xml:space="preserve" text-anchor="middle" x="635.77" y="-160.4" font-family="Times New Roman,serif" font-size="14.00" fill="gray">empty</text>
</g>
<!-- (1, 3) -->
<g id="node15" class="node">
<title>(1, 3)</title>
<ellipse fill="none" stroke="black" cx="728.47" cy="-117.6" rx="21.6" ry="21.6"/>
<text xml:space="preserve" text-anchor="middle" x="728.47" y="-112.55" font-family="Times New Roman,serif" font-size="14.00">1,3</text>
</g>
<!-- (1, 0)&#45;&gt;(1, 3) -->
<g id="edge30" class="edge">
<title>(1, 0)&#45;&gt;(1, 3)</title>
<path fill="none" stroke="red" d="M657.81,-117.6C668.91,-117.6 682.78,-117.6 695.21,-117.6"/>
<polygon fill="red" stroke="red" points="695.03,-121.1 705.03,-117.6 695.03,-114.1 695.03,-121.1"/>
<text xml:space="preserve" text-anchor="middle" x="682.12" y="-120.8" font-family="Times New Roman,serif" font-size="14.00" fill="red">o2</text>
</g>
<!-- (1, 3)&#45;&gt;(1, 6) -->
<g id="edge32" class="edge">
<title>(1, 3)&#45;&gt;(1, 6)</title>
<path fill="none" stroke="blue" d="M744.86,-131.85C759.06,-145 780.36,-164.73 796.69,-179.85"/>
<polygon fill="blue" stroke="blue" points="793.88,-182.03 803.6,-186.25 798.64,-176.89 793.88,-182.03"/>
<text xml:space="preserve" text-anchor="middle" x="774.82" y="-167.83" font-family="Times New Roman,serif" font-size="14.00" fill="blue">o4</text>
</g>
<!-- (1, 3)&#45;&gt;(1, 3) -->
<g id="edge31" class="edge">
<title>(1, 3)&#45;&gt;(1, 3)</title>
<path fill="none" stroke="gray" d="M720.04,-137.97C718.87,-148.14 721.68,-157.2 728.47,-157.2 732.5,-157.2 735.13,-154 736.36,-149.28"/>
<polygon fill="gray" stroke="gray" points="739.84,-149.64 736.83,-139.49 732.85,-149.31 739.84,-149.64"/>
<text xml:space="preserve" text-anchor="middle" x="728.47" y="-160.4" font-family="Times New Roman,serif" font-size="14.00" fill="gray">empty</text>
</g>
</g>
</svg>
