<?xml version="1.0" encoding="UTF-8" standalone="no"?>
<!DOCTYPE svg PUBLIC "-//W3C//DTD SVG 1.1//EN"
 "http://www.w3.org/Graphics/SVG/1.1/DTD/svg11.dtd">
<!-- Generated by graphviz version 2.43.0 (0)
 -->
<!-- Title: %3 Pages: 1 -->
<svg width="720pt" height="299pt"
 viewBox="0.00 0.00 720.00 298.88" xmlns="http://www.w3.org/2000/svg" xmlns:xlink="http://www.w3.org/1999/xlink">
<g id="graph0" class="graph" transform="scale(0.84 0.84) rotate(0) translate(4 350.5)">
<title>%3</title>
<polygon fill="white" stroke="transparent" points="-4,4 -4,-350.5 850,-350.5 850,4 -4,4"/>
<!-- start_0 -->
<g id="node1" class="node">
<title>start_0</title>
</g>
<!-- (0, 0) -->
<g id="node2" class="node">
<title>(0, 0)</title>
<ellipse fill="none" stroke="black" cx="59.5" cy="-157.5" rx="21.5" ry="21.5"/>
<text text-anchor="middle" x="59.5" y="-153.8" font-family="Times,serif" font-size="14.00">0,0</text>
</g>
<!-- start_0&#45;&gt;(0, 0) -->
<g id="edge1" class="edge">
<title>start_0&#45;&gt;(0, 0)</title>
<path fill="none" stroke="black" d="M1.16,-157.5C2.71,-157.5 14.93,-157.5 27.7,-157.5"/>
<polygon fill="black" stroke="black" points="27.85,-161 37.85,-157.5 27.85,-154 27.85,-161"/>
</g>
<!-- (0, 0)&#45;&gt;(0, 0) -->
<g id="edge4" class="edge">
<title>(0, 0)&#45;&gt;(0, 0)</title>
<path fill="none" stroke="gray" d="M52.22,-177.82C51.21,-187.96 53.64,-197 59.5,-197 63.25,-197 65.6,-193.29 66.53,-187.96"/>
<polygon fill="gray" stroke="gray" points="70.04,-187.91 66.78,-177.82 63.04,-187.74 70.04,-187.91"/>
<text text-anchor="middle" x="59.5" y="-200.8" font-family="Times,serif" font-size="14.00" fill="gray">empty</text>
</g>
<!-- (0, 1) -->
<g id="node3" class="node">
<title>(0, 1)</title>
<ellipse fill="none" stroke="black" cx="152.5" cy="-21.5" rx="21.5" ry="21.5"/>
<text text-anchor="middle" x="152.5" y="-17.8" font-family="Times,serif" font-size="14.00">0,1</text>
</g>
<!-- (0, 0)&#45;&gt;(0, 1) -->
<g id="edge2" class="edge">
<title>(0, 0)&#45;&gt;(0, 1)</title>
<path fill="none" stroke="green" d="M72.21,-140C87.91,-116.54 115.9,-74.7 134.08,-47.54"/>
<polygon fill="green" stroke="green" points="137.18,-49.19 139.83,-38.93 131.36,-45.3 137.18,-49.19"/>
<text text-anchor="middle" x="106" y="-102.3" font-family="Times,serif" font-size="14.00" fill="green">o1</text>
</g>
<!-- (1, 7) -->
<g id="node4" class="node">
<title>(1, 7)</title>
<ellipse fill="none" stroke="black" cx="152.5" cy="-248.5" rx="21.5" ry="21.5"/>
<text text-anchor="middle" x="152.5" y="-244.8" font-family="Times,serif" font-size="14.00">1,7</text>
</g>
<!-- (0, 0)&#45;&gt;(1, 7) -->
<g id="edge3" class="edge">
<title>(0, 0)&#45;&gt;(1, 7)</title>
<path fill="none" stroke="red" d="M70.99,-175.83C78.02,-187.17 87.99,-201.59 99,-212.5 106.58,-220 115.9,-226.96 124.58,-232.73"/>
<polygon fill="red" stroke="red" points="122.97,-235.85 133.28,-238.27 126.73,-229.95 122.97,-235.85"/>
<text text-anchor="middle" x="106" y="-227.3" font-family="Times,serif" font-size="14.00" fill="red">o3</text>
</g>
<!-- (2, 3) -->
<g id="node5" class="node">
<title>(2, 3)</title>
<ellipse fill="none" stroke="black" cx="152.5" cy="-115.5" rx="21.5" ry="21.5"/>
<text text-anchor="middle" x="152.5" y="-111.8" font-family="Times,serif" font-size="14.00">2,3</text>
</g>
<!-- (0, 0)&#45;&gt;(2, 3) -->
<g id="edge5" class="edge">
<title>(0, 0)&#45;&gt;(2, 3)</title>
<path fill="none" stroke="red" d="M79.36,-148.8C92.04,-142.94 109,-135.11 123.29,-128.52"/>
<polygon fill="red" stroke="red" points="125.06,-131.56 132.67,-124.19 122.12,-125.2 125.06,-131.56"/>
<text text-anchor="middle" x="106" y="-142.3" font-family="Times,serif" font-size="14.00" fill="red">o2</text>
</g>
<!-- (0, 1)&#45;&gt;(0, 1) -->
<g id="edge7" class="edge">
<title>(0, 1)&#45;&gt;(0, 1)</title>
<path fill="none" stroke="gray" d="M144.18,-41.42C142.9,-51.72 145.67,-61 152.5,-61 156.87,-61 159.58,-57.19 160.63,-51.74"/>
<polygon fill="gray" stroke="gray" points="164.14,-51.48 160.82,-41.42 157.14,-51.35 164.14,-51.48"/>
<text text-anchor="middle" x="152.5" y="-64.8" font-family="Times,serif" font-size="14.00" fill="gray">empty</text>
</g>
<!-- (0, 2) -->
<g id="node6" class="node">
<title>(0, 2)</title>
<ellipse fill="none" stroke="black" cx="252.5" cy="-21.5" rx="21.5" ry="21.5"/>
<text text-anchor="middle" x="252.5" y="-17.8" font-family="Times,serif" font-size="14.00">0,2</text>
</g>
<!-- (0, 1)&#45;&gt;(0, 2) -->
<g id="edge6" class="edge">
<title>(0, 1)&#45;&gt;(0, 2)</title>
<path fill="none" stroke="black" d="M174.28,-21.5C187.67,-21.5 205.31,-21.5 220.35,-21.5"/>
<polygon fill="black" stroke="black" points="220.75,-25 230.75,-21.5 220.75,-18 220.75,-25"/>
<text text-anchor="middle" x="202.5" y="-25.3" font-family="Times,serif" font-size="14.00">uo2</text>
</g>
<!-- (1, 7)&#45;&gt;(1, 7) -->
<g id="edge9" class="edge">
<title>(1, 7)&#45;&gt;(1, 7)</title>
<path fill="none" stroke="gray" d="M144.18,-268.42C142.9,-278.72 145.67,-288 152.5,-288 156.87,-288 159.58,-284.19 160.63,-278.74"/>
<polygon fill="gray" stroke="gray" points="164.14,-278.48 160.82,-268.42 157.14,-278.35 164.14,-278.48"/>
<text text-anchor="middle" x="152.5" y="-291.8" font-family="Times,serif" font-size="14.00" fill="gray">empty</text>
</g>
<!-- (1, 4) -->
<g id="node7" class="node">
<title>(1, 4)</title>
<ellipse fill="none" stroke="black" cx="252.5" cy="-248.5" rx="21.5" ry="21.5"/>
<text text-anchor="middle" x="252.5" y="-244.8" font-family="Times,serif" font-size="14.00">1,4</text>
</g>
<!-- (1, 7)&#45;&gt;(1, 4) -->
<g id="edge8" class="edge">
<title>(1, 7)&#45;&gt;(1, 4)</title>
<path fill="none" stroke="black" d="M174.28,-248.5C187.67,-248.5 205.31,-248.5 220.35,-248.5"/>
<polygon fill="black" stroke="black" points="220.75,-252 230.75,-248.5 220.75,-245 220.75,-252"/>
<text text-anchor="middle" x="202.5" y="-252.3" font-family="Times,serif" font-size="14.00">uo1</text>
</g>
<!-- (2, 3)&#45;&gt;(2, 3) -->
<g id="edge10" class="edge">
<title>(2, 3)&#45;&gt;(2, 3)</title>
<path fill="none" stroke="gray" d="M144.18,-135.42C142.9,-145.72 145.67,-155 152.5,-155 156.87,-155 159.58,-151.19 160.63,-145.74"/>
<polygon fill="gray" stroke="gray" points="164.14,-145.48 160.82,-135.42 157.14,-145.35 164.14,-145.48"/>
<text text-anchor="middle" x="152.5" y="-158.8" font-family="Times,serif" font-size="14.00" fill="gray">empty</text>
</g>
<!-- (2, 6) -->
<g id="node8" class="node">
<title>(2, 6)</title>
<ellipse fill="none" stroke="black" cx="252.5" cy="-115.5" rx="21.5" ry="21.5"/>
<text text-anchor="middle" x="252.5" y="-111.8" font-family="Times,serif" font-size="14.00">2,6</text>
</g>
<!-- (2, 3)&#45;&gt;(2, 6) -->
<g id="edge11" class="edge">
<title>(2, 3)&#45;&gt;(2, 6)</title>
<path fill="none" stroke="blue" d="M174.28,-115.5C187.67,-115.5 205.31,-115.5 220.35,-115.5"/>
<polygon fill="blue" stroke="blue" points="220.75,-119 230.75,-115.5 220.75,-112 220.75,-119"/>
<text text-anchor="middle" x="202.5" y="-119.3" font-family="Times,serif" font-size="14.00" fill="blue">o4</text>
</g>
<!-- (0, 2)&#45;&gt;(0, 2) -->
<g id="edge13" class="edge">
<title>(0, 2)&#45;&gt;(0, 2)</title>
<path fill="none" stroke="gray" d="M244.18,-41.42C242.9,-51.72 245.67,-61 252.5,-61 256.87,-61 259.58,-57.19 260.63,-51.74"/>
<polygon fill="gray" stroke="gray" points="264.14,-51.48 260.82,-41.42 257.14,-51.35 264.14,-51.48"/>
<text text-anchor="middle" x="252.5" y="-64.8" font-family="Times,serif" font-size="14.00" fill="gray">empty</text>
</g>
<!-- (0, 5) -->
<g id="node9" class="node">
<title>(0, 5)</title>
<ellipse fill="none" stroke="black" cx="345.5" cy="-89.5" rx="21.5" ry="21.5"/>
<text text-anchor="middle" x="345.5" y="-85.8" font-family="Times,serif" font-size="14.00">0,5</text>
</g>
<!-- (0, 2)&#45;&gt;(0, 5) -->
<g id="edge12" class="edge">
<title>(0, 2)&#45;&gt;(0, 5)</title>
<path fill="none" stroke="green" d="M270.19,-33.97C284.04,-44.32 303.95,-59.2 319.68,-70.95"/>
<polygon fill="green" stroke="green" points="317.81,-73.92 327.92,-77.11 322,-68.32 317.81,-73.92"/>
<text text-anchor="middle" x="299" y="-64.3" font-family="Times,serif" font-size="14.00" fill="green">o1</text>
</g>
<!-- (1, 4)&#45;&gt;(1, 4) -->
<g id="edge15" class="edge">
<title>(1, 4)&#45;&gt;(1, 4)</title>
<path fill="none" stroke="gray" d="M244.18,-268.42C242.9,-278.72 245.67,-288 252.5,-288 256.87,-288 259.58,-284.19 260.63,-278.74"/>
<polygon fill="gray" stroke="gray" points="264.14,-278.48 260.82,-268.42 257.14,-278.35 264.14,-278.48"/>
<text text-anchor="middle" x="252.5" y="-291.8" font-family="Times,serif" font-size="14.00" fill="gray">empty</text>
</g>
<!-- (1, 6) -->
<g id="node10" class="node">
<title>(1, 6)</title>
<ellipse fill="none" stroke="black" cx="824.5" cy="-288.5" rx="21.5" ry="21.5"/>
<text text-anchor="middle" x="824.5" y="-284.8" font-family="Times,serif" font-size="14.00">1,6</text>
</g>
<!-- (1, 4)&#45;&gt;(1, 6) -->
<g id="edge14" class="edge">
<title>(1, 4)&#45;&gt;(1, 6)</title>
<path fill="none" stroke="green" d="M270.32,-260.94C287.89,-272.68 316.72,-288.5 344.5,-288.5 344.5,-288.5 344.5,-288.5 732.5,-288.5 752.52,-288.5 775.01,-288.5 792.63,-288.5"/>
<polygon fill="green" stroke="green" points="792.9,-292 802.9,-288.5 792.9,-285 792.9,-292"/>
<text text-anchor="middle" x="545.5" y="-292.3" font-family="Times,serif" font-size="14.00" fill="green">o1</text>
</g>
<!-- (1, 1) -->
<g id="node11" class="node">
<title>(1, 1)</title>
<ellipse fill="none" stroke="black" cx="345.5" cy="-205.5" rx="21.5" ry="21.5"/>
<text text-anchor="middle" x="345.5" y="-201.8" font-family="Times,serif" font-size="14.00">1,1</text>
</g>
<!-- (1, 4)&#45;&gt;(1, 1) -->
<g id="edge16" class="edge">
<title>(1, 4)&#45;&gt;(1, 1)</title>
<path fill="none" stroke="red" d="M272.36,-239.59C285.04,-233.59 302,-225.58 316.29,-218.83"/>
<polygon fill="red" stroke="red" points="318.12,-221.84 325.67,-214.4 315.13,-215.51 318.12,-221.84"/>
<text text-anchor="middle" x="299" y="-233.3" font-family="Times,serif" font-size="14.00" fill="red">o2</text>
</g>
<!-- (2, 6)&#45;&gt;(2, 6) -->
<g id="edge17" class="edge">
<title>(2, 6)&#45;&gt;(2, 6)</title>
<path fill="none" stroke="gray" d="M244.18,-135.42C242.9,-145.72 245.67,-155 252.5,-155 256.87,-155 259.58,-151.19 260.63,-145.74"/>
<polygon fill="gray" stroke="gray" points="264.14,-145.48 260.82,-135.42 257.14,-145.35 264.14,-145.48"/>
<text text-anchor="middle" x="252.5" y="-158.8" font-family="Times,serif" font-size="14.00" fill="gray">empty</text>
</g>
<!-- (0, 5)&#45;&gt;(0, 0) -->
<g id="edge19" class="edge">
<title>(0, 5)&#45;&gt;(0, 0)</title>
<path fill="none" stroke="blue" d="M335.86,-108.92C324.97,-130.7 303.98,-164.9 274,-179.5 213.21,-209.1 131.33,-185.69 88.8,-169.54"/>
<polygon fill="blue" stroke="blue" points="89.95,-166.23 79.37,-165.83 87.39,-172.75 89.95,-166.23"/>
<text text-anchor="middle" x="202.5" y="-197.3" font-family="Times,serif" font-size="14.00" fill="blue">o4</text>
</g>
<!-- (0, 5)&#45;&gt;(0, 5) -->
<g id="edge18" class="edge">
<title>(0, 5)&#45;&gt;(0, 5)</title>
<path fill="none" stroke="gray" d="M337.18,-109.42C335.9,-119.72 338.67,-129 345.5,-129 349.87,-129 352.58,-125.19 353.63,-119.74"/>
<polygon fill="gray" stroke="gray" points="357.14,-119.48 353.82,-109.42 350.14,-119.35 357.14,-119.48"/>
<text text-anchor="middle" x="345.5" y="-132.8" font-family="Times,serif" font-size="14.00" fill="gray">empty</text>
</g>
<!-- (1, 6)&#45;&gt;(1, 7) -->
<g id="edge21" class="edge">
<title>(1, 6)&#45;&gt;(1, 7)</title>
<path fill="none" stroke="cyan" d="M807.15,-301.64C789.73,-314.28 760.81,-331.5 732.5,-331.5 251.5,-331.5 251.5,-331.5 251.5,-331.5 216.15,-331.5 187,-299.67 169.93,-275.43"/>
<polygon fill="cyan" stroke="cyan" points="172.69,-273.26 164.2,-266.92 166.88,-277.17 172.69,-273.26"/>
<text text-anchor="middle" x="495.5" y="-335.3" font-family="Times,serif" font-size="14.00" fill="cyan">uo3</text>
</g>
<!-- (1, 6)&#45;&gt;(1, 6) -->
<g id="edge20" class="edge">
<title>(1, 6)&#45;&gt;(1, 6)</title>
<path fill="none" stroke="gray" d="M816.18,-308.42C814.9,-318.72 817.67,-328 824.5,-328 828.87,-328 831.58,-324.19 832.63,-318.74"/>
<polygon fill="gray" stroke="gray" points="836.14,-318.48 832.82,-308.42 829.14,-318.35 836.14,-318.48"/>
<text text-anchor="middle" x="824.5" y="-331.8" font-family="Times,serif" font-size="14.00" fill="gray">empty</text>
</g>
<!-- (1, 1)&#45;&gt;(1, 1) -->
<g id="edge23" class="edge">
<title>(1, 1)&#45;&gt;(1, 1)</title>
<path fill="none" stroke="gray" d="M337.18,-225.42C335.9,-235.72 338.67,-245 345.5,-245 349.87,-245 352.58,-241.19 353.63,-235.74"/>
<polygon fill="gray" stroke="gray" points="357.14,-235.48 353.82,-225.42 350.14,-235.35 357.14,-235.48"/>
<text text-anchor="middle" x="345.5" y="-248.8" font-family="Times,serif" font-size="14.00" fill="gray">empty</text>
</g>
<!-- (1, 2) -->
<g id="node12" class="node">
<title>(1, 2)</title>
<ellipse fill="none" stroke="black" cx="445.5" cy="-156.5" rx="21.5" ry="21.5"/>
<text text-anchor="middle" x="445.5" y="-152.8" font-family="Times,serif" font-size="14.00">1,2</text>
</g>
<!-- (1, 1)&#45;&gt;(1, 2) -->
<g id="edge22" class="edge">
<title>(1, 1)&#45;&gt;(1, 2)</title>
<path fill="none" stroke="black" d="M364.93,-196.28C379.49,-189.01 400.03,-178.73 416.6,-170.45"/>
<polygon fill="black" stroke="black" points="418.44,-173.44 425.82,-165.84 415.31,-167.18 418.44,-173.44"/>
<text text-anchor="middle" x="395.5" y="-188.3" font-family="Times,serif" font-size="14.00">uo2</text>
</g>
<!-- (1, 2)&#45;&gt;(1, 2) -->
<g id="edge25" class="edge">
<title>(1, 2)&#45;&gt;(1, 2)</title>
<path fill="none" stroke="gray" d="M436.45,-176.42C435.06,-186.72 438.08,-196 445.5,-196 450.25,-196 453.2,-192.19 454.34,-186.74"/>
<polygon fill="gray" stroke="gray" points="457.84,-186.49 454.55,-176.42 450.85,-186.35 457.84,-186.49"/>
<text text-anchor="middle" x="445.5" y="-199.8" font-family="Times,serif" font-size="14.00" fill="gray">empty</text>
</g>
<!-- (1, 5) -->
<g id="node13" class="node">
<title>(1, 5)</title>
<ellipse fill="none" stroke="black" cx="545.5" cy="-156.5" rx="21.5" ry="21.5"/>
<text text-anchor="middle" x="545.5" y="-152.8" font-family="Times,serif" font-size="14.00">1,5</text>
</g>
<!-- (1, 2)&#45;&gt;(1, 5) -->
<g id="edge24" class="edge">
<title>(1, 2)&#45;&gt;(1, 5)</title>
<path fill="none" stroke="green" d="M467.28,-156.5C480.67,-156.5 498.31,-156.5 513.35,-156.5"/>
<polygon fill="green" stroke="green" points="513.75,-160 523.75,-156.5 513.75,-153 513.75,-160"/>
<text text-anchor="middle" x="495.5" y="-160.3" font-family="Times,serif" font-size="14.00" fill="green">o1</text>
</g>
<!-- (1, 5)&#45;&gt;(1, 5) -->
<g id="edge26" class="edge">
<title>(1, 5)&#45;&gt;(1, 5)</title>
<path fill="none" stroke="gray" d="M537.18,-176.42C535.9,-186.72 538.67,-196 545.5,-196 549.87,-196 552.58,-192.19 553.63,-186.74"/>
<polygon fill="gray" stroke="gray" points="557.14,-186.48 553.82,-176.42 550.14,-186.35 557.14,-186.48"/>
<text text-anchor="middle" x="545.5" y="-199.8" font-family="Times,serif" font-size="14.00" fill="gray">empty</text>
</g>
<!-- (1, 0) -->
<g id="node14" class="node">
<title>(1, 0)</title>
<ellipse fill="none" stroke="black" cx="638.5" cy="-205.5" rx="21.5" ry="21.5"/>
<text text-anchor="middle" x="638.5" y="-201.8" font-family="Times,serif" font-size="14.00">1,0</text>
</g>
<!-- (1, 5)&#45;&gt;(1, 0) -->
<g id="edge27" class="edge">
<title>(1, 5)&#45;&gt;(1, 0)</title>
<path fill="none" stroke="blue" d="M564.92,-166.42C577.87,-173.39 595.42,-182.84 610.02,-190.7"/>
<polygon fill="blue" stroke="blue" points="608.65,-193.94 619.11,-195.6 611.97,-187.78 608.65,-193.94"/>
<text text-anchor="middle" x="592" y="-187.3" font-family="Times,serif" font-size="14.00" fill="blue">o4</text>
</g>
<!-- (1, 0)&#45;&gt;(1, 1) -->
<g id="edge28" class="edge">
<title>(1, 0)&#45;&gt;(1, 1)</title>
<path fill="none" stroke="green" d="M617.62,-210.9C603.6,-214.41 584.3,-218.68 567,-220.5 503.79,-227.15 487.27,-226.57 424,-220.5 408.19,-218.98 390.82,-215.77 376.53,-212.7"/>
<polygon fill="green" stroke="green" points="377.26,-209.28 366.74,-210.52 375.74,-216.11 377.26,-209.28"/>
<text text-anchor="middle" x="495.5" y="-228.3" font-family="Times,serif" font-size="14.00" fill="green">o1</text>
</g>
<!-- (1, 0)&#45;&gt;(1, 0) -->
<g id="edge29" class="edge">
<title>(1, 0)&#45;&gt;(1, 0)</title>
<path fill="none" stroke="gray" d="M630.18,-225.42C628.9,-235.72 631.67,-245 638.5,-245 642.87,-245 645.58,-241.19 646.63,-235.74"/>
<polygon fill="gray" stroke="gray" points="650.14,-235.48 646.82,-225.42 643.14,-235.35 650.14,-235.48"/>
<text text-anchor="middle" x="638.5" y="-248.8" font-family="Times,serif" font-size="14.00" fill="gray">empty</text>
</g>
<!-- (1, 3) -->
<g id="node15" class="node">
<title>(1, 3)</title>
<ellipse fill="none" stroke="black" cx="731.5" cy="-205.5" rx="21.5" ry="21.5"/>
<text text-anchor="middle" x="731.5" y="-201.8" font-family="Times,serif" font-size="14.00">1,3</text>
</g>
<!-- (1, 0)&#45;&gt;(1, 3) -->
<g id="edge30" class="edge">
<title>(1, 0)&#45;&gt;(1, 3)</title>
<path fill="none" stroke="red" d="M660.15,-205.5C671.9,-205.5 686.84,-205.5 699.93,-205.5"/>
<polygon fill="red" stroke="red" points="699.93,-209 709.93,-205.5 699.93,-202 699.93,-209"/>
<text text-anchor="middle" x="685" y="-209.3" font-family="Times,serif" font-size="14.00" fill="red">o2</text>
</g>
<!-- (1, 3)&#45;&gt;(1, 6) -->
<g id="edge32" class="edge">
<title>(1, 3)&#45;&gt;(1, 6)</title>
<path fill="none" stroke="blue" d="M747.94,-219.58C762.32,-232.7 783.95,-252.43 800.39,-267.42"/>
<polygon fill="blue" stroke="blue" points="798.24,-270.2 807.99,-274.35 802.96,-265.03 798.24,-270.2"/>
<text text-anchor="middle" x="778" y="-255.3" font-family="Times,serif" font-size="14.00" fill="blue">o4</text>
</g>
<!-- (1, 3)&#45;&gt;(1, 3) -->
<g id="edge31" class="edge">
<title>(1, 3)&#45;&gt;(1, 3)</title>
<path fill="none" stroke="gray" d="M723.18,-225.42C721.9,-235.72 724.67,-245 731.5,-245 735.87,-245 738.58,-241.19 739.63,-235.74"/>
<polygon fill="gray" stroke="gray" points="743.14,-235.48 739.82,-225.42 736.14,-235.35 743.14,-235.48"/>
<text text-anchor="middle" x="731.5" y="-248.8" font-family="Times,serif" font-size="14.00" fill="gray">empty</text>
</g>
</g>
</svg>
