<?xml version="1.0" encoding="UTF-8" standalone="no"?>
<!DOCTYPE svg PUBLIC "-//W3C//DTD SVG 1.1//EN"
 "http://www.w3.org/Graphics/SVG/1.1/DTD/svg11.dtd">
<!-- Generated by graphviz version 2.43.0 (0)
 -->
<!-- Title: %3 Pages: 1 -->
<svg width="720pt" height="229pt"
 viewBox="0.00 0.00 720.00 229.32" xmlns="http://www.w3.org/2000/svg" xmlns:xlink="http://www.w3.org/1999/xlink">
<g id="graph0" class="graph" transform="scale(0.84 0.84) rotate(0) translate(4 268)">
<title>%3</title>
<polygon fill="white" stroke="transparent" points="-4,4 -4,-268 850,-268 850,4 -4,4"/>
<!-- start_0 -->
<g id="node1" class="node">
<title>start_0</title>
</g>
<!-- (0, 0) -->
<g id="node2" class="node">
<title>(0, 0)</title>
<ellipse fill="none" stroke="black" cx="59.5" cy="-75.5" rx="21.5" ry="21.5"/>
<text text-anchor="middle" x="59.5" y="-71.8" font-family="Times,serif" font-size="14.00">0,0</text>
</g>
<!-- start_0&#45;&gt;(0, 0) -->
<g id="edge1" class="edge">
<title>start_0&#45;&gt;(0, 0)</title>
<path fill="none" stroke="black" d="M1.16,-75.5C2.71,-75.5 14.93,-75.5 27.7,-75.5"/>
<polygon fill="black" stroke="black" points="27.85,-79 37.85,-75.5 27.85,-72 27.85,-79"/>
</g>
<!-- (2, 3) -->
<g id="node3" class="node">
<title>(2, 3)</title>
<ellipse fill="none" stroke="black" cx="152.5" cy="-191.5" rx="21.5" ry="21.5"/>
<text text-anchor="middle" x="152.5" y="-187.8" font-family="Times,serif" font-size="14.00">2,3</text>
</g>
<!-- (0, 0)&#45;&gt;(2, 3) -->
<g id="edge2" class="edge">
<title>(0, 0)&#45;&gt;(2, 3)</title>
<path fill="none" stroke="red" d="M73.54,-92.12C88.88,-111.67 114.49,-144.32 132.15,-166.83"/>
<polygon fill="red" stroke="red" points="129.56,-169.2 138.49,-174.91 135.07,-164.88 129.56,-169.2"/>
<text text-anchor="middle" x="106" y="-143.3" font-family="Times,serif" font-size="14.00" fill="red">o2</text>
</g>
<!-- (1, 7) -->
<g id="node4" class="node">
<title>(1, 7)</title>
<ellipse fill="none" stroke="black" cx="152.5" cy="-111.5" rx="21.5" ry="21.5"/>
<text text-anchor="middle" x="152.5" y="-107.8" font-family="Times,serif" font-size="14.00">1,7</text>
</g>
<!-- (0, 0)&#45;&gt;(1, 7) -->
<g id="edge3" class="edge">
<title>(0, 0)&#45;&gt;(1, 7)</title>
<path fill="none" stroke="red" d="M79.8,-83.13C92.23,-88.05 108.61,-94.53 122.58,-100.06"/>
<polygon fill="red" stroke="red" points="121.64,-103.45 132.23,-103.88 124.22,-96.94 121.64,-103.45"/>
<text text-anchor="middle" x="106" y="-99.3" font-family="Times,serif" font-size="14.00" fill="red">o3</text>
</g>
<!-- (0, 1) -->
<g id="node5" class="node">
<title>(0, 1)</title>
<ellipse fill="none" stroke="black" cx="152.5" cy="-50.5" rx="21.5" ry="21.5"/>
<text text-anchor="middle" x="152.5" y="-46.8" font-family="Times,serif" font-size="14.00">0,1</text>
</g>
<!-- (0, 0)&#45;&gt;(0, 1) -->
<g id="edge4" class="edge">
<title>(0, 0)&#45;&gt;(0, 1)</title>
<path fill="none" stroke="green" d="M80.7,-69.95C92.8,-66.63 108.4,-62.34 121.88,-58.64"/>
<polygon fill="green" stroke="green" points="122.96,-61.97 131.67,-55.95 121.1,-55.22 122.96,-61.97"/>
<text text-anchor="middle" x="106" y="-67.3" font-family="Times,serif" font-size="14.00" fill="green">o1</text>
</g>
<!-- (2, 6) -->
<g id="node6" class="node">
<title>(2, 6)</title>
<ellipse fill="none" stroke="black" cx="252.5" cy="-211.5" rx="21.5" ry="21.5"/>
<text text-anchor="middle" x="252.5" y="-207.8" font-family="Times,serif" font-size="14.00">2,6</text>
</g>
<!-- (2, 3)&#45;&gt;(2, 6) -->
<g id="edge5" class="edge">
<title>(2, 3)&#45;&gt;(2, 6)</title>
<path fill="none" stroke="blue" d="M173.81,-195.64C187.47,-198.43 205.73,-202.16 221.12,-205.3"/>
<polygon fill="blue" stroke="blue" points="220.72,-208.79 231.22,-207.36 222.12,-201.93 220.72,-208.79"/>
<text text-anchor="middle" x="202.5" y="-206.3" font-family="Times,serif" font-size="14.00" fill="blue">o4</text>
</g>
<!-- (1, 4) -->
<g id="node7" class="node">
<title>(1, 4)</title>
<ellipse fill="none" stroke="black" cx="252.5" cy="-150.5" rx="21.5" ry="21.5"/>
<text text-anchor="middle" x="252.5" y="-146.8" font-family="Times,serif" font-size="14.00">1,4</text>
</g>
<!-- (1, 7)&#45;&gt;(1, 4) -->
<g id="edge6" class="edge">
<title>(1, 7)&#45;&gt;(1, 4)</title>
<path fill="none" stroke="black" d="M172.86,-119.21C187.09,-124.87 206.66,-132.65 222.71,-139.04"/>
<polygon fill="black" stroke="black" points="221.59,-142.37 232.18,-142.81 224.18,-135.86 221.59,-142.37"/>
<text text-anchor="middle" x="202.5" y="-137.3" font-family="Times,serif" font-size="14.00">uo1</text>
</g>
<!-- (0, 2) -->
<g id="node8" class="node">
<title>(0, 2)</title>
<ellipse fill="none" stroke="black" cx="252.5" cy="-50.5" rx="21.5" ry="21.5"/>
<text text-anchor="middle" x="252.5" y="-46.8" font-family="Times,serif" font-size="14.00">0,2</text>
</g>
<!-- (0, 1)&#45;&gt;(0, 2) -->
<g id="edge7" class="edge">
<title>(0, 1)&#45;&gt;(0, 2)</title>
<path fill="none" stroke="black" d="M174.28,-50.5C187.67,-50.5 205.31,-50.5 220.35,-50.5"/>
<polygon fill="black" stroke="black" points="220.75,-54 230.75,-50.5 220.75,-47 220.75,-54"/>
<text text-anchor="middle" x="202.5" y="-54.3" font-family="Times,serif" font-size="14.00">uo2</text>
</g>
<!-- (1, 1) -->
<g id="node9" class="node">
<title>(1, 1)</title>
<ellipse fill="none" stroke="black" cx="345.5" cy="-196.5" rx="21.5" ry="21.5"/>
<text text-anchor="middle" x="345.5" y="-192.8" font-family="Times,serif" font-size="14.00">1,1</text>
</g>
<!-- (1, 4)&#45;&gt;(1, 1) -->
<g id="edge8" class="edge">
<title>(1, 4)&#45;&gt;(1, 1)</title>
<path fill="none" stroke="red" d="M271.92,-159.81C284.87,-166.36 302.42,-175.23 317.02,-182.61"/>
<polygon fill="red" stroke="red" points="315.61,-185.82 326.11,-187.21 318.77,-179.57 315.61,-185.82"/>
<text text-anchor="middle" x="299" y="-179.3" font-family="Times,serif" font-size="14.00" fill="red">o2</text>
</g>
<!-- (1, 6) -->
<g id="node10" class="node">
<title>(1, 6)</title>
<ellipse fill="none" stroke="black" cx="824.5" cy="-146.5" rx="21.5" ry="21.5"/>
<text text-anchor="middle" x="824.5" y="-142.8" font-family="Times,serif" font-size="14.00">1,6</text>
</g>
<!-- (1, 4)&#45;&gt;(1, 6) -->
<g id="edge9" class="edge">
<title>(1, 4)&#45;&gt;(1, 6)</title>
<path fill="none" stroke="green" d="M274.09,-149.08C292.53,-147.93 320.3,-146.5 344.5,-146.5 344.5,-146.5 344.5,-146.5 732.5,-146.5 752.52,-146.5 775.01,-146.5 792.63,-146.5"/>
<polygon fill="green" stroke="green" points="792.9,-150 802.9,-146.5 792.9,-143 792.9,-150"/>
<text text-anchor="middle" x="545.5" y="-150.3" font-family="Times,serif" font-size="14.00" fill="green">o1</text>
</g>
<!-- (0, 5) -->
<g id="node11" class="node">
<title>(0, 5)</title>
<ellipse fill="none" stroke="black" cx="345.5" cy="-21.5" rx="21.5" ry="21.5"/>
<text text-anchor="middle" x="345.5" y="-17.8" font-family="Times,serif" font-size="14.00">0,5</text>
</g>
<!-- (0, 2)&#45;&gt;(0, 5) -->
<g id="edge10" class="edge">
<title>(0, 2)&#45;&gt;(0, 5)</title>
<path fill="none" stroke="green" d="M273.25,-44.21C285.41,-40.33 301.23,-35.29 314.88,-30.94"/>
<polygon fill="green" stroke="green" points="316.33,-34.15 324.79,-27.78 314.2,-27.48 316.33,-34.15"/>
<text text-anchor="middle" x="299" y="-41.3" font-family="Times,serif" font-size="14.00" fill="green">o1</text>
</g>
<!-- (1, 2) -->
<g id="node12" class="node">
<title>(1, 2)</title>
<ellipse fill="none" stroke="black" cx="445.5" cy="-242.5" rx="21.5" ry="21.5"/>
<text text-anchor="middle" x="445.5" y="-238.8" font-family="Times,serif" font-size="14.00">1,2</text>
</g>
<!-- (1, 1)&#45;&gt;(1, 2) -->
<g id="edge11" class="edge">
<title>(1, 1)&#45;&gt;(1, 2)</title>
<path fill="none" stroke="black" d="M365.4,-205.37C379.9,-212.18 400.16,-221.69 416.54,-229.37"/>
<polygon fill="black" stroke="black" points="415.12,-232.58 425.66,-233.66 418.1,-226.24 415.12,-232.58"/>
<text text-anchor="middle" x="395.5" y="-227.3" font-family="Times,serif" font-size="14.00">uo2</text>
</g>
<!-- (1, 6)&#45;&gt;(1, 7) -->
<g id="edge12" class="edge">
<title>(1, 6)&#45;&gt;(1, 7)</title>
<path fill="none" stroke="cyan" d="M807.62,-132.7C790.36,-119.15 761.35,-100.5 732.5,-100.5 251.5,-100.5 251.5,-100.5 251.5,-100.5 228.68,-100.5 203.05,-103.48 183.72,-106.34"/>
<polygon fill="cyan" stroke="cyan" points="183.04,-102.91 173.7,-107.9 184.11,-109.82 183.04,-102.91"/>
<text text-anchor="middle" x="495.5" y="-104.3" font-family="Times,serif" font-size="14.00" fill="cyan">uo3</text>
</g>
<!-- (0, 5)&#45;&gt;(0, 0) -->
<g id="edge13" class="edge">
<title>(0, 5)&#45;&gt;(0, 0)</title>
<path fill="none" stroke="blue" d="M324.35,-16.92C285.59,-9.04 198.55,4.06 131,-19.5 112.18,-26.07 94.61,-39.99 81.72,-52.31"/>
<polygon fill="blue" stroke="blue" points="78.93,-50.15 74.33,-59.69 83.88,-55.1 78.93,-50.15"/>
<text text-anchor="middle" x="202.5" y="-11.3" font-family="Times,serif" font-size="14.00" fill="blue">o4</text>
</g>
<!-- (1, 5) -->
<g id="node13" class="node">
<title>(1, 5)</title>
<ellipse fill="none" stroke="black" cx="545.5" cy="-242.5" rx="21.5" ry="21.5"/>
<text text-anchor="middle" x="545.5" y="-238.8" font-family="Times,serif" font-size="14.00">1,5</text>
</g>
<!-- (1, 2)&#45;&gt;(1, 5) -->
<g id="edge14" class="edge">
<title>(1, 2)&#45;&gt;(1, 5)</title>
<path fill="none" stroke="green" d="M467.28,-242.5C480.67,-242.5 498.31,-242.5 513.35,-242.5"/>
<polygon fill="green" stroke="green" points="513.75,-246 523.75,-242.5 513.75,-239 513.75,-246"/>
<text text-anchor="middle" x="495.5" y="-246.3" font-family="Times,serif" font-size="14.00" fill="green">o1</text>
</g>
<!-- (1, 0) -->
<g id="node14" class="node">
<title>(1, 0)</title>
<ellipse fill="none" stroke="black" cx="638.5" cy="-196.5" rx="21.5" ry="21.5"/>
<text text-anchor="middle" x="638.5" y="-192.8" font-family="Times,serif" font-size="14.00">1,0</text>
</g>
<!-- (1, 5)&#45;&gt;(1, 0) -->
<g id="edge15" class="edge">
<title>(1, 5)&#45;&gt;(1, 0)</title>
<path fill="none" stroke="blue" d="M564.92,-233.19C577.87,-226.64 595.42,-217.77 610.02,-210.39"/>
<polygon fill="blue" stroke="blue" points="611.77,-213.43 619.11,-205.79 608.61,-207.18 611.77,-213.43"/>
<text text-anchor="middle" x="592" y="-225.3" font-family="Times,serif" font-size="14.00" fill="blue">o4</text>
</g>
<!-- (1, 0)&#45;&gt;(1, 1) -->
<g id="edge17" class="edge">
<title>(1, 0)&#45;&gt;(1, 1)</title>
<path fill="none" stroke="green" d="M616.76,-196.5C566.41,-196.5 437.47,-196.5 377.74,-196.5"/>
<polygon fill="green" stroke="green" points="377.43,-193 367.43,-196.5 377.43,-200 377.43,-193"/>
<text text-anchor="middle" x="495.5" y="-200.3" font-family="Times,serif" font-size="14.00" fill="green">o1</text>
</g>
<!-- (1, 3) -->
<g id="node15" class="node">
<title>(1, 3)</title>
<ellipse fill="none" stroke="black" cx="731.5" cy="-196.5" rx="21.5" ry="21.5"/>
<text text-anchor="middle" x="731.5" y="-192.8" font-family="Times,serif" font-size="14.00">1,3</text>
</g>
<!-- (1, 0)&#45;&gt;(1, 3) -->
<g id="edge16" class="edge">
<title>(1, 0)&#45;&gt;(1, 3)</title>
<path fill="none" stroke="red" d="M660.15,-196.5C671.9,-196.5 686.84,-196.5 699.93,-196.5"/>
<polygon fill="red" stroke="red" points="699.93,-200 709.93,-196.5 699.93,-193 699.93,-200"/>
<text text-anchor="middle" x="685" y="-200.3" font-family="Times,serif" font-size="14.00" fill="red">o2</text>
</g>
<!-- (1, 3)&#45;&gt;(1, 6) -->
<g id="edge18" class="edge">
<title>(1, 3)&#45;&gt;(1, 6)</title>
<path fill="none" stroke="blue" d="M750.92,-186.38C763.95,-179.22 781.65,-169.49 796.31,-161.44"/>
<polygon fill="blue" stroke="blue" points="798.34,-164.32 805.42,-156.43 794.97,-158.18 798.34,-164.32"/>
<text text-anchor="middle" x="778" y="-177.3" font-family="Times,serif" font-size="14.00" fill="blue">o4</text>
</g>
</g>
</svg>
