<?xml version="1.0" encoding="UTF-8" standalone="no"?>
<!DOCTYPE svg PUBLIC "-//W3C//DTD SVG 1.1//EN"
 "http://www.w3.org/Graphics/SVG/1.1/DTD/svg11.dtd">
<!-- Generated by graphviz version 14.1.1 (20251213.1925)
 -->
<!-- Title: attacker_dfa_1 Pages: 1 -->
<svg width="659pt" height="95pt"
 viewBox="0.00 0.00 659.00 95.00" xmlns="http://www.w3.org/2000/svg" xmlns:xlink="http://www.w3.org/1999/xlink">
<g id="graph0" class="graph" transform="scale(1 1) rotate(0) translate(4 90.75)">
<title>attacker_dfa_1</title>
<polygon fill="white" stroke="none" points="-4,4 -4,-90.75 655.1,-90.75 655.1,4 -4,4"/>
<text xml:space="preserve" text-anchor="middle" x="325.55" y="-71.35" font-family="Times New Roman,serif" font-size="12.00">Attacker 1 | Success Prob: 25.00%</text>
<!-- START -->
<g id="node1" class="node">
<title>START</title>
<ellipse fill="black" stroke="black" cx="1.8" cy="-18" rx="1.8" ry="1.8"/>
</g>
<!-- q0 -->
<g id="node2" class="node">
<title>q0</title>
<ellipse fill="#eeeeee" stroke="black" cx="58.6" cy="-18" rx="18" ry="18"/>
<text xml:space="preserve" text-anchor="middle" x="58.6" y="-14.5" font-family="Arial" font-size="10.00">q0</text>
</g>
<!-- START&#45;&gt;q0 -->
<g id="edge1" class="edge">
<title>START&#45;&gt;q0</title>
<path fill="none" stroke="black" d="M3.75,-18C6.96,-18 17.8,-18 28.92,-18"/>
<polygon fill="black" stroke="black" points="28.79,-21.5 38.79,-18 28.78,-14.5 28.79,-21.5"/>
</g>
<!-- s1 -->
<g id="node3" class="node">
<title>s1</title>
<ellipse fill="none" stroke="black" cx="157.6" cy="-18" rx="18" ry="18"/>
<text xml:space="preserve" text-anchor="middle" x="157.6" y="-14.5" font-family="Arial" font-size="10.00">q1</text>
</g>
<!-- q0&#45;&gt;s1 -->
<g id="edge2" class="edge">
<title>q0&#45;&gt;s1</title>
<path fill="none" stroke="black" d="M76.94,-18C91.15,-18 111.54,-18 128.14,-18"/>
<polygon fill="black" stroke="black" points="127.89,-21.5 137.89,-18 127.89,-14.5 127.89,-21.5"/>
<text xml:space="preserve" text-anchor="middle" x="108.1" y="-19.95" font-family="Arial" font-size="9.00">o2(o3)</text>
</g>
<!-- s2 -->
<g id="node4" class="node">
<title>s2</title>
<ellipse fill="none" stroke="black" cx="256.6" cy="-18" rx="18" ry="18"/>
<text xml:space="preserve" text-anchor="middle" x="256.6" y="-14.5" font-family="Arial" font-size="10.00">q2</text>
</g>
<!-- s1&#45;&gt;s2 -->
<g id="edge3" class="edge">
<title>s1&#45;&gt;s2</title>
<path fill="none" stroke="black" d="M175.94,-18C190.15,-18 210.54,-18 227.14,-18"/>
<polygon fill="black" stroke="black" points="226.89,-21.5 236.89,-18 226.89,-14.5 226.89,-21.5"/>
<text xml:space="preserve" text-anchor="middle" x="207.1" y="-19.95" font-family="Arial" font-size="9.00">o4(o4)</text>
</g>
<!-- s3 -->
<g id="node5" class="node">
<title>s3</title>
<ellipse fill="none" stroke="black" cx="369.85" cy="-18" rx="18" ry="18"/>
<text xml:space="preserve" text-anchor="middle" x="369.85" y="-14.5" font-family="Arial" font-size="10.00">q3</text>
</g>
<!-- s2&#45;&gt;s3 -->
<g id="edge4" class="edge">
<title>s2&#45;&gt;s3</title>
<path fill="none" stroke="black" d="M274.98,-18C292.45,-18 319.68,-18 340.32,-18"/>
<polygon fill="black" stroke="black" points="340.08,-21.5 350.08,-18 340.08,-14.5 340.08,-21.5"/>
<text xml:space="preserve" text-anchor="middle" x="313.22" y="-19.95" font-family="Arial" font-size="9.00">o3(empty)</text>
</g>
<!-- s4 -->
<g id="node6" class="node">
<title>s4</title>
<ellipse fill="none" stroke="black" cx="483.1" cy="-18" rx="18" ry="18"/>
<text xml:space="preserve" text-anchor="middle" x="483.1" y="-14.5" font-family="Arial" font-size="10.00">q4</text>
</g>
<!-- s3&#45;&gt;s4 -->
<g id="edge5" class="edge">
<title>s3&#45;&gt;s4</title>
<path fill="none" stroke="black" d="M388.23,-18C405.7,-18 432.93,-18 453.57,-18"/>
<polygon fill="black" stroke="black" points="453.33,-21.5 463.33,-18 453.33,-14.5 453.33,-21.5"/>
<text xml:space="preserve" text-anchor="middle" x="426.47" y="-19.95" font-family="Arial" font-size="9.00">o3(empty)</text>
</g>
<!-- s5 -->
<g id="node7" class="node">
<title>s5</title>
<ellipse fill="none" stroke="black" cx="596.35" cy="-18" rx="18" ry="18"/>
<text xml:space="preserve" text-anchor="middle" x="596.35" y="-14.5" font-family="Arial" font-size="10.00">q5</text>
</g>
<!-- s4&#45;&gt;s5 -->
<g id="edge6" class="edge">
<title>s4&#45;&gt;s5</title>
<path fill="none" stroke="black" d="M501.48,-18C518.95,-18 546.18,-18 566.82,-18"/>
<polygon fill="black" stroke="black" points="566.58,-21.5 576.58,-18 566.58,-14.5 566.58,-21.5"/>
<text xml:space="preserve" text-anchor="middle" x="539.72" y="-19.95" font-family="Arial" font-size="9.00">o3(empty)</text>
</g>
<!-- s5&#45;&gt;s5 -->
<g id="edge7" class="edge">
<title>s5&#45;&gt;s5</title>
<path fill="none" stroke="blue" stroke-dasharray="5,2" d="M586.67,-33.54C583.94,-43.91 587.17,-54 596.35,-54 601.94,-54 605.33,-50.25 606.5,-44.98"/>
<polygon fill="blue" stroke="blue" points="610,-44.9 606.09,-35.05 603.01,-45.19 610,-44.9"/>
<text xml:space="preserve" text-anchor="middle" x="596.35" y="-55.95" font-family="Arial" font-size="9.00">o4(o4)o3(empty)o2(empty)</text>
</g>
</g>
</svg>
