<?xml version="1.0" encoding="UTF-8" standalone="no"?>
<!DOCTYPE svg PUBLIC "-//W3C//DTD SVG 1.1//EN"
 "http://www.w3.org/Graphics/SVG/1.1/DTD/svg11.dtd">
<!-- Generated by graphviz version 2.43.0 (0)
 -->
<!-- Title: attacker_dfa_4 Pages: 1 -->
<svg width="691pt" height="93pt"
 viewBox="0.00 0.00 691.10 93.00" xmlns="http://www.w3.org/2000/svg" xmlns:xlink="http://www.w3.org/1999/xlink">
<g id="graph0" class="graph" transform="scale(1 1) rotate(0) translate(4 89)">
<title>attacker_dfa_4</title>
<polygon fill="white" stroke="transparent" points="-4,4 -4,-89 687.1,-89 687.1,4 -4,4"/>
<text text-anchor="middle" x="341.55" y="-71.4" font-family="Times,serif" font-size="12.00">Attacker 4 | Success Prob: 33.33%</text>
<!-- START -->
<g id="node1" class="node">
<title>START</title>
<ellipse fill="black" stroke="black" cx="1.8" cy="-18" rx="1.8" ry="1.8"/>
</g>
<!-- q0 -->
<g id="node2" class="node">
<title>q0</title>
<ellipse fill="#eeeeee" stroke="black" cx="58.6" cy="-18" rx="18" ry="18"/>
<text text-anchor="middle" x="58.6" y="-15.5" font-family="Arial" font-size="10.00">q0</text>
</g>
<!-- START&#45;&gt;q0 -->
<g id="edge1" class="edge">
<title>START&#45;&gt;q0</title>
<path fill="none" stroke="black" d="M3.75,-18C7.11,-18 18.87,-18 30.55,-18"/>
<polygon fill="black" stroke="black" points="30.58,-21.5 40.58,-18 30.58,-14.5 30.58,-21.5"/>
</g>
<!-- s1 -->
<g id="node3" class="node">
<title>s1</title>
<ellipse fill="none" stroke="black" cx="172.6" cy="-18" rx="18" ry="18"/>
<text text-anchor="middle" x="172.6" y="-15.5" font-family="Arial" font-size="10.00">q1</text>
</g>
<!-- q0&#45;&gt;s1 -->
<g id="edge2" class="edge">
<title>q0&#45;&gt;s1</title>
<path fill="none" stroke="black" d="M76.61,-18C94.54,-18 123.04,-18 144.16,-18"/>
<polygon fill="black" stroke="black" points="144.43,-21.5 154.43,-18 144.43,-14.5 144.43,-21.5"/>
<text text-anchor="middle" x="115.6" y="-20.8" font-family="Arial" font-size="9.00">o2(empty)</text>
</g>
<!-- s2 -->
<g id="node4" class="node">
<title>s2</title>
<ellipse fill="none" stroke="black" cx="272.6" cy="-18" rx="18" ry="18"/>
<text text-anchor="middle" x="272.6" y="-15.5" font-family="Arial" font-size="10.00">q2</text>
</g>
<!-- s1&#45;&gt;s2 -->
<g id="edge3" class="edge">
<title>s1&#45;&gt;s2</title>
<path fill="none" stroke="black" d="M190.67,-18C205.48,-18 227.17,-18 244.37,-18"/>
<polygon fill="black" stroke="black" points="244.4,-21.5 254.4,-18 244.4,-14.5 244.4,-21.5"/>
<text text-anchor="middle" x="222.6" y="-20.8" font-family="Arial" font-size="9.00">o4(o4)</text>
</g>
<!-- s3 -->
<g id="node5" class="node">
<title>s3</title>
<ellipse fill="none" stroke="black" cx="386.6" cy="-18" rx="18" ry="18"/>
<text text-anchor="middle" x="386.6" y="-15.5" font-family="Arial" font-size="10.00">q3</text>
</g>
<!-- s2&#45;&gt;s3 -->
<g id="edge4" class="edge">
<title>s2&#45;&gt;s3</title>
<path fill="none" stroke="black" d="M290.61,-18C308.54,-18 337.04,-18 358.16,-18"/>
<polygon fill="black" stroke="black" points="358.43,-21.5 368.43,-18 358.43,-14.5 358.43,-21.5"/>
<text text-anchor="middle" x="329.6" y="-20.8" font-family="Arial" font-size="9.00">o3(empty)</text>
</g>
<!-- s4 -->
<g id="node6" class="node">
<title>s4</title>
<ellipse fill="none" stroke="black" cx="500.6" cy="-18" rx="18" ry="18"/>
<text text-anchor="middle" x="500.6" y="-15.5" font-family="Arial" font-size="10.00">q4</text>
</g>
<!-- s3&#45;&gt;s4 -->
<g id="edge5" class="edge">
<title>s3&#45;&gt;s4</title>
<path fill="none" stroke="black" d="M404.61,-18C422.54,-18 451.04,-18 472.16,-18"/>
<polygon fill="black" stroke="black" points="472.43,-21.5 482.43,-18 472.43,-14.5 472.43,-21.5"/>
<text text-anchor="middle" x="443.6" y="-20.8" font-family="Arial" font-size="9.00">o3(empty)</text>
</g>
<!-- s5 -->
<g id="node7" class="node">
<title>s5</title>
<ellipse fill="none" stroke="black" cx="614.6" cy="-18" rx="18" ry="18"/>
<text text-anchor="middle" x="614.6" y="-15.5" font-family="Arial" font-size="10.00">q5</text>
</g>
<!-- s4&#45;&gt;s5 -->
<g id="edge6" class="edge">
<title>s4&#45;&gt;s5</title>
<path fill="none" stroke="black" d="M518.61,-18C536.54,-18 565.04,-18 586.16,-18"/>
<polygon fill="black" stroke="black" points="586.43,-21.5 596.43,-18 586.43,-14.5 586.43,-21.5"/>
<text text-anchor="middle" x="557.6" y="-20.8" font-family="Arial" font-size="9.00">o3(empty)</text>
</g>
<!-- s5&#45;&gt;s5 -->
<g id="edge7" class="edge">
<title>s5&#45;&gt;s5</title>
<path fill="none" stroke="blue" stroke-dasharray="5,2" d="M605.03,-33.54C602.33,-43.91 605.52,-54 614.6,-54 620.56,-54 623.98,-49.65 624.87,-43.74"/>
<polygon fill="blue" stroke="blue" points="628.34,-43.28 624.17,-33.54 621.36,-43.76 628.34,-43.28"/>
<text text-anchor="middle" x="614.6" y="-56.8" font-family="Arial" font-size="9.00">o4(o4)o2(empty)o4(o4)o2(empty)</text>
</g>
</g>
</svg>
