<?xml version="1.0" encoding="UTF-8" standalone="no"?>
<!DOCTYPE svg PUBLIC "-//W3C//DTD SVG 1.1//EN"
 "http://www.w3.org/Graphics/SVG/1.1/DTD/svg11.dtd">
<!-- Generated by graphviz version 2.43.0 (0)
 -->
<!-- Title: attacker_dfa_2 Pages: 1 -->
<svg width="567pt" height="105pt"
 viewBox="0.00 0.00 566.88 105.28" xmlns="http://www.w3.org/2000/svg" xmlns:xlink="http://www.w3.org/1999/xlink">
<g id="graph0" class="graph" transform="scale(1 1) rotate(0) translate(4 101.28)">
<title>attacker_dfa_2</title>
<polygon fill="white" stroke="transparent" points="-4,4 -4,-101.28 562.88,-101.28 562.88,4 -4,4"/>
<text text-anchor="middle" x="279.44" y="-83.68" font-family="Times,serif" font-size="12.00">Attacker 2 | Success Prob: 33.33%</text>
<!-- START -->
<g id="node1" class="node">
<title>START</title>
<ellipse fill="black" stroke="black" cx="1.8" cy="-38.14" rx="1.8" ry="1.8"/>
</g>
<!-- q0 -->
<g id="node2" class="node">
<title>q0</title>
<ellipse fill="#eeeeee" stroke="black" cx="58.6" cy="-38.14" rx="18" ry="18"/>
<text text-anchor="middle" x="58.6" y="-35.64" font-family="Arial" font-size="10.00">q0</text>
</g>
<!-- START&#45;&gt;q0 -->
<g id="edge1" class="edge">
<title>START&#45;&gt;q0</title>
<path fill="none" stroke="black" d="M3.75,-38.14C7.11,-38.14 18.87,-38.14 30.55,-38.14"/>
<polygon fill="black" stroke="black" points="30.58,-41.64 40.58,-38.14 30.58,-34.64 30.58,-41.64"/>
</g>
<!-- s1 -->
<g id="node3" class="node">
<title>s1</title>
<ellipse fill="none" stroke="black" cx="172.6" cy="-38.14" rx="18" ry="18"/>
<text text-anchor="middle" x="172.6" y="-35.64" font-family="Arial" font-size="10.00">q1</text>
</g>
<!-- q0&#45;&gt;s1 -->
<g id="edge2" class="edge">
<title>q0&#45;&gt;s1</title>
<path fill="none" stroke="black" d="M76.61,-38.14C94.54,-38.14 123.04,-38.14 144.16,-38.14"/>
<polygon fill="black" stroke="black" points="144.43,-41.64 154.43,-38.14 144.43,-34.64 144.43,-41.64"/>
<text text-anchor="middle" x="115.6" y="-40.94" font-family="Arial" font-size="9.00">o2(empty)</text>
</g>
<!-- s2 -->
<g id="node4" class="node">
<title>s2</title>
<ellipse fill="none" stroke="black" cx="272.6" cy="-38.14" rx="18" ry="18"/>
<text text-anchor="middle" x="272.6" y="-35.64" font-family="Arial" font-size="10.00">q2</text>
</g>
<!-- s1&#45;&gt;s2 -->
<g id="edge3" class="edge">
<title>s1&#45;&gt;s2</title>
<path fill="none" stroke="black" d="M190.67,-38.14C205.48,-38.14 227.17,-38.14 244.37,-38.14"/>
<polygon fill="black" stroke="black" points="244.4,-41.64 254.4,-38.14 244.4,-34.64 244.4,-41.64"/>
<text text-anchor="middle" x="222.6" y="-40.94" font-family="Arial" font-size="9.00">o4(o4)</text>
</g>
<!-- s3 -->
<g id="node5" class="node">
<title>s3</title>
<ellipse fill="none" stroke="black" cx="386.6" cy="-38.14" rx="18" ry="18"/>
<text text-anchor="middle" x="386.6" y="-35.64" font-family="Arial" font-size="10.00">q3</text>
</g>
<!-- s2&#45;&gt;s3 -->
<g id="edge4" class="edge">
<title>s2&#45;&gt;s3</title>
<path fill="none" stroke="black" d="M290.61,-38.14C308.54,-38.14 337.04,-38.14 358.16,-38.14"/>
<polygon fill="black" stroke="black" points="358.43,-41.64 368.43,-38.14 358.43,-34.64 358.43,-41.64"/>
<text text-anchor="middle" x="329.6" y="-40.94" font-family="Arial" font-size="9.00">o3(empty)</text>
</g>
<!-- s4 -->
<g id="node6" class="node">
<title>s4</title>
<ellipse fill="#d4edda" stroke="black" cx="520.74" cy="-38.14" rx="34.27" ry="34.27"/>
<ellipse fill="none" stroke="black" cx="520.74" cy="-38.14" rx="38.29" ry="38.29"/>
<text text-anchor="middle" x="520.74" y="-35.64" font-family="Arial" font-size="10.00">SECRET</text>
</g>
<!-- s3&#45;&gt;s4 -->
<g id="edge5" class="edge">
<title>s3&#45;&gt;s4</title>
<path fill="none" stroke="black" d="M404.6,-38.14C421.67,-38.14 448.73,-38.14 472.33,-38.14"/>
<polygon fill="black" stroke="black" points="472.54,-41.64 482.54,-38.14 472.54,-34.64 472.54,-41.64"/>
<text text-anchor="middle" x="443.6" y="-40.94" font-family="Arial" font-size="9.00">o2(empty)</text>
</g>
</g>
</svg>
