<?xml version="1.0" encoding="UTF-8" standalone="no"?>
<!DOCTYPE svg PUBLIC "-//W3C//DTD SVG 1.1//EN"
 "http://www.w3.org/Graphics/SVG/1.1/DTD/svg11.dtd">
<!-- Generated by graphviz version 14.1.1 (20251213.1925)
 -->
<!-- Title: attacker_dfa_5 Pages: 1 -->
<svg width="550pt" height="107pt"
 viewBox="0.00 0.00 550.00 107.00" xmlns="http://www.w3.org/2000/svg" xmlns:xlink="http://www.w3.org/1999/xlink">
<g id="graph0" class="graph" transform="scale(1 1) rotate(0) translate(4 103.1)">
<title>attacker_dfa_5</title>
<polygon fill="white" stroke="none" points="-4,4 -4,-103.1 545.95,-103.1 545.95,4 -4,4"/>
<text xml:space="preserve" text-anchor="middle" x="270.98" y="-83.7" font-family="Times New Roman,serif" font-size="12.00">Attacker 5 | Success Prob: 12.50%</text>
<!-- START -->
<g id="node1" class="node">
<title>START</title>
<ellipse fill="black" stroke="black" cx="1.8" cy="-38.43" rx="1.8" ry="1.8"/>
</g>
<!-- q0 -->
<g id="node2" class="node">
<title>q0</title>
<ellipse fill="#eeeeee" stroke="black" cx="58.6" cy="-38.43" rx="18" ry="18"/>
<text xml:space="preserve" text-anchor="middle" x="58.6" y="-34.93" font-family="Arial" font-size="10.00">q0</text>
</g>
<!-- START&#45;&gt;q0 -->
<g id="edge1" class="edge">
<title>START&#45;&gt;q0</title>
<path fill="none" stroke="black" d="M3.75,-38.43C6.96,-38.43 17.8,-38.43 28.92,-38.43"/>
<polygon fill="black" stroke="black" points="28.79,-41.93 38.79,-38.43 28.78,-34.93 28.79,-41.93"/>
</g>
<!-- s1 -->
<g id="node3" class="node">
<title>s1</title>
<ellipse fill="none" stroke="black" cx="157.6" cy="-38.43" rx="18" ry="18"/>
<text xml:space="preserve" text-anchor="middle" x="157.6" y="-34.93" font-family="Arial" font-size="10.00">q1</text>
</g>
<!-- q0&#45;&gt;s1 -->
<g id="edge2" class="edge">
<title>q0&#45;&gt;s1</title>
<path fill="none" stroke="black" d="M76.94,-38.43C91.15,-38.43 111.54,-38.43 128.14,-38.43"/>
<polygon fill="black" stroke="black" points="127.89,-41.93 137.89,-38.43 127.89,-34.93 127.89,-41.93"/>
<text xml:space="preserve" text-anchor="middle" x="108.1" y="-40.38" font-family="Arial" font-size="9.00">o2(o3)</text>
</g>
<!-- s2 -->
<g id="node4" class="node">
<title>s2</title>
<ellipse fill="none" stroke="black" cx="256.6" cy="-38.43" rx="18" ry="18"/>
<text xml:space="preserve" text-anchor="middle" x="256.6" y="-34.93" font-family="Arial" font-size="10.00">q2</text>
</g>
<!-- s1&#45;&gt;s2 -->
<g id="edge3" class="edge">
<title>s1&#45;&gt;s2</title>
<path fill="none" stroke="black" d="M175.94,-38.43C190.15,-38.43 210.54,-38.43 227.14,-38.43"/>
<polygon fill="black" stroke="black" points="226.89,-41.93 236.89,-38.43 226.89,-34.93 226.89,-41.93"/>
<text xml:space="preserve" text-anchor="middle" x="207.1" y="-40.38" font-family="Arial" font-size="9.00">o4(o4)</text>
</g>
<!-- s3 -->
<g id="node5" class="node">
<title>s3</title>
<ellipse fill="none" stroke="black" cx="369.85" cy="-38.43" rx="18" ry="18"/>
<text xml:space="preserve" text-anchor="middle" x="369.85" y="-34.93" font-family="Arial" font-size="10.00">q3</text>
</g>
<!-- s2&#45;&gt;s3 -->
<g id="edge4" class="edge">
<title>s2&#45;&gt;s3</title>
<path fill="none" stroke="black" d="M274.98,-38.43C292.45,-38.43 319.68,-38.43 340.32,-38.43"/>
<polygon fill="black" stroke="black" points="340.08,-41.93 350.08,-38.43 340.08,-34.93 340.08,-41.93"/>
<text xml:space="preserve" text-anchor="middle" x="313.22" y="-40.38" font-family="Arial" font-size="9.00">o3(empty)</text>
</g>
<!-- s4 -->
<g id="node6" class="node">
<title>s4</title>
<ellipse fill="#d4edda" stroke="black" cx="503.53" cy="-38.43" rx="34.43" ry="34.43"/>
<ellipse fill="none" stroke="black" cx="503.53" cy="-38.43" rx="38.43" ry="38.43"/>
<text xml:space="preserve" text-anchor="middle" x="503.53" y="-34.93" font-family="Arial" font-size="10.00">SECRET</text>
</g>
<!-- s3&#45;&gt;s4 -->
<g id="edge5" class="edge">
<title>s3&#45;&gt;s4</title>
<path fill="none" stroke="black" d="M388.34,-38.43C404.91,-38.43 430.61,-38.43 453.43,-38.43"/>
<polygon fill="black" stroke="black" points="453.17,-41.93 463.17,-38.43 453.17,-34.93 453.17,-41.93"/>
<text xml:space="preserve" text-anchor="middle" x="426.47" y="-40.38" font-family="Arial" font-size="9.00">o2(empty)</text>
</g>
</g>
</svg>
