<?xml version="1.0" encoding="UTF-8" standalone="no"?>
<!DOCTYPE svg PUBLIC "-//W3C//DTD SVG 1.1//EN"
 "http://www.w3.org/Graphics/SVG/1.1/DTD/svg11.dtd">
<!-- Generated by graphviz version 2.43.0 (0)
 -->
<!-- Title: %3 Pages: 1 -->
<svg width="720pt" height="217pt"
 viewBox="0.00 0.00 720.00 216.67" xmlns="http://www.w3.org/2000/svg" xmlns:xlink="http://www.w3.org/1999/xlink">
<g id="graph0" class="graph" transform="scale(0.84 0.84) rotate(0) translate(4 253)">
<title>%3</title>
<polygon fill="white" stroke="transparent" points="-4,4 -4,-253 850,-253 850,4 -4,4"/>
<!-- start_0 -->
<g id="node1" class="node">
<title>start_0</title>
</g>
<!-- (0, 0) -->
<g id="node2" class="node">
<title>(0, 0)</title>
<ellipse fill="none" stroke="black" cx="59.5" cy="-87.5" rx="21.5" ry="21.5"/>
<text text-anchor="middle" x="59.5" y="-83.8" font-family="Times,serif" font-size="14.00">0,0</text>
</g>
<!-- start_0&#45;&gt;(0, 0) -->
<g id="edge1" class="edge">
<title>start_0&#45;&gt;(0, 0)</title>
<path fill="none" stroke="black" d="M1.16,-87.5C2.71,-87.5 14.93,-87.5 27.7,-87.5"/>
<polygon fill="black" stroke="black" points="27.85,-91 37.85,-87.5 27.85,-84 27.85,-91"/>
</g>
<!-- (0, 1) -->
<g id="node3" class="node">
<title>(0, 1)</title>
<ellipse fill="none" stroke="black" cx="152.5" cy="-21.5" rx="21.5" ry="21.5"/>
<text text-anchor="middle" x="152.5" y="-17.8" font-family="Times,serif" font-size="14.00">0,1</text>
</g>
<!-- (0, 0)&#45;&gt;(0, 1) -->
<g id="edge2" class="edge">
<title>(0, 0)&#45;&gt;(0, 1)</title>
<path fill="none" stroke="green" d="M72.39,-69.87C79.28,-60.72 88.64,-49.93 99,-42.5 105.9,-37.55 114.13,-33.55 122,-30.42"/>
<polygon fill="green" stroke="green" points="123.45,-33.62 131.66,-26.92 121.07,-27.04 123.45,-33.62"/>
<text text-anchor="middle" x="106" y="-46.3" font-family="Times,serif" font-size="14.00" fill="green">o1</text>
</g>
<!-- (2, 3) -->
<g id="node4" class="node">
<title>(2, 3)</title>
<ellipse fill="none" stroke="black" cx="152.5" cy="-209.5" rx="21.5" ry="21.5"/>
<text text-anchor="middle" x="152.5" y="-205.8" font-family="Times,serif" font-size="14.00">2,3</text>
</g>
<!-- (0, 0)&#45;&gt;(2, 3) -->
<g id="edge3" class="edge">
<title>(0, 0)&#45;&gt;(2, 3)</title>
<path fill="none" stroke="red" d="M73.15,-104.46C88.64,-125.22 114.99,-160.55 132.81,-184.44"/>
<polygon fill="red" stroke="red" points="130.17,-186.76 138.95,-192.68 135.78,-182.57 130.17,-186.76"/>
<text text-anchor="middle" x="106" y="-159.3" font-family="Times,serif" font-size="14.00" fill="red">o2</text>
</g>
<!-- (1, 7) -->
<g id="node5" class="node">
<title>(1, 7)</title>
<ellipse fill="none" stroke="black" cx="152.5" cy="-124.5" rx="21.5" ry="21.5"/>
<text text-anchor="middle" x="152.5" y="-120.8" font-family="Times,serif" font-size="14.00">1,7</text>
</g>
<!-- (0, 0)&#45;&gt;(1, 7) -->
<g id="edge4" class="edge">
<title>(0, 0)&#45;&gt;(1, 7)</title>
<path fill="none" stroke="red" d="M79.8,-95.35C92.23,-100.4 108.61,-107.06 122.58,-112.74"/>
<polygon fill="red" stroke="red" points="121.65,-116.14 132.23,-116.66 124.28,-109.66 121.65,-116.14"/>
<text text-anchor="middle" x="106" y="-111.3" font-family="Times,serif" font-size="14.00" fill="red">o3</text>
</g>
<!-- (0, 2) -->
<g id="node6" class="node">
<title>(0, 2)</title>
<ellipse fill="none" stroke="black" cx="252.5" cy="-21.5" rx="21.5" ry="21.5"/>
<text text-anchor="middle" x="252.5" y="-17.8" font-family="Times,serif" font-size="14.00">0,2</text>
</g>
<!-- (0, 1)&#45;&gt;(0, 2) -->
<g id="edge5" class="edge">
<title>(0, 1)&#45;&gt;(0, 2)</title>
<path fill="none" stroke="black" d="M174.28,-21.5C187.67,-21.5 205.31,-21.5 220.35,-21.5"/>
<polygon fill="black" stroke="black" points="220.75,-25 230.75,-21.5 220.75,-18 220.75,-25"/>
<text text-anchor="middle" x="202.5" y="-25.3" font-family="Times,serif" font-size="14.00">uo2</text>
</g>
<!-- (2, 6) -->
<g id="node7" class="node">
<title>(2, 6)</title>
<ellipse fill="none" stroke="black" cx="252.5" cy="-227.5" rx="21.5" ry="21.5"/>
<text text-anchor="middle" x="252.5" y="-223.8" font-family="Times,serif" font-size="14.00">2,6</text>
</g>
<!-- (2, 3)&#45;&gt;(2, 6) -->
<g id="edge6" class="edge">
<title>(2, 3)&#45;&gt;(2, 6)</title>
<path fill="none" stroke="blue" d="M173.81,-213.23C187.47,-215.74 205.73,-219.09 221.12,-221.92"/>
<polygon fill="blue" stroke="blue" points="220.75,-225.41 231.22,-223.78 222.02,-218.53 220.75,-225.41"/>
<text text-anchor="middle" x="202.5" y="-223.3" font-family="Times,serif" font-size="14.00" fill="blue">o4</text>
</g>
<!-- (1, 4) -->
<g id="node8" class="node">
<title>(1, 4)</title>
<ellipse fill="none" stroke="black" cx="252.5" cy="-124.5" rx="21.5" ry="21.5"/>
<text text-anchor="middle" x="252.5" y="-120.8" font-family="Times,serif" font-size="14.00">1,4</text>
</g>
<!-- (1, 7)&#45;&gt;(1, 4) -->
<g id="edge7" class="edge">
<title>(1, 7)&#45;&gt;(1, 4)</title>
<path fill="none" stroke="black" d="M174.28,-124.5C187.67,-124.5 205.31,-124.5 220.35,-124.5"/>
<polygon fill="black" stroke="black" points="220.75,-128 230.75,-124.5 220.75,-121 220.75,-128"/>
<text text-anchor="middle" x="202.5" y="-128.3" font-family="Times,serif" font-size="14.00">uo1</text>
</g>
<!-- (0, 5) -->
<g id="node9" class="node">
<title>(0, 5)</title>
<ellipse fill="pink" stroke="black" cx="345.5" cy="-23.5" rx="21.5" ry="21.5"/>
<text text-anchor="middle" x="345.5" y="-19.8" font-family="Times,serif" font-size="14.00">0,5</text>
</g>
<!-- (0, 2)&#45;&gt;(0, 5) -->
<g id="edge8" class="edge">
<title>(0, 2)&#45;&gt;(0, 5)</title>
<path fill="none" stroke="green" d="M274.15,-21.95C285.9,-22.21 300.84,-22.54 313.93,-22.83"/>
<polygon fill="green" stroke="green" points="313.86,-26.33 323.93,-23.05 314.01,-19.33 313.86,-26.33"/>
<text text-anchor="middle" x="299" y="-27.3" font-family="Times,serif" font-size="14.00" fill="green">o1</text>
</g>
<!-- (1, 6) -->
<g id="node10" class="node">
<title>(1, 6)</title>
<ellipse fill="none" stroke="black" cx="824.5" cy="-134.5" rx="21.5" ry="21.5"/>
<text text-anchor="middle" x="824.5" y="-130.8" font-family="Times,serif" font-size="14.00">1,6</text>
</g>
<!-- (1, 4)&#45;&gt;(1, 6) -->
<g id="edge9" class="edge">
<title>(1, 4)&#45;&gt;(1, 6)</title>
<path fill="none" stroke="green" d="M274.03,-128.05C292.43,-130.93 320.18,-134.5 344.5,-134.5 344.5,-134.5 344.5,-134.5 732.5,-134.5 752.52,-134.5 775.01,-134.5 792.63,-134.5"/>
<polygon fill="green" stroke="green" points="792.9,-138 802.9,-134.5 792.9,-131 792.9,-138"/>
<text text-anchor="middle" x="545.5" y="-138.3" font-family="Times,serif" font-size="14.00" fill="green">o1</text>
</g>
<!-- (1, 1) -->
<g id="node11" class="node">
<title>(1, 1)</title>
<ellipse fill="none" stroke="black" cx="345.5" cy="-84.5" rx="21.5" ry="21.5"/>
<text text-anchor="middle" x="345.5" y="-80.8" font-family="Times,serif" font-size="14.00">1,1</text>
</g>
<!-- (1, 4)&#45;&gt;(1, 1) -->
<g id="edge10" class="edge">
<title>(1, 4)&#45;&gt;(1, 1)</title>
<path fill="none" stroke="red" d="M272.16,-114.93C278.42,-111.81 285.46,-108.41 292,-105.5 299.56,-102.13 307.85,-98.7 315.55,-95.61"/>
<polygon fill="red" stroke="red" points="316.88,-98.85 324.9,-91.92 314.31,-92.34 316.88,-98.85"/>
<text text-anchor="middle" x="299" y="-109.3" font-family="Times,serif" font-size="14.00" fill="red">o2</text>
</g>
<!-- (0, 5)&#45;&gt;(0, 0) -->
<g id="edge11" class="edge">
<title>(0, 5)&#45;&gt;(0, 0)</title>
<path fill="none" stroke="blue" d="M326.01,-33.48C319.77,-36.62 312.68,-39.94 306,-42.5 292.21,-47.79 288.42,-48.27 274,-51.5 209.39,-65.99 132.6,-77.59 90.99,-83.41"/>
<polygon fill="blue" stroke="blue" points="90.38,-79.96 80.95,-84.8 91.34,-86.89 90.38,-79.96"/>
<text text-anchor="middle" x="202.5" y="-70.3" font-family="Times,serif" font-size="14.00" fill="blue">o4</text>
</g>
<!-- (1, 6)&#45;&gt;(1, 7) -->
<g id="edge12" class="edge">
<title>(1, 6)&#45;&gt;(1, 7)</title>
<path fill="none" stroke="cyan" d="M807.15,-147.64C789.73,-160.28 760.81,-177.5 732.5,-177.5 251.5,-177.5 251.5,-177.5 251.5,-177.5 223.32,-177.5 195.48,-160.34 176.71,-145.54"/>
<polygon fill="cyan" stroke="cyan" points="178.7,-142.65 168.76,-138.98 174.25,-148.05 178.7,-142.65"/>
<text text-anchor="middle" x="495.5" y="-181.3" font-family="Times,serif" font-size="14.00" fill="cyan">uo3</text>
</g>
<!-- (1, 2) -->
<g id="node12" class="node">
<title>(1, 2)</title>
<ellipse fill="none" stroke="black" cx="445.5" cy="-36.5" rx="21.5" ry="21.5"/>
<text text-anchor="middle" x="445.5" y="-32.8" font-family="Times,serif" font-size="14.00">1,2</text>
</g>
<!-- (1, 1)&#45;&gt;(1, 2) -->
<g id="edge13" class="edge">
<title>(1, 1)&#45;&gt;(1, 2)</title>
<path fill="none" stroke="black" d="M362.74,-71.63C369.38,-66.77 377.31,-61.46 385,-57.5 394.4,-52.66 405.16,-48.49 414.93,-45.16"/>
<polygon fill="black" stroke="black" points="416.21,-48.43 424.65,-42.02 414.06,-41.77 416.21,-48.43"/>
<text text-anchor="middle" x="395.5" y="-61.3" font-family="Times,serif" font-size="14.00">uo2</text>
</g>
<!-- (1, 5) -->
<g id="node13" class="node">
<title>(1, 5)</title>
<ellipse fill="pink" stroke="black" cx="545.5" cy="-36.5" rx="21.5" ry="21.5"/>
<text text-anchor="middle" x="545.5" y="-32.8" font-family="Times,serif" font-size="14.00">1,5</text>
</g>
<!-- (1, 2)&#45;&gt;(1, 5) -->
<g id="edge14" class="edge">
<title>(1, 2)&#45;&gt;(1, 5)</title>
<path fill="none" stroke="green" d="M467.28,-36.5C480.67,-36.5 498.31,-36.5 513.35,-36.5"/>
<polygon fill="green" stroke="green" points="513.75,-40 523.75,-36.5 513.75,-33 513.75,-40"/>
<text text-anchor="middle" x="495.5" y="-40.3" font-family="Times,serif" font-size="14.00" fill="green">o1</text>
</g>
<!-- (1, 0) -->
<g id="node14" class="node">
<title>(1, 0)</title>
<ellipse fill="none" stroke="black" cx="638.5" cy="-84.5" rx="21.5" ry="21.5"/>
<text text-anchor="middle" x="638.5" y="-80.8" font-family="Times,serif" font-size="14.00">1,0</text>
</g>
<!-- (1, 5)&#45;&gt;(1, 0) -->
<g id="edge15" class="edge">
<title>(1, 5)&#45;&gt;(1, 0)</title>
<path fill="none" stroke="blue" d="M566.44,-43.24C576.46,-46.93 588.64,-51.89 599,-57.5 603.43,-59.9 607.97,-62.71 612.3,-65.6"/>
<polygon fill="blue" stroke="blue" points="610.59,-68.68 620.8,-71.52 614.59,-62.93 610.59,-68.68"/>
<text text-anchor="middle" x="592" y="-61.3" font-family="Times,serif" font-size="14.00" fill="blue">o4</text>
</g>
<!-- (1, 0)&#45;&gt;(1, 1) -->
<g id="edge16" class="edge">
<title>(1, 0)&#45;&gt;(1, 1)</title>
<path fill="none" stroke="green" d="M616.76,-84.5C566.41,-84.5 437.47,-84.5 377.74,-84.5"/>
<polygon fill="green" stroke="green" points="377.43,-81 367.43,-84.5 377.43,-88 377.43,-81"/>
<text text-anchor="middle" x="495.5" y="-88.3" font-family="Times,serif" font-size="14.00" fill="green">o1</text>
</g>
<!-- (1, 3) -->
<g id="node15" class="node">
<title>(1, 3)</title>
<ellipse fill="none" stroke="black" cx="731.5" cy="-84.5" rx="21.5" ry="21.5"/>
<text text-anchor="middle" x="731.5" y="-80.8" font-family="Times,serif" font-size="14.00">1,3</text>
</g>
<!-- (1, 0)&#45;&gt;(1, 3) -->
<g id="edge17" class="edge">
<title>(1, 0)&#45;&gt;(1, 3)</title>
<path fill="none" stroke="red" d="M660.15,-84.5C671.9,-84.5 686.84,-84.5 699.93,-84.5"/>
<polygon fill="red" stroke="red" points="699.93,-88 709.93,-84.5 699.93,-81 699.93,-88"/>
<text text-anchor="middle" x="685" y="-88.3" font-family="Times,serif" font-size="14.00" fill="red">o2</text>
</g>
<!-- (1, 3)&#45;&gt;(1, 6) -->
<g id="edge18" class="edge">
<title>(1, 3)&#45;&gt;(1, 6)</title>
<path fill="none" stroke="blue" d="M752.52,-91.09C762.56,-94.74 774.74,-99.72 785,-105.5 789.92,-108.27 794.92,-111.6 799.62,-114.99"/>
<polygon fill="blue" stroke="blue" points="797.58,-117.84 807.67,-121.08 801.8,-112.26 797.58,-117.84"/>
<text text-anchor="middle" x="778" y="-109.3" font-family="Times,serif" font-size="14.00" fill="blue">o4</text>
</g>
</g>
</svg>
