<?xml version="1.0" encoding="UTF-8" standalone="no"?>
<!DOCTYPE svg PUBLIC "-//W3C//DTD SVG 1.1//EN"
 "http://www.w3.org/Graphics/SVG/1.1/DTD/svg11.dtd">
<!-- Generated by graphviz version 2.43.0 (0)
 -->
<!-- Title: %3 Pages: 1 -->
<svg width="720pt" height="285pt"
 viewBox="0.00 0.00 720.00 284.96" xmlns="http://www.w3.org/2000/svg" xmlns:xlink="http://www.w3.org/1999/xlink">
<g id="graph0" class="graph" transform="scale(0.84 0.84) rotate(0) translate(4 334)">
<title>%3</title>
<polygon fill="white" stroke="transparent" points="-4,4 -4,-334 850,-334 850,4 -4,4"/>
<!-- start_0 -->
<g id="node1" class="node">
<title>start_0</title>
</g>
<!-- (0, 0) -->
<g id="node2" class="node">
<title>(0, 0)</title>
<ellipse fill="none" stroke="black" cx="59.5" cy="-75.5" rx="21.5" ry="21.5"/>
<text text-anchor="middle" x="59.5" y="-71.8" font-family="Times,serif" font-size="14.00">0,0</text>
</g>
<!-- start_0&#45;&gt;(0, 0) -->
<g id="edge1" class="edge">
<title>start_0&#45;&gt;(0, 0)</title>
<path fill="none" stroke="black" d="M1.16,-75.5C2.71,-75.5 14.93,-75.5 27.7,-75.5"/>
<polygon fill="black" stroke="black" points="27.85,-79 37.85,-75.5 27.85,-72 27.85,-79"/>
</g>
<!-- (1, 7) -->
<g id="node3" class="node">
<title>(1, 7)</title>
<ellipse fill="none" stroke="black" cx="152.5" cy="-172.5" rx="21.5" ry="21.5"/>
<text text-anchor="middle" x="152.5" y="-168.8" font-family="Times,serif" font-size="14.00">1,7</text>
</g>
<!-- (0, 0)&#45;&gt;(1, 7) -->
<g id="edge2" class="edge">
<title>(0, 0)&#45;&gt;(1, 7)</title>
<path fill="none" stroke="red" d="M75.12,-91.08C89.93,-106.87 113.02,-131.48 129.93,-149.51"/>
<polygon fill="red" stroke="red" points="127.82,-152.38 137.22,-157.27 132.93,-147.59 127.82,-152.38"/>
<text text-anchor="middle" x="106" y="-133.3" font-family="Times,serif" font-size="14.00" fill="red">o3</text>
</g>
<!-- (2, 3) -->
<g id="node4" class="node">
<title>(2, 3)</title>
<ellipse fill="none" stroke="black" cx="152.5" cy="-111.5" rx="21.5" ry="21.5"/>
<text text-anchor="middle" x="152.5" y="-107.8" font-family="Times,serif" font-size="14.00">2,3</text>
</g>
<!-- (0, 0)&#45;&gt;(2, 3) -->
<g id="edge3" class="edge">
<title>(0, 0)&#45;&gt;(2, 3)</title>
<path fill="none" stroke="red" d="M79.8,-83.13C92.23,-88.05 108.61,-94.53 122.58,-100.06"/>
<polygon fill="red" stroke="red" points="121.64,-103.45 132.23,-103.88 124.22,-96.94 121.64,-103.45"/>
<text text-anchor="middle" x="106" y="-99.3" font-family="Times,serif" font-size="14.00" fill="red">o2</text>
</g>
<!-- (0, 1) -->
<g id="node5" class="node">
<title>(0, 1)</title>
<ellipse fill="none" stroke="black" cx="152.5" cy="-50.5" rx="21.5" ry="21.5"/>
<text text-anchor="middle" x="152.5" y="-46.8" font-family="Times,serif" font-size="14.00">0,1</text>
</g>
<!-- (0, 0)&#45;&gt;(0, 1) -->
<g id="edge4" class="edge">
<title>(0, 0)&#45;&gt;(0, 1)</title>
<path fill="none" stroke="green" d="M80.7,-69.95C92.8,-66.63 108.4,-62.34 121.88,-58.64"/>
<polygon fill="green" stroke="green" points="122.96,-61.97 131.67,-55.95 121.1,-55.22 122.96,-61.97"/>
<text text-anchor="middle" x="106" y="-67.3" font-family="Times,serif" font-size="14.00" fill="green">o1</text>
</g>
<!-- (1, 4) -->
<g id="node6" class="node">
<title>(1, 4)</title>
<ellipse fill="none" stroke="black" cx="252.5" cy="-216.5" rx="21.5" ry="21.5"/>
<text text-anchor="middle" x="252.5" y="-212.8" font-family="Times,serif" font-size="14.00">1,4</text>
</g>
<!-- (1, 7)&#45;&gt;(1, 4) -->
<g id="edge5" class="edge">
<title>(1, 7)&#45;&gt;(1, 4)</title>
<path fill="none" stroke="black" d="M172.4,-180.98C186.9,-187.5 207.16,-196.59 223.54,-203.95"/>
<polygon fill="black" stroke="black" points="222.11,-207.14 232.66,-208.04 224.97,-200.75 222.11,-207.14"/>
<text text-anchor="middle" x="202.5" y="-201.3" font-family="Times,serif" font-size="14.00">uo1</text>
</g>
<!-- (2, 6) -->
<g id="node7" class="node">
<title>(2, 6)</title>
<ellipse fill="none" stroke="black" cx="252.5" cy="-111.5" rx="21.5" ry="21.5"/>
<text text-anchor="middle" x="252.5" y="-107.8" font-family="Times,serif" font-size="14.00">2,6</text>
</g>
<!-- (2, 3)&#45;&gt;(2, 6) -->
<g id="edge6" class="edge">
<title>(2, 3)&#45;&gt;(2, 6)</title>
<path fill="none" stroke="blue" d="M174.28,-111.5C187.67,-111.5 205.31,-111.5 220.35,-111.5"/>
<polygon fill="blue" stroke="blue" points="220.75,-115 230.75,-111.5 220.75,-108 220.75,-115"/>
<text text-anchor="middle" x="202.5" y="-115.3" font-family="Times,serif" font-size="14.00" fill="blue">o4</text>
</g>
<!-- (0, 2) -->
<g id="node8" class="node">
<title>(0, 2)</title>
<ellipse fill="none" stroke="black" cx="252.5" cy="-50.5" rx="21.5" ry="21.5"/>
<text text-anchor="middle" x="252.5" y="-46.8" font-family="Times,serif" font-size="14.00">0,2</text>
</g>
<!-- (0, 1)&#45;&gt;(0, 2) -->
<g id="edge7" class="edge">
<title>(0, 1)&#45;&gt;(0, 2)</title>
<path fill="none" stroke="black" d="M174.28,-50.5C187.67,-50.5 205.31,-50.5 220.35,-50.5"/>
<polygon fill="black" stroke="black" points="220.75,-54 230.75,-50.5 220.75,-47 220.75,-54"/>
<text text-anchor="middle" x="202.5" y="-54.3" font-family="Times,serif" font-size="14.00">uo2</text>
</g>
<!-- (1, 1) -->
<g id="node9" class="node">
<title>(1, 1)</title>
<ellipse fill="none" stroke="black" cx="345.5" cy="-262.5" rx="21.5" ry="21.5"/>
<text text-anchor="middle" x="345.5" y="-258.8" font-family="Times,serif" font-size="14.00">1,1</text>
</g>
<!-- (1, 4)&#45;&gt;(1, 1) -->
<g id="edge8" class="edge">
<title>(1, 4)&#45;&gt;(1, 1)</title>
<path fill="none" stroke="red" d="M271.92,-225.81C284.87,-232.36 302.42,-241.23 317.02,-248.61"/>
<polygon fill="red" stroke="red" points="315.61,-251.82 326.11,-253.21 318.77,-245.57 315.61,-251.82"/>
<text text-anchor="middle" x="299" y="-245.3" font-family="Times,serif" font-size="14.00" fill="red">o2</text>
</g>
<!-- (1, 6) -->
<g id="node10" class="node">
<title>(1, 6)</title>
<ellipse fill="none" stroke="black" cx="824.5" cy="-212.5" rx="21.5" ry="21.5"/>
<text text-anchor="middle" x="824.5" y="-208.8" font-family="Times,serif" font-size="14.00">1,6</text>
</g>
<!-- (1, 4)&#45;&gt;(1, 6) -->
<g id="edge9" class="edge">
<title>(1, 4)&#45;&gt;(1, 6)</title>
<path fill="none" stroke="green" d="M274.09,-215.08C292.53,-213.93 320.3,-212.5 344.5,-212.5 344.5,-212.5 344.5,-212.5 732.5,-212.5 752.52,-212.5 775.01,-212.5 792.63,-212.5"/>
<polygon fill="green" stroke="green" points="792.9,-216 802.9,-212.5 792.9,-209 792.9,-216"/>
<text text-anchor="middle" x="545.5" y="-216.3" font-family="Times,serif" font-size="14.00" fill="green">o1</text>
</g>
<!-- (0, 5) -->
<g id="node11" class="node">
<title>(0, 5)</title>
<ellipse fill="pink" stroke="black" cx="345.5" cy="-21.5" rx="21.5" ry="21.5"/>
<text text-anchor="middle" x="345.5" y="-17.8" font-family="Times,serif" font-size="14.00">0,5</text>
</g>
<!-- (0, 2)&#45;&gt;(0, 5) -->
<g id="edge10" class="edge">
<title>(0, 2)&#45;&gt;(0, 5)</title>
<path fill="none" stroke="green" d="M273.25,-44.21C285.41,-40.33 301.23,-35.29 314.88,-30.94"/>
<polygon fill="green" stroke="green" points="316.33,-34.15 324.79,-27.78 314.2,-27.48 316.33,-34.15"/>
<text text-anchor="middle" x="299" y="-41.3" font-family="Times,serif" font-size="14.00" fill="green">o1</text>
</g>
<!-- (1, 2) -->
<g id="node12" class="node">
<title>(1, 2)</title>
<ellipse fill="none" stroke="black" cx="445.5" cy="-308.5" rx="21.5" ry="21.5"/>
<text text-anchor="middle" x="445.5" y="-304.8" font-family="Times,serif" font-size="14.00">1,2</text>
</g>
<!-- (1, 1)&#45;&gt;(1, 2) -->
<g id="edge11" class="edge">
<title>(1, 1)&#45;&gt;(1, 2)</title>
<path fill="none" stroke="black" d="M365.4,-271.37C379.9,-278.18 400.16,-287.69 416.54,-295.37"/>
<polygon fill="black" stroke="black" points="415.12,-298.58 425.66,-299.66 418.1,-292.24 415.12,-298.58"/>
<text text-anchor="middle" x="395.5" y="-293.3" font-family="Times,serif" font-size="14.00">uo2</text>
</g>
<!-- (1, 6)&#45;&gt;(1, 7) -->
<g id="edge12" class="edge">
<title>(1, 6)&#45;&gt;(1, 7)</title>
<path fill="none" stroke="cyan" d="M807.62,-198.7C790.36,-185.15 761.35,-166.5 732.5,-166.5 251.5,-166.5 251.5,-166.5 251.5,-166.5 228.92,-166.5 203.47,-168.11 184.16,-169.66"/>
<polygon fill="cyan" stroke="cyan" points="183.8,-166.18 174.13,-170.5 184.38,-173.15 183.8,-166.18"/>
<text text-anchor="middle" x="495.5" y="-170.3" font-family="Times,serif" font-size="14.00" fill="cyan">uo3</text>
</g>
<!-- (0, 5)&#45;&gt;(0, 0) -->
<g id="edge13" class="edge">
<title>(0, 5)&#45;&gt;(0, 0)</title>
<path fill="none" stroke="blue" d="M324.35,-16.92C285.59,-9.04 198.55,4.06 131,-19.5 112.18,-26.07 94.61,-39.99 81.72,-52.31"/>
<polygon fill="blue" stroke="blue" points="78.93,-50.15 74.33,-59.69 83.88,-55.1 78.93,-50.15"/>
<text text-anchor="middle" x="202.5" y="-11.3" font-family="Times,serif" font-size="14.00" fill="blue">o4</text>
</g>
<!-- (1, 5) -->
<g id="node13" class="node">
<title>(1, 5)</title>
<ellipse fill="pink" stroke="black" cx="545.5" cy="-308.5" rx="21.5" ry="21.5"/>
<text text-anchor="middle" x="545.5" y="-304.8" font-family="Times,serif" font-size="14.00">1,5</text>
</g>
<!-- (1, 2)&#45;&gt;(1, 5) -->
<g id="edge14" class="edge">
<title>(1, 2)&#45;&gt;(1, 5)</title>
<path fill="none" stroke="green" d="M467.28,-308.5C480.67,-308.5 498.31,-308.5 513.35,-308.5"/>
<polygon fill="green" stroke="green" points="513.75,-312 523.75,-308.5 513.75,-305 513.75,-312"/>
<text text-anchor="middle" x="495.5" y="-312.3" font-family="Times,serif" font-size="14.00" fill="green">o1</text>
</g>
<!-- (1, 0) -->
<g id="node14" class="node">
<title>(1, 0)</title>
<ellipse fill="none" stroke="black" cx="638.5" cy="-262.5" rx="21.5" ry="21.5"/>
<text text-anchor="middle" x="638.5" y="-258.8" font-family="Times,serif" font-size="14.00">1,0</text>
</g>
<!-- (1, 5)&#45;&gt;(1, 0) -->
<g id="edge15" class="edge">
<title>(1, 5)&#45;&gt;(1, 0)</title>
<path fill="none" stroke="blue" d="M564.92,-299.19C577.87,-292.64 595.42,-283.77 610.02,-276.39"/>
<polygon fill="blue" stroke="blue" points="611.77,-279.43 619.11,-271.79 608.61,-273.18 611.77,-279.43"/>
<text text-anchor="middle" x="592" y="-291.3" font-family="Times,serif" font-size="14.00" fill="blue">o4</text>
</g>
<!-- (1, 0)&#45;&gt;(1, 1) -->
<g id="edge17" class="edge">
<title>(1, 0)&#45;&gt;(1, 1)</title>
<path fill="none" stroke="green" d="M616.76,-262.5C566.41,-262.5 437.47,-262.5 377.74,-262.5"/>
<polygon fill="green" stroke="green" points="377.43,-259 367.43,-262.5 377.43,-266 377.43,-259"/>
<text text-anchor="middle" x="495.5" y="-266.3" font-family="Times,serif" font-size="14.00" fill="green">o1</text>
</g>
<!-- (1, 3) -->
<g id="node15" class="node">
<title>(1, 3)</title>
<ellipse fill="none" stroke="black" cx="731.5" cy="-262.5" rx="21.5" ry="21.5"/>
<text text-anchor="middle" x="731.5" y="-258.8" font-family="Times,serif" font-size="14.00">1,3</text>
</g>
<!-- (1, 0)&#45;&gt;(1, 3) -->
<g id="edge16" class="edge">
<title>(1, 0)&#45;&gt;(1, 3)</title>
<path fill="none" stroke="red" d="M660.15,-262.5C671.9,-262.5 686.84,-262.5 699.93,-262.5"/>
<polygon fill="red" stroke="red" points="699.93,-266 709.93,-262.5 699.93,-259 699.93,-266"/>
<text text-anchor="middle" x="685" y="-266.3" font-family="Times,serif" font-size="14.00" fill="red">o2</text>
</g>
<!-- (1, 3)&#45;&gt;(1, 6) -->
<g id="edge18" class="edge">
<title>(1, 3)&#45;&gt;(1, 6)</title>
<path fill="none" stroke="blue" d="M750.92,-252.38C763.95,-245.22 781.65,-235.49 796.31,-227.44"/>
<polygon fill="blue" stroke="blue" points="798.34,-230.32 805.42,-222.43 794.97,-224.18 798.34,-230.32"/>
<text text-anchor="middle" x="778" y="-243.3" font-family="Times,serif" font-size="14.00" fill="blue">o4</text>
</g>
</g>
</svg>
