<?xml version="1.0" encoding="UTF-8" standalone="no"?>
<!DOCTYPE svg PUBLIC "-//W3C//DTD SVG 1.1//EN"
 "http://www.w3.org/Graphics/SVG/1.1/DTD/svg11.dtd">
<!-- Generated by graphviz version 2.43.0 (0)
 -->
<!-- Title: %3 Pages: 1 -->
<svg width="720pt" height="220pt"
 viewBox="0.00 0.00 720.00 220.47" xmlns="http://www.w3.org/2000/svg" xmlns:xlink="http://www.w3.org/1999/xlink">
<g id="graph0" class="graph" transform="scale(0.84 0.84) rotate(0) translate(4 257.5)">
<title>%3</title>
<polygon fill="white" stroke="transparent" points="-4,4 -4,-257.5 850,-257.5 850,4 -4,4"/>
<!-- start_0 -->
<g id="node1" class="node">
<title>start_0</title>
</g>
<!-- (0, 0) -->
<g id="node2" class="node">
<title>(0, 0)</title>
<ellipse fill="none" stroke="black" cx="59.5" cy="-107.5" rx="21.5" ry="21.5"/>
<text text-anchor="middle" x="59.5" y="-103.8" font-family="Times,serif" font-size="14.00">0,0</text>
</g>
<!-- start_0&#45;&gt;(0, 0) -->
<g id="edge1" class="edge">
<title>start_0&#45;&gt;(0, 0)</title>
<path fill="none" stroke="black" d="M1.16,-107.5C2.71,-107.5 14.93,-107.5 27.7,-107.5"/>
<polygon fill="black" stroke="black" points="27.85,-111 37.85,-107.5 27.85,-104 27.85,-111"/>
</g>
<!-- (0, 1) -->
<g id="node3" class="node">
<title>(0, 1)</title>
<ellipse fill="none" stroke="black" cx="152.5" cy="-21.5" rx="21.5" ry="21.5"/>
<text text-anchor="middle" x="152.5" y="-17.8" font-family="Times,serif" font-size="14.00">0,1</text>
</g>
<!-- (0, 0)&#45;&gt;(0, 1) -->
<g id="edge2" class="edge">
<title>(0, 0)&#45;&gt;(0, 1)</title>
<path fill="none" stroke="green" d="M75.94,-92.91C90.4,-79.24 112.21,-58.63 128.69,-43.06"/>
<polygon fill="green" stroke="green" points="131.43,-45.29 136.29,-35.87 126.62,-40.2 131.43,-45.29"/>
<text text-anchor="middle" x="106" y="-74.3" font-family="Times,serif" font-size="14.00" fill="green">o1</text>
</g>
<!-- (1, 7) -->
<g id="node4" class="node">
<title>(1, 7)</title>
<ellipse fill="none" stroke="black" cx="152.5" cy="-185.5" rx="21.5" ry="21.5"/>
<text text-anchor="middle" x="152.5" y="-181.8" font-family="Times,serif" font-size="14.00">1,7</text>
</g>
<!-- (0, 0)&#45;&gt;(1, 7) -->
<g id="edge3" class="edge">
<title>(0, 0)&#45;&gt;(1, 7)</title>
<path fill="none" stroke="red" d="M74.61,-122.86C81.68,-130.27 90.53,-139.14 99,-146.5 107.36,-153.76 116.96,-161.15 125.66,-167.51"/>
<polygon fill="red" stroke="red" points="123.8,-170.49 133.96,-173.49 127.89,-164.81 123.8,-170.49"/>
<text text-anchor="middle" x="106" y="-161.3" font-family="Times,serif" font-size="14.00" fill="red">o3</text>
</g>
<!-- (2, 3) -->
<g id="node5" class="node">
<title>(2, 3)</title>
<ellipse fill="none" stroke="black" cx="152.5" cy="-82.5" rx="21.5" ry="21.5"/>
<text text-anchor="middle" x="152.5" y="-78.8" font-family="Times,serif" font-size="14.00">2,3</text>
</g>
<!-- (0, 0)&#45;&gt;(2, 3) -->
<g id="edge4" class="edge">
<title>(0, 0)&#45;&gt;(2, 3)</title>
<path fill="none" stroke="red" d="M80.7,-101.95C92.8,-98.63 108.4,-94.34 121.88,-90.64"/>
<polygon fill="red" stroke="red" points="122.96,-93.97 131.67,-87.95 121.1,-87.22 122.96,-93.97"/>
<text text-anchor="middle" x="106" y="-99.3" font-family="Times,serif" font-size="14.00" fill="red">o2</text>
</g>
<!-- (0, 2) -->
<g id="node6" class="node">
<title>(0, 2)</title>
<ellipse fill="none" stroke="black" cx="252.5" cy="-21.5" rx="21.5" ry="21.5"/>
<text text-anchor="middle" x="252.5" y="-17.8" font-family="Times,serif" font-size="14.00">0,2</text>
</g>
<!-- (0, 1)&#45;&gt;(0, 2) -->
<g id="edge5" class="edge">
<title>(0, 1)&#45;&gt;(0, 2)</title>
<path fill="none" stroke="black" d="M174.28,-21.5C187.67,-21.5 205.31,-21.5 220.35,-21.5"/>
<polygon fill="black" stroke="black" points="220.75,-25 230.75,-21.5 220.75,-18 220.75,-25"/>
<text text-anchor="middle" x="202.5" y="-25.3" font-family="Times,serif" font-size="14.00">uo2</text>
</g>
<!-- (1, 4) -->
<g id="node7" class="node">
<title>(1, 4)</title>
<ellipse fill="none" stroke="black" cx="252.5" cy="-185.5" rx="21.5" ry="21.5"/>
<text text-anchor="middle" x="252.5" y="-181.8" font-family="Times,serif" font-size="14.00">1,4</text>
</g>
<!-- (1, 7)&#45;&gt;(1, 4) -->
<g id="edge6" class="edge">
<title>(1, 7)&#45;&gt;(1, 4)</title>
<path fill="none" stroke="black" d="M174.28,-185.5C187.67,-185.5 205.31,-185.5 220.35,-185.5"/>
<polygon fill="black" stroke="black" points="220.75,-189 230.75,-185.5 220.75,-182 220.75,-189"/>
<text text-anchor="middle" x="202.5" y="-189.3" font-family="Times,serif" font-size="14.00">uo1</text>
</g>
<!-- (2, 6) -->
<g id="node8" class="node">
<title>(2, 6)</title>
<ellipse fill="none" stroke="black" cx="252.5" cy="-82.5" rx="21.5" ry="21.5"/>
<text text-anchor="middle" x="252.5" y="-78.8" font-family="Times,serif" font-size="14.00">2,6</text>
</g>
<!-- (2, 3)&#45;&gt;(2, 6) -->
<g id="edge7" class="edge">
<title>(2, 3)&#45;&gt;(2, 6)</title>
<path fill="none" stroke="blue" d="M174.28,-82.5C187.67,-82.5 205.31,-82.5 220.35,-82.5"/>
<polygon fill="blue" stroke="blue" points="220.75,-86 230.75,-82.5 220.75,-79 220.75,-86"/>
<text text-anchor="middle" x="202.5" y="-86.3" font-family="Times,serif" font-size="14.00" fill="blue">o4</text>
</g>
<!-- (0, 5) -->
<g id="node9" class="node">
<title>(0, 5)</title>
<ellipse fill="pink" stroke="black" cx="345.5" cy="-68.5" rx="21.5" ry="21.5"/>
<text text-anchor="middle" x="345.5" y="-64.8" font-family="Times,serif" font-size="14.00">0,5</text>
</g>
<!-- (0, 2)&#45;&gt;(0, 5) -->
<g id="edge8" class="edge">
<title>(0, 2)&#45;&gt;(0, 5)</title>
<path fill="none" stroke="green" d="M271.92,-31.01C284.87,-37.7 302.42,-46.77 317.02,-54.31"/>
<polygon fill="green" stroke="green" points="315.62,-57.52 326.11,-59 318.83,-51.3 315.62,-57.52"/>
<text text-anchor="middle" x="299" y="-52.3" font-family="Times,serif" font-size="14.00" fill="green">o1</text>
</g>
<!-- (1, 6) -->
<g id="node10" class="node">
<title>(1, 6)</title>
<ellipse fill="none" stroke="black" cx="824.5" cy="-195.5" rx="21.5" ry="21.5"/>
<text text-anchor="middle" x="824.5" y="-191.8" font-family="Times,serif" font-size="14.00">1,6</text>
</g>
<!-- (1, 4)&#45;&gt;(1, 6) -->
<g id="edge9" class="edge">
<title>(1, 4)&#45;&gt;(1, 6)</title>
<path fill="none" stroke="green" d="M274.03,-189.05C292.43,-191.93 320.18,-195.5 344.5,-195.5 344.5,-195.5 344.5,-195.5 732.5,-195.5 752.52,-195.5 775.01,-195.5 792.63,-195.5"/>
<polygon fill="green" stroke="green" points="792.9,-199 802.9,-195.5 792.9,-192 792.9,-199"/>
<text text-anchor="middle" x="545.5" y="-199.3" font-family="Times,serif" font-size="14.00" fill="green">o1</text>
</g>
<!-- (1, 1) -->
<g id="node11" class="node">
<title>(1, 1)</title>
<ellipse fill="none" stroke="black" cx="345.5" cy="-145.5" rx="21.5" ry="21.5"/>
<text text-anchor="middle" x="345.5" y="-141.8" font-family="Times,serif" font-size="14.00">1,1</text>
</g>
<!-- (1, 4)&#45;&gt;(1, 1) -->
<g id="edge10" class="edge">
<title>(1, 4)&#45;&gt;(1, 1)</title>
<path fill="none" stroke="red" d="M272.16,-175.93C278.42,-172.81 285.46,-169.41 292,-166.5 299.56,-163.13 307.85,-159.7 315.55,-156.61"/>
<polygon fill="red" stroke="red" points="316.88,-159.85 324.9,-152.92 314.31,-153.34 316.88,-159.85"/>
<text text-anchor="middle" x="299" y="-170.3" font-family="Times,serif" font-size="14.00" fill="red">o2</text>
</g>
<!-- (0, 5)&#45;&gt;(0, 0) -->
<g id="edge11" class="edge">
<title>(0, 5)&#45;&gt;(0, 0)</title>
<path fill="none" stroke="blue" d="M328.72,-82.3C315.23,-93.13 294.75,-107.37 274,-113.5 210.89,-132.14 132.68,-122.05 90.64,-114.11"/>
<polygon fill="blue" stroke="blue" points="91.24,-110.66 80.76,-112.16 89.89,-117.53 91.24,-110.66"/>
<text text-anchor="middle" x="202.5" y="-127.3" font-family="Times,serif" font-size="14.00" fill="blue">o4</text>
</g>
<!-- (1, 6)&#45;&gt;(1, 7) -->
<g id="edge12" class="edge">
<title>(1, 6)&#45;&gt;(1, 7)</title>
<path fill="none" stroke="cyan" d="M807.15,-208.64C789.73,-221.28 760.81,-238.5 732.5,-238.5 251.5,-238.5 251.5,-238.5 251.5,-238.5 223.32,-238.5 195.48,-221.34 176.71,-206.54"/>
<polygon fill="cyan" stroke="cyan" points="178.7,-203.65 168.76,-199.98 174.25,-209.05 178.7,-203.65"/>
<text text-anchor="middle" x="495.5" y="-242.3" font-family="Times,serif" font-size="14.00" fill="cyan">uo3</text>
</g>
<!-- (1, 2) -->
<g id="node12" class="node">
<title>(1, 2)</title>
<ellipse fill="none" stroke="black" cx="445.5" cy="-97.5" rx="21.5" ry="21.5"/>
<text text-anchor="middle" x="445.5" y="-93.8" font-family="Times,serif" font-size="14.00">1,2</text>
</g>
<!-- (1, 1)&#45;&gt;(1, 2) -->
<g id="edge13" class="edge">
<title>(1, 1)&#45;&gt;(1, 2)</title>
<path fill="none" stroke="black" d="M362.74,-132.63C369.38,-127.77 377.31,-122.46 385,-118.5 394.4,-113.66 405.16,-109.49 414.93,-106.16"/>
<polygon fill="black" stroke="black" points="416.21,-109.43 424.65,-103.02 414.06,-102.77 416.21,-109.43"/>
<text text-anchor="middle" x="395.5" y="-122.3" font-family="Times,serif" font-size="14.00">uo2</text>
</g>
<!-- (1, 5) -->
<g id="node13" class="node">
<title>(1, 5)</title>
<ellipse fill="pink" stroke="black" cx="545.5" cy="-97.5" rx="21.5" ry="21.5"/>
<text text-anchor="middle" x="545.5" y="-93.8" font-family="Times,serif" font-size="14.00">1,5</text>
</g>
<!-- (1, 2)&#45;&gt;(1, 5) -->
<g id="edge14" class="edge">
<title>(1, 2)&#45;&gt;(1, 5)</title>
<path fill="none" stroke="green" d="M467.28,-97.5C480.67,-97.5 498.31,-97.5 513.35,-97.5"/>
<polygon fill="green" stroke="green" points="513.75,-101 523.75,-97.5 513.75,-94 513.75,-101"/>
<text text-anchor="middle" x="495.5" y="-101.3" font-family="Times,serif" font-size="14.00" fill="green">o1</text>
</g>
<!-- (1, 0) -->
<g id="node14" class="node">
<title>(1, 0)</title>
<ellipse fill="none" stroke="black" cx="638.5" cy="-145.5" rx="21.5" ry="21.5"/>
<text text-anchor="middle" x="638.5" y="-141.8" font-family="Times,serif" font-size="14.00">1,0</text>
</g>
<!-- (1, 5)&#45;&gt;(1, 0) -->
<g id="edge15" class="edge">
<title>(1, 5)&#45;&gt;(1, 0)</title>
<path fill="none" stroke="blue" d="M566.44,-104.24C576.46,-107.93 588.64,-112.89 599,-118.5 603.43,-120.9 607.97,-123.71 612.3,-126.6"/>
<polygon fill="blue" stroke="blue" points="610.59,-129.68 620.8,-132.52 614.59,-123.93 610.59,-129.68"/>
<text text-anchor="middle" x="592" y="-122.3" font-family="Times,serif" font-size="14.00" fill="blue">o4</text>
</g>
<!-- (1, 0)&#45;&gt;(1, 1) -->
<g id="edge16" class="edge">
<title>(1, 0)&#45;&gt;(1, 1)</title>
<path fill="none" stroke="green" d="M616.76,-145.5C566.41,-145.5 437.47,-145.5 377.74,-145.5"/>
<polygon fill="green" stroke="green" points="377.43,-142 367.43,-145.5 377.43,-149 377.43,-142"/>
<text text-anchor="middle" x="495.5" y="-149.3" font-family="Times,serif" font-size="14.00" fill="green">o1</text>
</g>
<!-- (1, 3) -->
<g id="node15" class="node">
<title>(1, 3)</title>
<ellipse fill="none" stroke="black" cx="731.5" cy="-145.5" rx="21.5" ry="21.5"/>
<text text-anchor="middle" x="731.5" y="-141.8" font-family="Times,serif" font-size="14.00">1,3</text>
</g>
<!-- (1, 0)&#45;&gt;(1, 3) -->
<g id="edge17" class="edge">
<title>(1, 0)&#45;&gt;(1, 3)</title>
<path fill="none" stroke="red" d="M660.15,-145.5C671.9,-145.5 686.84,-145.5 699.93,-145.5"/>
<polygon fill="red" stroke="red" points="699.93,-149 709.93,-145.5 699.93,-142 699.93,-149"/>
<text text-anchor="middle" x="685" y="-149.3" font-family="Times,serif" font-size="14.00" fill="red">o2</text>
</g>
<!-- (1, 3)&#45;&gt;(1, 6) -->
<g id="edge18" class="edge">
<title>(1, 3)&#45;&gt;(1, 6)</title>
<path fill="none" stroke="blue" d="M752.52,-152.09C762.56,-155.74 774.74,-160.72 785,-166.5 789.92,-169.27 794.92,-172.6 799.62,-175.99"/>
<polygon fill="blue" stroke="blue" points="797.58,-178.84 807.67,-182.08 801.8,-173.26 797.58,-178.84"/>
<text text-anchor="middle" x="778" y="-170.3" font-family="Times,serif" font-size="14.00" fill="blue">o4</text>
</g>
</g>
</svg>
