<?xml version="1.0" encoding="UTF-8" standalone="no"?>
<!DOCTYPE svg PUBLIC "-//W3C//DTD SVG 1.1//EN"
 "http://www.w3.org/Graphics/SVG/1.1/DTD/svg11.dtd">
<!-- Generated by graphviz version 2.43.0 (0)
 -->
<!-- Title: %3 Pages: 1 -->
<svg width="720pt" height="269pt"
 viewBox="0.00 0.00 720.00 268.95" xmlns="http://www.w3.org/2000/svg" xmlns:xlink="http://www.w3.org/1999/xlink">
<g id="graph0" class="graph" transform="scale(0.84 0.84) rotate(0) translate(4 315)">
<title>%3</title>
<polygon fill="white" stroke="transparent" points="-4,4 -4,-315 850,-315 850,4 -4,4"/>
<!-- start_0 -->
<g id="node1" class="node">
<title>start_0</title>
</g>
<!-- (0, 0) -->
<g id="node2" class="node">
<title>(0, 0)</title>
<ellipse fill="none" stroke="black" cx="59.5" cy="-87.5" rx="21.5" ry="21.5"/>
<text text-anchor="middle" x="59.5" y="-83.8" font-family="Times,serif" font-size="14.00">0,0</text>
</g>
<!-- start_0&#45;&gt;(0, 0) -->
<g id="edge1" class="edge">
<title>start_0&#45;&gt;(0, 0)</title>
<path fill="none" stroke="black" d="M1.16,-87.5C2.71,-87.5 14.93,-87.5 27.7,-87.5"/>
<polygon fill="black" stroke="black" points="27.85,-91 37.85,-87.5 27.85,-84 27.85,-91"/>
</g>
<!-- (2, 3) -->
<g id="node3" class="node">
<title>(2, 3)</title>
<ellipse fill="none" stroke="black" cx="152.5" cy="-258.5" rx="21.5" ry="21.5"/>
<text text-anchor="middle" x="152.5" y="-254.8" font-family="Times,serif" font-size="14.00">2,3</text>
</g>
<!-- (0, 0)&#45;&gt;(2, 3) -->
<g id="edge2" class="edge">
<title>(0, 0)&#45;&gt;(2, 3)</title>
<path fill="none" stroke="red" d="M70.41,-106.13C86.41,-136.19 118.02,-195.59 136.7,-230.69"/>
<polygon fill="red" stroke="red" points="133.81,-232.71 141.6,-239.9 139.99,-229.43 133.81,-232.71"/>
<text text-anchor="middle" x="106" y="-187.3" font-family="Times,serif" font-size="14.00" fill="red">o2</text>
</g>
<!-- (0, 1) -->
<g id="node4" class="node">
<title>(0, 1)</title>
<ellipse fill="none" stroke="black" cx="152.5" cy="-21.5" rx="21.5" ry="21.5"/>
<text text-anchor="middle" x="152.5" y="-17.8" font-family="Times,serif" font-size="14.00">0,1</text>
</g>
<!-- (0, 0)&#45;&gt;(0, 1) -->
<g id="edge3" class="edge">
<title>(0, 0)&#45;&gt;(0, 1)</title>
<path fill="none" stroke="green" d="M72.39,-69.87C79.28,-60.72 88.64,-49.93 99,-42.5 105.9,-37.55 114.13,-33.55 122,-30.42"/>
<polygon fill="green" stroke="green" points="123.45,-33.62 131.66,-26.92 121.07,-27.04 123.45,-33.62"/>
<text text-anchor="middle" x="106" y="-46.3" font-family="Times,serif" font-size="14.00" fill="green">o1</text>
</g>
<!-- (1, 7) -->
<g id="node5" class="node">
<title>(1, 7)</title>
<ellipse fill="none" stroke="black" cx="152.5" cy="-134.5" rx="21.5" ry="21.5"/>
<text text-anchor="middle" x="152.5" y="-130.8" font-family="Times,serif" font-size="14.00">1,7</text>
</g>
<!-- (0, 0)&#45;&gt;(1, 7) -->
<g id="edge4" class="edge">
<title>(0, 0)&#45;&gt;(1, 7)</title>
<path fill="none" stroke="red" d="M78.92,-97.01C91.87,-103.7 109.42,-112.77 124.02,-120.31"/>
<polygon fill="red" stroke="red" points="122.62,-123.52 133.11,-125 125.83,-117.3 122.62,-123.52"/>
<text text-anchor="middle" x="106" y="-118.3" font-family="Times,serif" font-size="14.00" fill="red">o3</text>
</g>
<!-- (2, 6) -->
<g id="node6" class="node">
<title>(2, 6)</title>
<ellipse fill="none" stroke="black" cx="252.5" cy="-289.5" rx="21.5" ry="21.5"/>
<text text-anchor="middle" x="252.5" y="-285.8" font-family="Times,serif" font-size="14.00">2,6</text>
</g>
<!-- (2, 3)&#45;&gt;(2, 6) -->
<g id="edge5" class="edge">
<title>(2, 3)&#45;&gt;(2, 6)</title>
<path fill="none" stroke="blue" d="M173.33,-264.77C187.28,-269.19 206.18,-275.17 221.91,-280.14"/>
<polygon fill="blue" stroke="blue" points="221.11,-283.56 231.7,-283.24 223.22,-276.88 221.11,-283.56"/>
<text text-anchor="middle" x="202.5" y="-280.3" font-family="Times,serif" font-size="14.00" fill="blue">o4</text>
</g>
<!-- (0, 2) -->
<g id="node7" class="node">
<title>(0, 2)</title>
<ellipse fill="none" stroke="black" cx="252.5" cy="-21.5" rx="21.5" ry="21.5"/>
<text text-anchor="middle" x="252.5" y="-17.8" font-family="Times,serif" font-size="14.00">0,2</text>
</g>
<!-- (0, 1)&#45;&gt;(0, 2) -->
<g id="edge6" class="edge">
<title>(0, 1)&#45;&gt;(0, 2)</title>
<path fill="none" stroke="black" d="M174.28,-21.5C187.67,-21.5 205.31,-21.5 220.35,-21.5"/>
<polygon fill="black" stroke="black" points="220.75,-25 230.75,-21.5 220.75,-18 220.75,-25"/>
<text text-anchor="middle" x="202.5" y="-25.3" font-family="Times,serif" font-size="14.00">uo2</text>
</g>
<!-- (1, 4) -->
<g id="node8" class="node">
<title>(1, 4)</title>
<ellipse fill="none" stroke="black" cx="252.5" cy="-134.5" rx="21.5" ry="21.5"/>
<text text-anchor="middle" x="252.5" y="-130.8" font-family="Times,serif" font-size="14.00">1,4</text>
</g>
<!-- (1, 7)&#45;&gt;(1, 4) -->
<g id="edge7" class="edge">
<title>(1, 7)&#45;&gt;(1, 4)</title>
<path fill="none" stroke="black" d="M174.28,-134.5C187.67,-134.5 205.31,-134.5 220.35,-134.5"/>
<polygon fill="black" stroke="black" points="220.75,-138 230.75,-134.5 220.75,-131 220.75,-138"/>
<text text-anchor="middle" x="202.5" y="-138.3" font-family="Times,serif" font-size="14.00">uo1</text>
</g>
<!-- (0, 5) -->
<g id="node9" class="node">
<title>(0, 5)</title>
<ellipse fill="pink" stroke="black" cx="345.5" cy="-39.5" rx="21.5" ry="21.5"/>
<text text-anchor="middle" x="345.5" y="-35.8" font-family="Times,serif" font-size="14.00">0,5</text>
</g>
<!-- (0, 2)&#45;&gt;(0, 5) -->
<g id="edge8" class="edge">
<title>(0, 2)&#45;&gt;(0, 5)</title>
<path fill="none" stroke="green" d="M273.7,-25.49C285.6,-27.85 300.88,-30.87 314.2,-33.51"/>
<polygon fill="green" stroke="green" points="313.87,-37.01 324.36,-35.52 315.23,-30.14 313.87,-37.01"/>
<text text-anchor="middle" x="299" y="-36.3" font-family="Times,serif" font-size="14.00" fill="green">o1</text>
</g>
<!-- (1, 1) -->
<g id="node10" class="node">
<title>(1, 1)</title>
<ellipse fill="none" stroke="black" cx="345.5" cy="-151.5" rx="21.5" ry="21.5"/>
<text text-anchor="middle" x="345.5" y="-147.8" font-family="Times,serif" font-size="14.00">1,1</text>
</g>
<!-- (1, 4)&#45;&gt;(1, 1) -->
<g id="edge9" class="edge">
<title>(1, 4)&#45;&gt;(1, 1)</title>
<path fill="none" stroke="red" d="M273.7,-138.27C285.51,-140.48 300.67,-143.31 313.92,-145.79"/>
<polygon fill="red" stroke="red" points="313.57,-149.28 324.05,-147.68 314.86,-142.4 313.57,-149.28"/>
<text text-anchor="middle" x="299" y="-148.3" font-family="Times,serif" font-size="14.00" fill="red">o2</text>
</g>
<!-- (1, 6) -->
<g id="node11" class="node">
<title>(1, 6)</title>
<ellipse fill="none" stroke="black" cx="824.5" cy="-170.5" rx="21.5" ry="21.5"/>
<text text-anchor="middle" x="824.5" y="-166.8" font-family="Times,serif" font-size="14.00">1,6</text>
</g>
<!-- (1, 4)&#45;&gt;(1, 6) -->
<g id="edge10" class="edge">
<title>(1, 4)&#45;&gt;(1, 6)</title>
<path fill="none" stroke="green" d="M270.74,-122.48C288.41,-111.34 317.11,-96.5 344.5,-96.5 344.5,-96.5 344.5,-96.5 732.5,-96.5 763.78,-96.5 790.29,-123.14 806.48,-144.46"/>
<polygon fill="green" stroke="green" points="803.67,-146.54 812.38,-152.59 809.34,-142.44 803.67,-146.54"/>
<text text-anchor="middle" x="545.5" y="-100.3" font-family="Times,serif" font-size="14.00" fill="green">o1</text>
</g>
<!-- (0, 5)&#45;&gt;(0, 0) -->
<g id="edge11" class="edge">
<title>(0, 5)&#45;&gt;(0, 0)</title>
<path fill="none" stroke="blue" d="M324.68,-46.33C318.73,-48.2 312.14,-50.1 306,-51.5 229.62,-68.89 137.89,-79.74 91.14,-84.56"/>
<polygon fill="blue" stroke="blue" points="90.67,-81.1 81.07,-85.58 91.37,-88.06 90.67,-81.1"/>
<text text-anchor="middle" x="202.5" y="-76.3" font-family="Times,serif" font-size="14.00" fill="blue">o4</text>
</g>
<!-- (1, 2) -->
<g id="node12" class="node">
<title>(1, 2)</title>
<ellipse fill="none" stroke="black" cx="445.5" cy="-151.5" rx="21.5" ry="21.5"/>
<text text-anchor="middle" x="445.5" y="-147.8" font-family="Times,serif" font-size="14.00">1,2</text>
</g>
<!-- (1, 1)&#45;&gt;(1, 2) -->
<g id="edge12" class="edge">
<title>(1, 1)&#45;&gt;(1, 2)</title>
<path fill="none" stroke="black" d="M367.28,-151.5C380.67,-151.5 398.31,-151.5 413.35,-151.5"/>
<polygon fill="black" stroke="black" points="413.75,-155 423.75,-151.5 413.75,-148 413.75,-155"/>
<text text-anchor="middle" x="395.5" y="-155.3" font-family="Times,serif" font-size="14.00">uo2</text>
</g>
<!-- (1, 6)&#45;&gt;(1, 7) -->
<g id="edge13" class="edge">
<title>(1, 6)&#45;&gt;(1, 7)</title>
<path fill="none" stroke="cyan" d="M811.55,-187.91C795.96,-208.35 766.6,-239.5 732.5,-239.5 251.5,-239.5 251.5,-239.5 251.5,-239.5 209.69,-239.5 180.61,-194.47 165.52,-163.38"/>
<polygon fill="cyan" stroke="cyan" points="168.67,-161.85 161.29,-154.25 162.32,-164.79 168.67,-161.85"/>
<text text-anchor="middle" x="495.5" y="-243.3" font-family="Times,serif" font-size="14.00" fill="cyan">uo3</text>
</g>
<!-- (1, 5) -->
<g id="node13" class="node">
<title>(1, 5)</title>
<ellipse fill="pink" stroke="black" cx="545.5" cy="-151.5" rx="21.5" ry="21.5"/>
<text text-anchor="middle" x="545.5" y="-147.8" font-family="Times,serif" font-size="14.00">1,5</text>
</g>
<!-- (1, 2)&#45;&gt;(1, 5) -->
<g id="edge14" class="edge">
<title>(1, 2)&#45;&gt;(1, 5)</title>
<path fill="none" stroke="green" d="M467.28,-151.5C480.67,-151.5 498.31,-151.5 513.35,-151.5"/>
<polygon fill="green" stroke="green" points="513.75,-155 523.75,-151.5 513.75,-148 513.75,-155"/>
<text text-anchor="middle" x="495.5" y="-155.3" font-family="Times,serif" font-size="14.00" fill="green">o1</text>
</g>
<!-- (1, 0) -->
<g id="node14" class="node">
<title>(1, 0)</title>
<ellipse fill="none" stroke="black" cx="638.5" cy="-170.5" rx="21.5" ry="21.5"/>
<text text-anchor="middle" x="638.5" y="-166.8" font-family="Times,serif" font-size="14.00">1,0</text>
</g>
<!-- (1, 5)&#45;&gt;(1, 0) -->
<g id="edge15" class="edge">
<title>(1, 5)&#45;&gt;(1, 0)</title>
<path fill="none" stroke="blue" d="M566.7,-155.72C578.6,-158.2 593.88,-161.39 607.2,-164.17"/>
<polygon fill="blue" stroke="blue" points="606.86,-167.68 617.36,-166.3 608.29,-160.83 606.86,-167.68"/>
<text text-anchor="middle" x="592" y="-166.3" font-family="Times,serif" font-size="14.00" fill="blue">o4</text>
</g>
<!-- (1, 0)&#45;&gt;(1, 1) -->
<g id="edge17" class="edge">
<title>(1, 0)&#45;&gt;(1, 1)</title>
<path fill="none" stroke="green" d="M617.75,-177.28C611.79,-179.02 605.2,-180.63 599,-181.5 521.97,-192.29 501.04,-192.16 424,-181.5 406.16,-179.03 401.81,-176.96 385,-170.5 381.45,-169.14 377.79,-167.56 374.2,-165.92"/>
<polygon fill="green" stroke="green" points="375.52,-162.67 364.99,-161.48 372.48,-168.97 375.52,-162.67"/>
<text text-anchor="middle" x="495.5" y="-193.3" font-family="Times,serif" font-size="14.00" fill="green">o1</text>
</g>
<!-- (1, 3) -->
<g id="node15" class="node">
<title>(1, 3)</title>
<ellipse fill="none" stroke="black" cx="731.5" cy="-170.5" rx="21.5" ry="21.5"/>
<text text-anchor="middle" x="731.5" y="-166.8" font-family="Times,serif" font-size="14.00">1,3</text>
</g>
<!-- (1, 0)&#45;&gt;(1, 3) -->
<g id="edge16" class="edge">
<title>(1, 0)&#45;&gt;(1, 3)</title>
<path fill="none" stroke="red" d="M660.15,-170.5C671.9,-170.5 686.84,-170.5 699.93,-170.5"/>
<polygon fill="red" stroke="red" points="699.93,-174 709.93,-170.5 699.93,-167 699.93,-174"/>
<text text-anchor="middle" x="685" y="-174.3" font-family="Times,serif" font-size="14.00" fill="red">o2</text>
</g>
<!-- (1, 3)&#45;&gt;(1, 6) -->
<g id="edge18" class="edge">
<title>(1, 3)&#45;&gt;(1, 6)</title>
<path fill="none" stroke="blue" d="M753.15,-170.5C764.9,-170.5 779.84,-170.5 792.93,-170.5"/>
<polygon fill="blue" stroke="blue" points="792.93,-174 802.93,-170.5 792.93,-167 792.93,-174"/>
<text text-anchor="middle" x="778" y="-174.3" font-family="Times,serif" font-size="14.00" fill="blue">o4</text>
</g>
</g>
</svg>
