<?xml version="1.0" encoding="UTF-8" standalone="no"?>
<!DOCTYPE svg PUBLIC "-//W3C//DTD SVG 1.1//EN"
 "http://www.w3.org/Graphics/SVG/1.1/DTD/svg11.dtd">
<!-- Generated by graphviz version 14.1.1 (20251213.1925)
 -->
<!-- Pages: 1 -->
<svg width="720pt" height="226pt"
 viewBox="0.00 0.00 720.00 226.00" xmlns="http://www.w3.org/2000/svg" xmlns:xlink="http://www.w3.org/1999/xlink">
<g id="graph0" class="graph" transform="scale(0.846292 0.846292) rotate(0) translate(4 263.1)">
<polygon fill="white" stroke="none" points="-4,4 -4,-263.1 846.77,-263.1 846.77,4 -4,4"/>
<!-- start_0 -->
<g id="node1" class="node">
<title>start_0</title>
</g>
<!-- (0, 0) -->
<g id="node2" class="node">
<title>(0, 0)</title>
<ellipse fill="none" stroke="black" cx="59.32" cy="-116.6" rx="21.6" ry="21.6"/>
<text xml:space="preserve" text-anchor="middle" x="59.32" y="-111.55" font-family="Times New Roman,serif" font-size="14.00">0,0</text>
</g>
<!-- start_0&#45;&gt;(0, 0) -->
<g id="edge1" class="edge">
<title>start_0&#45;&gt;(0, 0)</title>
<path fill="none" stroke="black" d="M0.89,-116.6C2.38,-116.6 13.8,-116.6 26.08,-116.6"/>
<polygon fill="black" stroke="black" points="25.81,-120.1 35.81,-116.6 25.81,-113.1 25.81,-120.1"/>
</g>
<!-- (0, 1) -->
<g id="node3" class="node">
<title>(0, 1)</title>
<ellipse fill="none" stroke="black" cx="152.02" cy="-21.6" rx="21.6" ry="21.6"/>
<text xml:space="preserve" text-anchor="middle" x="152.02" y="-16.55" font-family="Times New Roman,serif" font-size="14.00">0,1</text>
</g>
<!-- (0, 0)&#45;&gt;(0, 1) -->
<g id="edge2" class="edge">
<title>(0, 0)&#45;&gt;(0, 1)</title>
<path fill="none" stroke="green" d="M74.89,-101.34C89.44,-86.1 111.98,-62.49 128.77,-44.91"/>
<polygon fill="green" stroke="green" points="131.06,-47.57 135.44,-37.92 126,-42.74 131.06,-47.57"/>
<text xml:space="preserve" text-anchor="middle" x="105.67" y="-77.99" font-family="Times New Roman,serif" font-size="14.00" fill="green">o1</text>
</g>
<!-- (1, 7) -->
<g id="node4" class="node">
<title>(1, 7)</title>
<ellipse fill="none" stroke="black" cx="152.02" cy="-187.6" rx="21.6" ry="21.6"/>
<text xml:space="preserve" text-anchor="middle" x="152.02" y="-182.55" font-family="Times New Roman,serif" font-size="14.00">1,7</text>
</g>
<!-- (0, 0)&#45;&gt;(1, 7) -->
<g id="edge3" class="edge">
<title>(0, 0)&#45;&gt;(1, 7)</title>
<path fill="none" stroke="red" d="M76.96,-129.62C90.64,-140.33 110.24,-155.68 125.84,-167.89"/>
<polygon fill="red" stroke="red" points="123.27,-170.32 133.3,-173.73 127.58,-164.81 123.27,-170.32"/>
<text xml:space="preserve" text-anchor="middle" x="105.67" y="-159.55" font-family="Times New Roman,serif" font-size="14.00" fill="red">o3</text>
</g>
<!-- (2, 3) -->
<g id="node5" class="node">
<title>(2, 3)</title>
<ellipse fill="none" stroke="black" cx="152.02" cy="-82.6" rx="21.6" ry="21.6"/>
<text xml:space="preserve" text-anchor="middle" x="152.02" y="-77.55" font-family="Times New Roman,serif" font-size="14.00">2,3</text>
</g>
<!-- (0, 0)&#45;&gt;(2, 3) -->
<g id="edge4" class="edge">
<title>(0, 0)&#45;&gt;(2, 3)</title>
<path fill="none" stroke="red" d="M79.96,-109.22C86.03,-106.94 92.75,-104.41 98.92,-102.1 105.92,-99.47 113.46,-96.65 120.56,-93.99"/>
<polygon fill="red" stroke="red" points="121.67,-97.32 129.81,-90.53 119.22,-90.76 121.67,-97.32"/>
<text xml:space="preserve" text-anchor="middle" x="105.67" y="-105.3" font-family="Times New Roman,serif" font-size="14.00" fill="red">o2</text>
</g>
<!-- (0, 2) -->
<g id="node6" class="node">
<title>(0, 2)</title>
<ellipse fill="none" stroke="black" cx="251.47" cy="-21.6" rx="21.6" ry="21.6"/>
<text xml:space="preserve" text-anchor="middle" x="251.47" y="-16.55" font-family="Times New Roman,serif" font-size="14.00">0,2</text>
</g>
<!-- (0, 1)&#45;&gt;(0, 2) -->
<g id="edge5" class="edge">
<title>(0, 1)&#45;&gt;(0, 2)</title>
<path fill="none" stroke="black" d="M173.69,-21.6C186.65,-21.6 203.63,-21.6 218.32,-21.6"/>
<polygon fill="black" stroke="black" points="217.98,-25.1 227.98,-21.6 217.98,-18.1 217.98,-25.1"/>
<text xml:space="preserve" text-anchor="middle" x="201.75" y="-24.8" font-family="Times New Roman,serif" font-size="14.00">uo2</text>
</g>
<!-- (1, 4) -->
<g id="node7" class="node">
<title>(1, 4)</title>
<ellipse fill="none" stroke="black" cx="251.47" cy="-187.6" rx="21.6" ry="21.6"/>
<text xml:space="preserve" text-anchor="middle" x="251.47" y="-182.55" font-family="Times New Roman,serif" font-size="14.00">1,4</text>
</g>
<!-- (1, 7)&#45;&gt;(1, 4) -->
<g id="edge6" class="edge">
<title>(1, 7)&#45;&gt;(1, 4)</title>
<path fill="none" stroke="black" d="M173.69,-187.6C186.65,-187.6 203.63,-187.6 218.32,-187.6"/>
<polygon fill="black" stroke="black" points="217.98,-191.1 227.98,-187.6 217.98,-184.1 217.98,-191.1"/>
<text xml:space="preserve" text-anchor="middle" x="201.75" y="-190.8" font-family="Times New Roman,serif" font-size="14.00">uo1</text>
</g>
<!-- (2, 6) -->
<g id="node8" class="node">
<title>(2, 6)</title>
<ellipse fill="none" stroke="black" cx="251.47" cy="-82.6" rx="21.6" ry="21.6"/>
<text xml:space="preserve" text-anchor="middle" x="251.47" y="-77.55" font-family="Times New Roman,serif" font-size="14.00">2,6</text>
</g>
<!-- (2, 3)&#45;&gt;(2, 6) -->
<g id="edge7" class="edge">
<title>(2, 3)&#45;&gt;(2, 6)</title>
<path fill="none" stroke="blue" d="M173.69,-82.6C186.65,-82.6 203.63,-82.6 218.32,-82.6"/>
<polygon fill="blue" stroke="blue" points="217.98,-86.1 227.98,-82.6 217.98,-79.1 217.98,-86.1"/>
<text xml:space="preserve" text-anchor="middle" x="201.75" y="-85.8" font-family="Times New Roman,serif" font-size="14.00" fill="blue">o4</text>
</g>
<!-- (0, 5) -->
<g id="node9" class="node">
<title>(0, 5)</title>
<ellipse fill="pink" stroke="black" cx="344.17" cy="-70.6" rx="21.6" ry="21.6"/>
<text xml:space="preserve" text-anchor="middle" x="344.17" y="-65.55" font-family="Times New Roman,serif" font-size="14.00">0,5</text>
</g>
<!-- (0, 2)&#45;&gt;(0, 5) -->
<g id="edge8" class="edge">
<title>(0, 2)&#45;&gt;(0, 5)</title>
<path fill="none" stroke="green" d="M270.82,-31.52C283.4,-38.31 300.34,-47.46 314.66,-55.2"/>
<polygon fill="green" stroke="green" points="312.74,-58.14 323.2,-59.81 316.07,-51.98 312.74,-58.14"/>
<text xml:space="preserve" text-anchor="middle" x="297.82" y="-52.23" font-family="Times New Roman,serif" font-size="14.00" fill="green">o1</text>
</g>
<!-- (1, 6) -->
<g id="node10" class="node">
<title>(1, 6)</title>
<ellipse fill="none" stroke="black" cx="821.17" cy="-197.6" rx="21.6" ry="21.6"/>
<text xml:space="preserve" text-anchor="middle" x="821.17" y="-192.55" font-family="Times New Roman,serif" font-size="14.00">1,6</text>
</g>
<!-- (1, 4)&#45;&gt;(1, 6) -->
<g id="edge9" class="edge">
<title>(1, 4)&#45;&gt;(1, 6)</title>
<path fill="none" stroke="green" d="M272.93,-191.15C291.27,-194.03 318.93,-197.6 343.17,-197.6 343.17,-197.6 343.17,-197.6 729.47,-197.6 748.82,-197.6 770.5,-197.6 787.81,-197.6"/>
<polygon fill="green" stroke="green" points="787.76,-201.1 797.76,-197.6 787.76,-194.1 787.76,-201.1"/>
<text xml:space="preserve" text-anchor="middle" x="543.07" y="-200.8" font-family="Times New Roman,serif" font-size="14.00" fill="green">o1</text>
</g>
<!-- (1, 1) -->
<g id="node11" class="node">
<title>(1, 1)</title>
<ellipse fill="none" stroke="black" cx="344.17" cy="-147.6" rx="21.6" ry="21.6"/>
<text xml:space="preserve" text-anchor="middle" x="344.17" y="-142.55" font-family="Times New Roman,serif" font-size="14.00">1,1</text>
</g>
<!-- (1, 4)&#45;&gt;(1, 1) -->
<g id="edge10" class="edge">
<title>(1, 4)&#45;&gt;(1, 1)</title>
<path fill="none" stroke="red" d="M270.68,-177.3C277.04,-173.87 284.29,-170.15 291.07,-167.1 298.09,-163.94 305.78,-160.86 313.06,-158.11"/>
<polygon fill="red" stroke="red" points="314.02,-161.48 322.21,-154.75 311.61,-154.91 314.02,-161.48"/>
<text xml:space="preserve" text-anchor="middle" x="297.82" y="-170.3" font-family="Times New Roman,serif" font-size="14.00" fill="red">o2</text>
</g>
<!-- (0, 5)&#45;&gt;(0, 0) -->
<g id="edge11" class="edge">
<title>(0, 5)&#45;&gt;(0, 0)</title>
<path fill="none" stroke="blue" d="M326.8,-84.08C313.31,-94.3 293.18,-107.59 273.07,-113.6 211.25,-132.09 134.75,-126.75 92.38,-121.48"/>
<polygon fill="blue" stroke="blue" points="93,-118.03 82.62,-120.19 92.08,-124.97 93,-118.03"/>
<text xml:space="preserve" text-anchor="middle" x="201.75" y="-129.13" font-family="Times New Roman,serif" font-size="14.00" fill="blue">o4</text>
</g>
<!-- (1, 6)&#45;&gt;(1, 7) -->
<g id="edge12" class="edge">
<title>(1, 6)&#45;&gt;(1, 7)</title>
<path fill="none" stroke="cyan" d="M803.98,-211.35C786.7,-224.58 757.95,-242.6 729.47,-242.6 250.47,-242.6 250.47,-242.6 250.47,-242.6 222.55,-242.6 195.26,-225.27 176.7,-210.06"/>
<polygon fill="cyan" stroke="cyan" points="179.09,-207.49 169.23,-203.62 174.52,-212.8 179.09,-207.49"/>
<text xml:space="preserve" text-anchor="middle" x="493.35" y="-245.8" font-family="Times New Roman,serif" font-size="14.00" fill="cyan">uo3</text>
</g>
<!-- (1, 2) -->
<g id="node12" class="node">
<title>(1, 2)</title>
<ellipse fill="none" stroke="black" cx="443.62" cy="-99.6" rx="21.6" ry="21.6"/>
<text xml:space="preserve" text-anchor="middle" x="443.62" y="-94.55" font-family="Times New Roman,serif" font-size="14.00">1,2</text>
</g>
<!-- (1, 1)&#45;&gt;(1, 2) -->
<g id="edge13" class="edge">
<title>(1, 1)&#45;&gt;(1, 2)</title>
<path fill="none" stroke="black" d="M361.32,-133.9C367.96,-128.75 375.93,-123.16 383.77,-119.1 392.47,-114.59 402.42,-110.83 411.63,-107.84"/>
<polygon fill="black" stroke="black" points="412.36,-111.28 420.92,-105.04 410.34,-104.58 412.36,-111.28"/>
<text xml:space="preserve" text-anchor="middle" x="393.9" y="-122.3" font-family="Times New Roman,serif" font-size="14.00">uo2</text>
</g>
<!-- (1, 5) -->
<g id="node13" class="node">
<title>(1, 5)</title>
<ellipse fill="pink" stroke="black" cx="543.07" cy="-99.6" rx="21.6" ry="21.6"/>
<text xml:space="preserve" text-anchor="middle" x="543.07" y="-94.55" font-family="Times New Roman,serif" font-size="14.00">1,5</text>
</g>
<!-- (1, 2)&#45;&gt;(1, 5) -->
<g id="edge14" class="edge">
<title>(1, 2)&#45;&gt;(1, 5)</title>
<path fill="none" stroke="green" d="M465.29,-99.6C478.25,-99.6 495.23,-99.6 509.92,-99.6"/>
<polygon fill="green" stroke="green" points="509.58,-103.1 519.58,-99.6 509.58,-96.1 509.58,-103.1"/>
<text xml:space="preserve" text-anchor="middle" x="493.35" y="-102.8" font-family="Times New Roman,serif" font-size="14.00" fill="green">o1</text>
</g>
<!-- (1, 0) -->
<g id="node14" class="node">
<title>(1, 0)</title>
<ellipse fill="none" stroke="black" cx="635.77" cy="-147.6" rx="21.6" ry="21.6"/>
<text xml:space="preserve" text-anchor="middle" x="635.77" y="-142.55" font-family="Times New Roman,serif" font-size="14.00">1,0</text>
</g>
<!-- (1, 5)&#45;&gt;(1, 0) -->
<g id="edge15" class="edge">
<title>(1, 5)&#45;&gt;(1, 0)</title>
<path fill="none" stroke="blue" d="M564.18,-105.67C574.1,-109.02 586.07,-113.62 596.17,-119.1 600.66,-121.53 605.21,-124.44 609.53,-127.44"/>
<polygon fill="blue" stroke="blue" points="607.18,-130.06 617.32,-133.15 611.33,-124.42 607.18,-130.06"/>
<text xml:space="preserve" text-anchor="middle" x="589.42" y="-122.3" font-family="Times New Roman,serif" font-size="14.00" fill="blue">o4</text>
</g>
<!-- (1, 0)&#45;&gt;(1, 1) -->
<g id="edge16" class="edge">
<title>(1, 0)&#45;&gt;(1, 1)</title>
<path fill="none" stroke="green" d="M613.74,-147.6C563.67,-147.6 437.1,-147.6 377.35,-147.6"/>
<polygon fill="green" stroke="green" points="377.51,-144.1 367.51,-147.6 377.51,-151.1 377.51,-144.1"/>
<text xml:space="preserve" text-anchor="middle" x="493.35" y="-150.8" font-family="Times New Roman,serif" font-size="14.00" fill="green">o1</text>
</g>
<!-- (1, 3) -->
<g id="node15" class="node">
<title>(1, 3)</title>
<ellipse fill="none" stroke="black" cx="728.47" cy="-147.6" rx="21.6" ry="21.6"/>
<text xml:space="preserve" text-anchor="middle" x="728.47" y="-142.55" font-family="Times New Roman,serif" font-size="14.00">1,3</text>
</g>
<!-- (1, 0)&#45;&gt;(1, 3) -->
<g id="edge17" class="edge">
<title>(1, 0)&#45;&gt;(1, 3)</title>
<path fill="none" stroke="red" d="M657.81,-147.6C668.91,-147.6 682.78,-147.6 695.21,-147.6"/>
<polygon fill="red" stroke="red" points="695.03,-151.1 705.03,-147.6 695.03,-144.1 695.03,-151.1"/>
<text xml:space="preserve" text-anchor="middle" x="682.12" y="-150.8" font-family="Times New Roman,serif" font-size="14.00" fill="red">o2</text>
</g>
<!-- (1, 3)&#45;&gt;(1, 6) -->
<g id="edge18" class="edge">
<title>(1, 3)&#45;&gt;(1, 6)</title>
<path fill="none" stroke="blue" d="M749.66,-153.53C759.6,-156.84 771.56,-161.46 781.57,-167.1 786.34,-169.79 791.14,-173.05 795.66,-176.42"/>
<polygon fill="blue" stroke="blue" points="793.23,-178.96 803.25,-182.41 797.57,-173.47 793.23,-178.96"/>
<text xml:space="preserve" text-anchor="middle" x="774.82" y="-170.3" font-family="Times New Roman,serif" font-size="14.00" fill="blue">o4</text>
</g>
</g>
</svg>
