<?xml version="1.0" encoding="UTF-8" standalone="no"?>
<!DOCTYPE svg PUBLIC "-//W3C//DTD SVG 1.1//EN"
 "http://www.w3.org/Graphics/SVG/1.1/DTD/svg11.dtd">
<!-- Generated by graphviz version 14.1.1 (20251213.1925)
 -->
<!-- Pages: 1 -->
<svg width="720pt" height="228pt"
 viewBox="0.00 0.00 720.00 228.00" xmlns="http://www.w3.org/2000/svg" xmlns:xlink="http://www.w3.org/1999/xlink">
<g id="graph0" class="graph" transform="scale(0.846292 0.846292) rotate(0) translate(4 265.2)">
<polygon fill="white" stroke="none" points="-4,4 -4,-265.2 846.77,-265.2 846.77,4 -4,4"/>
<!-- start_0 -->
<g id="node1" class="node">
<title>start_0</title>
</g>
<!-- (0, 0) -->
<g id="node2" class="node">
<title>(0, 0)</title>
<ellipse fill="none" stroke="black" cx="59.32" cy="-71.6" rx="21.6" ry="21.6"/>
<text xml:space="preserve" text-anchor="middle" x="59.32" y="-66.55" font-family="Times New Roman,serif" font-size="14.00">0,0</text>
</g>
<!-- start_0&#45;&gt;(0, 0) -->
<g id="edge1" class="edge">
<title>start_0&#45;&gt;(0, 0)</title>
<path fill="none" stroke="black" d="M0.89,-71.6C2.38,-71.6 13.8,-71.6 26.08,-71.6"/>
<polygon fill="black" stroke="black" points="25.81,-75.1 35.81,-71.6 25.81,-68.1 25.81,-75.1"/>
</g>
<!-- (2, 3) -->
<g id="node3" class="node">
<title>(2, 3)</title>
<ellipse fill="none" stroke="black" cx="152.02" cy="-187.6" rx="21.6" ry="21.6"/>
<text xml:space="preserve" text-anchor="middle" x="152.02" y="-182.55" font-family="Times New Roman,serif" font-size="14.00">2,3</text>
</g>
<!-- (0, 0)&#45;&gt;(2, 3) -->
<g id="edge2" class="edge">
<title>(0, 0)&#45;&gt;(2, 3)</title>
<path fill="none" stroke="red" d="M73.32,-88.22C88.4,-107.52 113.46,-139.56 131.03,-162.03"/>
<polygon fill="red" stroke="red" points="128.2,-164.1 137.12,-169.82 133.71,-159.78 128.2,-164.1"/>
<text xml:space="preserve" text-anchor="middle" x="105.67" y="-139.75" font-family="Times New Roman,serif" font-size="14.00" fill="red">o2</text>
</g>
<!-- (1, 7) -->
<g id="node4" class="node">
<title>(1, 7)</title>
<ellipse fill="none" stroke="black" cx="152.02" cy="-107.6" rx="21.6" ry="21.6"/>
<text xml:space="preserve" text-anchor="middle" x="152.02" y="-102.55" font-family="Times New Roman,serif" font-size="14.00">1,7</text>
</g>
<!-- (0, 0)&#45;&gt;(1, 7) -->
<g id="edge3" class="edge">
<title>(0, 0)&#45;&gt;(1, 7)</title>
<path fill="none" stroke="red" d="M79.56,-79.23C91.62,-84.02 107.42,-90.3 121.1,-95.72"/>
<polygon fill="red" stroke="red" points="119.51,-98.86 130.09,-99.29 122.09,-92.35 119.51,-98.86"/>
<text xml:space="preserve" text-anchor="middle" x="105.67" y="-94.96" font-family="Times New Roman,serif" font-size="14.00" fill="red">o3</text>
</g>
<!-- (0, 1) -->
<g id="node5" class="node">
<title>(0, 1)</title>
<ellipse fill="none" stroke="black" cx="152.02" cy="-46.6" rx="21.6" ry="21.6"/>
<text xml:space="preserve" text-anchor="middle" x="152.02" y="-41.55" font-family="Times New Roman,serif" font-size="14.00">0,1</text>
</g>
<!-- (0, 0)&#45;&gt;(0, 1) -->
<g id="edge4" class="edge">
<title>(0, 0)&#45;&gt;(0, 1)</title>
<path fill="none" stroke="green" d="M80.45,-66.05C92.07,-62.85 106.94,-58.75 120.03,-55.14"/>
<polygon fill="green" stroke="green" points="120.78,-58.57 129.49,-52.53 118.92,-51.82 120.78,-58.57"/>
<text xml:space="preserve" text-anchor="middle" x="105.67" y="-63.8" font-family="Times New Roman,serif" font-size="14.00" fill="green">o1</text>
</g>
<!-- (2, 6) -->
<g id="node6" class="node">
<title>(2, 6)</title>
<ellipse fill="none" stroke="black" cx="251.47" cy="-207.6" rx="21.6" ry="21.6"/>
<text xml:space="preserve" text-anchor="middle" x="251.47" y="-202.55" font-family="Times New Roman,serif" font-size="14.00">2,6</text>
</g>
<!-- (2, 3)&#45;&gt;(2, 6) -->
<g id="edge5" class="edge">
<title>(2, 3)&#45;&gt;(2, 6)</title>
<path fill="none" stroke="blue" d="M173.69,-191.84C186.74,-194.52 203.86,-198.03 218.62,-201.06"/>
<polygon fill="blue" stroke="blue" points="217.85,-204.48 228.35,-203.06 219.26,-197.62 217.85,-204.48"/>
<text xml:space="preserve" text-anchor="middle" x="201.75" y="-202.59" font-family="Times New Roman,serif" font-size="14.00" fill="blue">o4</text>
</g>
<!-- (1, 4) -->
<g id="node7" class="node">
<title>(1, 4)</title>
<ellipse fill="none" stroke="black" cx="251.47" cy="-146.6" rx="21.6" ry="21.6"/>
<text xml:space="preserve" text-anchor="middle" x="251.47" y="-141.55" font-family="Times New Roman,serif" font-size="14.00">1,4</text>
</g>
<!-- (1, 7)&#45;&gt;(1, 4) -->
<g id="edge6" class="edge">
<title>(1, 7)&#45;&gt;(1, 4)</title>
<path fill="none" stroke="black" d="M172.27,-115.31C186.06,-120.82 204.9,-128.36 220.63,-134.66"/>
<polygon fill="black" stroke="black" points="218.93,-137.75 229.52,-138.22 221.53,-131.25 218.93,-137.75"/>
<text xml:space="preserve" text-anchor="middle" x="201.75" y="-133.79" font-family="Times New Roman,serif" font-size="14.00">uo1</text>
</g>
<!-- (0, 2) -->
<g id="node8" class="node">
<title>(0, 2)</title>
<ellipse fill="none" stroke="black" cx="251.47" cy="-46.6" rx="21.6" ry="21.6"/>
<text xml:space="preserve" text-anchor="middle" x="251.47" y="-41.55" font-family="Times New Roman,serif" font-size="14.00">0,2</text>
</g>
<!-- (0, 1)&#45;&gt;(0, 2) -->
<g id="edge7" class="edge">
<title>(0, 1)&#45;&gt;(0, 2)</title>
<path fill="none" stroke="black" d="M173.69,-46.6C186.65,-46.6 203.63,-46.6 218.32,-46.6"/>
<polygon fill="black" stroke="black" points="217.98,-50.1 227.98,-46.6 217.98,-43.1 217.98,-50.1"/>
<text xml:space="preserve" text-anchor="middle" x="201.75" y="-49.8" font-family="Times New Roman,serif" font-size="14.00">uo2</text>
</g>
<!-- (1, 1) -->
<g id="node9" class="node">
<title>(1, 1)</title>
<ellipse fill="none" stroke="black" cx="344.17" cy="-192.6" rx="21.6" ry="21.6"/>
<text xml:space="preserve" text-anchor="middle" x="344.17" y="-187.55" font-family="Times New Roman,serif" font-size="14.00">1,1</text>
</g>
<!-- (1, 4)&#45;&gt;(1, 1) -->
<g id="edge8" class="edge">
<title>(1, 4)&#45;&gt;(1, 1)</title>
<path fill="none" stroke="red" d="M271.26,-156.13C283.67,-162.42 300.16,-170.79 314.23,-177.92"/>
<polygon fill="red" stroke="red" points="312.55,-180.99 323.05,-182.4 315.72,-174.75 312.55,-180.99"/>
<text xml:space="preserve" text-anchor="middle" x="297.82" y="-175.55" font-family="Times New Roman,serif" font-size="14.00" fill="red">o2</text>
</g>
<!-- (1, 6) -->
<g id="node10" class="node">
<title>(1, 6)</title>
<ellipse fill="none" stroke="black" cx="821.17" cy="-142.6" rx="21.6" ry="21.6"/>
<text xml:space="preserve" text-anchor="middle" x="821.17" y="-137.55" font-family="Times New Roman,serif" font-size="14.00">1,6</text>
</g>
<!-- (1, 4)&#45;&gt;(1, 6) -->
<g id="edge9" class="edge">
<title>(1, 4)&#45;&gt;(1, 6)</title>
<path fill="none" stroke="green" d="M273.35,-145.16C291.73,-144.01 319.21,-142.6 343.17,-142.6 343.17,-142.6 343.17,-142.6 729.47,-142.6 748.82,-142.6 770.5,-142.6 787.81,-142.6"/>
<polygon fill="green" stroke="green" points="787.76,-146.1 797.76,-142.6 787.76,-139.1 787.76,-146.1"/>
<text xml:space="preserve" text-anchor="middle" x="543.07" y="-145.8" font-family="Times New Roman,serif" font-size="14.00" fill="green">o1</text>
</g>
<!-- (0, 5) -->
<g id="node11" class="node">
<title>(0, 5)</title>
<ellipse fill="pink" stroke="black" cx="344.17" cy="-21.6" rx="21.6" ry="21.6"/>
<text xml:space="preserve" text-anchor="middle" x="344.17" y="-16.55" font-family="Times New Roman,serif" font-size="14.00">0,5</text>
</g>
<!-- (0, 2)&#45;&gt;(0, 5) -->
<g id="edge10" class="edge">
<title>(0, 2)&#45;&gt;(0, 5)</title>
<path fill="none" stroke="green" d="M272.6,-41.05C284.22,-37.85 299.09,-33.75 312.18,-30.14"/>
<polygon fill="green" stroke="green" points="312.93,-33.57 321.64,-27.53 311.07,-26.82 312.93,-33.57"/>
<text xml:space="preserve" text-anchor="middle" x="297.82" y="-38.8" font-family="Times New Roman,serif" font-size="14.00" fill="green">o1</text>
</g>
<!-- (1, 2) -->
<g id="node12" class="node">
<title>(1, 2)</title>
<ellipse fill="none" stroke="black" cx="443.62" cy="-239.6" rx="21.6" ry="21.6"/>
<text xml:space="preserve" text-anchor="middle" x="443.62" y="-234.55" font-family="Times New Roman,serif" font-size="14.00">1,2</text>
</g>
<!-- (1, 1)&#45;&gt;(1, 2) -->
<g id="edge11" class="edge">
<title>(1, 1)&#45;&gt;(1, 2)</title>
<path fill="none" stroke="black" d="M363.96,-201.66C378.02,-208.45 397.52,-217.85 413.59,-225.6"/>
<polygon fill="black" stroke="black" points="411.66,-228.56 422.19,-229.75 414.71,-222.25 411.66,-228.56"/>
<text xml:space="preserve" text-anchor="middle" x="393.9" y="-223.51" font-family="Times New Roman,serif" font-size="14.00">uo2</text>
</g>
<!-- (1, 6)&#45;&gt;(1, 7) -->
<g id="edge12" class="edge">
<title>(1, 6)&#45;&gt;(1, 7)</title>
<path fill="none" stroke="cyan" d="M804.35,-128.8C787.15,-115.25 758.25,-96.6 729.47,-96.6 250.47,-96.6 250.47,-96.6 250.47,-96.6 228.44,-96.6 203.78,-99.41 184.78,-102.19"/>
<polygon fill="cyan" stroke="cyan" points="184.32,-98.72 174.97,-103.71 185.39,-105.64 184.32,-98.72"/>
<text xml:space="preserve" text-anchor="middle" x="493.35" y="-99.8" font-family="Times New Roman,serif" font-size="14.00" fill="cyan">uo3</text>
</g>
<!-- (0, 5)&#45;&gt;(0, 0) -->
<g id="edge13" class="edge">
<title>(0, 5)&#45;&gt;(0, 0)</title>
<path fill="none" stroke="blue" d="M322.78,-16.33C284.02,-7.32 197.55,7.92 130.42,-15.6 112.15,-22 95.09,-35.39 82.38,-47.47"/>
<polygon fill="blue" stroke="blue" points="79.99,-44.92 75.38,-54.46 84.93,-49.87 79.99,-44.92"/>
<text xml:space="preserve" text-anchor="middle" x="201.75" y="-6.93" font-family="Times New Roman,serif" font-size="14.00" fill="blue">o4</text>
</g>
<!-- (1, 5) -->
<g id="node13" class="node">
<title>(1, 5)</title>
<ellipse fill="pink" stroke="black" cx="543.07" cy="-239.6" rx="21.6" ry="21.6"/>
<text xml:space="preserve" text-anchor="middle" x="543.07" y="-234.55" font-family="Times New Roman,serif" font-size="14.00">1,5</text>
</g>
<!-- (1, 2)&#45;&gt;(1, 5) -->
<g id="edge14" class="edge">
<title>(1, 2)&#45;&gt;(1, 5)</title>
<path fill="none" stroke="green" d="M465.29,-239.6C478.25,-239.6 495.23,-239.6 509.92,-239.6"/>
<polygon fill="green" stroke="green" points="509.58,-243.1 519.58,-239.6 509.58,-236.1 509.58,-243.1"/>
<text xml:space="preserve" text-anchor="middle" x="493.35" y="-242.8" font-family="Times New Roman,serif" font-size="14.00" fill="green">o1</text>
</g>
<!-- (1, 0) -->
<g id="node14" class="node">
<title>(1, 0)</title>
<ellipse fill="none" stroke="black" cx="635.77" cy="-192.6" rx="21.6" ry="21.6"/>
<text xml:space="preserve" text-anchor="middle" x="635.77" y="-187.55" font-family="Times New Roman,serif" font-size="14.00">1,0</text>
</g>
<!-- (1, 5)&#45;&gt;(1, 0) -->
<g id="edge15" class="edge">
<title>(1, 5)&#45;&gt;(1, 0)</title>
<path fill="none" stroke="blue" d="M562.86,-229.86C575.27,-223.43 591.76,-214.88 605.83,-207.6"/>
<polygon fill="blue" stroke="blue" points="607.39,-210.73 614.66,-203.02 604.17,-204.52 607.39,-210.73"/>
<text xml:space="preserve" text-anchor="middle" x="589.42" y="-222.11" font-family="Times New Roman,serif" font-size="14.00" fill="blue">o4</text>
</g>
<!-- (1, 0)&#45;&gt;(1, 1) -->
<g id="edge17" class="edge">
<title>(1, 0)&#45;&gt;(1, 1)</title>
<path fill="none" stroke="green" d="M613.74,-192.6C563.67,-192.6 437.1,-192.6 377.35,-192.6"/>
<polygon fill="green" stroke="green" points="377.51,-189.1 367.51,-192.6 377.51,-196.1 377.51,-189.1"/>
<text xml:space="preserve" text-anchor="middle" x="493.35" y="-195.8" font-family="Times New Roman,serif" font-size="14.00" fill="green">o1</text>
</g>
<!-- (1, 3) -->
<g id="node15" class="node">
<title>(1, 3)</title>
<ellipse fill="none" stroke="black" cx="728.47" cy="-192.6" rx="21.6" ry="21.6"/>
<text xml:space="preserve" text-anchor="middle" x="728.47" y="-187.55" font-family="Times New Roman,serif" font-size="14.00">1,3</text>
</g>
<!-- (1, 0)&#45;&gt;(1, 3) -->
<g id="edge16" class="edge">
<title>(1, 0)&#45;&gt;(1, 3)</title>
<path fill="none" stroke="red" d="M657.81,-192.6C668.91,-192.6 682.78,-192.6 695.21,-192.6"/>
<polygon fill="red" stroke="red" points="695.03,-196.1 705.03,-192.6 695.03,-189.1 695.03,-196.1"/>
<text xml:space="preserve" text-anchor="middle" x="682.12" y="-195.8" font-family="Times New Roman,serif" font-size="14.00" fill="red">o2</text>
</g>
<!-- (1, 3)&#45;&gt;(1, 6) -->
<g id="edge18" class="edge">
<title>(1, 3)&#45;&gt;(1, 6)</title>
<path fill="none" stroke="blue" d="M747.82,-182.48C760.49,-175.5 777.56,-166.09 791.95,-158.16"/>
<polygon fill="blue" stroke="blue" points="793.45,-161.33 800.52,-153.43 790.07,-155.2 793.45,-161.33"/>
<text xml:space="preserve" text-anchor="middle" x="774.82" y="-173.79" font-family="Times New Roman,serif" font-size="14.00" fill="blue">o4</text>
</g>
</g>
</svg>
