<?xml version="1.0" encoding="UTF-8" standalone="no"?>
<!DOCTYPE svg PUBLIC "-//W3C//DTD SVG 1.1//EN"
 "http://www.w3.org/Graphics/SVG/1.1/DTD/svg11.dtd">
<!-- Generated by graphviz version 14.1.1 (20251213.1925)
 -->
<!-- Pages: 1 -->
<svg width="720pt" height="283pt"
 viewBox="0.00 0.00 720.00 283.00" xmlns="http://www.w3.org/2000/svg" xmlns:xlink="http://www.w3.org/1999/xlink">
<g id="graph0" class="graph" transform="scale(0.846292 0.846292) rotate(0) translate(4 329.95)">
<polygon fill="white" stroke="none" points="-4,4 -4,-329.95 846.77,-329.95 846.77,4 -4,4"/>
<!-- start_0 -->
<g id="node1" class="node">
<title>start_0</title>
</g>
<!-- (0, 0) -->
<g id="node2" class="node">
<title>(0, 0)</title>
<ellipse fill="none" stroke="black" cx="59.32" cy="-70.45" rx="21.6" ry="21.6"/>
<text xml:space="preserve" text-anchor="middle" x="59.32" y="-65.4" font-family="Times New Roman,serif" font-size="14.00">0,0</text>
</g>
<!-- start_0&#45;&gt;(0, 0) -->
<g id="edge1" class="edge">
<title>start_0&#45;&gt;(0, 0)</title>
<path fill="none" stroke="black" d="M0.89,-70.45C2.38,-70.45 13.8,-70.45 26.08,-70.45"/>
<polygon fill="black" stroke="black" points="25.81,-73.95 35.81,-70.45 25.81,-66.95 25.81,-73.95"/>
</g>
<!-- (1, 7) -->
<g id="node3" class="node">
<title>(1, 7)</title>
<ellipse fill="none" stroke="black" cx="152.02" cy="-167.45" rx="21.6" ry="21.6"/>
<text xml:space="preserve" text-anchor="middle" x="152.02" y="-162.4" font-family="Times New Roman,serif" font-size="14.00">1,7</text>
</g>
<!-- (0, 0)&#45;&gt;(1, 7) -->
<g id="edge2" class="edge">
<title>(0, 0)&#45;&gt;(1, 7)</title>
<path fill="none" stroke="red" d="M74.89,-86.04C89.44,-101.6 111.98,-125.7 128.77,-143.66"/>
<polygon fill="red" stroke="red" points="126.06,-145.89 135.45,-150.8 131.18,-141.11 126.06,-145.89"/>
<text xml:space="preserve" text-anchor="middle" x="105.67" y="-127.96" font-family="Times New Roman,serif" font-size="14.00" fill="red">o3</text>
</g>
<!-- (0, 1) -->
<g id="node4" class="node">
<title>(0, 1)</title>
<ellipse fill="none" stroke="black" cx="152.02" cy="-106.45" rx="21.6" ry="21.6"/>
<text xml:space="preserve" text-anchor="middle" x="152.02" y="-101.4" font-family="Times New Roman,serif" font-size="14.00">0,1</text>
</g>
<!-- (0, 0)&#45;&gt;(0, 1) -->
<g id="edge3" class="edge">
<title>(0, 0)&#45;&gt;(0, 1)</title>
<path fill="none" stroke="green" d="M79.56,-78.09C91.62,-82.88 107.42,-89.15 121.1,-94.58"/>
<polygon fill="green" stroke="green" points="119.51,-97.71 130.09,-98.15 122.09,-91.21 119.51,-97.71"/>
<text xml:space="preserve" text-anchor="middle" x="105.67" y="-93.81" font-family="Times New Roman,serif" font-size="14.00" fill="green">o1</text>
</g>
<!-- (2, 3) -->
<g id="node5" class="node">
<title>(2, 3)</title>
<ellipse fill="none" stroke="black" cx="152.02" cy="-45.45" rx="21.6" ry="21.6"/>
<text xml:space="preserve" text-anchor="middle" x="152.02" y="-40.4" font-family="Times New Roman,serif" font-size="14.00">2,3</text>
</g>
<!-- (0, 0)&#45;&gt;(2, 3) -->
<g id="edge4" class="edge">
<title>(0, 0)&#45;&gt;(2, 3)</title>
<path fill="none" stroke="red" d="M80.45,-64.91C92.07,-61.7 106.94,-57.6 120.03,-54"/>
<polygon fill="red" stroke="red" points="120.78,-57.42 129.49,-51.39 118.92,-50.67 120.78,-57.42"/>
<text xml:space="preserve" text-anchor="middle" x="105.67" y="-62.65" font-family="Times New Roman,serif" font-size="14.00" fill="red">o2</text>
</g>
<!-- (1, 4) -->
<g id="node6" class="node">
<title>(1, 4)</title>
<ellipse fill="none" stroke="black" cx="251.47" cy="-222.45" rx="21.6" ry="21.6"/>
<text xml:space="preserve" text-anchor="middle" x="251.47" y="-217.4" font-family="Times New Roman,serif" font-size="14.00">1,4</text>
</g>
<!-- (1, 7)&#45;&gt;(1, 4) -->
<g id="edge5" class="edge">
<title>(1, 7)&#45;&gt;(1, 4)</title>
<path fill="none" stroke="black" d="M171.35,-177.8C185.78,-185.94 206.13,-197.43 222.57,-206.71"/>
<polygon fill="black" stroke="black" points="220.48,-209.55 230.9,-211.41 223.92,-203.45 220.48,-209.55"/>
<text xml:space="preserve" text-anchor="middle" x="201.75" y="-203.08" font-family="Times New Roman,serif" font-size="14.00">uo1</text>
</g>
<!-- (0, 2) -->
<g id="node7" class="node">
<title>(0, 2)</title>
<ellipse fill="none" stroke="black" cx="251.47" cy="-106.45" rx="21.6" ry="21.6"/>
<text xml:space="preserve" text-anchor="middle" x="251.47" y="-101.4" font-family="Times New Roman,serif" font-size="14.00">0,2</text>
</g>
<!-- (0, 1)&#45;&gt;(0, 2) -->
<g id="edge6" class="edge">
<title>(0, 1)&#45;&gt;(0, 2)</title>
<path fill="none" stroke="black" d="M173.69,-106.45C186.65,-106.45 203.63,-106.45 218.32,-106.45"/>
<polygon fill="black" stroke="black" points="217.98,-109.95 227.98,-106.45 217.98,-102.95 217.98,-109.95"/>
<text xml:space="preserve" text-anchor="middle" x="201.75" y="-109.65" font-family="Times New Roman,serif" font-size="14.00">uo2</text>
</g>
<!-- (2, 6) -->
<g id="node8" class="node">
<title>(2, 6)</title>
<ellipse fill="none" stroke="black" cx="251.47" cy="-45.45" rx="21.6" ry="21.6"/>
<text xml:space="preserve" text-anchor="middle" x="251.47" y="-40.4" font-family="Times New Roman,serif" font-size="14.00">2,6</text>
</g>
<!-- (2, 3)&#45;&gt;(2, 6) -->
<g id="edge7" class="edge">
<title>(2, 3)&#45;&gt;(2, 6)</title>
<path fill="none" stroke="blue" d="M173.69,-45.45C186.65,-45.45 203.63,-45.45 218.32,-45.45"/>
<polygon fill="blue" stroke="blue" points="217.98,-48.95 227.98,-45.45 217.98,-41.95 217.98,-48.95"/>
<text xml:space="preserve" text-anchor="middle" x="201.75" y="-48.65" font-family="Times New Roman,serif" font-size="14.00" fill="blue">o4</text>
</g>
<!-- (1, 6) -->
<g id="node9" class="node">
<title>(1, 6)</title>
<ellipse fill="none" stroke="black" cx="821.17" cy="-226.45" rx="21.6" ry="21.6"/>
<text xml:space="preserve" text-anchor="middle" x="821.17" y="-221.4" font-family="Times New Roman,serif" font-size="14.00">1,6</text>
</g>
<!-- (1, 4)&#45;&gt;(1, 6) -->
<g id="edge8" class="edge">
<title>(1, 4)&#45;&gt;(1, 6)</title>
<path fill="none" stroke="green" d="M261.78,-241.76C275.65,-267.39 304.33,-309.45 343.17,-309.45 343.17,-309.45 343.17,-309.45 729.47,-309.45 762.53,-309.45 788.78,-279.08 804.37,-255.08"/>
<polygon fill="green" stroke="green" points="807.34,-256.93 809.59,-246.58 801.37,-253.27 807.34,-256.93"/>
<text xml:space="preserve" text-anchor="middle" x="543.07" y="-312.65" font-family="Times New Roman,serif" font-size="14.00" fill="green">o1</text>
</g>
<!-- (1, 1) -->
<g id="node10" class="node">
<title>(1, 1)</title>
<ellipse fill="none" stroke="black" cx="344.17" cy="-222.45" rx="21.6" ry="21.6"/>
<text xml:space="preserve" text-anchor="middle" x="344.17" y="-217.4" font-family="Times New Roman,serif" font-size="14.00">1,1</text>
</g>
<!-- (1, 4)&#45;&gt;(1, 1) -->
<g id="edge9" class="edge">
<title>(1, 4)&#45;&gt;(1, 1)</title>
<path fill="none" stroke="red" d="M273.51,-222.45C284.61,-222.45 298.48,-222.45 310.91,-222.45"/>
<polygon fill="red" stroke="red" points="310.73,-225.95 320.73,-222.45 310.73,-218.95 310.73,-225.95"/>
<text xml:space="preserve" text-anchor="middle" x="297.82" y="-225.65" font-family="Times New Roman,serif" font-size="14.00" fill="red">o2</text>
</g>
<!-- (0, 5) -->
<g id="node11" class="node">
<title>(0, 5)</title>
<ellipse fill="pink" stroke="black" cx="344.17" cy="-56.45" rx="21.6" ry="21.6"/>
<text xml:space="preserve" text-anchor="middle" x="344.17" y="-51.4" font-family="Times New Roman,serif" font-size="14.00">0,5</text>
</g>
<!-- (0, 2)&#45;&gt;(0, 5) -->
<g id="edge10" class="edge">
<title>(0, 2)&#45;&gt;(0, 5)</title>
<path fill="none" stroke="green" d="M270.82,-96.34C283.49,-89.36 300.56,-79.94 314.95,-72.01"/>
<polygon fill="green" stroke="green" points="316.45,-75.18 323.52,-67.29 313.07,-69.05 316.45,-75.18"/>
<text xml:space="preserve" text-anchor="middle" x="297.82" y="-87.65" font-family="Times New Roman,serif" font-size="14.00" fill="green">o1</text>
</g>
<!-- (1, 6)&#45;&gt;(1, 7) -->
<g id="edge11" class="edge">
<title>(1, 6)&#45;&gt;(1, 7)</title>
<path fill="none" stroke="cyan" d="M807.49,-209.38C791.59,-190.12 762.4,-161.45 729.47,-161.45 250.47,-161.45 250.47,-161.45 250.47,-161.45 228.68,-161.45 204.19,-162.97 185.22,-164.48"/>
<polygon fill="cyan" stroke="cyan" points="185.09,-160.97 175.42,-165.3 185.67,-167.95 185.09,-160.97"/>
<text xml:space="preserve" text-anchor="middle" x="493.35" y="-164.65" font-family="Times New Roman,serif" font-size="14.00" fill="cyan">uo3</text>
</g>
<!-- (1, 2) -->
<g id="node12" class="node">
<title>(1, 2)</title>
<ellipse fill="none" stroke="black" cx="443.62" cy="-251.45" rx="21.6" ry="21.6"/>
<text xml:space="preserve" text-anchor="middle" x="443.62" y="-246.4" font-family="Times New Roman,serif" font-size="14.00">1,2</text>
</g>
<!-- (1, 1)&#45;&gt;(1, 2) -->
<g id="edge12" class="edge">
<title>(1, 1)&#45;&gt;(1, 2)</title>
<path fill="none" stroke="black" d="M365.36,-228.46C378.69,-232.43 396.41,-237.7 411.52,-242.2"/>
<polygon fill="black" stroke="black" points="410.42,-245.52 421,-245.02 412.42,-238.82 410.42,-245.52"/>
<text xml:space="preserve" text-anchor="middle" x="393.9" y="-242.75" font-family="Times New Roman,serif" font-size="14.00">uo2</text>
</g>
<!-- (0, 5)&#45;&gt;(0, 0) -->
<g id="edge13" class="edge">
<title>(0, 5)&#45;&gt;(0, 0)</title>
<path fill="none" stroke="blue" d="M326.8,-43.12C313.3,-33.04 293.17,-20.02 273.07,-14.45 211.97,2.45 190.25,6.51 130.42,-14.45 112.15,-20.86 95.09,-34.25 82.38,-46.33"/>
<polygon fill="blue" stroke="blue" points="79.99,-43.77 75.38,-53.31 84.93,-48.72 79.99,-43.77"/>
<text xml:space="preserve" text-anchor="middle" x="201.75" y="-4.11" font-family="Times New Roman,serif" font-size="14.00" fill="blue">o4</text>
</g>
<!-- (1, 5) -->
<g id="node13" class="node">
<title>(1, 5)</title>
<ellipse fill="pink" stroke="black" cx="543.07" cy="-251.45" rx="21.6" ry="21.6"/>
<text xml:space="preserve" text-anchor="middle" x="543.07" y="-246.4" font-family="Times New Roman,serif" font-size="14.00">1,5</text>
</g>
<!-- (1, 2)&#45;&gt;(1, 5) -->
<g id="edge14" class="edge">
<title>(1, 2)&#45;&gt;(1, 5)</title>
<path fill="none" stroke="green" d="M465.29,-251.45C478.25,-251.45 495.23,-251.45 509.92,-251.45"/>
<polygon fill="green" stroke="green" points="509.58,-254.95 519.58,-251.45 509.58,-247.95 509.58,-254.95"/>
<text xml:space="preserve" text-anchor="middle" x="493.35" y="-254.65" font-family="Times New Roman,serif" font-size="14.00" fill="green">o1</text>
</g>
<!-- (1, 0) -->
<g id="node14" class="node">
<title>(1, 0)</title>
<ellipse fill="none" stroke="black" cx="635.77" cy="-226.45" rx="21.6" ry="21.6"/>
<text xml:space="preserve" text-anchor="middle" x="635.77" y="-221.4" font-family="Times New Roman,serif" font-size="14.00">1,0</text>
</g>
<!-- (1, 5)&#45;&gt;(1, 0) -->
<g id="edge15" class="edge">
<title>(1, 5)&#45;&gt;(1, 0)</title>
<path fill="none" stroke="blue" d="M564.2,-245.91C575.82,-242.7 590.69,-238.6 603.78,-235"/>
<polygon fill="blue" stroke="blue" points="604.53,-238.42 613.24,-232.39 602.67,-231.67 604.53,-238.42"/>
<text xml:space="preserve" text-anchor="middle" x="589.42" y="-243.65" font-family="Times New Roman,serif" font-size="14.00" fill="blue">o4</text>
</g>
<!-- (1, 0)&#45;&gt;(1, 1) -->
<g id="edge16" class="edge">
<title>(1, 0)&#45;&gt;(1, 1)</title>
<path fill="none" stroke="green" d="M613.94,-224.2C600.01,-222.81 581.27,-221.16 564.67,-220.45 498.17,-217.61 420.23,-219.58 377.42,-221.12"/>
<polygon fill="green" stroke="green" points="377.44,-217.61 367.58,-221.49 377.7,-224.61 377.44,-217.61"/>
<text xml:space="preserve" text-anchor="middle" x="493.35" y="-222.25" font-family="Times New Roman,serif" font-size="14.00" fill="green">o1</text>
</g>
<!-- (1, 3) -->
<g id="node15" class="node">
<title>(1, 3)</title>
<ellipse fill="none" stroke="black" cx="728.47" cy="-226.45" rx="21.6" ry="21.6"/>
<text xml:space="preserve" text-anchor="middle" x="728.47" y="-221.4" font-family="Times New Roman,serif" font-size="14.00">1,3</text>
</g>
<!-- (1, 0)&#45;&gt;(1, 3) -->
<g id="edge17" class="edge">
<title>(1, 0)&#45;&gt;(1, 3)</title>
<path fill="none" stroke="red" d="M657.81,-226.45C668.91,-226.45 682.78,-226.45 695.21,-226.45"/>
<polygon fill="red" stroke="red" points="695.03,-229.95 705.03,-226.45 695.03,-222.95 695.03,-229.95"/>
<text xml:space="preserve" text-anchor="middle" x="682.12" y="-229.65" font-family="Times New Roman,serif" font-size="14.00" fill="red">o2</text>
</g>
<!-- (1, 3)&#45;&gt;(1, 6) -->
<g id="edge18" class="edge">
<title>(1, 3)&#45;&gt;(1, 6)</title>
<path fill="none" stroke="blue" d="M750.51,-226.45C761.61,-226.45 775.48,-226.45 787.91,-226.45"/>
<polygon fill="blue" stroke="blue" points="787.73,-229.95 797.73,-226.45 787.73,-222.95 787.73,-229.95"/>
<text xml:space="preserve" text-anchor="middle" x="774.82" y="-229.65" font-family="Times New Roman,serif" font-size="14.00" fill="blue">o4</text>
</g>
</g>
</svg>
