<?xml version="1.0" encoding="UTF-8" standalone="no"?>
<!DOCTYPE svg PUBLIC "-//W3C//DTD SVG 1.1//EN"
 "http://www.w3.org/Graphics/SVG/1.1/DTD/svg11.dtd">
<!-- Generated by graphviz version 14.1.1 (20251213.1925)
 -->
<!-- Pages: 1 -->
<svg width="720pt" height="273pt"
 viewBox="0.00 0.00 720.00 273.00" xmlns="http://www.w3.org/2000/svg" xmlns:xlink="http://www.w3.org/1999/xlink">
<g id="graph0" class="graph" transform="scale(0.846292 0.846292) rotate(0) translate(4 318.2)">
<polygon fill="white" stroke="none" points="-4,4 -4,-318.2 846.77,-318.2 846.77,4 -4,4"/>
<!-- start_0 -->
<g id="node1" class="node">
<title>start_0</title>
</g>
<!-- (0, 0) -->
<g id="node2" class="node">
<title>(0, 0)</title>
<ellipse fill="none" stroke="black" cx="59.32" cy="-87.6" rx="21.6" ry="21.6"/>
<text xml:space="preserve" text-anchor="middle" x="59.32" y="-82.55" font-family="Times New Roman,serif" font-size="14.00">0,0</text>
</g>
<!-- start_0&#45;&gt;(0, 0) -->
<g id="edge1" class="edge">
<title>start_0&#45;&gt;(0, 0)</title>
<path fill="none" stroke="black" d="M0.89,-87.6C2.38,-87.6 13.8,-87.6 26.08,-87.6"/>
<polygon fill="black" stroke="black" points="25.81,-91.1 35.81,-87.6 25.81,-84.1 25.81,-91.1"/>
</g>
<!-- (2, 3) -->
<g id="node3" class="node">
<title>(2, 3)</title>
<ellipse fill="none" stroke="black" cx="152.02" cy="-258.6" rx="21.6" ry="21.6"/>
<text xml:space="preserve" text-anchor="middle" x="152.02" y="-253.55" font-family="Times New Roman,serif" font-size="14.00">2,3</text>
</g>
<!-- (0, 0)&#45;&gt;(2, 3) -->
<g id="edge2" class="edge">
<title>(0, 0)&#45;&gt;(2, 3)</title>
<path fill="none" stroke="red" d="M70.37,-106.55C86.17,-136.34 116.93,-194.33 135.56,-229.45"/>
<polygon fill="red" stroke="red" points="132.43,-231.03 140.21,-238.22 138.62,-227.75 132.43,-231.03"/>
<text xml:space="preserve" text-anchor="middle" x="105.67" y="-186.54" font-family="Times New Roman,serif" font-size="14.00" fill="red">o2</text>
</g>
<!-- (0, 1) -->
<g id="node4" class="node">
<title>(0, 1)</title>
<ellipse fill="none" stroke="black" cx="152.02" cy="-21.6" rx="21.6" ry="21.6"/>
<text xml:space="preserve" text-anchor="middle" x="152.02" y="-16.55" font-family="Times New Roman,serif" font-size="14.00">0,1</text>
</g>
<!-- (0, 0)&#45;&gt;(0, 1) -->
<g id="edge3" class="edge">
<title>(0, 0)&#45;&gt;(0, 1)</title>
<path fill="none" stroke="green" d="M71.74,-69.73C78.63,-60.14 88.15,-48.76 98.92,-41.1 105.19,-36.64 112.61,-33.07 119.85,-30.26"/>
<polygon fill="green" stroke="green" points="120.79,-33.64 129.1,-27.07 118.5,-27.02 120.79,-33.64"/>
<text xml:space="preserve" text-anchor="middle" x="105.67" y="-44.3" font-family="Times New Roman,serif" font-size="14.00" fill="green">o1</text>
</g>
<!-- (1, 7) -->
<g id="node5" class="node">
<title>(1, 7)</title>
<ellipse fill="none" stroke="black" cx="152.02" cy="-131.6" rx="21.6" ry="21.6"/>
<text xml:space="preserve" text-anchor="middle" x="152.02" y="-126.55" font-family="Times New Roman,serif" font-size="14.00">1,7</text>
</g>
<!-- (0, 0)&#45;&gt;(1, 7) -->
<g id="edge4" class="edge">
<title>(0, 0)&#45;&gt;(1, 7)</title>
<path fill="none" stroke="red" d="M79.11,-96.72C91.52,-102.73 108.01,-110.74 122.08,-117.56"/>
<polygon fill="red" stroke="red" points="120.36,-120.62 130.89,-121.83 123.42,-114.32 120.36,-120.62"/>
<text xml:space="preserve" text-anchor="middle" x="105.67" y="-115.43" font-family="Times New Roman,serif" font-size="14.00" fill="red">o3</text>
</g>
<!-- (2, 6) -->
<g id="node6" class="node">
<title>(2, 6)</title>
<ellipse fill="none" stroke="black" cx="251.47" cy="-292.6" rx="21.6" ry="21.6"/>
<text xml:space="preserve" text-anchor="middle" x="251.47" y="-287.55" font-family="Times New Roman,serif" font-size="14.00">2,6</text>
</g>
<!-- (2, 3)&#45;&gt;(2, 6) -->
<g id="edge5" class="edge">
<title>(2, 3)&#45;&gt;(2, 6)</title>
<path fill="none" stroke="blue" d="M172.74,-265.48C186.35,-270.23 204.69,-276.63 220.15,-282.02"/>
<polygon fill="blue" stroke="blue" points="218.75,-285.24 229.35,-285.23 221.06,-278.63 218.75,-285.24"/>
<text xml:space="preserve" text-anchor="middle" x="201.75" y="-281.85" font-family="Times New Roman,serif" font-size="14.00" fill="blue">o4</text>
</g>
<!-- (0, 2) -->
<g id="node7" class="node">
<title>(0, 2)</title>
<ellipse fill="none" stroke="black" cx="251.47" cy="-21.6" rx="21.6" ry="21.6"/>
<text xml:space="preserve" text-anchor="middle" x="251.47" y="-16.55" font-family="Times New Roman,serif" font-size="14.00">0,2</text>
</g>
<!-- (0, 1)&#45;&gt;(0, 2) -->
<g id="edge6" class="edge">
<title>(0, 1)&#45;&gt;(0, 2)</title>
<path fill="none" stroke="black" d="M173.69,-21.6C186.65,-21.6 203.63,-21.6 218.32,-21.6"/>
<polygon fill="black" stroke="black" points="217.98,-25.1 227.98,-21.6 217.98,-18.1 217.98,-25.1"/>
<text xml:space="preserve" text-anchor="middle" x="201.75" y="-24.8" font-family="Times New Roman,serif" font-size="14.00">uo2</text>
</g>
<!-- (1, 4) -->
<g id="node8" class="node">
<title>(1, 4)</title>
<ellipse fill="none" stroke="black" cx="251.47" cy="-131.6" rx="21.6" ry="21.6"/>
<text xml:space="preserve" text-anchor="middle" x="251.47" y="-126.55" font-family="Times New Roman,serif" font-size="14.00">1,4</text>
</g>
<!-- (1, 7)&#45;&gt;(1, 4) -->
<g id="edge7" class="edge">
<title>(1, 7)&#45;&gt;(1, 4)</title>
<path fill="none" stroke="black" d="M173.69,-131.6C186.65,-131.6 203.63,-131.6 218.32,-131.6"/>
<polygon fill="black" stroke="black" points="217.98,-135.1 227.98,-131.6 217.98,-128.1 217.98,-135.1"/>
<text xml:space="preserve" text-anchor="middle" x="201.75" y="-134.8" font-family="Times New Roman,serif" font-size="14.00">uo1</text>
</g>
<!-- (0, 5) -->
<g id="node9" class="node">
<title>(0, 5)</title>
<ellipse fill="pink" stroke="black" cx="344.17" cy="-38.6" rx="21.6" ry="21.6"/>
<text xml:space="preserve" text-anchor="middle" x="344.17" y="-33.55" font-family="Times New Roman,serif" font-size="14.00">0,5</text>
</g>
<!-- (0, 2)&#45;&gt;(0, 5) -->
<g id="edge8" class="edge">
<title>(0, 2)&#45;&gt;(0, 5)</title>
<path fill="none" stroke="green" d="M273.05,-25.46C284.42,-27.59 298.77,-30.28 311.53,-32.67"/>
<polygon fill="green" stroke="green" points="310.71,-36.08 321.18,-34.48 312,-29.2 310.71,-36.08"/>
<text xml:space="preserve" text-anchor="middle" x="297.82" y="-34.32" font-family="Times New Roman,serif" font-size="14.00" fill="green">o1</text>
</g>
<!-- (1, 1) -->
<g id="node10" class="node">
<title>(1, 1)</title>
<ellipse fill="none" stroke="black" cx="344.17" cy="-152.6" rx="21.6" ry="21.6"/>
<text xml:space="preserve" text-anchor="middle" x="344.17" y="-147.55" font-family="Times New Roman,serif" font-size="14.00">1,1</text>
</g>
<!-- (1, 4)&#45;&gt;(1, 1) -->
<g id="edge9" class="edge">
<title>(1, 4)&#45;&gt;(1, 1)</title>
<path fill="none" stroke="red" d="M272.6,-136.26C284.14,-138.93 298.89,-142.35 311.91,-145.36"/>
<polygon fill="red" stroke="red" points="310.78,-148.69 321.31,-147.54 312.36,-141.87 310.78,-148.69"/>
<text xml:space="preserve" text-anchor="middle" x="297.82" y="-146.56" font-family="Times New Roman,serif" font-size="14.00" fill="red">o2</text>
</g>
<!-- (1, 6) -->
<g id="node11" class="node">
<title>(1, 6)</title>
<ellipse fill="none" stroke="black" cx="821.17" cy="-181.6" rx="21.6" ry="21.6"/>
<text xml:space="preserve" text-anchor="middle" x="821.17" y="-176.55" font-family="Times New Roman,serif" font-size="14.00">1,6</text>
</g>
<!-- (1, 4)&#45;&gt;(1, 6) -->
<g id="edge10" class="edge">
<title>(1, 4)&#45;&gt;(1, 6)</title>
<path fill="none" stroke="green" d="M270.11,-120.33C287.84,-110.1 316.33,-96.6 343.17,-96.6 343.17,-96.6 343.17,-96.6 729.47,-96.6 763.04,-96.6 789.31,-127.99 804.75,-152.62"/>
<polygon fill="green" stroke="green" points="801.61,-154.2 809.73,-161.01 807.63,-150.63 801.61,-154.2"/>
<text xml:space="preserve" text-anchor="middle" x="543.07" y="-99.8" font-family="Times New Roman,serif" font-size="14.00" fill="green">o1</text>
</g>
<!-- (0, 5)&#45;&gt;(0, 0) -->
<g id="edge11" class="edge">
<title>(0, 5)&#45;&gt;(0, 0)</title>
<path fill="none" stroke="blue" d="M323.73,-45.9C317.66,-47.98 310.9,-50.08 304.57,-51.6 229.61,-69.59 139.43,-80.07 92.4,-84.72"/>
<polygon fill="blue" stroke="blue" points="92.27,-81.21 82.65,-85.65 92.94,-88.18 92.27,-81.21"/>
<text xml:space="preserve" text-anchor="middle" x="201.75" y="-75.76" font-family="Times New Roman,serif" font-size="14.00" fill="blue">o4</text>
</g>
<!-- (1, 2) -->
<g id="node12" class="node">
<title>(1, 2)</title>
<ellipse fill="none" stroke="black" cx="443.62" cy="-152.6" rx="21.6" ry="21.6"/>
<text xml:space="preserve" text-anchor="middle" x="443.62" y="-147.55" font-family="Times New Roman,serif" font-size="14.00">1,2</text>
</g>
<!-- (1, 1)&#45;&gt;(1, 2) -->
<g id="edge12" class="edge">
<title>(1, 1)&#45;&gt;(1, 2)</title>
<path fill="none" stroke="black" d="M365.84,-152.6C378.8,-152.6 395.78,-152.6 410.47,-152.6"/>
<polygon fill="black" stroke="black" points="410.13,-156.1 420.13,-152.6 410.13,-149.1 410.13,-156.1"/>
<text xml:space="preserve" text-anchor="middle" x="393.9" y="-155.8" font-family="Times New Roman,serif" font-size="14.00">uo2</text>
</g>
<!-- (1, 6)&#45;&gt;(1, 7) -->
<g id="edge13" class="edge">
<title>(1, 6)&#45;&gt;(1, 7)</title>
<path fill="none" stroke="cyan" d="M806.69,-198.27C790.45,-216.33 761.35,-242.6 729.47,-242.6 250.47,-242.6 250.47,-242.6 250.47,-242.6 207.62,-242.6 179.19,-195.3 164.61,-162.46"/>
<polygon fill="cyan" stroke="cyan" points="167.88,-161.22 160.78,-153.35 161.43,-163.93 167.88,-161.22"/>
<text xml:space="preserve" text-anchor="middle" x="493.35" y="-245.8" font-family="Times New Roman,serif" font-size="14.00" fill="cyan">uo3</text>
</g>
<!-- (1, 5) -->
<g id="node13" class="node">
<title>(1, 5)</title>
<ellipse fill="pink" stroke="black" cx="543.07" cy="-152.6" rx="21.6" ry="21.6"/>
<text xml:space="preserve" text-anchor="middle" x="543.07" y="-147.55" font-family="Times New Roman,serif" font-size="14.00">1,5</text>
</g>
<!-- (1, 2)&#45;&gt;(1, 5) -->
<g id="edge14" class="edge">
<title>(1, 2)&#45;&gt;(1, 5)</title>
<path fill="none" stroke="green" d="M465.29,-152.6C478.25,-152.6 495.23,-152.6 509.92,-152.6"/>
<polygon fill="green" stroke="green" points="509.58,-156.1 519.58,-152.6 509.58,-149.1 509.58,-156.1"/>
<text xml:space="preserve" text-anchor="middle" x="493.35" y="-155.8" font-family="Times New Roman,serif" font-size="14.00" fill="green">o1</text>
</g>
<!-- (1, 0) -->
<g id="node14" class="node">
<title>(1, 0)</title>
<ellipse fill="none" stroke="black" cx="635.77" cy="-181.6" rx="21.6" ry="21.6"/>
<text xml:space="preserve" text-anchor="middle" x="635.77" y="-176.55" font-family="Times New Roman,serif" font-size="14.00">1,0</text>
</g>
<!-- (1, 5)&#45;&gt;(1, 0) -->
<g id="edge15" class="edge">
<title>(1, 5)&#45;&gt;(1, 0)</title>
<path fill="none" stroke="blue" d="M564.2,-159.04C575.82,-162.75 590.69,-167.51 603.78,-171.69"/>
<polygon fill="blue" stroke="blue" points="602.66,-175.01 613.26,-174.72 604.8,-168.34 602.66,-175.01"/>
<text xml:space="preserve" text-anchor="middle" x="589.42" y="-172.04" font-family="Times New Roman,serif" font-size="14.00" fill="blue">o4</text>
</g>
<!-- (1, 0)&#45;&gt;(1, 1) -->
<g id="edge17" class="edge">
<title>(1, 0)&#45;&gt;(1, 1)</title>
<path fill="none" stroke="green" d="M614.43,-185.99C608.57,-187.07 602.14,-188.06 596.17,-188.6 590.19,-189.14 588.67,-188.69 582.67,-188.6 511.24,-187.49 492.72,-193.81 422.02,-183.6 404.63,-181.09 400.11,-180.07 383.77,-173.6 380.29,-172.22 376.74,-170.61 373.25,-168.89"/>
<polygon fill="green" stroke="green" points="375,-165.85 364.53,-164.28 371.74,-172.05 375,-165.85"/>
<text xml:space="preserve" text-anchor="middle" x="493.35" y="-192.73" font-family="Times New Roman,serif" font-size="14.00" fill="green">o1</text>
</g>
<!-- (1, 3) -->
<g id="node15" class="node">
<title>(1, 3)</title>
<ellipse fill="none" stroke="black" cx="728.47" cy="-181.6" rx="21.6" ry="21.6"/>
<text xml:space="preserve" text-anchor="middle" x="728.47" y="-176.55" font-family="Times New Roman,serif" font-size="14.00">1,3</text>
</g>
<!-- (1, 0)&#45;&gt;(1, 3) -->
<g id="edge16" class="edge">
<title>(1, 0)&#45;&gt;(1, 3)</title>
<path fill="none" stroke="red" d="M657.81,-181.6C668.91,-181.6 682.78,-181.6 695.21,-181.6"/>
<polygon fill="red" stroke="red" points="695.03,-185.1 705.03,-181.6 695.03,-178.1 695.03,-185.1"/>
<text xml:space="preserve" text-anchor="middle" x="682.12" y="-184.8" font-family="Times New Roman,serif" font-size="14.00" fill="red">o2</text>
</g>
<!-- (1, 3)&#45;&gt;(1, 6) -->
<g id="edge18" class="edge">
<title>(1, 3)&#45;&gt;(1, 6)</title>
<path fill="none" stroke="blue" d="M750.51,-181.6C761.61,-181.6 775.48,-181.6 787.91,-181.6"/>
<polygon fill="blue" stroke="blue" points="787.73,-185.1 797.73,-181.6 787.73,-178.1 787.73,-185.1"/>
<text xml:space="preserve" text-anchor="middle" x="774.82" y="-184.8" font-family="Times New Roman,serif" font-size="14.00" fill="blue">o4</text>
</g>
</g>
</svg>
