<?xml version="1.0" encoding="UTF-8" standalone="no"?>
<!DOCTYPE svg PUBLIC "-//W3C//DTD SVG 1.1//EN"
 "http://www.w3.org/Graphics/SVG/1.1/DTD/svg11.dtd">
<!-- Generated by graphviz version 14.1.1 (20251213.1925)
 -->
<!-- Pages: 1 -->
<svg width="1042pt" height="1195pt"
 viewBox="0.00 0.00 1042.00 1195.00" xmlns="http://www.w3.org/2000/svg" xmlns:xlink="http://www.w3.org/1999/xlink">
<g id="graph0" class="graph" transform="scale(1 1) rotate(0) translate(4 1190.7)">
<polygon fill="white" stroke="none" points="-4,4 -4,-1190.7 1038.09,-1190.7 1038.09,4 -4,4"/>
<!-- 0x4c7bce3c -->
<g id="node1" class="node">
<title>0x4c7bce3c</title>
<polygon fill="#eff6ff" stroke="#1d4ed8" points="179.75,-17.04 179.75,-31.96 158.22,-42.5 127.78,-42.5 106.25,-31.96 106.25,-17.04 127.78,-6.5 158.22,-6.5 179.75,-17.04"/>
<polygon fill="none" stroke="#1d4ed8" points="183.75,-14.55 183.75,-34.45 159.15,-46.5 126.85,-46.5 102.25,-34.45 102.25,-14.55 126.85,-2.5 159.15,-2.5 183.75,-14.55"/>
<text xml:space="preserve" text-anchor="start" x="126.12" y="-20.45" font-family="Times New Roman,serif" font-weight="bold" font-size="14.00">SCC2</text>
</g>
<!-- 0x9a274d05 -->
<g id="node2" class="node">
<title>0x9a274d05</title>
<text xml:space="preserve" text-anchor="start" x="977" y="-676.5" font-family="Times New Roman,serif" font-weight="bold" font-size="14.00">qe9</text>
<path fill="#f8f9fa" stroke="none" d="M983.5,-648.8C983.5,-648.8 1004.5,-648.8 1004.5,-648.8 1008.25,-648.8 1012,-652.55 1012,-656.3 1012,-656.3 1012,-663.8 1012,-663.8 1012,-667.55 1008.25,-671.3 1004.5,-671.3 1004.5,-671.3 983.5,-671.3 983.5,-671.3 979.75,-671.3 976,-667.55 976,-663.8 976,-663.8 976,-656.3 976,-656.3 976,-652.55 979.75,-648.8 983.5,-648.8"/>
<path fill="none" stroke="#333333" d="M983.5,-648.8C983.5,-648.8 1004.5,-648.8 1004.5,-648.8 1008.25,-648.8 1012,-652.55 1012,-656.3 1012,-656.3 1012,-663.8 1012,-663.8 1012,-667.55 1008.25,-671.3 1004.5,-671.3 1004.5,-671.3 983.5,-671.3 983.5,-671.3 979.75,-671.3 976,-667.55 976,-663.8 976,-663.8 976,-656.3 976,-656.3 976,-652.55 979.75,-648.8 983.5,-648.8"/>
<text xml:space="preserve" text-anchor="start" x="979" y="-656" font-family="Times New Roman,serif" font-weight="bold" font-size="14.00">{ye9}</text>
</g>
<!-- 0xeef08e82 -->
<g id="node3" class="node">
<title>0xeef08e82</title>
<text xml:space="preserve" text-anchor="start" x="673" y="-847" font-family="Times New Roman,serif" font-weight="bold" font-size="14.00">qe10</text>
<path fill="#f8f9fa" stroke="none" d="M679.5,-819.3C679.5,-819.3 940.5,-819.3 940.5,-819.3 944.25,-819.3 948,-823.05 948,-826.8 948,-826.8 948,-834.3 948,-834.3 948,-838.05 944.25,-841.8 940.5,-841.8 940.5,-841.8 679.5,-841.8 679.5,-841.8 675.75,-841.8 672,-838.05 672,-834.3 672,-834.3 672,-826.8 672,-826.8 672,-823.05 675.75,-819.3 679.5,-819.3"/>
<path fill="none" stroke="#333333" d="M679.5,-819.3C679.5,-819.3 940.5,-819.3 940.5,-819.3 944.25,-819.3 948,-823.05 948,-826.8 948,-826.8 948,-834.3 948,-834.3 948,-838.05 944.25,-841.8 940.5,-841.8 940.5,-841.8 679.5,-841.8 679.5,-841.8 675.75,-841.8 672,-838.05 672,-834.3 672,-834.3 672,-826.8 672,-826.8 672,-823.05 675.75,-819.3 679.5,-819.3"/>
<text xml:space="preserve" text-anchor="start" x="675" y="-826.5" font-family="Times New Roman,serif" font-weight="bold" font-size="14.00">{ye10,ye17,ye33,ye42,ye46,ye52,ye55,ye57,ye6}</text>
</g>
<!-- 0xab7c521d -->
<g id="node35" class="node">
<title>0xab7c521d</title>
<ellipse fill="white" stroke="black" cx="606" cy="-618.55" rx="3.6" ry="3.6"/>
</g>
<!-- 0xeef08e82&#45;&gt;0xab7c521d -->
<g id="edge32" class="edge">
<title>0xeef08e82:box&#45;&gt;0xab7c521d</title>
<path fill="none" stroke="black" d="M671,-830.55C662.7,-830.55 642.21,-770.65 639.5,-762.8 623.54,-716.57 612.71,-659.35 608.27,-633.45"/>
<polygon fill="black" stroke="black" points="611.76,-633.13 606.68,-623.83 604.86,-634.27 611.76,-633.13"/>
<text xml:space="preserve" text-anchor="start" x="639.5" y="-749.5" font-family="Times New Roman,serif" font-size="14.00">o2</text>
</g>
<!-- 0xa96f6147 -->
<g id="node36" class="node">
<title>0xa96f6147</title>
<ellipse fill="white" stroke="black" cx="785" cy="-754.55" rx="3.6" ry="3.6"/>
</g>
<!-- 0xeef08e82&#45;&gt;0xa96f6147 -->
<g id="edge34" class="edge">
<title>0xeef08e82:box&#45;&gt;0xa96f6147</title>
<path fill="none" stroke="black" d="M810,-818.3C810,-799.5 800.2,-779.64 792.87,-767.42"/>
<polygon fill="black" stroke="black" points="795.84,-765.57 787.46,-759.08 789.97,-769.38 795.84,-765.57"/>
<text xml:space="preserve" text-anchor="start" x="806.37" y="-784" font-family="Times New Roman,serif" font-size="14.00">o3</text>
</g>
<!-- 0xb6547a5a -->
<g id="node4" class="node">
<title>0xb6547a5a</title>
<text xml:space="preserve" text-anchor="start" x="330.62" y="-847" font-family="Times New Roman,serif" font-weight="bold" font-size="14.00">qe7</text>
<path fill="#f8f9fa" stroke="none" d="M337.12,-819.3C337.12,-819.3 364.88,-819.3 364.88,-819.3 368.62,-819.3 372.38,-823.05 372.38,-826.8 372.38,-826.8 372.38,-834.3 372.38,-834.3 372.38,-838.05 368.62,-841.8 364.88,-841.8 364.88,-841.8 337.12,-841.8 337.12,-841.8 333.38,-841.8 329.62,-838.05 329.62,-834.3 329.62,-834.3 329.62,-826.8 329.62,-826.8 329.62,-823.05 333.38,-819.3 337.12,-819.3"/>
<path fill="none" stroke="#333333" d="M337.12,-819.3C337.12,-819.3 364.88,-819.3 364.88,-819.3 368.62,-819.3 372.38,-823.05 372.38,-826.8 372.38,-826.8 372.38,-834.3 372.38,-834.3 372.38,-838.05 368.62,-841.8 364.88,-841.8 364.88,-841.8 337.12,-841.8 337.12,-841.8 333.38,-841.8 329.62,-838.05 329.62,-834.3 329.62,-834.3 329.62,-826.8 329.62,-826.8 329.62,-823.05 333.38,-819.3 337.12,-819.3"/>
<text xml:space="preserve" text-anchor="start" x="332.62" y="-826.5" font-family="Times New Roman,serif" font-weight="bold" font-size="14.00">{ye45}</text>
</g>
<!-- 0xbbba3e76 -->
<g id="node34" class="node">
<title>0xbbba3e76</title>
<ellipse fill="white" stroke="black" cx="435" cy="-720.05" rx="3.6" ry="3.6"/>
</g>
<!-- 0xb6547a5a&#45;&gt;0xbbba3e76 -->
<g id="edge30" class="edge">
<title>0xb6547a5a:box&#45;&gt;0xbbba3e76</title>
<path fill="none" stroke="black" d="M373.38,-830.55C378.86,-830.55 413.79,-762.92 428.49,-733.96"/>
<polygon fill="black" stroke="black" points="431.58,-735.61 432.96,-725.11 425.33,-732.46 431.58,-735.61"/>
<text xml:space="preserve" text-anchor="start" x="403.06" y="-784" font-family="Times New Roman,serif" font-size="14.00">o4</text>
</g>
<!-- 0x9a7effed -->
<g id="node5" class="node">
<title>0x9a7effed</title>
<polygon fill="#eff6ff" stroke="#1d4ed8" points="191.75,-339.44 191.75,-354.36 170.22,-364.9 139.78,-364.9 118.25,-354.36 118.25,-339.44 139.78,-328.9 170.22,-328.9 191.75,-339.44"/>
<polygon fill="none" stroke="#1d4ed8" points="195.75,-336.95 195.75,-356.85 171.15,-368.9 138.85,-368.9 114.25,-356.85 114.25,-336.95 138.85,-324.9 171.15,-324.9 195.75,-336.95"/>
<text xml:space="preserve" text-anchor="start" x="138.12" y="-342.85" font-family="Times New Roman,serif" font-weight="bold" font-size="14.00">SCC0</text>
</g>
<!-- 0x246285c0 -->
<g id="node45" class="node">
<title>0x246285c0</title>
<ellipse fill="white" stroke="black" cx="155" cy="-266.3" rx="3.6" ry="3.6"/>
</g>
<!-- 0x9a7effed&#45;&gt;0x246285c0 -->
<g id="edge53" class="edge">
<title>0x9a7effed&#45;&gt;0x246285c0</title>
<path fill="none" stroke="black" d="M155,-324.42C155,-310.72 155,-293.35 155,-281.39"/>
<polygon fill="black" stroke="black" points="158.5,-281.59 155,-271.59 151.5,-281.59 158.5,-281.59"/>
<text xml:space="preserve" text-anchor="start" x="155" y="-291.1" font-family="Times New Roman,serif" font-size="14.00">o2</text>
</g>
<!-- 0xe1f8ce4 -->
<g id="node6" class="node">
<title>0xe1f8ce4</title>
<text xml:space="preserve" text-anchor="start" x="466" y="-1008.2" font-family="Times New Roman,serif" font-weight="bold" font-size="14.00">qe3</text>
<path fill="#f8f9fa" stroke="none" d="M472.5,-980.5C472.5,-980.5 493.5,-980.5 493.5,-980.5 497.25,-980.5 501,-984.25 501,-988 501,-988 501,-995.5 501,-995.5 501,-999.25 497.25,-1003 493.5,-1003 493.5,-1003 472.5,-1003 472.5,-1003 468.75,-1003 465,-999.25 465,-995.5 465,-995.5 465,-988 465,-988 465,-984.25 468.75,-980.5 472.5,-980.5"/>
<path fill="none" stroke="#333333" d="M472.5,-980.5C472.5,-980.5 493.5,-980.5 493.5,-980.5 497.25,-980.5 501,-984.25 501,-988 501,-988 501,-995.5 501,-995.5 501,-999.25 497.25,-1003 493.5,-1003 493.5,-1003 472.5,-1003 472.5,-1003 468.75,-1003 465,-999.25 465,-995.5 465,-995.5 465,-988 465,-988 465,-984.25 468.75,-980.5 472.5,-980.5"/>
<text xml:space="preserve" text-anchor="start" x="468" y="-987.7" font-family="Times New Roman,serif" font-weight="bold" font-size="14.00">{ye3}</text>
</g>
<!-- 0x4faabf0d -->
<g id="node29" class="node">
<title>0x4faabf0d</title>
<ellipse fill="white" stroke="black" cx="528" cy="-920.4" rx="3.6" ry="3.6"/>
</g>
<!-- 0xe1f8ce4&#45;&gt;0x4faabf0d -->
<g id="edge19" class="edge">
<title>0xe1f8ce4:box&#45;&gt;0x4faabf0d</title>
<path fill="none" stroke="black" d="M483,-979.5C483,-957.97 502.55,-939.58 515.88,-929.54"/>
<polygon fill="black" stroke="black" points="517.58,-932.63 523.8,-924.06 513.59,-926.87 517.58,-932.63"/>
<text xml:space="preserve" text-anchor="start" x="501.47" y="-945.2" font-family="Times New Roman,serif" font-size="14.00">o4</text>
</g>
<!-- 0x2097b01e -->
<g id="node7" class="node">
<title>0x2097b01e</title>
<text xml:space="preserve" text-anchor="start" x="160.62" y="-192.9" font-family="Times New Roman,serif" font-weight="bold" font-size="14.00">qe27</text>
<path fill="#f8f9fa" stroke="none" d="M167.12,-165.2C167.12,-165.2 194.88,-165.2 194.88,-165.2 198.62,-165.2 202.38,-168.95 202.38,-172.7 202.38,-172.7 202.38,-180.2 202.38,-180.2 202.38,-183.95 198.62,-187.7 194.88,-187.7 194.88,-187.7 167.12,-187.7 167.12,-187.7 163.38,-187.7 159.62,-183.95 159.62,-180.2 159.62,-180.2 159.62,-172.7 159.62,-172.7 159.62,-168.95 163.38,-165.2 167.12,-165.2"/>
<path fill="none" stroke="#333333" d="M167.12,-165.2C167.12,-165.2 194.88,-165.2 194.88,-165.2 198.62,-165.2 202.38,-168.95 202.38,-172.7 202.38,-172.7 202.38,-180.2 202.38,-180.2 202.38,-183.95 198.62,-187.7 194.88,-187.7 194.88,-187.7 167.12,-187.7 167.12,-187.7 163.38,-187.7 159.62,-183.95 159.62,-180.2 159.62,-180.2 159.62,-172.7 159.62,-172.7 159.62,-168.95 163.38,-165.2 167.12,-165.2"/>
<text xml:space="preserve" text-anchor="start" x="162.62" y="-172.4" font-family="Times New Roman,serif" font-weight="bold" font-size="14.00">{ye77}</text>
</g>
<!-- 0xb60d57ef -->
<g id="node47" class="node">
<title>0xb60d57ef</title>
<ellipse fill="white" stroke="black" cx="159" cy="-105.1" rx="3.6" ry="3.6"/>
</g>
<!-- 0x2097b01e&#45;&gt;0xb60d57ef -->
<g id="edge58" class="edge">
<title>0x2097b01e:box&#45;&gt;0xb60d57ef</title>
<path fill="none" stroke="black" d="M181,-164.2C181,-147.41 172.86,-129.55 166.49,-118.14"/>
<polygon fill="black" stroke="black" points="169.69,-116.66 161.51,-109.93 163.7,-120.29 169.69,-116.66"/>
<text xml:space="preserve" text-anchor="start" x="177.31" y="-129.9" font-family="Times New Roman,serif" font-size="14.00">o4</text>
</g>
<!-- 0x98104f45 -->
<g id="node8" class="node">
<title>0x98104f45</title>
<text xml:space="preserve" text-anchor="start" x="168.38" y="-1008.2" font-family="Times New Roman,serif" font-weight="bold" font-size="14.00">qe1</text>
<path fill="#f8f9fa" stroke="none" d="M174.88,-980.5C174.88,-980.5 279.12,-980.5 279.12,-980.5 282.88,-980.5 286.62,-984.25 286.62,-988 286.62,-988 286.62,-995.5 286.62,-995.5 286.62,-999.25 282.88,-1003 279.12,-1003 279.12,-1003 174.88,-1003 174.88,-1003 171.12,-1003 167.38,-999.25 167.38,-995.5 167.38,-995.5 167.38,-988 167.38,-988 167.38,-984.25 171.12,-980.5 174.88,-980.5"/>
<path fill="none" stroke="#333333" d="M174.88,-980.5C174.88,-980.5 279.12,-980.5 279.12,-980.5 282.88,-980.5 286.62,-984.25 286.62,-988 286.62,-988 286.62,-995.5 286.62,-995.5 286.62,-999.25 282.88,-1003 279.12,-1003 279.12,-1003 174.88,-1003 174.88,-1003 171.12,-1003 167.38,-999.25 167.38,-995.5 167.38,-995.5 167.38,-988 167.38,-988 167.38,-984.25 171.12,-980.5 174.88,-980.5"/>
<text xml:space="preserve" text-anchor="start" x="170.38" y="-987.7" font-family="Times New Roman,serif" font-weight="bold" font-size="14.00">{ye1,ye19,ye37,ye8}</text>
</g>
<!-- 0x7bbf82dd -->
<g id="node26" class="node">
<title>0x7bbf82dd</title>
<ellipse fill="white" stroke="black" cx="359" cy="-920.4" rx="3.6" ry="3.6"/>
</g>
<!-- 0x98104f45&#45;&gt;0x7bbf82dd -->
<g id="edge10" class="edge">
<title>0x98104f45:box&#45;&gt;0x7bbf82dd</title>
<path fill="none" stroke="black" d="M287.62,-991.75C319.88,-991.75 342.85,-954.86 353.07,-934.5"/>
<polygon fill="black" stroke="black" points="356.24,-935.99 357.27,-925.44 349.89,-933.04 356.24,-935.99"/>
<text xml:space="preserve" text-anchor="start" x="348.99" y="-945.2" font-family="Times New Roman,serif" font-size="14.00">o2</text>
</g>
<!-- 0x5473996c -->
<g id="node27" class="node">
<title>0x5473996c</title>
<ellipse fill="white" stroke="black" cx="227" cy="-754.55" rx="3.6" ry="3.6"/>
</g>
<!-- 0x98104f45&#45;&gt;0x5473996c -->
<g id="edge14" class="edge">
<title>0x98104f45:box&#45;&gt;0x5473996c</title>
<path fill="none" stroke="black" d="M227,-979.5C227,-899.89 227,-804.37 227,-769.31"/>
<polygon fill="black" stroke="black" points="230.5,-769.73 227,-759.73 223.5,-769.73 230.5,-769.73"/>
<text xml:space="preserve" text-anchor="start" x="227" y="-885.5" font-family="Times New Roman,serif" font-size="14.00">o3</text>
</g>
<!-- 0x9578f1c6 -->
<g id="node9" class="node">
<title>0x9578f1c6</title>
<text xml:space="preserve" text-anchor="start" x="906.62" y="-515.3" font-family="Times New Roman,serif" font-weight="bold" font-size="14.00">qe19</text>
<path fill="#f0fdf4" stroke="none" d="M913.12,-487.6C913.12,-487.6 1000.88,-487.6 1000.88,-487.6 1004.62,-487.6 1008.38,-491.35 1008.38,-495.1 1008.38,-495.1 1008.38,-502.6 1008.38,-502.6 1008.38,-506.35 1004.62,-510.1 1000.88,-510.1 1000.88,-510.1 913.12,-510.1 913.12,-510.1 909.38,-510.1 905.62,-506.35 905.62,-502.6 905.62,-502.6 905.62,-495.1 905.62,-495.1 905.62,-491.35 909.38,-487.6 913.12,-487.6"/>
<path fill="none" stroke="#166534" d="M913.12,-487.6C913.12,-487.6 1000.88,-487.6 1000.88,-487.6 1004.62,-487.6 1008.38,-491.35 1008.38,-495.1 1008.38,-495.1 1008.38,-502.6 1008.38,-502.6 1008.38,-506.35 1004.62,-510.1 1000.88,-510.1 1000.88,-510.1 913.12,-510.1 913.12,-510.1 909.38,-510.1 905.62,-506.35 905.62,-502.6 905.62,-502.6 905.62,-495.1 905.62,-495.1 905.62,-491.35 909.38,-487.6 913.12,-487.6"/>
<text xml:space="preserve" text-anchor="start" x="908.62" y="-494.8" font-family="Times New Roman,serif" font-weight="bold" font-size="14.00">{ye27,ye60,ye68}</text>
</g>
<!-- 0x213baec1 -->
<g id="node10" class="node">
<title>0x213baec1</title>
<text xml:space="preserve" text-anchor="start" x="723.62" y="-676.5" font-family="Times New Roman,serif" font-weight="bold" font-size="14.00">qe13</text>
<path fill="#f8f9fa" stroke="none" d="M730.12,-648.8C730.12,-648.8 817.88,-648.8 817.88,-648.8 821.62,-648.8 825.38,-652.55 825.38,-656.3 825.38,-656.3 825.38,-663.8 825.38,-663.8 825.38,-667.55 821.62,-671.3 817.88,-671.3 817.88,-671.3 730.12,-671.3 730.12,-671.3 726.38,-671.3 722.62,-667.55 722.62,-663.8 722.62,-663.8 722.62,-656.3 722.62,-656.3 722.62,-652.55 726.38,-648.8 730.12,-648.8"/>
<path fill="none" stroke="#333333" d="M730.12,-648.8C730.12,-648.8 817.88,-648.8 817.88,-648.8 821.62,-648.8 825.38,-652.55 825.38,-656.3 825.38,-656.3 825.38,-663.8 825.38,-663.8 825.38,-667.55 821.62,-671.3 817.88,-671.3 817.88,-671.3 730.12,-671.3 730.12,-671.3 726.38,-671.3 722.62,-667.55 722.62,-663.8 722.62,-663.8 722.62,-656.3 722.62,-656.3 722.62,-652.55 726.38,-648.8 730.12,-648.8"/>
<text xml:space="preserve" text-anchor="start" x="725.62" y="-656" font-family="Times New Roman,serif" font-weight="bold" font-size="14.00">{ye15,ye50,ye56}</text>
</g>
<!-- 0xcba2790e -->
<g id="node39" class="node">
<title>0xcba2790e</title>
<ellipse fill="white" stroke="black" cx="914" cy="-588.7" rx="3.6" ry="3.6"/>
</g>
<!-- 0x213baec1&#45;&gt;0xcba2790e -->
<g id="edge41" class="edge">
<title>0x213baec1:box&#45;&gt;0xcba2790e</title>
<path fill="none" stroke="black" d="M826.38,-660.05C863.06,-660.05 893.13,-622.09 906.51,-601.94"/>
<polygon fill="black" stroke="black" points="909.36,-603.99 911.69,-593.66 903.42,-600.28 909.36,-603.99"/>
<text xml:space="preserve" text-anchor="start" x="900.54" y="-613.5" font-family="Times New Roman,serif" font-size="14.00">o2</text>
</g>
<!-- 0x8c231ced -->
<g id="node40" class="node">
<title>0x8c231ced</title>
<ellipse fill="white" stroke="black" cx="770" cy="-588.7" rx="3.6" ry="3.6"/>
</g>
<!-- 0x213baec1&#45;&gt;0x8c231ced -->
<g id="edge43" class="edge">
<title>0x213baec1:box&#45;&gt;0x8c231ced</title>
<path fill="none" stroke="black" d="M774,-647.8C774,-632.73 772.64,-615.51 771.51,-603.75"/>
<polygon fill="black" stroke="black" points="775,-603.44 770.47,-593.86 768.04,-604.18 775,-603.44"/>
<text xml:space="preserve" text-anchor="start" x="773.23" y="-613.5" font-family="Times New Roman,serif" font-size="14.00">o3</text>
</g>
<!-- 0x90139b95 -->
<g id="node11" class="node">
<title>0x90139b95</title>
<text xml:space="preserve" text-anchor="start" x="90.62" y="-192.9" font-family="Times New Roman,serif" font-weight="bold" font-size="14.00">qe26</text>
<path fill="#f8f9fa" stroke="none" d="M97.12,-165.2C97.12,-165.2 124.88,-165.2 124.88,-165.2 128.62,-165.2 132.38,-168.95 132.38,-172.7 132.38,-172.7 132.38,-180.2 132.38,-180.2 132.38,-183.95 128.62,-187.7 124.88,-187.7 124.88,-187.7 97.12,-187.7 97.12,-187.7 93.38,-187.7 89.62,-183.95 89.62,-180.2 89.62,-180.2 89.62,-172.7 89.62,-172.7 89.62,-168.95 93.38,-165.2 97.12,-165.2"/>
<path fill="none" stroke="#333333" d="M97.12,-165.2C97.12,-165.2 124.88,-165.2 124.88,-165.2 128.62,-165.2 132.38,-168.95 132.38,-172.7 132.38,-172.7 132.38,-180.2 132.38,-180.2 132.38,-183.95 128.62,-187.7 124.88,-187.7 124.88,-187.7 97.12,-187.7 97.12,-187.7 93.38,-187.7 89.62,-183.95 89.62,-180.2 89.62,-180.2 89.62,-172.7 89.62,-172.7 89.62,-168.95 93.38,-165.2 97.12,-165.2"/>
<text xml:space="preserve" text-anchor="start" x="92.62" y="-172.4" font-family="Times New Roman,serif" font-weight="bold" font-size="14.00">{ye83}</text>
</g>
<!-- 0xa48c861e -->
<g id="node46" class="node">
<title>0xa48c861e</title>
<ellipse fill="white" stroke="black" cx="122" cy="-105.1" rx="3.6" ry="3.6"/>
</g>
<!-- 0x90139b95&#45;&gt;0xa48c861e -->
<g id="edge56" class="edge">
<title>0x90139b95:box&#45;&gt;0xa48c861e</title>
<path fill="none" stroke="black" d="M111,-164.2C111,-148.73 114.81,-131.33 117.95,-119.65"/>
<polygon fill="black" stroke="black" points="121.27,-120.76 120.71,-110.18 114.55,-118.8 121.27,-120.76"/>
<text xml:space="preserve" text-anchor="start" x="115.84" y="-129.9" font-family="Times New Roman,serif" font-size="14.00">o4</text>
</g>
<!-- 0x499f5890 -->
<g id="node12" class="node">
<title>0x499f5890</title>
<text xml:space="preserve" text-anchor="start" x="267" y="-847" font-family="Times New Roman,serif" font-weight="bold" font-size="14.00">qe4</text>
<path fill="#f8f9fa" stroke="none" d="M273.5,-819.3C273.5,-819.3 294.5,-819.3 294.5,-819.3 298.25,-819.3 302,-823.05 302,-826.8 302,-826.8 302,-834.3 302,-834.3 302,-838.05 298.25,-841.8 294.5,-841.8 294.5,-841.8 273.5,-841.8 273.5,-841.8 269.75,-841.8 266,-838.05 266,-834.3 266,-834.3 266,-826.8 266,-826.8 266,-823.05 269.75,-819.3 273.5,-819.3"/>
<path fill="none" stroke="#333333" d="M273.5,-819.3C273.5,-819.3 294.5,-819.3 294.5,-819.3 298.25,-819.3 302,-823.05 302,-826.8 302,-826.8 302,-834.3 302,-834.3 302,-838.05 298.25,-841.8 294.5,-841.8 294.5,-841.8 273.5,-841.8 273.5,-841.8 269.75,-841.8 266,-838.05 266,-834.3 266,-834.3 266,-826.8 266,-826.8 266,-823.05 269.75,-819.3 273.5,-819.3"/>
<text xml:space="preserve" text-anchor="start" x="269" y="-826.5" font-family="Times New Roman,serif" font-weight="bold" font-size="14.00">{ye4}</text>
</g>
<!-- 0xbf4b4fc8 -->
<g id="node30" class="node">
<title>0xbf4b4fc8</title>
<ellipse fill="white" stroke="black" cx="284" cy="-754.55" rx="3.6" ry="3.6"/>
</g>
<!-- 0x499f5890&#45;&gt;0xbf4b4fc8 -->
<g id="edge21" class="edge">
<title>0x499f5890:box&#45;&gt;0xbf4b4fc8</title>
<path fill="none" stroke="black" d="M284,-818.3C284,-801.7 284,-782.63 284,-769.91"/>
<polygon fill="black" stroke="black" points="287.5,-769.94 284,-759.94 280.5,-769.94 287.5,-769.94"/>
<text xml:space="preserve" text-anchor="start" x="284" y="-784" font-family="Times New Roman,serif" font-size="14.00">o4</text>
</g>
<!-- 0x4bf68c25 -->
<g id="node13" class="node">
<title>0x4bf68c25</title>
<text xml:space="preserve" text-anchor="start" x="977" y="-847" font-family="Times New Roman,serif" font-weight="bold" font-size="14.00">qe2</text>
<path fill="#f8f9fa" stroke="none" d="M983.5,-819.3C983.5,-819.3 1004.5,-819.3 1004.5,-819.3 1008.25,-819.3 1012,-823.05 1012,-826.8 1012,-826.8 1012,-834.3 1012,-834.3 1012,-838.05 1008.25,-841.8 1004.5,-841.8 1004.5,-841.8 983.5,-841.8 983.5,-841.8 979.75,-841.8 976,-838.05 976,-834.3 976,-834.3 976,-826.8 976,-826.8 976,-823.05 979.75,-819.3 983.5,-819.3"/>
<path fill="none" stroke="#333333" d="M983.5,-819.3C983.5,-819.3 1004.5,-819.3 1004.5,-819.3 1008.25,-819.3 1012,-823.05 1012,-826.8 1012,-826.8 1012,-834.3 1012,-834.3 1012,-838.05 1008.25,-841.8 1004.5,-841.8 1004.5,-841.8 983.5,-841.8 983.5,-841.8 979.75,-841.8 976,-838.05 976,-834.3 976,-834.3 976,-826.8 976,-826.8 976,-823.05 979.75,-819.3 983.5,-819.3"/>
<text xml:space="preserve" text-anchor="start" x="979" y="-826.5" font-family="Times New Roman,serif" font-weight="bold" font-size="14.00">{ye2}</text>
</g>
<!-- 0x287d954b -->
<g id="node28" class="node">
<title>0x287d954b</title>
<ellipse fill="white" stroke="black" cx="994" cy="-754.55" rx="3.6" ry="3.6"/>
</g>
<!-- 0x4bf68c25&#45;&gt;0x287d954b -->
<g id="edge17" class="edge">
<title>0x4bf68c25:box&#45;&gt;0x287d954b</title>
<path fill="none" stroke="black" d="M994,-818.3C994,-801.7 994,-782.63 994,-769.91"/>
<polygon fill="black" stroke="black" points="997.5,-769.94 994,-759.94 990.5,-769.94 997.5,-769.94"/>
<text xml:space="preserve" text-anchor="start" x="994" y="-784" font-family="Times New Roman,serif" font-size="14.00">o4</text>
</g>
<!-- 0x71a97ac7 -->
<g id="node14" class="node">
<title>0x71a97ac7</title>
<text xml:space="preserve" text-anchor="start" x="478.62" y="-354.1" font-family="Times New Roman,serif" font-weight="bold" font-size="14.00">qe12</text>
<path fill="#f8f9fa" stroke="none" d="M485.12,-326.4C485.12,-326.4 722.88,-326.4 722.88,-326.4 726.62,-326.4 730.38,-330.15 730.38,-333.9 730.38,-333.9 730.38,-341.4 730.38,-341.4 730.38,-345.15 726.62,-348.9 722.88,-348.9 722.88,-348.9 485.12,-348.9 485.12,-348.9 481.38,-348.9 477.62,-345.15 477.62,-341.4 477.62,-341.4 477.62,-333.9 477.62,-333.9 477.62,-330.15 481.38,-326.4 485.12,-326.4"/>
<path fill="none" stroke="#333333" d="M485.12,-326.4C485.12,-326.4 722.88,-326.4 722.88,-326.4 726.62,-326.4 730.38,-330.15 730.38,-333.9 730.38,-333.9 730.38,-341.4 730.38,-341.4 730.38,-345.15 726.62,-348.9 722.88,-348.9 722.88,-348.9 485.12,-348.9 485.12,-348.9 481.38,-348.9 477.62,-345.15 477.62,-341.4 477.62,-341.4 477.62,-333.9 477.62,-333.9 477.62,-330.15 481.38,-326.4 485.12,-326.4"/>
<text xml:space="preserve" text-anchor="start" x="480.62" y="-333.6" font-family="Times New Roman,serif" font-weight="bold" font-size="14.00">{ye31,ye40,ye48,ye64,ye69,ye80,ye85,ye89}</text>
</g>
<!-- 0x856f7147 -->
<g id="node38" class="node">
<title>0x856f7147</title>
<ellipse fill="white" stroke="black" cx="555" cy="-266.3" rx="3.6" ry="3.6"/>
</g>
<!-- 0x71a97ac7&#45;&gt;0x856f7147 -->
<g id="edge39" class="edge">
<title>0x71a97ac7:box&#45;&gt;0x856f7147</title>
<path fill="none" stroke="black" d="M604,-325.4C604,-302.7 581.88,-284.28 567.36,-274.63"/>
<polygon fill="black" stroke="black" points="569.57,-271.87 559.21,-269.65 565.92,-277.85 569.57,-271.87"/>
<text xml:space="preserve" text-anchor="start" x="596.89" y="-291.1" font-family="Times New Roman,serif" font-size="14.00">o4</text>
</g>
<!-- 0x33726961 -->
<g id="node15" class="node">
<title>0x33726961</title>
<polygon fill="#eff6ff" stroke="#1d4ed8" points="532.75,-178.24 532.75,-193.16 511.22,-203.7 480.78,-203.7 459.25,-193.16 459.25,-178.24 480.78,-167.7 511.22,-167.7 532.75,-178.24"/>
<polygon fill="none" stroke="#1d4ed8" points="536.75,-175.75 536.75,-195.65 512.15,-207.7 479.85,-207.7 455.25,-195.65 455.25,-175.75 479.85,-163.7 512.15,-163.7 536.75,-175.75"/>
<text xml:space="preserve" text-anchor="start" x="479.12" y="-181.65" font-family="Times New Roman,serif" font-weight="bold" font-size="14.00">SCC1</text>
</g>
<!-- 0xe046615d -->
<g id="node42" class="node">
<title>0xe046615d</title>
<ellipse fill="white" stroke="black" cx="496" cy="-105.1" rx="3.6" ry="3.6"/>
</g>
<!-- 0x33726961&#45;&gt;0xe046615d -->
<g id="edge47" class="edge">
<title>0x33726961&#45;&gt;0xe046615d</title>
<path fill="none" stroke="black" d="M496,-163.22C496,-149.52 496,-132.15 496,-120.19"/>
<polygon fill="black" stroke="black" points="499.5,-120.39 496,-110.39 492.5,-120.39 499.5,-120.39"/>
<text xml:space="preserve" text-anchor="start" x="496" y="-129.9" font-family="Times New Roman,serif" font-size="14.00">o2</text>
</g>
<!-- 0x2a8c6619 -->
<g id="node16" class="node">
<title>0x2a8c6619</title>
<text xml:space="preserve" text-anchor="start" x="192.38" y="-676.5" font-family="Times New Roman,serif" font-weight="bold" font-size="14.00">qe11</text>
<path fill="#f8f9fa" stroke="none" d="M198.88,-648.8C198.88,-648.8 369.12,-648.8 369.12,-648.8 372.88,-648.8 376.62,-652.55 376.62,-656.3 376.62,-656.3 376.62,-663.8 376.62,-663.8 376.62,-667.55 372.88,-671.3 369.12,-671.3 369.12,-671.3 198.88,-671.3 198.88,-671.3 195.12,-671.3 191.38,-667.55 191.38,-663.8 191.38,-663.8 191.38,-656.3 191.38,-656.3 191.38,-652.55 195.12,-648.8 198.88,-648.8"/>
<path fill="none" stroke="#333333" d="M198.88,-648.8C198.88,-648.8 369.12,-648.8 369.12,-648.8 372.88,-648.8 376.62,-652.55 376.62,-656.3 376.62,-656.3 376.62,-663.8 376.62,-663.8 376.62,-667.55 372.88,-671.3 369.12,-671.3 369.12,-671.3 198.88,-671.3 198.88,-671.3 195.12,-671.3 191.38,-667.55 191.38,-663.8 191.38,-663.8 191.38,-656.3 191.38,-656.3 191.38,-652.55 195.12,-648.8 198.88,-648.8"/>
<text xml:space="preserve" text-anchor="start" x="194.38" y="-656" font-family="Times New Roman,serif" font-weight="bold" font-size="14.00">{ye11,ye18,ye36,ye44,ye54,ye7}</text>
</g>
<!-- 0x22b4896 -->
<g id="node37" class="node">
<title>0x22b4896</title>
<ellipse fill="white" stroke="black" cx="261" cy="-588.7" rx="3.6" ry="3.6"/>
</g>
<!-- 0x2a8c6619&#45;&gt;0x22b4896 -->
<g id="edge36" class="edge">
<title>0x2a8c6619:box&#45;&gt;0x22b4896</title>
<path fill="none" stroke="black" d="M284,-647.8C284,-630.91 275.49,-613.08 268.83,-601.69"/>
<polygon fill="black" stroke="black" points="271.94,-600.06 263.62,-593.5 266.03,-603.81 271.94,-600.06"/>
<text xml:space="preserve" text-anchor="start" x="280.14" y="-613.5" font-family="Times New Roman,serif" font-size="14.00">o2</text>
</g>
<!-- 0x76ade768 -->
<g id="node17" class="node">
<title>0x76ade768</title>
<text xml:space="preserve" text-anchor="start" x="171.75" y="-1169.4" font-family="Times New Roman,serif" font-weight="bold" font-size="14.00">qe0</text>
<path fill="#f8f9fa" stroke="none" d="M178.25,-1141.7C178.25,-1141.7 275.75,-1141.7 275.75,-1141.7 279.5,-1141.7 283.25,-1145.45 283.25,-1149.2 283.25,-1149.2 283.25,-1156.7 283.25,-1156.7 283.25,-1160.45 279.5,-1164.2 275.75,-1164.2 275.75,-1164.2 178.25,-1164.2 178.25,-1164.2 174.5,-1164.2 170.75,-1160.45 170.75,-1156.7 170.75,-1156.7 170.75,-1149.2 170.75,-1149.2 170.75,-1145.45 174.5,-1141.7 178.25,-1141.7"/>
<path fill="none" stroke="#333333" d="M178.25,-1141.7C178.25,-1141.7 275.75,-1141.7 275.75,-1141.7 279.5,-1141.7 283.25,-1145.45 283.25,-1149.2 283.25,-1149.2 283.25,-1156.7 283.25,-1156.7 283.25,-1160.45 279.5,-1164.2 275.75,-1164.2 275.75,-1164.2 178.25,-1164.2 178.25,-1164.2 174.5,-1164.2 170.75,-1160.45 170.75,-1156.7 170.75,-1156.7 170.75,-1149.2 170.75,-1149.2 170.75,-1145.45 174.5,-1141.7 178.25,-1141.7"/>
<text xml:space="preserve" text-anchor="start" x="173.75" y="-1148.9" font-family="Times New Roman,serif" font-weight="bold" font-size="14.00">{ye0,ye1,ye19,ye8}</text>
</g>
<!-- 0x93467dc5 -->
<g id="node23" class="node">
<title>0x93467dc5</title>
<ellipse fill="white" stroke="black" cx="227" cy="-1081.6" rx="3.6" ry="3.6"/>
</g>
<!-- 0x76ade768&#45;&gt;0x93467dc5 -->
<g id="edge1" class="edge">
<title>0x76ade768:box&#45;&gt;0x93467dc5</title>
<path fill="none" stroke="black" d="M227,-1140.7C227,-1125.66 227,-1108.44 227,-1096.67"/>
<polygon fill="black" stroke="black" points="230.5,-1096.78 227,-1086.78 223.5,-1096.78 230.5,-1096.78"/>
<text xml:space="preserve" text-anchor="start" x="227" y="-1106.4" font-family="Times New Roman,serif" font-size="14.00">o4</text>
</g>
<!-- 0x2a12bacc -->
<g id="node24" class="node">
<title>0x2a12bacc</title>
<ellipse fill="white" stroke="black" cx="371" cy="-1081.6" rx="3.6" ry="3.6"/>
</g>
<!-- 0x76ade768&#45;&gt;0x2a12bacc -->
<g id="edge3" class="edge">
<title>0x76ade768:box&#45;&gt;0x2a12bacc</title>
<path fill="none" stroke="black" d="M284.25,-1152.95C320.71,-1152.95 350.41,-1114.99 363.61,-1094.84"/>
<polygon fill="black" stroke="black" points="366.45,-1096.91 368.72,-1086.56 360.49,-1093.24 366.45,-1096.91"/>
<text xml:space="preserve" text-anchor="start" x="357.72" y="-1106.4" font-family="Times New Roman,serif" font-size="14.00">o2</text>
</g>
<!-- 0x265197b2 -->
<g id="node25" class="node">
<title>0x265197b2</title>
<ellipse fill="white" stroke="black" cx="142" cy="-920.4" rx="3.6" ry="3.6"/>
</g>
<!-- 0x76ade768&#45;&gt;0x265197b2 -->
<g id="edge7" class="edge">
<title>0x76ade768:box&#45;&gt;0x265197b2</title>
<path fill="none" stroke="black" d="M169.75,-1152.95C81.49,-1152.95 123.42,-985.05 137.82,-935.2"/>
<polygon fill="black" stroke="black" points="141.12,-936.36 140.64,-925.78 134.42,-934.35 141.12,-936.36"/>
<text xml:space="preserve" text-anchor="start" x="116.26" y="-1046.7" font-family="Times New Roman,serif" font-size="14.00">o3</text>
</g>
<!-- 0xc8ee8e08 -->
<g id="node18" class="node">
<title>0xc8ee8e08</title>
<text xml:space="preserve" text-anchor="start" x="180.62" y="-515.3" font-family="Times New Roman,serif" font-weight="bold" font-size="14.00">qe15</text>
<path fill="#f8f9fa" stroke="none" d="M187.12,-487.6C187.12,-487.6 334.88,-487.6 334.88,-487.6 338.62,-487.6 342.38,-491.35 342.38,-495.1 342.38,-495.1 342.38,-502.6 342.38,-502.6 342.38,-506.35 338.62,-510.1 334.88,-510.1 334.88,-510.1 187.12,-510.1 187.12,-510.1 183.38,-510.1 179.62,-506.35 179.62,-502.6 179.62,-502.6 179.62,-495.1 179.62,-495.1 179.62,-491.35 183.38,-487.6 187.12,-487.6"/>
<path fill="none" stroke="#333333" d="M187.12,-487.6C187.12,-487.6 334.88,-487.6 334.88,-487.6 338.62,-487.6 342.38,-491.35 342.38,-495.1 342.38,-495.1 342.38,-502.6 342.38,-502.6 342.38,-506.35 338.62,-510.1 334.88,-510.1 334.88,-510.1 187.12,-510.1 187.12,-510.1 183.38,-510.1 179.62,-506.35 179.62,-502.6 179.62,-502.6 179.62,-495.1 179.62,-495.1 179.62,-491.35 183.38,-487.6 187.12,-487.6"/>
<text xml:space="preserve" text-anchor="start" x="182.62" y="-494.8" font-family="Times New Roman,serif" font-weight="bold" font-size="14.00">{ye32,ye41,ye49,ye67,ye84}</text>
</g>
<!-- 0x7e49951e -->
<g id="node41" class="node">
<title>0x7e49951e</title>
<ellipse fill="white" stroke="black" cx="240" cy="-427.5" rx="3.6" ry="3.6"/>
</g>
<!-- 0xc8ee8e08&#45;&gt;0x7e49951e -->
<g id="edge45" class="edge">
<title>0xc8ee8e08:box&#45;&gt;0x7e49951e</title>
<path fill="none" stroke="black" d="M261,-486.6C261,-470.08 253.4,-452.41 247.34,-440.95"/>
<polygon fill="black" stroke="black" points="250.42,-439.28 242.4,-432.36 244.35,-442.77 250.42,-439.28"/>
<text xml:space="preserve" text-anchor="start" x="257.48" y="-452.3" font-family="Times New Roman,serif" font-size="14.00">o4</text>
</g>
<!-- 0x73ff5e9b -->
<g id="node19" class="node">
<title>0x73ff5e9b</title>
<text xml:space="preserve" text-anchor="start" x="460.62" y="-31.7" font-family="Times New Roman,serif" font-weight="bold" font-size="14.00">qe23</text>
<path fill="#f0fdf4" stroke="none" d="M467.12,-4C467.12,-4 524.88,-4 524.88,-4 528.62,-4 532.38,-7.75 532.38,-11.5 532.38,-11.5 532.38,-19 532.38,-19 532.38,-22.75 528.62,-26.5 524.88,-26.5 524.88,-26.5 467.12,-26.5 467.12,-26.5 463.38,-26.5 459.62,-22.75 459.62,-19 459.62,-19 459.62,-11.5 459.62,-11.5 459.62,-7.75 463.38,-4 467.12,-4"/>
<path fill="none" stroke="#166534" d="M467.12,-4C467.12,-4 524.88,-4 524.88,-4 528.62,-4 532.38,-7.75 532.38,-11.5 532.38,-11.5 532.38,-19 532.38,-19 532.38,-22.75 528.62,-26.5 524.88,-26.5 524.88,-26.5 467.12,-26.5 467.12,-26.5 463.38,-26.5 459.62,-22.75 459.62,-19 459.62,-19 459.62,-11.5 459.62,-11.5 459.62,-7.75 463.38,-4 467.12,-4"/>
<text xml:space="preserve" text-anchor="start" x="462.62" y="-11.2" font-family="Times New Roman,serif" font-weight="bold" font-size="14.00">{ye60,ye68}</text>
</g>
<!-- 0xcb70882a -->
<g id="node20" class="node">
<title>0xcb70882a</title>
<text xml:space="preserve" text-anchor="start" x="9" y="-676.5" font-family="Times New Roman,serif" font-weight="bold" font-size="14.00">qe6</text>
<path fill="#f8f9fa" stroke="none" d="M15.5,-648.8C15.5,-648.8 156.5,-648.8 156.5,-648.8 160.25,-648.8 164,-652.55 164,-656.3 164,-656.3 164,-663.8 164,-663.8 164,-667.55 160.25,-671.3 156.5,-671.3 156.5,-671.3 15.5,-671.3 15.5,-671.3 11.75,-671.3 8,-667.55 8,-663.8 8,-663.8 8,-656.3 8,-656.3 8,-652.55 11.75,-648.8 15.5,-648.8"/>
<path fill="none" stroke="#333333" d="M15.5,-648.8C15.5,-648.8 156.5,-648.8 156.5,-648.8 160.25,-648.8 164,-652.55 164,-656.3 164,-656.3 164,-663.8 164,-663.8 164,-667.55 160.25,-671.3 156.5,-671.3 156.5,-671.3 15.5,-671.3 15.5,-671.3 11.75,-671.3 8,-667.55 8,-663.8 8,-663.8 8,-656.3 8,-656.3 8,-652.55 11.75,-648.8 15.5,-648.8"/>
<text xml:space="preserve" text-anchor="start" x="11" y="-656" font-family="Times New Roman,serif" font-weight="bold" font-size="14.00">{ye18,ye36,ye44,ye54,ye7}</text>
</g>
<!-- 0x689a859b -->
<g id="node33" class="node">
<title>0x689a859b</title>
<ellipse fill="white" stroke="black" cx="125" cy="-588.7" rx="3.6" ry="3.6"/>
</g>
<!-- 0xcb70882a&#45;&gt;0x689a859b -->
<g id="edge27" class="edge">
<title>0xcb70882a:box&#45;&gt;0x689a859b</title>
<path fill="none" stroke="black" d="M86,-647.8C86,-627.71 102.28,-609.33 113.8,-598.83"/>
<polygon fill="black" stroke="black" points="115.87,-601.67 121.28,-592.56 111.37,-596.3 115.87,-601.67"/>
<text xml:space="preserve" text-anchor="start" x="102.01" y="-613.5" font-family="Times New Roman,serif" font-size="14.00">o2</text>
</g>
<!-- 0x3d32100b -->
<g id="node21" class="node">
<title>0x3d32100b</title>
<text xml:space="preserve" text-anchor="start" x="656.62" y="-515.3" font-family="Times New Roman,serif" font-weight="bold" font-size="14.00">qe20</text>
<path fill="#f8f9fa" stroke="none" d="M663.12,-487.6C663.12,-487.6 870.88,-487.6 870.88,-487.6 874.62,-487.6 878.38,-491.35 878.38,-495.1 878.38,-495.1 878.38,-502.6 878.38,-502.6 878.38,-506.35 874.62,-510.1 870.88,-510.1 870.88,-510.1 663.12,-510.1 663.12,-510.1 659.38,-510.1 655.62,-506.35 655.62,-502.6 655.62,-502.6 655.62,-495.1 655.62,-495.1 655.62,-491.35 659.38,-487.6 663.12,-487.6"/>
<path fill="none" stroke="#333333" d="M663.12,-487.6C663.12,-487.6 870.88,-487.6 870.88,-487.6 874.62,-487.6 878.38,-491.35 878.38,-495.1 878.38,-495.1 878.38,-502.6 878.38,-502.6 878.38,-506.35 874.62,-510.1 870.88,-510.1 870.88,-510.1 663.12,-510.1 663.12,-510.1 659.38,-510.1 655.62,-506.35 655.62,-502.6 655.62,-502.6 655.62,-495.1 655.62,-495.1 655.62,-491.35 659.38,-487.6 663.12,-487.6"/>
<text xml:space="preserve" text-anchor="start" x="658.62" y="-494.8" font-family="Times New Roman,serif" font-weight="bold" font-size="14.00">{ye17,ye33,ye42,ye46,ye52,ye55,ye57}</text>
</g>
<!-- 0x27dd1d77 -->
<g id="node43" class="node">
<title>0x27dd1d77</title>
<ellipse fill="white" stroke="black" cx="703" cy="-427.5" rx="3.6" ry="3.6"/>
</g>
<!-- 0x3d32100b&#45;&gt;0x27dd1d77 -->
<g id="edge49" class="edge">
<title>0x3d32100b:box&#45;&gt;0x27dd1d77</title>
<path fill="none" stroke="black" d="M767,-486.6C767,-470.87 750.32,-475.99 738.5,-465.6 729.22,-457.44 719.58,-447.23 712.69,-439.59"/>
<polygon fill="black" stroke="black" points="715.34,-437.31 706.11,-432.12 710.09,-441.94 715.34,-437.31"/>
<text xml:space="preserve" text-anchor="start" x="738.5" y="-452.3" font-family="Times New Roman,serif" font-size="14.00">o2</text>
</g>
<!-- 0x34ab0cfc -->
<g id="node44" class="node">
<title>0x34ab0cfc</title>
<ellipse fill="white" stroke="black" cx="763" cy="-397.65" rx="3.6" ry="3.6"/>
</g>
<!-- 0x3d32100b&#45;&gt;0x34ab0cfc -->
<g id="edge51" class="edge">
<title>0x3d32100b:box&#45;&gt;0x34ab0cfc</title>
<path fill="none" stroke="black" d="M767,-486.6C767,-460.7 765.25,-430.55 764.06,-413.13"/>
<polygon fill="black" stroke="black" points="767.56,-412.92 763.35,-403.2 760.57,-413.42 767.56,-412.92"/>
<text xml:space="preserve" text-anchor="start" x="766.64" y="-452.3" font-family="Times New Roman,serif" font-size="14.00">o3</text>
</g>
<!-- 0xde3dfc63 -->
<g id="node22" class="node">
<title>0xde3dfc63</title>
<text xml:space="preserve" text-anchor="start" x="400" y="-847" font-family="Times New Roman,serif" font-weight="bold" font-size="14.00">qe5</text>
<path fill="#f8f9fa" stroke="none" d="M406.5,-819.3C406.5,-819.3 637.5,-819.3 637.5,-819.3 641.25,-819.3 645,-823.05 645,-826.8 645,-826.8 645,-834.3 645,-834.3 645,-838.05 641.25,-841.8 637.5,-841.8 637.5,-841.8 406.5,-841.8 406.5,-841.8 402.75,-841.8 399,-838.05 399,-834.3 399,-834.3 399,-826.8 399,-826.8 399,-823.05 402.75,-819.3 406.5,-819.3"/>
<path fill="none" stroke="#333333" d="M406.5,-819.3C406.5,-819.3 637.5,-819.3 637.5,-819.3 641.25,-819.3 645,-823.05 645,-826.8 645,-826.8 645,-834.3 645,-834.3 645,-838.05 641.25,-841.8 637.5,-841.8 637.5,-841.8 406.5,-841.8 406.5,-841.8 402.75,-841.8 399,-838.05 399,-834.3 399,-834.3 399,-826.8 399,-826.8 399,-823.05 402.75,-819.3 406.5,-819.3"/>
<text xml:space="preserve" text-anchor="start" x="402" y="-826.5" font-family="Times New Roman,serif" font-weight="bold" font-size="14.00">{ye17,ye33,ye42,ye46,ye52,ye55,ye57,ye6}</text>
</g>
<!-- 0x2d14f31b -->
<g id="node31" class="node">
<title>0x2d14f31b</title>
<ellipse fill="white" stroke="black" cx="535" cy="-558.85" rx="3.6" ry="3.6"/>
</g>
<!-- 0xde3dfc63&#45;&gt;0x2d14f31b -->
<g id="edge23" class="edge">
<title>0xde3dfc63:box&#45;&gt;0x2d14f31b</title>
<path fill="none" stroke="black" d="M522,-818.3C522,-790.35 526,-783.5 526,-755.55 526,-755.55 526,-755.55 526,-617.55 526,-602.27 529.12,-584.98 531.69,-573.35"/>
<polygon fill="black" stroke="black" points="535.01,-574.49 533.94,-563.94 528.2,-572.85 535.01,-574.49"/>
<text xml:space="preserve" text-anchor="start" x="526" y="-715" font-family="Times New Roman,serif" font-size="14.00">o2</text>
</g>
<!-- 0x847d789e -->
<g id="node32" class="node">
<title>0x847d789e</title>
<ellipse fill="white" stroke="black" cx="662" cy="-754.55" rx="3.6" ry="3.6"/>
</g>
<!-- 0xde3dfc63&#45;&gt;0x847d789e -->
<g id="edge25" class="edge">
<title>0xde3dfc63:box&#45;&gt;0x847d789e</title>
<path fill="none" stroke="black" d="M646,-830.55C658.28,-830.55 661.17,-791.59 661.83,-769.83"/>
<polygon fill="black" stroke="black" points="665.33,-769.97 661.99,-759.91 658.33,-769.85 665.33,-769.97"/>
<text xml:space="preserve" text-anchor="start" x="661.28" y="-784" font-family="Times New Roman,serif" font-size="14.00">o3</text>
</g>
<!-- 0x93467dc5&#45;&gt;0x98104f45 -->
<g id="edge2" class="edge">
<title>0x93467dc5&#45;&gt;0x98104f45:box</title>
<path fill="none" stroke="#2563eb" stroke-dasharray="5,2" d="M230.09,-1079.29C241.38,-1074.31 280.46,-1055.32 294.62,-1025.5 303.21,-1007.44 308.66,-994.75 294.62,-980.5 286.63,-972.39 251.92,-967.36 235.57,-971.95"/>
<polygon fill="#2563eb" stroke="#2563eb" points="233.33,-969.26 228.14,-978.5 237.95,-974.52 233.33,-969.26"/>
<text xml:space="preserve" text-anchor="start" x="281.2" y="-1046.7" font-family="Times New Roman,serif" font-size="14.00">o4</text>
</g>
<!-- 0x2a12bacc&#45;&gt;0xe1f8ce4 -->
<g id="edge5" class="edge">
<title>0x2a12bacc&#45;&gt;0xe1f8ce4:box</title>
<path fill="none" stroke="#2563eb" stroke-dasharray="5,2" d="M372.09,-1078.04C378.01,-1064.58 407.6,-1002.34 452.57,-992.94"/>
<polygon fill="#2563eb" stroke="#2563eb" points="452.91,-996.42 462.49,-991.91 452.19,-989.46 452.91,-996.42"/>
<text xml:space="preserve" text-anchor="start" x="390.58" y="-1046.7" font-family="Times New Roman,serif" font-size="14.00">empty</text>
</g>
<!-- 0x2a12bacc&#45;&gt;0x499f5890 -->
<g id="edge6" class="edge">
<title>0x2a12bacc&#45;&gt;0x499f5890:box</title>
<path fill="none" stroke="#2563eb" stroke-dasharray="5,2" d="M369.79,-1078C363.89,-1065.25 337.94,-1007.97 324.5,-958.5 321.39,-947.03 318.59,-867.55 309.64,-839.96"/>
<polygon fill="#2563eb" stroke="#2563eb" points="312.5,-837.94 303.87,-831.79 306.78,-841.98 312.5,-837.94"/>
<text xml:space="preserve" text-anchor="start" x="324.5" y="-945.2" font-family="Times New Roman,serif" font-size="14.00">o3</text>
</g>
<!-- 0x2a12bacc&#45;&gt;0x4bf68c25 -->
<g id="edge4" class="edge">
<title>0x2a12bacc&#45;&gt;0x4bf68c25:box</title>
<path fill="none" stroke="#2563eb" stroke-dasharray="5,2" d="M374.27,-1079.53C406.59,-1068.92 671.67,-981.46 882,-898.8 918.04,-884.64 935.17,-892.21 962,-864.3 968.88,-857.15 966.09,-845.97 966.73,-838.46"/>
<polygon fill="#2563eb" stroke="#2563eb" points="969.1,-841.04 973.91,-831.6 964.26,-835.98 969.1,-841.04"/>
<text xml:space="preserve" text-anchor="start" x="764.44" y="-945.2" font-family="Times New Roman,serif" font-size="14.00">o2</text>
</g>
<!-- 0x265197b2&#45;&gt;0xcb70882a -->
<g id="edge9" class="edge">
<title>0x265197b2&#45;&gt;0xcb70882a:box</title>
<path fill="none" stroke="#2563eb" stroke-dasharray="5,2" d="M142.58,-916.49C147.51,-891.39 182.19,-711.53 171.85,-669.03"/>
<polygon fill="#2563eb" stroke="#2563eb" points="174.77,-667.08 165.92,-661.25 169.2,-671.33 174.77,-667.08"/>
<text xml:space="preserve" text-anchor="start" x="165.2" y="-784" font-family="Times New Roman,serif" font-size="14.00">o3</text>
</g>
<!-- 0x265197b2&#45;&gt;0xde3dfc63 -->
<g id="edge8" class="edge">
<title>0x265197b2&#45;&gt;0xde3dfc63:box</title>
<path fill="none" stroke="#2563eb" stroke-dasharray="5,2" d="M145.76,-919.2C169.51,-917.9 301.17,-910.45 408,-898.8 421.66,-897.31 643.98,-874.68 653,-864.3 659.56,-856.75 660.04,-826.4 653,-819.3 644.51,-810.74 560.24,-805.69 531.53,-812.47"/>
<polygon fill="#2563eb" stroke="#2563eb" points="530,-809.31 523.29,-817.51 533.65,-815.28 530,-809.31"/>
<text xml:space="preserve" text-anchor="start" x="549.7" y="-885.5" font-family="Times New Roman,serif" font-size="14.00">empty</text>
</g>
<!-- 0x7bbf82dd&#45;&gt;0xb6547a5a -->
<g id="edge12" class="edge">
<title>0x7bbf82dd&#45;&gt;0xb6547a5a:box</title>
<path fill="none" stroke="#2563eb" stroke-dasharray="5,2" d="M359.97,-916.84C364.19,-905.57 380.65,-860.11 379.58,-840.1"/>
<polygon fill="#2563eb" stroke="#2563eb" points="382.58,-838.3 374.2,-831.82 376.71,-842.11 382.58,-838.3"/>
<text xml:space="preserve" text-anchor="start" x="371.41" y="-885.5" font-family="Times New Roman,serif" font-size="14.00">empty</text>
</g>
<!-- 0x7bbf82dd&#45;&gt;0x499f5890 -->
<g id="edge13" class="edge">
<title>0x7bbf82dd&#45;&gt;0x499f5890:box</title>
<path fill="none" stroke="#2563eb" stroke-dasharray="5,2" d="M356.75,-917.06C349.85,-909.78 328.67,-886.69 316,-864.3 311.05,-855.56 313.49,-844.56 312.09,-837.54"/>
<polygon fill="#2563eb" stroke="#2563eb" points="314.26,-834.79 304.2,-831.47 309.99,-840.34 314.26,-834.79"/>
<text xml:space="preserve" text-anchor="start" x="339.98" y="-885.5" font-family="Times New Roman,serif" font-size="14.00">o3</text>
</g>
<!-- 0x7bbf82dd&#45;&gt;0x4bf68c25 -->
<g id="edge11" class="edge">
<title>0x7bbf82dd&#45;&gt;0x4bf68c25:box</title>
<path fill="none" stroke="#2563eb" stroke-dasharray="5,2" d="M362.79,-919.19C387.92,-917.79 533.07,-909.5 651,-898.8 685.63,-895.66 934.47,-885.53 962,-864.3 969.86,-858.24 966.84,-846.81 967.17,-838.94"/>
<polygon fill="#2563eb" stroke="#2563eb" points="969.7,-841.35 973.97,-831.66 964.58,-836.58 969.7,-841.35"/>
<text xml:space="preserve" text-anchor="start" x="866.54" y="-885.5" font-family="Times New Roman,serif" font-size="14.00">o2</text>
</g>
<!-- 0x5473996c&#45;&gt;0x33726961 -->
<g id="edge15" class="edge">
<title>0x5473996c&#45;&gt;0x33726961</title>
<path fill="none" stroke="#2563eb" stroke-dasharray="5,2" d="M230.58,-753.01C254.01,-749.46 384.48,-729.66 386,-728.3 405.93,-710.48 402,-697.04 402,-670.3 402,-670.3 402,-670.3 402,-265.3 402,-237.1 427.21,-217.03 451.51,-204.23"/>
<polygon fill="#2563eb" stroke="#2563eb" points="453,-207.4 460.44,-199.85 449.92,-201.11 453,-207.4"/>
<text xml:space="preserve" text-anchor="start" x="402" y="-452.3" font-family="Times New Roman,serif" font-size="14.00">empty</text>
</g>
<!-- 0x5473996c&#45;&gt;0xcb70882a -->
<g id="edge16" class="edge">
<title>0x5473996c&#45;&gt;0xcb70882a:box</title>
<path fill="none" stroke="#2563eb" stroke-dasharray="5,2" d="M224.85,-751.46C217.44,-744.16 192.58,-718.84 178,-693.8 172.94,-685.12 175.41,-674.1 174.04,-667.07"/>
<polygon fill="#2563eb" stroke="#2563eb" points="176.24,-664.34 166.2,-660.98 171.95,-669.87 176.24,-664.34"/>
<text xml:space="preserve" text-anchor="start" x="202.71" y="-715" font-family="Times New Roman,serif" font-size="14.00">o3</text>
</g>
<!-- 0x287d954b&#45;&gt;0x9a274d05 -->
<g id="edge18" class="edge">
<title>0x287d954b&#45;&gt;0x9a274d05:box</title>
<path fill="none" stroke="#2563eb" stroke-dasharray="5,2" d="M995.73,-750.85C1004.19,-737.44 1040.24,-677.98 1023.59,-663.32"/>
<polygon fill="#2563eb" stroke="#2563eb" points="1025.03,-660.1 1014.45,-660.5 1022.97,-666.79 1025.03,-660.1"/>
<text xml:space="preserve" text-anchor="start" x="1016.9" y="-715" font-family="Times New Roman,serif" font-size="14.00">o4</text>
</g>
<!-- 0x4faabf0d&#45;&gt;0xeef08e82 -->
<g id="edge20" class="edge">
<title>0x4faabf0d&#45;&gt;0xeef08e82:box</title>
<path fill="none" stroke="#2563eb" stroke-dasharray="5,2" d="M531.4,-918.98C547.93,-916.74 620.7,-904.83 659,-864.3 665.66,-857.25 662.75,-846.26 663.06,-838.75"/>
<polygon fill="#2563eb" stroke="#2563eb" points="665.5,-841.26 669.95,-831.64 660.48,-836.39 665.5,-841.26"/>
<text xml:space="preserve" text-anchor="start" x="635.32" y="-885.5" font-family="Times New Roman,serif" font-size="14.00">o4</text>
</g>
<!-- 0xbf4b4fc8&#45;&gt;0x2a8c6619 -->
<g id="edge22" class="edge">
<title>0xbf4b4fc8&#45;&gt;0x2a8c6619:box</title>
<path fill="none" stroke="#2563eb" stroke-dasharray="5,2" d="M287.67,-752.74C303.03,-749.15 362.31,-733 384.62,-693.8 394.52,-676.42 398.7,-663.01 384.62,-648.8 378.36,-642.47 318.18,-638.49 293.99,-642.8"/>
<polygon fill="#2563eb" stroke="#2563eb" points="292.73,-639.52 285.35,-647.12 295.86,-645.77 292.73,-639.52"/>
<text xml:space="preserve" text-anchor="start" x="370.15" y="-715" font-family="Times New Roman,serif" font-size="14.00">o4</text>
</g>
<!-- 0x2d14f31b&#45;&gt;0x71a97ac7 -->
<g id="edge24" class="edge">
<title>0x2d14f31b&#45;&gt;0x71a97ac7:box</title>
<path fill="none" stroke="#2563eb" stroke-dasharray="5,2" d="M533.64,-555.07C522.44,-532.06 446.55,-373.55 466.56,-342.81"/>
<polygon fill="#2563eb" stroke="#2563eb" points="467.97,-346.01 475.28,-338.34 464.78,-339.78 467.97,-346.01"/>
<text xml:space="preserve" text-anchor="start" x="492.67" y="-452.3" font-family="Times New Roman,serif" font-size="14.00">empty</text>
</g>
<!-- 0x847d789e&#45;&gt;0x213baec1 -->
<g id="edge26" class="edge">
<title>0x847d789e&#45;&gt;0x213baec1:box</title>
<path fill="none" stroke="#2563eb" stroke-dasharray="5,2" d="M662.35,-750.85C664.31,-736.9 675.12,-673.13 710.44,-661.78"/>
<polygon fill="#2563eb" stroke="#2563eb" points="710.78,-665.27 720.13,-660.28 709.71,-658.35 710.78,-665.27"/>
<text xml:space="preserve" text-anchor="start" x="671.35" y="-715" font-family="Times New Roman,serif" font-size="14.00">empty</text>
</g>
<!-- 0x689a859b&#45;&gt;0x9a7effed -->
<g id="edge28" class="edge">
<title>0x689a859b&#45;&gt;0x9a7effed</title>
<path fill="none" stroke="#2563eb" stroke-dasharray="5,2" d="M124.82,-584.65C123.98,-569.74 120.87,-502.96 128.5,-449.1 131.82,-425.65 138.63,-399.83 144.52,-380.14"/>
<polygon fill="#2563eb" stroke="#2563eb" points="147.81,-381.35 147.4,-370.77 141.12,-379.3 147.81,-381.35"/>
<text xml:space="preserve" text-anchor="start" x="128.5" y="-452.3" font-family="Times New Roman,serif" font-size="14.00">o2</text>
</g>
<!-- 0x689a859b&#45;&gt;0xc8ee8e08 -->
<g id="edge29" class="edge">
<title>0x689a859b&#45;&gt;0xc8ee8e08:box</title>
<path fill="none" stroke="#2563eb" stroke-dasharray="5,2" d="M126.23,-585.14C131.84,-573.47 155.42,-525.16 169.91,-506.37"/>
<polygon fill="#2563eb" stroke="#2563eb" points="172.2,-509.02 177.48,-499.84 167.62,-503.72 172.2,-509.02"/>
<text xml:space="preserve" text-anchor="start" x="143.26" y="-553.8" font-family="Times New Roman,serif" font-size="14.00">empty</text>
</g>
<!-- 0xbbba3e76&#45;&gt;0x33726961 -->
<g id="edge31" class="edge">
<title>0xbbba3e76&#45;&gt;0x33726961</title>
<path fill="none" stroke="#2563eb" stroke-dasharray="5,2" d="M435.87,-716.31C439.46,-704.73 453,-658.52 453,-619.55 453,-619.55 453,-619.55 453,-265.3 453,-247.61 461.49,-230.12 470.92,-216.15"/>
<polygon fill="#2563eb" stroke="#2563eb" points="473.58,-218.45 476.62,-208.3 467.92,-214.33 473.58,-218.45"/>
<text xml:space="preserve" text-anchor="start" x="453" y="-452.3" font-family="Times New Roman,serif" font-size="14.00">o4</text>
</g>
<!-- 0xab7c521d&#45;&gt;0x71a97ac7 -->
<g id="edge33" class="edge">
<title>0xab7c521d&#45;&gt;0x71a97ac7:box</title>
<path fill="none" stroke="#2563eb" stroke-dasharray="5,2" d="M605.69,-614.91C604.74,-606.74 602,-581.14 602,-559.85 602,-559.85 602,-559.85 602,-426.5 602,-393.81 720.1,-398.5 738.38,-371.4 741.17,-367.25 741.9,-329.95 738.38,-326.4 729.66,-317.62 643.23,-312.46 613.77,-319.42"/>
<polygon fill="#2563eb" stroke="#2563eb" points="611.99,-316.41 605.29,-324.61 615.65,-322.38 611.99,-316.41"/>
<text xml:space="preserve" text-anchor="start" x="602" y="-503.05" font-family="Times New Roman,serif" font-size="14.00">empty</text>
</g>
<!-- 0xa96f6147&#45;&gt;0x213baec1 -->
<g id="edge35" class="edge">
<title>0xa96f6147&#45;&gt;0x213baec1:box</title>
<path fill="none" stroke="#2563eb" stroke-dasharray="5,2" d="M787.4,-751.54C800.89,-740.03 865.68,-681.65 833.38,-648.8 826.58,-641.89 797.74,-637.47 782.9,-640.84"/>
<polygon fill="#2563eb" stroke="#2563eb" points="780.92,-637.95 775.19,-646.87 785.23,-643.47 780.92,-637.95"/>
<text xml:space="preserve" text-anchor="start" x="824.31" y="-715" font-family="Times New Roman,serif" font-size="14.00">empty</text>
</g>
<!-- 0x22b4896&#45;&gt;0x9a7effed -->
<g id="edge37" class="edge">
<title>0x22b4896&#45;&gt;0x9a7effed</title>
<path fill="none" stroke="#2563eb" stroke-dasharray="5,2" d="M257.45,-587.5C241.58,-586.51 177.34,-581.67 165,-567.1 141.89,-539.8 147.3,-434.59 151.83,-380.47"/>
<polygon fill="#2563eb" stroke="#2563eb" points="155.31,-380.9 152.7,-370.63 148.33,-380.29 155.31,-380.9"/>
<text xml:space="preserve" text-anchor="start" x="148.01" y="-452.3" font-family="Times New Roman,serif" font-size="14.00">o2</text>
</g>
<!-- 0x22b4896&#45;&gt;0xc8ee8e08 -->
<g id="edge38" class="edge">
<title>0x22b4896&#45;&gt;0xc8ee8e08:box</title>
<path fill="none" stroke="#2563eb" stroke-dasharray="5,2" d="M264.27,-586.91C277.92,-583.42 330.65,-567.93 350.38,-532.6 360.12,-515.14 364.44,-501.82 350.38,-487.6 344.92,-482.08 293.44,-478.51 271.18,-481.95"/>
<polygon fill="#2563eb" stroke="#2563eb" points="270.02,-478.63 262.38,-485.97 272.93,-485 270.02,-478.63"/>
<text xml:space="preserve" text-anchor="start" x="335.86" y="-553.8" font-family="Times New Roman,serif" font-size="14.00">empty</text>
</g>
<!-- 0x856f7147&#45;&gt;0x33726961 -->
<g id="edge40" class="edge">
<title>0x856f7147&#45;&gt;0x33726961</title>
<path fill="none" stroke="#2563eb" stroke-dasharray="5,2" d="M553.3,-263.03C548.21,-256.26 532.65,-235.52 519.02,-217.37"/>
<polygon fill="#2563eb" stroke="#2563eb" points="521.85,-215.3 513.05,-209.41 516.25,-219.51 521.85,-215.3"/>
<text xml:space="preserve" text-anchor="start" x="539.18" y="-231.4" font-family="Times New Roman,serif" font-size="14.00">o4</text>
</g>
<!-- 0xcba2790e&#45;&gt;0x9578f1c6 -->
<g id="edge42" class="edge">
<title>0xcba2790e&#45;&gt;0x9578f1c6:box</title>
<path fill="none" stroke="#2563eb" stroke-dasharray="5,2" d="M917.72,-587.08C933.28,-584.25 993.39,-571.07 1016.38,-532.6 1026.63,-515.43 1030.4,-501.86 1016.38,-487.6 1009.58,-480.69 980.74,-476.27 965.9,-479.64"/>
<polygon fill="#2563eb" stroke="#2563eb" points="963.92,-476.75 958.19,-485.67 968.23,-482.27 963.92,-476.75"/>
<text xml:space="preserve" text-anchor="start" x="999.59" y="-553.8" font-family="Times New Roman,serif" font-size="14.00">empty</text>
</g>
<!-- 0x8c231ced&#45;&gt;0x3d32100b -->
<g id="edge44" class="edge">
<title>0x8c231ced&#45;&gt;0x3d32100b:box</title>
<path fill="none" stroke="#2563eb" stroke-dasharray="5,2" d="M773.75,-587.32C790.58,-585.36 859.59,-574.91 886.38,-532.6 891.72,-524.15 893.42,-494.7 886.38,-487.6 878.75,-479.91 804.01,-475.27 776.82,-481.04"/>
<polygon fill="#2563eb" stroke="#2563eb" points="775.3,-477.88 768.32,-485.85 778.74,-483.98 775.3,-477.88"/>
<text xml:space="preserve" text-anchor="start" x="869.35" y="-553.8" font-family="Times New Roman,serif" font-size="14.00">empty</text>
</g>
<!-- 0x7e49951e&#45;&gt;0x9a7effed -->
<g id="edge46" class="edge">
<title>0x7e49951e&#45;&gt;0x9a7effed</title>
<path fill="none" stroke="#2563eb" stroke-dasharray="5,2" d="M237.55,-424.23C229.69,-416.96 204.44,-393.62 183.91,-374.64"/>
<polygon fill="#2563eb" stroke="#2563eb" points="186.3,-372.08 176.58,-367.86 181.55,-377.22 186.3,-372.08"/>
<text xml:space="preserve" text-anchor="start" x="217.2" y="-392.6" font-family="Times New Roman,serif" font-size="14.00">o4</text>
</g>
<!-- 0xe046615d&#45;&gt;0x73ff5e9b -->
<g id="edge48" class="edge">
<title>0xe046615d&#45;&gt;0x73ff5e9b:box</title>
<path fill="none" stroke="#2563eb" stroke-dasharray="5,2" d="M497.95,-101.9C508.27,-90.15 555.69,-34.6 544.18,-19.21"/>
<polygon fill="#2563eb" stroke="#2563eb" points="545.39,-15.93 534.8,-15.77 542.98,-22.5 545.39,-15.93"/>
<text xml:space="preserve" text-anchor="start" x="525.27" y="-70.2" font-family="Times New Roman,serif" font-size="14.00">empty</text>
</g>
<!-- 0x27dd1d77&#45;&gt;0x71a97ac7 -->
<g id="edge50" class="edge">
<title>0x27dd1d77&#45;&gt;0x71a97ac7:box</title>
<path fill="none" stroke="#2563eb" stroke-dasharray="5,2" d="M704.09,-423.75C706.58,-417.51 712.98,-401.9 719.5,-389.4 723.82,-381.11 727.73,-380.37 730.38,-371.4 732.79,-363.19 737.66,-353.37 738.61,-346.44"/>
<polygon fill="#2563eb" stroke="#2563eb" points="741.39,-344.32 732.34,-338.82 735.99,-348.76 741.39,-344.32"/>
<text xml:space="preserve" text-anchor="start" x="719.5" y="-392.6" font-family="Times New Roman,serif" font-size="14.00">empty</text>
</g>
<!-- 0x34ab0cfc&#45;&gt;0x33726961 -->
<g id="edge52" class="edge">
<title>0x34ab0cfc&#45;&gt;0x33726961</title>
<path fill="none" stroke="#2563eb" stroke-dasharray="5,2" d="M763.04,-393.74C763.06,-383.04 761.79,-345.31 744,-322.4 693.34,-257.17 602.12,-219.06 545.55,-200.6"/>
<polygon fill="#2563eb" stroke="#2563eb" points="546.76,-197.31 536.17,-197.63 544.64,-203.99 546.76,-197.31"/>
<text xml:space="preserve" text-anchor="start" x="728.22" y="-291.1" font-family="Times New Roman,serif" font-size="14.00">empty</text>
</g>
<!-- 0x246285c0&#45;&gt;0x2097b01e -->
<g id="edge55" class="edge">
<title>0x246285c0&#45;&gt;0x2097b01e:box</title>
<path fill="none" stroke="#2563eb" stroke-dasharray="5,2" d="M155.15,-262.37C155.36,-258.37 155.73,-251 156,-244.7 156.06,-243.3 156.43,-206.77 157.38,-187.74"/>
<polygon fill="#2563eb" stroke="#2563eb" points="160.84,-188.28 158.46,-177.95 153.88,-187.51 160.84,-188.28"/>
<text xml:space="preserve" text-anchor="start" x="156.24" y="-231.4" font-family="Times New Roman,serif" font-size="14.00">o2</text>
</g>
<!-- 0x246285c0&#45;&gt;0x90139b95 -->
<g id="edge54" class="edge">
<title>0x246285c0&#45;&gt;0x90139b95:box</title>
<path fill="none" stroke="#2563eb" stroke-dasharray="5,2" d="M151.67,-264.55C144.28,-262.68 126.61,-257.05 119.5,-244.7 115.84,-238.35 117.26,-235.18 119.5,-228.2 122.5,-218.83 129.23,-219.52 132.38,-210.2 135.15,-201.98 140.06,-191.98 140.82,-185.01"/>
<polygon fill="#2563eb" stroke="#2563eb" points="143.57,-182.84 134.37,-177.59 138.29,-187.44 143.57,-182.84"/>
<text xml:space="preserve" text-anchor="start" x="119.5" y="-231.4" font-family="Times New Roman,serif" font-size="14.00">empty</text>
</g>
<!-- 0xa48c861e&#45;&gt;0x4c7bce3c -->
<g id="edge57" class="edge">
<title>0xa48c861e&#45;&gt;0x4c7bce3c</title>
<path fill="none" stroke="#2563eb" stroke-dasharray="5,2" d="M122.8,-101.11C124.73,-93.89 129.83,-74.8 134.42,-57.61"/>
<polygon fill="#2563eb" stroke="#2563eb" points="137.74,-58.76 136.94,-48.19 130.97,-56.95 137.74,-58.76"/>
<text xml:space="preserve" text-anchor="start" x="131.87" y="-70.2" font-family="Times New Roman,serif" font-size="14.00">o4</text>
</g>
<!-- 0xb60d57ef&#45;&gt;0x4c7bce3c -->
<g id="edge59" class="edge">
<title>0xb60d57ef&#45;&gt;0x4c7bce3c</title>
<path fill="none" stroke="#2563eb" stroke-dasharray="5,2" d="M158.39,-101.11C156.92,-93.89 153.04,-74.8 149.54,-57.61"/>
<polygon fill="#2563eb" stroke="#2563eb" points="153.05,-57.31 147.62,-48.21 146.19,-58.71 153.05,-57.31"/>
<text xml:space="preserve" text-anchor="start" x="154.71" y="-70.2" font-family="Times New Roman,serif" font-size="14.00">o4</text>
</g>
</g>
</svg>
