<?xml version="1.0" encoding="UTF-8" standalone="no"?>
<!DOCTYPE svg PUBLIC "-//W3C//DTD SVG 1.1//EN"
 "http://www.w3.org/Graphics/SVG/1.1/DTD/svg11.dtd">
<!-- Generated by graphviz version 14.1.1 (20251213.1925)
 -->
<!-- Pages: 1 -->
<svg width="978pt" height="1020pt"
 viewBox="0.00 0.00 978.00 1020.00" xmlns="http://www.w3.org/2000/svg" xmlns:xlink="http://www.w3.org/1999/xlink">
<g id="graph0" class="graph" transform="scale(1 1) rotate(0) translate(4 1016.3)">
<polygon fill="white" stroke="none" points="-4,4 -4,-1016.3 973.62,-1016.3 973.62,4 -4,4"/>
<!-- 0x46ac07f4 -->
<g id="node1" class="node">
<title>0x46ac07f4</title>
<text xml:space="preserve" text-anchor="start" x="436.38" y="-1001.9" font-family="Times New Roman,serif" font-weight="bold" font-size="12.00">ye0</text>
<path fill="#f8f9fa" stroke="none" d="M415.83,-971.55C415.83,-971.55 474.17,-971.55 474.17,-971.55 478.58,-971.55 483,-975.97 483,-980.38 483,-980.38 483,-989.22 483,-989.22 483,-993.63 478.58,-998.05 474.17,-998.05 474.17,-998.05 415.83,-998.05 415.83,-998.05 411.42,-998.05 407,-993.63 407,-989.22 407,-989.22 407,-980.38 407,-980.38 407,-975.97 411.42,-971.55 415.83,-971.55"/>
<path fill="none" stroke="#333333" d="M415.83,-971.55C415.83,-971.55 474.17,-971.55 474.17,-971.55 478.58,-971.55 483,-975.97 483,-980.38 483,-980.38 483,-989.22 483,-989.22 483,-993.63 478.58,-998.05 474.17,-998.05 474.17,-998.05 415.83,-998.05 415.83,-998.05 411.42,-998.05 407,-993.63 407,-989.22 407,-989.22 407,-980.38 407,-980.38 407,-975.97 411.42,-971.55 415.83,-971.55"/>
<text xml:space="preserve" text-anchor="start" x="412" y="-980.75" font-family="Times New Roman,serif" font-weight="bold" font-size="14.00">S1, A7, 0, 0</text>
</g>
<!-- 0xab6daea7 -->
<g id="node3" class="node">
<title>0xab6daea7</title>
<ellipse fill="white" stroke="black" stroke-width="0.8" cx="325" cy="-916.95" rx="3.6" ry="3.6"/>
</g>
<!-- 0x46ac07f4&#45;&gt;0xab6daea7 -->
<g id="edge1" class="edge">
<title>0x46ac07f4:box&#45;&gt;0xab6daea7</title>
<path fill="none" stroke="#444444" d="M406,-984.8C369.94,-984.8 341.26,-944.91 330.07,-926.76"/>
<polygon fill="#444444" stroke="#444444" points="332,-925.9 327.15,-921.79 328.38,-928.03 332,-925.9"/>
<text xml:space="preserve" text-anchor="start" x="349.75" y="-942.2" font-family="Times New Roman,serif" font-weight="bold" font-size="13.00"> o1 </text>
</g>
<!-- 0x9d83b142 -->
<g id="node7" class="node">
<title>0x9d83b142</title>
<ellipse fill="white" stroke="black" stroke-width="0.8" cx="445" cy="-916.95" rx="3.6" ry="3.6"/>
</g>
<!-- 0x46ac07f4&#45;&gt;0x9d83b142 -->
<g id="edge3" class="edge">
<title>0x46ac07f4:box&#45;&gt;0x9d83b142</title>
<path fill="none" stroke="#444444" d="M445,-971.55C445,-956.43 445,-938.91 445,-928.13"/>
<polygon fill="#444444" stroke="#444444" points="447.1,-928.37 445,-922.37 442.9,-928.37 447.1,-928.37"/>
<text xml:space="preserve" text-anchor="start" x="445" y="-942.2" font-family="Times New Roman,serif" font-weight="bold" font-size="13.00"> o2 </text>
</g>
<!-- 0xfe85673f -->
<g id="node11" class="node">
<title>0xfe85673f</title>
<ellipse fill="white" stroke="black" stroke-width="0.8" cx="615" cy="-617.05" rx="3.6" ry="3.6"/>
</g>
<!-- 0x46ac07f4&#45;&gt;0xfe85673f -->
<g id="edge7" class="edge">
<title>0x46ac07f4:box&#45;&gt;0xfe85673f</title>
<path fill="none" stroke="#444444" d="M484,-984.8C549.36,-984.8 615,-983.31 615,-917.95 615,-917.95 615,-917.95 615,-691.03 615,-668.58 615,-642.24 615,-628.16"/>
<polygon fill="#444444" stroke="#444444" points="617.1,-628.35 615,-622.35 612.9,-628.35 617.1,-628.35"/>
<text xml:space="preserve" text-anchor="start" x="615" y="-792.25" font-family="Times New Roman,serif" font-weight="bold" font-size="13.00"> o3 </text>
</g>
<!-- 0x8e7109f3 -->
<g id="node2" class="node">
<title>0x8e7109f3</title>
<text xml:space="preserve" text-anchor="start" x="240.38" y="-851.95" font-family="Times New Roman,serif" font-weight="bold" font-size="12.00">ye1</text>
<path fill="#f8f9fa" stroke="none" d="M219.83,-821.6C219.83,-821.6 278.17,-821.6 278.17,-821.6 282.58,-821.6 287,-826.02 287,-830.43 287,-830.43 287,-839.27 287,-839.27 287,-843.68 282.58,-848.1 278.17,-848.1 278.17,-848.1 219.83,-848.1 219.83,-848.1 215.42,-848.1 211,-843.68 211,-839.27 211,-839.27 211,-830.43 211,-830.43 211,-826.02 215.42,-821.6 219.83,-821.6"/>
<path fill="none" stroke="#333333" d="M219.83,-821.6C219.83,-821.6 278.17,-821.6 278.17,-821.6 282.58,-821.6 287,-826.02 287,-830.43 287,-830.43 287,-839.27 287,-839.27 287,-843.68 282.58,-848.1 278.17,-848.1 278.17,-848.1 219.83,-848.1 219.83,-848.1 215.42,-848.1 211,-843.68 211,-839.27 211,-839.27 211,-830.43 211,-830.43 211,-826.02 215.42,-821.6 219.83,-821.6"/>
<text xml:space="preserve" text-anchor="start" x="216" y="-830.8" font-family="Times New Roman,serif" font-weight="bold" font-size="14.00">S2, A7, 1, 0</text>
</g>
<!-- 0x57535240 -->
<g id="node13" class="node">
<title>0x57535240</title>
<ellipse fill="white" stroke="black" stroke-width="0.8" cx="249" cy="-767" rx="3.6" ry="3.6"/>
</g>
<!-- 0x8e7109f3&#45;&gt;0x57535240 -->
<g id="edge11" class="edge">
<title>0x8e7109f3:box&#45;&gt;0x57535240</title>
<path fill="none" stroke="#444444" d="M249,-821.6C249,-806.48 249,-788.96 249,-778.18"/>
<polygon fill="#444444" stroke="#444444" points="251.1,-778.42 249,-772.42 246.9,-778.42 251.1,-778.42"/>
<text xml:space="preserve" text-anchor="start" x="249" y="-792.25" font-family="Times New Roman,serif" font-weight="bold" font-size="13.00"> uo2 </text>
</g>
<!-- 0xab6daea7&#45;&gt;0x8e7109f3 -->
<g id="edge2" class="edge">
<title>0xab6daea7&#45;&gt;0x8e7109f3:box</title>
<path fill="none" stroke="#444444" stroke-dasharray="5,2" d="M323.66,-913.54C319.53,-906.08 306.76,-882.63 298,-862.35 294.29,-853.77 297.47,-843.32 294.72,-838.12"/>
<polygon fill="#444444" stroke="#444444" points="295.68,-836.25 289.36,-835.51 293.84,-840.02 295.68,-836.25"/>
<text xml:space="preserve" text-anchor="start" x="313.46" y="-884" font-family="Times New Roman,serif" font-weight="bold" font-size="13.00"> o1 </text>
</g>
<!-- 0x14432f18 -->
<g id="node4" class="node">
<title>0x14432f18</title>
<text xml:space="preserve" text-anchor="start" x="436.38" y="-851.95" font-family="Times New Roman,serif" font-weight="bold" font-size="12.00">ye2</text>
<path fill="#f8f9fa" stroke="none" d="M415.83,-821.6C415.83,-821.6 474.17,-821.6 474.17,-821.6 478.58,-821.6 483,-826.02 483,-830.43 483,-830.43 483,-839.27 483,-839.27 483,-843.68 478.58,-848.1 474.17,-848.1 474.17,-848.1 415.83,-848.1 415.83,-848.1 411.42,-848.1 407,-843.68 407,-839.27 407,-839.27 407,-830.43 407,-830.43 407,-826.02 411.42,-821.6 415.83,-821.6"/>
<path fill="none" stroke="#333333" d="M415.83,-821.6C415.83,-821.6 474.17,-821.6 474.17,-821.6 478.58,-821.6 483,-826.02 483,-830.43 483,-830.43 483,-839.27 483,-839.27 483,-843.68 478.58,-848.1 474.17,-848.1 474.17,-848.1 415.83,-848.1 415.83,-848.1 411.42,-848.1 407,-843.68 407,-839.27 407,-839.27 407,-830.43 407,-830.43 407,-826.02 411.42,-821.6 415.83,-821.6"/>
<text xml:space="preserve" text-anchor="start" x="412" y="-830.8" font-family="Times New Roman,serif" font-weight="bold" font-size="14.00">S8, A0, 3, 2</text>
</g>
<!-- 0x99afc09c -->
<g id="node15" class="node">
<title>0x99afc09c</title>
<ellipse fill="white" stroke="black" stroke-width="0.8" cx="445" cy="-767" rx="3.6" ry="3.6"/>
</g>
<!-- 0x14432f18&#45;&gt;0x99afc09c -->
<g id="edge13" class="edge">
<title>0x14432f18:box&#45;&gt;0x99afc09c</title>
<path fill="none" stroke="#444444" d="M445,-821.6C445,-806.48 445,-788.96 445,-778.18"/>
<polygon fill="#444444" stroke="#444444" points="447.1,-778.42 445,-772.42 442.9,-778.42 447.1,-778.42"/>
<text xml:space="preserve" text-anchor="start" x="445" y="-792.25" font-family="Times New Roman,serif" font-weight="bold" font-size="13.00"> o4 </text>
</g>
<!-- 0x640c8300 -->
<g id="node5" class="node">
<title>0x640c8300</title>
<text xml:space="preserve" text-anchor="start" x="338.38" y="-851.95" font-family="Times New Roman,serif" font-weight="bold" font-size="12.00">ye3</text>
<path fill="#f8f9fa" stroke="none" d="M317.83,-821.6C317.83,-821.6 376.17,-821.6 376.17,-821.6 380.58,-821.6 385,-826.02 385,-830.43 385,-830.43 385,-839.27 385,-839.27 385,-843.68 380.58,-848.1 376.17,-848.1 376.17,-848.1 317.83,-848.1 317.83,-848.1 313.42,-848.1 309,-843.68 309,-839.27 309,-839.27 309,-830.43 309,-830.43 309,-826.02 313.42,-821.6 317.83,-821.6"/>
<path fill="none" stroke="#333333" d="M317.83,-821.6C317.83,-821.6 376.17,-821.6 376.17,-821.6 380.58,-821.6 385,-826.02 385,-830.43 385,-830.43 385,-839.27 385,-839.27 385,-843.68 380.58,-848.1 376.17,-848.1 376.17,-848.1 317.83,-848.1 317.83,-848.1 313.42,-848.1 309,-843.68 309,-839.27 309,-839.27 309,-830.43 309,-830.43 309,-826.02 313.42,-821.6 317.83,-821.6"/>
<text xml:space="preserve" text-anchor="start" x="314" y="-830.8" font-family="Times New Roman,serif" font-weight="bold" font-size="14.00">S1, A0, 3, 0</text>
</g>
<!-- 0x68cb8ec4 -->
<g id="node17" class="node">
<title>0x68cb8ec4</title>
<ellipse fill="white" stroke="black" stroke-width="0.8" cx="347" cy="-767" rx="3.6" ry="3.6"/>
</g>
<!-- 0x640c8300&#45;&gt;0x68cb8ec4 -->
<g id="edge15" class="edge">
<title>0x640c8300:box&#45;&gt;0x68cb8ec4</title>
<path fill="none" stroke="#444444" d="M347,-821.6C347,-806.48 347,-788.96 347,-778.18"/>
<polygon fill="#444444" stroke="#444444" points="349.1,-778.42 347,-772.42 344.9,-778.42 349.1,-778.42"/>
<text xml:space="preserve" text-anchor="start" x="347" y="-792.25" font-family="Times New Roman,serif" font-weight="bold" font-size="13.00"> o4 </text>
</g>
<!-- 0x18921e5b -->
<g id="node6" class="node">
<title>0x18921e5b</title>
<text xml:space="preserve" text-anchor="start" x="534.38" y="-851.95" font-family="Times New Roman,serif" font-weight="bold" font-size="12.00">ye4</text>
<path fill="#f8f9fa" stroke="none" d="M513.83,-821.6C513.83,-821.6 572.17,-821.6 572.17,-821.6 576.58,-821.6 581,-826.02 581,-830.43 581,-830.43 581,-839.27 581,-839.27 581,-843.68 576.58,-848.1 572.17,-848.1 572.17,-848.1 513.83,-848.1 513.83,-848.1 509.42,-848.1 505,-843.68 505,-839.27 505,-839.27 505,-830.43 505,-830.43 505,-826.02 509.42,-821.6 513.83,-821.6"/>
<path fill="none" stroke="#333333" d="M513.83,-821.6C513.83,-821.6 572.17,-821.6 572.17,-821.6 576.58,-821.6 581,-826.02 581,-830.43 581,-830.43 581,-839.27 581,-839.27 581,-843.68 576.58,-848.1 572.17,-848.1 572.17,-848.1 513.83,-848.1 513.83,-848.1 509.42,-848.1 505,-843.68 505,-839.27 505,-839.27 505,-830.43 505,-830.43 505,-826.02 509.42,-821.6 513.83,-821.6"/>
<text xml:space="preserve" text-anchor="start" x="510" y="-830.8" font-family="Times New Roman,serif" font-weight="bold" font-size="14.00">S7, A0, 3, 1</text>
</g>
<!-- 0xa842942c -->
<g id="node19" class="node">
<title>0xa842942c</title>
<ellipse fill="white" stroke="black" stroke-width="0.8" cx="543" cy="-767" rx="3.6" ry="3.6"/>
</g>
<!-- 0x18921e5b&#45;&gt;0xa842942c -->
<g id="edge17" class="edge">
<title>0x18921e5b:box&#45;&gt;0xa842942c</title>
<path fill="none" stroke="#444444" d="M543,-821.6C543,-806.48 543,-788.96 543,-778.18"/>
<polygon fill="#444444" stroke="#444444" points="545.1,-778.42 543,-772.42 540.9,-778.42 545.1,-778.42"/>
<text xml:space="preserve" text-anchor="start" x="543" y="-792.25" font-family="Times New Roman,serif" font-weight="bold" font-size="13.00"> o4 </text>
</g>
<!-- 0x9d83b142&#45;&gt;0x14432f18 -->
<g id="edge4" class="edge">
<title>0x9d83b142&#45;&gt;0x14432f18:box</title>
<path fill="none" stroke="#444444" stroke-dasharray="5,2" d="M446.73,-913.68C453.88,-904.25 480.97,-868.35 483,-862.35 485.64,-854.57 490.7,-844.83 490.03,-839.28"/>
<polygon fill="#444444" stroke="#444444" points="491.3,-837.6 485.22,-835.75 488.82,-840.99 491.3,-837.6"/>
<text xml:space="preserve" text-anchor="start" x="470.74" y="-884" font-family="Times New Roman,serif" font-weight="bold" font-size="13.00"> o2 </text>
</g>
<!-- 0x9d83b142&#45;&gt;0x640c8300 -->
<g id="edge5" class="edge">
<title>0x9d83b142&#45;&gt;0x640c8300:box</title>
<path fill="none" stroke="#444444" stroke-dasharray="5,2" d="M442.82,-914.14C435.29,-907.79 410.11,-885.64 396,-862.35 391.16,-854.36 394.83,-843.65 392.45,-838.26"/>
<polygon fill="#444444" stroke="#444444" points="393.62,-836.5 387.34,-835.56 391.66,-840.22 393.62,-836.5"/>
<text xml:space="preserve" text-anchor="start" x="421.76" y="-884" font-family="Times New Roman,serif" font-weight="bold" font-size="13.00"> ε </text>
</g>
<!-- 0x9d83b142&#45;&gt;0x18921e5b -->
<g id="edge6" class="edge">
<title>0x9d83b142&#45;&gt;0x18921e5b:box</title>
<path fill="none" stroke="#444444" stroke-dasharray="5,2" d="M448.62,-915.5C457.53,-914.19 480.62,-909.52 492,-895.35 498.97,-886.67 493.49,-852.15 498.54,-839.52"/>
<polygon fill="#444444" stroke="#444444" points="499.65,-841.33 502.85,-835.83 496.92,-838.14 499.65,-841.33"/>
<text xml:space="preserve" text-anchor="start" x="495.62" y="-884" font-family="Times New Roman,serif" font-weight="bold" font-size="13.00"> o3 </text>
</g>
<!-- 0x5cb8417a -->
<g id="node8" class="node">
<title>0x5cb8417a</title>
<text xml:space="preserve" text-anchor="start" x="653.38" y="-542.68" font-family="Times New Roman,serif" font-weight="bold" font-size="12.00">ye5</text>
<path fill="#f8f9fa" stroke="none" d="M632.83,-512.33C632.83,-512.33 691.17,-512.33 691.17,-512.33 695.58,-512.33 700,-516.74 700,-521.16 700,-521.16 700,-529.99 700,-529.99 700,-534.41 695.58,-538.83 691.17,-538.83 691.17,-538.83 632.83,-538.83 632.83,-538.83 628.42,-538.83 624,-534.41 624,-529.99 624,-529.99 624,-521.16 624,-521.16 624,-516.74 628.42,-512.33 632.83,-512.33"/>
<path fill="none" stroke="#333333" d="M632.83,-512.33C632.83,-512.33 691.17,-512.33 691.17,-512.33 695.58,-512.33 700,-516.74 700,-521.16 700,-521.16 700,-529.99 700,-529.99 700,-534.41 695.58,-538.83 691.17,-538.83 691.17,-538.83 632.83,-538.83 632.83,-538.83 628.42,-538.83 624,-534.41 624,-529.99 624,-529.99 624,-521.16 624,-521.16 624,-516.74 628.42,-512.33 632.83,-512.33"/>
<text xml:space="preserve" text-anchor="start" x="629" y="-521.53" font-family="Times New Roman,serif" font-weight="bold" font-size="14.00">S8, A6, 7, 2</text>
</g>
<!-- 0xc73b7140 -->
<g id="node22" class="node">
<title>0xc73b7140</title>
<ellipse fill="white" stroke="black" stroke-width="0.8" cx="722" cy="-444.45" rx="3.6" ry="3.6"/>
</g>
<!-- 0x5cb8417a&#45;&gt;0xc73b7140 -->
<g id="edge19" class="edge">
<title>0x5cb8417a:box&#45;&gt;0xc73b7140</title>
<path fill="none" stroke="#444444" d="M701,-525.58C729.69,-525.58 726.42,-476.91 723.58,-455.44"/>
<polygon fill="#444444" stroke="#444444" points="725.67,-455.24 722.7,-449.61 721.51,-455.86 725.67,-455.24"/>
<text xml:space="preserve" text-anchor="start" x="725.38" y="-473.6" font-family="Times New Roman,serif" font-weight="bold" font-size="13.00"> o3 </text>
</g>
<!-- 0x7156760e -->
<g id="node24" class="node">
<title>0x7156760e</title>
<ellipse fill="white" stroke="black" stroke-width="0.8" cx="657" cy="-411.45" rx="3.6" ry="3.6"/>
</g>
<!-- 0x5cb8417a&#45;&gt;0x7156760e -->
<g id="edge23" class="edge">
<title>0x5cb8417a:box&#45;&gt;0x7156760e</title>
<path fill="none" stroke="#444444" d="M662,-511.33C662,-478.83 659.27,-440.41 657.85,-422.53"/>
<polygon fill="#444444" stroke="#444444" points="659.95,-422.51 657.37,-416.71 655.77,-422.86 659.95,-422.51"/>
<text xml:space="preserve" text-anchor="start" x="661.48" y="-473.6" font-family="Times New Roman,serif" font-weight="bold" font-size="13.00"> uo1 </text>
</g>
<!-- 0xc6588f2d -->
<g id="node9" class="node">
<title>0xc6588f2d</title>
<text xml:space="preserve" text-anchor="start" x="338.38" y="-542.68" font-family="Times New Roman,serif" font-weight="bold" font-size="12.00">ye6</text>
<path fill="#f8f9fa" stroke="none" d="M317.83,-512.33C317.83,-512.33 376.17,-512.33 376.17,-512.33 380.58,-512.33 385,-516.74 385,-521.16 385,-521.16 385,-529.99 385,-529.99 385,-534.41 380.58,-538.83 376.17,-538.83 376.17,-538.83 317.83,-538.83 317.83,-538.83 313.42,-538.83 309,-534.41 309,-529.99 309,-529.99 309,-521.16 309,-521.16 309,-516.74 313.42,-512.33 317.83,-512.33"/>
<path fill="none" stroke="#333333" d="M317.83,-512.33C317.83,-512.33 376.17,-512.33 376.17,-512.33 380.58,-512.33 385,-516.74 385,-521.16 385,-521.16 385,-529.99 385,-529.99 385,-534.41 380.58,-538.83 376.17,-538.83 376.17,-538.83 317.83,-538.83 317.83,-538.83 313.42,-538.83 309,-534.41 309,-529.99 309,-529.99 309,-521.16 309,-521.16 309,-516.74 313.42,-512.33 317.83,-512.33"/>
<text xml:space="preserve" text-anchor="start" x="314" y="-521.53" font-family="Times New Roman,serif" font-weight="bold" font-size="14.00">S1, A6, 7, 0</text>
</g>
<!-- 0x39efbd41 -->
<g id="node27" class="node">
<title>0x39efbd41</title>
<ellipse fill="white" stroke="black" stroke-width="0.8" cx="357" cy="-444.45" rx="3.6" ry="3.6"/>
</g>
<!-- 0xc6588f2d&#45;&gt;0x39efbd41 -->
<g id="edge25" class="edge">
<title>0xc6588f2d:box&#45;&gt;0x39efbd41</title>
<path fill="none" stroke="#444444" d="M347,-511.33C347,-491.21 351.61,-468.03 354.57,-455.23"/>
<polygon fill="#444444" stroke="#444444" points="356.55,-455.99 355.92,-449.66 352.47,-455 356.55,-455.99"/>
<text xml:space="preserve" text-anchor="start" x="351.4" y="-473.6" font-family="Times New Roman,serif" font-weight="bold" font-size="13.00"> o3 </text>
</g>
<!-- 0x951ee852 -->
<g id="node29" class="node">
<title>0x951ee852</title>
<ellipse fill="white" stroke="black" stroke-width="0.8" cx="288" cy="-319.7" rx="3.6" ry="3.6"/>
</g>
<!-- 0xc6588f2d&#45;&gt;0x951ee852 -->
<g id="edge29" class="edge">
<title>0xc6588f2d:box&#45;&gt;0x951ee852</title>
<path fill="none" stroke="#444444" d="M308,-525.58C298.12,-525.58 290.38,-372.52 288.46,-330.99"/>
<polygon fill="#444444" stroke="#444444" points="290.56,-331.01 288.19,-325.11 286.37,-331.2 290.56,-331.01"/>
<text xml:space="preserve" text-anchor="start" x="295.82" y="-440.6" font-family="Times New Roman,serif" font-weight="bold" font-size="13.00"> uo1 </text>
</g>
<!-- 0x7ade2a88 -->
<g id="node10" class="node">
<title>0x7ade2a88</title>
<text xml:space="preserve" text-anchor="start" x="519.38" y="-542.68" font-family="Times New Roman,serif" font-weight="bold" font-size="12.00">ye7</text>
<path fill="#f8f9fa" stroke="none" d="M498.83,-512.33C498.83,-512.33 557.17,-512.33 557.17,-512.33 561.58,-512.33 566,-516.74 566,-521.16 566,-521.16 566,-529.99 566,-529.99 566,-534.41 561.58,-538.83 557.17,-538.83 557.17,-538.83 498.83,-538.83 498.83,-538.83 494.42,-538.83 490,-534.41 490,-529.99 490,-529.99 490,-521.16 490,-521.16 490,-516.74 494.42,-512.33 498.83,-512.33"/>
<path fill="none" stroke="#333333" d="M498.83,-512.33C498.83,-512.33 557.17,-512.33 557.17,-512.33 561.58,-512.33 566,-516.74 566,-521.16 566,-521.16 566,-529.99 566,-529.99 566,-534.41 561.58,-538.83 557.17,-538.83 557.17,-538.83 498.83,-538.83 498.83,-538.83 494.42,-538.83 490,-534.41 490,-529.99 490,-529.99 490,-521.16 490,-521.16 490,-516.74 494.42,-512.33 498.83,-512.33"/>
<text xml:space="preserve" text-anchor="start" x="495" y="-521.53" font-family="Times New Roman,serif" font-weight="bold" font-size="14.00">S7, A6, 7, 1</text>
</g>
<!-- 0x51bf55dd -->
<g id="node31" class="node">
<title>0x51bf55dd</title>
<ellipse fill="white" stroke="black" stroke-width="0.8" cx="528" cy="-411.45" rx="3.6" ry="3.6"/>
</g>
<!-- 0x7ade2a88&#45;&gt;0x51bf55dd -->
<g id="edge31" class="edge">
<title>0x7ade2a88:box&#45;&gt;0x51bf55dd</title>
<path fill="none" stroke="#444444" d="M528,-511.33C528,-478.87 528,-440.43 528,-422.54"/>
<polygon fill="#444444" stroke="#444444" points="530.1,-422.72 528,-416.72 525.9,-422.72 530.1,-422.72"/>
<text xml:space="preserve" text-anchor="start" x="528" y="-473.6" font-family="Times New Roman,serif" font-weight="bold" font-size="13.00"> uo1 </text>
</g>
<!-- 0xfe85673f&#45;&gt;0x5cb8417a -->
<g id="edge8" class="edge">
<title>0xfe85673f&#45;&gt;0x5cb8417a:box</title>
<path fill="none" stroke="#444444" stroke-dasharray="5,2" d="M618.09,-614.92C631.03,-610.02 681,-589.15 700,-553.08 704.01,-545.47 708.92,-534.96 707.23,-529.4"/>
<polygon fill="#444444" stroke="#444444" points="708.5,-527.71 702.29,-526.37 706.31,-531.29 708.5,-527.71"/>
<text xml:space="preserve" text-anchor="start" x="677.48" y="-584.1" font-family="Times New Roman,serif" font-weight="bold" font-size="13.00"> o2 </text>
</g>
<!-- 0xfe85673f&#45;&gt;0xc6588f2d -->
<g id="edge9" class="edge">
<title>0xfe85673f&#45;&gt;0xc6588f2d:box</title>
<path fill="none" stroke="#444444" stroke-dasharray="5,2" d="M612.16,-614.34C602.85,-608.77 572.22,-590.96 545,-580.45 516.63,-569.5 507.84,-572.07 479,-562.45 439.29,-549.21 431.33,-528.22 393.44,-525.8"/>
<polygon fill="#444444" stroke="#444444" points="393.57,-523.71 387.51,-525.62 393.45,-527.9 393.57,-523.71"/>
<text xml:space="preserve" text-anchor="start" x="577.62" y="-584.1" font-family="Times New Roman,serif" font-weight="bold" font-size="13.00"> ε </text>
</g>
<!-- 0xfe85673f&#45;&gt;0x7ade2a88 -->
<g id="edge10" class="edge">
<title>0xfe85673f&#45;&gt;0x7ade2a88:box</title>
<path fill="none" stroke="#444444" stroke-dasharray="5,2" d="M614.88,-613.44C614.1,-599.53 608.65,-534.48 574.27,-526.4"/>
<polygon fill="#444444" stroke="#444444" points="574.7,-524.33 568.5,-525.75 574.23,-528.51 574.7,-524.33"/>
<text xml:space="preserve" text-anchor="start" x="612.97" y="-584.1" font-family="Times New Roman,serif" font-weight="bold" font-size="13.00"> o3 </text>
</g>
<!-- 0x77c1714c -->
<g id="node12" class="node">
<title>0x77c1714c</title>
<text xml:space="preserve" text-anchor="start" x="240.38" y="-702" font-family="Times New Roman,serif" font-weight="bold" font-size="12.00">ye8</text>
<path fill="#f8f9fa" stroke="none" d="M219.83,-671.65C219.83,-671.65 278.17,-671.65 278.17,-671.65 282.58,-671.65 287,-676.07 287,-680.48 287,-680.48 287,-689.32 287,-689.32 287,-693.73 282.58,-698.15 278.17,-698.15 278.17,-698.15 219.83,-698.15 219.83,-698.15 215.42,-698.15 211,-693.73 211,-689.32 211,-689.32 211,-680.48 211,-680.48 211,-676.07 215.42,-671.65 219.83,-671.65"/>
<path fill="none" stroke="#333333" d="M219.83,-671.65C219.83,-671.65 278.17,-671.65 278.17,-671.65 282.58,-671.65 287,-676.07 287,-680.48 287,-680.48 287,-689.32 287,-689.32 287,-693.73 282.58,-698.15 278.17,-698.15 278.17,-698.15 219.83,-698.15 219.83,-698.15 215.42,-698.15 211,-693.73 211,-689.32 211,-689.32 211,-680.48 211,-680.48 211,-676.07 215.42,-671.65 219.83,-671.65"/>
<text xml:space="preserve" text-anchor="start" x="216" y="-680.85" font-family="Times New Roman,serif" font-weight="bold" font-size="14.00">S2, A7, 2, 0</text>
</g>
<!-- 0xd1b9ef78 -->
<g id="node33" class="node">
<title>0xd1b9ef78</title>
<ellipse fill="white" stroke="black" stroke-width="0.8" cx="249" cy="-617.05" rx="3.6" ry="3.6"/>
</g>
<!-- 0x77c1714c&#45;&gt;0xd1b9ef78 -->
<g id="edge33" class="edge">
<title>0x77c1714c:box&#45;&gt;0xd1b9ef78</title>
<path fill="none" stroke="#444444" d="M249,-671.65C249,-656.53 249,-639.01 249,-628.23"/>
<polygon fill="#444444" stroke="#444444" points="251.1,-628.47 249,-622.47 246.9,-628.47 251.1,-628.47"/>
<text xml:space="preserve" text-anchor="start" x="249" y="-642.3" font-family="Times New Roman,serif" font-weight="bold" font-size="13.00"> o1 </text>
</g>
<!-- 0x57535240&#45;&gt;0x77c1714c -->
<g id="edge12" class="edge">
<title>0x57535240&#45;&gt;0x77c1714c:box</title>
<path fill="none" stroke="#444444" stroke-dasharray="5,2" d="M251.29,-763.82C258.27,-757.03 279.24,-735.3 287,-712.4 289.64,-704.62 294.7,-694.88 294.03,-689.33"/>
<polygon fill="#444444" stroke="#444444" points="295.3,-687.65 289.22,-685.8 292.82,-691.04 295.3,-687.65"/>
<text xml:space="preserve" text-anchor="start" x="277.59" y="-734.05" font-family="Times New Roman,serif" font-weight="bold" font-size="13.00"> uo2 </text>
</g>
<!-- 0x78a936d6 -->
<g id="node14" class="node">
<title>0x78a936d6</title>
<text xml:space="preserve" text-anchor="start" x="436.38" y="-702" font-family="Times New Roman,serif" font-weight="bold" font-size="12.00">ye9</text>
<path fill="#f8f9fa" stroke="none" d="M415.83,-671.65C415.83,-671.65 474.17,-671.65 474.17,-671.65 478.58,-671.65 483,-676.07 483,-680.48 483,-680.48 483,-689.32 483,-689.32 483,-693.73 478.58,-698.15 474.17,-698.15 474.17,-698.15 415.83,-698.15 415.83,-698.15 411.42,-698.15 407,-693.73 407,-689.32 407,-689.32 407,-680.48 407,-680.48 407,-676.07 411.42,-671.65 415.83,-671.65"/>
<path fill="none" stroke="#333333" d="M415.83,-671.65C415.83,-671.65 474.17,-671.65 474.17,-671.65 478.58,-671.65 483,-676.07 483,-680.48 483,-680.48 483,-689.32 483,-689.32 483,-693.73 478.58,-698.15 474.17,-698.15 474.17,-698.15 415.83,-698.15 415.83,-698.15 411.42,-698.15 407,-693.73 407,-689.32 407,-689.32 407,-680.48 407,-680.48 407,-676.07 411.42,-671.65 415.83,-671.65"/>
<text xml:space="preserve" text-anchor="start" x="412" y="-680.85" font-family="Times New Roman,serif" font-weight="bold" font-size="14.00">S8, A2, 6, 2</text>
</g>
<!-- 0x99afc09c&#45;&gt;0x78a936d6 -->
<g id="edge14" class="edge">
<title>0x99afc09c&#45;&gt;0x78a936d6:box</title>
<path fill="none" stroke="#444444" stroke-dasharray="5,2" d="M447.29,-763.82C454.27,-757.03 475.24,-735.3 483,-712.4 485.64,-704.62 490.7,-694.88 490.03,-689.33"/>
<polygon fill="#444444" stroke="#444444" points="491.3,-687.65 485.22,-685.8 488.82,-691.04 491.3,-687.65"/>
<text xml:space="preserve" text-anchor="start" x="473.59" y="-734.05" font-family="Times New Roman,serif" font-weight="bold" font-size="13.00"> o4 </text>
</g>
<!-- 0xdd0827d4 -->
<g id="node16" class="node">
<title>0xdd0827d4</title>
<text xml:space="preserve" text-anchor="start" x="335.38" y="-702" font-family="Times New Roman,serif" font-weight="bold" font-size="12.00">ye10</text>
<path fill="#f8f9fa" stroke="none" d="M317.83,-671.65C317.83,-671.65 376.17,-671.65 376.17,-671.65 380.58,-671.65 385,-676.07 385,-680.48 385,-680.48 385,-689.32 385,-689.32 385,-693.73 380.58,-698.15 376.17,-698.15 376.17,-698.15 317.83,-698.15 317.83,-698.15 313.42,-698.15 309,-693.73 309,-689.32 309,-689.32 309,-680.48 309,-680.48 309,-676.07 313.42,-671.65 317.83,-671.65"/>
<path fill="none" stroke="#333333" d="M317.83,-671.65C317.83,-671.65 376.17,-671.65 376.17,-671.65 380.58,-671.65 385,-676.07 385,-680.48 385,-680.48 385,-689.32 385,-689.32 385,-693.73 380.58,-698.15 376.17,-698.15 376.17,-698.15 317.83,-698.15 317.83,-698.15 313.42,-698.15 309,-693.73 309,-689.32 309,-689.32 309,-680.48 309,-680.48 309,-676.07 313.42,-671.65 317.83,-671.65"/>
<text xml:space="preserve" text-anchor="start" x="314" y="-680.85" font-family="Times New Roman,serif" font-weight="bold" font-size="14.00">S1, A6, 6, 0</text>
</g>
<!-- 0x9ef1e309 -->
<g id="node34" class="node">
<title>0x9ef1e309</title>
<ellipse fill="white" stroke="black" stroke-width="0.8" cx="347" cy="-617.05" rx="3.6" ry="3.6"/>
</g>
<!-- 0xdd0827d4&#45;&gt;0x9ef1e309 -->
<g id="edge35" class="edge">
<title>0xdd0827d4:box&#45;&gt;0x9ef1e309</title>
<path fill="none" stroke="#444444" d="M347,-671.65C347,-656.53 347,-639.01 347,-628.23"/>
<polygon fill="#444444" stroke="#444444" points="349.1,-628.47 347,-622.47 344.9,-628.47 349.1,-628.47"/>
<text xml:space="preserve" text-anchor="start" x="347" y="-642.3" font-family="Times New Roman,serif" font-weight="bold" font-size="13.00"> uo3 </text>
</g>
<!-- 0x68cb8ec4&#45;&gt;0xdd0827d4 -->
<g id="edge16" class="edge">
<title>0x68cb8ec4&#45;&gt;0xdd0827d4:box</title>
<path fill="none" stroke="#444444" stroke-dasharray="5,2" d="M349.29,-763.82C356.27,-757.03 377.24,-735.3 385,-712.4 387.64,-704.62 392.7,-694.88 392.03,-689.33"/>
<polygon fill="#444444" stroke="#444444" points="393.3,-687.65 387.22,-685.8 390.82,-691.04 393.3,-687.65"/>
<text xml:space="preserve" text-anchor="start" x="375.59" y="-734.05" font-family="Times New Roman,serif" font-weight="bold" font-size="13.00"> o4 </text>
</g>
<!-- 0x918dc32f -->
<g id="node18" class="node">
<title>0x918dc32f</title>
<text xml:space="preserve" text-anchor="start" x="531.75" y="-702" font-family="Times New Roman,serif" font-weight="bold" font-size="12.00">ye11</text>
<path fill="#f8f9fa" stroke="none" d="M513.83,-671.65C513.83,-671.65 572.17,-671.65 572.17,-671.65 576.58,-671.65 581,-676.07 581,-680.48 581,-680.48 581,-689.32 581,-689.32 581,-693.73 576.58,-698.15 572.17,-698.15 572.17,-698.15 513.83,-698.15 513.83,-698.15 509.42,-698.15 505,-693.73 505,-689.32 505,-689.32 505,-680.48 505,-680.48 505,-676.07 509.42,-671.65 513.83,-671.65"/>
<path fill="none" stroke="#333333" d="M513.83,-671.65C513.83,-671.65 572.17,-671.65 572.17,-671.65 576.58,-671.65 581,-676.07 581,-680.48 581,-680.48 581,-689.32 581,-689.32 581,-693.73 576.58,-698.15 572.17,-698.15 572.17,-698.15 513.83,-698.15 513.83,-698.15 509.42,-698.15 505,-693.73 505,-689.32 505,-689.32 505,-680.48 505,-680.48 505,-676.07 509.42,-671.65 513.83,-671.65"/>
<text xml:space="preserve" text-anchor="start" x="510" y="-680.85" font-family="Times New Roman,serif" font-weight="bold" font-size="14.00">S7, A6, 6, 1</text>
</g>
<!-- 0x813595ad -->
<g id="node35" class="node">
<title>0x813595ad</title>
<ellipse fill="white" stroke="black" stroke-width="0.8" cx="533" cy="-617.05" rx="3.6" ry="3.6"/>
</g>
<!-- 0x918dc32f&#45;&gt;0x813595ad -->
<g id="edge37" class="edge">
<title>0x918dc32f:box&#45;&gt;0x813595ad</title>
<path fill="none" stroke="#444444" d="M543,-671.65C543,-656.27 538.97,-638.82 536.03,-628.12"/>
<polygon fill="#444444" stroke="#444444" points="538.05,-627.54 534.35,-622.37 534.01,-628.72 538.05,-627.54"/>
<text xml:space="preserve" text-anchor="start" x="541.32" y="-642.3" font-family="Times New Roman,serif" font-weight="bold" font-size="13.00"> uo3 </text>
</g>
<!-- 0xa842942c&#45;&gt;0x918dc32f -->
<g id="edge18" class="edge">
<title>0xa842942c&#45;&gt;0x918dc32f:box</title>
<path fill="none" stroke="#444444" stroke-dasharray="5,2" d="M544.92,-764C555.75,-752.58 608.05,-695.95 589.27,-686.3"/>
<polygon fill="#444444" stroke="#444444" points="589.77,-684.26 583.49,-685.19 588.98,-688.38 589.77,-684.26"/>
<text xml:space="preserve" text-anchor="start" x="572.02" y="-734.05" font-family="Times New Roman,serif" font-weight="bold" font-size="13.00"> o4 </text>
</g>
<!-- 0x23850bd7 -->
<g id="node20" class="node">
<title>0x23850bd7</title>
<text xml:space="preserve" text-anchor="start" x="761.38" y="-375.55" font-family="Times New Roman,serif" font-weight="bold" font-size="12.00">ye12</text>
<path fill="#fff1f2" stroke="none" d="M741.21,-345.2C741.21,-345.2 804.79,-345.2 804.79,-345.2 809.21,-345.2 813.62,-349.62 813.62,-354.03 813.62,-354.03 813.62,-362.87 813.62,-362.87 813.62,-367.28 809.21,-371.7 804.79,-371.7 804.79,-371.7 741.21,-371.7 741.21,-371.7 736.79,-371.7 732.38,-367.28 732.38,-362.87 732.38,-362.87 732.38,-354.03 732.38,-354.03 732.38,-349.62 736.79,-345.2 741.21,-345.2"/>
<path fill="none" stroke="#9f1239" d="M741.21,-345.2C741.21,-345.2 804.79,-345.2 804.79,-345.2 809.21,-345.2 813.62,-349.62 813.62,-354.03 813.62,-354.03 813.62,-362.87 813.62,-362.87 813.62,-367.28 809.21,-371.7 804.79,-371.7 804.79,-371.7 741.21,-371.7 741.21,-371.7 736.79,-371.7 732.38,-367.28 732.38,-362.87 732.38,-362.87 732.38,-354.03 732.38,-354.03 732.38,-349.62 736.79,-345.2 741.21,-345.2"/>
<text xml:space="preserve" text-anchor="start" x="737.38" y="-354.4" font-family="Times New Roman,serif" font-weight="bold" font-size="14.00">AX, A3, 8, 2</text>
</g>
<!-- 0x2c61ab -->
<g id="node21" class="node">
<title>0x2c61ab</title>
<text xml:space="preserve" text-anchor="start" x="603.38" y="-375.55" font-family="Times New Roman,serif" font-weight="bold" font-size="12.00">ye13</text>
<path fill="#f8f9fa" stroke="none" d="M585.83,-345.2C585.83,-345.2 644.17,-345.2 644.17,-345.2 648.58,-345.2 653,-349.62 653,-354.03 653,-354.03 653,-362.87 653,-362.87 653,-367.28 648.58,-371.7 644.17,-371.7 644.17,-371.7 585.83,-371.7 585.83,-371.7 581.42,-371.7 577,-367.28 577,-362.87 577,-362.87 577,-354.03 577,-354.03 577,-349.62 581.42,-345.2 585.83,-345.2"/>
<path fill="none" stroke="#333333" d="M585.83,-345.2C585.83,-345.2 644.17,-345.2 644.17,-345.2 648.58,-345.2 653,-349.62 653,-354.03 653,-354.03 653,-362.87 653,-362.87 653,-367.28 648.58,-371.7 644.17,-371.7 644.17,-371.7 585.83,-371.7 585.83,-371.7 581.42,-371.7 577,-367.28 577,-362.87 577,-362.87 577,-354.03 577,-354.03 577,-349.62 581.42,-345.2 585.83,-345.2"/>
<text xml:space="preserve" text-anchor="start" x="582" y="-354.4" font-family="Times New Roman,serif" font-weight="bold" font-size="14.00">S8, A3, 8, 2</text>
</g>
<!-- 0x5bb61880 -->
<g id="node38" class="node">
<title>0x5bb61880</title>
<ellipse fill="white" stroke="black" stroke-width="0.8" cx="609" cy="-286.7" rx="3.6" ry="3.6"/>
</g>
<!-- 0x2c61ab&#45;&gt;0x5bb61880 -->
<g id="edge39" class="edge">
<title>0x2c61ab:box&#45;&gt;0x5bb61880</title>
<path fill="none" stroke="#444444" d="M615,-345.2C615,-335.94 606.92,-336.14 604.5,-327.2 601.8,-317.22 603.8,-305.39 605.93,-297.3"/>
<polygon fill="#444444" stroke="#444444" points="607.89,-298.04 607.62,-291.69 603.88,-296.83 607.89,-298.04"/>
<text xml:space="preserve" text-anchor="start" x="604.5" y="-315.85" font-family="Times New Roman,serif" font-weight="bold" font-size="13.00"> o2 </text>
</g>
<!-- 0xf907bd83 -->
<g id="node41" class="node">
<title>0xf907bd83</title>
<ellipse fill="white" stroke="black" stroke-width="0.8" cx="851" cy="-286.7" rx="3.6" ry="3.6"/>
</g>
<!-- 0x2c61ab&#45;&gt;0xf907bd83 -->
<g id="edge43" class="edge">
<title>0x2c61ab:box&#45;&gt;0xf907bd83</title>
<path fill="none" stroke="#444444" d="M654,-358.45C674.59,-358.45 637.86,-327.62 651.5,-312.2 664.13,-297.92 800.5,-290.17 840.21,-288.2"/>
<polygon fill="#444444" stroke="#444444" points="840.06,-290.31 845.96,-287.93 839.86,-286.12 840.06,-290.31"/>
<text xml:space="preserve" text-anchor="start" x="651.5" y="-315.85" font-family="Times New Roman,serif" font-weight="bold" font-size="13.00"> o3 </text>
</g>
<!-- 0xc73b7140&#45;&gt;0x23850bd7 -->
<g id="edge20" class="edge">
<title>0xc73b7140&#45;&gt;0x23850bd7:box</title>
<path fill="none" stroke="#444444" stroke-dasharray="5,2" d="M725.35,-442.61C739.36,-438.88 793.45,-422.43 813.62,-385.95 822.39,-370.1 826.27,-358.16 813.62,-345.2 808.94,-340.4 788.83,-337.2 778.78,-339.56"/>
<polygon fill="#444444" stroke="#444444" points="777.54,-337.86 774.18,-343.25 780.17,-341.13 777.54,-337.86"/>
<text xml:space="preserve" text-anchor="start" x="798.76" y="-407.6" font-family="Times New Roman,serif" font-weight="bold" font-size="13.00"> o2 </text>
</g>
<!-- 0xc73b7140&#45;&gt;0x23850bd7 -->
<g id="edge22" class="edge">
<title>0xc73b7140&#45;&gt;0x23850bd7:box</title>
<path fill="none" stroke="#444444" stroke-dasharray="5,2" d="M721.7,-440.62C720.45,-428.06 716.07,-377.31 725.25,-362.51"/>
<polygon fill="#444444" stroke="#444444" points="726.28,-364.35 730.11,-359.29 723.95,-360.85 726.28,-364.35"/>
<text xml:space="preserve" text-anchor="start" x="720.04" y="-407.6" font-family="Times New Roman,serif" font-weight="bold" font-size="13.00"> o3 </text>
</g>
<!-- 0xc73b7140&#45;&gt;0x2c61ab -->
<g id="edge21" class="edge">
<title>0xc73b7140&#45;&gt;0x2c61ab:box</title>
<path fill="none" stroke="#444444" stroke-dasharray="5,2" d="M720.12,-441C711.19,-429.35 672.89,-379.49 658.97,-363.45"/>
<polygon fill="#444444" stroke="#444444" points="660.79,-362.3 655.07,-359.52 657.81,-365.26 660.79,-362.3"/>
<text xml:space="preserve" text-anchor="start" x="702.66" y="-407.6" font-family="Times New Roman,serif" font-weight="bold" font-size="13.00"> ε </text>
</g>
<!-- 0xa6b2d5f6 -->
<g id="node23" class="node">
<title>0xa6b2d5f6</title>
<text xml:space="preserve" text-anchor="start" x="614.38" y="-208.42" font-family="Times New Roman,serif" font-weight="bold" font-size="12.00">ye14</text>
<path fill="#f8f9fa" stroke="none" d="M596.83,-178.07C596.83,-178.07 655.17,-178.07 655.17,-178.07 659.58,-178.07 664,-182.49 664,-186.91 664,-186.91 664,-195.74 664,-195.74 664,-200.16 659.58,-204.57 655.17,-204.57 655.17,-204.57 596.83,-204.57 596.83,-204.57 592.42,-204.57 588,-200.16 588,-195.74 588,-195.74 588,-186.91 588,-186.91 588,-182.49 592.42,-178.07 596.83,-178.07"/>
<path fill="none" stroke="#333333" d="M596.83,-178.07C596.83,-178.07 655.17,-178.07 655.17,-178.07 659.58,-178.07 664,-182.49 664,-186.91 664,-186.91 664,-195.74 664,-195.74 664,-200.16 659.58,-204.57 655.17,-204.57 655.17,-204.57 596.83,-204.57 596.83,-204.57 592.42,-204.57 588,-200.16 588,-195.74 588,-195.74 588,-186.91 588,-186.91 588,-182.49 592.42,-178.07 596.83,-178.07"/>
<text xml:space="preserve" text-anchor="start" x="593" y="-187.27" font-family="Times New Roman,serif" font-weight="bold" font-size="14.00">S8, A6, 4, 2</text>
</g>
<!-- 0x127cc390 -->
<g id="node44" class="node">
<title>0x127cc390</title>
<ellipse fill="white" stroke="black" stroke-width="0.8" cx="567" cy="-114.1" rx="3.6" ry="3.6"/>
</g>
<!-- 0xa6b2d5f6&#45;&gt;0x127cc390 -->
<g id="edge47" class="edge">
<title>0xa6b2d5f6:box&#45;&gt;0x127cc390</title>
<path fill="none" stroke="#444444" d="M626,-177.07C626,-162.52 591.42,-133.92 575.2,-121.32"/>
<polygon fill="#444444" stroke="#444444" points="576.78,-119.88 570.74,-117.9 574.23,-123.22 576.78,-119.88"/>
<text xml:space="preserve" text-anchor="start" x="608.57" y="-139.35" font-family="Times New Roman,serif" font-weight="bold" font-size="13.00"> o2 </text>
</g>
<!-- 0x3df2c6a -->
<g id="node46" class="node">
<title>0x3df2c6a</title>
<ellipse fill="white" stroke="black" stroke-width="0.8" cx="671" cy="-114.1" rx="3.6" ry="3.6"/>
</g>
<!-- 0xa6b2d5f6&#45;&gt;0x3df2c6a -->
<g id="edge51" class="edge">
<title>0xa6b2d5f6:box&#45;&gt;0x3df2c6a</title>
<path fill="none" stroke="#444444" d="M626,-177.07C626,-152.62 649.23,-131.31 662.31,-121.25"/>
<polygon fill="#444444" stroke="#444444" points="663.48,-123 667.1,-117.77 661.01,-119.6 663.48,-123"/>
<text xml:space="preserve" text-anchor="start" x="645.81" y="-139.35" font-family="Times New Roman,serif" font-weight="bold" font-size="13.00"> o1 </text>
</g>
<!-- 0x7156760e&#45;&gt;0xa6b2d5f6 -->
<g id="edge24" class="edge">
<title>0x7156760e&#45;&gt;0xa6b2d5f6:box</title>
<path fill="none" stroke="#444444" stroke-dasharray="5,2" d="M658.1,-407.73C664.3,-392.03 694.23,-311.4 682,-246.2 680.42,-237.76 677.68,-236.35 675,-228.2 670.77,-215.35 677.71,-199.56 672.12,-193.68"/>
<polygon fill="#444444" stroke="#444444" points="672.79,-191.69 666.44,-191.8 671.47,-195.68 672.79,-191.69"/>
<text xml:space="preserve" text-anchor="start" x="682.6" y="-315.85" font-family="Times New Roman,serif" font-weight="bold" font-size="13.00"> uo1 </text>
</g>
<!-- 0xe9ccaf5e -->
<g id="node25" class="node">
<title>0xe9ccaf5e</title>
<text xml:space="preserve" text-anchor="start" x="348.38" y="-375.55" font-family="Times New Roman,serif" font-weight="bold" font-size="12.00">ye15</text>
<path fill="#f8f9fa" stroke="none" d="M330.83,-345.2C330.83,-345.2 389.17,-345.2 389.17,-345.2 393.58,-345.2 398,-349.62 398,-354.03 398,-354.03 398,-362.87 398,-362.87 398,-367.28 393.58,-371.7 389.17,-371.7 389.17,-371.7 330.83,-371.7 330.83,-371.7 326.42,-371.7 322,-367.28 322,-362.87 322,-362.87 322,-354.03 322,-354.03 322,-349.62 326.42,-345.2 330.83,-345.2"/>
<path fill="none" stroke="#333333" d="M330.83,-345.2C330.83,-345.2 389.17,-345.2 389.17,-345.2 393.58,-345.2 398,-349.62 398,-354.03 398,-354.03 398,-362.87 398,-362.87 398,-367.28 393.58,-371.7 389.17,-371.7 389.17,-371.7 330.83,-371.7 330.83,-371.7 326.42,-371.7 322,-367.28 322,-362.87 322,-362.87 322,-354.03 322,-354.03 322,-349.62 326.42,-345.2 330.83,-345.2"/>
<text xml:space="preserve" text-anchor="start" x="327" y="-354.4" font-family="Times New Roman,serif" font-weight="bold" font-size="14.00">S1, A3, 8, 0</text>
</g>
<!-- 0xcca7ba55 -->
<g id="node49" class="node">
<title>0xcca7ba55</title>
<ellipse fill="white" stroke="black" stroke-width="0.8" cx="350" cy="-286.7" rx="3.6" ry="3.6"/>
</g>
<!-- 0xe9ccaf5e&#45;&gt;0xcca7ba55 -->
<g id="edge53" class="edge">
<title>0xe9ccaf5e:box&#45;&gt;0xcca7ba55</title>
<path fill="none" stroke="#444444" d="M360,-345.2C360,-328.25 355.73,-308.9 352.77,-297.52"/>
<polygon fill="#444444" stroke="#444444" points="354.8,-297 351.19,-291.77 350.75,-298.11 354.8,-297"/>
<text xml:space="preserve" text-anchor="start" x="358.55" y="-315.85" font-family="Times New Roman,serif" font-weight="bold" font-size="13.00"> o2 </text>
</g>
<!-- 0xbed1039c -->
<g id="node50" class="node">
<title>0xbed1039c</title>
<ellipse fill="white" stroke="black" stroke-width="0.8" cx="433" cy="-286.7" rx="3.6" ry="3.6"/>
</g>
<!-- 0xe9ccaf5e&#45;&gt;0xbed1039c -->
<g id="edge57" class="edge">
<title>0xe9ccaf5e:box&#45;&gt;0xbed1039c</title>
<path fill="none" stroke="#444444" d="M399,-358.45C425.59,-358.45 431.4,-317.36 432.66,-297.81"/>
<polygon fill="#444444" stroke="#444444" points="434.75,-297.98 432.91,-291.9 430.56,-297.8 434.75,-297.98"/>
<text xml:space="preserve" text-anchor="start" x="431.08" y="-315.85" font-family="Times New Roman,serif" font-weight="bold" font-size="13.00"> o3 </text>
</g>
<!-- 0xb752215d -->
<g id="node26" class="node">
<title>0xb752215d</title>
<text xml:space="preserve" text-anchor="start" x="184.38" y="-375.55" font-family="Times New Roman,serif" font-weight="bold" font-size="12.00">ye16</text>
<path fill="#f8f9fa" stroke="none" d="M166.83,-345.2C166.83,-345.2 225.17,-345.2 225.17,-345.2 229.58,-345.2 234,-349.62 234,-354.03 234,-354.03 234,-362.87 234,-362.87 234,-367.28 229.58,-371.7 225.17,-371.7 225.17,-371.7 166.83,-371.7 166.83,-371.7 162.42,-371.7 158,-367.28 158,-362.87 158,-362.87 158,-354.03 158,-354.03 158,-349.62 162.42,-345.2 166.83,-345.2"/>
<path fill="none" stroke="#333333" d="M166.83,-345.2C166.83,-345.2 225.17,-345.2 225.17,-345.2 229.58,-345.2 234,-349.62 234,-354.03 234,-354.03 234,-362.87 234,-362.87 234,-367.28 229.58,-371.7 225.17,-371.7 225.17,-371.7 166.83,-371.7 166.83,-371.7 162.42,-371.7 158,-367.28 158,-362.87 158,-362.87 158,-354.03 158,-354.03 158,-349.62 162.42,-345.2 166.83,-345.2"/>
<text xml:space="preserve" text-anchor="start" x="163" y="-354.4" font-family="Times New Roman,serif" font-weight="bold" font-size="14.00">S7, A3, 8, 1</text>
</g>
<!-- 0xc1087e9e -->
<g id="node52" class="node">
<title>0xc1087e9e</title>
<ellipse fill="white" stroke="black" stroke-width="0.8" cx="136" cy="-286.7" rx="3.6" ry="3.6"/>
</g>
<!-- 0xb752215d&#45;&gt;0xc1087e9e -->
<g id="edge61" class="edge">
<title>0xb752215d:box&#45;&gt;0xc1087e9e</title>
<path fill="none" stroke="#444444" d="M196,-345.2C196,-317.67 162.68,-299.24 145.7,-291.63"/>
<polygon fill="#444444" stroke="#444444" points="146.97,-289.89 140.62,-289.5 145.33,-293.76 146.97,-289.89"/>
<text xml:space="preserve" text-anchor="start" x="190.87" y="-315.85" font-family="Times New Roman,serif" font-weight="bold" font-size="13.00"> o2 </text>
</g>
<!-- 0x39efbd41&#45;&gt;0x2c61ab -->
<g id="edge26" class="edge">
<title>0x39efbd41&#45;&gt;0x2c61ab:box</title>
<path fill="none" stroke="#444444" stroke-dasharray="5,2" d="M360.78,-443.41C384.4,-443.08 511.84,-440.32 543,-418.95 565.89,-403.25 549.24,-366.32 568.71,-359.53"/>
<polygon fill="#444444" stroke="#444444" points="568.88,-361.63 574.5,-358.67 568.26,-357.48 568.88,-361.63"/>
<text xml:space="preserve" text-anchor="start" x="553.76" y="-407.6" font-family="Times New Roman,serif" font-weight="bold" font-size="13.00"> o2 </text>
</g>
<!-- 0x39efbd41&#45;&gt;0xe9ccaf5e -->
<g id="edge27" class="edge">
<title>0x39efbd41&#45;&gt;0xe9ccaf5e:box</title>
<path fill="none" stroke="#444444" stroke-dasharray="5,2" d="M359.05,-441.35C370.63,-429.33 426.79,-369.52 406.39,-359.79"/>
<polygon fill="#444444" stroke="#444444" points="406.77,-357.72 400.49,-358.72 406.02,-361.86 406.77,-357.72"/>
<text xml:space="preserve" text-anchor="start" x="389.93" y="-407.6" font-family="Times New Roman,serif" font-weight="bold" font-size="13.00"> ε </text>
</g>
<!-- 0x39efbd41&#45;&gt;0xb752215d -->
<g id="edge28" class="edge">
<title>0x39efbd41&#45;&gt;0xb752215d:box</title>
<path fill="none" stroke="#444444" stroke-dasharray="5,2" d="M355.32,-441C345.94,-427.63 298.5,-363.99 242.26,-358.79"/>
<polygon fill="#444444" stroke="#444444" points="242.6,-356.7 236.51,-358.52 242.41,-360.9 242.6,-356.7"/>
<text xml:space="preserve" text-anchor="start" x="337.39" y="-407.6" font-family="Times New Roman,serif" font-weight="bold" font-size="13.00"> o3 </text>
</g>
<!-- 0x905323a9 -->
<g id="node28" class="node">
<title>0x905323a9</title>
<text xml:space="preserve" text-anchor="start" x="320.38" y="-217.8" font-family="Times New Roman,serif" font-weight="bold" font-size="12.00">ye17</text>
<path fill="#f8f9fa" stroke="none" d="M302.83,-187.45C302.83,-187.45 361.17,-187.45 361.17,-187.45 365.58,-187.45 370,-191.87 370,-196.28 370,-196.28 370,-205.12 370,-205.12 370,-209.53 365.58,-213.95 361.17,-213.95 361.17,-213.95 302.83,-213.95 302.83,-213.95 298.42,-213.95 294,-209.53 294,-205.12 294,-205.12 294,-196.28 294,-196.28 294,-191.87 298.42,-187.45 302.83,-187.45"/>
<path fill="none" stroke="#333333" d="M302.83,-187.45C302.83,-187.45 361.17,-187.45 361.17,-187.45 365.58,-187.45 370,-191.87 370,-196.28 370,-196.28 370,-205.12 370,-205.12 370,-209.53 365.58,-213.95 361.17,-213.95 361.17,-213.95 302.83,-213.95 302.83,-213.95 298.42,-213.95 294,-209.53 294,-205.12 294,-205.12 294,-196.28 294,-196.28 294,-191.87 298.42,-187.45 302.83,-187.45"/>
<text xml:space="preserve" text-anchor="start" x="299" y="-196.65" font-family="Times New Roman,serif" font-weight="bold" font-size="14.00">S1, A6, 4, 0</text>
<text xml:space="preserve" text-anchor="start" x="326.38" y="-172.25" font-family="Times New Roman,serif" font-size="16.00">...</text>
</g>
<!-- 0x951ee852&#45;&gt;0x905323a9 -->
<g id="edge30" class="edge">
<title>0x951ee852&#45;&gt;0x905323a9:box</title>
<path fill="none" stroke="#444444" stroke-dasharray="5,2" d="M287.81,-315.78C286.84,-300.38 282.7,-228.4 288.7,-206.83"/>
<polygon fill="#444444" stroke="#444444" points="290.4,-208.06 292.13,-201.94 286.97,-205.65 290.4,-208.06"/>
<text xml:space="preserve" text-anchor="start" x="286.6" y="-282.85" font-family="Times New Roman,serif" font-weight="bold" font-size="13.00"> uo1 </text>
</g>
<!-- 0xc4d8bf04 -->
<g id="node30" class="node">
<title>0xc4d8bf04</title>
<text xml:space="preserve" text-anchor="start" x="516.38" y="-217.8" font-family="Times New Roman,serif" font-weight="bold" font-size="12.00">ye18</text>
<path fill="#f8f9fa" stroke="none" d="M498.83,-187.45C498.83,-187.45 557.17,-187.45 557.17,-187.45 561.58,-187.45 566,-191.87 566,-196.28 566,-196.28 566,-205.12 566,-205.12 566,-209.53 561.58,-213.95 557.17,-213.95 557.17,-213.95 498.83,-213.95 498.83,-213.95 494.42,-213.95 490,-209.53 490,-205.12 490,-205.12 490,-196.28 490,-196.28 490,-191.87 494.42,-187.45 498.83,-187.45"/>
<path fill="none" stroke="#333333" d="M498.83,-187.45C498.83,-187.45 557.17,-187.45 557.17,-187.45 561.58,-187.45 566,-191.87 566,-196.28 566,-196.28 566,-205.12 566,-205.12 566,-209.53 561.58,-213.95 557.17,-213.95 557.17,-213.95 498.83,-213.95 498.83,-213.95 494.42,-213.95 490,-209.53 490,-205.12 490,-205.12 490,-196.28 490,-196.28 490,-191.87 494.42,-187.45 498.83,-187.45"/>
<text xml:space="preserve" text-anchor="start" x="495" y="-196.65" font-family="Times New Roman,serif" font-weight="bold" font-size="14.00">S7, A6, 4, 1</text>
<text xml:space="preserve" text-anchor="start" x="522.38" y="-172.25" font-family="Times New Roman,serif" font-size="16.00">...</text>
</g>
<!-- 0x51bf55dd&#45;&gt;0xc4d8bf04 -->
<g id="edge32" class="edge">
<title>0x51bf55dd&#45;&gt;0xc4d8bf04:box</title>
<path fill="none" stroke="#444444" stroke-dasharray="5,2" d="M527.5,-407.51C524.77,-390.58 512.92,-304.31 544,-246.2 549.96,-235.06 560.38,-239.52 566,-228.2 569.82,-220.5 574.81,-210.03 573.18,-204.5"/>
<polygon fill="#444444" stroke="#444444" points="574.5,-202.84 568.29,-201.49 572.31,-206.42 574.5,-202.84"/>
<text xml:space="preserve" text-anchor="start" x="525.05" y="-315.85" font-family="Times New Roman,serif" font-weight="bold" font-size="13.00"> uo1 </text>
</g>
<!-- 0xc2eeb9cf -->
<g id="node32" class="node">
<title>0xc2eeb9cf</title>
<text xml:space="preserve" text-anchor="start" x="237.38" y="-552.05" font-family="Times New Roman,serif" font-weight="bold" font-size="12.00">ye19</text>
<path fill="#f8f9fa" stroke="none" d="M219.83,-521.7C219.83,-521.7 278.17,-521.7 278.17,-521.7 282.58,-521.7 287,-526.12 287,-530.53 287,-530.53 287,-539.37 287,-539.37 287,-543.78 282.58,-548.2 278.17,-548.2 278.17,-548.2 219.83,-548.2 219.83,-548.2 215.42,-548.2 211,-543.78 211,-539.37 211,-539.37 211,-530.53 211,-530.53 211,-526.12 215.42,-521.7 219.83,-521.7"/>
<path fill="none" stroke="#333333" d="M219.83,-521.7C219.83,-521.7 278.17,-521.7 278.17,-521.7 282.58,-521.7 287,-526.12 287,-530.53 287,-530.53 287,-539.37 287,-539.37 287,-543.78 282.58,-548.2 278.17,-548.2 278.17,-548.2 219.83,-548.2 219.83,-548.2 215.42,-548.2 211,-543.78 211,-539.37 211,-539.37 211,-530.53 211,-530.53 211,-526.12 215.42,-521.7 219.83,-521.7"/>
<text xml:space="preserve" text-anchor="start" x="216" y="-530.9" font-family="Times New Roman,serif" font-weight="bold" font-size="14.00">S0, A7, 5, 0</text>
<text xml:space="preserve" text-anchor="start" x="243.38" y="-506.5" font-family="Times New Roman,serif" font-size="16.00">...</text>
</g>
<!-- 0xd1b9ef78&#45;&gt;0xc2eeb9cf -->
<g id="edge34" class="edge">
<title>0xd1b9ef78&#45;&gt;0xc2eeb9cf:box</title>
<path fill="none" stroke="#444444" stroke-dasharray="5,2" d="M251.29,-613.87C258.27,-607.08 279.24,-585.35 287,-562.45 289.64,-554.67 294.7,-544.93 294.03,-539.38"/>
<polygon fill="#444444" stroke="#444444" points="295.3,-537.7 289.22,-535.85 292.82,-541.09 295.3,-537.7"/>
<text xml:space="preserve" text-anchor="start" x="277.59" y="-584.1" font-family="Times New Roman,serif" font-weight="bold" font-size="13.00"> o1 </text>
</g>
<!-- 0x9ef1e309&#45;&gt;0xc6588f2d -->
<g id="edge36" class="edge">
<title>0x9ef1e309&#45;&gt;0xc6588f2d:box</title>
<path fill="none" stroke="#444444" stroke-dasharray="5,2" d="M349.01,-613.81C360.49,-600.92 416.43,-536.27 393.18,-526.75"/>
<polygon fill="#444444" stroke="#444444" points="393.75,-524.71 387.49,-525.82 393.08,-528.86 393.75,-524.71"/>
<text xml:space="preserve" text-anchor="start" x="374.97" y="-584.1" font-family="Times New Roman,serif" font-weight="bold" font-size="13.00"> uo3 </text>
</g>
<!-- 0x813595ad&#45;&gt;0x7ade2a88 -->
<g id="edge38" class="edge">
<title>0x813595ad&#45;&gt;0x7ade2a88:box</title>
<path fill="none" stroke="#444444" stroke-dasharray="5,2" d="M530.84,-613.81C518.53,-600.92 458.42,-536.27 481.72,-526.75"/>
<polygon fill="#444444" stroke="#444444" points="481.92,-528.84 487.51,-525.82 481.25,-524.7 481.92,-528.84"/>
<text xml:space="preserve" text-anchor="start" x="513.37" y="-584.1" font-family="Times New Roman,serif" font-weight="bold" font-size="13.00"> uo3 </text>
</g>
<!-- 0x8178a1d7 -->
<g id="node36" class="node">
<title>0x8178a1d7</title>
<text xml:space="preserve" text-anchor="start" x="715.38" y="-208.42" font-family="Times New Roman,serif" font-weight="bold" font-size="12.00">ye20</text>
<path fill="#fff1f2" stroke="none" d="M695.21,-178.07C695.21,-178.07 758.79,-178.07 758.79,-178.07 763.21,-178.07 767.62,-182.49 767.62,-186.91 767.62,-186.91 767.62,-195.74 767.62,-195.74 767.62,-200.16 763.21,-204.57 758.79,-204.57 758.79,-204.57 695.21,-204.57 695.21,-204.57 690.79,-204.57 686.38,-200.16 686.38,-195.74 686.38,-195.74 686.38,-186.91 686.38,-186.91 686.38,-182.49 690.79,-178.07 695.21,-178.07"/>
<path fill="none" stroke="#9f1239" d="M695.21,-178.07C695.21,-178.07 758.79,-178.07 758.79,-178.07 763.21,-178.07 767.62,-182.49 767.62,-186.91 767.62,-186.91 767.62,-195.74 767.62,-195.74 767.62,-200.16 763.21,-204.57 758.79,-204.57 758.79,-204.57 695.21,-204.57 695.21,-204.57 690.79,-204.57 686.38,-200.16 686.38,-195.74 686.38,-195.74 686.38,-186.91 686.38,-186.91 686.38,-182.49 690.79,-178.07 695.21,-178.07"/>
<text xml:space="preserve" text-anchor="start" x="691.38" y="-187.27" font-family="Times New Roman,serif" font-weight="bold" font-size="14.00">AX, A1, 5, 2</text>
</g>
<!-- 0x5e1ff7ab -->
<g id="node37" class="node">
<title>0x5e1ff7ab</title>
<text xml:space="preserve" text-anchor="start" x="418.38" y="-208.42" font-family="Times New Roman,serif" font-weight="bold" font-size="12.00">ye21</text>
<path fill="#f0fdf4" stroke="none" d="M400.83,-178.07C400.83,-178.07 459.17,-178.07 459.17,-178.07 463.58,-178.07 468,-182.49 468,-186.91 468,-186.91 468,-195.74 468,-195.74 468,-200.16 463.58,-204.57 459.17,-204.57 459.17,-204.57 400.83,-204.57 400.83,-204.57 396.42,-204.57 392,-200.16 392,-195.74 392,-195.74 392,-186.91 392,-186.91 392,-182.49 396.42,-178.07 400.83,-178.07"/>
<path fill="none" stroke="#166534" d="M400.83,-178.07C400.83,-178.07 459.17,-178.07 459.17,-178.07 463.58,-178.07 468,-182.49 468,-186.91 468,-186.91 468,-195.74 468,-195.74 468,-200.16 463.58,-204.57 459.17,-204.57 459.17,-204.57 400.83,-204.57 400.83,-204.57 396.42,-204.57 392,-200.16 392,-195.74 392,-195.74 392,-186.91 392,-186.91 392,-182.49 396.42,-178.07 400.83,-178.07"/>
<text xml:space="preserve" text-anchor="start" x="397" y="-187.27" font-family="Times New Roman,serif" font-weight="bold" font-size="14.00">S8, A1, 5, 2</text>
</g>
<!-- 0x5bb61880&#45;&gt;0x8178a1d7 -->
<g id="edge40" class="edge">
<title>0x5bb61880&#45;&gt;0x8178a1d7:box</title>
<path fill="none" stroke="#444444" stroke-dasharray="5,2" d="M608.45,-282.8C607.27,-275.63 605.29,-256.91 614.5,-246.2 632.79,-224.92 655.31,-248.18 675,-228.2 684.33,-218.72 675.03,-201.55 678.62,-194.49"/>
<polygon fill="#444444" stroke="#444444" points="679.46,-196.41 684,-191.97 677.68,-192.61 679.46,-196.41"/>
<text xml:space="preserve" text-anchor="start" x="614.5" y="-249.85" font-family="Times New Roman,serif" font-weight="bold" font-size="13.00"> o2 </text>
</g>
<!-- 0x5bb61880&#45;&gt;0x8178a1d7 -->
<g id="edge42" class="edge">
<title>0x5bb61880&#45;&gt;0x8178a1d7:box</title>
<path fill="none" stroke="#444444" stroke-dasharray="5,2" d="M611.76,-284.13C621.88,-278.21 657.28,-256.19 675,-228.2 682.25,-216.74 673.72,-200.13 678.57,-193.85"/>
<polygon fill="#444444" stroke="#444444" points="679.06,-195.91 683.96,-191.85 677.6,-191.97 679.06,-195.91"/>
<text xml:space="preserve" text-anchor="start" x="660.15" y="-249.85" font-family="Times New Roman,serif" font-weight="bold" font-size="13.00"> o3 </text>
</g>
<!-- 0x5bb61880&#45;&gt;0x5e1ff7ab -->
<g id="edge41" class="edge">
<title>0x5bb61880&#45;&gt;0x5e1ff7ab:box</title>
<path fill="none" stroke="#444444" stroke-dasharray="5,2" d="M605.51,-285.01C594.08,-282.69 556.94,-274.51 528.75,-261.2 504.76,-249.87 494.52,-249.72 479,-228.2 471.08,-217.23 480.22,-200.33 475.66,-193.91"/>
<polygon fill="#444444" stroke="#444444" points="476.76,-192.09 470.41,-191.87 475.24,-196 476.76,-192.09"/>
<text xml:space="preserve" text-anchor="start" x="528.75" y="-249.85" font-family="Times New Roman,serif" font-weight="bold" font-size="13.00"> ε </text>
</g>
<!-- 0x11cbaca6 -->
<g id="node39" class="node">
<title>0x11cbaca6</title>
<text xml:space="preserve" text-anchor="start" x="917.38" y="-208.42" font-family="Times New Roman,serif" font-weight="bold" font-size="12.00">ye22</text>
<path fill="#fff1f2" stroke="none" d="M897.21,-178.07C897.21,-178.07 960.79,-178.07 960.79,-178.07 965.21,-178.07 969.62,-182.49 969.62,-186.91 969.62,-186.91 969.62,-195.74 969.62,-195.74 969.62,-200.16 965.21,-204.57 960.79,-204.57 960.79,-204.57 897.21,-204.57 897.21,-204.57 892.79,-204.57 888.38,-200.16 888.38,-195.74 888.38,-195.74 888.38,-186.91 888.38,-186.91 888.38,-182.49 892.79,-178.07 897.21,-178.07"/>
<path fill="none" stroke="#9f1239" d="M897.21,-178.07C897.21,-178.07 960.79,-178.07 960.79,-178.07 965.21,-178.07 969.62,-182.49 969.62,-186.91 969.62,-186.91 969.62,-195.74 969.62,-195.74 969.62,-200.16 965.21,-204.57 960.79,-204.57 960.79,-204.57 897.21,-204.57 897.21,-204.57 892.79,-204.57 888.38,-200.16 888.38,-195.74 888.38,-195.74 888.38,-186.91 888.38,-186.91 888.38,-182.49 892.79,-178.07 897.21,-178.07"/>
<text xml:space="preserve" text-anchor="start" x="893.38" y="-187.27" font-family="Times New Roman,serif" font-weight="bold" font-size="14.00">AX, A4, 4, 2</text>
</g>
<!-- 0xee73027a -->
<g id="node40" class="node">
<title>0xee73027a</title>
<text xml:space="preserve" text-anchor="start" x="816.38" y="-217.8" font-family="Times New Roman,serif" font-weight="bold" font-size="12.00">ye23</text>
<path fill="#f8f9fa" stroke="none" d="M798.83,-187.45C798.83,-187.45 857.17,-187.45 857.17,-187.45 861.58,-187.45 866,-191.87 866,-196.28 866,-196.28 866,-205.12 866,-205.12 866,-209.53 861.58,-213.95 857.17,-213.95 857.17,-213.95 798.83,-213.95 798.83,-213.95 794.42,-213.95 790,-209.53 790,-205.12 790,-205.12 790,-196.28 790,-196.28 790,-191.87 794.42,-187.45 798.83,-187.45"/>
<path fill="none" stroke="#333333" d="M798.83,-187.45C798.83,-187.45 857.17,-187.45 857.17,-187.45 861.58,-187.45 866,-191.87 866,-196.28 866,-196.28 866,-205.12 866,-205.12 866,-209.53 861.58,-213.95 857.17,-213.95 857.17,-213.95 798.83,-213.95 798.83,-213.95 794.42,-213.95 790,-209.53 790,-205.12 790,-205.12 790,-196.28 790,-196.28 790,-191.87 794.42,-187.45 798.83,-187.45"/>
<text xml:space="preserve" text-anchor="start" x="795" y="-196.65" font-family="Times New Roman,serif" font-weight="bold" font-size="14.00">S8, A4, 4, 2</text>
<text xml:space="preserve" text-anchor="start" x="822.38" y="-172.25" font-family="Times New Roman,serif" font-size="16.00">...</text>
</g>
<!-- 0xf907bd83&#45;&gt;0x11cbaca6 -->
<g id="edge44" class="edge">
<title>0xf907bd83&#45;&gt;0x11cbaca6:box</title>
<path fill="none" stroke="#444444" stroke-dasharray="5,2" d="M854.63,-285.14C863.99,-283.48 888.94,-277.64 899,-261.2 909.14,-244.64 892.29,-237.84 888.38,-218.82 886.75,-210.96 881.56,-201.58 881.64,-196.05"/>
<polygon fill="#444444" stroke="#444444" points="882.91,-197.73 886.21,-192.29 880.24,-194.49 882.91,-197.73"/>
<text xml:space="preserve" text-anchor="start" x="902.2" y="-249.85" font-family="Times New Roman,serif" font-weight="bold" font-size="13.00"> o2 </text>
</g>
<!-- 0xf907bd83&#45;&gt;0x11cbaca6 -->
<g id="edge46" class="edge">
<title>0xf907bd83&#45;&gt;0x11cbaca6:box</title>
<path fill="none" stroke="#444444" stroke-dasharray="5,2" d="M852.34,-283.12C856.44,-275.13 869.05,-250.02 877,-228.2 881.65,-215.45 874.66,-199.61 880.25,-193.69"/>
<polygon fill="#444444" stroke="#444444" points="880.91,-195.69 885.94,-191.8 879.58,-191.7 880.91,-195.69"/>
<text xml:space="preserve" text-anchor="start" x="869.46" y="-249.85" font-family="Times New Roman,serif" font-weight="bold" font-size="13.00"> o3 </text>
</g>
<!-- 0xf907bd83&#45;&gt;0xee73027a -->
<g id="edge45" class="edge">
<title>0xf907bd83&#45;&gt;0xee73027a:box</title>
<path fill="none" stroke="#444444" stroke-dasharray="5,2" d="M848.8,-283.46C842.98,-277.26 828.19,-259.49 835.75,-246.2 843.48,-232.6 858.02,-241.66 866,-228.2 870.39,-220.8 875.14,-210.21 873.33,-204.58"/>
<polygon fill="#444444" stroke="#444444" points="874.5,-202.83 868.29,-201.49 872.31,-206.41 874.5,-202.83"/>
<text xml:space="preserve" text-anchor="start" x="835.75" y="-249.85" font-family="Times New Roman,serif" font-weight="bold" font-size="13.00"> ε </text>
</g>
<!-- 0x3e01cc7f -->
<g id="node42" class="node">
<title>0x3e01cc7f</title>
<text xml:space="preserve" text-anchor="start" x="571.38" y="-39.73" font-family="Times New Roman,serif" font-weight="bold" font-size="12.00">ye24</text>
<path fill="#fff1f2" stroke="none" d="M551.21,-9.38C551.21,-9.38 614.79,-9.38 614.79,-9.38 619.21,-9.38 623.62,-13.79 623.62,-18.21 623.62,-18.21 623.62,-27.04 623.62,-27.04 623.62,-31.46 619.21,-35.88 614.79,-35.88 614.79,-35.88 551.21,-35.88 551.21,-35.88 546.79,-35.88 542.38,-31.46 542.38,-27.04 542.38,-27.04 542.38,-18.21 542.38,-18.21 542.38,-13.79 546.79,-9.38 551.21,-9.38"/>
<path fill="none" stroke="#9f1239" d="M551.21,-9.38C551.21,-9.38 614.79,-9.38 614.79,-9.38 619.21,-9.38 623.62,-13.79 623.62,-18.21 623.62,-18.21 623.62,-27.04 623.62,-27.04 623.62,-31.46 619.21,-35.88 614.79,-35.88 614.79,-35.88 551.21,-35.88 551.21,-35.88 546.79,-35.88 542.38,-31.46 542.38,-27.04 542.38,-27.04 542.38,-18.21 542.38,-18.21 542.38,-13.79 546.79,-9.38 551.21,-9.38"/>
<text xml:space="preserve" text-anchor="start" x="547.38" y="-18.57" font-family="Times New Roman,serif" font-weight="bold" font-size="14.00">AX, A5, 1, 2</text>
</g>
<!-- 0x9aa92253 -->
<g id="node43" class="node">
<title>0x9aa92253</title>
<text xml:space="preserve" text-anchor="start" x="470.38" y="-49.1" font-family="Times New Roman,serif" font-weight="bold" font-size="12.00">ye25</text>
<path fill="#f8f9fa" stroke="none" d="M452.83,-18.75C452.83,-18.75 511.17,-18.75 511.17,-18.75 515.58,-18.75 520,-23.17 520,-27.58 520,-27.58 520,-36.42 520,-36.42 520,-40.83 515.58,-45.25 511.17,-45.25 511.17,-45.25 452.83,-45.25 452.83,-45.25 448.42,-45.25 444,-40.83 444,-36.42 444,-36.42 444,-27.58 444,-27.58 444,-23.17 448.42,-18.75 452.83,-18.75"/>
<path fill="none" stroke="#333333" d="M452.83,-18.75C452.83,-18.75 511.17,-18.75 511.17,-18.75 515.58,-18.75 520,-23.17 520,-27.58 520,-27.58 520,-36.42 520,-36.42 520,-40.83 515.58,-45.25 511.17,-45.25 511.17,-45.25 452.83,-45.25 452.83,-45.25 448.42,-45.25 444,-40.83 444,-36.42 444,-36.42 444,-27.58 444,-27.58 444,-23.17 448.42,-18.75 452.83,-18.75"/>
<text xml:space="preserve" text-anchor="start" x="449" y="-27.95" font-family="Times New Roman,serif" font-weight="bold" font-size="14.00">S8, A5, 1, 2</text>
<text xml:space="preserve" text-anchor="start" x="476.38" y="-3.55" font-family="Times New Roman,serif" font-size="16.00">...</text>
</g>
<!-- 0x127cc390&#45;&gt;0x3e01cc7f -->
<g id="edge48" class="edge">
<title>0x127cc390&#45;&gt;0x3e01cc7f:box</title>
<path fill="none" stroke="#444444" stroke-dasharray="5,2" d="M569.58,-111.31C578.99,-104.61 611.61,-79.84 623.62,-50.12 626.78,-42.33 631.85,-32.26 630.74,-26.72"/>
<polygon fill="#444444" stroke="#444444" points="632.04,-25.06 625.88,-23.47 629.7,-28.55 632.04,-25.06"/>
<text xml:space="preserve" text-anchor="start" x="606.4" y="-81.15" font-family="Times New Roman,serif" font-weight="bold" font-size="13.00"> o2 </text>
</g>
<!-- 0x127cc390&#45;&gt;0x3e01cc7f -->
<g id="edge50" class="edge">
<title>0x127cc390&#45;&gt;0x3e01cc7f:box</title>
<path fill="none" stroke="#444444" stroke-dasharray="5,2" d="M565.68,-110.49C559.47,-98.09 533.54,-45.02 536.16,-27.94"/>
<polygon fill="#444444" stroke="#444444" points="537.62,-29.46 540.32,-23.71 534.62,-26.52 537.62,-29.46"/>
<text xml:space="preserve" text-anchor="start" x="556.62" y="-81.15" font-family="Times New Roman,serif" font-weight="bold" font-size="13.00"> o3 </text>
</g>
<!-- 0x127cc390&#45;&gt;0x9aa92253 -->
<g id="edge49" class="edge">
<title>0x127cc390&#45;&gt;0x9aa92253:box</title>
<path fill="none" stroke="#444444" stroke-dasharray="5,2" d="M563.75,-111.99C557.17,-109.57 542.24,-103.15 534.75,-92.5 528.31,-83.34 532.36,-49.12 526.71,-36.62"/>
<polygon fill="#444444" stroke="#444444" points="528.16,-35.09 522.18,-32.95 525.52,-38.36 528.16,-35.09"/>
<text xml:space="preserve" text-anchor="start" x="534.75" y="-81.15" font-family="Times New Roman,serif" font-weight="bold" font-size="13.00"> ε </text>
</g>
<!-- 0x499754bc -->
<g id="node45" class="node">
<title>0x499754bc</title>
<text xml:space="preserve" text-anchor="start" x="674.38" y="-39.73" font-family="Times New Roman,serif" font-weight="bold" font-size="12.00">ye26</text>
<path fill="#fff1f2" stroke="none" d="M654.21,-9.38C654.21,-9.38 717.79,-9.38 717.79,-9.38 722.21,-9.38 726.62,-13.79 726.62,-18.21 726.62,-18.21 726.62,-27.04 726.62,-27.04 726.62,-31.46 722.21,-35.88 717.79,-35.88 717.79,-35.88 654.21,-35.88 654.21,-35.88 649.79,-35.88 645.38,-31.46 645.38,-27.04 645.38,-27.04 645.38,-18.21 645.38,-18.21 645.38,-13.79 649.79,-9.38 654.21,-9.38"/>
<path fill="none" stroke="#9f1239" d="M654.21,-9.38C654.21,-9.38 717.79,-9.38 717.79,-9.38 722.21,-9.38 726.62,-13.79 726.62,-18.21 726.62,-18.21 726.62,-27.04 726.62,-27.04 726.62,-31.46 722.21,-35.88 717.79,-35.88 717.79,-35.88 654.21,-35.88 654.21,-35.88 649.79,-35.88 645.38,-31.46 645.38,-27.04 645.38,-27.04 645.38,-18.21 645.38,-18.21 645.38,-13.79 649.79,-9.38 654.21,-9.38"/>
<text xml:space="preserve" text-anchor="start" x="650.38" y="-18.57" font-family="Times New Roman,serif" font-weight="bold" font-size="14.00">AX, A6, 6, 2</text>
</g>
<!-- 0x3df2c6a&#45;&gt;0x499754bc -->
<g id="edge52" class="edge">
<title>0x3df2c6a&#45;&gt;0x499754bc:box</title>
<path fill="none" stroke="#444444" stroke-dasharray="5,2" d="M673.14,-111.21C686.74,-99.13 759.62,-32.95 734.96,-23.7"/>
<polygon fill="#444444" stroke="#444444" points="735.36,-21.63 729.12,-22.84 734.76,-25.79 735.36,-21.63"/>
<text xml:space="preserve" text-anchor="start" x="706.71" y="-81.15" font-family="Times New Roman,serif" font-weight="bold" font-size="13.00"> o1 </text>
</g>
<!-- 0xc1d47ad7 -->
<g id="node47" class="node">
<title>0xc1d47ad7</title>
<text xml:space="preserve" text-anchor="start" x="222.38" y="-208.42" font-family="Times New Roman,serif" font-weight="bold" font-size="12.00">ye27</text>
<path fill="#f0fdf4" stroke="none" d="M204.83,-178.07C204.83,-178.07 263.17,-178.07 263.17,-178.07 267.58,-178.07 272,-182.49 272,-186.91 272,-186.91 272,-195.74 272,-195.74 272,-200.16 267.58,-204.57 263.17,-204.57 263.17,-204.57 204.83,-204.57 204.83,-204.57 200.42,-204.57 196,-200.16 196,-195.74 196,-195.74 196,-186.91 196,-186.91 196,-182.49 200.42,-178.07 204.83,-178.07"/>
<path fill="none" stroke="#166534" d="M204.83,-178.07C204.83,-178.07 263.17,-178.07 263.17,-178.07 267.58,-178.07 272,-182.49 272,-186.91 272,-186.91 272,-195.74 272,-195.74 272,-200.16 267.58,-204.57 263.17,-204.57 263.17,-204.57 204.83,-204.57 204.83,-204.57 200.42,-204.57 196,-200.16 196,-195.74 196,-195.74 196,-186.91 196,-186.91 196,-182.49 200.42,-178.07 204.83,-178.07"/>
<text xml:space="preserve" text-anchor="start" x="201" y="-187.27" font-family="Times New Roman,serif" font-weight="bold" font-size="14.00">S1, A1, 5, 0</text>
</g>
<!-- 0x1545b75d -->
<g id="node48" class="node">
<title>0x1545b75d</title>
<text xml:space="preserve" text-anchor="start" x="124.38" y="-208.42" font-family="Times New Roman,serif" font-weight="bold" font-size="12.00">ye28</text>
<path fill="#f0fdf4" stroke="none" d="M106.83,-178.07C106.83,-178.07 165.17,-178.07 165.17,-178.07 169.58,-178.07 174,-182.49 174,-186.91 174,-186.91 174,-195.74 174,-195.74 174,-200.16 169.58,-204.57 165.17,-204.57 165.17,-204.57 106.83,-204.57 106.83,-204.57 102.42,-204.57 98,-200.16 98,-195.74 98,-195.74 98,-186.91 98,-186.91 98,-182.49 102.42,-178.07 106.83,-178.07"/>
<path fill="none" stroke="#166534" d="M106.83,-178.07C106.83,-178.07 165.17,-178.07 165.17,-178.07 169.58,-178.07 174,-182.49 174,-186.91 174,-186.91 174,-195.74 174,-195.74 174,-200.16 169.58,-204.57 165.17,-204.57 165.17,-204.57 106.83,-204.57 106.83,-204.57 102.42,-204.57 98,-200.16 98,-195.74 98,-195.74 98,-186.91 98,-186.91 98,-182.49 102.42,-178.07 106.83,-178.07"/>
<text xml:space="preserve" text-anchor="start" x="103" y="-187.27" font-family="Times New Roman,serif" font-weight="bold" font-size="14.00">S7, A1, 5, 1</text>
</g>
<!-- 0xcca7ba55&#45;&gt;0x5e1ff7ab -->
<g id="edge54" class="edge">
<title>0xcca7ba55&#45;&gt;0x5e1ff7ab:box</title>
<path fill="none" stroke="#444444" stroke-dasharray="5,2" d="M350.91,-283.11C353.24,-276.65 359.76,-259.4 367.5,-246.2 372.56,-237.57 376.61,-237.19 381,-228.2 386.94,-216.04 378.98,-199.84 384.09,-193.77"/>
<polygon fill="#444444" stroke="#444444" points="384.62,-195.81 389.57,-191.83 383.22,-191.85 384.62,-195.81"/>
<text xml:space="preserve" text-anchor="start" x="367.5" y="-249.85" font-family="Times New Roman,serif" font-weight="bold" font-size="13.00"> o2 </text>
</g>
<!-- 0xcca7ba55&#45;&gt;0xc1d47ad7 -->
<g id="edge55" class="edge">
<title>0xcca7ba55&#45;&gt;0xc1d47ad7:box</title>
<path fill="none" stroke="#444444" stroke-dasharray="5,2" d="M347.19,-284.14C336.88,-278.28 300.84,-256.45 283,-228.2 275.78,-216.76 284.5,-200.14 279.75,-193.86"/>
<polygon fill="#444444" stroke="#444444" points="280.77,-192 274.42,-191.86 279.3,-195.93 280.77,-192"/>
<text xml:space="preserve" text-anchor="start" x="312.66" y="-249.85" font-family="Times New Roman,serif" font-weight="bold" font-size="13.00"> ε </text>
</g>
<!-- 0xcca7ba55&#45;&gt;0x1545b75d -->
<g id="edge56" class="edge">
<title>0xcca7ba55&#45;&gt;0x1545b75d:box</title>
<path fill="none" stroke="#444444" stroke-dasharray="5,2" d="M346.55,-284.96C324.96,-280.3 208.71,-254.2 185,-228.2 176.06,-218.4 185.35,-201.4 181.74,-194.44"/>
<polygon fill="#444444" stroke="#444444" points="182.7,-192.57 176.37,-191.96 180.94,-196.38 182.7,-192.57"/>
<text xml:space="preserve" text-anchor="start" x="254.38" y="-249.85" font-family="Times New Roman,serif" font-weight="bold" font-size="13.00"> o3 </text>
</g>
<!-- 0xbed1039c&#45;&gt;0xa6b2d5f6 -->
<g id="edge58" class="edge">
<title>0xbed1039c&#45;&gt;0xa6b2d5f6:box</title>
<path fill="none" stroke="#444444" stroke-dasharray="5,2" d="M436.58,-285.55C450.7,-284.81 503.53,-280.83 541,-261.2 560.23,-251.13 565.71,-246.74 577,-228.2 584.04,-216.64 575.43,-200.09 580.23,-193.84"/>
<polygon fill="#444444" stroke="#444444" points="580.69,-195.91 585.58,-191.85 579.23,-191.97 580.69,-195.91"/>
<text xml:space="preserve" text-anchor="start" x="563.51" y="-249.85" font-family="Times New Roman,serif" font-weight="bold" font-size="13.00"> o2 </text>
</g>
<!-- 0xbed1039c&#45;&gt;0x905323a9 -->
<g id="edge59" class="edge">
<title>0xbed1039c&#45;&gt;0x905323a9:box</title>
<path fill="none" stroke="#444444" stroke-dasharray="5,2" d="M430.69,-283.75C422.71,-276.92 396,-253.11 381,-228.2 376.18,-220.19 379.84,-209.49 377.45,-204.1"/>
<polygon fill="#444444" stroke="#444444" points="378.63,-202.35 372.34,-201.41 376.67,-206.06 378.63,-202.35"/>
<text xml:space="preserve" text-anchor="start" x="406.98" y="-249.85" font-family="Times New Roman,serif" font-weight="bold" font-size="13.00"> ε </text>
</g>
<!-- 0xbed1039c&#45;&gt;0xc4d8bf04 -->
<g id="edge60" class="edge">
<title>0xbed1039c&#45;&gt;0xc4d8bf04:box</title>
<path fill="none" stroke="#444444" stroke-dasharray="5,2" d="M433.82,-282.93C435.96,-276.06 442.26,-257.97 452.5,-246.2 461.85,-235.46 470.25,-239.44 479,-228.2 484.62,-220.98 480.85,-210.32 482.64,-204.62"/>
<polygon fill="#444444" stroke="#444444" points="483.71,-206.43 487.71,-201.49 481.5,-202.86 483.71,-206.43"/>
<text xml:space="preserve" text-anchor="start" x="452.5" y="-249.85" font-family="Times New Roman,serif" font-weight="bold" font-size="13.00"> o3 </text>
</g>
<!-- 0x492497a5 -->
<g id="node51" class="node">
<title>0x492497a5</title>
<text xml:space="preserve" text-anchor="start" x="26.38" y="-208.42" font-family="Times New Roman,serif" font-weight="bold" font-size="12.00">ye29</text>
<path fill="#f0fdf4" stroke="none" d="M8.83,-178.07C8.83,-178.07 67.17,-178.07 67.17,-178.07 71.58,-178.07 76,-182.49 76,-186.91 76,-186.91 76,-195.74 76,-195.74 76,-200.16 71.58,-204.57 67.17,-204.57 67.17,-204.57 8.83,-204.57 8.83,-204.57 4.42,-204.57 0,-200.16 0,-195.74 0,-195.74 0,-186.91 0,-186.91 0,-182.49 4.42,-178.07 8.83,-178.07"/>
<path fill="none" stroke="#166534" d="M8.83,-178.07C8.83,-178.07 67.17,-178.07 67.17,-178.07 71.58,-178.07 76,-182.49 76,-186.91 76,-186.91 76,-195.74 76,-195.74 76,-200.16 71.58,-204.57 67.17,-204.57 67.17,-204.57 8.83,-204.57 8.83,-204.57 4.42,-204.57 0,-200.16 0,-195.74 0,-195.74 0,-186.91 0,-186.91 0,-182.49 4.42,-178.07 8.83,-178.07"/>
<text xml:space="preserve" text-anchor="start" x="5" y="-187.27" font-family="Times New Roman,serif" font-weight="bold" font-size="14.00">S4, A1, 5, 1</text>
</g>
<!-- 0xc1087e9e&#45;&gt;0x1545b75d -->
<g id="edge63" class="edge">
<title>0xc1087e9e&#45;&gt;0x1545b75d:box</title>
<path fill="none" stroke="#444444" stroke-dasharray="5,2" d="M137.92,-283.34C144.49,-275.11 166.12,-246.57 174,-218.82 176.24,-210.92 181.44,-201.22 180.91,-195.71"/>
<polygon fill="#444444" stroke="#444444" points="182.28,-194.12 176.22,-192.23 179.78,-197.49 182.28,-194.12"/>
<text xml:space="preserve" text-anchor="start" x="162.5" y="-249.85" font-family="Times New Roman,serif" font-weight="bold" font-size="13.00"> ε </text>
</g>
<!-- 0xc1087e9e&#45;&gt;0x492497a5 -->
<g id="edge62" class="edge">
<title>0xc1087e9e&#45;&gt;0x492497a5:box</title>
<path fill="none" stroke="#444444" stroke-dasharray="5,2" d="M133.75,-283.76C126.01,-276.97 100.21,-253.26 87,-228.2 80.69,-216.23 88.87,-199.92 83.86,-193.79"/>
<polygon fill="#444444" stroke="#444444" points="84.78,-191.89 78.42,-191.84 83.36,-195.84 84.78,-191.89"/>
<text xml:space="preserve" text-anchor="start" x="109.93" y="-249.85" font-family="Times New Roman,serif" font-weight="bold" font-size="13.00"> o2 </text>
</g>
</g>
</svg>
