<?xml version="1.0" encoding="UTF-8" standalone="no"?>
<!DOCTYPE svg PUBLIC "-//W3C//DTD SVG 1.1//EN"
 "http://www.w3.org/Graphics/SVG/1.1/DTD/svg11.dtd">
<!-- Generated by graphviz version 14.1.1 (20251213.1925)
 -->
<!-- Pages: 1 -->
<svg width="252pt" height="348pt"
 viewBox="0.00 0.00 252.00 348.00" xmlns="http://www.w3.org/2000/svg" xmlns:xlink="http://www.w3.org/1999/xlink">
<g id="graph0" class="graph" transform="scale(0.442591 0.442591) rotate(0) translate(4 781.71)">
<polygon fill="white" stroke="none" points="-4,4 -4,-781.71 565.38,-781.71 565.38,4 -4,4"/>
<!-- 0x58a886a -->
<g id="node1" class="node">
<title>0x58a886a</title>
<polygon fill="#eff6ff" stroke="#1d4ed8" points="122.82,-230.86 122.82,-245.78 105.57,-256.32 81.18,-256.32 63.93,-245.78 63.93,-230.86 81.18,-220.32 105.57,-220.32 122.82,-230.86"/>
<polygon fill="none" stroke="#1d4ed8" points="126.82,-228.62 126.82,-248.02 106.7,-260.32 80.05,-260.32 59.93,-248.02 59.93,-228.62 80.05,-216.32 106.7,-216.32 126.82,-228.62"/>
<text xml:space="preserve" text-anchor="start" x="76.5" y="-234.27" font-family="Times New Roman,serif" font-weight="bold" font-size="14.00">SCC0</text>
</g>
<!-- 0xc4452629 -->
<g id="node45" class="node">
<title>0xc4452629</title>
<ellipse fill="white" stroke="black" cx="93.38" cy="-184.24" rx="1.08" ry="1.08"/>
</g>
<!-- 0x58a886a&#45;&gt;0xc4452629 -->
<g id="edge53" class="edge">
<title>0x58a886a&#45;&gt;0xc4452629</title>
<path fill="none" stroke="black" d="M93.38,-215.84C93.38,-209.44 93.38,-202.66 93.38,-197.11"/>
<polygon fill="black" stroke="black" points="96.88,-197.17 93.38,-187.17 89.88,-197.17 96.88,-197.17"/>
<text xml:space="preserve" text-anchor="start" x="93.38" y="-198.67" font-family="Times New Roman,serif" font-size="7.00">o2</text>
</g>
<!-- 0xc50e3d5b -->
<g id="node2" class="node">
<title>0xc50e3d5b</title>
<path fill="#f8f9fa" stroke="none" d="M23.83,-435.76C23.83,-435.76 104.92,-435.76 104.92,-435.76 107.21,-435.76 109.5,-438.06 109.5,-440.35 109.5,-440.35 109.5,-444.93 109.5,-444.93 109.5,-447.22 107.21,-449.51 104.92,-449.51 104.92,-449.51 23.83,-449.51 23.83,-449.51 21.54,-449.51 19.25,-447.22 19.25,-444.93 19.25,-444.93 19.25,-440.35 19.25,-440.35 19.25,-438.06 21.54,-435.76 23.83,-435.76"/>
<path fill="none" stroke="#333333" d="M23.83,-435.76C23.83,-435.76 104.92,-435.76 104.92,-435.76 107.21,-435.76 109.5,-438.06 109.5,-440.35 109.5,-440.35 109.5,-444.93 109.5,-444.93 109.5,-447.22 107.21,-449.51 104.92,-449.51 104.92,-449.51 23.83,-449.51 23.83,-449.51 21.54,-449.51 19.25,-447.22 19.25,-444.93 19.25,-444.93 19.25,-440.35 19.25,-440.35 19.25,-438.06 21.54,-435.76 23.83,-435.76"/>
<text xml:space="preserve" text-anchor="start" x="21.25" y="-440.91" font-family="Times New Roman,serif" font-weight="bold" font-size="8.00">{ye16,ye34,ye44,ye54,ye6}</text>
<text xml:space="preserve" text-anchor="start" x="0" y="-462.79" font-family="Times New Roman,serif" font-size="8.00">qe6</text>
</g>
<!-- 0x4a84acaf -->
<g id="node33" class="node">
<title>0x4a84acaf</title>
<ellipse fill="white" stroke="black" cx="73.38" cy="-392.56" rx="1.08" ry="1.08"/>
</g>
<!-- 0xc50e3d5b&#45;&gt;0x4a84acaf -->
<g id="edge27" class="edge">
<title>0xc50e3d5b:m&#45;&gt;0x4a84acaf</title>
<path fill="none" stroke="black" d="M65.41,-436.12C66.83,-428.54 69.42,-414.71 71.26,-404.88"/>
<polygon fill="black" stroke="black" points="74.63,-405.86 73.03,-395.39 67.75,-404.57 74.63,-405.86"/>
<text xml:space="preserve" text-anchor="start" x="71.2" y="-406.99" font-family="Times New Roman,serif" font-size="7.00">o2</text>
</g>
<!-- 0x8551cfdf -->
<g id="node3" class="node">
<title>0x8551cfdf</title>
<polygon fill="#eff6ff" stroke="#1d4ed8" points="120.82,-14.54 120.82,-29.46 103.57,-40 79.18,-40 61.93,-29.46 61.93,-14.54 79.18,-4 103.57,-4 120.82,-14.54"/>
<polygon fill="none" stroke="#1d4ed8" points="124.82,-12.3 124.82,-31.7 104.7,-44 78.05,-44 57.93,-31.7 57.93,-12.3 78.05,0 104.7,0 124.82,-12.3"/>
<text xml:space="preserve" text-anchor="start" x="74.5" y="-17.95" font-family="Times New Roman,serif" font-weight="bold" font-size="14.00">SCC2</text>
</g>
<!-- 0x237e47d -->
<g id="node4" class="node">
<title>0x237e47d</title>
<polygon fill="#eff6ff" stroke="#1d4ed8" points="348.82,-122.7 348.82,-137.62 331.57,-148.16 307.18,-148.16 289.93,-137.62 289.93,-122.7 307.18,-112.16 331.57,-112.16 348.82,-122.7"/>
<polygon fill="none" stroke="#1d4ed8" points="352.82,-120.46 352.82,-139.86 332.7,-152.16 306.05,-152.16 285.93,-139.86 285.93,-120.46 306.05,-108.16 332.7,-108.16 352.82,-120.46"/>
<text xml:space="preserve" text-anchor="start" x="302.5" y="-126.11" font-family="Times New Roman,serif" font-weight="bold" font-size="14.00">SCC1</text>
</g>
<!-- 0x4e8811fa -->
<g id="node42" class="node">
<title>0x4e8811fa</title>
<ellipse fill="white" stroke="black" cx="319.38" cy="-76.08" rx="1.08" ry="1.08"/>
</g>
<!-- 0x237e47d&#45;&gt;0x4e8811fa -->
<g id="edge47" class="edge">
<title>0x237e47d&#45;&gt;0x4e8811fa</title>
<path fill="none" stroke="black" d="M319.38,-107.68C319.38,-101.28 319.38,-94.5 319.38,-88.95"/>
<polygon fill="black" stroke="black" points="322.88,-89.01 319.38,-79.01 315.88,-89.01 322.88,-89.01"/>
<text xml:space="preserve" text-anchor="start" x="319.38" y="-90.51" font-family="Times New Roman,serif" font-size="7.00">o2</text>
</g>
<!-- 0x9da9bb4d -->
<g id="node5" class="node">
<title>0x9da9bb4d</title>
<path fill="#f8f9fa" stroke="none" d="M297.08,-231.44C297.08,-231.44 433.67,-231.44 433.67,-231.44 435.96,-231.44 438.25,-233.74 438.25,-236.03 438.25,-236.03 438.25,-240.61 438.25,-240.61 438.25,-242.9 435.96,-245.19 433.67,-245.19 433.67,-245.19 297.08,-245.19 297.08,-245.19 294.79,-245.19 292.5,-242.9 292.5,-240.61 292.5,-240.61 292.5,-236.03 292.5,-236.03 292.5,-233.74 294.79,-231.44 297.08,-231.44"/>
<path fill="none" stroke="#333333" d="M297.08,-231.44C297.08,-231.44 433.67,-231.44 433.67,-231.44 435.96,-231.44 438.25,-233.74 438.25,-236.03 438.25,-236.03 438.25,-240.61 438.25,-240.61 438.25,-242.9 435.96,-245.19 433.67,-245.19 433.67,-245.19 297.08,-245.19 297.08,-245.19 294.79,-245.19 292.5,-242.9 292.5,-240.61 292.5,-240.61 292.5,-236.03 292.5,-236.03 292.5,-233.74 294.79,-231.44 297.08,-231.44"/>
<text xml:space="preserve" text-anchor="start" x="294.5" y="-236.59" font-family="Times New Roman,serif" font-weight="bold" font-size="8.00">{ye28,ye39,ye47,ye64,ye69,ye80,ye85,ye89}</text>
<text xml:space="preserve" text-anchor="start" x="269.5" y="-258.47" font-family="Times New Roman,serif" font-size="8.00">qe12</text>
</g>
<!-- 0x9c1846d6 -->
<g id="node38" class="node">
<title>0x9c1846d6</title>
<ellipse fill="white" stroke="black" cx="331.38" cy="-184.24" rx="1.08" ry="1.08"/>
</g>
<!-- 0x9da9bb4d&#45;&gt;0x9c1846d6 -->
<g id="edge39" class="edge">
<title>0x9da9bb4d:m&#45;&gt;0x9c1846d6</title>
<path fill="none" stroke="black" d="M361.74,-231.75C356.02,-222.99 344.85,-205.89 337.77,-195.04"/>
<polygon fill="black" stroke="black" points="340.84,-193.34 332.45,-186.88 334.98,-197.17 340.84,-193.34"/>
<text xml:space="preserve" text-anchor="start" x="344.33" y="-198.67" font-family="Times New Roman,serif" font-size="7.00">o4</text>
</g>
<!-- 0x5004fe9d -->
<g id="node6" class="node">
<title>0x5004fe9d</title>
<path fill="#f8f9fa" stroke="none" d="M137.21,-435.76C137.21,-435.76 235.54,-435.76 235.54,-435.76 237.83,-435.76 240.12,-438.06 240.12,-440.35 240.12,-440.35 240.12,-444.93 240.12,-444.93 240.12,-447.22 237.83,-449.51 235.54,-449.51 235.54,-449.51 137.21,-449.51 137.21,-449.51 134.92,-449.51 132.62,-447.22 132.62,-444.93 132.62,-444.93 132.62,-440.35 132.62,-440.35 132.62,-438.06 134.92,-435.76 137.21,-435.76"/>
<path fill="none" stroke="#333333" d="M137.21,-435.76C137.21,-435.76 235.54,-435.76 235.54,-435.76 237.83,-435.76 240.12,-438.06 240.12,-440.35 240.12,-440.35 240.12,-444.93 240.12,-444.93 240.12,-447.22 237.83,-449.51 235.54,-449.51 235.54,-449.51 137.21,-449.51 137.21,-449.51 134.92,-449.51 132.62,-447.22 132.62,-444.93 132.62,-444.93 132.62,-440.35 132.62,-440.35 132.62,-438.06 134.92,-435.76 137.21,-435.76"/>
<text xml:space="preserve" text-anchor="start" x="134.62" y="-440.91" font-family="Times New Roman,serif" font-weight="bold" font-size="8.00">{ye10,ye16,ye34,ye44,ye54,ye6}</text>
<text xml:space="preserve" text-anchor="start" x="109.62" y="-462.79" font-family="Times New Roman,serif" font-size="8.00">qe10</text>
</g>
<!-- 0xd4d142d6 -->
<g id="node37" class="node">
<title>0xd4d142d6</title>
<ellipse fill="white" stroke="black" cx="159.38" cy="-392.56" rx="1.08" ry="1.08"/>
</g>
<!-- 0x5004fe9d&#45;&gt;0xd4d142d6 -->
<g id="edge36" class="edge">
<title>0x5004fe9d:m&#45;&gt;0xd4d142d6</title>
<path fill="none" stroke="black" d="M183.28,-436.12C178.86,-428.26 170.68,-413.69 165.13,-403.81"/>
<polygon fill="black" stroke="black" points="168.25,-402.22 160.31,-395.22 162.15,-405.65 168.25,-402.22"/>
<text xml:space="preserve" text-anchor="start" x="170.46" y="-406.99" font-family="Times New Roman,serif" font-size="7.00">o2</text>
</g>
<!-- 0x5c2c5a9 -->
<g id="node7" class="node">
<title>0x5c2c5a9</title>
<path fill="#f8f9fa" stroke="none" d="M318.33,-642.92C318.33,-642.92 330.42,-642.92 330.42,-642.92 332.71,-642.92 335,-645.22 335,-647.51 335,-647.51 335,-652.09 335,-652.09 335,-654.38 332.71,-656.67 330.42,-656.67 330.42,-656.67 318.33,-656.67 318.33,-656.67 316.04,-656.67 313.75,-654.38 313.75,-652.09 313.75,-652.09 313.75,-647.51 313.75,-647.51 313.75,-645.22 316.04,-642.92 318.33,-642.92"/>
<path fill="none" stroke="#333333" d="M318.33,-642.92C318.33,-642.92 330.42,-642.92 330.42,-642.92 332.71,-642.92 335,-645.22 335,-647.51 335,-647.51 335,-652.09 335,-652.09 335,-654.38 332.71,-656.67 330.42,-656.67 330.42,-656.67 318.33,-656.67 318.33,-656.67 316.04,-656.67 313.75,-654.38 313.75,-652.09 313.75,-652.09 313.75,-647.51 313.75,-647.51 313.75,-645.22 316.04,-642.92 318.33,-642.92"/>
<text xml:space="preserve" text-anchor="start" x="315.75" y="-648.07" font-family="Times New Roman,serif" font-weight="bold" font-size="8.00">{ye2}</text>
<text xml:space="preserve" text-anchor="start" x="286.12" y="-669.95" font-family="Times New Roman,serif" font-size="8.00">qe2</text>
</g>
<!-- 0x828aefc3 -->
<g id="node28" class="node">
<title>0x828aefc3</title>
<ellipse fill="white" stroke="black" cx="330.38" cy="-599.72" rx="1.08" ry="1.08"/>
</g>
<!-- 0x5c2c5a9&#45;&gt;0x828aefc3 -->
<g id="edge17" class="edge">
<title>0x5c2c5a9:m&#45;&gt;0x828aefc3</title>
<path fill="none" stroke="black" d="M325.06,-643.28C326,-635.79 327.69,-622.21 328.92,-612.4"/>
<polygon fill="black" stroke="black" points="332.38,-612.92 330.15,-602.56 325.43,-612.05 332.38,-612.92"/>
<text xml:space="preserve" text-anchor="start" x="328.93" y="-614.15" font-family="Times New Roman,serif" font-size="7.00">o4</text>
</g>
<!-- 0x5751c3cf -->
<g id="node8" class="node">
<title>0x5751c3cf</title>
<path fill="#f8f9fa" stroke="none" d="M526.46,-435.76C526.46,-435.76 542.29,-435.76 542.29,-435.76 544.58,-435.76 546.88,-438.06 546.88,-440.35 546.88,-440.35 546.88,-444.93 546.88,-444.93 546.88,-447.22 544.58,-449.51 542.29,-449.51 542.29,-449.51 526.46,-449.51 526.46,-449.51 524.17,-449.51 521.88,-447.22 521.88,-444.93 521.88,-444.93 521.88,-440.35 521.88,-440.35 521.88,-438.06 524.17,-435.76 526.46,-435.76"/>
<path fill="none" stroke="#333333" d="M526.46,-435.76C526.46,-435.76 542.29,-435.76 542.29,-435.76 544.58,-435.76 546.88,-438.06 546.88,-440.35 546.88,-440.35 546.88,-444.93 546.88,-444.93 546.88,-447.22 544.58,-449.51 542.29,-449.51 542.29,-449.51 526.46,-449.51 526.46,-449.51 524.17,-449.51 521.88,-447.22 521.88,-444.93 521.88,-444.93 521.88,-440.35 521.88,-440.35 521.88,-438.06 524.17,-435.76 526.46,-435.76"/>
<text xml:space="preserve" text-anchor="start" x="523.88" y="-440.91" font-family="Times New Roman,serif" font-weight="bold" font-size="8.00">{ye11}</text>
<text xml:space="preserve" text-anchor="start" x="492.38" y="-462.79" font-family="Times New Roman,serif" font-size="8.00">qe11</text>
</g>
<!-- 0xeb33df9c -->
<g id="node9" class="node">
<title>0xeb33df9c</title>
<path fill="#f8f9fa" stroke="none" d="M62.33,-542.76C62.33,-542.76 74.42,-542.76 74.42,-542.76 76.71,-542.76 79,-545.06 79,-547.35 79,-547.35 79,-551.93 79,-551.93 79,-554.22 76.71,-556.51 74.42,-556.51 74.42,-556.51 62.33,-556.51 62.33,-556.51 60.04,-556.51 57.75,-554.22 57.75,-551.93 57.75,-551.93 57.75,-547.35 57.75,-547.35 57.75,-545.06 60.04,-542.76 62.33,-542.76"/>
<path fill="none" stroke="#333333" d="M62.33,-542.76C62.33,-542.76 74.42,-542.76 74.42,-542.76 76.71,-542.76 79,-545.06 79,-547.35 79,-547.35 79,-551.93 79,-551.93 79,-554.22 76.71,-556.51 74.42,-556.51 74.42,-556.51 62.33,-556.51 62.33,-556.51 60.04,-556.51 57.75,-554.22 57.75,-551.93 57.75,-551.93 57.75,-547.35 57.75,-547.35 57.75,-545.06 60.04,-542.76 62.33,-542.76"/>
<text xml:space="preserve" text-anchor="start" x="59.75" y="-547.91" font-family="Times New Roman,serif" font-weight="bold" font-size="8.00">{ye3}</text>
<text xml:space="preserve" text-anchor="start" x="30.12" y="-569.79" font-family="Times New Roman,serif" font-size="8.00">qe3</text>
</g>
<!-- 0x150ea144 -->
<g id="node29" class="node">
<title>0x150ea144</title>
<ellipse fill="white" stroke="black" cx="142.38" cy="-496.14" rx="1.08" ry="1.08"/>
</g>
<!-- 0xeb33df9c&#45;&gt;0x150ea144 -->
<g id="edge19" class="edge">
<title>0xeb33df9c:m&#45;&gt;0x150ea144</title>
<path fill="none" stroke="black" d="M76.58,-542.93C90.27,-533.41 117.71,-514.3 132.46,-504.04"/>
<polygon fill="black" stroke="black" points="134.4,-506.96 140.61,-498.37 130.4,-501.21 134.4,-506.96"/>
<text xml:space="preserve" text-anchor="start" x="120.51" y="-513.99" font-family="Times New Roman,serif" font-size="7.00">o4</text>
</g>
<!-- 0x67b28bcf -->
<g id="node10" class="node">
<title>0x67b28bcf</title>
<path fill="#f8f9fa" stroke="none" d="M175.96,-542.76C175.96,-542.76 308.79,-542.76 308.79,-542.76 311.08,-542.76 313.38,-545.06 313.38,-547.35 313.38,-547.35 313.38,-551.93 313.38,-551.93 313.38,-554.22 311.08,-556.51 308.79,-556.51 308.79,-556.51 175.96,-556.51 175.96,-556.51 173.67,-556.51 171.38,-554.22 171.38,-551.93 171.38,-551.93 171.38,-547.35 171.38,-547.35 171.38,-545.06 173.67,-542.76 175.96,-542.76"/>
<path fill="none" stroke="#333333" d="M175.96,-542.76C175.96,-542.76 308.79,-542.76 308.79,-542.76 311.08,-542.76 313.38,-545.06 313.38,-547.35 313.38,-547.35 313.38,-551.93 313.38,-551.93 313.38,-554.22 311.08,-556.51 308.79,-556.51 308.79,-556.51 175.96,-556.51 175.96,-556.51 173.67,-556.51 171.38,-554.22 171.38,-551.93 171.38,-551.93 171.38,-547.35 171.38,-547.35 171.38,-545.06 173.67,-542.76 175.96,-542.76"/>
<text xml:space="preserve" text-anchor="start" x="173.38" y="-547.91" font-family="Times New Roman,serif" font-weight="bold" font-size="8.00">{ye15,ye31,ye42,ye46,ye5,ye52,ye55,ye57}</text>
<text xml:space="preserve" text-anchor="start" x="152.12" y="-569.79" font-family="Times New Roman,serif" font-size="8.00">qe5</text>
</g>
<!-- 0x4e0ec614 -->
<g id="node31" class="node">
<title>0x4e0ec614</title>
<ellipse fill="white" stroke="black" cx="290.38" cy="-476.14" rx="1.08" ry="1.08"/>
</g>
<!-- 0x67b28bcf&#45;&gt;0x4e0ec614 -->
<g id="edge23" class="edge">
<title>0x67b28bcf:m&#45;&gt;0x4e0ec614</title>
<path fill="none" stroke="black" d="M254.11,-542.92C262.69,-538.13 273.9,-530.51 280.38,-520.64 286.67,-511.04 289.03,-497.99 289.9,-488.69"/>
<polygon fill="black" stroke="black" points="293.39,-489.1 290.32,-478.96 286.39,-488.8 293.39,-489.1"/>
<text xml:space="preserve" text-anchor="start" x="284.68" y="-513.99" font-family="Times New Roman,serif" font-size="7.00">o2</text>
</g>
<!-- 0x68c30854 -->
<g id="node32" class="node">
<title>0x68c30854</title>
<ellipse fill="white" stroke="black" cx="342.38" cy="-496.14" rx="1.08" ry="1.08"/>
</g>
<!-- 0x67b28bcf&#45;&gt;0x68c30854 -->
<g id="edge25" class="edge">
<title>0x67b28bcf:m&#45;&gt;0x68c30854</title>
<path fill="none" stroke="black" d="M254.93,-542.85C266.75,-537.33 284.9,-528.69 300.38,-520.64 311.26,-514.98 323.47,-508.08 331.91,-503.23"/>
<polygon fill="black" stroke="black" points="333.59,-506.3 340.48,-498.25 330.08,-500.24 333.59,-506.3"/>
<text xml:space="preserve" text-anchor="start" x="316.67" y="-513.99" font-family="Times New Roman,serif" font-size="7.00">o3</text>
</g>
<!-- 0xaa9d00a4 -->
<g id="node11" class="node">
<title>0xaa9d00a4</title>
<path fill="#f8f9fa" stroke="none" d="M528.33,-542.76C528.33,-542.76 540.42,-542.76 540.42,-542.76 542.71,-542.76 545,-545.06 545,-547.35 545,-547.35 545,-551.93 545,-551.93 545,-554.22 542.71,-556.51 540.42,-556.51 540.42,-556.51 528.33,-556.51 528.33,-556.51 526.04,-556.51 523.75,-554.22 523.75,-551.93 523.75,-551.93 523.75,-547.35 523.75,-547.35 523.75,-545.06 526.04,-542.76 528.33,-542.76"/>
<path fill="none" stroke="#333333" d="M528.33,-542.76C528.33,-542.76 540.42,-542.76 540.42,-542.76 542.71,-542.76 545,-545.06 545,-547.35 545,-547.35 545,-551.93 545,-551.93 545,-554.22 542.71,-556.51 540.42,-556.51 540.42,-556.51 528.33,-556.51 528.33,-556.51 526.04,-556.51 523.75,-554.22 523.75,-551.93 523.75,-551.93 523.75,-547.35 523.75,-547.35 523.75,-545.06 526.04,-542.76 528.33,-542.76"/>
<text xml:space="preserve" text-anchor="start" x="525.75" y="-547.91" font-family="Times New Roman,serif" font-weight="bold" font-size="8.00">{ye4}</text>
<text xml:space="preserve" text-anchor="start" x="496.12" y="-569.79" font-family="Times New Roman,serif" font-size="8.00">qe4</text>
</g>
<!-- 0x85a01430 -->
<g id="node30" class="node">
<title>0x85a01430</title>
<ellipse fill="white" stroke="black" cx="534.38" cy="-496.14" rx="1.08" ry="1.08"/>
</g>
<!-- 0xaa9d00a4&#45;&gt;0x85a01430 -->
<g id="edge21" class="edge">
<title>0xaa9d00a4:m&#45;&gt;0x85a01430</title>
<path fill="none" stroke="black" d="M534.38,-543.13C534.38,-534.95 534.38,-519.43 534.38,-508.7"/>
<polygon fill="black" stroke="black" points="537.88,-509.02 534.38,-499.02 530.88,-509.02 537.88,-509.02"/>
<text xml:space="preserve" text-anchor="start" x="534.38" y="-513.99" font-family="Times New Roman,serif" font-size="7.00">o4</text>
</g>
<!-- 0xb1cd24a3 -->
<g id="node12" class="node">
<title>0xb1cd24a3</title>
<path fill="#f0fdf4" stroke="none" d="M302.83,-15.12C302.83,-15.12 335.92,-15.12 335.92,-15.12 338.21,-15.12 340.5,-17.42 340.5,-19.71 340.5,-19.71 340.5,-24.29 340.5,-24.29 340.5,-26.58 338.21,-28.88 335.92,-28.88 335.92,-28.88 302.83,-28.88 302.83,-28.88 300.54,-28.88 298.25,-26.58 298.25,-24.29 298.25,-24.29 298.25,-19.71 298.25,-19.71 298.25,-17.42 300.54,-15.12 302.83,-15.12"/>
<path fill="none" stroke="#166534" d="M302.83,-15.12C302.83,-15.12 335.92,-15.12 335.92,-15.12 338.21,-15.12 340.5,-17.42 340.5,-19.71 340.5,-19.71 340.5,-24.29 340.5,-24.29 340.5,-26.58 338.21,-28.88 335.92,-28.88 335.92,-28.88 302.83,-28.88 302.83,-28.88 300.54,-28.88 298.25,-26.58 298.25,-24.29 298.25,-24.29 298.25,-19.71 298.25,-19.71 298.25,-17.42 300.54,-15.12 302.83,-15.12"/>
<text xml:space="preserve" text-anchor="start" x="300.25" y="-20.27" font-family="Times New Roman,serif" font-weight="bold" font-size="8.00">{ye60,ye68}</text>
<text xml:space="preserve" text-anchor="start" x="275.25" y="-42.15" font-family="Times New Roman,serif" font-size="8.00">qe23</text>
</g>
<!-- 0x61ffdc8b -->
<g id="node13" class="node">
<title>0x61ffdc8b</title>
<path fill="#f8f9fa" stroke="none" d="M383.21,-435.76C383.21,-435.76 433.54,-435.76 433.54,-435.76 435.83,-435.76 438.12,-438.06 438.12,-440.35 438.12,-440.35 438.12,-444.93 438.12,-444.93 438.12,-447.22 435.83,-449.51 433.54,-449.51 433.54,-449.51 383.21,-449.51 383.21,-449.51 380.92,-449.51 378.62,-447.22 378.62,-444.93 378.62,-444.93 378.62,-440.35 378.62,-440.35 378.62,-438.06 380.92,-435.76 383.21,-435.76"/>
<path fill="none" stroke="#333333" d="M383.21,-435.76C383.21,-435.76 433.54,-435.76 433.54,-435.76 435.83,-435.76 438.12,-438.06 438.12,-440.35 438.12,-440.35 438.12,-444.93 438.12,-444.93 438.12,-447.22 435.83,-449.51 433.54,-449.51 433.54,-449.51 383.21,-449.51 383.21,-449.51 380.92,-449.51 378.62,-447.22 378.62,-444.93 378.62,-444.93 378.62,-440.35 378.62,-440.35 378.62,-438.06 380.92,-435.76 383.21,-435.76"/>
<text xml:space="preserve" text-anchor="start" x="380.62" y="-440.91" font-family="Times New Roman,serif" font-weight="bold" font-size="8.00">{ye12,ye50,ye56}</text>
<text xml:space="preserve" text-anchor="start" x="355.62" y="-462.79" font-family="Times New Roman,serif" font-size="8.00">qe13</text>
</g>
<!-- 0xf3c3cdf9 -->
<g id="node39" class="node">
<title>0xf3c3cdf9</title>
<ellipse fill="white" stroke="black" cx="499.38" cy="-392.56" rx="1.08" ry="1.08"/>
</g>
<!-- 0x61ffdc8b&#45;&gt;0xf3c3cdf9 -->
<g id="edge41" class="edge">
<title>0x61ffdc8b:m&#45;&gt;0xf3c3cdf9</title>
<path fill="none" stroke="black" d="M419.17,-435.94C436.74,-426.65 471.3,-408.4 488.75,-399.17"/>
<polygon fill="black" stroke="black" points="490.19,-402.37 497.4,-394.6 486.92,-396.18 490.19,-402.37"/>
<text xml:space="preserve" text-anchor="start" x="477.38" y="-406.99" font-family="Times New Roman,serif" font-size="7.00">o2</text>
</g>
<!-- 0xed719bfc -->
<g id="node40" class="node">
<title>0xed719bfc</title>
<ellipse fill="white" stroke="black" cx="407.38" cy="-392.56" rx="1.08" ry="1.08"/>
</g>
<!-- 0x61ffdc8b&#45;&gt;0xed719bfc -->
<g id="edge43" class="edge">
<title>0x61ffdc8b:m&#45;&gt;0xed719bfc</title>
<path fill="none" stroke="black" d="M408.26,-436.12C408.1,-428.63 407.82,-415.05 407.62,-405.24"/>
<polygon fill="black" stroke="black" points="411.12,-405.34 407.41,-395.41 404.12,-405.48 411.12,-405.34"/>
<text xml:space="preserve" text-anchor="start" x="407.79" y="-406.99" font-family="Times New Roman,serif" font-size="7.00">o3</text>
</g>
<!-- 0xa0e85dde -->
<g id="node14" class="node">
<title>0xa0e85dde</title>
<path fill="#f8f9fa" stroke="none" d="M341.21,-542.76C341.21,-542.76 487.54,-542.76 487.54,-542.76 489.83,-542.76 492.12,-545.06 492.12,-547.35 492.12,-547.35 492.12,-551.93 492.12,-551.93 492.12,-554.22 489.83,-556.51 487.54,-556.51 487.54,-556.51 341.21,-556.51 341.21,-556.51 338.92,-556.51 336.62,-554.22 336.62,-551.93 336.62,-551.93 336.62,-547.35 336.62,-547.35 336.62,-545.06 338.92,-542.76 341.21,-542.76"/>
<path fill="none" stroke="#333333" d="M341.21,-542.76C341.21,-542.76 487.54,-542.76 487.54,-542.76 489.83,-542.76 492.12,-545.06 492.12,-547.35 492.12,-547.35 492.12,-551.93 492.12,-551.93 492.12,-554.22 489.83,-556.51 487.54,-556.51 487.54,-556.51 341.21,-556.51 341.21,-556.51 338.92,-556.51 336.62,-554.22 336.62,-551.93 336.62,-551.93 336.62,-547.35 336.62,-547.35 336.62,-545.06 338.92,-542.76 341.21,-542.76"/>
<text xml:space="preserve" text-anchor="start" x="338.62" y="-547.91" font-family="Times New Roman,serif" font-weight="bold" font-size="8.00">{ye15,ye31,ye42,ye46,ye5,ye52,ye55,ye57,ye9}</text>
<text xml:space="preserve" text-anchor="start" x="317.38" y="-569.79" font-family="Times New Roman,serif" font-size="8.00">qe9</text>
</g>
<!-- 0x28e945b2 -->
<g id="node35" class="node">
<title>0x28e945b2</title>
<ellipse fill="white" stroke="black" cx="321.38" cy="-409.14" rx="1.08" ry="1.08"/>
</g>
<!-- 0xa0e85dde&#45;&gt;0x28e945b2 -->
<g id="edge32" class="edge">
<title>0xa0e85dde:m&#45;&gt;0x28e945b2</title>
<path fill="none" stroke="black" d="M367.8,-542.81C354.06,-538.76 340.32,-531.98 331.38,-520.64 308.41,-491.52 314.33,-443.7 318.68,-421.78"/>
<polygon fill="black" stroke="black" points="322.08,-422.61 320.91,-412.08 315.26,-421.04 322.08,-422.61"/>
<text xml:space="preserve" text-anchor="start" x="320.17" y="-493.99" font-family="Times New Roman,serif" font-size="7.00">o2</text>
</g>
<!-- 0xb1248d3d -->
<g id="node36" class="node">
<title>0xb1248d3d</title>
<ellipse fill="white" stroke="black" cx="408.38" cy="-496.14" rx="1.08" ry="1.08"/>
</g>
<!-- 0xa0e85dde&#45;&gt;0xb1248d3d -->
<g id="edge34" class="edge">
<title>0xa0e85dde:m&#45;&gt;0xb1248d3d</title>
<path fill="none" stroke="black" d="M413.73,-543.13C412.78,-534.95 410.97,-519.43 409.72,-508.7"/>
<polygon fill="black" stroke="black" points="413.23,-508.54 408.59,-499.01 406.27,-509.35 413.23,-508.54"/>
<text xml:space="preserve" text-anchor="start" x="411.02" y="-513.99" font-family="Times New Roman,serif" font-size="7.00">o3</text>
</g>
<!-- 0xdb05994b -->
<g id="node15" class="node">
<title>0xdb05994b</title>
<path fill="#f0fdf4" stroke="none" d="M498.21,-335.6C498.21,-335.6 548.54,-335.6 548.54,-335.6 550.83,-335.6 553.12,-337.9 553.12,-340.19 553.12,-340.19 553.12,-344.77 553.12,-344.77 553.12,-347.06 550.83,-349.35 548.54,-349.35 548.54,-349.35 498.21,-349.35 498.21,-349.35 495.92,-349.35 493.62,-347.06 493.62,-344.77 493.62,-344.77 493.62,-340.19 493.62,-340.19 493.62,-337.9 495.92,-335.6 498.21,-335.6"/>
<path fill="none" stroke="#166534" d="M498.21,-335.6C498.21,-335.6 548.54,-335.6 548.54,-335.6 550.83,-335.6 553.12,-337.9 553.12,-340.19 553.12,-340.19 553.12,-344.77 553.12,-344.77 553.12,-347.06 550.83,-349.35 548.54,-349.35 548.54,-349.35 498.21,-349.35 498.21,-349.35 495.92,-349.35 493.62,-347.06 493.62,-344.77 493.62,-344.77 493.62,-340.19 493.62,-340.19 493.62,-337.9 495.92,-335.6 498.21,-335.6"/>
<text xml:space="preserve" text-anchor="start" x="495.62" y="-340.75" font-family="Times New Roman,serif" font-weight="bold" font-size="8.00">{ye20,ye60,ye68}</text>
<text xml:space="preserve" text-anchor="start" x="470.62" y="-362.63" font-family="Times New Roman,serif" font-size="8.00">qe19</text>
</g>
<!-- 0x9303b285 -->
<g id="node16" class="node">
<title>0x9303b285</title>
<path fill="#f8f9fa" stroke="none" d="M116.96,-335.6C116.96,-335.6 201.79,-335.6 201.79,-335.6 204.08,-335.6 206.38,-337.9 206.38,-340.19 206.38,-340.19 206.38,-344.77 206.38,-344.77 206.38,-347.06 204.08,-349.35 201.79,-349.35 201.79,-349.35 116.96,-349.35 116.96,-349.35 114.67,-349.35 112.38,-347.06 112.38,-344.77 112.38,-344.77 112.38,-340.19 112.38,-340.19 112.38,-337.9 114.67,-335.6 116.96,-335.6"/>
<path fill="none" stroke="#333333" d="M116.96,-335.6C116.96,-335.6 201.79,-335.6 201.79,-335.6 204.08,-335.6 206.38,-337.9 206.38,-340.19 206.38,-340.19 206.38,-344.77 206.38,-344.77 206.38,-347.06 204.08,-349.35 201.79,-349.35 201.79,-349.35 116.96,-349.35 116.96,-349.35 114.67,-349.35 112.38,-347.06 112.38,-344.77 112.38,-344.77 112.38,-340.19 112.38,-340.19 112.38,-337.9 114.67,-335.6 116.96,-335.6"/>
<text xml:space="preserve" text-anchor="start" x="114.38" y="-340.75" font-family="Times New Roman,serif" font-weight="bold" font-size="8.00">{ye29,ye40,ye48,ye67,ye84}</text>
<text xml:space="preserve" text-anchor="start" x="89.38" y="-362.63" font-family="Times New Roman,serif" font-size="8.00">qe14</text>
</g>
<!-- 0x9cad0b19 -->
<g id="node41" class="node">
<title>0x9cad0b19</title>
<ellipse fill="white" stroke="black" cx="128.38" cy="-292.4" rx="1.08" ry="1.08"/>
</g>
<!-- 0x9303b285&#45;&gt;0x9cad0b19 -->
<g id="edge45" class="edge">
<title>0x9303b285:m&#45;&gt;0x9cad0b19</title>
<path fill="none" stroke="black" d="M155.82,-335.96C150.69,-328.01 141.13,-313.19 134.76,-303.31"/>
<polygon fill="black" stroke="black" points="137.77,-301.52 129.41,-295.01 131.89,-305.31 137.77,-301.52"/>
<text xml:space="preserve" text-anchor="start" x="141.1" y="-306.83" font-family="Times New Roman,serif" font-size="7.00">o4</text>
</g>
<!-- 0xbf9a1450 -->
<g id="node17" class="node">
<title>0xbf9a1450</title>
<path fill="#f8f9fa" stroke="none" d="M42.33,-642.92C42.33,-642.92 102.42,-642.92 102.42,-642.92 104.71,-642.92 107,-645.22 107,-647.51 107,-647.51 107,-652.09 107,-652.09 107,-654.38 104.71,-656.67 102.42,-656.67 102.42,-656.67 42.33,-656.67 42.33,-656.67 40.04,-656.67 37.75,-654.38 37.75,-652.09 37.75,-652.09 37.75,-647.51 37.75,-647.51 37.75,-645.22 40.04,-642.92 42.33,-642.92"/>
<path fill="none" stroke="#333333" d="M42.33,-642.92C42.33,-642.92 102.42,-642.92 102.42,-642.92 104.71,-642.92 107,-645.22 107,-647.51 107,-647.51 107,-652.09 107,-652.09 107,-654.38 104.71,-656.67 102.42,-656.67 102.42,-656.67 42.33,-656.67 42.33,-656.67 40.04,-656.67 37.75,-654.38 37.75,-652.09 37.75,-652.09 37.75,-647.51 37.75,-647.51 37.75,-645.22 40.04,-642.92 42.33,-642.92"/>
<text xml:space="preserve" text-anchor="start" x="39.75" y="-648.07" font-family="Times New Roman,serif" font-weight="bold" font-size="8.00">{ye1,ye19,ye37,ye8}</text>
<text xml:space="preserve" text-anchor="start" x="18.5" y="-669.95" font-family="Times New Roman,serif" font-size="8.00">qe1</text>
</g>
<!-- 0x864323fa -->
<g id="node26" class="node">
<title>0x864323fa</title>
<ellipse fill="white" stroke="black" cx="154.38" cy="-599.72" rx="1.08" ry="1.08"/>
</g>
<!-- 0xbf9a1450&#45;&gt;0x864323fa -->
<g id="edge10" class="edge">
<title>0xbf9a1450:m&#45;&gt;0x864323fa</title>
<path fill="none" stroke="black" d="M90.47,-642.93C103.63,-638.16 121.5,-630.61 135.38,-620.8 139.78,-617.68 143.99,-613.43 147.31,-609.64"/>
<polygon fill="black" stroke="black" points="149.86,-612.06 153.33,-602.05 144.37,-607.71 149.86,-612.06"/>
<text xml:space="preserve" text-anchor="start" x="144.93" y="-614.15" font-family="Times New Roman,serif" font-size="7.00">o2</text>
</g>
<!-- 0xd23c731e -->
<g id="node27" class="node">
<title>0xd23c731e</title>
<ellipse fill="white" stroke="black" cx="64.38" cy="-496.14" rx="1.08" ry="1.08"/>
</g>
<!-- 0xbf9a1450&#45;&gt;0xd23c731e -->
<g id="edge14" class="edge">
<title>0xbf9a1450:m&#45;&gt;0xd23c731e</title>
<path fill="none" stroke="black" d="M69.07,-643.15C61.76,-630.28 44.4,-597.59 38.38,-567.64 35.22,-551.95 33.3,-546.81 38.38,-531.64 41.78,-521.46 49.51,-511.87 55.66,-505.4"/>
<polygon fill="black" stroke="black" points="57.97,-508.04 62.78,-498.6 53.13,-502.98 57.97,-508.04"/>
<text xml:space="preserve" text-anchor="start" x="43.67" y="-580.99" font-family="Times New Roman,serif" font-size="7.00">o3</text>
</g>
<!-- 0xf85583c2 -->
<g id="node18" class="node">
<title>0xf85583c2</title>
<path fill="#f8f9fa" stroke="none" d="M346.71,-335.6C346.71,-335.6 466.04,-335.6 466.04,-335.6 468.33,-335.6 470.62,-337.9 470.62,-340.19 470.62,-340.19 470.62,-344.77 470.62,-344.77 470.62,-347.06 468.33,-349.35 466.04,-349.35 466.04,-349.35 346.71,-349.35 346.71,-349.35 344.42,-349.35 342.12,-347.06 342.12,-344.77 342.12,-344.77 342.12,-340.19 342.12,-340.19 342.12,-337.9 344.42,-335.6 346.71,-335.6"/>
<path fill="none" stroke="#333333" d="M346.71,-335.6C346.71,-335.6 466.04,-335.6 466.04,-335.6 468.33,-335.6 470.62,-337.9 470.62,-340.19 470.62,-340.19 470.62,-344.77 470.62,-344.77 470.62,-347.06 468.33,-349.35 466.04,-349.35 466.04,-349.35 346.71,-349.35 346.71,-349.35 344.42,-349.35 342.12,-347.06 342.12,-344.77 342.12,-344.77 342.12,-340.19 342.12,-340.19 342.12,-337.9 344.42,-335.6 346.71,-335.6"/>
<text xml:space="preserve" text-anchor="start" x="344.12" y="-340.75" font-family="Times New Roman,serif" font-weight="bold" font-size="8.00">{ye15,ye31,ye42,ye46,ye52,ye55,ye57}</text>
<text xml:space="preserve" text-anchor="start" x="319.12" y="-362.63" font-family="Times New Roman,serif" font-size="8.00">qe20</text>
</g>
<!-- 0xcf0f1202 -->
<g id="node43" class="node">
<title>0xcf0f1202</title>
<ellipse fill="white" stroke="black" cx="394.38" cy="-292.4" rx="1.08" ry="1.08"/>
</g>
<!-- 0xf85583c2&#45;&gt;0xcf0f1202 -->
<g id="edge49" class="edge">
<title>0xf85583c2:m&#45;&gt;0xcf0f1202</title>
<path fill="none" stroke="black" d="M405,-335.96C403.11,-328.38 399.65,-314.55 397.2,-304.72"/>
<polygon fill="black" stroke="black" points="400.64,-304.06 394.83,-295.21 393.85,-305.76 400.64,-304.06"/>
<text xml:space="preserve" text-anchor="start" x="399.3" y="-306.83" font-family="Times New Roman,serif" font-size="7.00">o2</text>
</g>
<!-- 0x8cda8fbe -->
<g id="node44" class="node">
<title>0x8cda8fbe</title>
<ellipse fill="white" stroke="black" cx="421.38" cy="-275.82" rx="1.08" ry="1.08"/>
</g>
<!-- 0xf85583c2&#45;&gt;0x8cda8fbe -->
<g id="edge51" class="edge">
<title>0xf85583c2:m&#45;&gt;0x8cda8fbe</title>
<path fill="none" stroke="black" d="M407.65,-335.97C410.1,-325.43 415.48,-302.24 418.73,-288.23"/>
<polygon fill="black" stroke="black" points="422.07,-289.32 420.92,-278.79 415.25,-287.74 422.07,-289.32"/>
<text xml:space="preserve" text-anchor="start" x="414.84" y="-306.83" font-family="Times New Roman,serif" font-size="7.00">o3</text>
</g>
<!-- 0x7543d303 -->
<g id="node19" class="node">
<title>0x7543d303</title>
<path fill="#f8f9fa" stroke="none" d="M121.46,-542.76C121.46,-542.76 137.29,-542.76 137.29,-542.76 139.58,-542.76 141.88,-545.06 141.88,-547.35 141.88,-547.35 141.88,-551.93 141.88,-551.93 141.88,-554.22 139.58,-556.51 137.29,-556.51 137.29,-556.51 121.46,-556.51 121.46,-556.51 119.17,-556.51 116.88,-554.22 116.88,-551.93 116.88,-551.93 116.88,-547.35 116.88,-547.35 116.88,-545.06 119.17,-542.76 121.46,-542.76"/>
<path fill="none" stroke="#333333" d="M121.46,-542.76C121.46,-542.76 137.29,-542.76 137.29,-542.76 139.58,-542.76 141.88,-545.06 141.88,-547.35 141.88,-547.35 141.88,-551.93 141.88,-551.93 141.88,-554.22 139.58,-556.51 137.29,-556.51 137.29,-556.51 121.46,-556.51 121.46,-556.51 119.17,-556.51 116.88,-554.22 116.88,-551.93 116.88,-551.93 116.88,-547.35 116.88,-547.35 116.88,-545.06 119.17,-542.76 121.46,-542.76"/>
<text xml:space="preserve" text-anchor="start" x="118.88" y="-547.91" font-family="Times New Roman,serif" font-weight="bold" font-size="8.00">{ye45}</text>
<text xml:space="preserve" text-anchor="start" x="91.12" y="-569.79" font-family="Times New Roman,serif" font-size="8.00">qe7</text>
</g>
<!-- 0x1c3dec74 -->
<g id="node34" class="node">
<title>0x1c3dec74</title>
<ellipse fill="white" stroke="black" cx="275.38" cy="-375.98" rx="1.08" ry="1.08"/>
</g>
<!-- 0x7543d303&#45;&gt;0x1c3dec74 -->
<g id="edge30" class="edge">
<title>0x7543d303:m&#45;&gt;0x1c3dec74</title>
<path fill="none" stroke="black" d="M138.62,-542.9C144.65,-539.33 152.79,-534.82 160.38,-531.64 209.6,-511.03 275.38,-550.5 275.38,-497.14 275.38,-497.14 275.38,-497.14 275.38,-408.14 275.38,-401.77 275.38,-394.66 275.38,-388.84"/>
<polygon fill="black" stroke="black" points="278.88,-388.93 275.38,-378.93 271.88,-388.93 278.88,-388.93"/>
<text xml:space="preserve" text-anchor="start" x="275.38" y="-473.99" font-family="Times New Roman,serif" font-size="7.00">o4</text>
</g>
<!-- 0x3e4456ac -->
<g id="node20" class="node">
<title>0x3e4456ac</title>
<path fill="#f8f9fa" stroke="none" d="M44.21,-743.09C44.21,-743.09 100.54,-743.09 100.54,-743.09 102.83,-743.09 105.12,-745.38 105.12,-747.67 105.12,-747.67 105.12,-752.25 105.12,-752.25 105.12,-754.54 102.83,-756.84 100.54,-756.84 100.54,-756.84 44.21,-756.84 44.21,-756.84 41.92,-756.84 39.62,-754.54 39.62,-752.25 39.62,-752.25 39.62,-747.67 39.62,-747.67 39.62,-745.38 41.92,-743.09 44.21,-743.09"/>
<path fill="none" stroke="#333333" d="M44.21,-743.09C44.21,-743.09 100.54,-743.09 100.54,-743.09 102.83,-743.09 105.12,-745.38 105.12,-747.67 105.12,-747.67 105.12,-752.25 105.12,-752.25 105.12,-754.54 102.83,-756.84 100.54,-756.84 100.54,-756.84 44.21,-756.84 44.21,-756.84 41.92,-756.84 39.62,-754.54 39.62,-752.25 39.62,-752.25 39.62,-747.67 39.62,-747.67 39.62,-745.38 41.92,-743.09 44.21,-743.09"/>
<text xml:space="preserve" text-anchor="start" x="41.62" y="-748.24" font-family="Times New Roman,serif" font-weight="bold" font-size="8.00">{ye0,ye1,ye19,ye8}</text>
<text xml:space="preserve" text-anchor="start" x="20.38" y="-770.11" font-family="Times New Roman,serif" font-size="8.00">qe0</text>
</g>
<!-- 0x25577ec4 -->
<g id="node23" class="node">
<title>0x25577ec4</title>
<ellipse fill="white" stroke="black" cx="72.38" cy="-699.88" rx="1.08" ry="1.08"/>
</g>
<!-- 0x3e4456ac&#45;&gt;0x25577ec4 -->
<g id="edge1" class="edge">
<title>0x3e4456ac:m&#45;&gt;0x25577ec4</title>
<path fill="none" stroke="black" d="M72.38,-743.44C72.38,-735.95 72.38,-722.37 72.38,-712.56"/>
<polygon fill="black" stroke="black" points="75.88,-712.73 72.38,-702.73 68.88,-712.73 75.88,-712.73"/>
<text xml:space="preserve" text-anchor="start" x="72.38" y="-714.31" font-family="Times New Roman,serif" font-size="7.00">o4</text>
</g>
<!-- 0xaa7ef744 -->
<g id="node24" class="node">
<title>0xaa7ef744</title>
<ellipse fill="white" stroke="black" cx="205.38" cy="-699.88" rx="1.08" ry="1.08"/>
</g>
<!-- 0x3e4456ac&#45;&gt;0xaa7ef744 -->
<g id="edge3" class="edge">
<title>0x3e4456ac:m&#45;&gt;0xaa7ef744</title>
<path fill="none" stroke="black" d="M88.42,-743.16C115.68,-733.3 170.39,-713.53 194.05,-704.98"/>
<polygon fill="black" stroke="black" points="195.21,-708.28 203.43,-701.58 192.83,-701.69 195.21,-708.28"/>
<text xml:space="preserve" text-anchor="start" x="173.23" y="-714.31" font-family="Times New Roman,serif" font-size="7.00">o2</text>
</g>
<!-- 0xeb84df01 -->
<g id="node25" class="node">
<title>0xeb84df01</title>
<ellipse fill="white" stroke="black" cx="18.38" cy="-599.72" rx="1.08" ry="1.08"/>
</g>
<!-- 0x3e4456ac&#45;&gt;0xeb84df01 -->
<g id="edge7" class="edge">
<title>0x3e4456ac:m&#45;&gt;0xeb84df01</title>
<path fill="none" stroke="black" d="M68.18,-743.43C58.87,-730.8 36.48,-698.58 26.38,-667.8 20.2,-649 18.69,-625.83 18.38,-612.23"/>
<polygon fill="black" stroke="black" points="21.88,-612.67 18.36,-602.67 14.88,-612.68 21.88,-612.67"/>
<text xml:space="preserve" text-anchor="start" x="34.41" y="-681.15" font-family="Times New Roman,serif" font-size="7.00">o3</text>
</g>
<!-- 0x270a14e0 -->
<g id="node21" class="node">
<title>0x270a14e0</title>
<path fill="#f8f9fa" stroke="none" d="M126.46,-123.28C126.46,-123.28 142.29,-123.28 142.29,-123.28 144.58,-123.28 146.88,-125.58 146.88,-127.87 146.88,-127.87 146.88,-132.45 146.88,-132.45 146.88,-134.74 144.58,-137.03 142.29,-137.03 142.29,-137.03 126.46,-137.03 126.46,-137.03 124.17,-137.03 121.88,-134.74 121.88,-132.45 121.88,-132.45 121.88,-127.87 121.88,-127.87 121.88,-125.58 124.17,-123.28 126.46,-123.28"/>
<path fill="none" stroke="#333333" d="M126.46,-123.28C126.46,-123.28 142.29,-123.28 142.29,-123.28 144.58,-123.28 146.88,-125.58 146.88,-127.87 146.88,-127.87 146.88,-132.45 146.88,-132.45 146.88,-134.74 144.58,-137.03 142.29,-137.03 142.29,-137.03 126.46,-137.03 126.46,-137.03 124.17,-137.03 121.88,-134.74 121.88,-132.45 121.88,-132.45 121.88,-127.87 121.88,-127.87 121.88,-125.58 124.17,-123.28 126.46,-123.28"/>
<text xml:space="preserve" text-anchor="start" x="123.88" y="-128.44" font-family="Times New Roman,serif" font-weight="bold" font-size="8.00">{ye82}</text>
<text xml:space="preserve" text-anchor="start" x="92.38" y="-150.31" font-family="Times New Roman,serif" font-size="8.00">qe27</text>
</g>
<!-- 0xf2a93fd1 -->
<g id="node47" class="node">
<title>0xf2a93fd1</title>
<ellipse fill="white" stroke="black" cx="109.38" cy="-76.08" rx="1.08" ry="1.08"/>
</g>
<!-- 0x270a14e0&#45;&gt;0xf2a93fd1 -->
<g id="edge58" class="edge">
<title>0x270a14e0:m&#45;&gt;0xf2a93fd1</title>
<path fill="none" stroke="black" d="M131.7,-123.59C127.59,-115.03 119.65,-98.49 114.44,-87.62"/>
<polygon fill="black" stroke="black" points="117.69,-86.32 110.21,-78.82 111.38,-89.35 117.69,-86.32"/>
<text xml:space="preserve" text-anchor="start" x="118.9" y="-90.51" font-family="Times New Roman,serif" font-size="7.00">o4</text>
</g>
<!-- 0xd44f4a92 -->
<g id="node22" class="node">
<title>0xd44f4a92</title>
<path fill="#f8f9fa" stroke="none" d="M65.46,-123.28C65.46,-123.28 81.29,-123.28 81.29,-123.28 83.58,-123.28 85.88,-125.58 85.88,-127.87 85.88,-127.87 85.88,-132.45 85.88,-132.45 85.88,-134.74 83.58,-137.03 81.29,-137.03 81.29,-137.03 65.46,-137.03 65.46,-137.03 63.17,-137.03 60.88,-134.74 60.88,-132.45 60.88,-132.45 60.88,-127.87 60.88,-127.87 60.88,-125.58 63.17,-123.28 65.46,-123.28"/>
<path fill="none" stroke="#333333" d="M65.46,-123.28C65.46,-123.28 81.29,-123.28 81.29,-123.28 83.58,-123.28 85.88,-125.58 85.88,-127.87 85.88,-127.87 85.88,-132.45 85.88,-132.45 85.88,-134.74 83.58,-137.03 81.29,-137.03 81.29,-137.03 65.46,-137.03 65.46,-137.03 63.17,-137.03 60.88,-134.74 60.88,-132.45 60.88,-132.45 60.88,-127.87 60.88,-127.87 60.88,-125.58 63.17,-123.28 65.46,-123.28"/>
<text xml:space="preserve" text-anchor="start" x="62.88" y="-128.44" font-family="Times New Roman,serif" font-weight="bold" font-size="8.00">{ye79}</text>
<text xml:space="preserve" text-anchor="start" x="31.38" y="-150.31" font-family="Times New Roman,serif" font-size="8.00">qe26</text>
</g>
<!-- 0xb7d95e5c -->
<g id="node46" class="node">
<title>0xb7d95e5c</title>
<ellipse fill="white" stroke="black" cx="75.38" cy="-76.08" rx="1.08" ry="1.08"/>
</g>
<!-- 0xd44f4a92&#45;&gt;0xb7d95e5c -->
<g id="edge56" class="edge">
<title>0xd44f4a92:m&#45;&gt;0xb7d95e5c</title>
<path fill="none" stroke="black" d="M73.59,-123.59C73.91,-115.32 74.51,-99.62 74.93,-88.77"/>
<polygon fill="black" stroke="black" points="78.42,-89.09 75.3,-78.97 71.42,-88.83 78.42,-89.09"/>
<text xml:space="preserve" text-anchor="start" x="74.94" y="-90.51" font-family="Times New Roman,serif" font-size="7.00">o4</text>
</g>
<!-- 0x25577ec4&#45;&gt;0xbf9a1450 -->
<g id="edge2" class="edge">
<title>0x25577ec4&#45;&gt;0xbf9a1450:m</title>
<path fill="none" stroke="#2563eb" stroke-dasharray="5,2" d="M72.38,-698.34C72.38,-695.31 72.38,-680.09 72.38,-667.68"/>
<polygon fill="#2563eb" stroke="#2563eb" points="75.88,-667.9 72.38,-657.9 68.88,-667.9 75.88,-667.9"/>
<text xml:space="preserve" text-anchor="start" x="72.38" y="-681.15" font-family="Times New Roman,serif" font-size="7.00">o4</text>
</g>
<!-- 0xaa7ef744&#45;&gt;0x5c2c5a9 -->
<g id="edge4" class="edge">
<title>0xaa7ef744&#45;&gt;0x5c2c5a9:m</title>
<path fill="none" stroke="#2563eb" stroke-dasharray="5,2" d="M206.13,-698.57C213.43,-695.62 271.54,-672.15 303.49,-659.24"/>
<polygon fill="#2563eb" stroke="#2563eb" points="304.57,-662.58 312.54,-655.58 301.95,-656.08 304.57,-662.58"/>
<text xml:space="preserve" text-anchor="start" x="254.22" y="-681.15" font-family="Times New Roman,serif" font-size="7.00">empty</text>
</g>
<!-- 0xaa7ef744&#45;&gt;0xeb33df9c -->
<g id="edge5" class="edge">
<title>0xaa7ef744&#45;&gt;0xeb33df9c:m</title>
<path fill="none" stroke="#2563eb" stroke-dasharray="5,2" d="M204.88,-698.4C199.96,-693.62 159.7,-654.33 128.88,-620.8 111.53,-601.93 92.34,-579.38 80.32,-565.03"/>
<polygon fill="#2563eb" stroke="#2563eb" points="83.03,-562.81 73.93,-557.36 77.65,-567.29 83.03,-562.81"/>
<text xml:space="preserve" text-anchor="start" x="128.88" y="-614.15" font-family="Times New Roman,serif" font-size="7.00">o3</text>
</g>
<!-- 0xaa7ef744&#45;&gt;0xaa9d00a4 -->
<g id="edge6" class="edge">
<title>0xaa7ef744&#45;&gt;0xaa9d00a4:m</title>
<path fill="none" stroke="#2563eb" stroke-dasharray="5,2" d="M206.34,-698.75C212.43,-697.94 246.18,-693.32 273.38,-687.8 310.14,-680.33 320.96,-682.73 355.38,-667.8 420.88,-639.38 488.96,-587.56 518.8,-563.52"/>
<polygon fill="#2563eb" stroke="#2563eb" points="520.68,-566.5 526.22,-557.47 516.26,-561.08 520.68,-566.5"/>
<text xml:space="preserve" text-anchor="start" x="452.56" y="-614.15" font-family="Times New Roman,serif" font-size="7.00">o2</text>
</g>
<!-- 0xeb84df01&#45;&gt;0xc50e3d5b -->
<g id="edge9" class="edge">
<title>0xeb84df01&#45;&gt;0xc50e3d5b:m</title>
<path fill="none" stroke="#2563eb" stroke-dasharray="5,2" d="M18.44,-598.16C19.14,-592.6 25.02,-547.02 35.88,-511.64 41.51,-493.28 50.33,-473.08 56.66,-459.51"/>
<polygon fill="#2563eb" stroke="#2563eb" points="59.64,-461.39 60.8,-450.86 53.33,-458.37 59.64,-461.39"/>
<text xml:space="preserve" text-anchor="start" x="35.88" y="-513.99" font-family="Times New Roman,serif" font-size="7.00">o3</text>
</g>
<!-- 0xeb84df01&#45;&gt;0x67b28bcf -->
<g id="edge8" class="edge">
<title>0xeb84df01&#45;&gt;0x67b28bcf:m</title>
<path fill="none" stroke="#2563eb" stroke-dasharray="5,2" d="M19.15,-598.71C29.53,-598.55 140.94,-596.65 172.38,-587.64 191.35,-582.2 211.07,-571.22 224.72,-562.63"/>
<polygon fill="#2563eb" stroke="#2563eb" points="226.52,-565.63 232.97,-557.23 222.69,-559.78 226.52,-565.63"/>
<text xml:space="preserve" text-anchor="start" x="194.63" y="-580.99" font-family="Times New Roman,serif" font-size="7.00">empty</text>
</g>
<!-- 0x864323fa&#45;&gt;0xeb33df9c -->
<g id="edge12" class="edge">
<title>0x864323fa&#45;&gt;0xeb33df9c:m</title>
<path fill="none" stroke="#2563eb" stroke-dasharray="5,2" d="M154.25,-598.57C152.97,-597.08 142.39,-585.01 131.38,-578.64 118.36,-571.11 113.13,-573.72 99.38,-567.64 95.55,-565.95 91.57,-563.96 87.79,-561.94"/>
<polygon fill="#2563eb" stroke="#2563eb" points="89.69,-559 79.25,-557.17 86.28,-565.11 89.69,-559"/>
<text xml:space="preserve" text-anchor="start" x="143.37" y="-580.99" font-family="Times New Roman,serif" font-size="7.00">o3</text>
</g>
<!-- 0x864323fa&#45;&gt;0xaa9d00a4 -->
<g id="edge13" class="edge">
<title>0x864323fa&#45;&gt;0xaa9d00a4:m</title>
<path fill="none" stroke="#2563eb" stroke-dasharray="5,2" d="M155.36,-598.71C168.46,-598.61 309.15,-597.28 349.38,-587.64 359.05,-585.32 360.23,-581.08 369.88,-578.64 427.59,-564.03 446.36,-584.77 503.38,-567.64 507.75,-566.33 512.2,-564.34 516.31,-562.19"/>
<polygon fill="#2563eb" stroke="#2563eb" points="517.96,-565.27 524.81,-557.19 514.42,-559.24 517.96,-565.27"/>
<text xml:space="preserve" text-anchor="start" x="369.88" y="-580.99" font-family="Times New Roman,serif" font-size="7.00">o2</text>
</g>
<!-- 0x864323fa&#45;&gt;0x7543d303 -->
<g id="edge11" class="edge">
<title>0x864323fa&#45;&gt;0x7543d303:m</title>
<path fill="none" stroke="#2563eb" stroke-dasharray="5,2" d="M154.39,-598.2C154.45,-595.83 154.5,-585.89 151.38,-578.64 149.28,-573.79 146.13,-569.05 142.87,-564.9"/>
<polygon fill="#2563eb" stroke="#2563eb" points="145.7,-562.82 136.47,-557.61 140.44,-567.44 145.7,-562.82"/>
<text xml:space="preserve" text-anchor="start" x="153.69" y="-580.99" font-family="Times New Roman,serif" font-size="7.00">empty</text>
</g>
<!-- 0xd23c731e&#45;&gt;0xc50e3d5b -->
<g id="edge16" class="edge">
<title>0xd23c731e&#45;&gt;0xc50e3d5b:m</title>
<path fill="none" stroke="#2563eb" stroke-dasharray="5,2" d="M64.38,-494.56C64.38,-491.21 64.38,-473.98 64.38,-460.48"/>
<polygon fill="#2563eb" stroke="#2563eb" points="67.88,-460.76 64.38,-450.76 60.88,-460.76 67.88,-460.76"/>
<text xml:space="preserve" text-anchor="start" x="64.38" y="-473.99" font-family="Times New Roman,serif" font-size="7.00">o3</text>
</g>
<!-- 0xd23c731e&#45;&gt;0x237e47d -->
<g id="edge15" class="edge">
<title>0xd23c731e&#45;&gt;0x237e47d</title>
<path fill="none" stroke="#2563eb" stroke-dasharray="5,2" d="M65.41,-495.13C79.17,-494.95 226.54,-492.35 251.38,-460.64 261.24,-448.04 251.56,-440.64 251.38,-424.64 250.71,-366.3 248.38,-351.74 248.38,-293.4 248.38,-293.4 248.38,-293.4 248.38,-183.24 248.38,-166.19 261.86,-154.1 277.07,-145.9"/>
<polygon fill="#2563eb" stroke="#2563eb" points="278.32,-149.18 285.83,-141.71 275.3,-142.87 278.32,-149.18"/>
<text xml:space="preserve" text-anchor="start" x="248.47" y="-306.83" font-family="Times New Roman,serif" font-size="7.00">empty</text>
</g>
<!-- 0x828aefc3&#45;&gt;0xa0e85dde -->
<g id="edge18" class="edge">
<title>0x828aefc3&#45;&gt;0xa0e85dde:m</title>
<path fill="none" stroke="#2563eb" stroke-dasharray="5,2" d="M330.44,-598.57C331.12,-597.08 336.75,-585 344.88,-578.64 355.31,-570.47 368.43,-564.38 380.46,-559.99"/>
<polygon fill="#2563eb" stroke="#2563eb" points="381.29,-563.41 389.66,-556.91 379.07,-556.77 381.29,-563.41"/>
<text xml:space="preserve" text-anchor="start" x="344.88" y="-580.99" font-family="Times New Roman,serif" font-size="7.00">o4</text>
</g>
<!-- 0x150ea144&#45;&gt;0x5004fe9d -->
<g id="edge20" class="edge">
<title>0x150ea144&#45;&gt;0x5004fe9d:m</title>
<path fill="none" stroke="#2563eb" stroke-dasharray="5,2" d="M142.5,-494.99C144.17,-493.04 162.06,-472.1 174.47,-457.57"/>
<polygon fill="#2563eb" stroke="#2563eb" points="176.8,-460.24 180.63,-450.36 171.47,-455.69 176.8,-460.24"/>
<text xml:space="preserve" text-anchor="start" x="161.74" y="-473.99" font-family="Times New Roman,serif" font-size="7.00">o4</text>
</g>
<!-- 0x85a01430&#45;&gt;0x5751c3cf -->
<g id="edge22" class="edge">
<title>0x85a01430&#45;&gt;0x5751c3cf:m</title>
<path fill="none" stroke="#2563eb" stroke-dasharray="5,2" d="M534.38,-494.56C534.38,-491.21 534.38,-473.98 534.38,-460.48"/>
<polygon fill="#2563eb" stroke="#2563eb" points="537.88,-460.76 534.38,-450.76 530.88,-460.76 537.88,-460.76"/>
<text xml:space="preserve" text-anchor="start" x="534.38" y="-473.99" font-family="Times New Roman,serif" font-size="7.00">o4</text>
</g>
<!-- 0x4e0ec614&#45;&gt;0x9da9bb4d -->
<g id="edge24" class="edge">
<title>0x4e0ec614&#45;&gt;0x9da9bb4d:m</title>
<path fill="none" stroke="#2563eb" stroke-dasharray="5,2" d="M290.38,-474.73C290.38,-470.65 290.38,-437.22 290.38,-410.14 290.38,-410.14 290.38,-410.14 290.38,-291.4 290.38,-270 311.23,-256.69 330.95,-248.88"/>
<polygon fill="#2563eb" stroke="#2563eb" points="331.96,-252.24 340.22,-245.6 329.62,-245.64 331.96,-252.24"/>
<text xml:space="preserve" text-anchor="start" x="290.38" y="-373.83" font-family="Times New Roman,serif" font-size="7.00">empty</text>
</g>
<!-- 0x68c30854&#45;&gt;0x61ffdc8b -->
<g id="edge26" class="edge">
<title>0x68c30854&#45;&gt;0x61ffdc8b:m</title>
<path fill="none" stroke="#2563eb" stroke-dasharray="5,2" d="M342.8,-494.81C346.5,-491.92 373.82,-470.61 392.01,-456.41"/>
<polygon fill="#2563eb" stroke="#2563eb" points="394.04,-459.26 399.77,-450.35 389.73,-453.75 394.04,-459.26"/>
<text xml:space="preserve" text-anchor="start" x="371.42" y="-473.99" font-family="Times New Roman,serif" font-size="7.00">empty</text>
</g>
<!-- 0x4a84acaf&#45;&gt;0x58a886a -->
<g id="edge29" class="edge">
<title>0x4a84acaf&#45;&gt;0x58a886a</title>
<path fill="none" stroke="#2563eb" stroke-dasharray="5,2" d="M73.37,-391C73.27,-385.51 72.71,-340.44 77.88,-304.48 79.42,-293.69 81.92,-282.07 84.45,-271.67"/>
<polygon fill="#2563eb" stroke="#2563eb" points="87.83,-272.58 86.92,-262.02 81.05,-270.85 87.83,-272.58"/>
<text xml:space="preserve" text-anchor="start" x="77.88" y="-306.83" font-family="Times New Roman,serif" font-size="7.00">o2</text>
</g>
<!-- 0x4a84acaf&#45;&gt;0x9303b285 -->
<g id="edge28" class="edge">
<title>0x4a84acaf&#45;&gt;0x9303b285:m</title>
<path fill="none" stroke="#2563eb" stroke-dasharray="5,2" d="M73.92,-391.25C78.84,-388.51 115.6,-367.95 139.28,-354.72"/>
<polygon fill="#2563eb" stroke="#2563eb" points="140.73,-357.91 147.76,-349.98 137.32,-351.8 140.73,-357.91"/>
<text xml:space="preserve" text-anchor="start" x="108.67" y="-373.83" font-family="Times New Roman,serif" font-size="7.00">empty</text>
</g>
<!-- 0x1c3dec74&#45;&gt;0x237e47d -->
<g id="edge31" class="edge">
<title>0x1c3dec74&#45;&gt;0x237e47d</title>
<path fill="none" stroke="#2563eb" stroke-dasharray="5,2" d="M275.34,-374.72C274.72,-369.37 265.02,-282.69 281.38,-216.32 285.94,-197.8 294.35,-178.29 302.1,-162.62"/>
<polygon fill="#2563eb" stroke="#2563eb" points="305.18,-164.3 306.62,-153.8 298.95,-161.11 305.18,-164.3"/>
<text xml:space="preserve" text-anchor="start" x="273.19" y="-273.67" font-family="Times New Roman,serif" font-size="7.00">o4</text>
</g>
<!-- 0x28e945b2&#45;&gt;0x9da9bb4d -->
<g id="edge33" class="edge">
<title>0x28e945b2&#45;&gt;0x9da9bb4d:m</title>
<path fill="none" stroke="#2563eb" stroke-dasharray="5,2" d="M321.16,-407.6C319.08,-402.22 302.74,-358.19 312.38,-324.48 320.3,-296.75 340.15,-269.25 353.19,-253.3"/>
<polygon fill="#2563eb" stroke="#2563eb" points="355.48,-256 359.27,-246.11 350.14,-251.48 355.48,-256"/>
<text xml:space="preserve" text-anchor="start" x="312.38" y="-340.33" font-family="Times New Roman,serif" font-size="7.00">empty</text>
</g>
<!-- 0xb1248d3d&#45;&gt;0x61ffdc8b -->
<g id="edge35" class="edge">
<title>0xb1248d3d&#45;&gt;0x61ffdc8b:m</title>
<path fill="none" stroke="#2563eb" stroke-dasharray="5,2" d="M408.38,-494.56C408.38,-491.21 408.38,-473.98 408.38,-460.48"/>
<polygon fill="#2563eb" stroke="#2563eb" points="411.88,-460.76 408.38,-450.76 404.88,-460.76 411.88,-460.76"/>
<text xml:space="preserve" text-anchor="start" x="408.38" y="-473.99" font-family="Times New Roman,serif" font-size="7.00">empty</text>
</g>
<!-- 0xd4d142d6&#45;&gt;0x58a886a -->
<g id="edge38" class="edge">
<title>0xd4d142d6&#45;&gt;0x58a886a</title>
<path fill="none" stroke="#2563eb" stroke-dasharray="5,2" d="M158.51,-391.53C151.91,-391.32 109.35,-389.58 101.38,-380.48 87.73,-364.9 88.6,-308.53 90.77,-271.91"/>
<polygon fill="#2563eb" stroke="#2563eb" points="94.24,-272.51 91.41,-262.3 87.26,-272.05 94.24,-272.51"/>
<text xml:space="preserve" text-anchor="start" x="89.55" y="-306.83" font-family="Times New Roman,serif" font-size="7.00">o2</text>
</g>
<!-- 0xd4d142d6&#45;&gt;0x9303b285 -->
<g id="edge37" class="edge">
<title>0xd4d142d6&#45;&gt;0x9303b285:m</title>
<path fill="none" stroke="#2563eb" stroke-dasharray="5,2" d="M159.38,-391.02C159.38,-387.99 159.38,-372.77 159.38,-360.36"/>
<polygon fill="#2563eb" stroke="#2563eb" points="162.88,-360.58 159.38,-350.58 155.88,-360.58 162.88,-360.58"/>
<text xml:space="preserve" text-anchor="start" x="159.38" y="-373.83" font-family="Times New Roman,serif" font-size="7.00">empty</text>
</g>
<!-- 0x9c1846d6&#45;&gt;0x237e47d -->
<g id="edge40" class="edge">
<title>0x9c1846d6&#45;&gt;0x237e47d</title>
<path fill="none" stroke="#2563eb" stroke-dasharray="5,2" d="M331.34,-183.09C331.06,-181.86 329.07,-173.25 326.8,-163.37"/>
<polygon fill="#2563eb" stroke="#2563eb" points="330.28,-162.89 324.62,-153.93 323.46,-164.46 330.28,-162.89"/>
<text xml:space="preserve" text-anchor="start" x="328.78" y="-165.51" font-family="Times New Roman,serif" font-size="7.00">o4</text>
</g>
<!-- 0xf3c3cdf9&#45;&gt;0xdb05994b -->
<g id="edge42" class="edge">
<title>0xf3c3cdf9&#45;&gt;0xdb05994b:m</title>
<path fill="none" stroke="#2563eb" stroke-dasharray="5,2" d="M499.64,-391.02C501.21,-387.89 509.24,-371.8 515.53,-359.19"/>
<polygon fill="#2563eb" stroke="#2563eb" points="518.58,-360.93 519.91,-350.42 512.31,-357.8 518.58,-360.93"/>
<text xml:space="preserve" text-anchor="start" x="509.23" y="-373.83" font-family="Times New Roman,serif" font-size="7.00">empty</text>
</g>
<!-- 0xed719bfc&#45;&gt;0xf85583c2 -->
<g id="edge44" class="edge">
<title>0xed719bfc&#45;&gt;0xf85583c2:m</title>
<path fill="none" stroke="#2563eb" stroke-dasharray="5,2" d="M407.36,-391.02C407.3,-387.99 406.98,-372.77 406.73,-360.36"/>
<polygon fill="#2563eb" stroke="#2563eb" points="410.23,-360.5 406.52,-350.58 403.23,-360.65 410.23,-360.5"/>
<text xml:space="preserve" text-anchor="start" x="407.13" y="-373.83" font-family="Times New Roman,serif" font-size="7.00">empty</text>
</g>
<!-- 0x9cad0b19&#45;&gt;0x58a886a -->
<g id="edge46" class="edge">
<title>0x9cad0b19&#45;&gt;0x58a886a</title>
<path fill="none" stroke="#2563eb" stroke-dasharray="5,2" d="M128.27,-291.25C127.4,-289.95 120.94,-280.33 113.81,-269.72"/>
<polygon fill="#2563eb" stroke="#2563eb" points="116.82,-267.93 108.34,-261.58 111.01,-271.83 116.82,-267.93"/>
<text xml:space="preserve" text-anchor="start" x="120.81" y="-273.67" font-family="Times New Roman,serif" font-size="7.00">o4</text>
</g>
<!-- 0x4e8811fa&#45;&gt;0xb1cd24a3 -->
<g id="edge48" class="edge">
<title>0x4e8811fa&#45;&gt;0xb1cd24a3:m</title>
<path fill="none" stroke="#2563eb" stroke-dasharray="5,2" d="M319.38,-74.93C319.38,-73.09 319.38,-54.52 319.38,-40.1"/>
<polygon fill="#2563eb" stroke="#2563eb" points="322.88,-40.15 319.38,-30.15 315.88,-40.15 322.88,-40.15"/>
<text xml:space="preserve" text-anchor="start" x="319.38" y="-57.35" font-family="Times New Roman,serif" font-size="7.00">empty</text>
</g>
<!-- 0xcf0f1202&#45;&gt;0x9da9bb4d -->
<g id="edge50" class="edge">
<title>0xcf0f1202&#45;&gt;0x9da9bb4d:m</title>
<path fill="none" stroke="#2563eb" stroke-dasharray="5,2" d="M394.29,-291.25C393.22,-289.33 382.06,-269.29 373.93,-254.68"/>
<polygon fill="#2563eb" stroke="#2563eb" points="377.17,-253.31 369.25,-246.28 371.06,-256.72 377.17,-253.31"/>
<text xml:space="preserve" text-anchor="start" x="388.11" y="-273.67" font-family="Times New Roman,serif" font-size="7.00">empty</text>
</g>
<!-- 0x8cda8fbe&#45;&gt;0x237e47d -->
<g id="edge52" class="edge">
<title>0x8cda8fbe&#45;&gt;0x237e47d</title>
<path fill="none" stroke="#2563eb" stroke-dasharray="5,2" d="M422.28,-274.69C426.34,-274.04 443,-270.8 449.38,-260.32 459.54,-243.61 458.67,-233.52 449.38,-216.32 430.79,-181.92 391.59,-159.18 361.07,-145.92"/>
<polygon fill="#2563eb" stroke="#2563eb" points="362.66,-142.79 352.08,-142.2 359.98,-149.26 362.66,-142.79"/>
<text xml:space="preserve" text-anchor="start" x="442.37" y="-198.67" font-family="Times New Roman,serif" font-size="7.00">empty</text>
</g>
<!-- 0xc4452629&#45;&gt;0x270a14e0 -->
<g id="edge55" class="edge">
<title>0xc4452629&#45;&gt;0x270a14e0:m</title>
<path fill="none" stroke="#2563eb" stroke-dasharray="5,2" d="M93.49,-183.09C95.03,-181.13 111.4,-160.34 122.95,-145.67"/>
<polygon fill="#2563eb" stroke="#2563eb" points="125.57,-148.01 129,-137.98 120.07,-143.68 125.57,-148.01"/>
<text xml:space="preserve" text-anchor="start" x="109" y="-165.51" font-family="Times New Roman,serif" font-size="7.00">empty</text>
</g>
<!-- 0xc4452629&#45;&gt;0xd44f4a92 -->
<g id="edge54" class="edge">
<title>0xc4452629&#45;&gt;0xd44f4a92:m</title>
<path fill="none" stroke="#2563eb" stroke-dasharray="5,2" d="M93.32,-183.09C92.59,-181.21 85.18,-161.91 79.61,-147.39"/>
<polygon fill="#2563eb" stroke="#2563eb" points="82.93,-146.29 76.08,-138.21 76.4,-148.8 82.93,-146.29"/>
<text xml:space="preserve" text-anchor="start" x="89.06" y="-165.51" font-family="Times New Roman,serif" font-size="7.00">o2</text>
</g>
<!-- 0xb7d95e5c&#45;&gt;0x8551cfdf -->
<g id="edge57" class="edge">
<title>0xb7d95e5c&#45;&gt;0x8551cfdf</title>
<path fill="none" stroke="#2563eb" stroke-dasharray="5,2" d="M75.42,-74.93C75.8,-73.7 78.45,-65.09 81.48,-55.21"/>
<polygon fill="#2563eb" stroke="#2563eb" points="84.8,-56.33 84.39,-45.74 78.11,-54.27 84.8,-56.33"/>
<text xml:space="preserve" text-anchor="start" x="81.47" y="-57.35" font-family="Times New Roman,serif" font-size="7.00">o4</text>
</g>
<!-- 0xf2a93fd1&#45;&gt;0x8551cfdf -->
<g id="edge59" class="edge">
<title>0xf2a93fd1&#45;&gt;0x8551cfdf</title>
<path fill="none" stroke="#2563eb" stroke-dasharray="5,2" d="M109.32,-74.93C108.89,-73.69 105.86,-64.9 102.4,-54.9"/>
<polygon fill="#2563eb" stroke="#2563eb" points="105.8,-54.03 99.23,-45.73 99.19,-56.32 105.8,-54.03"/>
<text xml:space="preserve" text-anchor="start" x="105.49" y="-57.35" font-family="Times New Roman,serif" font-size="7.00">o4</text>
</g>
</g>
</svg>
