<?xml version="1.0" encoding="UTF-8" standalone="no"?>
<!DOCTYPE svg PUBLIC "-//W3C//DTD SVG 1.1//EN"
 "http://www.w3.org/Graphics/SVG/1.1/DTD/svg11.dtd">
<!-- Generated by graphviz version 2.43.0 (0)
 -->
<!-- Title: %3 Pages: 1 -->
<svg width="1069pt" height="908pt"
 viewBox="0.00 0.00 1069.10 908.00" xmlns="http://www.w3.org/2000/svg" xmlns:xlink="http://www.w3.org/1999/xlink">
<g id="graph0" class="graph" transform="scale(1 1) rotate(0) translate(4 904)">
<title>%3</title>
<polygon fill="white" stroke="transparent" points="-4,4 -4,-904 1065.1,-904 1065.1,4 -4,4"/>
<g id="clust1" class="cluster">
<title>cluster_legend</title>
<path fill="none" stroke="lightgrey" d="M500,-822C500,-822 660,-822 660,-822 666,-822 672,-828 672,-834 672,-834 672,-880 672,-880 672,-886 666,-892 660,-892 660,-892 500,-892 500,-892 494,-892 488,-886 488,-880 488,-880 488,-834 488,-834 488,-828 494,-822 500,-822"/>
</g>
<!-- 0x46ac07f4 -->
<g id="node1" class="node">
<title>0x46ac07f4</title>
<text text-anchor="start" x="426.5" y="-867.4" font-family="Times,serif" font-weight="bold" font-size="12.00">ye0</text>
<path fill="#f8f9fa" stroke="transparent" d="M405.33,-838C405.33,-838 465.67,-838 465.67,-838 469.83,-838 474,-842.17 474,-846.33 474,-846.33 474,-854.67 474,-854.67 474,-858.83 469.83,-863 465.67,-863 465.67,-863 405.33,-863 405.33,-863 401.17,-863 397,-858.83 397,-854.67 397,-854.67 397,-846.33 397,-846.33 397,-842.17 401.17,-838 405.33,-838"/>
<path fill="none" stroke="#333333" d="M405.33,-838C405.33,-838 465.67,-838 465.67,-838 469.83,-838 474,-842.17 474,-846.33 474,-846.33 474,-854.67 474,-854.67 474,-858.83 469.83,-863 465.67,-863 465.67,-863 405.33,-863 405.33,-863 401.17,-863 397,-858.83 397,-854.67 397,-854.67 397,-846.33 397,-846.33 397,-842.17 401.17,-838 405.33,-838"/>
<text text-anchor="start" x="402" y="-847.8" font-family="Times,serif" font-weight="bold" font-size="14.00">S1, A7, 0, 0</text>
</g>
<!-- 0x83ba14b8 -->
<g id="node3" class="node">
<title>0x83ba14b8</title>
<ellipse fill="white" stroke="black" stroke-width="0.8" cx="389" cy="-776.5" rx="3.5" ry="3.5"/>
</g>
<!-- 0x46ac07f4&#45;&gt;0x83ba14b8 -->
<g id="edge1" class="edge">
<title>0x46ac07f4:box&#45;&gt;0x83ba14b8</title>
<path fill="none" stroke="#22c55e" d="M396,-850C370.43,-850 380.88,-804.78 386.41,-785.77"/>
<polygon fill="#22c55e" stroke="#22c55e" points="388.45,-786.26 388.2,-779.91 384.44,-785.04 388.45,-786.26"/>
<text text-anchor="start" x="383" y="-802.6" font-family="Times,serif" font-weight="bold" font-size="13.00" fill="#22c55e"> o1 </text>
</g>
<!-- 0xac363258 -->
<g id="node7" class="node">
<title>0xac363258</title>
<ellipse fill="white" stroke="black" stroke-width="0.8" cx="565" cy="-776.5" rx="3.5" ry="3.5"/>
</g>
<!-- 0x46ac07f4&#45;&gt;0xac363258 -->
<g id="edge3" class="edge">
<title>0x46ac07f4:box&#45;&gt;0xac363258</title>
<path fill="none" stroke="#3b82f6" d="M475,-850C487.94,-850 474.9,-832.1 483,-822 502.51,-797.68 539.04,-784.77 555.97,-779.87"/>
<polygon fill="#3b82f6" stroke="#3b82f6" points="556.68,-781.85 561.91,-778.24 555.57,-777.8 556.68,-781.85"/>
<text text-anchor="start" x="512" y="-802.6" font-family="Times,serif" font-weight="bold" font-size="13.00" fill="#3b82f6"> o2 </text>
</g>
<!-- 0xd3d5dc53 -->
<g id="node11" class="node">
<title>0xd3d5dc53</title>
<ellipse fill="white" stroke="black" stroke-width="0.8" cx="436" cy="-486.5" rx="3.5" ry="3.5"/>
</g>
<!-- 0x46ac07f4&#45;&gt;0xd3d5dc53 -->
<g id="edge7" class="edge">
<title>0x46ac07f4:box&#45;&gt;0xd3d5dc53</title>
<path fill="none" stroke="#3b82f6" d="M436,-837C436,-810.56 436,-803.94 436,-777.5 436,-777.5 436,-777.5 436,-558 436,-535.9 436,-509.9 436,-496.5"/>
<polygon fill="#3b82f6" stroke="#3b82f6" points="438.1,-496.19 436,-490.19 433.9,-496.19 438.1,-496.19"/>
<text text-anchor="start" x="436" y="-657.6" font-family="Times,serif" font-weight="bold" font-size="13.00" fill="#3b82f6"> o3 </text>
</g>
<!-- 0x8e7109f3 -->
<g id="node2" class="node">
<title>0x8e7109f3</title>
<text text-anchor="start" x="352.5" y="-714.4" font-family="Times,serif" font-weight="bold" font-size="12.00">ye1</text>
<path fill="#f8f9fa" stroke="transparent" d="M331.33,-685C331.33,-685 391.67,-685 391.67,-685 395.83,-685 400,-689.17 400,-693.33 400,-693.33 400,-701.67 400,-701.67 400,-705.83 395.83,-710 391.67,-710 391.67,-710 331.33,-710 331.33,-710 327.17,-710 323,-705.83 323,-701.67 323,-701.67 323,-693.33 323,-693.33 323,-689.17 327.17,-685 331.33,-685"/>
<path fill="none" stroke="#333333" d="M331.33,-685C331.33,-685 391.67,-685 391.67,-685 395.83,-685 400,-689.17 400,-693.33 400,-693.33 400,-701.67 400,-701.67 400,-705.83 395.83,-710 391.67,-710 391.67,-710 331.33,-710 331.33,-710 327.17,-710 323,-705.83 323,-701.67 323,-701.67 323,-693.33 323,-693.33 323,-689.17 327.17,-685 331.33,-685"/>
<text text-anchor="start" x="328" y="-694.8" font-family="Times,serif" font-weight="bold" font-size="14.00">S2, A7, 1, 0</text>
</g>
<!-- 0x1dc32290 -->
<g id="node13" class="node">
<title>0x1dc32290</title>
<ellipse fill="white" stroke="black" stroke-width="0.8" cx="357" cy="-631.5" rx="3.5" ry="3.5"/>
</g>
<!-- 0x8e7109f3&#45;&gt;0x1dc32290 -->
<g id="edge11" class="edge">
<title>0x8e7109f3:box&#45;&gt;0x1dc32290</title>
<path fill="none" stroke="#4b5563" d="M362,-685C362,-669.68 359.86,-651.95 358.38,-641.51"/>
<polygon fill="#4b5563" stroke="#4b5563" points="360.42,-640.96 357.46,-635.34 356.27,-641.58 360.42,-640.96"/>
<text text-anchor="start" x="362" y="-657.6" font-family="Times,serif" font-weight="bold" font-size="13.00" fill="#4b5563"> uo2 </text>
</g>
<!-- 0x83ba14b8&#45;&gt;0x8e7109f3 -->
<g id="edge2" class="edge">
<title>0x83ba14b8&#45;&gt;0x8e7109f3:box</title>
<path fill="none" stroke="#666666" stroke-dasharray="5,2" d="M389.68,-772.89C392.54,-761.82 403.41,-718.64 403.18,-702.84"/>
<polygon fill="#666666" stroke="#666666" points="405.06,-701.89 401,-697 401.13,-703.36 405.06,-701.89"/>
<text text-anchor="start" x="397" y="-745.6" font-family="Times,serif" font-weight="bold" font-size="13.00" fill="#666666"> o1 </text>
</g>
<!-- 0x18921e5b -->
<g id="node4" class="node">
<title>0x18921e5b</title>
<text text-anchor="start" x="605.5" y="-714.4" font-family="Times,serif" font-weight="bold" font-size="12.00">ye2</text>
<path fill="#f8f9fa" stroke="transparent" d="M584.33,-685C584.33,-685 644.67,-685 644.67,-685 648.83,-685 653,-689.17 653,-693.33 653,-693.33 653,-701.67 653,-701.67 653,-705.83 648.83,-710 644.67,-710 644.67,-710 584.33,-710 584.33,-710 580.17,-710 576,-705.83 576,-701.67 576,-701.67 576,-693.33 576,-693.33 576,-689.17 580.17,-685 584.33,-685"/>
<path fill="none" stroke="#333333" d="M584.33,-685C584.33,-685 644.67,-685 644.67,-685 648.83,-685 653,-689.17 653,-693.33 653,-693.33 653,-701.67 653,-701.67 653,-705.83 648.83,-710 644.67,-710 644.67,-710 584.33,-710 584.33,-710 580.17,-710 576,-705.83 576,-701.67 576,-701.67 576,-693.33 576,-693.33 576,-689.17 580.17,-685 584.33,-685"/>
<text text-anchor="start" x="581" y="-694.8" font-family="Times,serif" font-weight="bold" font-size="14.00">S7, A0, 3, 1</text>
</g>
<!-- 0x7446986 -->
<g id="node15" class="node">
<title>0x7446986</title>
<ellipse fill="white" stroke="black" stroke-width="0.8" cx="615" cy="-631.5" rx="3.5" ry="3.5"/>
</g>
<!-- 0x18921e5b&#45;&gt;0x7446986 -->
<g id="edge13" class="edge">
<title>0x18921e5b:box&#45;&gt;0x7446986</title>
<path fill="none" stroke="#ef4444" d="M615,-685C615,-669.74 615,-652 615,-641.53"/>
<polygon fill="#ef4444" stroke="#ef4444" points="617.1,-641.35 615,-635.35 612.9,-641.35 617.1,-641.35"/>
<text text-anchor="start" x="615" y="-657.6" font-family="Times,serif" font-weight="bold" font-size="13.00" fill="#ef4444"> o4 </text>
</g>
<!-- 0x14432f18 -->
<g id="node5" class="node">
<title>0x14432f18</title>
<text text-anchor="start" x="704.5" y="-714.4" font-family="Times,serif" font-weight="bold" font-size="12.00">ye3</text>
<path fill="#f8f9fa" stroke="transparent" d="M683.33,-685C683.33,-685 743.67,-685 743.67,-685 747.83,-685 752,-689.17 752,-693.33 752,-693.33 752,-701.67 752,-701.67 752,-705.83 747.83,-710 743.67,-710 743.67,-710 683.33,-710 683.33,-710 679.17,-710 675,-705.83 675,-701.67 675,-701.67 675,-693.33 675,-693.33 675,-689.17 679.17,-685 683.33,-685"/>
<path fill="none" stroke="#333333" d="M683.33,-685C683.33,-685 743.67,-685 743.67,-685 747.83,-685 752,-689.17 752,-693.33 752,-693.33 752,-701.67 752,-701.67 752,-705.83 747.83,-710 743.67,-710 743.67,-710 683.33,-710 683.33,-710 679.17,-710 675,-705.83 675,-701.67 675,-701.67 675,-693.33 675,-693.33 675,-689.17 679.17,-685 683.33,-685"/>
<text text-anchor="start" x="680" y="-694.8" font-family="Times,serif" font-weight="bold" font-size="14.00">S8, A0, 3, 2</text>
</g>
<!-- 0xc2c592dd -->
<g id="node17" class="node">
<title>0xc2c592dd</title>
<ellipse fill="white" stroke="black" stroke-width="0.8" cx="714" cy="-631.5" rx="3.5" ry="3.5"/>
</g>
<!-- 0x14432f18&#45;&gt;0xc2c592dd -->
<g id="edge15" class="edge">
<title>0x14432f18:box&#45;&gt;0xc2c592dd</title>
<path fill="none" stroke="#ef4444" d="M714,-685C714,-669.74 714,-652 714,-641.53"/>
<polygon fill="#ef4444" stroke="#ef4444" points="716.1,-641.35 714,-635.35 711.9,-641.35 716.1,-641.35"/>
<text text-anchor="start" x="714" y="-657.6" font-family="Times,serif" font-weight="bold" font-size="13.00" fill="#ef4444"> o4 </text>
</g>
<!-- 0x640c8300 -->
<g id="node6" class="node">
<title>0x640c8300</title>
<text text-anchor="start" x="506.5" y="-714.4" font-family="Times,serif" font-weight="bold" font-size="12.00">ye4</text>
<path fill="#f8f9fa" stroke="transparent" d="M485.33,-685C485.33,-685 545.67,-685 545.67,-685 549.83,-685 554,-689.17 554,-693.33 554,-693.33 554,-701.67 554,-701.67 554,-705.83 549.83,-710 545.67,-710 545.67,-710 485.33,-710 485.33,-710 481.17,-710 477,-705.83 477,-701.67 477,-701.67 477,-693.33 477,-693.33 477,-689.17 481.17,-685 485.33,-685"/>
<path fill="none" stroke="#333333" d="M485.33,-685C485.33,-685 545.67,-685 545.67,-685 549.83,-685 554,-689.17 554,-693.33 554,-693.33 554,-701.67 554,-701.67 554,-705.83 549.83,-710 545.67,-710 545.67,-710 485.33,-710 485.33,-710 481.17,-710 477,-705.83 477,-701.67 477,-701.67 477,-693.33 477,-693.33 477,-689.17 481.17,-685 485.33,-685"/>
<text text-anchor="start" x="482" y="-694.8" font-family="Times,serif" font-weight="bold" font-size="14.00">S1, A0, 3, 0</text>
</g>
<!-- 0x97cd2b8c -->
<g id="node19" class="node">
<title>0x97cd2b8c</title>
<ellipse fill="white" stroke="black" stroke-width="0.8" cx="516" cy="-631.5" rx="3.5" ry="3.5"/>
</g>
<!-- 0x640c8300&#45;&gt;0x97cd2b8c -->
<g id="edge17" class="edge">
<title>0x640c8300:box&#45;&gt;0x97cd2b8c</title>
<path fill="none" stroke="#ef4444" d="M516,-685C516,-669.74 516,-652 516,-641.53"/>
<polygon fill="#ef4444" stroke="#ef4444" points="518.1,-641.35 516,-635.35 513.9,-641.35 518.1,-641.35"/>
<text text-anchor="start" x="516" y="-657.6" font-family="Times,serif" font-weight="bold" font-size="13.00" fill="#ef4444"> o4 </text>
</g>
<!-- 0xac363258&#45;&gt;0x18921e5b -->
<g id="edge4" class="edge">
<title>0xac363258&#45;&gt;0x18921e5b:box</title>
<path fill="none" stroke="#666666" stroke-dasharray="5,2" d="M565.05,-772.89C565.3,-761.61 566.59,-716.97 571.47,-701.96"/>
<polygon fill="#666666" stroke="#666666" points="573.23,-703.11 575,-697 569.81,-700.67 573.23,-703.11"/>
<text text-anchor="start" x="566" y="-745.6" font-family="Times,serif" font-weight="bold" font-size="13.00" fill="#666666"> o3 </text>
</g>
<!-- 0xac363258&#45;&gt;0x14432f18 -->
<g id="edge5" class="edge">
<title>0xac363258&#45;&gt;0x14432f18:box</title>
<path fill="none" stroke="#666666" stroke-dasharray="5,2" d="M568.26,-774.68C581.94,-771.07 635.35,-755.32 664,-723 670.16,-716.05 665.74,-704.9 668.37,-699.76"/>
<polygon fill="#666666" stroke="#666666" points="669.54,-701.53 674,-697 667.69,-697.75 669.54,-701.53"/>
<text text-anchor="start" x="643" y="-745.6" font-family="Times,serif" font-weight="bold" font-size="13.00" fill="#666666"> o2 </text>
</g>
<!-- 0xac363258&#45;&gt;0x640c8300 -->
<g id="edge6" class="edge">
<title>0xac363258&#45;&gt;0x640c8300:box</title>
<path fill="none" stroke="#666666" stroke-dasharray="5,2" d="M562.66,-773.66C558.74,-770.4 550.95,-763.18 548,-755 540.09,-733.06 573,-703.73 560.94,-697.99"/>
<polygon fill="#666666" stroke="#666666" points="561.26,-695.92 555,-697 560.57,-700.06 561.26,-695.92"/>
<text text-anchor="start" x="548" y="-745.6" font-family="Times,serif" font-weight="bold" font-size="13.00" fill="#666666"> ε </text>
</g>
<!-- 0x7ade2a88 -->
<g id="node8" class="node">
<title>0x7ade2a88</title>
<text text-anchor="start" x="605.5" y="-406.9" font-family="Times,serif" font-weight="bold" font-size="12.00">ye5</text>
<path fill="#f8f9fa" stroke="transparent" d="M584.33,-377.5C584.33,-377.5 644.67,-377.5 644.67,-377.5 648.83,-377.5 653,-381.67 653,-385.83 653,-385.83 653,-394.17 653,-394.17 653,-398.33 648.83,-402.5 644.67,-402.5 644.67,-402.5 584.33,-402.5 584.33,-402.5 580.17,-402.5 576,-398.33 576,-394.17 576,-394.17 576,-385.83 576,-385.83 576,-381.67 580.17,-377.5 584.33,-377.5"/>
<path fill="none" stroke="#333333" d="M584.33,-377.5C584.33,-377.5 644.67,-377.5 644.67,-377.5 648.83,-377.5 653,-381.67 653,-385.83 653,-385.83 653,-394.17 653,-394.17 653,-398.33 648.83,-402.5 644.67,-402.5 644.67,-402.5 584.33,-402.5 584.33,-402.5 580.17,-402.5 576,-398.33 576,-394.17 576,-394.17 576,-385.83 576,-385.83 576,-381.67 580.17,-377.5 584.33,-377.5"/>
<text text-anchor="start" x="581" y="-387.3" font-family="Times,serif" font-weight="bold" font-size="14.00">S7, A6, 7, 1</text>
</g>
<!-- 0x5f7bbde3 -->
<g id="node21" class="node">
<title>0x5f7bbde3</title>
<ellipse fill="white" stroke="black" stroke-width="0.8" cx="692" cy="-306.5" rx="3.5" ry="3.5"/>
</g>
<!-- 0x7ade2a88&#45;&gt;0x5f7bbde3 -->
<g id="edge19" class="edge">
<title>0x7ade2a88:box&#45;&gt;0x5f7bbde3</title>
<path fill="none" stroke="#4b5563" d="M615,-376.5C615,-340.21 663.02,-318.21 683.22,-310.56"/>
<polygon fill="#4b5563" stroke="#4b5563" points="684.14,-312.46 689.08,-308.45 682.72,-308.5 684.14,-312.46"/>
<text text-anchor="start" x="646" y="-332.6" font-family="Times,serif" font-weight="bold" font-size="13.00" fill="#4b5563"> uo1 </text>
</g>
<!-- 0x5cb8417a -->
<g id="node9" class="node">
<title>0x5cb8417a</title>
<text text-anchor="start" x="379.5" y="-406.9" font-family="Times,serif" font-weight="bold" font-size="12.00">ye6</text>
<path fill="#f8f9fa" stroke="transparent" d="M358.33,-377.5C358.33,-377.5 418.67,-377.5 418.67,-377.5 422.83,-377.5 427,-381.67 427,-385.83 427,-385.83 427,-394.17 427,-394.17 427,-398.33 422.83,-402.5 418.67,-402.5 418.67,-402.5 358.33,-402.5 358.33,-402.5 354.17,-402.5 350,-398.33 350,-394.17 350,-394.17 350,-385.83 350,-385.83 350,-381.67 354.17,-377.5 358.33,-377.5"/>
<path fill="none" stroke="#333333" d="M358.33,-377.5C358.33,-377.5 418.67,-377.5 418.67,-377.5 422.83,-377.5 427,-381.67 427,-385.83 427,-385.83 427,-394.17 427,-394.17 427,-398.33 422.83,-402.5 418.67,-402.5 418.67,-402.5 358.33,-402.5 358.33,-402.5 354.17,-402.5 350,-398.33 350,-394.17 350,-394.17 350,-385.83 350,-385.83 350,-381.67 354.17,-377.5 358.33,-377.5"/>
<text text-anchor="start" x="355" y="-387.3" font-family="Times,serif" font-weight="bold" font-size="14.00">S8, A6, 7, 2</text>
</g>
<!-- 0x5277e96d -->
<g id="node24" class="node">
<title>0x5277e96d</title>
<ellipse fill="white" stroke="black" stroke-width="0.8" cx="263" cy="-306.5" rx="3.5" ry="3.5"/>
</g>
<!-- 0x5cb8417a&#45;&gt;0x5277e96d -->
<g id="edge21" class="edge">
<title>0x5cb8417a:box&#45;&gt;0x5277e96d</title>
<path fill="none" stroke="#3b82f6" d="M349,-389.5C335.01,-389.5 346.56,-371.07 338,-360 319.44,-336.02 286.89,-318.62 271.51,-311.32"/>
<polygon fill="#3b82f6" stroke="#3b82f6" points="272.09,-309.27 265.76,-308.68 270.34,-313.09 272.09,-309.27"/>
<text text-anchor="start" x="320" y="-332.6" font-family="Times,serif" font-weight="bold" font-size="13.00" fill="#3b82f6"> o3 </text>
</g>
<!-- 0xf927138d -->
<g id="node26" class="node">
<title>0xf927138d</title>
<ellipse fill="white" stroke="black" stroke-width="0.8" cx="389" cy="-306.5" rx="3.5" ry="3.5"/>
</g>
<!-- 0x5cb8417a&#45;&gt;0xf927138d -->
<g id="edge25" class="edge">
<title>0x5cb8417a:box&#45;&gt;0xf927138d</title>
<path fill="none" stroke="#4b5563" d="M389,-376.5C389,-354.87 389,-329.43 389,-316.31"/>
<polygon fill="#4b5563" stroke="#4b5563" points="391.1,-316.13 389,-310.13 386.9,-316.13 391.1,-316.13"/>
<text text-anchor="start" x="389" y="-332.6" font-family="Times,serif" font-weight="bold" font-size="13.00" fill="#4b5563"> uo1 </text>
</g>
<!-- 0xc6588f2d -->
<g id="node10" class="node">
<title>0xc6588f2d</title>
<text text-anchor="start" x="499.5" y="-406.9" font-family="Times,serif" font-weight="bold" font-size="12.00">ye7</text>
<path fill="#f8f9fa" stroke="transparent" d="M478.33,-377.5C478.33,-377.5 538.67,-377.5 538.67,-377.5 542.83,-377.5 547,-381.67 547,-385.83 547,-385.83 547,-394.17 547,-394.17 547,-398.33 542.83,-402.5 538.67,-402.5 538.67,-402.5 478.33,-402.5 478.33,-402.5 474.17,-402.5 470,-398.33 470,-394.17 470,-394.17 470,-385.83 470,-385.83 470,-381.67 474.17,-377.5 478.33,-377.5"/>
<path fill="none" stroke="#333333" d="M478.33,-377.5C478.33,-377.5 538.67,-377.5 538.67,-377.5 542.83,-377.5 547,-381.67 547,-385.83 547,-385.83 547,-394.17 547,-394.17 547,-398.33 542.83,-402.5 538.67,-402.5 538.67,-402.5 478.33,-402.5 478.33,-402.5 474.17,-402.5 470,-398.33 470,-394.17 470,-394.17 470,-385.83 470,-385.83 470,-381.67 474.17,-377.5 478.33,-377.5"/>
<text text-anchor="start" x="475" y="-387.3" font-family="Times,serif" font-weight="bold" font-size="14.00">S1, A6, 7, 0</text>
</g>
<!-- 0x62552c6d -->
<g id="node29" class="node">
<title>0x62552c6d</title>
<ellipse fill="white" stroke="black" stroke-width="0.8" cx="498" cy="-306.5" rx="3.5" ry="3.5"/>
</g>
<!-- 0xc6588f2d&#45;&gt;0x62552c6d -->
<g id="edge27" class="edge">
<title>0xc6588f2d:box&#45;&gt;0x62552c6d</title>
<path fill="none" stroke="#3b82f6" d="M509,-376.5C509,-354.6 503.53,-329.27 500.3,-316.24"/>
<polygon fill="#3b82f6" stroke="#3b82f6" points="502.25,-315.39 498.72,-310.11 498.19,-316.44 502.25,-315.39"/>
<text text-anchor="start" x="505" y="-332.6" font-family="Times,serif" font-weight="bold" font-size="13.00" fill="#3b82f6"> o3 </text>
</g>
<!-- 0x70047fe9 -->
<g id="node31" class="node">
<title>0x70047fe9</title>
<ellipse fill="white" stroke="black" stroke-width="0.8" cx="611" cy="-306.5" rx="3.5" ry="3.5"/>
</g>
<!-- 0xc6588f2d&#45;&gt;0x70047fe9 -->
<g id="edge31" class="edge">
<title>0xc6588f2d:box&#45;&gt;0x70047fe9</title>
<path fill="none" stroke="#4b5563" d="M548,-389.5C563.13,-389.5 556.19,-372.31 565,-360 577.62,-342.37 595.06,-323.75 604.43,-314.12"/>
<polygon fill="#4b5563" stroke="#4b5563" points="606,-315.52 608.72,-309.77 603.01,-312.57 606,-315.52"/>
<text text-anchor="start" x="590" y="-332.6" font-family="Times,serif" font-weight="bold" font-size="13.00" fill="#4b5563"> uo1 </text>
</g>
<!-- 0xd3d5dc53&#45;&gt;0x7ade2a88 -->
<g id="edge8" class="edge">
<title>0xd3d5dc53&#45;&gt;0x7ade2a88:box</title>
<path fill="none" stroke="#666666" stroke-dasharray="5,2" d="M438.74,-484.09C448.3,-479.22 481.07,-462.7 509,-451 530.4,-442.03 541.43,-449.24 558,-433 570.97,-420.29 558.37,-396.52 568.92,-390.77"/>
<polygon fill="#666666" stroke="#666666" points="569.56,-392.79 575,-389.5 568.7,-388.67 569.56,-392.79"/>
<text text-anchor="start" x="509" y="-455.6" font-family="Times,serif" font-weight="bold" font-size="13.00" fill="#666666"> o3 </text>
</g>
<!-- 0xd3d5dc53&#45;&gt;0x5cb8417a -->
<g id="edge9" class="edge">
<title>0xd3d5dc53&#45;&gt;0x5cb8417a:box</title>
<path fill="none" stroke="#666666" stroke-dasharray="5,2" d="M432.73,-485.24C423.83,-484.34 399.14,-480.49 389,-465 372.74,-440.16 421.81,-426.86 427,-415.5 430.53,-407.78 435.65,-397.38 433.54,-392.39"/>
<polygon fill="#666666" stroke="#666666" points="434.29,-390.42 428,-389.5 432.35,-394.14 434.29,-390.42"/>
<text text-anchor="start" x="389" y="-455.6" font-family="Times,serif" font-weight="bold" font-size="13.00" fill="#666666"> o2 </text>
</g>
<!-- 0xd3d5dc53&#45;&gt;0xc6588f2d -->
<g id="edge10" class="edge">
<title>0xd3d5dc53&#45;&gt;0xc6588f2d:box</title>
<path fill="none" stroke="#666666" stroke-dasharray="5,2" d="M435.58,-482.94C434.72,-477.14 433.08,-462.62 436,-451 443.03,-423.03 438.7,-393.91 462.98,-389.95"/>
<polygon fill="#666666" stroke="#666666" points="463.18,-392.05 469,-389.5 462.86,-387.86 463.18,-392.05"/>
<text text-anchor="start" x="436" y="-455.6" font-family="Times,serif" font-weight="bold" font-size="13.00" fill="#666666"> ε </text>
</g>
<!-- 0x77c1714c -->
<g id="node12" class="node">
<title>0x77c1714c</title>
<text text-anchor="start" x="336.5" y="-569.4" font-family="Times,serif" font-weight="bold" font-size="12.00">ye8</text>
<path fill="#f8f9fa" stroke="transparent" d="M315.33,-540C315.33,-540 375.67,-540 375.67,-540 379.83,-540 384,-544.17 384,-548.33 384,-548.33 384,-556.67 384,-556.67 384,-560.83 379.83,-565 375.67,-565 375.67,-565 315.33,-565 315.33,-565 311.17,-565 307,-560.83 307,-556.67 307,-556.67 307,-548.33 307,-548.33 307,-544.17 311.17,-540 315.33,-540"/>
<path fill="none" stroke="#333333" d="M315.33,-540C315.33,-540 375.67,-540 375.67,-540 379.83,-540 384,-544.17 384,-548.33 384,-548.33 384,-556.67 384,-556.67 384,-560.83 379.83,-565 375.67,-565 375.67,-565 315.33,-565 315.33,-565 311.17,-565 307,-560.83 307,-556.67 307,-556.67 307,-548.33 307,-548.33 307,-544.17 311.17,-540 315.33,-540"/>
<text text-anchor="start" x="312" y="-549.8" font-family="Times,serif" font-weight="bold" font-size="14.00">S2, A7, 2, 0</text>
</g>
<!-- 0xf72f851a -->
<g id="node33" class="node">
<title>0xf72f851a</title>
<ellipse fill="white" stroke="black" stroke-width="0.8" cx="300" cy="-486.5" rx="3.5" ry="3.5"/>
</g>
<!-- 0x77c1714c&#45;&gt;0xf72f851a -->
<g id="edge33" class="edge">
<title>0x77c1714c:box&#45;&gt;0xf72f851a</title>
<path fill="none" stroke="#22c55e" d="M306,-552C283.76,-552 292.3,-513.51 297.34,-496"/>
<polygon fill="#22c55e" stroke="#22c55e" points="299.44,-496.3 299.18,-489.95 295.42,-495.08 299.44,-496.3"/>
<text text-anchor="start" x="295" y="-512.6" font-family="Times,serif" font-weight="bold" font-size="13.00" fill="#22c55e"> o1 </text>
</g>
<!-- 0x1dc32290&#45;&gt;0x77c1714c -->
<g id="edge12" class="edge">
<title>0x1dc32290&#45;&gt;0x77c1714c:box</title>
<path fill="none" stroke="#666666" stroke-dasharray="5,2" d="M358.84,-628.24C368.39,-616.32 411.2,-561.13 391.1,-553"/>
<polygon fill="#666666" stroke="#666666" points="391.26,-550.9 385,-552 390.58,-555.04 391.26,-550.9"/>
<text text-anchor="start" x="381" y="-600.6" font-family="Times,serif" font-weight="bold" font-size="13.00" fill="#666666"> uo2 </text>
</g>
<!-- 0x918dc32f -->
<g id="node14" class="node">
<title>0x918dc32f</title>
<text text-anchor="start" x="605.5" y="-569.4" font-family="Times,serif" font-weight="bold" font-size="12.00">ye9</text>
<path fill="#f8f9fa" stroke="transparent" d="M584.33,-540C584.33,-540 644.67,-540 644.67,-540 648.83,-540 653,-544.17 653,-548.33 653,-548.33 653,-556.67 653,-556.67 653,-560.83 648.83,-565 644.67,-565 644.67,-565 584.33,-565 584.33,-565 580.17,-565 576,-560.83 576,-556.67 576,-556.67 576,-548.33 576,-548.33 576,-544.17 580.17,-540 584.33,-540"/>
<path fill="none" stroke="#333333" d="M584.33,-540C584.33,-540 644.67,-540 644.67,-540 648.83,-540 653,-544.17 653,-548.33 653,-548.33 653,-556.67 653,-556.67 653,-560.83 648.83,-565 644.67,-565 644.67,-565 584.33,-565 584.33,-565 580.17,-565 576,-560.83 576,-556.67 576,-556.67 576,-548.33 576,-548.33 576,-544.17 580.17,-540 584.33,-540"/>
<text text-anchor="start" x="581" y="-549.8" font-family="Times,serif" font-weight="bold" font-size="14.00">S7, A6, 6, 1</text>
</g>
<!-- 0xac10a753 -->
<g id="node34" class="node">
<title>0xac10a753</title>
<ellipse fill="white" stroke="black" stroke-width="0.8" cx="615" cy="-486.5" rx="3.5" ry="3.5"/>
</g>
<!-- 0x918dc32f&#45;&gt;0xac10a753 -->
<g id="edge35" class="edge">
<title>0x918dc32f:box&#45;&gt;0xac10a753</title>
<path fill="none" stroke="#4b5563" d="M615,-540C615,-524.74 615,-507 615,-496.53"/>
<polygon fill="#4b5563" stroke="#4b5563" points="617.1,-496.35 615,-490.35 612.9,-496.35 617.1,-496.35"/>
<text text-anchor="start" x="615" y="-512.6" font-family="Times,serif" font-weight="bold" font-size="13.00" fill="#4b5563"> uo3 </text>
</g>
<!-- 0x7446986&#45;&gt;0x918dc32f -->
<g id="edge14" class="edge">
<title>0x7446986&#45;&gt;0x918dc32f:box</title>
<path fill="none" stroke="#666666" stroke-dasharray="5,2" d="M617.29,-628.38C624.26,-621.75 645.21,-600.55 653,-578 655.77,-569.97 661.25,-559.71 659.38,-554.83"/>
<polygon fill="#666666" stroke="#666666" points="660.29,-552.93 654,-552 658.33,-556.65 660.29,-552.93"/>
<text text-anchor="start" x="643" y="-600.6" font-family="Times,serif" font-weight="bold" font-size="13.00" fill="#666666"> o4 </text>
</g>
<!-- 0x78a936d6 -->
<g id="node16" class="node">
<title>0x78a936d6</title>
<text text-anchor="start" x="701.5" y="-569.4" font-family="Times,serif" font-weight="bold" font-size="12.00">ye10</text>
<path fill="#f8f9fa" stroke="transparent" d="M683.33,-540C683.33,-540 743.67,-540 743.67,-540 747.83,-540 752,-544.17 752,-548.33 752,-548.33 752,-556.67 752,-556.67 752,-560.83 747.83,-565 743.67,-565 743.67,-565 683.33,-565 683.33,-565 679.17,-565 675,-560.83 675,-556.67 675,-556.67 675,-548.33 675,-548.33 675,-544.17 679.17,-540 683.33,-540"/>
<path fill="none" stroke="#333333" d="M683.33,-540C683.33,-540 743.67,-540 743.67,-540 747.83,-540 752,-544.17 752,-548.33 752,-548.33 752,-556.67 752,-556.67 752,-560.83 747.83,-565 743.67,-565 743.67,-565 683.33,-565 683.33,-565 679.17,-565 675,-560.83 675,-556.67 675,-556.67 675,-548.33 675,-548.33 675,-544.17 679.17,-540 683.33,-540"/>
<text text-anchor="start" x="680" y="-549.8" font-family="Times,serif" font-weight="bold" font-size="14.00">S8, A2, 6, 2</text>
</g>
<!-- 0xc2c592dd&#45;&gt;0x78a936d6 -->
<g id="edge16" class="edge">
<title>0xc2c592dd&#45;&gt;0x78a936d6:box</title>
<path fill="none" stroke="#666666" stroke-dasharray="5,2" d="M716.21,-628.24C727.76,-616.27 779.88,-560.66 759.03,-552.9"/>
<polygon fill="#666666" stroke="#666666" points="759.24,-550.81 753,-552 758.62,-554.96 759.24,-550.81"/>
<text text-anchor="start" x="742" y="-600.6" font-family="Times,serif" font-weight="bold" font-size="13.00" fill="#666666"> o4 </text>
</g>
<!-- 0xdd0827d4 -->
<g id="node18" class="node">
<title>0xdd0827d4</title>
<text text-anchor="start" x="503.5" y="-569.4" font-family="Times,serif" font-weight="bold" font-size="12.00">ye11</text>
<path fill="#f8f9fa" stroke="transparent" d="M485.33,-540C485.33,-540 545.67,-540 545.67,-540 549.83,-540 554,-544.17 554,-548.33 554,-548.33 554,-556.67 554,-556.67 554,-560.83 549.83,-565 545.67,-565 545.67,-565 485.33,-565 485.33,-565 481.17,-565 477,-560.83 477,-556.67 477,-556.67 477,-548.33 477,-548.33 477,-544.17 481.17,-540 485.33,-540"/>
<path fill="none" stroke="#333333" d="M485.33,-540C485.33,-540 545.67,-540 545.67,-540 549.83,-540 554,-544.17 554,-548.33 554,-548.33 554,-556.67 554,-556.67 554,-560.83 549.83,-565 545.67,-565 545.67,-565 485.33,-565 485.33,-565 481.17,-565 477,-560.83 477,-556.67 477,-556.67 477,-548.33 477,-548.33 477,-544.17 481.17,-540 485.33,-540"/>
<text text-anchor="start" x="482" y="-549.8" font-family="Times,serif" font-weight="bold" font-size="14.00">S1, A6, 6, 0</text>
</g>
<!-- 0xcca38c8c -->
<g id="node35" class="node">
<title>0xcca38c8c</title>
<ellipse fill="white" stroke="black" stroke-width="0.8" cx="520" cy="-486.5" rx="3.5" ry="3.5"/>
</g>
<!-- 0xdd0827d4&#45;&gt;0xcca38c8c -->
<g id="edge37" class="edge">
<title>0xdd0827d4:box&#45;&gt;0xcca38c8c</title>
<path fill="none" stroke="#4b5563" d="M516,-540C516,-524.7 517.71,-506.96 518.89,-496.52"/>
<polygon fill="#4b5563" stroke="#4b5563" points="521.01,-496.55 519.63,-490.34 516.83,-496.05 521.01,-496.55"/>
<text text-anchor="start" x="517" y="-512.6" font-family="Times,serif" font-weight="bold" font-size="13.00" fill="#4b5563"> uo3 </text>
</g>
<!-- 0x97cd2b8c&#45;&gt;0xdd0827d4 -->
<g id="edge18" class="edge">
<title>0x97cd2b8c&#45;&gt;0xdd0827d4:box</title>
<path fill="none" stroke="#666666" stroke-dasharray="5,2" d="M518.29,-628.38C525.26,-621.75 546.21,-600.55 554,-578 556.77,-569.97 562.25,-559.71 560.38,-554.83"/>
<polygon fill="#666666" stroke="#666666" points="561.29,-552.93 555,-552 559.33,-556.65 561.29,-552.93"/>
<text text-anchor="start" x="544" y="-600.6" font-family="Times,serif" font-weight="bold" font-size="13.00" fill="#666666"> o4 </text>
</g>
<!-- 0xc4d8bf04 -->
<g id="node20" class="node">
<title>0xc4d8bf04</title>
<text text-anchor="start" x="774.5" y="-226.9" font-family="Times,serif" font-weight="bold" font-size="12.00">ye12</text>
<path fill="#f8f9fa" stroke="transparent" d="M756.33,-197.5C756.33,-197.5 816.67,-197.5 816.67,-197.5 820.83,-197.5 825,-201.67 825,-205.83 825,-205.83 825,-214.17 825,-214.17 825,-218.33 820.83,-222.5 816.67,-222.5 816.67,-222.5 756.33,-222.5 756.33,-222.5 752.17,-222.5 748,-218.33 748,-214.17 748,-214.17 748,-205.83 748,-205.83 748,-201.67 752.17,-197.5 756.33,-197.5"/>
<path fill="none" stroke="#333333" d="M756.33,-197.5C756.33,-197.5 816.67,-197.5 816.67,-197.5 820.83,-197.5 825,-201.67 825,-205.83 825,-205.83 825,-214.17 825,-214.17 825,-218.33 820.83,-222.5 816.67,-222.5 816.67,-222.5 756.33,-222.5 756.33,-222.5 752.17,-222.5 748,-218.33 748,-214.17 748,-214.17 748,-205.83 748,-205.83 748,-201.67 752.17,-197.5 756.33,-197.5"/>
<text text-anchor="start" x="753" y="-207.3" font-family="Times,serif" font-weight="bold" font-size="14.00">S7, A6, 4, 1</text>
</g>
<!-- 0xda50d4ca -->
<g id="node39" class="node">
<title>0xda50d4ca</title>
<ellipse fill="white" stroke="black" stroke-width="0.8" cx="823" cy="-126.5" rx="3.5" ry="3.5"/>
</g>
<!-- 0xc4d8bf04&#45;&gt;0xda50d4ca -->
<g id="edge39" class="edge">
<title>0xc4d8bf04:box&#45;&gt;0xda50d4ca</title>
<path fill="none" stroke="#3b82f6" d="M787,-196.5C787,-170.95 806.64,-145.51 816.9,-133.95"/>
<polygon fill="#3b82f6" stroke="#3b82f6" points="818.53,-135.28 821.06,-129.45 815.45,-132.43 818.53,-135.28"/>
<text text-anchor="start" x="805" y="-152.6" font-family="Times,serif" font-weight="bold" font-size="13.00" fill="#3b82f6"> o2 </text>
</g>
<!-- 0x8fa96c62 -->
<g id="node41" class="node">
<title>0x8fa96c62</title>
<ellipse fill="white" stroke="black" stroke-width="0.8" cx="731" cy="-126.5" rx="3.5" ry="3.5"/>
</g>
<!-- 0xc4d8bf04&#45;&gt;0x8fa96c62 -->
<g id="edge43" class="edge">
<title>0xc4d8bf04:box&#45;&gt;0x8fa96c62</title>
<path fill="none" stroke="#22c55e" d="M787,-196.5C787,-181.11 752.99,-147.8 737.98,-133.85"/>
<polygon fill="#22c55e" stroke="#22c55e" points="739.25,-132.16 733.41,-129.65 736.41,-135.26 739.25,-132.16"/>
<text text-anchor="start" x="765" y="-152.6" font-family="Times,serif" font-weight="bold" font-size="13.00" fill="#22c55e"> o1 </text>
</g>
<!-- 0x5f7bbde3&#45;&gt;0xc4d8bf04 -->
<g id="edge20" class="edge">
<title>0x5f7bbde3&#45;&gt;0xc4d8bf04:box</title>
<path fill="none" stroke="#666666" stroke-dasharray="5,2" d="M695.44,-305.15C704.33,-304.05 728.16,-299.79 739,-285 747.57,-273.31 734.86,-225.95 741.82,-212.87"/>
<polygon fill="#666666" stroke="#666666" points="743.11,-214.53 747,-209.5 740.82,-211.01 743.11,-214.53"/>
<text text-anchor="start" x="742" y="-275.6" font-family="Times,serif" font-weight="bold" font-size="13.00" fill="#666666"> uo1 </text>
</g>
<!-- 0x2320eae3 -->
<g id="node22" class="node">
<title>0x2320eae3</title>
<text text-anchor="start" x="177" y="-226.9" font-family="Times,serif" font-weight="bold" font-size="12.00">ye13</text>
<path fill="#fff1f2" stroke="transparent" d="M156.33,-197.5C156.33,-197.5 221.67,-197.5 221.67,-197.5 225.83,-197.5 230,-201.67 230,-205.83 230,-205.83 230,-214.17 230,-214.17 230,-218.33 225.83,-222.5 221.67,-222.5 221.67,-222.5 156.33,-222.5 156.33,-222.5 152.17,-222.5 148,-218.33 148,-214.17 148,-214.17 148,-205.83 148,-205.83 148,-201.67 152.17,-197.5 156.33,-197.5"/>
<path fill="none" stroke="#9f1239" d="M156.33,-197.5C156.33,-197.5 221.67,-197.5 221.67,-197.5 225.83,-197.5 230,-201.67 230,-205.83 230,-205.83 230,-214.17 230,-214.17 230,-218.33 225.83,-222.5 221.67,-222.5 221.67,-222.5 156.33,-222.5 156.33,-222.5 152.17,-222.5 148,-218.33 148,-214.17 148,-214.17 148,-205.83 148,-205.83 148,-201.67 152.17,-197.5 156.33,-197.5"/>
<text text-anchor="start" x="153" y="-207.3" font-family="Times,serif" font-weight="bold" font-size="14.00">AX, A3, 8, 2</text>
</g>
<!-- 0x2c61ab -->
<g id="node23" class="node">
<title>0x2c61ab</title>
<text text-anchor="start" x="279.5" y="-226.9" font-family="Times,serif" font-weight="bold" font-size="12.00">ye14</text>
<path fill="#f8f9fa" stroke="transparent" d="M261.33,-197.5C261.33,-197.5 321.67,-197.5 321.67,-197.5 325.83,-197.5 330,-201.67 330,-205.83 330,-205.83 330,-214.17 330,-214.17 330,-218.33 325.83,-222.5 321.67,-222.5 321.67,-222.5 261.33,-222.5 261.33,-222.5 257.17,-222.5 253,-218.33 253,-214.17 253,-214.17 253,-205.83 253,-205.83 253,-201.67 257.17,-197.5 261.33,-197.5"/>
<path fill="none" stroke="#333333" d="M261.33,-197.5C261.33,-197.5 321.67,-197.5 321.67,-197.5 325.83,-197.5 330,-201.67 330,-205.83 330,-205.83 330,-214.17 330,-214.17 330,-218.33 325.83,-222.5 321.67,-222.5 321.67,-222.5 261.33,-222.5 261.33,-222.5 257.17,-222.5 253,-218.33 253,-214.17 253,-214.17 253,-205.83 253,-205.83 253,-201.67 257.17,-197.5 261.33,-197.5"/>
<text text-anchor="start" x="258" y="-207.3" font-family="Times,serif" font-weight="bold" font-size="14.00">S8, A3, 8, 2</text>
</g>
<!-- 0x9a68d228 -->
<g id="node44" class="node">
<title>0x9a68d228</title>
<ellipse fill="white" stroke="black" stroke-width="0.8" cx="118" cy="-126.5" rx="3.5" ry="3.5"/>
</g>
<!-- 0x2c61ab&#45;&gt;0x9a68d228 -->
<g id="edge45" class="edge">
<title>0x2c61ab:box&#45;&gt;0x9a68d228</title>
<path fill="none" stroke="#3b82f6" d="M252,-209.5C238.01,-209.5 250.66,-190.12 241,-180 208.6,-146.05 150.68,-132.98 127.74,-128.99"/>
<polygon fill="#3b82f6" stroke="#3b82f6" points="127.86,-126.88 121.6,-127.99 127.19,-131.02 127.86,-126.88"/>
<text text-anchor="start" x="218" y="-152.6" font-family="Times,serif" font-weight="bold" font-size="13.00" fill="#3b82f6"> o2 </text>
</g>
<!-- 0x516d6541 -->
<g id="node47" class="node">
<title>0x516d6541</title>
<ellipse fill="white" stroke="black" stroke-width="0.8" cx="292" cy="-126.5" rx="3.5" ry="3.5"/>
</g>
<!-- 0x2c61ab&#45;&gt;0x516d6541 -->
<g id="edge49" class="edge">
<title>0x2c61ab:box&#45;&gt;0x516d6541</title>
<path fill="none" stroke="#3b82f6" d="M292,-196.5C292,-174.87 292,-149.43 292,-136.31"/>
<polygon fill="#3b82f6" stroke="#3b82f6" points="294.1,-136.13 292,-130.13 289.9,-136.13 294.1,-136.13"/>
<text text-anchor="start" x="292" y="-152.6" font-family="Times,serif" font-weight="bold" font-size="13.00" fill="#3b82f6"> o3 </text>
</g>
<!-- 0x5277e96d&#45;&gt;0x2320eae3 -->
<g id="edge22" class="edge">
<title>0x5277e96d&#45;&gt;0x2320eae3:box</title>
<path fill="none" stroke="#666666" stroke-dasharray="5,2" d="M260.26,-304.29C254.73,-301.67 242.31,-294.93 237,-285 230.18,-272.25 243.08,-225.65 236.16,-212.8"/>
<polygon fill="#666666" stroke="#666666" points="237.19,-210.96 231,-209.5 234.92,-214.5 237.19,-210.96"/>
<text text-anchor="start" x="237" y="-275.6" font-family="Times,serif" font-weight="bold" font-size="13.00" fill="#666666"> o3 </text>
</g>
<!-- 0x5277e96d&#45;&gt;0x2320eae3 -->
<g id="edge23" class="edge">
<title>0x5277e96d&#45;&gt;0x2320eae3:box</title>
<path fill="none" stroke="#666666" stroke-dasharray="5,2" d="M259.62,-305.41C249.87,-304.94 221.71,-302.09 210,-285 199.04,-269 227.81,-243.23 230,-235.5 232.26,-227.5 237.76,-217.57 236.38,-212.62"/>
<polygon fill="#666666" stroke="#666666" points="237.25,-210.69 231,-209.5 235.14,-214.32 237.25,-210.69"/>
<text text-anchor="start" x="210" y="-275.6" font-family="Times,serif" font-weight="bold" font-size="13.00" fill="#666666"> o2 </text>
</g>
<!-- 0x5277e96d&#45;&gt;0x2c61ab -->
<g id="edge24" class="edge">
<title>0x5277e96d&#45;&gt;0x2c61ab:box</title>
<path fill="none" stroke="#666666" stroke-dasharray="5,2" d="M263.12,-302.97C263.33,-297.25 263.66,-282.87 262,-271 259.75,-254.88 255.33,-251.61 253,-235.5 251.84,-227.45 246.1,-217.87 246.81,-212.89"/>
<polygon fill="#666666" stroke="#666666" points="248.12,-214.54 252,-209.5 245.83,-211.02 248.12,-214.54"/>
<text text-anchor="start" x="264" y="-275.6" font-family="Times,serif" font-weight="bold" font-size="13.00" fill="#666666"> ε </text>
</g>
<!-- 0xa6b2d5f6 -->
<g id="node25" class="node">
<title>0xa6b2d5f6</title>
<text text-anchor="start" x="378.5" y="-243.9" font-family="Times,serif" font-weight="bold" font-size="12.00">ye15</text>
<path fill="#f8f9fa" stroke="transparent" d="M360.33,-214.5C360.33,-214.5 420.67,-214.5 420.67,-214.5 424.83,-214.5 429,-218.67 429,-222.83 429,-222.83 429,-231.17 429,-231.17 429,-235.33 424.83,-239.5 420.67,-239.5 420.67,-239.5 360.33,-239.5 360.33,-239.5 356.17,-239.5 352,-235.33 352,-231.17 352,-231.17 352,-222.83 352,-222.83 352,-218.67 356.17,-214.5 360.33,-214.5"/>
<path fill="none" stroke="#333333" d="M360.33,-214.5C360.33,-214.5 420.67,-214.5 420.67,-214.5 424.83,-214.5 429,-218.67 429,-222.83 429,-222.83 429,-231.17 429,-231.17 429,-235.33 424.83,-239.5 420.67,-239.5 420.67,-239.5 360.33,-239.5 360.33,-239.5 356.17,-239.5 352,-235.33 352,-231.17 352,-231.17 352,-222.83 352,-222.83 352,-218.67 356.17,-214.5 360.33,-214.5"/>
<text text-anchor="start" x="357" y="-224.3" font-family="Times,serif" font-weight="bold" font-size="14.00">S8, A6, 4, 2</text>
<text text-anchor="start" x="369.5" y="-188.9" font-family="Times,serif" font-size="32.00">· · ·</text>
</g>
<!-- 0x512f7d38 -->
<g id="node50" class="node">
<title>0x512f7d38</title>
<ellipse fill="white" stroke="black" stroke-width="0.8" cx="458" cy="-126.5" rx="3.5" ry="3.5"/>
</g>
<!-- 0xa6b2d5f6&#45;&gt;0x512f7d38 -->
<g id="edge53" class="edge">
<title>0xa6b2d5f6:box&#45;&gt;0x512f7d38</title>
<path fill="none" stroke="#3b82f6" d="M430,-227.5C440.74,-227.5 436.16,-190.36 439,-180 443.41,-163.9 450.49,-145.7 454.65,-135.51"/>
<polygon fill="#3b82f6" stroke="#3b82f6" points="456.63,-136.21 456.99,-129.86 452.75,-134.6 456.63,-136.21"/>
<text text-anchor="start" x="450" y="-152.6" font-family="Times,serif" font-weight="bold" font-size="13.00" fill="#3b82f6"> o2 </text>
</g>
<!-- 0xf927138d&#45;&gt;0xa6b2d5f6 -->
<g id="edge26" class="edge">
<title>0xf927138d&#45;&gt;0xa6b2d5f6:box</title>
<path fill="none" stroke="#666666" stroke-dasharray="5,2" d="M386.83,-303.25C375.49,-291.36 324.32,-236.11 345.02,-228.39"/>
<polygon fill="#666666" stroke="#666666" points="345.38,-230.46 351,-227.5 344.76,-226.31 345.38,-230.46"/>
<text text-anchor="start" x="370" y="-275.6" font-family="Times,serif" font-weight="bold" font-size="13.00" fill="#666666"> uo1 </text>
</g>
<!-- 0xb752215d -->
<g id="node27" class="node">
<title>0xb752215d</title>
<text text-anchor="start" x="477.5" y="-243.9" font-family="Times,serif" font-weight="bold" font-size="12.00">ye16</text>
<path fill="#f8f9fa" stroke="transparent" d="M459.33,-214.5C459.33,-214.5 519.67,-214.5 519.67,-214.5 523.83,-214.5 528,-218.67 528,-222.83 528,-222.83 528,-231.17 528,-231.17 528,-235.33 523.83,-239.5 519.67,-239.5 519.67,-239.5 459.33,-239.5 459.33,-239.5 455.17,-239.5 451,-235.33 451,-231.17 451,-231.17 451,-222.83 451,-222.83 451,-218.67 455.17,-214.5 459.33,-214.5"/>
<path fill="none" stroke="#333333" d="M459.33,-214.5C459.33,-214.5 519.67,-214.5 519.67,-214.5 523.83,-214.5 528,-218.67 528,-222.83 528,-222.83 528,-231.17 528,-231.17 528,-235.33 523.83,-239.5 519.67,-239.5 519.67,-239.5 459.33,-239.5 459.33,-239.5 455.17,-239.5 451,-235.33 451,-231.17 451,-231.17 451,-222.83 451,-222.83 451,-218.67 455.17,-214.5 459.33,-214.5"/>
<text text-anchor="start" x="456" y="-224.3" font-family="Times,serif" font-weight="bold" font-size="14.00">S7, A3, 8, 1</text>
<text text-anchor="start" x="468.5" y="-188.9" font-family="Times,serif" font-size="32.00">· · ·</text>
</g>
<!-- 0xe9ccaf5e -->
<g id="node28" class="node">
<title>0xe9ccaf5e</title>
<text text-anchor="start" x="576.5" y="-243.9" font-family="Times,serif" font-weight="bold" font-size="12.00">ye17</text>
<path fill="#f8f9fa" stroke="transparent" d="M558.33,-214.5C558.33,-214.5 618.67,-214.5 618.67,-214.5 622.83,-214.5 627,-218.67 627,-222.83 627,-222.83 627,-231.17 627,-231.17 627,-235.33 622.83,-239.5 618.67,-239.5 618.67,-239.5 558.33,-239.5 558.33,-239.5 554.17,-239.5 550,-235.33 550,-231.17 550,-231.17 550,-222.83 550,-222.83 550,-218.67 554.17,-214.5 558.33,-214.5"/>
<path fill="none" stroke="#333333" d="M558.33,-214.5C558.33,-214.5 618.67,-214.5 618.67,-214.5 622.83,-214.5 627,-218.67 627,-222.83 627,-222.83 627,-231.17 627,-231.17 627,-235.33 622.83,-239.5 618.67,-239.5 618.67,-239.5 558.33,-239.5 558.33,-239.5 554.17,-239.5 550,-235.33 550,-231.17 550,-231.17 550,-222.83 550,-222.83 550,-218.67 554.17,-214.5 558.33,-214.5"/>
<text text-anchor="start" x="555" y="-224.3" font-family="Times,serif" font-weight="bold" font-size="14.00">S1, A3, 8, 0</text>
<text text-anchor="start" x="567.5" y="-188.9" font-family="Times,serif" font-size="32.00">· · ·</text>
</g>
<!-- 0x62552c6d&#45;&gt;0x2c61ab -->
<g id="edge29" class="edge">
<title>0x62552c6d&#45;&gt;0x2c61ab:box</title>
<path fill="none" stroke="#666666" stroke-dasharray="5,2" d="M495.07,-304.35C483.49,-299.83 439.72,-282.9 403,-271 375.3,-262.02 359.81,-274.34 340,-253 328.46,-240.57 344.69,-217.38 336.95,-211.1"/>
<polygon fill="#666666" stroke="#666666" points="337.34,-209.03 331,-209.5 336.25,-213.09 337.34,-209.03"/>
<text text-anchor="start" x="443" y="-275.6" font-family="Times,serif" font-weight="bold" font-size="13.00" fill="#666666"> o2 </text>
</g>
<!-- 0x62552c6d&#45;&gt;0xb752215d -->
<g id="edge28" class="edge">
<title>0x62552c6d&#45;&gt;0xb752215d:box</title>
<path fill="none" stroke="#666666" stroke-dasharray="5,2" d="M499.81,-303.28C505.32,-296.36 521.87,-274.39 528,-253 530.25,-245.16 535.64,-235.42 534.28,-230.56"/>
<polygon fill="#666666" stroke="#666666" points="535.25,-228.69 529,-227.5 533.14,-232.32 535.25,-228.69"/>
<text text-anchor="start" x="520" y="-275.6" font-family="Times,serif" font-weight="bold" font-size="13.00" fill="#666666"> o3 </text>
</g>
<!-- 0x62552c6d&#45;&gt;0xe9ccaf5e -->
<g id="edge30" class="edge">
<title>0x62552c6d&#45;&gt;0xe9ccaf5e:box</title>
<path fill="none" stroke="#666666" stroke-dasharray="5,2" d="M501.61,-305.35C519.11,-304.4 595.62,-297.74 627,-253 631.89,-246.04 636.39,-235.17 633.54,-230.18"/>
<polygon fill="#666666" stroke="#666666" points="634.32,-228.22 628,-227.5 632.49,-232 634.32,-228.22"/>
<text text-anchor="start" x="609" y="-275.6" font-family="Times,serif" font-weight="bold" font-size="13.00" fill="#666666"> ε </text>
</g>
<!-- 0x905323a9 -->
<g id="node30" class="node">
<title>0x905323a9</title>
<text text-anchor="start" x="675.5" y="-243.9" font-family="Times,serif" font-weight="bold" font-size="12.00">ye18</text>
<path fill="#f8f9fa" stroke="transparent" d="M657.33,-214.5C657.33,-214.5 717.67,-214.5 717.67,-214.5 721.83,-214.5 726,-218.67 726,-222.83 726,-222.83 726,-231.17 726,-231.17 726,-235.33 721.83,-239.5 717.67,-239.5 717.67,-239.5 657.33,-239.5 657.33,-239.5 653.17,-239.5 649,-235.33 649,-231.17 649,-231.17 649,-222.83 649,-222.83 649,-218.67 653.17,-214.5 657.33,-214.5"/>
<path fill="none" stroke="#333333" d="M657.33,-214.5C657.33,-214.5 717.67,-214.5 717.67,-214.5 721.83,-214.5 726,-218.67 726,-222.83 726,-222.83 726,-231.17 726,-231.17 726,-235.33 721.83,-239.5 717.67,-239.5 717.67,-239.5 657.33,-239.5 657.33,-239.5 653.17,-239.5 649,-235.33 649,-231.17 649,-231.17 649,-222.83 649,-222.83 649,-218.67 653.17,-214.5 657.33,-214.5"/>
<text text-anchor="start" x="654" y="-224.3" font-family="Times,serif" font-weight="bold" font-size="14.00">S1, A6, 4, 0</text>
<text text-anchor="start" x="666.5" y="-188.9" font-family="Times,serif" font-size="32.00">· · ·</text>
</g>
<!-- 0x70047fe9&#45;&gt;0x905323a9 -->
<g id="edge32" class="edge">
<title>0x70047fe9&#45;&gt;0x905323a9:box</title>
<path fill="none" stroke="#666666" stroke-dasharray="5,2" d="M614.66,-305.16C631.11,-303.4 698.61,-293.83 726,-253 730.74,-245.94 735.31,-235.12 732.52,-230.16"/>
<polygon fill="#666666" stroke="#666666" points="733.32,-228.21 727,-227.5 731.49,-232 733.32,-228.21"/>
<text text-anchor="start" x="707" y="-275.6" font-family="Times,serif" font-weight="bold" font-size="13.00" fill="#666666"> uo1 </text>
</g>
<!-- 0xc2eeb9cf -->
<g id="node32" class="node">
<title>0xc2eeb9cf</title>
<text text-anchor="start" x="277.5" y="-423.9" font-family="Times,serif" font-weight="bold" font-size="12.00">ye19</text>
<path fill="#f8f9fa" stroke="transparent" d="M259.33,-394.5C259.33,-394.5 319.67,-394.5 319.67,-394.5 323.83,-394.5 328,-398.67 328,-402.83 328,-402.83 328,-411.17 328,-411.17 328,-415.33 323.83,-419.5 319.67,-419.5 319.67,-419.5 259.33,-419.5 259.33,-419.5 255.17,-419.5 251,-415.33 251,-411.17 251,-411.17 251,-402.83 251,-402.83 251,-398.67 255.17,-394.5 259.33,-394.5"/>
<path fill="none" stroke="#333333" d="M259.33,-394.5C259.33,-394.5 319.67,-394.5 319.67,-394.5 323.83,-394.5 328,-398.67 328,-402.83 328,-402.83 328,-411.17 328,-411.17 328,-415.33 323.83,-419.5 319.67,-419.5 319.67,-419.5 259.33,-419.5 259.33,-419.5 255.17,-419.5 251,-415.33 251,-411.17 251,-411.17 251,-402.83 251,-402.83 251,-398.67 255.17,-394.5 259.33,-394.5"/>
<text text-anchor="start" x="256" y="-404.3" font-family="Times,serif" font-weight="bold" font-size="14.00">S0, A7, 5, 0</text>
<text text-anchor="start" x="268.5" y="-368.9" font-family="Times,serif" font-size="32.00">· · ·</text>
</g>
<!-- 0xf72f851a&#45;&gt;0xc2eeb9cf -->
<g id="edge34" class="edge">
<title>0xf72f851a&#45;&gt;0xc2eeb9cf:box</title>
<path fill="none" stroke="#666666" stroke-dasharray="5,2" d="M301.69,-483.25C306.83,-476.27 322.27,-454.14 328,-433 330.13,-425.13 335.58,-415.4 334.26,-410.55"/>
<polygon fill="#666666" stroke="#666666" points="335.24,-408.69 329,-407.5 333.14,-412.33 335.24,-408.69"/>
<text text-anchor="start" x="322" y="-455.6" font-family="Times,serif" font-weight="bold" font-size="13.00" fill="#666666"> o1 </text>
</g>
<!-- 0xac10a753&#45;&gt;0x7ade2a88 -->
<g id="edge36" class="edge">
<title>0xac10a753&#45;&gt;0x7ade2a88:box</title>
<path fill="none" stroke="#666666" stroke-dasharray="5,2" d="M617.06,-483.13C629.05,-469.21 688.19,-398.52 660.26,-390.28"/>
<polygon fill="#666666" stroke="#666666" points="660.21,-388.16 654,-389.5 659.69,-392.33 660.21,-388.16"/>
<text text-anchor="start" x="641" y="-455.6" font-family="Times,serif" font-weight="bold" font-size="13.00" fill="#666666"> uo3 </text>
</g>
<!-- 0xcca38c8c&#45;&gt;0xc6588f2d -->
<g id="edge38" class="edge">
<title>0xcca38c8c&#45;&gt;0xc6588f2d:box</title>
<path fill="none" stroke="#666666" stroke-dasharray="5,2" d="M521.75,-483.13C531.92,-469.21 581.9,-398.52 554.12,-390.28"/>
<polygon fill="#666666" stroke="#666666" points="554.22,-388.18 548,-389.5 553.68,-392.34 554.22,-388.18"/>
<text text-anchor="start" x="542" y="-455.6" font-family="Times,serif" font-weight="bold" font-size="13.00" fill="#666666"> uo3 </text>
</g>
<!-- 0x243ba7c7 -->
<g id="node36" class="node">
<title>0x243ba7c7</title>
<text text-anchor="start" x="888" y="-46.9" font-family="Times,serif" font-weight="bold" font-size="12.00">ye20</text>
<path fill="#fff1f2" stroke="transparent" d="M855.33,-17.5C855.33,-17.5 944.67,-17.5 944.67,-17.5 948.83,-17.5 953,-21.67 953,-25.83 953,-25.83 953,-34.17 953,-34.17 953,-38.33 948.83,-42.5 944.67,-42.5 944.67,-42.5 855.33,-42.5 855.33,-42.5 851.17,-42.5 847,-38.33 847,-34.17 847,-34.17 847,-25.83 847,-25.83 847,-21.67 851.17,-17.5 855.33,-17.5"/>
<path fill="none" stroke="#9f1239" d="M855.33,-17.5C855.33,-17.5 944.67,-17.5 944.67,-17.5 948.83,-17.5 953,-21.67 953,-25.83 953,-25.83 953,-34.17 953,-34.17 953,-38.33 948.83,-42.5 944.67,-42.5 944.67,-42.5 855.33,-42.5 855.33,-42.5 851.17,-42.5 847,-38.33 847,-34.17 847,-34.17 847,-25.83 847,-25.83 847,-21.67 851.17,-17.5 855.33,-17.5"/>
<text text-anchor="start" x="852" y="-27.3" font-family="Times,serif" font-weight="bold" font-size="14.00">AX, A5, 1, z_det</text>
</g>
<!-- 0x75a39f1a -->
<g id="node37" class="node">
<title>0x75a39f1a</title>
<text text-anchor="start" x="1002.5" y="-63.9" font-family="Times,serif" font-weight="bold" font-size="12.00">ye21</text>
<path fill="#f8f9fa" stroke="transparent" d="M984.33,-34.5C984.33,-34.5 1044.67,-34.5 1044.67,-34.5 1048.83,-34.5 1053,-38.67 1053,-42.83 1053,-42.83 1053,-51.17 1053,-51.17 1053,-55.33 1048.83,-59.5 1044.67,-59.5 1044.67,-59.5 984.33,-59.5 984.33,-59.5 980.17,-59.5 976,-55.33 976,-51.17 976,-51.17 976,-42.83 976,-42.83 976,-38.67 980.17,-34.5 984.33,-34.5"/>
<path fill="none" stroke="#333333" d="M984.33,-34.5C984.33,-34.5 1044.67,-34.5 1044.67,-34.5 1048.83,-34.5 1053,-38.67 1053,-42.83 1053,-42.83 1053,-51.17 1053,-51.17 1053,-55.33 1048.83,-59.5 1044.67,-59.5 1044.67,-59.5 984.33,-59.5 984.33,-59.5 980.17,-59.5 976,-55.33 976,-51.17 976,-51.17 976,-42.83 976,-42.83 976,-38.67 980.17,-34.5 984.33,-34.5"/>
<text text-anchor="start" x="981" y="-44.3" font-family="Times,serif" font-weight="bold" font-size="14.00">S4, A5, 1, 1</text>
<text text-anchor="start" x="993.5" y="-8.9" font-family="Times,serif" font-size="32.00">· · ·</text>
</g>
<!-- 0xa4e3dc1d -->
<g id="node38" class="node">
<title>0xa4e3dc1d</title>
<text text-anchor="start" x="774.5" y="-63.9" font-family="Times,serif" font-weight="bold" font-size="12.00">ye22</text>
<path fill="#f8f9fa" stroke="transparent" d="M756.33,-34.5C756.33,-34.5 816.67,-34.5 816.67,-34.5 820.83,-34.5 825,-38.67 825,-42.83 825,-42.83 825,-51.17 825,-51.17 825,-55.33 820.83,-59.5 816.67,-59.5 816.67,-59.5 756.33,-59.5 756.33,-59.5 752.17,-59.5 748,-55.33 748,-51.17 748,-51.17 748,-42.83 748,-42.83 748,-38.67 752.17,-34.5 756.33,-34.5"/>
<path fill="none" stroke="#333333" d="M756.33,-34.5C756.33,-34.5 816.67,-34.5 816.67,-34.5 820.83,-34.5 825,-38.67 825,-42.83 825,-42.83 825,-51.17 825,-51.17 825,-55.33 820.83,-59.5 816.67,-59.5 816.67,-59.5 756.33,-59.5 756.33,-59.5 752.17,-59.5 748,-55.33 748,-51.17 748,-51.17 748,-42.83 748,-42.83 748,-38.67 752.17,-34.5 756.33,-34.5"/>
<text text-anchor="start" x="753" y="-44.3" font-family="Times,serif" font-weight="bold" font-size="14.00">S7, A5, 1, 1</text>
<text text-anchor="start" x="765.5" y="-8.9" font-family="Times,serif" font-size="32.00">· · ·</text>
</g>
<!-- 0xda50d4ca&#45;&gt;0x243ba7c7 -->
<g id="edge40" class="edge">
<title>0xda50d4ca&#45;&gt;0x243ba7c7:box</title>
<path fill="none" stroke="#666666" stroke-dasharray="5,2" d="M826.25,-124.97C843.33,-122 923.03,-105.68 953,-55.5 961.66,-41 964.83,-29.55 953,-17.5 946.23,-10.6 914.9,-6.42 903.86,-11.64"/>
<polygon fill="#666666" stroke="#666666" points="902.09,-10.5 900,-16.5 905.38,-13.11 902.09,-10.5"/>
<text text-anchor="start" x="914" y="-95.6" font-family="Times,serif" font-weight="bold" font-size="13.00" fill="#666666"> o3 </text>
</g>
<!-- 0xda50d4ca&#45;&gt;0x75a39f1a -->
<g id="edge41" class="edge">
<title>0xda50d4ca&#45;&gt;0x75a39f1a:box</title>
<path fill="none" stroke="#666666" stroke-dasharray="5,2" d="M826.44,-125.28C852.86,-123.54 1023.06,-110.94 1053,-73 1058.27,-66.32 1062.58,-55.32 1059.62,-50.23"/>
<polygon fill="#666666" stroke="#666666" points="1060.31,-48.24 1054,-47.5 1058.48,-52.01 1060.31,-48.24"/>
<text text-anchor="start" x="1021" y="-95.6" font-family="Times,serif" font-weight="bold" font-size="13.00" fill="#666666"> o2 </text>
</g>
<!-- 0xda50d4ca&#45;&gt;0xa4e3dc1d -->
<g id="edge42" class="edge">
<title>0xda50d4ca&#45;&gt;0xa4e3dc1d:box</title>
<path fill="none" stroke="#666666" stroke-dasharray="5,2" d="M823.65,-122.9C826.5,-111.38 837.4,-64.8 831.04,-51.23"/>
<polygon fill="#666666" stroke="#666666" points="832.07,-49.38 826,-47.5 829.57,-52.76 832.07,-49.38"/>
<text text-anchor="start" x="830" y="-95.6" font-family="Times,serif" font-weight="bold" font-size="13.00" fill="#666666"> ε </text>
</g>
<!-- 0x8714b3fa -->
<g id="node40" class="node">
<title>0x8714b3fa</title>
<text text-anchor="start" x="675.5" y="-63.9" font-family="Times,serif" font-weight="bold" font-size="12.00">ye23</text>
<path fill="#f8f9fa" stroke="transparent" d="M657.33,-34.5C657.33,-34.5 717.67,-34.5 717.67,-34.5 721.83,-34.5 726,-38.67 726,-42.83 726,-42.83 726,-51.17 726,-51.17 726,-55.33 721.83,-59.5 717.67,-59.5 717.67,-59.5 657.33,-59.5 657.33,-59.5 653.17,-59.5 649,-55.33 649,-51.17 649,-51.17 649,-42.83 649,-42.83 649,-38.67 653.17,-34.5 657.33,-34.5"/>
<path fill="none" stroke="#333333" d="M657.33,-34.5C657.33,-34.5 717.67,-34.5 717.67,-34.5 721.83,-34.5 726,-38.67 726,-42.83 726,-42.83 726,-51.17 726,-51.17 726,-55.33 721.83,-59.5 717.67,-59.5 717.67,-59.5 657.33,-59.5 657.33,-59.5 653.17,-59.5 649,-55.33 649,-51.17 649,-51.17 649,-42.83 649,-42.83 649,-38.67 653.17,-34.5 657.33,-34.5"/>
<text text-anchor="start" x="654" y="-44.3" font-family="Times,serif" font-weight="bold" font-size="14.00">S6, A6, 6, 1</text>
<text text-anchor="start" x="666.5" y="-8.9" font-family="Times,serif" font-size="32.00">· · ·</text>
</g>
<!-- 0x8fa96c62&#45;&gt;0x8714b3fa -->
<g id="edge44" class="edge">
<title>0x8fa96c62&#45;&gt;0x8714b3fa:box</title>
<path fill="none" stroke="#666666" stroke-dasharray="5,2" d="M731.42,-122.9C733.25,-111.27 740.09,-63.95 732.16,-50.86"/>
<polygon fill="#666666" stroke="#666666" points="733.17,-49.02 727,-47.5 730.88,-52.54 733.17,-49.02"/>
<text text-anchor="start" x="735" y="-95.6" font-family="Times,serif" font-weight="bold" font-size="13.00" fill="#666666"> o1 </text>
</g>
<!-- 0x811480e3 -->
<g id="node42" class="node">
<title>0x811480e3</title>
<text text-anchor="start" x="29" y="-46.9" font-family="Times,serif" font-weight="bold" font-size="12.00">ye24</text>
<path fill="#fff1f2" stroke="transparent" d="M8.33,-17.5C8.33,-17.5 73.67,-17.5 73.67,-17.5 77.83,-17.5 82,-21.67 82,-25.83 82,-25.83 82,-34.17 82,-34.17 82,-38.33 77.83,-42.5 73.67,-42.5 73.67,-42.5 8.33,-42.5 8.33,-42.5 4.17,-42.5 0,-38.33 0,-34.17 0,-34.17 0,-25.83 0,-25.83 0,-21.67 4.17,-17.5 8.33,-17.5"/>
<path fill="none" stroke="#9f1239" d="M8.33,-17.5C8.33,-17.5 73.67,-17.5 73.67,-17.5 77.83,-17.5 82,-21.67 82,-25.83 82,-25.83 82,-34.17 82,-34.17 82,-38.33 77.83,-42.5 73.67,-42.5 73.67,-42.5 8.33,-42.5 8.33,-42.5 4.17,-42.5 0,-38.33 0,-34.17 0,-34.17 0,-25.83 0,-25.83 0,-21.67 4.17,-17.5 8.33,-17.5"/>
<text text-anchor="start" x="5" y="-27.3" font-family="Times,serif" font-weight="bold" font-size="14.00">AX, A1, 5, 2</text>
</g>
<!-- 0x5e1ff7ab -->
<g id="node43" class="node">
<title>0x5e1ff7ab</title>
<text text-anchor="start" x="131.5" y="-46.9" font-family="Times,serif" font-weight="bold" font-size="12.00">ye25</text>
<path fill="#f0fdf4" stroke="transparent" d="M113.33,-17.5C113.33,-17.5 173.67,-17.5 173.67,-17.5 177.83,-17.5 182,-21.67 182,-25.83 182,-25.83 182,-34.17 182,-34.17 182,-38.33 177.83,-42.5 173.67,-42.5 173.67,-42.5 113.33,-42.5 113.33,-42.5 109.17,-42.5 105,-38.33 105,-34.17 105,-34.17 105,-25.83 105,-25.83 105,-21.67 109.17,-17.5 113.33,-17.5"/>
<path fill="none" stroke="#166534" d="M113.33,-17.5C113.33,-17.5 173.67,-17.5 173.67,-17.5 177.83,-17.5 182,-21.67 182,-25.83 182,-25.83 182,-34.17 182,-34.17 182,-38.33 177.83,-42.5 173.67,-42.5 173.67,-42.5 113.33,-42.5 113.33,-42.5 109.17,-42.5 105,-38.33 105,-34.17 105,-34.17 105,-25.83 105,-25.83 105,-21.67 109.17,-17.5 113.33,-17.5"/>
<text text-anchor="start" x="110" y="-27.3" font-family="Times,serif" font-weight="bold" font-size="14.00">S8, A1, 5, 2</text>
</g>
<!-- 0x9a68d228&#45;&gt;0x811480e3 -->
<g id="edge46" class="edge">
<title>0x9a68d228&#45;&gt;0x811480e3:box</title>
<path fill="none" stroke="#666666" stroke-dasharray="5,2" d="M116.66,-123.17C112.56,-115.95 100.04,-93.21 93,-73 90.43,-65.61 91.86,-42.8 87.71,-33.5"/>
<polygon fill="#666666" stroke="#666666" points="88.93,-31.78 83,-29.5 86.21,-34.99 88.93,-31.78"/>
<text text-anchor="start" x="107" y="-95.6" font-family="Times,serif" font-weight="bold" font-size="13.00" fill="#666666"> o3 </text>
</g>
<!-- 0x9a68d228&#45;&gt;0x811480e3 -->
<g id="edge47" class="edge">
<title>0x9a68d228&#45;&gt;0x811480e3:box</title>
<path fill="none" stroke="#666666" stroke-dasharray="5,2" d="M114.59,-125.04C106.23,-123.72 84.77,-119.04 76,-105 68.47,-92.94 90.63,-47.48 87.61,-33.57"/>
<polygon fill="#666666" stroke="#666666" points="88.89,-31.9 83,-29.5 86.11,-35.04 88.89,-31.9"/>
<text text-anchor="start" x="76" y="-95.6" font-family="Times,serif" font-weight="bold" font-size="13.00" fill="#666666"> o2 </text>
</g>
<!-- 0x9a68d228&#45;&gt;0x5e1ff7ab -->
<g id="edge48" class="edge">
<title>0x9a68d228&#45;&gt;0x5e1ff7ab:box</title>
<path fill="none" stroke="#666666" stroke-dasharray="5,2" d="M120.62,-123.72C130.87,-116.62 168.24,-89.01 182,-55.5 185.23,-47.64 190.49,-37.3 188.48,-32.37"/>
<polygon fill="#666666" stroke="#666666" points="189.29,-30.42 183,-29.5 187.34,-34.14 189.29,-30.42"/>
<text text-anchor="start" x="157" y="-95.6" font-family="Times,serif" font-weight="bold" font-size="13.00" fill="#666666"> ε </text>
</g>
<!-- 0x8fa4e186 -->
<g id="node45" class="node">
<title>0x8fa4e186</title>
<text text-anchor="start" x="233" y="-46.9" font-family="Times,serif" font-weight="bold" font-size="12.00">ye26</text>
<path fill="#fff1f2" stroke="transparent" d="M212.33,-17.5C212.33,-17.5 277.67,-17.5 277.67,-17.5 281.83,-17.5 286,-21.67 286,-25.83 286,-25.83 286,-34.17 286,-34.17 286,-38.33 281.83,-42.5 277.67,-42.5 277.67,-42.5 212.33,-42.5 212.33,-42.5 208.17,-42.5 204,-38.33 204,-34.17 204,-34.17 204,-25.83 204,-25.83 204,-21.67 208.17,-17.5 212.33,-17.5"/>
<path fill="none" stroke="#9f1239" d="M212.33,-17.5C212.33,-17.5 277.67,-17.5 277.67,-17.5 281.83,-17.5 286,-21.67 286,-25.83 286,-25.83 286,-34.17 286,-34.17 286,-38.33 281.83,-42.5 277.67,-42.5 277.67,-42.5 212.33,-42.5 212.33,-42.5 208.17,-42.5 204,-38.33 204,-34.17 204,-34.17 204,-25.83 204,-25.83 204,-21.67 208.17,-17.5 212.33,-17.5"/>
<text text-anchor="start" x="209" y="-27.3" font-family="Times,serif" font-weight="bold" font-size="14.00">AX, A4, 4, 2</text>
</g>
<!-- 0xee73027a -->
<g id="node46" class="node">
<title>0xee73027a</title>
<text text-anchor="start" x="335.5" y="-63.9" font-family="Times,serif" font-weight="bold" font-size="12.00">ye27</text>
<path fill="#f8f9fa" stroke="transparent" d="M317.33,-34.5C317.33,-34.5 377.67,-34.5 377.67,-34.5 381.83,-34.5 386,-38.67 386,-42.83 386,-42.83 386,-51.17 386,-51.17 386,-55.33 381.83,-59.5 377.67,-59.5 377.67,-59.5 317.33,-59.5 317.33,-59.5 313.17,-59.5 309,-55.33 309,-51.17 309,-51.17 309,-42.83 309,-42.83 309,-38.67 313.17,-34.5 317.33,-34.5"/>
<path fill="none" stroke="#333333" d="M317.33,-34.5C317.33,-34.5 377.67,-34.5 377.67,-34.5 381.83,-34.5 386,-38.67 386,-42.83 386,-42.83 386,-51.17 386,-51.17 386,-55.33 381.83,-59.5 377.67,-59.5 377.67,-59.5 317.33,-59.5 317.33,-59.5 313.17,-59.5 309,-55.33 309,-51.17 309,-51.17 309,-42.83 309,-42.83 309,-38.67 313.17,-34.5 317.33,-34.5"/>
<text text-anchor="start" x="314" y="-44.3" font-family="Times,serif" font-weight="bold" font-size="14.00">S8, A4, 4, 2</text>
<text text-anchor="start" x="326.5" y="-8.9" font-family="Times,serif" font-size="32.00">· · ·</text>
</g>
<!-- 0x516d6541&#45;&gt;0x8fa4e186 -->
<g id="edge50" class="edge">
<title>0x516d6541&#45;&gt;0x8fa4e186:box</title>
<path fill="none" stroke="#666666" stroke-dasharray="5,2" d="M292.15,-122.73C292.86,-109.45 295.54,-52.21 290.59,-34.64"/>
<polygon fill="#666666" stroke="#666666" points="292.16,-33.22 287,-29.5 288.71,-35.62 292.16,-33.22"/>
<text text-anchor="start" x="294" y="-95.6" font-family="Times,serif" font-weight="bold" font-size="13.00" fill="#666666"> o3 </text>
</g>
<!-- 0x516d6541&#45;&gt;0x8fa4e186 -->
<g id="edge51" class="edge">
<title>0x516d6541&#45;&gt;0x8fa4e186:box</title>
<path fill="none" stroke="#666666" stroke-dasharray="5,2" d="M289.08,-124.09C283.7,-121.31 272.4,-114.55 268,-105 265.4,-99.35 266.55,-97.05 268,-91 272.11,-73.79 281.56,-72.62 286,-55.5 288.09,-47.45 293.66,-37.54 292.34,-32.6"/>
<polygon fill="#666666" stroke="#666666" points="293.24,-30.7 287,-29.5 291.13,-34.33 293.24,-30.7"/>
<text text-anchor="start" x="268" y="-95.6" font-family="Times,serif" font-weight="bold" font-size="13.00" fill="#666666"> o2 </text>
</g>
<!-- 0x516d6541&#45;&gt;0xee73027a -->
<g id="edge52" class="edge">
<title>0x516d6541&#45;&gt;0xee73027a:box</title>
<path fill="none" stroke="#666666" stroke-dasharray="5,2" d="M295.39,-124.84C309.55,-121.88 364.3,-108.37 386,-73 390.45,-65.75 395.17,-55.03 392.46,-50.12"/>
<polygon fill="#666666" stroke="#666666" points="393.32,-48.21 387,-47.5 391.5,-51.99 393.32,-48.21"/>
<text text-anchor="start" x="369" y="-95.6" font-family="Times,serif" font-weight="bold" font-size="13.00" fill="#666666"> ε </text>
</g>
<!-- 0xbd9dab8b -->
<g id="node48" class="node">
<title>0xbd9dab8b</title>
<text text-anchor="start" x="437" y="-46.9" font-family="Times,serif" font-weight="bold" font-size="12.00">ye28</text>
<path fill="#fff1f2" stroke="transparent" d="M416.33,-17.5C416.33,-17.5 481.67,-17.5 481.67,-17.5 485.83,-17.5 490,-21.67 490,-25.83 490,-25.83 490,-34.17 490,-34.17 490,-38.33 485.83,-42.5 481.67,-42.5 481.67,-42.5 416.33,-42.5 416.33,-42.5 412.17,-42.5 408,-38.33 408,-34.17 408,-34.17 408,-25.83 408,-25.83 408,-21.67 412.17,-17.5 416.33,-17.5"/>
<path fill="none" stroke="#9f1239" d="M416.33,-17.5C416.33,-17.5 481.67,-17.5 481.67,-17.5 485.83,-17.5 490,-21.67 490,-25.83 490,-25.83 490,-34.17 490,-34.17 490,-38.33 485.83,-42.5 481.67,-42.5 481.67,-42.5 416.33,-42.5 416.33,-42.5 412.17,-42.5 408,-38.33 408,-34.17 408,-34.17 408,-25.83 408,-25.83 408,-21.67 412.17,-17.5 416.33,-17.5"/>
<text text-anchor="start" x="413" y="-27.3" font-family="Times,serif" font-weight="bold" font-size="14.00">AX, A5, 1, 2</text>
</g>
<!-- 0x9aa92253 -->
<g id="node49" class="node">
<title>0x9aa92253</title>
<text text-anchor="start" x="539.5" y="-63.9" font-family="Times,serif" font-weight="bold" font-size="12.00">ye29</text>
<path fill="#f8f9fa" stroke="transparent" d="M521.33,-34.5C521.33,-34.5 581.67,-34.5 581.67,-34.5 585.83,-34.5 590,-38.67 590,-42.83 590,-42.83 590,-51.17 590,-51.17 590,-55.33 585.83,-59.5 581.67,-59.5 581.67,-59.5 521.33,-59.5 521.33,-59.5 517.17,-59.5 513,-55.33 513,-51.17 513,-51.17 513,-42.83 513,-42.83 513,-38.67 517.17,-34.5 521.33,-34.5"/>
<path fill="none" stroke="#333333" d="M521.33,-34.5C521.33,-34.5 581.67,-34.5 581.67,-34.5 585.83,-34.5 590,-38.67 590,-42.83 590,-42.83 590,-51.17 590,-51.17 590,-55.33 585.83,-59.5 581.67,-59.5 581.67,-59.5 521.33,-59.5 521.33,-59.5 517.17,-59.5 513,-55.33 513,-51.17 513,-51.17 513,-42.83 513,-42.83 513,-38.67 517.17,-34.5 521.33,-34.5"/>
<text text-anchor="start" x="518" y="-44.3" font-family="Times,serif" font-weight="bold" font-size="14.00">S8, A5, 1, 2</text>
<text text-anchor="start" x="530.5" y="-8.9" font-family="Times,serif" font-size="32.00">· · ·</text>
</g>
<!-- 0x512f7d38&#45;&gt;0xbd9dab8b -->
<g id="edge54" class="edge">
<title>0x512f7d38&#45;&gt;0xbd9dab8b:box</title>
<path fill="none" stroke="#666666" stroke-dasharray="5,2" d="M459.35,-123.13C466.62,-110.31 500.46,-49.31 495.98,-33.34"/>
<polygon fill="#666666" stroke="#666666" points="497.04,-31.5 491,-29.5 494.47,-34.82 497.04,-31.5"/>
<text text-anchor="start" x="476" y="-95.6" font-family="Times,serif" font-weight="bold" font-size="13.00" fill="#666666"> o3 </text>
</g>
<!-- 0x512f7d38&#45;&gt;0xbd9dab8b -->
<g id="edge55" class="edge">
<title>0x512f7d38&#45;&gt;0xbd9dab8b:box</title>
<path fill="none" stroke="#666666" stroke-dasharray="5,2" d="M455.94,-123.58C447.91,-115.94 418.63,-86.59 408,-55.5 405.25,-47.46 399.76,-37.21 401.62,-32.33"/>
<polygon fill="#666666" stroke="#666666" points="402.67,-34.15 407,-29.5 400.71,-30.43 402.67,-34.15"/>
<text text-anchor="start" x="438" y="-95.6" font-family="Times,serif" font-weight="bold" font-size="13.00" fill="#666666"> o2 </text>
</g>
<!-- 0x512f7d38&#45;&gt;0x9aa92253 -->
<g id="edge56" class="edge">
<title>0x512f7d38&#45;&gt;0x9aa92253:box</title>
<path fill="none" stroke="#666666" stroke-dasharray="5,2" d="M461.69,-125.38C479.58,-124.58 557.81,-118.5 590,-73 594.91,-66.06 599.4,-55.18 596.55,-50.18"/>
<polygon fill="#666666" stroke="#666666" points="597.32,-48.22 591,-47.5 595.49,-52 597.32,-48.22"/>
<text text-anchor="start" x="571" y="-95.6" font-family="Times,serif" font-weight="bold" font-size="13.00" fill="#666666"> ε </text>
</g>
<!-- legend_node -->
<g id="node51" class="node">
<title>legend_node</title>
<polygon fill="#f0fdf4" stroke="transparent" points="508,-859 508,-876 528,-876 528,-859 508,-859"/>
<polygon fill="none" stroke="#166534" points="508,-859 508,-876 528,-876 528,-859 508,-859"/>
<text text-anchor="start" x="534" y="-864.4" font-family="Times,serif" font-size="12.00">Attacker&#45;Exposed States</text>
<polygon fill="#fff1f2" stroke="transparent" points="508,-838 508,-855 528,-855 528,-838 508,-838"/>
<polygon fill="none" stroke="#9f1239" points="508,-838 508,-855 528,-855 528,-838 508,-838"/>
<text text-anchor="start" x="534" y="-843.4" font-family="Times,serif" font-size="12.00">CS&#45;Detected States</text>
</g>
</g>
</svg>
