<?xml version="1.0" encoding="UTF-8" standalone="no"?>
<!DOCTYPE svg PUBLIC "-//W3C//DTD SVG 1.1//EN"
 "http://www.w3.org/Graphics/SVG/1.1/DTD/svg11.dtd">
<!-- Generated by graphviz version 2.43.0 (0)
 -->
<!-- Title: %3 Pages: 1 -->
<svg width="1387pt" height="1041pt"
 viewBox="0.00 0.00 1387.00 1041.00" xmlns="http://www.w3.org/2000/svg" xmlns:xlink="http://www.w3.org/1999/xlink">
<g id="graph0" class="graph" transform="scale(1 1) rotate(0) translate(4 1037)">
<title>%3</title>
<polygon fill="white" stroke="transparent" points="-4,4 -4,-1037 1383,-1037 1383,4 -4,4"/>
<!-- ellipsis -->
<g id="node1" class="node">
<title>ellipsis</title>
<path fill="none" stroke="#64748b" stroke-width="2" stroke-dasharray="5,2" d="M1340.83,-813.5C1340.83,-813.5 1317.17,-813.5 1317.17,-813.5 1312.33,-813.5 1307.5,-808.67 1307.5,-803.83 1307.5,-803.83 1307.5,-794.17 1307.5,-794.17 1307.5,-789.33 1312.33,-784.5 1317.17,-784.5 1317.17,-784.5 1340.83,-784.5 1340.83,-784.5 1345.67,-784.5 1350.5,-789.33 1350.5,-794.17 1350.5,-794.17 1350.5,-803.83 1350.5,-803.83 1350.5,-808.67 1345.67,-813.5 1340.83,-813.5"/>
<text text-anchor="middle" x="1329" y="-795.3" font-family="Times,serif" font-size="14.00" fill="#475569">...</text>
</g>
<!-- 7661174995194480628 -->
<g id="node2" class="node">
<title>7661174995194480628</title>
<path fill="#f8f9fa" stroke="#333333" stroke-width="1.2" d="M165,-923C165,-923 117,-923 117,-923 111,-923 105,-917 105,-911 105,-911 105,-899 105,-899 105,-893 111,-887 117,-887 117,-887 165,-887 165,-887 171,-887 177,-893 177,-899 177,-899 177,-911 177,-911 177,-917 171,-923 165,-923"/>
<text text-anchor="start" x="113" y="-901.3" font-family="Times,serif" font-size="14.00">S1,A7,0,0</text>
</g>
<!-- 1740623989208135605 -->
<g id="node3" class="node">
<title>1740623989208135605</title>
<ellipse fill="#0f172a" stroke="black" cx="253.5" cy="-967" rx="4.5" ry="4.5"/>
</g>
<!-- 7661174995194480628&#45;&gt;1740623989208135605 -->
<g id="edge1" class="edge">
<title>7661174995194480628&#45;&gt;1740623989208135605</title>
<path fill="none" stroke="#000000" stroke-width="1.2" d="M174.26,-923.1C196.41,-935.53 224.57,-951.33 240.35,-960.18"/>
<polygon fill="#000000" stroke="#000000" stroke-width="1.2" points="238.64,-963.24 249.07,-965.08 242.07,-957.13 238.64,-963.24"/>
<text text-anchor="middle" x="213" y="-954.8" font-family="Times,serif" font-size="14.00"> o1 </text>
</g>
<!-- 4709510364939531673 -->
<g id="node4" class="node">
<title>4709510364939531673</title>
<ellipse fill="#0f172a" stroke="black" cx="992" cy="-905" rx="4.5" ry="4.5"/>
</g>
<!-- 7661174995194480628&#45;&gt;4709510364939531673 -->
<g id="edge2" class="edge">
<title>7661174995194480628&#45;&gt;4709510364939531673</title>
<path fill="none" stroke="#000000" stroke-width="1.2" d="M177.33,-905C199.02,-905 227.37,-905 252.5,-905 252.5,-905 252.5,-905 836,-905 888.04,-905 949.9,-905 977.05,-905"/>
<polygon fill="#000000" stroke="#000000" stroke-width="1.2" points="977.17,-908.5 987.17,-905 977.17,-901.5 977.17,-908.5"/>
<text text-anchor="middle" x="559" y="-908.8" font-family="Times,serif" font-size="14.00"> o2 </text>
</g>
<!-- 7301524248696127769 -->
<g id="node5" class="node">
<title>7301524248696127769</title>
<ellipse fill="#0f172a" stroke="black" cx="253.5" cy="-705" rx="4.5" ry="4.5"/>
</g>
<!-- 7661174995194480628&#45;&gt;7301524248696127769 -->
<g id="edge3" class="edge">
<title>7661174995194480628&#45;&gt;7301524248696127769</title>
<path fill="none" stroke="#000000" stroke-width="1.2" d="M152,-886.9C174.15,-846.81 226.86,-751.41 245.68,-717.35"/>
<polygon fill="#000000" stroke="#000000" stroke-width="1.2" points="248.74,-719.04 250.51,-708.59 242.61,-715.65 248.74,-719.04"/>
<text text-anchor="middle" x="213" y="-797.8" font-family="Times,serif" font-size="14.00"> o3 </text>
</g>
<!-- &#45;4100073484582843917 -->
<g id="node6" class="node">
<title>&#45;4100073484582843917</title>
<path fill="#f8f9fa" stroke="#333333" stroke-width="1.2" d="M508,-1033C508,-1033 460,-1033 460,-1033 454,-1033 448,-1027 448,-1021 448,-1021 448,-1009 448,-1009 448,-1003 454,-997 460,-997 460,-997 508,-997 508,-997 514,-997 520,-1003 520,-1009 520,-1009 520,-1021 520,-1021 520,-1027 514,-1033 508,-1033"/>
<text text-anchor="start" x="456" y="-1011.3" font-family="Times,serif" font-size="14.00">S2,A7,1,0</text>
</g>
<!-- 1740623989208135605&#45;&gt;&#45;4100073484582843917 -->
<g id="edge4" class="edge">
<title>1740623989208135605&#45;&gt;&#45;4100073484582843917</title>
<path fill="none" stroke="#2563eb" stroke-width="1.5" stroke-dasharray="5,2" d="M258.09,-967.75C278.22,-971.98 378.29,-993 437.96,-1005.54"/>
<polygon fill="#2563eb" stroke="#2563eb" stroke-width="1.5" points="437.38,-1008.99 447.88,-1007.62 438.81,-1002.14 437.38,-1008.99"/>
<text text-anchor="middle" x="304.5" y="-985.8" font-family="Times,serif" font-size="14.00"> o1 </text>
</g>
<!-- &#45;3156544930557321637 -->
<g id="node7" class="node">
<title>&#45;3156544930557321637</title>
<path fill="#f8f9fa" stroke="#333333" stroke-width="1.2" d="M1195,-988C1195,-988 1147,-988 1147,-988 1141,-988 1135,-982 1135,-976 1135,-976 1135,-964 1135,-964 1135,-958 1141,-952 1147,-952 1147,-952 1195,-952 1195,-952 1201,-952 1207,-958 1207,-964 1207,-964 1207,-976 1207,-976 1207,-982 1201,-988 1195,-988"/>
<text text-anchor="start" x="1143" y="-966.3" font-family="Times,serif" font-size="14.00">S7,A0,3,1</text>
</g>
<!-- 4709510364939531673&#45;&gt;&#45;3156544930557321637 -->
<g id="edge5" class="edge">
<title>4709510364939531673&#45;&gt;&#45;3156544930557321637</title>
<path fill="none" stroke="#2563eb" stroke-width="1.5" stroke-dasharray="5,2" d="M996.38,-906.24C1012.08,-912.01 1079.15,-936.64 1125.18,-953.54"/>
<polygon fill="#2563eb" stroke="#2563eb" stroke-width="1.5" points="1124.07,-956.86 1134.66,-957.02 1126.48,-950.29 1124.07,-956.86"/>
<text text-anchor="middle" x="1088.5" y="-951.8" font-family="Times,serif" font-size="14.00"> o3 </text>
</g>
<!-- 3879415128592777984 -->
<g id="node8" class="node">
<title>3879415128592777984</title>
<path fill="#f8f9fa" stroke="#333333" stroke-width="1.2" d="M1195,-923C1195,-923 1147,-923 1147,-923 1141,-923 1135,-917 1135,-911 1135,-911 1135,-899 1135,-899 1135,-893 1141,-887 1147,-887 1147,-887 1195,-887 1195,-887 1201,-887 1207,-893 1207,-899 1207,-899 1207,-911 1207,-911 1207,-917 1201,-923 1195,-923"/>
<text text-anchor="start" x="1143" y="-901.3" font-family="Times,serif" font-size="14.00">S1,A0,3,0</text>
</g>
<!-- 4709510364939531673&#45;&gt;3879415128592777984 -->
<g id="edge6" class="edge">
<title>4709510364939531673&#45;&gt;3879415128592777984</title>
<path fill="none" stroke="#2563eb" stroke-width="1.5" stroke-dasharray="5,2" d="M996.7,-905C1012.91,-905 1078.94,-905 1124.65,-905"/>
<polygon fill="#2563eb" stroke="#2563eb" stroke-width="1.5" points="1124.92,-908.5 1134.92,-905 1124.92,-901.5 1124.92,-908.5"/>
<text text-anchor="middle" x="1088.5" y="-908.8" font-family="Times,serif" font-size="14.00"> empty </text>
</g>
<!-- 3139680162401169176 -->
<g id="node9" class="node">
<title>3139680162401169176</title>
<path fill="#f8f9fa" stroke="#333333" stroke-width="1.2" d="M1195,-858C1195,-858 1147,-858 1147,-858 1141,-858 1135,-852 1135,-846 1135,-846 1135,-834 1135,-834 1135,-828 1141,-822 1147,-822 1147,-822 1195,-822 1195,-822 1201,-822 1207,-828 1207,-834 1207,-834 1207,-846 1207,-846 1207,-852 1201,-858 1195,-858"/>
<text text-anchor="start" x="1143" y="-836.3" font-family="Times,serif" font-size="14.00">S8,A0,3,2</text>
</g>
<!-- 4709510364939531673&#45;&gt;3139680162401169176 -->
<g id="edge7" class="edge">
<title>4709510364939531673&#45;&gt;3139680162401169176</title>
<path fill="none" stroke="#2563eb" stroke-width="1.5" stroke-dasharray="5,2" d="M996.38,-903.76C1012.08,-897.99 1079.15,-873.36 1125.18,-856.46"/>
<polygon fill="#2563eb" stroke="#2563eb" stroke-width="1.5" points="1126.48,-859.71 1134.66,-852.98 1124.07,-853.14 1126.48,-859.71"/>
<text text-anchor="middle" x="1088.5" y="-880.8" font-family="Times,serif" font-size="14.00"> o2 </text>
</g>
<!-- &#45;9039529168028685688 -->
<g id="node10" class="node">
<title>&#45;9039529168028685688</title>
<path fill="#f8f9fa" stroke="#333333" stroke-width="1.2" d="M411,-760C411,-760 363,-760 363,-760 357,-760 351,-754 351,-748 351,-748 351,-736 351,-736 351,-730 357,-724 363,-724 363,-724 411,-724 411,-724 417,-724 423,-730 423,-736 423,-736 423,-748 423,-748 423,-754 417,-760 411,-760"/>
<text text-anchor="start" x="359" y="-738.3" font-family="Times,serif" font-size="14.00">S7,A6,7,1</text>
</g>
<!-- 7301524248696127769&#45;&gt;&#45;9039529168028685688 -->
<g id="edge8" class="edge">
<title>7301524248696127769&#45;&gt;&#45;9039529168028685688</title>
<path fill="none" stroke="#2563eb" stroke-width="1.5" stroke-dasharray="5,2" d="M258.02,-705.99C269.83,-709.31 309.1,-720.36 341.06,-729.36"/>
<polygon fill="#2563eb" stroke="#2563eb" stroke-width="1.5" points="340.13,-732.73 350.71,-732.07 342.03,-725.99 340.13,-732.73"/>
<text text-anchor="middle" x="304.5" y="-728.8" font-family="Times,serif" font-size="14.00"> o3 </text>
</g>
<!-- &#45;2003569108878586067 -->
<g id="node11" class="node">
<title>&#45;2003569108878586067</title>
<path fill="#f8f9fa" stroke="#333333" stroke-width="1.2" d="M411,-695C411,-695 363,-695 363,-695 357,-695 351,-689 351,-683 351,-683 351,-671 351,-671 351,-665 357,-659 363,-659 363,-659 411,-659 411,-659 417,-659 423,-665 423,-671 423,-671 423,-683 423,-683 423,-689 417,-695 411,-695"/>
<text text-anchor="start" x="359" y="-673.3" font-family="Times,serif" font-size="14.00">S1,A6,7,0</text>
</g>
<!-- 7301524248696127769&#45;&gt;&#45;2003569108878586067 -->
<g id="edge9" class="edge">
<title>7301524248696127769&#45;&gt;&#45;2003569108878586067</title>
<path fill="none" stroke="#2563eb" stroke-width="1.5" stroke-dasharray="5,2" d="M257.58,-702.36C262.55,-698.26 272.81,-690.49 283,-687 301.27,-680.74 322.36,-677.97 340.68,-676.87"/>
<polygon fill="#2563eb" stroke="#2563eb" stroke-width="1.5" points="340.99,-680.36 350.82,-676.41 340.67,-673.37 340.99,-680.36"/>
<text text-anchor="middle" x="304.5" y="-690.8" font-family="Times,serif" font-size="14.00"> empty </text>
</g>
<!-- 9173928121495732602 -->
<g id="node12" class="node">
<title>9173928121495732602</title>
<path fill="#f8f9fa" stroke="#333333" stroke-width="1.2" d="M411,-167C411,-167 363,-167 363,-167 357,-167 351,-161 351,-155 351,-155 351,-143 351,-143 351,-137 357,-131 363,-131 363,-131 411,-131 411,-131 417,-131 423,-137 423,-143 423,-143 423,-155 423,-155 423,-161 417,-167 411,-167"/>
<text text-anchor="start" x="359" y="-145.3" font-family="Times,serif" font-size="14.00">S8,A6,7,2</text>
</g>
<!-- 7301524248696127769&#45;&gt;9173928121495732602 -->
<g id="edge10" class="edge">
<title>7301524248696127769&#45;&gt;9173928121495732602</title>
<path fill="none" stroke="#2563eb" stroke-width="1.5" stroke-dasharray="5,2" d="M255.48,-700.84C265.79,-657.27 354.15,-283.65 379.33,-177.2"/>
<polygon fill="#2563eb" stroke="#2563eb" stroke-width="1.5" points="382.8,-177.74 381.7,-167.2 375.99,-176.13 382.8,-177.74"/>
<text text-anchor="middle" x="304.5" y="-574.8" font-family="Times,serif" font-size="14.00"> o2 </text>
</g>
<!-- &#45;4100073484582843917&#45;&gt;ellipsis -->
<g id="edge11" class="edge">
<title>&#45;4100073484582843917&#45;&gt;ellipsis</title>
<path fill="none" stroke="#64748b" stroke-width="1.5" stroke-dasharray="1,5" d="M520.26,-1021.96C547.08,-1026.66 584.97,-1032 618.5,-1032 618.5,-1032 618.5,-1032 1172,-1032 1272.69,-1032 1312.51,-879.91 1324.09,-821.49"/>
<polygon fill="none" stroke="#64748b" stroke-width="1.5" points="1326.85,-821.96 1325.6,-813.58 1321.35,-820.91 1326.85,-821.96"/>
</g>
<!-- &#45;3156544930557321637&#45;&gt;ellipsis -->
<g id="edge12" class="edge">
<title>&#45;3156544930557321637&#45;&gt;ellipsis</title>
<path fill="none" stroke="#64748b" stroke-width="1.5" stroke-dasharray="1,5" d="M1191.94,-951.82C1196.95,-947.09 1202.25,-941.93 1207,-937 1245.7,-896.87 1288.03,-847.13 1310.94,-819.66"/>
<polygon fill="none" stroke="#64748b" stroke-width="1.5" points="1313.1,-821.44 1316.06,-813.5 1308.8,-817.86 1313.1,-821.44"/>
</g>
<!-- 3879415128592777984&#45;&gt;ellipsis -->
<g id="edge13" class="edge">
<title>3879415128592777984&#45;&gt;ellipsis</title>
<path fill="none" stroke="#64748b" stroke-width="1.5" stroke-dasharray="1,5" d="M1198.82,-886.78C1227.25,-867.46 1271.92,-837.11 1300.58,-817.63"/>
<polygon fill="none" stroke="#64748b" stroke-width="1.5" points="1302.45,-819.74 1307.5,-812.93 1299.31,-815.11 1302.45,-819.74"/>
</g>
<!-- 3139680162401169176&#45;&gt;ellipsis -->
<g id="edge14" class="edge">
<title>3139680162401169176&#45;&gt;ellipsis</title>
<path fill="none" stroke="#64748b" stroke-width="1.5" stroke-dasharray="1,5" d="M1207.01,-830.8C1234.89,-823.47 1273.44,-813.34 1299.47,-806.5"/>
<polygon fill="none" stroke="#64748b" stroke-width="1.5" points="1300.42,-809.14 1307.45,-804.4 1299,-803.73 1300.42,-809.14"/>
</g>
<!-- 1509690188049425982 -->
<g id="node13" class="node">
<title>1509690188049425982</title>
<ellipse fill="#0f172a" stroke="black" cx="619.5" cy="-742" rx="4.5" ry="4.5"/>
</g>
<!-- &#45;9039529168028685688&#45;&gt;1509690188049425982 -->
<g id="edge15" class="edge">
<title>&#45;9039529168028685688&#45;&gt;1509690188049425982</title>
<path fill="none" stroke="#000000" stroke-width="1.2" d="M423.01,-742C474.83,-742 569.62,-742 604.84,-742"/>
<polygon fill="#000000" stroke="#000000" stroke-width="1.2" points="604.94,-745.5 614.94,-742 604.94,-738.5 604.94,-745.5"/>
<text text-anchor="middle" x="484" y="-745.8" font-family="Times,serif" font-size="14.00"> uo1 </text>
</g>
<!-- &#45;2003569108878586067&#45;&gt;ellipsis -->
<g id="edge17" class="edge">
<title>&#45;2003569108878586067&#45;&gt;ellipsis</title>
<path fill="none" stroke="#64748b" stroke-width="1.5" stroke-dasharray="1,5" d="M423.16,-677.98C457.54,-678.86 511.36,-680 558,-680 558,-680 558,-680 1172,-680 1212.55,-680 1224.02,-692.7 1254,-720 1269.78,-734.37 1264.78,-745.09 1279,-761 1285.26,-768.01 1292.95,-774.65 1300.36,-780.37"/>
<polygon fill="none" stroke="#64748b" stroke-width="1.5" points="1298.96,-782.81 1307.05,-785.34 1302.3,-778.32 1298.96,-782.81"/>
</g>
<!-- &#45;7065916486166608802 -->
<g id="node14" class="node">
<title>&#45;7065916486166608802</title>
<ellipse fill="#0f172a" stroke="black" cx="559" cy="-461" rx="4.5" ry="4.5"/>
</g>
<!-- &#45;2003569108878586067&#45;&gt;&#45;7065916486166608802 -->
<g id="edge16" class="edge">
<title>&#45;2003569108878586067&#45;&gt;&#45;7065916486166608802</title>
<path fill="none" stroke="#000000" stroke-width="1.2" d="M402.2,-658.96C436.19,-615.77 521.46,-507.43 549.16,-472.23"/>
<polygon fill="#000000" stroke="#000000" stroke-width="1.2" points="552.14,-474.11 555.57,-464.08 546.64,-469.78 552.14,-474.11"/>
<text text-anchor="middle" x="484" y="-598.8" font-family="Times,serif" font-size="14.00"> o3 </text>
</g>
<!-- &#45;5800810953644296137 -->
<g id="node15" class="node">
<title>&#45;5800810953644296137</title>
<ellipse fill="#0f172a" stroke="black" cx="559" cy="-149" rx="4.5" ry="4.5"/>
</g>
<!-- 9173928121495732602&#45;&gt;&#45;5800810953644296137 -->
<g id="edge18" class="edge">
<title>9173928121495732602&#45;&gt;&#45;5800810953644296137</title>
<path fill="none" stroke="#000000" stroke-width="1.2" d="M423.22,-149C460.67,-149 518.01,-149 544.15,-149"/>
<polygon fill="#000000" stroke="#000000" stroke-width="1.2" points="544.25,-152.5 554.25,-149 544.25,-145.5 544.25,-152.5"/>
<text text-anchor="middle" x="484" y="-152.8" font-family="Times,serif" font-size="14.00"> o3 </text>
</g>
<!-- 2606223291607521898 -->
<g id="node16" class="node">
<title>2606223291607521898</title>
<ellipse fill="#0f172a" stroke="black" cx="782" cy="-25" rx="4.5" ry="4.5"/>
</g>
<!-- 9173928121495732602&#45;&gt;2606223291607521898 -->
<g id="edge19" class="edge">
<title>9173928121495732602&#45;&gt;2606223291607521898</title>
<path fill="none" stroke="#000000" stroke-width="1.2" d="M423.22,-137.89C506.6,-111.58 713.12,-46.42 767.63,-29.22"/>
<polygon fill="#000000" stroke="#000000" stroke-width="1.2" points="768.79,-32.52 777.27,-26.18 766.68,-25.85 768.79,-32.52"/>
<text text-anchor="middle" x="559" y="-102.8" font-family="Times,serif" font-size="14.00"> uo1 </text>
</g>
<!-- 5683364805433933572 -->
<g id="node17" class="node">
<title>5683364805433933572</title>
<path fill="#f8f9fa" stroke="#333333" stroke-width="1.2" d="M1016,-760C1016,-760 968,-760 968,-760 962,-760 956,-754 956,-748 956,-748 956,-736 956,-736 956,-730 962,-724 968,-724 968,-724 1016,-724 1016,-724 1022,-724 1028,-730 1028,-736 1028,-736 1028,-748 1028,-748 1028,-754 1022,-760 1016,-760"/>
<text text-anchor="start" x="964" y="-738.3" font-family="Times,serif" font-size="14.00">S7,A6,4,1</text>
</g>
<!-- 1509690188049425982&#45;&gt;5683364805433933572 -->
<g id="edge20" class="edge">
<title>1509690188049425982&#45;&gt;5683364805433933572</title>
<path fill="none" stroke="#2563eb" stroke-width="1.5" stroke-dasharray="5,2" d="M624.17,-742C653.73,-742 854.37,-742 945.79,-742"/>
<polygon fill="#2563eb" stroke="#2563eb" stroke-width="1.5" points="945.85,-745.5 955.85,-742 945.85,-738.5 945.85,-745.5"/>
<text text-anchor="middle" x="782" y="-745.8" font-family="Times,serif" font-size="14.00"> uo1 </text>
</g>
<!-- 4869910244296368477 -->
<g id="node18" class="node">
<title>4869910244296368477</title>
<path fill="#f8f9fa" stroke="#333333" stroke-width="1.2" d="M728.5,-522C728.5,-522 680.5,-522 680.5,-522 674.5,-522 668.5,-516 668.5,-510 668.5,-510 668.5,-498 668.5,-498 668.5,-492 674.5,-486 680.5,-486 680.5,-486 728.5,-486 728.5,-486 734.5,-486 740.5,-492 740.5,-498 740.5,-498 740.5,-510 740.5,-510 740.5,-516 734.5,-522 728.5,-522"/>
<text text-anchor="start" x="676.5" y="-500.3" font-family="Times,serif" font-size="14.00">S7,A3,8,1</text>
</g>
<!-- &#45;7065916486166608802&#45;&gt;4869910244296368477 -->
<g id="edge21" class="edge">
<title>&#45;7065916486166608802&#45;&gt;4869910244296368477</title>
<path fill="none" stroke="#2563eb" stroke-width="1.5" stroke-dasharray="5,2" d="M563.55,-462.06C576.57,-465.96 622.82,-479.82 658.63,-490.56"/>
<polygon fill="#2563eb" stroke="#2563eb" stroke-width="1.5" points="657.84,-493.97 668.42,-493.49 659.84,-487.26 657.84,-493.97"/>
<text text-anchor="middle" x="619.5" y="-489.8" font-family="Times,serif" font-size="14.00"> o3 </text>
</g>
<!-- 3479129839616438110 -->
<g id="node19" class="node">
<title>3479129839616438110</title>
<path fill="#f8f9fa" stroke="#333333" stroke-width="1.2" d="M728.5,-441C728.5,-441 680.5,-441 680.5,-441 674.5,-441 668.5,-435 668.5,-429 668.5,-429 668.5,-417 668.5,-417 668.5,-411 674.5,-405 680.5,-405 680.5,-405 728.5,-405 728.5,-405 734.5,-405 740.5,-411 740.5,-417 740.5,-417 740.5,-429 740.5,-429 740.5,-435 734.5,-441 728.5,-441"/>
<text text-anchor="start" x="676.5" y="-419.3" font-family="Times,serif" font-size="14.00">S1,A3,8,0</text>
</g>
<!-- &#45;7065916486166608802&#45;&gt;3479129839616438110 -->
<g id="edge22" class="edge">
<title>&#45;7065916486166608802&#45;&gt;3479129839616438110</title>
<path fill="none" stroke="#2563eb" stroke-width="1.5" stroke-dasharray="5,2" d="M563.4,-458.74C569.85,-454.55 584.44,-445.59 598,-441 617.15,-434.51 639.09,-430.28 657.98,-427.57"/>
<polygon fill="#2563eb" stroke="#2563eb" stroke-width="1.5" points="658.68,-431.01 668.13,-426.21 657.75,-424.07 658.68,-431.01"/>
<text text-anchor="middle" x="619.5" y="-444.8" font-family="Times,serif" font-size="14.00"> empty </text>
</g>
<!-- 608240379265573291 -->
<g id="node20" class="node">
<title>608240379265573291</title>
<path fill="#f8f9fa" stroke="#333333" stroke-width="1.2" d="M728.5,-200C728.5,-200 680.5,-200 680.5,-200 674.5,-200 668.5,-194 668.5,-188 668.5,-188 668.5,-176 668.5,-176 668.5,-170 674.5,-164 680.5,-164 680.5,-164 728.5,-164 728.5,-164 734.5,-164 740.5,-170 740.5,-176 740.5,-176 740.5,-188 740.5,-188 740.5,-194 734.5,-200 728.5,-200"/>
<text text-anchor="start" x="676.5" y="-178.3" font-family="Times,serif" font-size="14.00">S8,A3,8,2</text>
</g>
<!-- &#45;7065916486166608802&#45;&gt;608240379265573291 -->
<g id="edge23" class="edge">
<title>&#45;7065916486166608802&#45;&gt;608240379265573291</title>
<path fill="none" stroke="#2563eb" stroke-width="1.5" stroke-dasharray="5,2" d="M561.81,-457.47C574.99,-431.85 656.42,-273.53 689.53,-209.17"/>
<polygon fill="#2563eb" stroke="#2563eb" stroke-width="1.5" points="692.77,-210.52 694.23,-200.03 686.54,-207.32 692.77,-210.52"/>
<text text-anchor="middle" x="619.5" y="-390.8" font-family="Times,serif" font-size="14.00"> o2 </text>
</g>
<!-- &#45;5800810953644296137&#45;&gt;608240379265573291 -->
<g id="edge25" class="edge">
<title>&#45;5800810953644296137&#45;&gt;608240379265573291</title>
<path fill="none" stroke="#2563eb" stroke-width="1.5" stroke-dasharray="5,2" d="M563.55,-149.82C576.57,-152.81 622.82,-163.45 658.63,-171.68"/>
<polygon fill="#2563eb" stroke="#2563eb" stroke-width="1.5" points="657.89,-175.1 668.42,-173.93 659.46,-168.28 657.89,-175.1"/>
<text text-anchor="middle" x="619.5" y="-171.8" font-family="Times,serif" font-size="14.00"> empty </text>
</g>
<!-- &#45;5413174811214318604 -->
<g id="node21" class="node">
<title>&#45;5413174811214318604</title>
<path fill="#ffe4e6" stroke="#9f1239" stroke-width="2.5" d="M731,-135C731,-135 678,-135 678,-135 672,-135 666,-129 666,-123 666,-123 666,-111 666,-111 666,-105 672,-99 678,-99 678,-99 731,-99 731,-99 737,-99 743,-105 743,-111 743,-111 743,-123 743,-123 743,-129 737,-135 731,-135"/>
<text text-anchor="start" x="674" y="-113.3" font-family="Times,serif" font-size="14.00">AX,A3,8,2</text>
</g>
<!-- &#45;5800810953644296137&#45;&gt;&#45;5413174811214318604 -->
<g id="edge24" class="edge">
<title>&#45;5800810953644296137&#45;&gt;&#45;5413174811214318604</title>
<path fill="none" stroke="#2563eb" stroke-width="1.5" stroke-dasharray="5,2" d="M562.84,-146.22C568.77,-140.61 583.17,-128.05 598,-123 616.23,-116.79 637.25,-114.66 655.71,-114.31"/>
<polygon fill="#2563eb" stroke="#2563eb" stroke-width="1.5" points="655.95,-117.81 665.95,-114.29 655.94,-110.81 655.95,-117.81"/>
<text text-anchor="middle" x="619.5" y="-126.8" font-family="Times,serif" font-size="14.00"> o3 </text>
</g>
<!-- 5450078021248800246 -->
<g id="node22" class="node">
<title>5450078021248800246</title>
<path fill="#f8f9fa" stroke="#333333" stroke-width="1.2" d="M1016,-231C1016,-231 968,-231 968,-231 962,-231 956,-225 956,-219 956,-219 956,-207 956,-207 956,-201 962,-195 968,-195 968,-195 1016,-195 1016,-195 1022,-195 1028,-201 1028,-207 1028,-207 1028,-219 1028,-219 1028,-225 1022,-231 1016,-231"/>
<text text-anchor="start" x="964" y="-209.3" font-family="Times,serif" font-size="14.00">S8,A6,4,2</text>
</g>
<!-- 2606223291607521898&#45;&gt;5450078021248800246 -->
<g id="edge26" class="edge">
<title>2606223291607521898&#45;&gt;5450078021248800246</title>
<path fill="none" stroke="#2563eb" stroke-width="1.5" stroke-dasharray="5,2" d="M786.5,-24.05C803.5,-19.65 878.31,-2.98 917,-39 963.58,-82.37 907.29,-126.65 942,-180 943.85,-182.84 946.03,-185.49 948.43,-187.96"/>
<polygon fill="#2563eb" stroke="#2563eb" stroke-width="1.5" points="946.38,-190.82 956.19,-194.83 951.02,-185.58 946.38,-190.82"/>
<text text-anchor="middle" x="835" y="-21.8" font-family="Times,serif" font-size="14.00"> uo1 </text>
</g>
<!-- 5683364805433933572&#45;&gt;ellipsis -->
<g id="edge28" class="edge">
<title>5683364805433933572&#45;&gt;ellipsis</title>
<path fill="none" stroke="#64748b" stroke-width="1.5" stroke-dasharray="1,5" d="M1028.27,-750.66C1040.49,-753.51 1054.31,-756.57 1067,-759 1150.89,-775.04 1250.92,-788.92 1299.16,-795.29"/>
<polygon fill="none" stroke="#64748b" stroke-width="1.5" points="1298.98,-798.09 1307.27,-796.35 1299.7,-792.54 1298.98,-798.09"/>
</g>
<!-- &#45;4590391461058885319 -->
<g id="node23" class="node">
<title>&#45;4590391461058885319</title>
<ellipse fill="#0f172a" stroke="black" cx="1171" cy="-729" rx="4.5" ry="4.5"/>
</g>
<!-- 5683364805433933572&#45;&gt;&#45;4590391461058885319 -->
<g id="edge27" class="edge">
<title>5683364805433933572&#45;&gt;&#45;4590391461058885319</title>
<path fill="none" stroke="#000000" stroke-width="1.2" d="M1028.39,-739.4C1067.76,-736.51 1129.37,-731.98 1156.46,-729.99"/>
<polygon fill="#000000" stroke="#000000" stroke-width="1.2" points="1156.78,-733.48 1166.5,-729.26 1156.27,-726.5 1156.78,-733.48"/>
<text text-anchor="middle" x="1088.5" y="-740.8" font-family="Times,serif" font-size="14.00"> o2 </text>
</g>
<!-- 7368090693849976926 -->
<g id="node24" class="node">
<title>7368090693849976926</title>
<ellipse fill="#0f172a" stroke="black" cx="835" cy="-545" rx="4.5" ry="4.5"/>
</g>
<!-- 4869910244296368477&#45;&gt;7368090693849976926 -->
<g id="edge29" class="edge">
<title>4869910244296368477&#45;&gt;7368090693849976926</title>
<path fill="none" stroke="#000000" stroke-width="1.2" d="M740.61,-515.2C767.19,-523.68 802.21,-534.86 820.9,-540.82"/>
<polygon fill="#000000" stroke="#000000" stroke-width="1.2" points="819.99,-544.2 830.58,-543.91 822.12,-537.53 819.99,-544.2"/>
<text text-anchor="middle" x="782" y="-535.8" font-family="Times,serif" font-size="14.00"> o2 </text>
</g>
<!-- &#45;1007382988789991933 -->
<g id="node25" class="node">
<title>&#45;1007382988789991933</title>
<ellipse fill="#0f172a" stroke="black" cx="835" cy="-423" rx="4.5" ry="4.5"/>
</g>
<!-- 3479129839616438110&#45;&gt;&#45;1007382988789991933 -->
<g id="edge30" class="edge">
<title>3479129839616438110&#45;&gt;&#45;1007382988789991933</title>
<path fill="none" stroke="#000000" stroke-width="1.2" d="M740.61,-423C766.82,-423 801.24,-423 820.11,-423"/>
<polygon fill="#000000" stroke="#000000" stroke-width="1.2" points="820.22,-426.5 830.22,-423 820.22,-419.5 820.22,-426.5"/>
<text text-anchor="middle" x="782" y="-426.8" font-family="Times,serif" font-size="14.00"> o2 </text>
</g>
<!-- &#45;2072866092772137025 -->
<g id="node26" class="node">
<title>&#45;2072866092772137025</title>
<ellipse fill="#0f172a" stroke="black" cx="835" cy="-300" rx="4.5" ry="4.5"/>
</g>
<!-- 3479129839616438110&#45;&gt;&#45;2072866092772137025 -->
<g id="edge31" class="edge">
<title>3479129839616438110&#45;&gt;&#45;2072866092772137025</title>
<path fill="none" stroke="#000000" stroke-width="1.2" d="M724.46,-404.85C752.07,-378.42 802.39,-330.26 823.86,-309.71"/>
<polygon fill="#000000" stroke="#000000" stroke-width="1.2" points="826.34,-312.18 831.14,-302.74 821.5,-307.12 826.34,-312.18"/>
<text text-anchor="middle" x="782" y="-365.8" font-family="Times,serif" font-size="14.00"> o3 </text>
</g>
<!-- 6417260118737238603 -->
<g id="node27" class="node">
<title>6417260118737238603</title>
<ellipse fill="#0f172a" stroke="black" cx="835" cy="-182" rx="4.5" ry="4.5"/>
</g>
<!-- 608240379265573291&#45;&gt;6417260118737238603 -->
<g id="edge32" class="edge">
<title>608240379265573291&#45;&gt;6417260118737238603</title>
<path fill="none" stroke="#000000" stroke-width="1.2" d="M740.61,-182C766.82,-182 801.24,-182 820.11,-182"/>
<polygon fill="#000000" stroke="#000000" stroke-width="1.2" points="820.22,-185.5 830.22,-182 820.22,-178.5 820.22,-185.5"/>
<text text-anchor="middle" x="782" y="-185.8" font-family="Times,serif" font-size="14.00"> o2 </text>
</g>
<!-- &#45;959376352813211565 -->
<g id="node28" class="node">
<title>&#45;959376352813211565</title>
<ellipse fill="#0f172a" stroke="black" cx="835" cy="-89" rx="4.5" ry="4.5"/>
</g>
<!-- 608240379265573291&#45;&gt;&#45;959376352813211565 -->
<g id="edge33" class="edge">
<title>608240379265573291&#45;&gt;&#45;959376352813211565</title>
<path fill="none" stroke="#000000" stroke-width="1.2" d="M730.58,-163.85C758.32,-143.77 801.82,-112.29 822.43,-97.37"/>
<polygon fill="#000000" stroke="#000000" stroke-width="1.2" points="824.68,-100.07 830.73,-91.37 820.57,-94.4 824.68,-100.07"/>
<text text-anchor="middle" x="782" y="-139.8" font-family="Times,serif" font-size="14.00"> o3 </text>
</g>
<!-- 6697491102161291514 -->
<g id="node29" class="node">
<title>6697491102161291514</title>
<ellipse fill="#0f172a" stroke="black" cx="1171" cy="-210" rx="4.5" ry="4.5"/>
</g>
<!-- 5450078021248800246&#45;&gt;6697491102161291514 -->
<g id="edge34" class="edge">
<title>5450078021248800246&#45;&gt;6697491102161291514</title>
<path fill="none" stroke="#000000" stroke-width="1.2" d="M1028.39,-212.4C1067.41,-211.74 1128.28,-210.71 1155.73,-210.24"/>
<polygon fill="#000000" stroke="#000000" stroke-width="1.2" points="1156.09,-213.74 1166.03,-210.07 1155.98,-206.74 1156.09,-213.74"/>
<text text-anchor="middle" x="1088.5" y="-215.8" font-family="Times,serif" font-size="14.00"> o2 </text>
</g>
<!-- &#45;7837351442067831419 -->
<g id="node30" class="node">
<title>&#45;7837351442067831419</title>
<ellipse fill="#0f172a" stroke="black" cx="1171" cy="-148" rx="4.5" ry="4.5"/>
</g>
<!-- 5450078021248800246&#45;&gt;&#45;7837351442067831419 -->
<g id="edge35" class="edge">
<title>5450078021248800246&#45;&gt;&#45;7837351442067831419</title>
<path fill="none" stroke="#000000" stroke-width="1.2" d="M1028.39,-200C1067.94,-185.48 1129.93,-162.72 1156.82,-152.84"/>
<polygon fill="#000000" stroke="#000000" stroke-width="1.2" points="1158.32,-156.02 1166.5,-149.29 1155.91,-149.45 1158.32,-156.02"/>
<text text-anchor="middle" x="1088.5" y="-188.8" font-family="Times,serif" font-size="14.00"> o1 </text>
</g>
<!-- &#45;4590391461058885319&#45;&gt;ellipsis -->
<g id="edge37" class="edge">
<title>&#45;4590391461058885319&#45;&gt;ellipsis</title>
<path fill="none" stroke="#64748b" stroke-width="1.5" stroke-dasharray="1,5" d="M1175.26,-730.46C1191.01,-737.53 1260.12,-768.54 1299.77,-786.33"/>
<polygon fill="none" stroke="#64748b" stroke-width="1.5" points="1298.84,-788.98 1307.28,-789.7 1301.13,-783.87 1298.84,-788.98"/>
</g>
<!-- &#45;8002134449010827805 -->
<g id="node31" class="node">
<title>&#45;8002134449010827805</title>
<path fill="#ffe4e6" stroke="#9f1239" stroke-width="2.5" d="M1367,-747C1367,-747 1291,-747 1291,-747 1285,-747 1279,-741 1279,-735 1279,-735 1279,-723 1279,-723 1279,-717 1285,-711 1291,-711 1291,-711 1367,-711 1367,-711 1373,-711 1379,-717 1379,-723 1379,-723 1379,-735 1379,-735 1379,-741 1373,-747 1367,-747"/>
<text text-anchor="start" x="1287" y="-725.3" font-family="Times,serif" font-size="14.00">AX,A5,1,z_det</text>
</g>
<!-- &#45;4590391461058885319&#45;&gt;&#45;8002134449010827805 -->
<g id="edge36" class="edge">
<title>&#45;4590391461058885319&#45;&gt;&#45;8002134449010827805</title>
<path fill="none" stroke="#2563eb" stroke-width="1.5" stroke-dasharray="5,2" d="M1175.52,-728.84C1184.76,-728.43 1210.53,-727.36 1232,-727 1243.85,-726.8 1256.52,-726.87 1268.65,-727.07"/>
<polygon fill="#2563eb" stroke="#2563eb" stroke-width="1.5" points="1268.6,-730.57 1278.67,-727.26 1268.74,-723.57 1268.6,-730.57"/>
<text text-anchor="middle" x="1243" y="-730.8" font-family="Times,serif" font-size="14.00"> o3 </text>
</g>
<!-- 1939505774608132276 -->
<g id="node32" class="node">
<title>1939505774608132276</title>
<path fill="#dcfce7" stroke="#166534" stroke-width="2.5" d="M1030,-636C1030,-636 954,-636 954,-636 948,-636 942,-630 942,-624 942,-624 942,-612 942,-612 942,-606 948,-600 954,-600 954,-600 1030,-600 1030,-600 1036,-600 1042,-606 1042,-612 1042,-612 1042,-624 1042,-624 1042,-630 1036,-636 1030,-636"/>
<text text-anchor="start" x="950" y="-614.3" font-family="Times,serif" font-size="14.00">AX,A1,5,z_det</text>
</g>
<!-- 7368090693849976926&#45;&gt;1939505774608132276 -->
<g id="edge38" class="edge">
<title>7368090693849976926&#45;&gt;1939505774608132276</title>
<path fill="none" stroke="#2563eb" stroke-width="1.5" stroke-dasharray="5,2" d="M839.01,-547.4C845.25,-552.3 860.18,-563.61 874,-571 892.41,-580.85 913.35,-589.88 932.37,-597.34"/>
<polygon fill="#2563eb" stroke="#2563eb" stroke-width="1.5" points="931.23,-600.65 941.82,-600.98 933.75,-594.12 931.23,-600.65"/>
<text text-anchor="middle" x="895.5" y="-594.8" font-family="Times,serif" font-size="14.00"> o3 </text>
</g>
<!-- &#45;6794099879174621347 -->
<g id="node33" class="node">
<title>&#45;6794099879174621347</title>
<path fill="#dcfce7" stroke="#166534" stroke-width="2.5" d="M1016,-571C1016,-571 968,-571 968,-571 962,-571 956,-565 956,-559 956,-559 956,-547 956,-547 956,-541 962,-535 968,-535 968,-535 1016,-535 1016,-535 1022,-535 1028,-541 1028,-547 1028,-547 1028,-559 1028,-559 1028,-565 1022,-571 1016,-571"/>
<text text-anchor="start" x="964" y="-549.3" font-family="Times,serif" font-size="14.00">S7,A1,5,1</text>
</g>
<!-- 7368090693849976926&#45;&gt;&#45;6794099879174621347 -->
<g id="edge39" class="edge">
<title>7368090693849976926&#45;&gt;&#45;6794099879174621347</title>
<path fill="none" stroke="#2563eb" stroke-width="1.5" stroke-dasharray="5,2" d="M839.53,-545.18C853.51,-545.9 906.17,-548.62 945.5,-550.65"/>
<polygon fill="#2563eb" stroke="#2563eb" stroke-width="1.5" points="945.52,-554.16 955.69,-551.18 945.88,-547.17 945.52,-554.16"/>
<text text-anchor="middle" x="895.5" y="-552.8" font-family="Times,serif" font-size="14.00"> empty </text>
</g>
<!-- 8861376930061260709 -->
<g id="node34" class="node">
<title>8861376930061260709</title>
<path fill="#dcfce7" stroke="#166534" stroke-width="2.5" d="M1016,-506C1016,-506 968,-506 968,-506 962,-506 956,-500 956,-494 956,-494 956,-482 956,-482 956,-476 962,-470 968,-470 968,-470 1016,-470 1016,-470 1022,-470 1028,-476 1028,-482 1028,-482 1028,-494 1028,-494 1028,-500 1022,-506 1016,-506"/>
<text text-anchor="start" x="964" y="-484.3" font-family="Times,serif" font-size="14.00">S4,A1,5,1</text>
</g>
<!-- 7368090693849976926&#45;&gt;8861376930061260709 -->
<g id="edge40" class="edge">
<title>7368090693849976926&#45;&gt;8861376930061260709</title>
<path fill="none" stroke="#2563eb" stroke-width="1.5" stroke-dasharray="5,2" d="M839.48,-543.04C846.07,-539.37 860.9,-531.37 874,-526 897.39,-516.42 924.17,-507.57 946.2,-500.83"/>
<polygon fill="#2563eb" stroke="#2563eb" stroke-width="1.5" points="947.39,-504.12 955.95,-497.89 945.37,-497.42 947.39,-504.12"/>
<text text-anchor="middle" x="895.5" y="-529.8" font-family="Times,serif" font-size="14.00"> o2 </text>
</g>
<!-- &#45;1007382988789991933&#45;&gt;&#45;6794099879174621347 -->
<g id="edge41" class="edge">
<title>&#45;1007382988789991933&#45;&gt;&#45;6794099879174621347</title>
<path fill="none" stroke="#2563eb" stroke-width="1.5" stroke-dasharray="5,2" d="M839.29,-425.3C850.7,-433.33 889.36,-461.22 917,-489 929.48,-501.55 928.96,-508.03 942,-520 945.36,-523.09 949.04,-526.1 952.82,-528.97"/>
<polygon fill="#2563eb" stroke="#2563eb" stroke-width="1.5" points="951.01,-531.98 961.17,-534.99 955.11,-526.3 951.01,-531.98"/>
<text text-anchor="middle" x="895.5" y="-492.8" font-family="Times,serif" font-size="14.00"> o3 </text>
</g>
<!-- &#45;1138850995219694889 -->
<g id="node35" class="node">
<title>&#45;1138850995219694889</title>
<path fill="#dcfce7" stroke="#166534" stroke-width="2.5" d="M1016,-441C1016,-441 968,-441 968,-441 962,-441 956,-435 956,-429 956,-429 956,-417 956,-417 956,-411 962,-405 968,-405 968,-405 1016,-405 1016,-405 1022,-405 1028,-411 1028,-417 1028,-417 1028,-429 1028,-429 1028,-435 1022,-441 1016,-441"/>
<text text-anchor="start" x="964" y="-419.3" font-family="Times,serif" font-size="14.00">S1,A1,5,0</text>
</g>
<!-- &#45;1007382988789991933&#45;&gt;&#45;1138850995219694889 -->
<g id="edge42" class="edge">
<title>&#45;1007382988789991933&#45;&gt;&#45;1138850995219694889</title>
<path fill="none" stroke="#2563eb" stroke-width="1.5" stroke-dasharray="5,2" d="M839.56,-422.75C846.29,-422.29 861.32,-421.33 874,-421 897.65,-420.38 923.99,-420.74 945.68,-421.31"/>
<polygon fill="#2563eb" stroke="#2563eb" stroke-width="1.5" points="945.83,-424.82 955.93,-421.61 946.03,-417.82 945.83,-424.82"/>
<text text-anchor="middle" x="895.5" y="-424.8" font-family="Times,serif" font-size="14.00"> empty </text>
</g>
<!-- 7390974329504135083 -->
<g id="node36" class="node">
<title>7390974329504135083</title>
<path fill="#dcfce7" stroke="#166534" stroke-width="2.5" d="M1016,-366C1016,-366 968,-366 968,-366 962,-366 956,-360 956,-354 956,-354 956,-342 956,-342 956,-336 962,-330 968,-330 968,-330 1016,-330 1016,-330 1022,-330 1028,-336 1028,-342 1028,-342 1028,-354 1028,-354 1028,-360 1022,-366 1016,-366"/>
<text text-anchor="start" x="964" y="-344.3" font-family="Times,serif" font-size="14.00">S8,A1,5,2</text>
</g>
<!-- &#45;1007382988789991933&#45;&gt;7390974329504135083 -->
<g id="edge43" class="edge">
<title>&#45;1007382988789991933&#45;&gt;7390974329504135083</title>
<path fill="none" stroke="#2563eb" stroke-width="1.5" stroke-dasharray="5,2" d="M839.06,-420.84C845.39,-416.42 860.49,-406.16 874,-399 897.28,-386.67 924.18,-374.79 946.31,-365.6"/>
<polygon fill="#2563eb" stroke="#2563eb" stroke-width="1.5" points="947.87,-368.74 955.79,-361.71 945.21,-362.27 947.87,-368.74"/>
<text text-anchor="middle" x="895.5" y="-402.8" font-family="Times,serif" font-size="14.00"> o2 </text>
</g>
<!-- &#45;2072866092772137025&#45;&gt;ellipsis -->
<g id="edge45" class="edge">
<title>&#45;2072866092772137025&#45;&gt;ellipsis</title>
<path fill="none" stroke="#64748b" stroke-width="1.5" stroke-dasharray="1,5" d="M839.48,-299.17C860.43,-294.4 971.16,-272.06 1042,-315 1195.26,-407.9 1184.9,-492.65 1254,-658 1272.16,-701.46 1253.4,-721.46 1279,-761 1284.49,-769.47 1292.52,-776.83 1300.51,-782.76"/>
<polygon fill="none" stroke="#64748b" stroke-width="1.5" points="1298.99,-785.12 1307.15,-787.4 1302.2,-780.53 1298.99,-785.12"/>
</g>
<!-- &#45;2072866092772137025&#45;&gt;5683364805433933572 -->
<g id="edge44" class="edge">
<title>&#45;2072866092772137025&#45;&gt;5683364805433933572</title>
<path fill="none" stroke="#2563eb" stroke-width="1.5" stroke-dasharray="5,2" d="M839.59,-301.29C852.73,-306.21 898.35,-325.23 917,-358 949.21,-414.6 923.54,-587.54 942,-650 948.9,-673.35 962.08,-697.57 973.04,-715.29"/>
<polygon fill="#2563eb" stroke="#2563eb" stroke-width="1.5" points="970.21,-717.36 978.52,-723.93 976.12,-713.61 970.21,-717.36"/>
<text text-anchor="middle" x="895.5" y="-361.8" font-family="Times,serif" font-size="14.00"> o3 </text>
</g>
<!-- &#45;2072866092772137025&#45;&gt;5450078021248800246 -->
<g id="edge46" class="edge">
<title>&#45;2072866092772137025&#45;&gt;5450078021248800246</title>
<path fill="none" stroke="#2563eb" stroke-width="1.5" stroke-dasharray="5,2" d="M837.27,-295.95C840.97,-284.89 852.82,-254 874,-239 894.86,-224.23 922.63,-217.65 945.89,-214.8"/>
<polygon fill="#2563eb" stroke="#2563eb" stroke-width="1.5" points="946.29,-218.27 955.88,-213.76 945.57,-211.31 946.29,-218.27"/>
<text text-anchor="middle" x="895.5" y="-242.8" font-family="Times,serif" font-size="14.00"> o2 </text>
</g>
<!-- 6417260118737238603&#45;&gt;7390974329504135083 -->
<g id="edge48" class="edge">
<title>6417260118737238603&#45;&gt;7390974329504135083</title>
<path fill="none" stroke="#2563eb" stroke-width="1.5" stroke-dasharray="5,2" d="M839.52,-181.72C851.66,-180.96 892.45,-180.01 917,-199 922.27,-203.08 958.43,-278.77 978.18,-320.66"/>
<polygon fill="#2563eb" stroke="#2563eb" stroke-width="1.5" points="975.05,-322.23 982.47,-329.78 981.38,-319.24 975.05,-322.23"/>
<text text-anchor="middle" x="895.5" y="-202.8" font-family="Times,serif" font-size="14.00"> empty </text>
</g>
<!-- 1369559139024243188 -->
<g id="node37" class="node">
<title>1369559139024243188</title>
<path fill="#dcfce7" stroke="#166534" stroke-width="2.5" d="M1018.5,-166C1018.5,-166 965.5,-166 965.5,-166 959.5,-166 953.5,-160 953.5,-154 953.5,-154 953.5,-142 953.5,-142 953.5,-136 959.5,-130 965.5,-130 965.5,-130 1018.5,-130 1018.5,-130 1024.5,-130 1030.5,-136 1030.5,-142 1030.5,-142 1030.5,-154 1030.5,-154 1030.5,-160 1024.5,-166 1018.5,-166"/>
<text text-anchor="start" x="961.5" y="-144.3" font-family="Times,serif" font-size="14.00">AX,A1,5,2</text>
</g>
<!-- 6417260118737238603&#45;&gt;1369559139024243188 -->
<g id="edge47" class="edge">
<title>6417260118737238603&#45;&gt;1369559139024243188</title>
<path fill="none" stroke="#2563eb" stroke-width="1.5" stroke-dasharray="5,2" d="M837.96,-178.34C842.76,-169.84 856.03,-148.84 874,-141 895.49,-131.62 921.35,-132.1 943.28,-135.47"/>
<polygon fill="#2563eb" stroke="#2563eb" stroke-width="1.5" points="942.91,-138.96 953.37,-137.26 944.13,-132.07 942.91,-138.96"/>
<text text-anchor="middle" x="895.5" y="-144.8" font-family="Times,serif" font-size="14.00"> o3 </text>
</g>
<!-- &#45;9109655382935321516 -->
<g id="node38" class="node">
<title>&#45;9109655382935321516</title>
<path fill="#ffe4e6" stroke="#9f1239" stroke-width="2.5" d="M1018.5,-101C1018.5,-101 965.5,-101 965.5,-101 959.5,-101 953.5,-95 953.5,-89 953.5,-89 953.5,-77 953.5,-77 953.5,-71 959.5,-65 965.5,-65 965.5,-65 1018.5,-65 1018.5,-65 1024.5,-65 1030.5,-71 1030.5,-77 1030.5,-77 1030.5,-89 1030.5,-89 1030.5,-95 1024.5,-101 1018.5,-101"/>
<text text-anchor="start" x="961.5" y="-79.3" font-family="Times,serif" font-size="14.00">AX,A4,4,2</text>
</g>
<!-- &#45;959376352813211565&#45;&gt;&#45;9109655382935321516 -->
<g id="edge49" class="edge">
<title>&#45;959376352813211565&#45;&gt;&#45;9109655382935321516</title>
<path fill="none" stroke="#2563eb" stroke-width="1.5" stroke-dasharray="5,2" d="M839.53,-88.86C853.22,-88.33 904.01,-86.37 943.04,-84.86"/>
<polygon fill="#2563eb" stroke="#2563eb" stroke-width="1.5" points="943.33,-88.35 953.19,-84.46 943.06,-81.35 943.33,-88.35"/>
<text text-anchor="middle" x="895.5" y="-91.8" font-family="Times,serif" font-size="14.00"> o3 </text>
</g>
<!-- 7469654765533856378 -->
<g id="node39" class="node">
<title>7469654765533856378</title>
<path fill="#f8f9fa" stroke="#333333" stroke-width="1.2" d="M1016,-36C1016,-36 968,-36 968,-36 962,-36 956,-30 956,-24 956,-24 956,-12 956,-12 956,-6 962,0 968,0 968,0 1016,0 1016,0 1022,0 1028,-6 1028,-12 1028,-12 1028,-24 1028,-24 1028,-30 1022,-36 1016,-36"/>
<text text-anchor="start" x="964" y="-14.3" font-family="Times,serif" font-size="14.00">S8,A4,4,2</text>
</g>
<!-- &#45;959376352813211565&#45;&gt;7469654765533856378 -->
<g id="edge50" class="edge">
<title>&#45;959376352813211565&#45;&gt;7469654765533856378</title>
<path fill="none" stroke="#2563eb" stroke-width="1.5" stroke-dasharray="5,2" d="M839.02,-86.7C845.28,-81.99 860.26,-71.12 874,-64 897.12,-52.01 924.12,-41.2 946.34,-33.08"/>
<polygon fill="#2563eb" stroke="#2563eb" stroke-width="1.5" points="947.64,-36.33 955.87,-29.66 945.27,-29.75 947.64,-36.33"/>
<text text-anchor="middle" x="895.5" y="-67.8" font-family="Times,serif" font-size="14.00"> empty </text>
</g>
<!-- 6697491102161291514&#45;&gt;ellipsis -->
<g id="edge52" class="edge">
<title>6697491102161291514&#45;&gt;ellipsis</title>
<path fill="none" stroke="#64748b" stroke-width="1.5" stroke-dasharray="1,5" d="M1175.66,-210.91C1189.02,-214.47 1235.42,-228.76 1254,-260 1310.98,-355.81 1227.47,-662.15 1279,-761 1283.82,-770.25 1292.01,-777.94 1300.33,-783.93"/>
<polygon fill="none" stroke="#64748b" stroke-width="1.5" points="1299.06,-786.45 1307.27,-788.55 1302.17,-781.79 1299.06,-786.45"/>
</g>
<!-- &#45;1526051795959860068 -->
<g id="node40" class="node">
<title>&#45;1526051795959860068</title>
<path fill="#ffe4e6" stroke="#9f1239" stroke-width="2.5" d="M1355.5,-224C1355.5,-224 1302.5,-224 1302.5,-224 1296.5,-224 1290.5,-218 1290.5,-212 1290.5,-212 1290.5,-200 1290.5,-200 1290.5,-194 1296.5,-188 1302.5,-188 1302.5,-188 1355.5,-188 1355.5,-188 1361.5,-188 1367.5,-194 1367.5,-200 1367.5,-200 1367.5,-212 1367.5,-212 1367.5,-218 1361.5,-224 1355.5,-224"/>
<text text-anchor="start" x="1298.5" y="-202.3" font-family="Times,serif" font-size="14.00">AX,A5,1,2</text>
</g>
<!-- 6697491102161291514&#45;&gt;&#45;1526051795959860068 -->
<g id="edge51" class="edge">
<title>6697491102161291514&#45;&gt;&#45;1526051795959860068</title>
<path fill="none" stroke="#2563eb" stroke-width="1.5" stroke-dasharray="5,2" d="M1175.51,-209.53C1184.74,-208.3 1210.46,-205.07 1232,-204 1247.56,-203.22 1264.55,-203.28 1279.85,-203.67"/>
<polygon fill="#2563eb" stroke="#2563eb" stroke-width="1.5" points="1280.04,-207.17 1290.14,-203.98 1280.25,-200.18 1280.04,-207.17"/>
<text text-anchor="middle" x="1243" y="-207.8" font-family="Times,serif" font-size="14.00"> o3 </text>
</g>
<!-- 2315011762180714371 -->
<g id="node41" class="node">
<title>2315011762180714371</title>
<path fill="#ffe4e6" stroke="#9f1239" stroke-width="2.5" d="M1355.5,-159C1355.5,-159 1302.5,-159 1302.5,-159 1296.5,-159 1290.5,-153 1290.5,-147 1290.5,-147 1290.5,-135 1290.5,-135 1290.5,-129 1296.5,-123 1302.5,-123 1302.5,-123 1355.5,-123 1355.5,-123 1361.5,-123 1367.5,-129 1367.5,-135 1367.5,-135 1367.5,-147 1367.5,-147 1367.5,-153 1361.5,-159 1355.5,-159"/>
<text text-anchor="start" x="1298.5" y="-137.3" font-family="Times,serif" font-size="14.00">AX,A6,6,2</text>
</g>
<!-- &#45;7837351442067831419&#45;&gt;2315011762180714371 -->
<g id="edge53" class="edge">
<title>&#45;7837351442067831419&#45;&gt;2315011762180714371</title>
<path fill="none" stroke="#2563eb" stroke-width="1.5" stroke-dasharray="5,2" d="M1175.55,-147.84C1189.37,-147.22 1240.76,-144.91 1280.09,-143.15"/>
<polygon fill="#2563eb" stroke="#2563eb" stroke-width="1.5" points="1280.47,-146.64 1290.31,-142.69 1280.16,-139.64 1280.47,-146.64"/>
<text text-anchor="middle" x="1243" y="-149.8" font-family="Times,serif" font-size="14.00"> o1 </text>
</g>
<!-- 7469654765533856378&#45;&gt;6697491102161291514 -->
<g id="edge54" class="edge">
<title>7469654765533856378&#45;&gt;6697491102161291514</title>
<path fill="none" stroke="#000000" stroke-width="1.2" d="M1023.91,-36.02C1030.18,-40.26 1036.52,-45.01 1042,-50 1091.1,-94.73 1093.37,-115.24 1135,-167 1143.77,-177.9 1153.86,-190.28 1160.95,-198.95"/>
<polygon fill="#000000" stroke="#000000" stroke-width="1.2" points="1158.4,-201.36 1167.44,-206.88 1163.81,-196.93 1158.4,-201.36"/>
<text text-anchor="middle" x="1088.5" y="-135.8" font-family="Times,serif" font-size="14.00"> o2 </text>
</g>
<!-- &#45;942937945996361799 -->
<g id="node42" class="node">
<title>&#45;942937945996361799</title>
<ellipse fill="#0f172a" stroke="black" cx="1171" cy="-18" rx="4.5" ry="4.5"/>
</g>
<!-- 7469654765533856378&#45;&gt;&#45;942937945996361799 -->
<g id="edge55" class="edge">
<title>7469654765533856378&#45;&gt;&#45;942937945996361799</title>
<path fill="none" stroke="#000000" stroke-width="1.2" d="M1028.39,-18C1067.41,-18 1128.28,-18 1155.73,-18"/>
<polygon fill="#000000" stroke="#000000" stroke-width="1.2" points="1156.03,-21.5 1166.03,-18 1156.03,-14.5 1156.03,-21.5"/>
<text text-anchor="middle" x="1088.5" y="-21.8" font-family="Times,serif" font-size="14.00"> o1 </text>
</g>
<!-- &#45;7495088655806019457 -->
<g id="node43" class="node">
<title>&#45;7495088655806019457</title>
<path fill="#ffe4e6" stroke="#9f1239" stroke-width="2.5" d="M1355.5,-36C1355.5,-36 1302.5,-36 1302.5,-36 1296.5,-36 1290.5,-30 1290.5,-24 1290.5,-24 1290.5,-12 1290.5,-12 1290.5,-6 1296.5,0 1302.5,0 1302.5,0 1355.5,0 1355.5,0 1361.5,0 1367.5,-6 1367.5,-12 1367.5,-12 1367.5,-24 1367.5,-24 1367.5,-30 1361.5,-36 1355.5,-36"/>
<text text-anchor="start" x="1298.5" y="-14.3" font-family="Times,serif" font-size="14.00">AX,A4,6,2</text>
</g>
<!-- &#45;942937945996361799&#45;&gt;&#45;7495088655806019457 -->
<g id="edge56" class="edge">
<title>&#45;942937945996361799&#45;&gt;&#45;7495088655806019457</title>
<path fill="none" stroke="#2563eb" stroke-width="1.5" stroke-dasharray="5,2" d="M1175.55,-18C1189.37,-18 1240.76,-18 1280.09,-18"/>
<polygon fill="#2563eb" stroke="#2563eb" stroke-width="1.5" points="1280.31,-21.5 1290.31,-18 1280.31,-14.5 1280.31,-21.5"/>
<text text-anchor="middle" x="1243" y="-21.8" font-family="Times,serif" font-size="14.00"> o1 </text>
</g>
<!-- start -->
<g id="node44" class="node">
<title>start</title>
</g>
<!-- start&#45;&gt;7661174995194480628 -->
<g id="edge57" class="edge">
<title>start&#45;&gt;7661174995194480628</title>
<path fill="none" stroke="black" stroke-width="1.5" d="M54.26,-905C66.32,-905 80.96,-905 94.71,-905"/>
<polygon fill="black" stroke="black" stroke-width="1.5" points="95,-908.5 105,-905 95,-901.5 95,-908.5"/>
</g>
</g>
</svg>
