<?xml version="1.0" encoding="UTF-8" standalone="no"?>
<!DOCTYPE svg PUBLIC "-//W3C//DTD SVG 1.1//EN"
 "http://www.w3.org/Graphics/SVG/1.1/DTD/svg11.dtd">
<!-- Generated by graphviz version 2.43.0 (0)
 -->
<!-- Title: %3 Pages: 1 -->
<svg width="1387pt" height="1025pt"
 viewBox="0.00 0.00 1387.00 1025.00" xmlns="http://www.w3.org/2000/svg" xmlns:xlink="http://www.w3.org/1999/xlink">
<g id="graph0" class="graph" transform="scale(1 1) rotate(0) translate(4 1021)">
<title>%3</title>
<polygon fill="white" stroke="transparent" points="-4,4 -4,-1021 1383,-1021 1383,4 -4,4"/>
<!-- ellipsis -->
<g id="node1" class="node">
<title>ellipsis</title>
<path fill="none" stroke="#64748b" stroke-width="2" stroke-dasharray="5,2" d="M1340.83,-742.5C1340.83,-742.5 1317.17,-742.5 1317.17,-742.5 1312.33,-742.5 1307.5,-737.67 1307.5,-732.83 1307.5,-732.83 1307.5,-723.17 1307.5,-723.17 1307.5,-718.33 1312.33,-713.5 1317.17,-713.5 1317.17,-713.5 1340.83,-713.5 1340.83,-713.5 1345.67,-713.5 1350.5,-718.33 1350.5,-723.17 1350.5,-723.17 1350.5,-732.83 1350.5,-732.83 1350.5,-737.67 1345.67,-742.5 1340.83,-742.5"/>
<text text-anchor="middle" x="1329" y="-724.3" font-family="Times,serif" font-size="14.00" fill="#475569">...</text>
</g>
<!-- 7661174995194480628 -->
<g id="node2" class="node">
<title>7661174995194480628</title>
<path fill="#f8f9fa" stroke="#333333" stroke-width="1.2" d="M165,-922C165,-922 117,-922 117,-922 111,-922 105,-916 105,-910 105,-910 105,-898 105,-898 105,-892 111,-886 117,-886 117,-886 165,-886 165,-886 171,-886 177,-892 177,-898 177,-898 177,-910 177,-910 177,-916 171,-922 165,-922"/>
<text text-anchor="start" x="113" y="-900.3" font-family="Times,serif" font-size="14.00">S1,A7,0,0</text>
</g>
<!-- &#45;2648783404548145954 -->
<g id="node3" class="node">
<title>&#45;2648783404548145954</title>
<ellipse fill="#0f172a" stroke="black" cx="253.5" cy="-970" rx="4.5" ry="4.5"/>
</g>
<!-- 7661174995194480628&#45;&gt;&#45;2648783404548145954 -->
<g id="edge1" class="edge">
<title>7661174995194480628&#45;&gt;&#45;2648783404548145954</title>
<path fill="none" stroke="#000000" stroke-width="1.2" d="M172.19,-922.03C194.62,-935.43 224.04,-953 240.33,-962.73"/>
<polygon fill="#000000" stroke="#000000" stroke-width="1.2" points="238.87,-965.94 249.25,-968.06 242.46,-959.93 238.87,-965.94"/>
<text text-anchor="middle" x="213" y="-956.8" font-family="Times,serif" font-size="14.00"> o1 </text>
</g>
<!-- 3427234959700495584 -->
<g id="node4" class="node">
<title>3427234959700495584</title>
<ellipse fill="#0f172a" stroke="black" cx="992" cy="-898" rx="4.5" ry="4.5"/>
</g>
<!-- 7661174995194480628&#45;&gt;3427234959700495584 -->
<g id="edge2" class="edge">
<title>7661174995194480628&#45;&gt;3427234959700495584</title>
<path fill="none" stroke="#000000" stroke-width="1.2" d="M177.33,-904C199.02,-904 227.37,-904 252.5,-904 252.5,-904 252.5,-904 836,-904 888.08,-904 949.92,-900.58 977.06,-898.9"/>
<polygon fill="#000000" stroke="#000000" stroke-width="1.2" points="977.41,-902.39 987.17,-898.26 976.97,-895.4 977.41,-902.39"/>
<text text-anchor="middle" x="559" y="-907.8" font-family="Times,serif" font-size="14.00"> o2 </text>
</g>
<!-- &#45;4591854248342968040 -->
<g id="node5" class="node">
<title>&#45;4591854248342968040</title>
<ellipse fill="#0f172a" stroke="black" cx="253.5" cy="-787" rx="4.5" ry="4.5"/>
</g>
<!-- 7661174995194480628&#45;&gt;&#45;4591854248342968040 -->
<g id="edge3" class="edge">
<title>7661174995194480628&#45;&gt;&#45;4591854248342968040</title>
<path fill="none" stroke="#000000" stroke-width="1.2" d="M159.02,-885.98C182.44,-861.18 223.82,-817.37 242.66,-797.42"/>
<polygon fill="#000000" stroke="#000000" stroke-width="1.2" points="245.43,-799.58 249.75,-789.91 240.34,-794.77 245.43,-799.58"/>
<text text-anchor="middle" x="213" y="-842.8" font-family="Times,serif" font-size="14.00"> o3 </text>
</g>
<!-- &#45;4100073484582843917 -->
<g id="node6" class="node">
<title>&#45;4100073484582843917</title>
<path fill="#f8f9fa" stroke="#333333" stroke-width="1.2" d="M508,-1017C508,-1017 460,-1017 460,-1017 454,-1017 448,-1011 448,-1005 448,-1005 448,-993 448,-993 448,-987 454,-981 460,-981 460,-981 508,-981 508,-981 514,-981 520,-987 520,-993 520,-993 520,-1005 520,-1005 520,-1011 514,-1017 508,-1017"/>
<text text-anchor="start" x="456" y="-995.3" font-family="Times,serif" font-size="14.00">S2,A7,1,0</text>
</g>
<!-- &#45;2648783404548145954&#45;&gt;&#45;4100073484582843917 -->
<g id="edge4" class="edge">
<title>&#45;2648783404548145954&#45;&gt;&#45;4100073484582843917</title>
<path fill="none" stroke="#000000" stroke-width="1.2" d="M258.09,-970.46C278.22,-973.01 378.29,-985.71 437.96,-993.28"/>
<polygon fill="#000000" stroke="#000000" stroke-width="1.2" points="437.52,-996.76 447.88,-994.54 438.4,-989.81 437.52,-996.76"/>
<text text-anchor="middle" x="304.5" y="-983.8" font-family="Times,serif" font-size="14.00"> o1 </text>
</g>
<!-- 3879415128592777984 -->
<g id="node7" class="node">
<title>3879415128592777984</title>
<path fill="#f8f9fa" stroke="#333333" stroke-width="1.2" d="M1195,-968C1195,-968 1147,-968 1147,-968 1141,-968 1135,-962 1135,-956 1135,-956 1135,-944 1135,-944 1135,-938 1141,-932 1147,-932 1147,-932 1195,-932 1195,-932 1201,-932 1207,-938 1207,-944 1207,-944 1207,-956 1207,-956 1207,-962 1201,-968 1195,-968"/>
<text text-anchor="start" x="1143" y="-946.3" font-family="Times,serif" font-size="14.00">S1,A0,3,0</text>
</g>
<!-- 3427234959700495584&#45;&gt;3879415128592777984 -->
<g id="edge5" class="edge">
<title>3427234959700495584&#45;&gt;3879415128592777984</title>
<path fill="none" stroke="#000000" stroke-width="1.2" d="M996.7,-899.09C1012.98,-903.87 1079.5,-923.41 1125.22,-936.85"/>
<polygon fill="#000000" stroke="#000000" stroke-width="1.2" points="1124.34,-940.23 1134.92,-939.7 1126.32,-933.52 1124.34,-940.23"/>
<text text-anchor="middle" x="1088.5" y="-935.8" font-family="Times,serif" font-size="14.00"> empty </text>
</g>
<!-- &#45;3156544930557321637 -->
<g id="node8" class="node">
<title>&#45;3156544930557321637</title>
<path fill="#f8f9fa" stroke="#333333" stroke-width="1.2" d="M1195,-903C1195,-903 1147,-903 1147,-903 1141,-903 1135,-897 1135,-891 1135,-891 1135,-879 1135,-879 1135,-873 1141,-867 1147,-867 1147,-867 1195,-867 1195,-867 1201,-867 1207,-873 1207,-879 1207,-879 1207,-891 1207,-891 1207,-897 1201,-903 1195,-903"/>
<text text-anchor="start" x="1143" y="-881.3" font-family="Times,serif" font-size="14.00">S7,A0,3,1</text>
</g>
<!-- 3427234959700495584&#45;&gt;&#45;3156544930557321637 -->
<g id="edge6" class="edge">
<title>3427234959700495584&#45;&gt;&#45;3156544930557321637</title>
<path fill="none" stroke="#000000" stroke-width="1.2" d="M996.69,-897.6C1007.49,-896.45 1039.98,-893.06 1067,-891 1085.81,-889.56 1106.58,-888.29 1124.51,-887.3"/>
<polygon fill="#000000" stroke="#000000" stroke-width="1.2" points="1124.91,-890.78 1134.7,-886.74 1124.53,-883.79 1124.91,-890.78"/>
<text text-anchor="middle" x="1088.5" y="-894.8" font-family="Times,serif" font-size="14.00"> o3 </text>
</g>
<!-- 3139680162401169176 -->
<g id="node9" class="node">
<title>3139680162401169176</title>
<path fill="#f8f9fa" stroke="#333333" stroke-width="1.2" d="M1195,-838C1195,-838 1147,-838 1147,-838 1141,-838 1135,-832 1135,-826 1135,-826 1135,-814 1135,-814 1135,-808 1141,-802 1147,-802 1147,-802 1195,-802 1195,-802 1201,-802 1207,-808 1207,-814 1207,-814 1207,-826 1207,-826 1207,-832 1201,-838 1195,-838"/>
<text text-anchor="start" x="1143" y="-816.3" font-family="Times,serif" font-size="14.00">S8,A0,3,2</text>
</g>
<!-- 3427234959700495584&#45;&gt;3139680162401169176 -->
<g id="edge7" class="edge">
<title>3427234959700495584&#45;&gt;3139680162401169176</title>
<path fill="none" stroke="#000000" stroke-width="1.2" d="M996.38,-896.51C1012.12,-889.58 1079.44,-859.91 1125.47,-839.62"/>
<polygon fill="#000000" stroke="#000000" stroke-width="1.2" points="1126.92,-842.81 1134.66,-835.57 1124.1,-836.4 1126.92,-842.81"/>
<text text-anchor="middle" x="1088.5" y="-867.8" font-family="Times,serif" font-size="14.00"> o2 </text>
</g>
<!-- &#45;2003569108878586067 -->
<g id="node10" class="node">
<title>&#45;2003569108878586067</title>
<path fill="#f8f9fa" stroke="#333333" stroke-width="1.2" d="M411,-776C411,-776 363,-776 363,-776 357,-776 351,-770 351,-764 351,-764 351,-752 351,-752 351,-746 357,-740 363,-740 363,-740 411,-740 411,-740 417,-740 423,-746 423,-752 423,-752 423,-764 423,-764 423,-770 417,-776 411,-776"/>
<text text-anchor="start" x="359" y="-754.3" font-family="Times,serif" font-size="14.00">S1,A6,7,0</text>
</g>
<!-- &#45;4591854248342968040&#45;&gt;&#45;2003569108878586067 -->
<g id="edge8" class="edge">
<title>&#45;4591854248342968040&#45;&gt;&#45;2003569108878586067</title>
<path fill="none" stroke="#000000" stroke-width="1.2" d="M257.64,-784.69C262.7,-781.1 273.08,-774.27 283,-771 301.4,-764.93 322.51,-761.67 340.81,-759.92"/>
<polygon fill="#000000" stroke="#000000" stroke-width="1.2" points="341.26,-763.4 350.93,-759.08 340.68,-756.42 341.26,-763.4"/>
<text text-anchor="middle" x="304.5" y="-774.8" font-family="Times,serif" font-size="14.00"> empty </text>
</g>
<!-- &#45;9039529168028685688 -->
<g id="node11" class="node">
<title>&#45;9039529168028685688</title>
<path fill="#f8f9fa" stroke="#333333" stroke-width="1.2" d="M411,-845C411,-845 363,-845 363,-845 357,-845 351,-839 351,-833 351,-833 351,-821 351,-821 351,-815 357,-809 363,-809 363,-809 411,-809 411,-809 417,-809 423,-815 423,-821 423,-821 423,-833 423,-833 423,-839 417,-845 411,-845"/>
<text text-anchor="start" x="359" y="-823.3" font-family="Times,serif" font-size="14.00">S7,A6,7,1</text>
</g>
<!-- &#45;4591854248342968040&#45;&gt;&#45;9039529168028685688 -->
<g id="edge9" class="edge">
<title>&#45;4591854248342968040&#45;&gt;&#45;9039529168028685688</title>
<path fill="none" stroke="#000000" stroke-width="1.2" d="M258.02,-788.07C269.83,-791.66 309.1,-803.61 341.06,-813.33"/>
<polygon fill="#000000" stroke="#000000" stroke-width="1.2" points="340.12,-816.7 350.71,-816.26 342.16,-810.01 340.12,-816.7"/>
<text text-anchor="middle" x="304.5" y="-812.8" font-family="Times,serif" font-size="14.00"> o3 </text>
</g>
<!-- 9173928121495732602 -->
<g id="node12" class="node">
<title>9173928121495732602</title>
<path fill="#f8f9fa" stroke="#333333" stroke-width="1.2" d="M411,-584C411,-584 363,-584 363,-584 357,-584 351,-578 351,-572 351,-572 351,-560 351,-560 351,-554 357,-548 363,-548 363,-548 411,-548 411,-548 417,-548 423,-554 423,-560 423,-560 423,-572 423,-572 423,-578 417,-584 411,-584"/>
<text text-anchor="start" x="359" y="-562.3" font-family="Times,serif" font-size="14.00">S8,A6,7,2</text>
</g>
<!-- &#45;4591854248342968040&#45;&gt;9173928121495732602 -->
<g id="edge10" class="edge">
<title>&#45;4591854248342968040&#45;&gt;9173928121495732602</title>
<path fill="none" stroke="#000000" stroke-width="1.2" d="M256.57,-783.53C269.36,-762.03 338.26,-646.23 369.99,-592.91"/>
<polygon fill="#000000" stroke="#000000" stroke-width="1.2" points="373.18,-594.39 375.28,-584.01 367.16,-590.81 373.18,-594.39"/>
<text text-anchor="middle" x="304.5" y="-737.8" font-family="Times,serif" font-size="14.00"> o2 </text>
</g>
<!-- &#45;4100073484582843917&#45;&gt;ellipsis -->
<g id="edge11" class="edge">
<title>&#45;4100073484582843917&#45;&gt;ellipsis</title>
<path fill="none" stroke="#64748b" stroke-width="1.5" stroke-dasharray="1,5" d="M520.04,-1004.29C546.92,-1007.89 584.97,-1012 618.5,-1012 618.5,-1012 618.5,-1012 1172,-1012 1290.71,-1012 1319.71,-819.02 1326.24,-751.22"/>
<polygon fill="none" stroke="#64748b" stroke-width="1.5" points="1329.06,-751.09 1326.99,-742.87 1323.48,-750.59 1329.06,-751.09"/>
</g>
<!-- 3879415128592777984&#45;&gt;ellipsis -->
<g id="edge12" class="edge">
<title>3879415128592777984&#45;&gt;ellipsis</title>
<path fill="none" stroke="#64748b" stroke-width="1.5" stroke-dasharray="1,5" d="M1192.84,-931.95C1197.72,-927.3 1202.74,-922.14 1207,-917 1253.43,-860.99 1296.5,-786.14 1316.41,-749.73"/>
<polygon fill="none" stroke="#64748b" stroke-width="1.5" points="1318.95,-750.93 1320.3,-742.56 1314.02,-748.26 1318.95,-750.93"/>
</g>
<!-- &#45;3156544930557321637&#45;&gt;ellipsis -->
<g id="edge13" class="edge">
<title>&#45;3156544930557321637&#45;&gt;ellipsis</title>
<path fill="none" stroke="#64748b" stroke-width="1.5" stroke-dasharray="1,5" d="M1192.66,-866.72C1209.52,-851.6 1233.76,-829.39 1254,-809 1273.67,-789.19 1295.07,-765.52 1309.77,-748.9"/>
<polygon fill="none" stroke="#64748b" stroke-width="1.5" points="1312.06,-750.53 1315.25,-742.67 1307.86,-746.83 1312.06,-750.53"/>
</g>
<!-- 3139680162401169176&#45;&gt;ellipsis -->
<g id="edge14" class="edge">
<title>3139680162401169176&#45;&gt;ellipsis</title>
<path fill="none" stroke="#64748b" stroke-width="1.5" stroke-dasharray="1,5" d="M1207.35,-804.26C1222.06,-797.33 1239.13,-788.78 1254,-780 1270.73,-770.12 1288.58,-757.64 1302.56,-747.39"/>
<polygon fill="none" stroke="#64748b" stroke-width="1.5" points="1304.32,-749.56 1309.08,-742.55 1300.99,-745.06 1304.32,-749.56"/>
</g>
<!-- &#45;2003569108878586067&#45;&gt;ellipsis -->
<g id="edge16" class="edge">
<title>&#45;2003569108878586067&#45;&gt;ellipsis</title>
<path fill="none" stroke="#64748b" stroke-width="1.5" stroke-dasharray="1,5" d="M423.16,-758C457.54,-758 511.37,-758 558,-758 558,-758 558,-758 1172,-758 1217.06,-758 1268.16,-745.78 1299.22,-736.94"/>
<polygon fill="none" stroke="#64748b" stroke-width="1.5" points="1300.15,-739.58 1307.05,-734.66 1298.59,-734.2 1300.15,-739.58"/>
</g>
<!-- &#45;6250902378268755662 -->
<g id="node13" class="node">
<title>&#45;6250902378268755662</title>
<ellipse fill="#0f172a" stroke="black" cx="559" cy="-365" rx="4.5" ry="4.5"/>
</g>
<!-- &#45;2003569108878586067&#45;&gt;&#45;6250902378268755662 -->
<g id="edge15" class="edge">
<title>&#45;2003569108878586067&#45;&gt;&#45;6250902378268755662</title>
<path fill="none" stroke="#000000" stroke-width="1.2" d="M392.04,-739.77C398.6,-710.09 411.97,-649.44 423,-598 434.33,-545.16 422.69,-526.75 448,-479 473.02,-431.79 523.4,-390.59 546.25,-373.46"/>
<polygon fill="#000000" stroke="#000000" stroke-width="1.2" points="548.61,-376.07 554.63,-367.35 544.49,-370.42 548.61,-376.07"/>
<text text-anchor="middle" x="484" y="-482.8" font-family="Times,serif" font-size="14.00"> o3 </text>
</g>
<!-- 107350029616595672 -->
<g id="node14" class="node">
<title>107350029616595672</title>
<ellipse fill="#0f172a" stroke="black" cx="782" cy="-807" rx="4.5" ry="4.5"/>
</g>
<!-- &#45;9039529168028685688&#45;&gt;107350029616595672 -->
<g id="edge17" class="edge">
<title>&#45;9039529168028685688&#45;&gt;107350029616595672</title>
<path fill="none" stroke="#000000" stroke-width="1.2" d="M423.22,-825.21C506.25,-820.98 711.39,-810.54 766.94,-807.72"/>
<polygon fill="#000000" stroke="#000000" stroke-width="1.2" points="767.46,-811.19 777.27,-807.19 767.11,-804.2 767.46,-811.19"/>
<text text-anchor="middle" x="559" y="-822.8" font-family="Times,serif" font-size="14.00"> uo1 </text>
</g>
<!-- &#45;5561907778116898023 -->
<g id="node15" class="node">
<title>&#45;5561907778116898023</title>
<ellipse fill="#0f172a" stroke="black" cx="559" cy="-501" rx="4.5" ry="4.5"/>
</g>
<!-- 9173928121495732602&#45;&gt;&#45;5561907778116898023 -->
<g id="edge18" class="edge">
<title>9173928121495732602&#45;&gt;&#45;5561907778116898023</title>
<path fill="none" stroke="#000000" stroke-width="1.2" d="M403.98,-547.84C415.12,-536.43 430.99,-522.51 448,-515 480.24,-500.77 522.61,-499.73 544.15,-500.3"/>
<polygon fill="#000000" stroke="#000000" stroke-width="1.2" points="544.24,-503.8 554.38,-500.74 544.54,-496.81 544.24,-503.8"/>
<text text-anchor="middle" x="484" y="-518.8" font-family="Times,serif" font-size="14.00"> o3 </text>
</g>
<!-- 320546711210039426 -->
<g id="node16" class="node">
<title>320546711210039426</title>
<ellipse fill="#0f172a" stroke="black" cx="619.5" cy="-566" rx="4.5" ry="4.5"/>
</g>
<!-- 9173928121495732602&#45;&gt;320546711210039426 -->
<g id="edge19" class="edge">
<title>9173928121495732602&#45;&gt;320546711210039426</title>
<path fill="none" stroke="#000000" stroke-width="1.2" d="M423.01,-566C474.83,-566 569.62,-566 604.84,-566"/>
<polygon fill="#000000" stroke="#000000" stroke-width="1.2" points="604.94,-569.5 614.94,-566 604.94,-562.5 604.94,-569.5"/>
<text text-anchor="middle" x="484" y="-569.8" font-family="Times,serif" font-size="14.00"> uo1 </text>
</g>
<!-- 3479129839616438110 -->
<g id="node17" class="node">
<title>3479129839616438110</title>
<path fill="#f8f9fa" stroke="#333333" stroke-width="1.2" d="M728.5,-347C728.5,-347 680.5,-347 680.5,-347 674.5,-347 668.5,-341 668.5,-335 668.5,-335 668.5,-323 668.5,-323 668.5,-317 674.5,-311 680.5,-311 680.5,-311 728.5,-311 728.5,-311 734.5,-311 740.5,-317 740.5,-323 740.5,-323 740.5,-335 740.5,-335 740.5,-341 734.5,-347 728.5,-347"/>
<text text-anchor="start" x="676.5" y="-325.3" font-family="Times,serif" font-size="14.00">S1,A3,8,0</text>
</g>
<!-- &#45;6250902378268755662&#45;&gt;3479129839616438110 -->
<g id="edge20" class="edge">
<title>&#45;6250902378268755662&#45;&gt;3479129839616438110</title>
<path fill="none" stroke="#000000" stroke-width="1.2" d="M563.53,-363.78C570.21,-361.49 585.18,-356.48 598,-353 617.67,-347.67 639.62,-342.54 658.38,-338.41"/>
<polygon fill="#000000" stroke="#000000" stroke-width="1.2" points="659.13,-341.83 668.15,-336.28 657.64,-334.99 659.13,-341.83"/>
<text text-anchor="middle" x="619.5" y="-356.8" font-family="Times,serif" font-size="14.00"> empty </text>
</g>
<!-- 4869910244296368477 -->
<g id="node18" class="node">
<title>4869910244296368477</title>
<path fill="#f8f9fa" stroke="#333333" stroke-width="1.2" d="M728.5,-229C728.5,-229 680.5,-229 680.5,-229 674.5,-229 668.5,-223 668.5,-217 668.5,-217 668.5,-205 668.5,-205 668.5,-199 674.5,-193 680.5,-193 680.5,-193 728.5,-193 728.5,-193 734.5,-193 740.5,-199 740.5,-205 740.5,-205 740.5,-217 740.5,-217 740.5,-223 734.5,-229 728.5,-229"/>
<text text-anchor="start" x="676.5" y="-207.3" font-family="Times,serif" font-size="14.00">S7,A3,8,1</text>
</g>
<!-- &#45;6250902378268755662&#45;&gt;4869910244296368477 -->
<g id="edge21" class="edge">
<title>&#45;6250902378268755662&#45;&gt;4869910244296368477</title>
<path fill="none" stroke="#000000" stroke-width="1.2" d="M562.71,-361.75C568.86,-354.39 584.41,-335.93 598,-321 624.93,-291.42 656.84,-258.41 678.46,-236.35"/>
<polygon fill="#000000" stroke="#000000" stroke-width="1.2" points="681.15,-238.61 685.66,-229.02 676.15,-233.7 681.15,-238.61"/>
<text text-anchor="middle" x="619.5" y="-324.8" font-family="Times,serif" font-size="14.00"> o3 </text>
</g>
<!-- 608240379265573291 -->
<g id="node19" class="node">
<title>608240379265573291</title>
<path fill="#f8f9fa" stroke="#333333" stroke-width="1.2" d="M728.5,-417C728.5,-417 680.5,-417 680.5,-417 674.5,-417 668.5,-411 668.5,-405 668.5,-405 668.5,-393 668.5,-393 668.5,-387 674.5,-381 680.5,-381 680.5,-381 728.5,-381 728.5,-381 734.5,-381 740.5,-387 740.5,-393 740.5,-393 740.5,-405 740.5,-405 740.5,-411 734.5,-417 728.5,-417"/>
<text text-anchor="start" x="676.5" y="-395.3" font-family="Times,serif" font-size="14.00">S8,A3,8,2</text>
</g>
<!-- &#45;6250902378268755662&#45;&gt;608240379265573291 -->
<g id="edge22" class="edge">
<title>&#45;6250902378268755662&#45;&gt;608240379265573291</title>
<path fill="none" stroke="#000000" stroke-width="1.2" d="M563.55,-365.84C576.57,-368.93 622.82,-379.88 658.63,-388.37"/>
<polygon fill="#000000" stroke="#000000" stroke-width="1.2" points="657.88,-391.79 668.42,-390.69 659.5,-384.98 657.88,-391.79"/>
<text text-anchor="middle" x="619.5" y="-388.8" font-family="Times,serif" font-size="14.00"> o2 </text>
</g>
<!-- 5683364805433933572 -->
<g id="node20" class="node">
<title>5683364805433933572</title>
<path fill="#f8f9fa" stroke="#333333" stroke-width="1.2" d="M1016,-698C1016,-698 968,-698 968,-698 962,-698 956,-692 956,-686 956,-686 956,-674 956,-674 956,-668 962,-662 968,-662 968,-662 1016,-662 1016,-662 1022,-662 1028,-668 1028,-674 1028,-674 1028,-686 1028,-686 1028,-692 1022,-698 1016,-698"/>
<text text-anchor="start" x="964" y="-676.3" font-family="Times,serif" font-size="14.00">S7,A6,4,1</text>
</g>
<!-- 107350029616595672&#45;&gt;5683364805433933572 -->
<g id="edge23" class="edge">
<title>107350029616595672&#45;&gt;5683364805433933572</title>
<path fill="none" stroke="#000000" stroke-width="1.2" d="M786.27,-805.01C804.92,-793.62 899,-736.17 952.91,-703.26"/>
<polygon fill="#000000" stroke="#000000" stroke-width="1.2" points="954.81,-706.2 961.52,-698 951.16,-700.23 954.81,-706.2"/>
<text text-anchor="middle" x="835" y="-785.8" font-family="Times,serif" font-size="14.00"> uo1 </text>
</g>
<!-- &#45;5561907778116898023&#45;&gt;608240379265573291 -->
<g id="edge24" class="edge">
<title>&#45;5561907778116898023&#45;&gt;608240379265573291</title>
<path fill="none" stroke="#000000" stroke-width="1.2" d="M563,-498.87C576.49,-489.28 632.51,-449.46 669.61,-423.09"/>
<polygon fill="#000000" stroke="#000000" stroke-width="1.2" points="672.02,-425.67 678.14,-417.03 667.96,-419.97 672.02,-425.67"/>
<text text-anchor="middle" x="619.5" y="-477.8" font-family="Times,serif" font-size="14.00"> empty </text>
</g>
<!-- 600670565688526887 -->
<g id="node21" class="node">
<title>600670565688526887</title>
<path fill="#ffe4e6" stroke="#9f1239" stroke-width="2.5" d="M731,-519C731,-519 678,-519 678,-519 672,-519 666,-513 666,-507 666,-507 666,-495 666,-495 666,-489 672,-483 678,-483 678,-483 731,-483 731,-483 737,-483 743,-489 743,-495 743,-495 743,-507 743,-507 743,-513 737,-519 731,-519"/>
<text text-anchor="start" x="674" y="-497.3" font-family="Times,serif" font-size="14.00">AX,A3,8,2</text>
</g>
<!-- &#45;5561907778116898023&#45;&gt;600670565688526887 -->
<g id="edge25" class="edge">
<title>&#45;5561907778116898023&#45;&gt;600670565688526887</title>
<path fill="none" stroke="#000000" stroke-width="1.2" d="M563.55,-501C576.2,-501 620.22,-501 655.55,-501"/>
<polygon fill="#000000" stroke="#000000" stroke-width="1.2" points="655.73,-504.5 665.73,-501 655.73,-497.5 655.73,-504.5"/>
<text text-anchor="middle" x="619.5" y="-504.8" font-family="Times,serif" font-size="14.00"> o3 </text>
</g>
<!-- 5450078021248800246 -->
<g id="node22" class="node">
<title>5450078021248800246</title>
<path fill="#f8f9fa" stroke="#333333" stroke-width="1.2" d="M1016,-557C1016,-557 968,-557 968,-557 962,-557 956,-551 956,-545 956,-545 956,-533 956,-533 956,-527 962,-521 968,-521 968,-521 1016,-521 1016,-521 1022,-521 1028,-527 1028,-533 1028,-533 1028,-545 1028,-545 1028,-551 1022,-557 1016,-557"/>
<text text-anchor="start" x="964" y="-535.3" font-family="Times,serif" font-size="14.00">S8,A6,4,2</text>
</g>
<!-- 320546711210039426&#45;&gt;5450078021248800246 -->
<g id="edge26" class="edge">
<title>320546711210039426&#45;&gt;5450078021248800246</title>
<path fill="none" stroke="#000000" stroke-width="1.2" d="M624.03,-565.83C648.6,-564.65 796.74,-557.35 917,-547 926.27,-546.2 936.17,-545.22 945.62,-544.22"/>
<polygon fill="#000000" stroke="#000000" stroke-width="1.2" points="946.08,-547.69 955.65,-543.14 945.33,-540.73 946.08,-547.69"/>
<text text-anchor="middle" x="782" y="-561.8" font-family="Times,serif" font-size="14.00"> uo1 </text>
</g>
<!-- 2818143240912019188 -->
<g id="node23" class="node">
<title>2818143240912019188</title>
<ellipse fill="#0f172a" stroke="black" cx="835" cy="-242" rx="4.5" ry="4.5"/>
</g>
<!-- 3479129839616438110&#45;&gt;2818143240912019188 -->
<g id="edge27" class="edge">
<title>3479129839616438110&#45;&gt;2818143240912019188</title>
<path fill="none" stroke="#000000" stroke-width="1.2" d="M725.87,-310.76C737.74,-300.55 753.24,-287.92 768,-278 785.77,-266.05 807.87,-254.63 821.45,-247.97"/>
<polygon fill="#000000" stroke="#000000" stroke-width="1.2" points="823.08,-251.07 830.58,-243.59 820.05,-244.76 823.08,-251.07"/>
<text text-anchor="middle" x="782" y="-281.8" font-family="Times,serif" font-size="14.00"> o2 </text>
</g>
<!-- &#45;1084588810958682763 -->
<g id="node24" class="node">
<title>&#45;1084588810958682763</title>
<ellipse fill="#0f172a" stroke="black" cx="835" cy="-517" rx="4.5" ry="4.5"/>
</g>
<!-- 3479129839616438110&#45;&gt;&#45;1084588810958682763 -->
<g id="edge28" class="edge">
<title>3479129839616438110&#45;&gt;&#45;1084588810958682763</title>
<path fill="none" stroke="#000000" stroke-width="1.2" d="M740.78,-329.9C759.6,-332.25 781.75,-338.29 796,-353 801.31,-358.48 823.26,-464.21 831.15,-502.94"/>
<polygon fill="#000000" stroke="#000000" stroke-width="1.2" points="827.73,-503.68 833.15,-512.79 834.59,-502.29 827.73,-503.68"/>
<text text-anchor="middle" x="782" y="-356.8" font-family="Times,serif" font-size="14.00"> o3 </text>
</g>
<!-- &#45;1084120604916557252 -->
<g id="node25" class="node">
<title>&#45;1084120604916557252</title>
<ellipse fill="#0f172a" stroke="black" cx="835" cy="-108" rx="4.5" ry="4.5"/>
</g>
<!-- 4869910244296368477&#45;&gt;&#45;1084120604916557252 -->
<g id="edge29" class="edge">
<title>4869910244296368477&#45;&gt;&#45;1084120604916557252</title>
<path fill="none" stroke="#000000" stroke-width="1.2" d="M728.18,-192.82C756.04,-170.49 802.19,-133.5 823.1,-116.73"/>
<polygon fill="#000000" stroke="#000000" stroke-width="1.2" points="825.35,-119.42 830.97,-110.43 820.97,-113.96 825.35,-119.42"/>
<text text-anchor="middle" x="782" y="-163.8" font-family="Times,serif" font-size="14.00"> o2 </text>
</g>
<!-- 489491633274681862 -->
<g id="node26" class="node">
<title>489491633274681862</title>
<ellipse fill="#0f172a" stroke="black" cx="835" cy="-427" rx="4.5" ry="4.5"/>
</g>
<!-- 608240379265573291&#45;&gt;489491633274681862 -->
<g id="edge30" class="edge">
<title>608240379265573291&#45;&gt;489491633274681862</title>
<path fill="none" stroke="#000000" stroke-width="1.2" d="M740.61,-406.65C766.95,-412.39 801.56,-419.93 820.38,-424.03"/>
<polygon fill="#000000" stroke="#000000" stroke-width="1.2" points="819.71,-427.47 830.22,-426.18 821.2,-420.63 819.71,-427.47"/>
<text text-anchor="middle" x="782" y="-421.8" font-family="Times,serif" font-size="14.00"> o2 </text>
</g>
<!-- &#45;884992198544870906 -->
<g id="node27" class="node">
<title>&#45;884992198544870906</title>
<ellipse fill="#0f172a" stroke="black" cx="835" cy="-377" rx="4.5" ry="4.5"/>
</g>
<!-- 608240379265573291&#45;&gt;&#45;884992198544870906 -->
<g id="edge31" class="edge">
<title>608240379265573291&#45;&gt;&#45;884992198544870906</title>
<path fill="none" stroke="#000000" stroke-width="1.2" d="M740.59,-383.63C749.38,-380.48 758.89,-377.62 768,-376 780.25,-373.82 783.56,-375.84 796,-376 804.02,-376.11 812.98,-376.34 820.19,-376.55"/>
<polygon fill="#000000" stroke="#000000" stroke-width="1.2" points="820.33,-380.06 830.44,-376.88 820.55,-373.06 820.33,-380.06"/>
<text text-anchor="middle" x="782" y="-379.8" font-family="Times,serif" font-size="14.00"> o3 </text>
</g>
<!-- 5683364805433933572&#45;&gt;ellipsis -->
<g id="edge33" class="edge">
<title>5683364805433933572&#45;&gt;ellipsis</title>
<path fill="none" stroke="#64748b" stroke-width="1.5" stroke-dasharray="1,5" d="M1028.22,-685.05C1094.8,-694.59 1237.95,-715.1 1299.22,-723.88"/>
<polygon fill="none" stroke="#64748b" stroke-width="1.5" points="1298.99,-726.67 1307.3,-725.03 1299.78,-721.13 1298.99,-726.67"/>
</g>
<!-- 7413219420782525608 -->
<g id="node28" class="node">
<title>7413219420782525608</title>
<ellipse fill="#0f172a" stroke="black" cx="1171" cy="-650" rx="4.5" ry="4.5"/>
</g>
<!-- 5683364805433933572&#45;&gt;7413219420782525608 -->
<g id="edge32" class="edge">
<title>5683364805433933572&#45;&gt;7413219420782525608</title>
<path fill="none" stroke="#000000" stroke-width="1.2" d="M1028.19,-670.51C1040.41,-667.46 1054.25,-664.29 1067,-662 1098.69,-656.32 1136.37,-652.72 1156.2,-651.07"/>
<polygon fill="#000000" stroke="#000000" stroke-width="1.2" points="1156.73,-654.54 1166.42,-650.26 1156.17,-647.56 1156.73,-654.54"/>
<text text-anchor="middle" x="1088.5" y="-665.8" font-family="Times,serif" font-size="14.00"> o2 </text>
</g>
<!-- &#45;7724048112027719633 -->
<g id="node29" class="node">
<title>&#45;7724048112027719633</title>
<ellipse fill="#0f172a" stroke="black" cx="1171" cy="-539" rx="4.5" ry="4.5"/>
</g>
<!-- 5450078021248800246&#45;&gt;&#45;7724048112027719633 -->
<g id="edge34" class="edge">
<title>5450078021248800246&#45;&gt;&#45;7724048112027719633</title>
<path fill="none" stroke="#000000" stroke-width="1.2" d="M1028.39,-539C1067.41,-539 1128.28,-539 1155.73,-539"/>
<polygon fill="#000000" stroke="#000000" stroke-width="1.2" points="1156.03,-542.5 1166.03,-539 1156.03,-535.5 1156.03,-542.5"/>
<text text-anchor="middle" x="1088.5" y="-542.8" font-family="Times,serif" font-size="14.00"> o2 </text>
</g>
<!-- 1853375932745654980 -->
<g id="node30" class="node">
<title>1853375932745654980</title>
<ellipse fill="#0f172a" stroke="black" cx="1171" cy="-382" rx="4.5" ry="4.5"/>
</g>
<!-- 5450078021248800246&#45;&gt;1853375932745654980 -->
<g id="edge35" class="edge">
<title>5450078021248800246&#45;&gt;1853375932745654980</title>
<path fill="none" stroke="#000000" stroke-width="1.2" d="M1022.29,-520.84C1028.98,-516.27 1035.91,-511.18 1042,-506 1087.99,-466.89 1089.55,-446.74 1135,-407 1142.25,-400.66 1151.08,-394.36 1158.06,-389.67"/>
<polygon fill="#000000" stroke="#000000" stroke-width="1.2" points="1160.09,-392.53 1166.56,-384.14 1156.27,-386.66 1160.09,-392.53"/>
<text text-anchor="middle" x="1088.5" y="-484.8" font-family="Times,serif" font-size="14.00"> o1 </text>
</g>
<!-- &#45;1138850995219694889 -->
<g id="node31" class="node">
<title>&#45;1138850995219694889</title>
<path fill="#dcfce7" stroke="#166534" stroke-width="2.5" d="M1016,-232C1016,-232 968,-232 968,-232 962,-232 956,-226 956,-220 956,-220 956,-208 956,-208 956,-202 962,-196 968,-196 968,-196 1016,-196 1016,-196 1022,-196 1028,-202 1028,-208 1028,-208 1028,-220 1028,-220 1028,-226 1022,-232 1016,-232"/>
<text text-anchor="start" x="964" y="-210.3" font-family="Times,serif" font-size="14.00">S1,A1,5,0</text>
</g>
<!-- 2818143240912019188&#45;&gt;&#45;1138850995219694889 -->
<g id="edge36" class="edge">
<title>2818143240912019188&#45;&gt;&#45;1138850995219694889</title>
<path fill="none" stroke="#000000" stroke-width="1.2" d="M839.48,-240.4C846.06,-237.45 860.88,-231.16 874,-228 897.35,-222.38 923.89,-218.97 945.79,-216.93"/>
<polygon fill="#000000" stroke="#000000" stroke-width="1.2" points="946.15,-220.41 955.81,-216.06 945.54,-213.44 946.15,-220.41"/>
<text text-anchor="middle" x="895.5" y="-231.8" font-family="Times,serif" font-size="14.00"> empty </text>
</g>
<!-- &#45;6794099879174621347 -->
<g id="node32" class="node">
<title>&#45;6794099879174621347</title>
<path fill="#dcfce7" stroke="#166534" stroke-width="2.5" d="M1016,-167C1016,-167 968,-167 968,-167 962,-167 956,-161 956,-155 956,-155 956,-143 956,-143 956,-137 962,-131 968,-131 968,-131 1016,-131 1016,-131 1022,-131 1028,-137 1028,-143 1028,-143 1028,-155 1028,-155 1028,-161 1022,-167 1016,-167"/>
<text text-anchor="start" x="964" y="-145.3" font-family="Times,serif" font-size="14.00">S7,A1,5,1</text>
</g>
<!-- 2818143240912019188&#45;&gt;&#45;6794099879174621347 -->
<g id="edge37" class="edge">
<title>2818143240912019188&#45;&gt;&#45;6794099879174621347</title>
<path fill="none" stroke="#000000" stroke-width="1.2" d="M838.34,-238.4C843.74,-230.35 857.85,-210.67 874,-199 895.86,-183.21 923.47,-171.11 946.38,-162.77"/>
<polygon fill="#000000" stroke="#000000" stroke-width="1.2" points="947.61,-166.05 955.88,-159.43 945.29,-159.45 947.61,-166.05"/>
<text text-anchor="middle" x="895.5" y="-202.8" font-family="Times,serif" font-size="14.00"> o3 </text>
</g>
<!-- 7390974329504135083 -->
<g id="node33" class="node">
<title>7390974329504135083</title>
<path fill="#dcfce7" stroke="#166534" stroke-width="2.5" d="M1016,-427C1016,-427 968,-427 968,-427 962,-427 956,-421 956,-415 956,-415 956,-403 956,-403 956,-397 962,-391 968,-391 968,-391 1016,-391 1016,-391 1022,-391 1028,-397 1028,-403 1028,-403 1028,-415 1028,-415 1028,-421 1022,-427 1016,-427"/>
<text text-anchor="start" x="964" y="-405.3" font-family="Times,serif" font-size="14.00">S8,A1,5,2</text>
</g>
<!-- 2818143240912019188&#45;&gt;7390974329504135083 -->
<g id="edge38" class="edge">
<title>2818143240912019188&#45;&gt;7390974329504135083</title>
<path fill="none" stroke="#000000" stroke-width="1.2" d="M838.23,-245.48C843.84,-254.16 859.16,-277.3 874,-295 891.57,-315.95 899.72,-317.81 917,-339 929.54,-354.38 927.96,-361.98 942,-376 945.15,-379.14 948.63,-382.17 952.25,-385.02"/>
<polygon fill="#000000" stroke="#000000" stroke-width="1.2" points="950.2,-387.85 960.32,-390.99 954.36,-382.23 950.2,-387.85"/>
<text text-anchor="middle" x="895.5" y="-342.8" font-family="Times,serif" font-size="14.00"> o2 </text>
</g>
<!-- &#45;1084588810958682763&#45;&gt;ellipsis -->
<g id="edge39" class="edge">
<title>&#45;1084588810958682763&#45;&gt;ellipsis</title>
<path fill="none" stroke="#64748b" stroke-width="1.5" stroke-dasharray="1,5" d="M838.82,-520.22C844.71,-526.76 859.03,-541.68 874,-550 901.65,-565.37 911.44,-562.83 942,-571 1058.67,-602.17 1097.65,-579.77 1207,-631 1247.34,-649.9 1286.07,-684.88 1308.43,-707.27"/>
<polygon fill="none" stroke="#64748b" stroke-width="1.5" points="1306.68,-709.49 1314.29,-713.23 1310.68,-705.56 1306.68,-709.49"/>
</g>
<!-- &#45;1084588810958682763&#45;&gt;5683364805433933572 -->
<g id="edge40" class="edge">
<title>&#45;1084588810958682763&#45;&gt;5683364805433933572</title>
<path fill="none" stroke="#000000" stroke-width="1.2" d="M836.47,-521.55C838.32,-537.27 846.4,-589.98 874,-621 893.22,-642.61 922.2,-657.3 946.51,-666.63"/>
<polygon fill="#000000" stroke="#000000" stroke-width="1.2" points="945.32,-669.92 955.91,-670.06 947.72,-663.34 945.32,-669.92"/>
<text text-anchor="middle" x="895.5" y="-656.8" font-family="Times,serif" font-size="14.00"> o3 </text>
</g>
<!-- &#45;1084588810958682763&#45;&gt;5450078021248800246 -->
<g id="edge41" class="edge">
<title>&#45;1084588810958682763&#45;&gt;5450078021248800246</title>
<path fill="none" stroke="#000000" stroke-width="1.2" d="M839.53,-517.5C853.54,-519.49 906.4,-526.99 945.75,-532.58"/>
<polygon fill="#000000" stroke="#000000" stroke-width="1.2" points="945.29,-536.05 955.69,-533.99 946.28,-529.12 945.29,-536.05"/>
<text text-anchor="middle" x="895.5" y="-531.8" font-family="Times,serif" font-size="14.00"> o2 </text>
</g>
<!-- &#45;1084120604916557252&#45;&gt;&#45;6794099879174621347 -->
<g id="edge42" class="edge">
<title>&#45;1084120604916557252&#45;&gt;&#45;6794099879174621347</title>
<path fill="none" stroke="#000000" stroke-width="1.2" d="M839.53,-108.93C853.57,-112.65 906.62,-126.68 946,-137.1"/>
<polygon fill="#000000" stroke="#000000" stroke-width="1.2" points="945.12,-140.49 955.69,-139.66 946.91,-133.72 945.12,-140.49"/>
<text text-anchor="middle" x="895.5" y="-132.8" font-family="Times,serif" font-size="14.00"> empty </text>
</g>
<!-- 6756505621933671808 -->
<g id="node34" class="node">
<title>6756505621933671808</title>
<path fill="#dcfce7" stroke="#166534" stroke-width="2.5" d="M1030,-101C1030,-101 954,-101 954,-101 948,-101 942,-95 942,-89 942,-89 942,-77 942,-77 942,-71 948,-65 954,-65 954,-65 1030,-65 1030,-65 1036,-65 1042,-71 1042,-77 1042,-77 1042,-89 1042,-89 1042,-95 1036,-101 1030,-101"/>
<text text-anchor="start" x="950" y="-79.3" font-family="Times,serif" font-size="14.00">AX,A1,5,z_det</text>
</g>
<!-- &#45;1084120604916557252&#45;&gt;6756505621933671808 -->
<g id="edge43" class="edge">
<title>&#45;1084120604916557252&#45;&gt;6756505621933671808</title>
<path fill="none" stroke="#000000" stroke-width="1.2" d="M838.79,-105.04C844.64,-99.09 858.89,-85.82 874,-81 892.21,-75.19 912.83,-73.92 931.64,-74.64"/>
<polygon fill="#000000" stroke="#000000" stroke-width="1.2" points="931.69,-78.15 941.88,-75.23 932.09,-71.16 931.69,-78.15"/>
<text text-anchor="middle" x="895.5" y="-84.8" font-family="Times,serif" font-size="14.00"> o3 </text>
</g>
<!-- 8861376930061260709 -->
<g id="node35" class="node">
<title>8861376930061260709</title>
<path fill="#dcfce7" stroke="#166534" stroke-width="2.5" d="M1016,-36C1016,-36 968,-36 968,-36 962,-36 956,-30 956,-24 956,-24 956,-12 956,-12 956,-6 962,0 968,0 968,0 1016,0 1016,0 1022,0 1028,-6 1028,-12 1028,-12 1028,-24 1028,-24 1028,-30 1022,-36 1016,-36"/>
<text text-anchor="start" x="964" y="-14.3" font-family="Times,serif" font-size="14.00">S4,A1,5,1</text>
</g>
<!-- &#45;1084120604916557252&#45;&gt;8861376930061260709 -->
<g id="edge44" class="edge">
<title>&#45;1084120604916557252&#45;&gt;8861376930061260709</title>
<path fill="none" stroke="#000000" stroke-width="1.2" d="M837.57,-104.13C841.84,-94.1 854.66,-67.06 874,-53 894.99,-37.75 922.65,-29.08 945.81,-24.18"/>
<polygon fill="#000000" stroke="#000000" stroke-width="1.2" points="946.61,-27.59 955.76,-22.25 945.27,-20.72 946.61,-27.59"/>
<text text-anchor="middle" x="895.5" y="-56.8" font-family="Times,serif" font-size="14.00"> o2 </text>
</g>
<!-- 489491633274681862&#45;&gt;7390974329504135083 -->
<g id="edge45" class="edge">
<title>489491633274681862&#45;&gt;7390974329504135083</title>
<path fill="none" stroke="#000000" stroke-width="1.2" d="M839.53,-426.59C853.54,-424.96 906.4,-418.82 945.75,-414.25"/>
<polygon fill="#000000" stroke="#000000" stroke-width="1.2" points="946.16,-417.73 955.69,-413.1 945.35,-410.78 946.16,-417.73"/>
<text text-anchor="middle" x="895.5" y="-426.8" font-family="Times,serif" font-size="14.00"> empty </text>
</g>
<!-- &#45;4017310269147606112 -->
<g id="node36" class="node">
<title>&#45;4017310269147606112</title>
<path fill="#dcfce7" stroke="#166534" stroke-width="2.5" d="M1018.5,-492C1018.5,-492 965.5,-492 965.5,-492 959.5,-492 953.5,-486 953.5,-480 953.5,-480 953.5,-468 953.5,-468 953.5,-462 959.5,-456 965.5,-456 965.5,-456 1018.5,-456 1018.5,-456 1024.5,-456 1030.5,-462 1030.5,-468 1030.5,-468 1030.5,-480 1030.5,-480 1030.5,-486 1024.5,-492 1018.5,-492"/>
<text text-anchor="start" x="961.5" y="-470.3" font-family="Times,serif" font-size="14.00">AX,A1,5,2</text>
</g>
<!-- 489491633274681862&#45;&gt;&#45;4017310269147606112 -->
<g id="edge46" class="edge">
<title>489491633274681862&#45;&gt;&#45;4017310269147606112</title>
<path fill="none" stroke="#000000" stroke-width="1.2" d="M839.51,-428.54C846.16,-431.41 861.08,-437.7 874,-442 896.6,-449.52 922.06,-456.65 943.45,-462.25"/>
<polygon fill="#000000" stroke="#000000" stroke-width="1.2" points="942.72,-465.68 953.28,-464.8 944.47,-458.9 942.72,-465.68"/>
<text text-anchor="middle" x="895.5" y="-458.8" font-family="Times,serif" font-size="14.00"> o3 </text>
</g>
<!-- 7469654765533856378 -->
<g id="node37" class="node">
<title>7469654765533856378</title>
<path fill="#f8f9fa" stroke="#333333" stroke-width="1.2" d="M1016,-362C1016,-362 968,-362 968,-362 962,-362 956,-356 956,-350 956,-350 956,-338 956,-338 956,-332 962,-326 968,-326 968,-326 1016,-326 1016,-326 1022,-326 1028,-332 1028,-338 1028,-338 1028,-350 1028,-350 1028,-356 1022,-362 1016,-362"/>
<text text-anchor="start" x="964" y="-340.3" font-family="Times,serif" font-size="14.00">S8,A4,4,2</text>
</g>
<!-- &#45;884992198544870906&#45;&gt;7469654765533856378 -->
<g id="edge47" class="edge">
<title>&#45;884992198544870906&#45;&gt;7469654765533856378</title>
<path fill="none" stroke="#000000" stroke-width="1.2" d="M839.53,-376.25C853.54,-373.27 906.4,-362.01 945.75,-353.63"/>
<polygon fill="#000000" stroke="#000000" stroke-width="1.2" points="946.63,-357.02 955.69,-351.52 945.18,-350.18 946.63,-357.02"/>
<text text-anchor="middle" x="895.5" y="-372.8" font-family="Times,serif" font-size="14.00"> empty </text>
</g>
<!-- 5652411399564541642 -->
<g id="node38" class="node">
<title>5652411399564541642</title>
<path fill="#ffe4e6" stroke="#9f1239" stroke-width="2.5" d="M1018.5,-297C1018.5,-297 965.5,-297 965.5,-297 959.5,-297 953.5,-291 953.5,-285 953.5,-285 953.5,-273 953.5,-273 953.5,-267 959.5,-261 965.5,-261 965.5,-261 1018.5,-261 1018.5,-261 1024.5,-261 1030.5,-267 1030.5,-273 1030.5,-273 1030.5,-285 1030.5,-285 1030.5,-291 1024.5,-297 1018.5,-297"/>
<text text-anchor="start" x="961.5" y="-275.3" font-family="Times,serif" font-size="14.00">AX,A4,4,2</text>
</g>
<!-- &#45;884992198544870906&#45;&gt;5652411399564541642 -->
<g id="edge48" class="edge">
<title>&#45;884992198544870906&#45;&gt;5652411399564541642</title>
<path fill="none" stroke="#000000" stroke-width="1.2" d="M836.06,-372.56C836.55,-356.34 840.67,-299.99 874,-277 893.88,-263.28 920.54,-262.74 943.38,-266.09"/>
<polygon fill="#000000" stroke="#000000" stroke-width="1.2" points="942.79,-269.54 953.24,-267.81 943.99,-262.65 942.79,-269.54"/>
<text text-anchor="middle" x="895.5" y="-280.8" font-family="Times,serif" font-size="14.00"> o3 </text>
</g>
<!-- 7413219420782525608&#45;&gt;ellipsis -->
<g id="edge49" class="edge">
<title>7413219420782525608&#45;&gt;ellipsis</title>
<path fill="none" stroke="#64748b" stroke-width="1.5" stroke-dasharray="1,5" d="M1175.53,-651.19C1187.07,-655.11 1224.64,-668.29 1254,-683 1269.91,-690.97 1286.93,-701.19 1300.63,-709.88"/>
<polygon fill="none" stroke="#64748b" stroke-width="1.5" points="1299.22,-712.3 1307.47,-714.26 1302.24,-707.59 1299.22,-712.3"/>
</g>
<!-- 9102071897019345472 -->
<g id="node39" class="node">
<title>9102071897019345472</title>
<path fill="#ffe4e6" stroke="#9f1239" stroke-width="2.5" d="M1367,-577C1367,-577 1291,-577 1291,-577 1285,-577 1279,-571 1279,-565 1279,-565 1279,-553 1279,-553 1279,-547 1285,-541 1291,-541 1291,-541 1367,-541 1367,-541 1373,-541 1379,-547 1379,-553 1379,-553 1379,-565 1379,-565 1379,-571 1373,-577 1367,-577"/>
<text text-anchor="start" x="1287" y="-555.3" font-family="Times,serif" font-size="14.00">AX,A5,1,z_det</text>
</g>
<!-- 7413219420782525608&#45;&gt;9102071897019345472 -->
<g id="edge50" class="edge">
<title>7413219420782525608&#45;&gt;9102071897019345472</title>
<path fill="none" stroke="#000000" stroke-width="1.2" d="M1175.26,-648.1C1189.58,-639.75 1247.99,-605.67 1288.28,-582.17"/>
<polygon fill="#000000" stroke="#000000" stroke-width="1.2" points="1290.21,-585.1 1297.09,-577.03 1286.68,-579.05 1290.21,-585.1"/>
<text text-anchor="middle" x="1243" y="-616.8" font-family="Times,serif" font-size="14.00"> o3 </text>
</g>
<!-- &#45;7724048112027719633&#45;&gt;ellipsis -->
<g id="edge51" class="edge">
<title>&#45;7724048112027719633&#45;&gt;ellipsis</title>
<path fill="none" stroke="#64748b" stroke-width="1.5" stroke-dasharray="1,5" d="M1175.09,-541.3C1186.5,-549.88 1226.94,-581.14 1254,-613 1279.38,-642.88 1302.81,-682.06 1316.24,-706.11"/>
<polygon fill="none" stroke="#64748b" stroke-width="1.5" points="1313.92,-707.71 1320.24,-713.36 1318.83,-705 1313.92,-707.71"/>
</g>
<!-- &#45;1671743994061932448 -->
<g id="node40" class="node">
<title>&#45;1671743994061932448</title>
<path fill="#ffe4e6" stroke="#9f1239" stroke-width="2.5" d="M1355.5,-477C1355.5,-477 1302.5,-477 1302.5,-477 1296.5,-477 1290.5,-471 1290.5,-465 1290.5,-465 1290.5,-453 1290.5,-453 1290.5,-447 1296.5,-441 1302.5,-441 1302.5,-441 1355.5,-441 1355.5,-441 1361.5,-441 1367.5,-447 1367.5,-453 1367.5,-453 1367.5,-465 1367.5,-465 1367.5,-471 1361.5,-477 1355.5,-477"/>
<text text-anchor="start" x="1298.5" y="-455.3" font-family="Times,serif" font-size="14.00">AX,A5,1,2</text>
</g>
<!-- &#45;7724048112027719633&#45;&gt;&#45;1671743994061932448 -->
<g id="edge52" class="edge">
<title>&#45;7724048112027719633&#45;&gt;&#45;1671743994061932448</title>
<path fill="none" stroke="#000000" stroke-width="1.2" d="M1175.25,-537.31C1184.26,-532.64 1210.31,-519.14 1232,-508 1248.7,-499.43 1267.05,-490.05 1283.2,-481.81"/>
<polygon fill="#000000" stroke="#000000" stroke-width="1.2" points="1285.1,-484.77 1292.42,-477.11 1281.92,-478.53 1285.1,-484.77"/>
<text text-anchor="middle" x="1243" y="-511.8" font-family="Times,serif" font-size="14.00"> o3 </text>
</g>
<!-- &#45;3943525256989983555 -->
<g id="node41" class="node">
<title>&#45;3943525256989983555</title>
<path fill="#ffe4e6" stroke="#9f1239" stroke-width="2.5" d="M1355.5,-395C1355.5,-395 1302.5,-395 1302.5,-395 1296.5,-395 1290.5,-389 1290.5,-383 1290.5,-383 1290.5,-371 1290.5,-371 1290.5,-365 1296.5,-359 1302.5,-359 1302.5,-359 1355.5,-359 1355.5,-359 1361.5,-359 1367.5,-365 1367.5,-371 1367.5,-371 1367.5,-383 1367.5,-383 1367.5,-389 1361.5,-395 1355.5,-395"/>
<text text-anchor="start" x="1298.5" y="-373.3" font-family="Times,serif" font-size="14.00">AX,A6,6,2</text>
</g>
<!-- 1853375932745654980&#45;&gt;&#45;3943525256989983555 -->
<g id="edge53" class="edge">
<title>1853375932745654980&#45;&gt;&#45;3943525256989983555</title>
<path fill="none" stroke="#000000" stroke-width="1.2" d="M1175.5,-381.45C1184.72,-380.02 1210.43,-376.25 1232,-375 1247.55,-374.1 1264.54,-374.12 1279.84,-374.51"/>
<polygon fill="#000000" stroke="#000000" stroke-width="1.2" points="1280.02,-378.02 1290.13,-374.84 1280.25,-371.02 1280.02,-378.02"/>
<text text-anchor="middle" x="1243" y="-378.8" font-family="Times,serif" font-size="14.00"> o1 </text>
</g>
<!-- &#45;587286447864513586 -->
<g id="node42" class="node">
<title>&#45;587286447864513586</title>
<ellipse fill="#0f172a" stroke="black" cx="1171" cy="-426" rx="4.5" ry="4.5"/>
</g>
<!-- 7469654765533856378&#45;&gt;&#45;587286447864513586 -->
<g id="edge54" class="edge">
<title>7469654765533856378&#45;&gt;&#45;587286447864513586</title>
<path fill="none" stroke="#000000" stroke-width="1.2" d="M1028.39,-360.4C1068.12,-378.8 1130.49,-407.69 1157.18,-420.06"/>
<polygon fill="#000000" stroke="#000000" stroke-width="1.2" points="1155.96,-423.35 1166.5,-424.38 1158.9,-417 1155.96,-423.35"/>
<text text-anchor="middle" x="1088.5" y="-401.8" font-family="Times,serif" font-size="14.00"> o2 </text>
</g>
<!-- 5529786155317912605 -->
<g id="node43" class="node">
<title>5529786155317912605</title>
<ellipse fill="#0f172a" stroke="black" cx="1171" cy="-325" rx="4.5" ry="4.5"/>
</g>
<!-- 7469654765533856378&#45;&gt;5529786155317912605 -->
<g id="edge55" class="edge">
<title>7469654765533856378&#45;&gt;5529786155317912605</title>
<path fill="none" stroke="#000000" stroke-width="1.2" d="M1028.39,-340.2C1067.76,-335.98 1129.37,-329.36 1156.46,-326.45"/>
<polygon fill="#000000" stroke="#000000" stroke-width="1.2" points="1156.93,-329.92 1166.5,-325.38 1156.18,-322.96 1156.93,-329.92"/>
<text text-anchor="middle" x="1088.5" y="-339.8" font-family="Times,serif" font-size="14.00"> o1 </text>
</g>
<!-- &#45;587286447864513586&#45;&gt;ellipsis -->
<g id="edge56" class="edge">
<title>&#45;587286447864513586&#45;&gt;ellipsis</title>
<path fill="none" stroke="#64748b" stroke-width="1.5" stroke-dasharray="1,5" d="M1173.97,-429.82C1188.85,-458.62 1283.77,-642.38 1316.74,-706.2"/>
<polygon fill="none" stroke="#64748b" stroke-width="1.5" points="1314.28,-707.55 1320.44,-713.37 1319.26,-704.98 1314.28,-707.55"/>
</g>
<!-- &#45;587286447864513586&#45;&gt;&#45;1671743994061932448 -->
<g id="edge57" class="edge">
<title>&#45;587286447864513586&#45;&gt;&#45;1671743994061932448</title>
<path fill="none" stroke="#000000" stroke-width="1.2" d="M1175.5,-425.32C1186.94,-423.21 1224.27,-417.32 1254,-424 1265.69,-426.63 1277.71,-431.32 1288.57,-436.43"/>
<polygon fill="#000000" stroke="#000000" stroke-width="1.2" points="1287.26,-439.69 1297.77,-440.99 1290.36,-433.42 1287.26,-439.69"/>
<text text-anchor="middle" x="1243" y="-427.8" font-family="Times,serif" font-size="14.00"> o3 </text>
</g>
<!-- 2868620743709475573 -->
<g id="node44" class="node">
<title>2868620743709475573</title>
<path fill="#ffe4e6" stroke="#9f1239" stroke-width="2.5" d="M1355.5,-330C1355.5,-330 1302.5,-330 1302.5,-330 1296.5,-330 1290.5,-324 1290.5,-318 1290.5,-318 1290.5,-306 1290.5,-306 1290.5,-300 1296.5,-294 1302.5,-294 1302.5,-294 1355.5,-294 1355.5,-294 1361.5,-294 1367.5,-300 1367.5,-306 1367.5,-306 1367.5,-318 1367.5,-318 1367.5,-324 1361.5,-330 1355.5,-330"/>
<text text-anchor="start" x="1298.5" y="-308.3" font-family="Times,serif" font-size="14.00">AX,A4,6,2</text>
</g>
<!-- 5529786155317912605&#45;&gt;2868620743709475573 -->
<g id="edge58" class="edge">
<title>5529786155317912605&#45;&gt;2868620743709475573</title>
<path fill="none" stroke="#000000" stroke-width="1.2" d="M1175.55,-324.7C1189.4,-323.55 1240.97,-319.25 1280.34,-315.97"/>
<polygon fill="#000000" stroke="#000000" stroke-width="1.2" points="1280.63,-319.46 1290.31,-315.14 1280.05,-312.48 1280.63,-319.46"/>
<text text-anchor="middle" x="1243" y="-323.8" font-family="Times,serif" font-size="14.00"> o1 </text>
</g>
<!-- start -->
<g id="node45" class="node">
<title>start</title>
</g>
<!-- start&#45;&gt;7661174995194480628 -->
<g id="edge59" class="edge">
<title>start&#45;&gt;7661174995194480628</title>
<path fill="none" stroke="black" stroke-width="1.5" d="M54.26,-904C66.32,-904 80.96,-904 94.71,-904"/>
<polygon fill="black" stroke="black" stroke-width="1.5" points="95,-907.5 105,-904 95,-900.5 95,-907.5"/>
</g>
</g>
</svg>
