<?xml version="1.0" encoding="UTF-8" standalone="no"?>
<!DOCTYPE svg PUBLIC "-//W3C//DTD SVG 1.1//EN"
 "http://www.w3.org/Graphics/SVG/1.1/DTD/svg11.dtd">
<!-- Generated by graphviz version 2.43.0 (0)
 -->
<!-- Title: %3 Pages: 1 -->
<svg width="988pt" height="1053pt"
 viewBox="0.00 0.00 987.50 1053.00" xmlns="http://www.w3.org/2000/svg" xmlns:xlink="http://www.w3.org/1999/xlink">
<g id="graph0" class="graph" transform="scale(1 1) rotate(0) translate(4 1049)">
<title>%3</title>
<polygon fill="white" stroke="transparent" points="-4,4 -4,-1049 983.5,-1049 983.5,4 -4,4"/>
<g id="clust1" class="cluster">
<title>cluster_legend</title>
<path fill="none" stroke="lightgrey" d="M522.5,-967C522.5,-967 682.5,-967 682.5,-967 688.5,-967 694.5,-973 694.5,-979 694.5,-979 694.5,-1025 694.5,-1025 694.5,-1031 688.5,-1037 682.5,-1037 682.5,-1037 522.5,-1037 522.5,-1037 516.5,-1037 510.5,-1031 510.5,-1025 510.5,-1025 510.5,-979 510.5,-979 510.5,-973 516.5,-967 522.5,-967"/>
</g>
<!-- 0x46ac07f4 -->
<g id="node1" class="node">
<title>0x46ac07f4</title>
<text text-anchor="start" x="449" y="-1012.4" font-family="Times,serif" font-weight="bold" font-size="12.00">ye0</text>
<path fill="#f8f9fa" stroke="transparent" d="M427.83,-983C427.83,-983 488.17,-983 488.17,-983 492.33,-983 496.5,-987.17 496.5,-991.33 496.5,-991.33 496.5,-999.67 496.5,-999.67 496.5,-1003.83 492.33,-1008 488.17,-1008 488.17,-1008 427.83,-1008 427.83,-1008 423.67,-1008 419.5,-1003.83 419.5,-999.67 419.5,-999.67 419.5,-991.33 419.5,-991.33 419.5,-987.17 423.67,-983 427.83,-983"/>
<path fill="none" stroke="#333333" d="M427.83,-983C427.83,-983 488.17,-983 488.17,-983 492.33,-983 496.5,-987.17 496.5,-991.33 496.5,-991.33 496.5,-999.67 496.5,-999.67 496.5,-1003.83 492.33,-1008 488.17,-1008 488.17,-1008 427.83,-1008 427.83,-1008 423.67,-1008 419.5,-1003.83 419.5,-999.67 419.5,-999.67 419.5,-991.33 419.5,-991.33 419.5,-987.17 423.67,-983 427.83,-983"/>
<text text-anchor="start" x="424.5" y="-992.8" font-family="Times,serif" font-weight="bold" font-size="14.00">S1, A7, 0, 0</text>
</g>
<!-- 0x4ec7b1c7 -->
<g id="node3" class="node">
<title>0x4ec7b1c7</title>
<ellipse fill="white" stroke="black" stroke-width="0.8" cx="324.5" cy="-921.5" rx="3.5" ry="3.5"/>
</g>
<!-- 0x46ac07f4&#45;&gt;0x4ec7b1c7 -->
<g id="edge1" class="edge">
<title>0x46ac07f4:box&#45;&gt;0x4ec7b1c7</title>
<path fill="none" stroke="#22c55e" d="M418.5,-995C376.28,-995 341.44,-948.58 329.2,-930.03"/>
<polygon fill="#22c55e" stroke="#22c55e" points="330.94,-928.84 325.94,-924.91 327.4,-931.1 330.94,-928.84"/>
<text text-anchor="start" x="350.5" y="-947.6" font-family="Times,serif" font-weight="bold" font-size="13.00" fill="#22c55e"> o1 </text>
</g>
<!-- 0x28ea4829 -->
<g id="node7" class="node">
<title>0x28ea4829</title>
<ellipse fill="white" stroke="black" stroke-width="0.8" cx="458.5" cy="-921.5" rx="3.5" ry="3.5"/>
</g>
<!-- 0x46ac07f4&#45;&gt;0x28ea4829 -->
<g id="edge3" class="edge">
<title>0x46ac07f4:box&#45;&gt;0x28ea4829</title>
<path fill="none" stroke="#3b82f6" d="M458.5,-982C458.5,-964.04 458.5,-943.02 458.5,-931.39"/>
<polygon fill="#3b82f6" stroke="#3b82f6" points="460.6,-931.23 458.5,-925.23 456.4,-931.23 460.6,-931.23"/>
<text text-anchor="start" x="458.5" y="-947.6" font-family="Times,serif" font-weight="bold" font-size="13.00" fill="#3b82f6"> o2 </text>
</g>
<!-- 0x35e448dd -->
<g id="node11" class="node">
<title>0x35e448dd</title>
<ellipse fill="white" stroke="black" stroke-width="0.8" cx="629.5" cy="-631.5" rx="3.5" ry="3.5"/>
</g>
<!-- 0x46ac07f4&#45;&gt;0x35e448dd -->
<g id="edge7" class="edge">
<title>0x46ac07f4:box&#45;&gt;0x35e448dd</title>
<path fill="none" stroke="#3b82f6" d="M497.5,-995C510.44,-995 496.66,-976.45 505.5,-967 545.51,-924.25 629.5,-981.05 629.5,-922.5 629.5,-922.5 629.5,-922.5 629.5,-703 629.5,-680.9 629.5,-654.9 629.5,-641.5"/>
<polygon fill="#3b82f6" stroke="#3b82f6" points="631.6,-641.19 629.5,-635.19 627.4,-641.19 631.6,-641.19"/>
<text text-anchor="start" x="629.5" y="-802.6" font-family="Times,serif" font-weight="bold" font-size="13.00" fill="#3b82f6"> o3 </text>
</g>
<!-- 0x8e7109f3 -->
<g id="node2" class="node">
<title>0x8e7109f3</title>
<text text-anchor="start" x="251" y="-859.4" font-family="Times,serif" font-weight="bold" font-size="12.00">ye1</text>
<path fill="#f8f9fa" stroke="transparent" d="M229.83,-830C229.83,-830 290.17,-830 290.17,-830 294.33,-830 298.5,-834.17 298.5,-838.33 298.5,-838.33 298.5,-846.67 298.5,-846.67 298.5,-850.83 294.33,-855 290.17,-855 290.17,-855 229.83,-855 229.83,-855 225.67,-855 221.5,-850.83 221.5,-846.67 221.5,-846.67 221.5,-838.33 221.5,-838.33 221.5,-834.17 225.67,-830 229.83,-830"/>
<path fill="none" stroke="#333333" d="M229.83,-830C229.83,-830 290.17,-830 290.17,-830 294.33,-830 298.5,-834.17 298.5,-838.33 298.5,-838.33 298.5,-846.67 298.5,-846.67 298.5,-850.83 294.33,-855 290.17,-855 290.17,-855 229.83,-855 229.83,-855 225.67,-855 221.5,-850.83 221.5,-846.67 221.5,-846.67 221.5,-838.33 221.5,-838.33 221.5,-834.17 225.67,-830 229.83,-830"/>
<text text-anchor="start" x="226.5" y="-839.8" font-family="Times,serif" font-weight="bold" font-size="14.00">S2, A7, 1, 0</text>
</g>
<!-- 0x44f095a3 -->
<g id="node13" class="node">
<title>0x44f095a3</title>
<ellipse fill="white" stroke="black" stroke-width="0.8" cx="260.5" cy="-776.5" rx="3.5" ry="3.5"/>
</g>
<!-- 0x8e7109f3&#45;&gt;0x44f095a3 -->
<g id="edge11" class="edge">
<title>0x8e7109f3:box&#45;&gt;0x44f095a3</title>
<path fill="none" stroke="#4b5563" d="M260.5,-830C260.5,-814.74 260.5,-797 260.5,-786.53"/>
<polygon fill="#4b5563" stroke="#4b5563" points="262.6,-786.35 260.5,-780.35 258.4,-786.35 262.6,-786.35"/>
<text text-anchor="start" x="260.5" y="-802.6" font-family="Times,serif" font-weight="bold" font-size="13.00" fill="#4b5563"> uo2 </text>
</g>
<!-- 0x4ec7b1c7&#45;&gt;0x8e7109f3 -->
<g id="edge2" class="edge">
<title>0x4ec7b1c7&#45;&gt;0x8e7109f3:box</title>
<path fill="none" stroke="#666666" stroke-dasharray="5,2" d="M323.7,-917.89C320.33,-906.82 307.13,-863.64 301.76,-847.84"/>
<polygon fill="#666666" stroke="#666666" points="303.62,-846.84 299.5,-842 299.71,-848.35 303.62,-846.84"/>
<text text-anchor="start" x="318.5" y="-890.6" font-family="Times,serif" font-weight="bold" font-size="13.00" fill="#666666"> o1 </text>
</g>
<!-- 0x14432f18 -->
<g id="node4" class="node">
<title>0x14432f18</title>
<text text-anchor="start" x="449" y="-859.4" font-family="Times,serif" font-weight="bold" font-size="12.00">ye2</text>
<path fill="#f8f9fa" stroke="transparent" d="M427.83,-830C427.83,-830 488.17,-830 488.17,-830 492.33,-830 496.5,-834.17 496.5,-838.33 496.5,-838.33 496.5,-846.67 496.5,-846.67 496.5,-850.83 492.33,-855 488.17,-855 488.17,-855 427.83,-855 427.83,-855 423.67,-855 419.5,-850.83 419.5,-846.67 419.5,-846.67 419.5,-838.33 419.5,-838.33 419.5,-834.17 423.67,-830 427.83,-830"/>
<path fill="none" stroke="#333333" d="M427.83,-830C427.83,-830 488.17,-830 488.17,-830 492.33,-830 496.5,-834.17 496.5,-838.33 496.5,-838.33 496.5,-846.67 496.5,-846.67 496.5,-850.83 492.33,-855 488.17,-855 488.17,-855 427.83,-855 427.83,-855 423.67,-855 419.5,-850.83 419.5,-846.67 419.5,-846.67 419.5,-838.33 419.5,-838.33 419.5,-834.17 423.67,-830 427.83,-830"/>
<text text-anchor="start" x="424.5" y="-839.8" font-family="Times,serif" font-weight="bold" font-size="14.00">S8, A0, 3, 2</text>
</g>
<!-- 0x53f6cefa -->
<g id="node15" class="node">
<title>0x53f6cefa</title>
<ellipse fill="white" stroke="black" stroke-width="0.8" cx="458.5" cy="-776.5" rx="3.5" ry="3.5"/>
</g>
<!-- 0x14432f18&#45;&gt;0x53f6cefa -->
<g id="edge13" class="edge">
<title>0x14432f18:box&#45;&gt;0x53f6cefa</title>
<path fill="none" stroke="#ef4444" d="M458.5,-830C458.5,-814.74 458.5,-797 458.5,-786.53"/>
<polygon fill="#ef4444" stroke="#ef4444" points="460.6,-786.35 458.5,-780.35 456.4,-786.35 460.6,-786.35"/>
<text text-anchor="start" x="458.5" y="-802.6" font-family="Times,serif" font-weight="bold" font-size="13.00" fill="#ef4444"> o4 </text>
</g>
<!-- 0x640c8300 -->
<g id="node5" class="node">
<title>0x640c8300</title>
<text text-anchor="start" x="350" y="-859.4" font-family="Times,serif" font-weight="bold" font-size="12.00">ye3</text>
<path fill="#f8f9fa" stroke="transparent" d="M328.83,-830C328.83,-830 389.17,-830 389.17,-830 393.33,-830 397.5,-834.17 397.5,-838.33 397.5,-838.33 397.5,-846.67 397.5,-846.67 397.5,-850.83 393.33,-855 389.17,-855 389.17,-855 328.83,-855 328.83,-855 324.67,-855 320.5,-850.83 320.5,-846.67 320.5,-846.67 320.5,-838.33 320.5,-838.33 320.5,-834.17 324.67,-830 328.83,-830"/>
<path fill="none" stroke="#333333" d="M328.83,-830C328.83,-830 389.17,-830 389.17,-830 393.33,-830 397.5,-834.17 397.5,-838.33 397.5,-838.33 397.5,-846.67 397.5,-846.67 397.5,-850.83 393.33,-855 389.17,-855 389.17,-855 328.83,-855 328.83,-855 324.67,-855 320.5,-850.83 320.5,-846.67 320.5,-846.67 320.5,-838.33 320.5,-838.33 320.5,-834.17 324.67,-830 328.83,-830"/>
<text text-anchor="start" x="325.5" y="-839.8" font-family="Times,serif" font-weight="bold" font-size="14.00">S1, A0, 3, 0</text>
</g>
<!-- 0xf3126490 -->
<g id="node17" class="node">
<title>0xf3126490</title>
<ellipse fill="white" stroke="black" stroke-width="0.8" cx="359.5" cy="-776.5" rx="3.5" ry="3.5"/>
</g>
<!-- 0x640c8300&#45;&gt;0xf3126490 -->
<g id="edge15" class="edge">
<title>0x640c8300:box&#45;&gt;0xf3126490</title>
<path fill="none" stroke="#ef4444" d="M359.5,-830C359.5,-814.74 359.5,-797 359.5,-786.53"/>
<polygon fill="#ef4444" stroke="#ef4444" points="361.6,-786.35 359.5,-780.35 357.4,-786.35 361.6,-786.35"/>
<text text-anchor="start" x="359.5" y="-802.6" font-family="Times,serif" font-weight="bold" font-size="13.00" fill="#ef4444"> o4 </text>
</g>
<!-- 0x18921e5b -->
<g id="node6" class="node">
<title>0x18921e5b</title>
<text text-anchor="start" x="548" y="-859.4" font-family="Times,serif" font-weight="bold" font-size="12.00">ye4</text>
<path fill="#f8f9fa" stroke="transparent" d="M526.83,-830C526.83,-830 587.17,-830 587.17,-830 591.33,-830 595.5,-834.17 595.5,-838.33 595.5,-838.33 595.5,-846.67 595.5,-846.67 595.5,-850.83 591.33,-855 587.17,-855 587.17,-855 526.83,-855 526.83,-855 522.67,-855 518.5,-850.83 518.5,-846.67 518.5,-846.67 518.5,-838.33 518.5,-838.33 518.5,-834.17 522.67,-830 526.83,-830"/>
<path fill="none" stroke="#333333" d="M526.83,-830C526.83,-830 587.17,-830 587.17,-830 591.33,-830 595.5,-834.17 595.5,-838.33 595.5,-838.33 595.5,-846.67 595.5,-846.67 595.5,-850.83 591.33,-855 587.17,-855 587.17,-855 526.83,-855 526.83,-855 522.67,-855 518.5,-850.83 518.5,-846.67 518.5,-846.67 518.5,-838.33 518.5,-838.33 518.5,-834.17 522.67,-830 526.83,-830"/>
<text text-anchor="start" x="523.5" y="-839.8" font-family="Times,serif" font-weight="bold" font-size="14.00">S7, A0, 3, 1</text>
</g>
<!-- 0x6289a28a -->
<g id="node19" class="node">
<title>0x6289a28a</title>
<ellipse fill="white" stroke="black" stroke-width="0.8" cx="557.5" cy="-776.5" rx="3.5" ry="3.5"/>
</g>
<!-- 0x18921e5b&#45;&gt;0x6289a28a -->
<g id="edge17" class="edge">
<title>0x18921e5b:box&#45;&gt;0x6289a28a</title>
<path fill="none" stroke="#ef4444" d="M557.5,-830C557.5,-814.74 557.5,-797 557.5,-786.53"/>
<polygon fill="#ef4444" stroke="#ef4444" points="559.6,-786.35 557.5,-780.35 555.4,-786.35 559.6,-786.35"/>
<text text-anchor="start" x="557.5" y="-802.6" font-family="Times,serif" font-weight="bold" font-size="13.00" fill="#ef4444"> o4 </text>
</g>
<!-- 0x28ea4829&#45;&gt;0x14432f18 -->
<g id="edge4" class="edge">
<title>0x28ea4829&#45;&gt;0x14432f18:box</title>
<path fill="none" stroke="#666666" stroke-dasharray="5,2" d="M460.28,-918.12C467.65,-908.26 495.48,-870.95 496.5,-868 499.27,-859.97 504.75,-849.71 502.88,-844.83"/>
<polygon fill="#666666" stroke="#666666" points="503.79,-842.93 497.5,-842 501.83,-846.65 503.79,-842.93"/>
<text text-anchor="start" x="484.5" y="-890.6" font-family="Times,serif" font-weight="bold" font-size="13.00" fill="#666666"> o2 </text>
</g>
<!-- 0x28ea4829&#45;&gt;0x640c8300 -->
<g id="edge5" class="edge">
<title>0x28ea4829&#45;&gt;0x640c8300:box</title>
<path fill="none" stroke="#666666" stroke-dasharray="5,2" d="M456.21,-918.77C448.31,-912.68 421.89,-891.37 407.5,-868 402.69,-860.19 406.91,-849.47 404.16,-844.6"/>
<polygon fill="#666666" stroke="#666666" points="404.83,-842.59 398.5,-842 403.08,-846.41 404.83,-842.59"/>
<text text-anchor="start" x="434.5" y="-890.6" font-family="Times,serif" font-weight="bold" font-size="13.00" fill="#666666"> ε </text>
</g>
<!-- 0x28ea4829&#45;&gt;0x18921e5b -->
<g id="edge6" class="edge">
<title>0x28ea4829&#45;&gt;0x18921e5b:box</title>
<path fill="none" stroke="#666666" stroke-dasharray="5,2" d="M461.86,-920.09C470.55,-918.84 493.94,-914.24 505.5,-900 512.37,-891.54 507.06,-857.31 512.51,-845.8"/>
<polygon fill="#666666" stroke="#666666" points="514,-847.31 517.5,-842 511.46,-843.97 514,-847.31"/>
<text text-anchor="start" x="508.5" y="-890.6" font-family="Times,serif" font-weight="bold" font-size="13.00" fill="#666666"> o3 </text>
</g>
<!-- 0x5cb8417a -->
<g id="node8" class="node">
<title>0x5cb8417a</title>
<text text-anchor="start" x="695" y="-551.9" font-family="Times,serif" font-weight="bold" font-size="12.00">ye5</text>
<path fill="#f8f9fa" stroke="transparent" d="M673.83,-522.5C673.83,-522.5 734.17,-522.5 734.17,-522.5 738.33,-522.5 742.5,-526.67 742.5,-530.83 742.5,-530.83 742.5,-539.17 742.5,-539.17 742.5,-543.33 738.33,-547.5 734.17,-547.5 734.17,-547.5 673.83,-547.5 673.83,-547.5 669.67,-547.5 665.5,-543.33 665.5,-539.17 665.5,-539.17 665.5,-530.83 665.5,-530.83 665.5,-526.67 669.67,-522.5 673.83,-522.5"/>
<path fill="none" stroke="#333333" d="M673.83,-522.5C673.83,-522.5 734.17,-522.5 734.17,-522.5 738.33,-522.5 742.5,-526.67 742.5,-530.83 742.5,-530.83 742.5,-539.17 742.5,-539.17 742.5,-543.33 738.33,-547.5 734.17,-547.5 734.17,-547.5 673.83,-547.5 673.83,-547.5 669.67,-547.5 665.5,-543.33 665.5,-539.17 665.5,-539.17 665.5,-530.83 665.5,-530.83 665.5,-526.67 669.67,-522.5 673.83,-522.5"/>
<text text-anchor="start" x="670.5" y="-532.3" font-family="Times,serif" font-weight="bold" font-size="14.00">S8, A6, 7, 2</text>
</g>
<!-- 0xb48655f7 -->
<g id="node22" class="node">
<title>0xb48655f7</title>
<ellipse fill="white" stroke="black" stroke-width="0.8" cx="776.5" cy="-451.5" rx="3.5" ry="3.5"/>
</g>
<!-- 0x5cb8417a&#45;&gt;0xb48655f7 -->
<g id="edge19" class="edge">
<title>0x5cb8417a:box&#45;&gt;0xb48655f7</title>
<path fill="none" stroke="#3b82f6" d="M743.5,-534.5C774.8,-534.5 777.17,-482.45 776.84,-461.29"/>
<polygon fill="#3b82f6" stroke="#3b82f6" points="778.94,-461.16 776.66,-455.23 774.74,-461.29 778.94,-461.16"/>
<text text-anchor="start" x="776.5" y="-477.6" font-family="Times,serif" font-weight="bold" font-size="13.00" fill="#3b82f6"> o3 </text>
</g>
<!-- 0xbf3355ec -->
<g id="node24" class="node">
<title>0xbf3355ec</title>
<ellipse fill="white" stroke="black" stroke-width="0.8" cx="704.5" cy="-451.5" rx="3.5" ry="3.5"/>
</g>
<!-- 0x5cb8417a&#45;&gt;0xbf3355ec -->
<g id="edge23" class="edge">
<title>0x5cb8417a:box&#45;&gt;0xbf3355ec</title>
<path fill="none" stroke="#4b5563" d="M704.5,-521.5C704.5,-499.87 704.5,-474.43 704.5,-461.31"/>
<polygon fill="#4b5563" stroke="#4b5563" points="706.6,-461.13 704.5,-455.13 702.4,-461.13 706.6,-461.13"/>
<text text-anchor="start" x="704.5" y="-477.6" font-family="Times,serif" font-weight="bold" font-size="13.00" fill="#4b5563"> uo1 </text>
</g>
<!-- 0xc6588f2d -->
<g id="node9" class="node">
<title>0xc6588f2d</title>
<text text-anchor="start" x="351" y="-551.9" font-family="Times,serif" font-weight="bold" font-size="12.00">ye6</text>
<path fill="#f8f9fa" stroke="transparent" d="M329.83,-522.5C329.83,-522.5 390.17,-522.5 390.17,-522.5 394.33,-522.5 398.5,-526.67 398.5,-530.83 398.5,-530.83 398.5,-539.17 398.5,-539.17 398.5,-543.33 394.33,-547.5 390.17,-547.5 390.17,-547.5 329.83,-547.5 329.83,-547.5 325.67,-547.5 321.5,-543.33 321.5,-539.17 321.5,-539.17 321.5,-530.83 321.5,-530.83 321.5,-526.67 325.67,-522.5 329.83,-522.5"/>
<path fill="none" stroke="#333333" d="M329.83,-522.5C329.83,-522.5 390.17,-522.5 390.17,-522.5 394.33,-522.5 398.5,-526.67 398.5,-530.83 398.5,-530.83 398.5,-539.17 398.5,-539.17 398.5,-543.33 394.33,-547.5 390.17,-547.5 390.17,-547.5 329.83,-547.5 329.83,-547.5 325.67,-547.5 321.5,-543.33 321.5,-539.17 321.5,-539.17 321.5,-530.83 321.5,-530.83 321.5,-526.67 325.67,-522.5 329.83,-522.5"/>
<text text-anchor="start" x="326.5" y="-532.3" font-family="Times,serif" font-weight="bold" font-size="14.00">S1, A6, 7, 0</text>
</g>
<!-- 0xc46398f7 -->
<g id="node27" class="node">
<title>0xc46398f7</title>
<ellipse fill="white" stroke="black" stroke-width="0.8" cx="365.5" cy="-451.5" rx="3.5" ry="3.5"/>
</g>
<!-- 0xc6588f2d&#45;&gt;0xc46398f7 -->
<g id="edge25" class="edge">
<title>0xc6588f2d:box&#45;&gt;0xc46398f7</title>
<path fill="none" stroke="#3b82f6" d="M360.5,-521.5C360.5,-499.81 362.99,-474.39 364.45,-461.29"/>
<polygon fill="#3b82f6" stroke="#3b82f6" points="366.56,-461.33 365.17,-455.13 362.39,-460.84 366.56,-461.33"/>
<text text-anchor="start" x="363.5" y="-477.6" font-family="Times,serif" font-weight="bold" font-size="13.00" fill="#3b82f6"> o3 </text>
</g>
<!-- 0x3024f7c1 -->
<g id="node29" class="node">
<title>0x3024f7c1</title>
<ellipse fill="white" stroke="black" stroke-width="0.8" cx="296.5" cy="-451.5" rx="3.5" ry="3.5"/>
</g>
<!-- 0xc6588f2d&#45;&gt;0x3024f7c1 -->
<g id="edge29" class="edge">
<title>0xc6588f2d:box&#45;&gt;0x3024f7c1</title>
<path fill="none" stroke="#4b5563" d="M320.5,-534.5C316.72,-534.5 303.73,-482.45 298.6,-461.29"/>
<polygon fill="#4b5563" stroke="#4b5563" points="300.59,-460.57 297.15,-455.23 296.51,-461.55 300.59,-460.57"/>
<text text-anchor="start" x="305.5" y="-477.6" font-family="Times,serif" font-weight="bold" font-size="13.00" fill="#4b5563"> uo1 </text>
</g>
<!-- 0x7ade2a88 -->
<g id="node10" class="node">
<title>0x7ade2a88</title>
<text text-anchor="start" x="526" y="-551.9" font-family="Times,serif" font-weight="bold" font-size="12.00">ye7</text>
<path fill="#f8f9fa" stroke="transparent" d="M504.83,-522.5C504.83,-522.5 565.17,-522.5 565.17,-522.5 569.33,-522.5 573.5,-526.67 573.5,-530.83 573.5,-530.83 573.5,-539.17 573.5,-539.17 573.5,-543.33 569.33,-547.5 565.17,-547.5 565.17,-547.5 504.83,-547.5 504.83,-547.5 500.67,-547.5 496.5,-543.33 496.5,-539.17 496.5,-539.17 496.5,-530.83 496.5,-530.83 496.5,-526.67 500.67,-522.5 504.83,-522.5"/>
<path fill="none" stroke="#333333" d="M504.83,-522.5C504.83,-522.5 565.17,-522.5 565.17,-522.5 569.33,-522.5 573.5,-526.67 573.5,-530.83 573.5,-530.83 573.5,-539.17 573.5,-539.17 573.5,-543.33 569.33,-547.5 565.17,-547.5 565.17,-547.5 504.83,-547.5 504.83,-547.5 500.67,-547.5 496.5,-543.33 496.5,-539.17 496.5,-539.17 496.5,-530.83 496.5,-530.83 496.5,-526.67 500.67,-522.5 504.83,-522.5"/>
<text text-anchor="start" x="501.5" y="-532.3" font-family="Times,serif" font-weight="bold" font-size="14.00">S7, A6, 7, 1</text>
</g>
<!-- 0x25880042 -->
<g id="node31" class="node">
<title>0x25880042</title>
<ellipse fill="white" stroke="black" stroke-width="0.8" cx="535.5" cy="-451.5" rx="3.5" ry="3.5"/>
</g>
<!-- 0x7ade2a88&#45;&gt;0x25880042 -->
<g id="edge31" class="edge">
<title>0x7ade2a88:box&#45;&gt;0x25880042</title>
<path fill="none" stroke="#4b5563" d="M535.5,-521.5C535.5,-499.87 535.5,-474.43 535.5,-461.31"/>
<polygon fill="#4b5563" stroke="#4b5563" points="537.6,-461.13 535.5,-455.13 533.4,-461.13 537.6,-461.13"/>
<text text-anchor="start" x="535.5" y="-477.6" font-family="Times,serif" font-weight="bold" font-size="13.00" fill="#4b5563"> uo1 </text>
</g>
<!-- 0x35e448dd&#45;&gt;0x5cb8417a -->
<g id="edge8" class="edge">
<title>0x35e448dd&#45;&gt;0x5cb8417a:box</title>
<path fill="none" stroke="#666666" stroke-dasharray="5,2" d="M632.42,-629.06C637.82,-626.24 649.26,-619.42 654.5,-610 669.8,-582.5 636.04,-540.88 658.41,-535.16"/>
<polygon fill="#666666" stroke="#666666" points="658.76,-537.23 664.5,-534.5 658.31,-533.06 658.76,-537.23"/>
<text text-anchor="start" x="657.5" y="-600.6" font-family="Times,serif" font-weight="bold" font-size="13.00" fill="#666666"> o2 </text>
</g>
<!-- 0x35e448dd&#45;&gt;0xc6588f2d -->
<g id="edge9" class="edge">
<title>0x35e448dd&#45;&gt;0xc6588f2d:box</title>
<path fill="none" stroke="#666666" stroke-dasharray="5,2" d="M626.65,-628.63C617.81,-622.89 589.9,-605.41 564.5,-596 530.32,-583.34 518.77,-590.4 484.5,-578 446.62,-564.29 442.3,-537.41 405.67,-534.72"/>
<polygon fill="#666666" stroke="#666666" points="405.57,-532.61 399.5,-534.5 405.42,-536.81 405.57,-532.61"/>
<text text-anchor="start" x="594.5" y="-600.6" font-family="Times,serif" font-weight="bold" font-size="13.00" fill="#666666"> ε </text>
</g>
<!-- 0x35e448dd&#45;&gt;0x7ade2a88 -->
<g id="edge10" class="edge">
<title>0x35e448dd&#45;&gt;0x7ade2a88:box</title>
<path fill="none" stroke="#666666" stroke-dasharray="5,2" d="M629.28,-627.73C627.94,-612.73 619.52,-541.63 580.48,-535"/>
<polygon fill="#666666" stroke="#666666" points="580.65,-532.9 574.5,-534.5 580.31,-537.09 580.65,-532.9"/>
<text text-anchor="start" x="626.5" y="-600.6" font-family="Times,serif" font-weight="bold" font-size="13.00" fill="#666666"> o3 </text>
</g>
<!-- 0x77c1714c -->
<g id="node12" class="node">
<title>0x77c1714c</title>
<text text-anchor="start" x="251" y="-714.4" font-family="Times,serif" font-weight="bold" font-size="12.00">ye8</text>
<path fill="#f8f9fa" stroke="transparent" d="M229.83,-685C229.83,-685 290.17,-685 290.17,-685 294.33,-685 298.5,-689.17 298.5,-693.33 298.5,-693.33 298.5,-701.67 298.5,-701.67 298.5,-705.83 294.33,-710 290.17,-710 290.17,-710 229.83,-710 229.83,-710 225.67,-710 221.5,-705.83 221.5,-701.67 221.5,-701.67 221.5,-693.33 221.5,-693.33 221.5,-689.17 225.67,-685 229.83,-685"/>
<path fill="none" stroke="#333333" d="M229.83,-685C229.83,-685 290.17,-685 290.17,-685 294.33,-685 298.5,-689.17 298.5,-693.33 298.5,-693.33 298.5,-701.67 298.5,-701.67 298.5,-705.83 294.33,-710 290.17,-710 290.17,-710 229.83,-710 229.83,-710 225.67,-710 221.5,-705.83 221.5,-701.67 221.5,-701.67 221.5,-693.33 221.5,-693.33 221.5,-689.17 225.67,-685 229.83,-685"/>
<text text-anchor="start" x="226.5" y="-694.8" font-family="Times,serif" font-weight="bold" font-size="14.00">S2, A7, 2, 0</text>
</g>
<!-- 0xc23d2229 -->
<g id="node33" class="node">
<title>0xc23d2229</title>
<ellipse fill="white" stroke="black" stroke-width="0.8" cx="260.5" cy="-631.5" rx="3.5" ry="3.5"/>
</g>
<!-- 0x77c1714c&#45;&gt;0xc23d2229 -->
<g id="edge33" class="edge">
<title>0x77c1714c:box&#45;&gt;0xc23d2229</title>
<path fill="none" stroke="#22c55e" d="M260.5,-685C260.5,-669.74 260.5,-652 260.5,-641.53"/>
<polygon fill="#22c55e" stroke="#22c55e" points="262.6,-641.35 260.5,-635.35 258.4,-641.35 262.6,-641.35"/>
<text text-anchor="start" x="260.5" y="-657.6" font-family="Times,serif" font-weight="bold" font-size="13.00" fill="#22c55e"> o1 </text>
</g>
<!-- 0x44f095a3&#45;&gt;0x77c1714c -->
<g id="edge12" class="edge">
<title>0x44f095a3&#45;&gt;0x77c1714c:box</title>
<path fill="none" stroke="#666666" stroke-dasharray="5,2" d="M262.79,-773.38C269.76,-766.75 290.71,-745.55 298.5,-723 301.27,-714.97 306.75,-704.71 304.88,-699.83"/>
<polygon fill="#666666" stroke="#666666" points="305.79,-697.93 299.5,-697 303.83,-701.65 305.79,-697.93"/>
<text text-anchor="start" x="289.5" y="-745.6" font-family="Times,serif" font-weight="bold" font-size="13.00" fill="#666666"> uo2 </text>
</g>
<!-- 0x78a936d6 -->
<g id="node14" class="node">
<title>0x78a936d6</title>
<text text-anchor="start" x="449" y="-714.4" font-family="Times,serif" font-weight="bold" font-size="12.00">ye9</text>
<path fill="#f8f9fa" stroke="transparent" d="M427.83,-685C427.83,-685 488.17,-685 488.17,-685 492.33,-685 496.5,-689.17 496.5,-693.33 496.5,-693.33 496.5,-701.67 496.5,-701.67 496.5,-705.83 492.33,-710 488.17,-710 488.17,-710 427.83,-710 427.83,-710 423.67,-710 419.5,-705.83 419.5,-701.67 419.5,-701.67 419.5,-693.33 419.5,-693.33 419.5,-689.17 423.67,-685 427.83,-685"/>
<path fill="none" stroke="#333333" d="M427.83,-685C427.83,-685 488.17,-685 488.17,-685 492.33,-685 496.5,-689.17 496.5,-693.33 496.5,-693.33 496.5,-701.67 496.5,-701.67 496.5,-705.83 492.33,-710 488.17,-710 488.17,-710 427.83,-710 427.83,-710 423.67,-710 419.5,-705.83 419.5,-701.67 419.5,-701.67 419.5,-693.33 419.5,-693.33 419.5,-689.17 423.67,-685 427.83,-685"/>
<text text-anchor="start" x="424.5" y="-694.8" font-family="Times,serif" font-weight="bold" font-size="14.00">S8, A2, 6, 2</text>
</g>
<!-- 0x53f6cefa&#45;&gt;0x78a936d6 -->
<g id="edge14" class="edge">
<title>0x53f6cefa&#45;&gt;0x78a936d6:box</title>
<path fill="none" stroke="#666666" stroke-dasharray="5,2" d="M460.79,-773.38C467.76,-766.75 488.71,-745.55 496.5,-723 499.27,-714.97 504.75,-704.71 502.88,-699.83"/>
<polygon fill="#666666" stroke="#666666" points="503.79,-697.93 497.5,-697 501.83,-701.65 503.79,-697.93"/>
<text text-anchor="start" x="487.5" y="-745.6" font-family="Times,serif" font-weight="bold" font-size="13.00" fill="#666666"> o4 </text>
</g>
<!-- 0xdd0827d4 -->
<g id="node16" class="node">
<title>0xdd0827d4</title>
<text text-anchor="start" x="347" y="-714.4" font-family="Times,serif" font-weight="bold" font-size="12.00">ye10</text>
<path fill="#f8f9fa" stroke="transparent" d="M328.83,-685C328.83,-685 389.17,-685 389.17,-685 393.33,-685 397.5,-689.17 397.5,-693.33 397.5,-693.33 397.5,-701.67 397.5,-701.67 397.5,-705.83 393.33,-710 389.17,-710 389.17,-710 328.83,-710 328.83,-710 324.67,-710 320.5,-705.83 320.5,-701.67 320.5,-701.67 320.5,-693.33 320.5,-693.33 320.5,-689.17 324.67,-685 328.83,-685"/>
<path fill="none" stroke="#333333" d="M328.83,-685C328.83,-685 389.17,-685 389.17,-685 393.33,-685 397.5,-689.17 397.5,-693.33 397.5,-693.33 397.5,-701.67 397.5,-701.67 397.5,-705.83 393.33,-710 389.17,-710 389.17,-710 328.83,-710 328.83,-710 324.67,-710 320.5,-705.83 320.5,-701.67 320.5,-701.67 320.5,-693.33 320.5,-693.33 320.5,-689.17 324.67,-685 328.83,-685"/>
<text text-anchor="start" x="325.5" y="-694.8" font-family="Times,serif" font-weight="bold" font-size="14.00">S1, A6, 6, 0</text>
</g>
<!-- 0xde09dcd -->
<g id="node34" class="node">
<title>0xde09dcd</title>
<ellipse fill="white" stroke="black" stroke-width="0.8" cx="360.5" cy="-631.5" rx="3.5" ry="3.5"/>
</g>
<!-- 0xdd0827d4&#45;&gt;0xde09dcd -->
<g id="edge35" class="edge">
<title>0xdd0827d4:box&#45;&gt;0xde09dcd</title>
<path fill="none" stroke="#4b5563" d="M359.5,-685C359.5,-669.74 359.93,-651.99 360.22,-641.53"/>
<polygon fill="#4b5563" stroke="#4b5563" points="362.33,-641.4 360.41,-635.35 358.13,-641.28 362.33,-641.4"/>
<text text-anchor="start" x="360.5" y="-657.6" font-family="Times,serif" font-weight="bold" font-size="13.00" fill="#4b5563"> uo3 </text>
</g>
<!-- 0xf3126490&#45;&gt;0xdd0827d4 -->
<g id="edge16" class="edge">
<title>0xf3126490&#45;&gt;0xdd0827d4:box</title>
<path fill="none" stroke="#666666" stroke-dasharray="5,2" d="M361.79,-773.38C368.76,-766.75 389.71,-745.55 397.5,-723 400.27,-714.97 405.75,-704.71 403.88,-699.83"/>
<polygon fill="#666666" stroke="#666666" points="404.79,-697.93 398.5,-697 402.83,-701.65 404.79,-697.93"/>
<text text-anchor="start" x="388.5" y="-745.6" font-family="Times,serif" font-weight="bold" font-size="13.00" fill="#666666"> o4 </text>
</g>
<!-- 0x918dc32f -->
<g id="node18" class="node">
<title>0x918dc32f</title>
<text text-anchor="start" x="545" y="-714.4" font-family="Times,serif" font-weight="bold" font-size="12.00">ye11</text>
<path fill="#f8f9fa" stroke="transparent" d="M526.83,-685C526.83,-685 587.17,-685 587.17,-685 591.33,-685 595.5,-689.17 595.5,-693.33 595.5,-693.33 595.5,-701.67 595.5,-701.67 595.5,-705.83 591.33,-710 587.17,-710 587.17,-710 526.83,-710 526.83,-710 522.67,-710 518.5,-705.83 518.5,-701.67 518.5,-701.67 518.5,-693.33 518.5,-693.33 518.5,-689.17 522.67,-685 526.83,-685"/>
<path fill="none" stroke="#333333" d="M526.83,-685C526.83,-685 587.17,-685 587.17,-685 591.33,-685 595.5,-689.17 595.5,-693.33 595.5,-693.33 595.5,-701.67 595.5,-701.67 595.5,-705.83 591.33,-710 587.17,-710 587.17,-710 526.83,-710 526.83,-710 522.67,-710 518.5,-705.83 518.5,-701.67 518.5,-701.67 518.5,-693.33 518.5,-693.33 518.5,-689.17 522.67,-685 526.83,-685"/>
<text text-anchor="start" x="523.5" y="-694.8" font-family="Times,serif" font-weight="bold" font-size="14.00">S7, A6, 6, 1</text>
</g>
<!-- 0xed4db894 -->
<g id="node35" class="node">
<title>0xed4db894</title>
<ellipse fill="white" stroke="black" stroke-width="0.8" cx="540.5" cy="-631.5" rx="3.5" ry="3.5"/>
</g>
<!-- 0x918dc32f&#45;&gt;0xed4db894 -->
<g id="edge37" class="edge">
<title>0x918dc32f:box&#45;&gt;0xed4db894</title>
<path fill="none" stroke="#4b5563" d="M557.5,-685C557.5,-668.5 549.8,-650.43 544.77,-640.38"/>
<polygon fill="#4b5563" stroke="#4b5563" points="546.49,-639.15 541.83,-634.82 542.78,-641.11 546.49,-639.15"/>
<text text-anchor="start" x="554.5" y="-657.6" font-family="Times,serif" font-weight="bold" font-size="13.00" fill="#4b5563"> uo3 </text>
</g>
<!-- 0x6289a28a&#45;&gt;0x918dc32f -->
<g id="edge18" class="edge">
<title>0x6289a28a&#45;&gt;0x918dc32f:box</title>
<path fill="none" stroke="#666666" stroke-dasharray="5,2" d="M559.71,-773.24C571.26,-761.27 623.38,-705.66 602.53,-697.9"/>
<polygon fill="#666666" stroke="#666666" points="602.74,-695.81 596.5,-697 602.12,-699.96 602.74,-695.81"/>
<text text-anchor="start" x="585.5" y="-745.6" font-family="Times,serif" font-weight="bold" font-size="13.00" fill="#666666"> o4 </text>
</g>
<!-- 0xbbafffff -->
<g id="node20" class="node">
<title>0xbbafffff</title>
<text text-anchor="start" x="793.5" y="-389.4" font-family="Times,serif" font-weight="bold" font-size="12.00">ye12</text>
<path fill="#fff1f2" stroke="transparent" d="M772.83,-360C772.83,-360 838.17,-360 838.17,-360 842.33,-360 846.5,-364.17 846.5,-368.33 846.5,-368.33 846.5,-376.67 846.5,-376.67 846.5,-380.83 842.33,-385 838.17,-385 838.17,-385 772.83,-385 772.83,-385 768.67,-385 764.5,-380.83 764.5,-376.67 764.5,-376.67 764.5,-368.33 764.5,-368.33 764.5,-364.17 768.67,-360 772.83,-360"/>
<path fill="none" stroke="#9f1239" d="M772.83,-360C772.83,-360 838.17,-360 838.17,-360 842.33,-360 846.5,-364.17 846.5,-368.33 846.5,-368.33 846.5,-376.67 846.5,-376.67 846.5,-380.83 842.33,-385 838.17,-385 838.17,-385 772.83,-385 772.83,-385 768.67,-385 764.5,-380.83 764.5,-376.67 764.5,-376.67 764.5,-368.33 764.5,-368.33 764.5,-364.17 768.67,-360 772.83,-360"/>
<text text-anchor="start" x="769.5" y="-369.8" font-family="Times,serif" font-weight="bold" font-size="14.00">AX, A3, 8, 2</text>
</g>
<!-- 0x2c61ab -->
<g id="node21" class="node">
<title>0x2c61ab</title>
<text text-anchor="start" x="609" y="-389.4" font-family="Times,serif" font-weight="bold" font-size="12.00">ye13</text>
<path fill="#f8f9fa" stroke="transparent" d="M590.83,-360C590.83,-360 651.17,-360 651.17,-360 655.33,-360 659.5,-364.17 659.5,-368.33 659.5,-368.33 659.5,-376.67 659.5,-376.67 659.5,-380.83 655.33,-385 651.17,-385 651.17,-385 590.83,-385 590.83,-385 586.67,-385 582.5,-380.83 582.5,-376.67 582.5,-376.67 582.5,-368.33 582.5,-368.33 582.5,-364.17 586.67,-360 590.83,-360"/>
<path fill="none" stroke="#333333" d="M590.83,-360C590.83,-360 651.17,-360 651.17,-360 655.33,-360 659.5,-364.17 659.5,-368.33 659.5,-368.33 659.5,-376.67 659.5,-376.67 659.5,-380.83 655.33,-385 651.17,-385 651.17,-385 590.83,-385 590.83,-385 586.67,-385 582.5,-380.83 582.5,-376.67 582.5,-376.67 582.5,-368.33 582.5,-368.33 582.5,-364.17 586.67,-360 590.83,-360"/>
<text text-anchor="start" x="587.5" y="-369.8" font-family="Times,serif" font-weight="bold" font-size="14.00">S8, A3, 8, 2</text>
</g>
<!-- 0x49f3b868 -->
<g id="node38" class="node">
<title>0x49f3b868</title>
<ellipse fill="white" stroke="black" stroke-width="0.8" cx="615.5" cy="-306.5" rx="3.5" ry="3.5"/>
</g>
<!-- 0x2c61ab&#45;&gt;0x49f3b868 -->
<g id="edge39" class="edge">
<title>0x2c61ab:box&#45;&gt;0x49f3b868</title>
<path fill="none" stroke="#3b82f6" d="M621.5,-360C621.5,-350.62 613.04,-351.03 610.5,-342 608.04,-333.26 610.18,-322.92 612.37,-315.85"/>
<polygon fill="#3b82f6" stroke="#3b82f6" points="614.4,-316.41 614.42,-310.06 610.44,-315.02 614.4,-316.41"/>
<text text-anchor="start" x="610.5" y="-332.6" font-family="Times,serif" font-weight="bold" font-size="13.00" fill="#3b82f6"> o2 </text>
</g>
<!-- 0xb9679c52 -->
<g id="node41" class="node">
<title>0xb9679c52</title>
<ellipse fill="white" stroke="black" stroke-width="0.8" cx="860.5" cy="-306.5" rx="3.5" ry="3.5"/>
</g>
<!-- 0x2c61ab&#45;&gt;0xb9679c52 -->
<g id="edge43" class="edge">
<title>0x2c61ab:box&#45;&gt;0xb9679c52</title>
<path fill="none" stroke="#3b82f6" d="M660.5,-372C680.1,-372 644.35,-342.54 657.5,-328 670.58,-313.53 811.49,-308.78 850.53,-307.74"/>
<polygon fill="#3b82f6" stroke="#3b82f6" points="850.96,-309.83 856.91,-307.58 850.86,-305.63 850.96,-309.83"/>
<text text-anchor="start" x="657.5" y="-332.6" font-family="Times,serif" font-weight="bold" font-size="13.00" fill="#3b82f6"> o3 </text>
</g>
<!-- 0xb48655f7&#45;&gt;0xbbafffff -->
<g id="edge20" class="edge">
<title>0xb48655f7&#45;&gt;0xbbafffff:box</title>
<path fill="none" stroke="#666666" stroke-dasharray="5,2" d="M779.34,-449.43C790.44,-445.1 830.98,-427.6 846.5,-398 850.53,-390.32 855.58,-379.53 852.98,-374.62"/>
<polygon fill="#666666" stroke="#666666" points="853.82,-372.7 847.5,-372 852.01,-376.49 853.82,-372.7"/>
<text text-anchor="start" x="831.5" y="-420.6" font-family="Times,serif" font-weight="bold" font-size="13.00" fill="#666666"> o2 </text>
</g>
<!-- 0xb48655f7&#45;&gt;0xbbafffff -->
<g id="edge22" class="edge">
<title>0xb48655f7&#45;&gt;0xbbafffff:box</title>
<path fill="none" stroke="#666666" stroke-dasharray="5,2" d="M775.14,-448.24C768.1,-436.32 736.89,-381.13 757.5,-373"/>
<polygon fill="#666666" stroke="#666666" points="757.93,-375.06 763.5,-372 757.24,-370.92 757.93,-375.06"/>
<text text-anchor="start" x="764.5" y="-420.6" font-family="Times,serif" font-weight="bold" font-size="13.00" fill="#666666"> o3 </text>
</g>
<!-- 0xb48655f7&#45;&gt;0x2c61ab -->
<g id="edge21" class="edge">
<title>0xb48655f7&#45;&gt;0x2c61ab:box</title>
<path fill="none" stroke="#666666" stroke-dasharray="5,2" d="M773.64,-448.87C767.73,-445.48 753.81,-437.39 742.5,-430 707.04,-406.81 705.24,-375.39 666.97,-372.25"/>
<polygon fill="#666666" stroke="#666666" points="666.58,-370.14 660.5,-372 666.41,-374.33 666.58,-370.14"/>
<text text-anchor="start" x="742.5" y="-420.6" font-family="Times,serif" font-weight="bold" font-size="13.00" fill="#666666"> ε </text>
</g>
<!-- 0xa6b2d5f6 -->
<g id="node23" class="node">
<title>0xa6b2d5f6</title>
<text text-anchor="start" x="621" y="-226.9" font-family="Times,serif" font-weight="bold" font-size="12.00">ye14</text>
<path fill="#f8f9fa" stroke="transparent" d="M602.83,-197.5C602.83,-197.5 663.17,-197.5 663.17,-197.5 667.33,-197.5 671.5,-201.67 671.5,-205.83 671.5,-205.83 671.5,-214.17 671.5,-214.17 671.5,-218.33 667.33,-222.5 663.17,-222.5 663.17,-222.5 602.83,-222.5 602.83,-222.5 598.67,-222.5 594.5,-218.33 594.5,-214.17 594.5,-214.17 594.5,-205.83 594.5,-205.83 594.5,-201.67 598.67,-197.5 602.83,-197.5"/>
<path fill="none" stroke="#333333" d="M602.83,-197.5C602.83,-197.5 663.17,-197.5 663.17,-197.5 667.33,-197.5 671.5,-201.67 671.5,-205.83 671.5,-205.83 671.5,-214.17 671.5,-214.17 671.5,-218.33 667.33,-222.5 663.17,-222.5 663.17,-222.5 602.83,-222.5 602.83,-222.5 598.67,-222.5 594.5,-218.33 594.5,-214.17 594.5,-214.17 594.5,-205.83 594.5,-205.83 594.5,-201.67 598.67,-197.5 602.83,-197.5"/>
<text text-anchor="start" x="599.5" y="-207.3" font-family="Times,serif" font-weight="bold" font-size="14.00">S8, A6, 4, 2</text>
</g>
<!-- 0x80ba6378 -->
<g id="node44" class="node">
<title>0x80ba6378</title>
<ellipse fill="white" stroke="black" stroke-width="0.8" cx="593.5" cy="-126.5" rx="3.5" ry="3.5"/>
</g>
<!-- 0xa6b2d5f6&#45;&gt;0x80ba6378 -->
<g id="edge47" class="edge">
<title>0xa6b2d5f6:box&#45;&gt;0x80ba6378</title>
<path fill="none" stroke="#3b82f6" d="M633.5,-196.5C633.5,-182.93 610.05,-149.69 599.06,-134.86"/>
<polygon fill="#3b82f6" stroke="#3b82f6" points="600.5,-133.28 595.22,-129.74 597.14,-135.8 600.5,-133.28"/>
<text text-anchor="start" x="616.5" y="-152.6" font-family="Times,serif" font-weight="bold" font-size="13.00" fill="#3b82f6"> o2 </text>
</g>
<!-- 0xf4625f1b -->
<g id="node46" class="node">
<title>0xf4625f1b</title>
<ellipse fill="white" stroke="black" stroke-width="0.8" cx="681.5" cy="-126.5" rx="3.5" ry="3.5"/>
</g>
<!-- 0xa6b2d5f6&#45;&gt;0xf4625f1b -->
<g id="edge51" class="edge">
<title>0xa6b2d5f6:box&#45;&gt;0xf4625f1b</title>
<path fill="none" stroke="#22c55e" d="M633.5,-196.5C633.5,-168.41 660.64,-143.55 674.11,-132.94"/>
<polygon fill="#22c55e" stroke="#22c55e" points="675.4,-134.6 678.92,-129.31 672.87,-131.25 675.4,-134.6"/>
<text text-anchor="start" x="655.5" y="-152.6" font-family="Times,serif" font-weight="bold" font-size="13.00" fill="#22c55e"> o1 </text>
</g>
<!-- 0xbf3355ec&#45;&gt;0xa6b2d5f6 -->
<g id="edge24" class="edge">
<title>0xbf3355ec&#45;&gt;0xa6b2d5f6:box</title>
<path fill="none" stroke="#666666" stroke-dasharray="5,2" d="M704.49,-447.94C704.42,-431.75 703.3,-342.06 688.5,-271 686.78,-262.74 684.78,-261.12 682.5,-253 680.38,-245.47 681.56,-222.74 677.27,-213.48"/>
<polygon fill="#666666" stroke="#666666" points="678.45,-211.73 672.5,-209.5 675.76,-214.96 678.45,-211.73"/>
<text text-anchor="start" x="698.5" y="-332.6" font-family="Times,serif" font-weight="bold" font-size="13.00" fill="#666666"> uo1 </text>
</g>
<!-- 0xe9ccaf5e -->
<g id="node25" class="node">
<title>0xe9ccaf5e</title>
<text text-anchor="start" x="355" y="-389.4" font-family="Times,serif" font-weight="bold" font-size="12.00">ye15</text>
<path fill="#f8f9fa" stroke="transparent" d="M336.83,-360C336.83,-360 397.17,-360 397.17,-360 401.33,-360 405.5,-364.17 405.5,-368.33 405.5,-368.33 405.5,-376.67 405.5,-376.67 405.5,-380.83 401.33,-385 397.17,-385 397.17,-385 336.83,-385 336.83,-385 332.67,-385 328.5,-380.83 328.5,-376.67 328.5,-376.67 328.5,-368.33 328.5,-368.33 328.5,-364.17 332.67,-360 336.83,-360"/>
<path fill="none" stroke="#333333" d="M336.83,-360C336.83,-360 397.17,-360 397.17,-360 401.33,-360 405.5,-364.17 405.5,-368.33 405.5,-368.33 405.5,-376.67 405.5,-376.67 405.5,-380.83 401.33,-385 397.17,-385 397.17,-385 336.83,-385 336.83,-385 332.67,-385 328.5,-380.83 328.5,-376.67 328.5,-376.67 328.5,-368.33 328.5,-368.33 328.5,-364.17 332.67,-360 336.83,-360"/>
<text text-anchor="start" x="333.5" y="-369.8" font-family="Times,serif" font-weight="bold" font-size="14.00">S1, A3, 8, 0</text>
</g>
<!-- 0xc0d124c4 -->
<g id="node49" class="node">
<title>0xc0d124c4</title>
<ellipse fill="white" stroke="black" stroke-width="0.8" cx="345.5" cy="-306.5" rx="3.5" ry="3.5"/>
</g>
<!-- 0xe9ccaf5e&#45;&gt;0xc0d124c4 -->
<g id="edge53" class="edge">
<title>0xe9ccaf5e:box&#45;&gt;0xc0d124c4</title>
<path fill="none" stroke="#3b82f6" d="M367.5,-360C367.5,-342.81 357.35,-324.75 350.84,-314.93"/>
<polygon fill="#3b82f6" stroke="#3b82f6" points="352.38,-313.48 347.23,-309.76 348.94,-315.88 352.38,-313.48"/>
<text text-anchor="start" x="364.5" y="-332.6" font-family="Times,serif" font-weight="bold" font-size="13.00" fill="#3b82f6"> o2 </text>
</g>
<!-- 0xfc1bafc1 -->
<g id="node50" class="node">
<title>0xfc1bafc1</title>
<ellipse fill="white" stroke="black" stroke-width="0.8" cx="438.5" cy="-306.5" rx="3.5" ry="3.5"/>
</g>
<!-- 0xe9ccaf5e&#45;&gt;0xfc1bafc1 -->
<g id="edge57" class="edge">
<title>0xe9ccaf5e:box&#45;&gt;0xfc1bafc1</title>
<path fill="none" stroke="#3b82f6" d="M406.5,-372C431,-372 436.74,-334.19 438.09,-316.47"/>
<polygon fill="#3b82f6" stroke="#3b82f6" points="440.2,-316.38 438.44,-310.27 436,-316.14 440.2,-316.38"/>
<text text-anchor="start" x="437.5" y="-332.6" font-family="Times,serif" font-weight="bold" font-size="13.00" fill="#3b82f6"> o3 </text>
</g>
<!-- 0xb752215d -->
<g id="node26" class="node">
<title>0xb752215d</title>
<text text-anchor="start" x="188" y="-389.4" font-family="Times,serif" font-weight="bold" font-size="12.00">ye16</text>
<path fill="#f8f9fa" stroke="transparent" d="M169.83,-360C169.83,-360 230.17,-360 230.17,-360 234.33,-360 238.5,-364.17 238.5,-368.33 238.5,-368.33 238.5,-376.67 238.5,-376.67 238.5,-380.83 234.33,-385 230.17,-385 230.17,-385 169.83,-385 169.83,-385 165.67,-385 161.5,-380.83 161.5,-376.67 161.5,-376.67 161.5,-368.33 161.5,-368.33 161.5,-364.17 165.67,-360 169.83,-360"/>
<path fill="none" stroke="#333333" d="M169.83,-360C169.83,-360 230.17,-360 230.17,-360 234.33,-360 238.5,-364.17 238.5,-368.33 238.5,-368.33 238.5,-376.67 238.5,-376.67 238.5,-380.83 234.33,-385 230.17,-385 230.17,-385 169.83,-385 169.83,-385 165.67,-385 161.5,-380.83 161.5,-376.67 161.5,-376.67 161.5,-368.33 161.5,-368.33 161.5,-364.17 165.67,-360 169.83,-360"/>
<text text-anchor="start" x="166.5" y="-369.8" font-family="Times,serif" font-weight="bold" font-size="14.00">S7, A3, 8, 1</text>
</g>
<!-- 0xd25ae00c -->
<g id="node52" class="node">
<title>0xd25ae00c</title>
<ellipse fill="white" stroke="black" stroke-width="0.8" cx="138.5" cy="-306.5" rx="3.5" ry="3.5"/>
</g>
<!-- 0xb752215d&#45;&gt;0xd25ae00c -->
<g id="edge61" class="edge">
<title>0xb752215d:box&#45;&gt;0xd25ae00c</title>
<path fill="none" stroke="#3b82f6" d="M160.5,-372C137.31,-372 136.73,-334.19 137.74,-316.47"/>
<polygon fill="#3b82f6" stroke="#3b82f6" points="139.85,-316.41 138.2,-310.27 135.66,-316.1 139.85,-316.41"/>
<text text-anchor="start" x="138.5" y="-332.6" font-family="Times,serif" font-weight="bold" font-size="13.00" fill="#3b82f6"> o2 </text>
</g>
<!-- 0xc46398f7&#45;&gt;0x2c61ab -->
<g id="edge26" class="edge">
<title>0xc46398f7&#45;&gt;0x2c61ab:box</title>
<path fill="none" stroke="#666666" stroke-dasharray="5,2" d="M368.5,-449.27C391.34,-439.9 537.78,-380.19 575.48,-372.76"/>
<polygon fill="#666666" stroke="#666666" points="575.81,-374.83 581.5,-372 575.28,-370.67 575.81,-374.83"/>
<text text-anchor="start" x="446.5" y="-420.6" font-family="Times,serif" font-weight="bold" font-size="13.00" fill="#666666"> o2 </text>
</g>
<!-- 0xc46398f7&#45;&gt;0xe9ccaf5e -->
<g id="edge27" class="edge">
<title>0xc46398f7&#45;&gt;0xe9ccaf5e:box</title>
<path fill="none" stroke="#666666" stroke-dasharray="5,2" d="M367.45,-448.56C378.67,-437.32 433.61,-380.81 412.62,-372.92"/>
<polygon fill="#666666" stroke="#666666" points="412.74,-370.81 406.5,-372 412.12,-374.97 412.74,-370.81"/>
<text text-anchor="start" x="395.5" y="-420.6" font-family="Times,serif" font-weight="bold" font-size="13.00" fill="#666666"> ε </text>
</g>
<!-- 0xc46398f7&#45;&gt;0xb752215d -->
<g id="edge28" class="edge">
<title>0xc46398f7&#45;&gt;0xb752215d:box</title>
<path fill="none" stroke="#666666" stroke-dasharray="5,2" d="M363.7,-448.24C353.61,-435.82 302.55,-376.39 245.73,-372.23"/>
<polygon fill="#666666" stroke="#666666" points="245.57,-370.12 239.5,-372 245.42,-374.32 245.57,-370.12"/>
<text text-anchor="start" x="347.5" y="-420.6" font-family="Times,serif" font-weight="bold" font-size="13.00" fill="#666666"> o3 </text>
</g>
<!-- 0x905323a9 -->
<g id="node28" class="node">
<title>0x905323a9</title>
<text text-anchor="start" x="324" y="-243.9" font-family="Times,serif" font-weight="bold" font-size="12.00">ye17</text>
<path fill="#f8f9fa" stroke="transparent" d="M305.83,-214.5C305.83,-214.5 366.17,-214.5 366.17,-214.5 370.33,-214.5 374.5,-218.67 374.5,-222.83 374.5,-222.83 374.5,-231.17 374.5,-231.17 374.5,-235.33 370.33,-239.5 366.17,-239.5 366.17,-239.5 305.83,-239.5 305.83,-239.5 301.67,-239.5 297.5,-235.33 297.5,-231.17 297.5,-231.17 297.5,-222.83 297.5,-222.83 297.5,-218.67 301.67,-214.5 305.83,-214.5"/>
<path fill="none" stroke="#333333" d="M305.83,-214.5C305.83,-214.5 366.17,-214.5 366.17,-214.5 370.33,-214.5 374.5,-218.67 374.5,-222.83 374.5,-222.83 374.5,-231.17 374.5,-231.17 374.5,-235.33 370.33,-239.5 366.17,-239.5 366.17,-239.5 305.83,-239.5 305.83,-239.5 301.67,-239.5 297.5,-235.33 297.5,-231.17 297.5,-231.17 297.5,-222.83 297.5,-222.83 297.5,-218.67 301.67,-214.5 305.83,-214.5"/>
<text text-anchor="start" x="302.5" y="-224.3" font-family="Times,serif" font-weight="bold" font-size="14.00">S1, A6, 4, 0</text>
<text text-anchor="start" x="315" y="-188.9" font-family="Times,serif" font-size="32.00">· · ·</text>
</g>
<!-- 0x3024f7c1&#45;&gt;0x905323a9 -->
<g id="edge30" class="edge">
<title>0x3024f7c1&#45;&gt;0x905323a9:box</title>
<path fill="none" stroke="#666666" stroke-dasharray="5,2" d="M296.23,-448C293.81,-425.51 276.49,-258.5 291.63,-231.25"/>
<polygon fill="#666666" stroke="#666666" points="293.03,-232.83 296.5,-227.5 290.47,-229.5 293.03,-232.83"/>
<text text-anchor="start" x="287.5" y="-332.6" font-family="Times,serif" font-weight="bold" font-size="13.00" fill="#666666"> uo1 </text>
</g>
<!-- 0xc4d8bf04 -->
<g id="node30" class="node">
<title>0xc4d8bf04</title>
<text text-anchor="start" x="522" y="-243.9" font-family="Times,serif" font-weight="bold" font-size="12.00">ye18</text>
<path fill="#f8f9fa" stroke="transparent" d="M503.83,-214.5C503.83,-214.5 564.17,-214.5 564.17,-214.5 568.33,-214.5 572.5,-218.67 572.5,-222.83 572.5,-222.83 572.5,-231.17 572.5,-231.17 572.5,-235.33 568.33,-239.5 564.17,-239.5 564.17,-239.5 503.83,-239.5 503.83,-239.5 499.67,-239.5 495.5,-235.33 495.5,-231.17 495.5,-231.17 495.5,-222.83 495.5,-222.83 495.5,-218.67 499.67,-214.5 503.83,-214.5"/>
<path fill="none" stroke="#333333" d="M503.83,-214.5C503.83,-214.5 564.17,-214.5 564.17,-214.5 568.33,-214.5 572.5,-218.67 572.5,-222.83 572.5,-222.83 572.5,-231.17 572.5,-231.17 572.5,-235.33 568.33,-239.5 564.17,-239.5 564.17,-239.5 503.83,-239.5 503.83,-239.5 499.67,-239.5 495.5,-235.33 495.5,-231.17 495.5,-231.17 495.5,-222.83 495.5,-222.83 495.5,-218.67 499.67,-214.5 503.83,-214.5"/>
<text text-anchor="start" x="500.5" y="-224.3" font-family="Times,serif" font-weight="bold" font-size="14.00">S7, A6, 4, 1</text>
<text text-anchor="start" x="513" y="-188.9" font-family="Times,serif" font-size="32.00">· · ·</text>
</g>
<!-- 0x25880042&#45;&gt;0xc4d8bf04 -->
<g id="edge32" class="edge">
<title>0x25880042&#45;&gt;0xc4d8bf04:box</title>
<path fill="none" stroke="#666666" stroke-dasharray="5,2" d="M534.98,-447.76C531.85,-430.46 516.73,-335.21 550.5,-271 556.38,-259.82 566.87,-264.31 572.5,-253 576.21,-245.54 581.13,-235.29 578.99,-230.36"/>
<polygon fill="#666666" stroke="#666666" points="579.79,-228.41 573.5,-227.5 577.85,-232.14 579.79,-228.41"/>
<text text-anchor="start" x="532.5" y="-332.6" font-family="Times,serif" font-weight="bold" font-size="13.00" fill="#666666"> uo1 </text>
</g>
<!-- 0xc2eeb9cf -->
<g id="node32" class="node">
<title>0xc2eeb9cf</title>
<text text-anchor="start" x="248" y="-568.9" font-family="Times,serif" font-weight="bold" font-size="12.00">ye19</text>
<path fill="#f8f9fa" stroke="transparent" d="M229.83,-539.5C229.83,-539.5 290.17,-539.5 290.17,-539.5 294.33,-539.5 298.5,-543.67 298.5,-547.83 298.5,-547.83 298.5,-556.17 298.5,-556.17 298.5,-560.33 294.33,-564.5 290.17,-564.5 290.17,-564.5 229.83,-564.5 229.83,-564.5 225.67,-564.5 221.5,-560.33 221.5,-556.17 221.5,-556.17 221.5,-547.83 221.5,-547.83 221.5,-543.67 225.67,-539.5 229.83,-539.5"/>
<path fill="none" stroke="#333333" d="M229.83,-539.5C229.83,-539.5 290.17,-539.5 290.17,-539.5 294.33,-539.5 298.5,-543.67 298.5,-547.83 298.5,-547.83 298.5,-556.17 298.5,-556.17 298.5,-560.33 294.33,-564.5 290.17,-564.5 290.17,-564.5 229.83,-564.5 229.83,-564.5 225.67,-564.5 221.5,-560.33 221.5,-556.17 221.5,-556.17 221.5,-547.83 221.5,-547.83 221.5,-543.67 225.67,-539.5 229.83,-539.5"/>
<text text-anchor="start" x="226.5" y="-549.3" font-family="Times,serif" font-weight="bold" font-size="14.00">S0, A7, 5, 0</text>
<text text-anchor="start" x="239" y="-513.9" font-family="Times,serif" font-size="32.00">· · ·</text>
</g>
<!-- 0xc23d2229&#45;&gt;0xc2eeb9cf -->
<g id="edge34" class="edge">
<title>0xc23d2229&#45;&gt;0xc2eeb9cf:box</title>
<path fill="none" stroke="#666666" stroke-dasharray="5,2" d="M262.79,-628.38C269.76,-621.75 290.71,-600.54 298.5,-578 301.16,-570.3 306.37,-560.49 304.88,-555.59"/>
<polygon fill="#666666" stroke="#666666" points="305.75,-553.66 299.5,-552.5 303.66,-557.31 305.75,-553.66"/>
<text text-anchor="start" x="289.5" y="-600.6" font-family="Times,serif" font-weight="bold" font-size="13.00" fill="#666666"> o1 </text>
</g>
<!-- 0xde09dcd&#45;&gt;0xc6588f2d -->
<g id="edge36" class="edge">
<title>0xde09dcd&#45;&gt;0xc6588f2d:box</title>
<path fill="none" stroke="#666666" stroke-dasharray="5,2" d="M362.56,-628.13C374.55,-614.21 433.69,-543.52 405.76,-535.28"/>
<polygon fill="#666666" stroke="#666666" points="405.71,-533.16 399.5,-534.5 405.19,-537.33 405.71,-533.16"/>
<text text-anchor="start" x="387.5" y="-600.6" font-family="Times,serif" font-weight="bold" font-size="13.00" fill="#666666"> uo3 </text>
</g>
<!-- 0xed4db894&#45;&gt;0x7ade2a88 -->
<g id="edge38" class="edge">
<title>0xed4db894&#45;&gt;0x7ade2a88:box</title>
<path fill="none" stroke="#666666" stroke-dasharray="5,2" d="M539.19,-627.86C536.44,-621.91 530.68,-607.1 535.5,-596 544.71,-574.8 563.89,-581.52 573.5,-560.5 577.03,-552.78 582.15,-542.38 580.04,-537.39"/>
<polygon fill="#666666" stroke="#666666" points="580.79,-535.42 574.5,-534.5 578.85,-539.14 580.79,-535.42"/>
<text text-anchor="start" x="535.5" y="-600.6" font-family="Times,serif" font-weight="bold" font-size="13.00" fill="#666666"> uo3 </text>
</g>
<!-- 0xf0eb1e3c -->
<g id="node36" class="node">
<title>0xf0eb1e3c</title>
<text text-anchor="start" x="722.5" y="-226.9" font-family="Times,serif" font-weight="bold" font-size="12.00">ye20</text>
<path fill="#fff1f2" stroke="transparent" d="M701.83,-197.5C701.83,-197.5 767.17,-197.5 767.17,-197.5 771.33,-197.5 775.5,-201.67 775.5,-205.83 775.5,-205.83 775.5,-214.17 775.5,-214.17 775.5,-218.33 771.33,-222.5 767.17,-222.5 767.17,-222.5 701.83,-222.5 701.83,-222.5 697.67,-222.5 693.5,-218.33 693.5,-214.17 693.5,-214.17 693.5,-205.83 693.5,-205.83 693.5,-201.67 697.67,-197.5 701.83,-197.5"/>
<path fill="none" stroke="#9f1239" d="M701.83,-197.5C701.83,-197.5 767.17,-197.5 767.17,-197.5 771.33,-197.5 775.5,-201.67 775.5,-205.83 775.5,-205.83 775.5,-214.17 775.5,-214.17 775.5,-218.33 771.33,-222.5 767.17,-222.5 767.17,-222.5 701.83,-222.5 701.83,-222.5 697.67,-222.5 693.5,-218.33 693.5,-214.17 693.5,-214.17 693.5,-205.83 693.5,-205.83 693.5,-201.67 697.67,-197.5 701.83,-197.5"/>
<text text-anchor="start" x="698.5" y="-207.3" font-family="Times,serif" font-weight="bold" font-size="14.00">AX, A1, 5, 2</text>
</g>
<!-- 0x5e1ff7ab -->
<g id="node37" class="node">
<title>0x5e1ff7ab</title>
<text text-anchor="start" x="423" y="-226.9" font-family="Times,serif" font-weight="bold" font-size="12.00">ye21</text>
<path fill="#f0fdf4" stroke="transparent" d="M404.83,-197.5C404.83,-197.5 465.17,-197.5 465.17,-197.5 469.33,-197.5 473.5,-201.67 473.5,-205.83 473.5,-205.83 473.5,-214.17 473.5,-214.17 473.5,-218.33 469.33,-222.5 465.17,-222.5 465.17,-222.5 404.83,-222.5 404.83,-222.5 400.67,-222.5 396.5,-218.33 396.5,-214.17 396.5,-214.17 396.5,-205.83 396.5,-205.83 396.5,-201.67 400.67,-197.5 404.83,-197.5"/>
<path fill="none" stroke="#166534" d="M404.83,-197.5C404.83,-197.5 465.17,-197.5 465.17,-197.5 469.33,-197.5 473.5,-201.67 473.5,-205.83 473.5,-205.83 473.5,-214.17 473.5,-214.17 473.5,-218.33 469.33,-222.5 465.17,-222.5 465.17,-222.5 404.83,-222.5 404.83,-222.5 400.67,-222.5 396.5,-218.33 396.5,-214.17 396.5,-214.17 396.5,-205.83 396.5,-205.83 396.5,-201.67 400.67,-197.5 404.83,-197.5"/>
<text text-anchor="start" x="401.5" y="-207.3" font-family="Times,serif" font-weight="bold" font-size="14.00">S8, A1, 5, 2</text>
</g>
<!-- 0x49f3b868&#45;&gt;0xf0eb1e3c -->
<g id="edge40" class="edge">
<title>0x49f3b868&#45;&gt;0xf0eb1e3c:box</title>
<path fill="none" stroke="#666666" stroke-dasharray="5,2" d="M615.03,-302.96C614.03,-296.69 612.4,-280.31 620.5,-271 639.34,-249.35 662.79,-273.86 682.5,-253 694.21,-240.61 678.53,-217.39 686.48,-211.1"/>
<polygon fill="#666666" stroke="#666666" points="687.24,-213.07 692.5,-209.5 686.16,-209.01 687.24,-213.07"/>
<text text-anchor="start" x="620.5" y="-275.6" font-family="Times,serif" font-weight="bold" font-size="13.00" fill="#666666"> o2 </text>
</g>
<!-- 0x49f3b868&#45;&gt;0xf0eb1e3c -->
<g id="edge42" class="edge">
<title>0x49f3b868&#45;&gt;0xf0eb1e3c:box</title>
<path fill="none" stroke="#666666" stroke-dasharray="5,2" d="M618.35,-304.17C628.79,-299.14 665.22,-280.19 682.5,-253 691.64,-238.61 677.81,-216.83 686.32,-210.99"/>
<polygon fill="#666666" stroke="#666666" points="687.16,-212.94 692.5,-209.5 686.18,-208.86 687.16,-212.94"/>
<text text-anchor="start" x="665.5" y="-275.6" font-family="Times,serif" font-weight="bold" font-size="13.00" fill="#666666"> o3 </text>
</g>
<!-- 0x49f3b868&#45;&gt;0x5e1ff7ab -->
<g id="edge41" class="edge">
<title>0x49f3b868&#45;&gt;0x5e1ff7ab:box</title>
<path fill="none" stroke="#666666" stroke-dasharray="5,2" d="M611.8,-305.39C593.83,-304.64 515.3,-298.77 483.5,-253 473.82,-239.07 488.71,-216.96 480.56,-211.01"/>
<polygon fill="#666666" stroke="#666666" points="480.83,-208.91 474.5,-209.5 479.81,-212.99 480.83,-208.91"/>
<text text-anchor="start" x="521.5" y="-275.6" font-family="Times,serif" font-weight="bold" font-size="13.00" fill="#666666"> ε </text>
</g>
<!-- 0xce67589c -->
<g id="node39" class="node">
<title>0xce67589c</title>
<text text-anchor="start" x="926.5" y="-226.9" font-family="Times,serif" font-weight="bold" font-size="12.00">ye22</text>
<path fill="#fff1f2" stroke="transparent" d="M905.83,-197.5C905.83,-197.5 971.17,-197.5 971.17,-197.5 975.33,-197.5 979.5,-201.67 979.5,-205.83 979.5,-205.83 979.5,-214.17 979.5,-214.17 979.5,-218.33 975.33,-222.5 971.17,-222.5 971.17,-222.5 905.83,-222.5 905.83,-222.5 901.67,-222.5 897.5,-218.33 897.5,-214.17 897.5,-214.17 897.5,-205.83 897.5,-205.83 897.5,-201.67 901.67,-197.5 905.83,-197.5"/>
<path fill="none" stroke="#9f1239" d="M905.83,-197.5C905.83,-197.5 971.17,-197.5 971.17,-197.5 975.33,-197.5 979.5,-201.67 979.5,-205.83 979.5,-205.83 979.5,-214.17 979.5,-214.17 979.5,-218.33 975.33,-222.5 971.17,-222.5 971.17,-222.5 905.83,-222.5 905.83,-222.5 901.67,-222.5 897.5,-218.33 897.5,-214.17 897.5,-214.17 897.5,-205.83 897.5,-205.83 897.5,-201.67 901.67,-197.5 905.83,-197.5"/>
<text text-anchor="start" x="902.5" y="-207.3" font-family="Times,serif" font-weight="bold" font-size="14.00">AX, A4, 4, 2</text>
</g>
<!-- 0xee73027a -->
<g id="node40" class="node">
<title>0xee73027a</title>
<text text-anchor="start" x="825" y="-243.9" font-family="Times,serif" font-weight="bold" font-size="12.00">ye23</text>
<path fill="#f8f9fa" stroke="transparent" d="M806.83,-214.5C806.83,-214.5 867.17,-214.5 867.17,-214.5 871.33,-214.5 875.5,-218.67 875.5,-222.83 875.5,-222.83 875.5,-231.17 875.5,-231.17 875.5,-235.33 871.33,-239.5 867.17,-239.5 867.17,-239.5 806.83,-239.5 806.83,-239.5 802.67,-239.5 798.5,-235.33 798.5,-231.17 798.5,-231.17 798.5,-222.83 798.5,-222.83 798.5,-218.67 802.67,-214.5 806.83,-214.5"/>
<path fill="none" stroke="#333333" d="M806.83,-214.5C806.83,-214.5 867.17,-214.5 867.17,-214.5 871.33,-214.5 875.5,-218.67 875.5,-222.83 875.5,-222.83 875.5,-231.17 875.5,-231.17 875.5,-235.33 871.33,-239.5 867.17,-239.5 867.17,-239.5 806.83,-239.5 806.83,-239.5 802.67,-239.5 798.5,-235.33 798.5,-231.17 798.5,-231.17 798.5,-222.83 798.5,-222.83 798.5,-218.67 802.67,-214.5 806.83,-214.5"/>
<text text-anchor="start" x="803.5" y="-224.3" font-family="Times,serif" font-weight="bold" font-size="14.00">S8, A4, 4, 2</text>
<text text-anchor="start" x="816" y="-188.9" font-family="Times,serif" font-size="32.00">· · ·</text>
</g>
<!-- 0xb9679c52&#45;&gt;0xce67589c -->
<g id="edge44" class="edge">
<title>0xb9679c52&#45;&gt;0xce67589c:box</title>
<path fill="none" stroke="#666666" stroke-dasharray="5,2" d="M863.83,-305.27C872.92,-304.43 898.11,-300.73 908.5,-285 916.33,-273.15 890.81,-228.35 892.15,-213.97"/>
<polygon fill="#666666" stroke="#666666" points="893.82,-215.27 896.5,-209.5 890.81,-212.34 893.82,-215.27"/>
<text text-anchor="start" x="909.5" y="-275.6" font-family="Times,serif" font-weight="bold" font-size="13.00" fill="#666666"> o2 </text>
</g>
<!-- 0xb9679c52&#45;&gt;0xce67589c -->
<g id="edge46" class="edge">
<title>0xb9679c52&#45;&gt;0xce67589c:box</title>
<path fill="none" stroke="#666666" stroke-dasharray="5,2" d="M861.9,-303.18C866.18,-295.98 879.25,-273.31 886.5,-253 889.13,-245.63 887.66,-222.81 891.8,-213.51"/>
<polygon fill="#666666" stroke="#666666" points="893.29,-214.99 896.5,-209.5 890.57,-211.79 893.29,-214.99"/>
<text text-anchor="start" x="878.5" y="-275.6" font-family="Times,serif" font-weight="bold" font-size="13.00" fill="#666666"> o3 </text>
</g>
<!-- 0xb9679c52&#45;&gt;0xee73027a -->
<g id="edge45" class="edge">
<title>0xb9679c52&#45;&gt;0xee73027a:box</title>
<path fill="none" stroke="#666666" stroke-dasharray="5,2" d="M858.3,-303.57C852.49,-298.24 837.65,-282.9 844.5,-271 852.45,-257.19 867.28,-266.65 875.5,-253 879.89,-245.71 884.64,-235.01 881.95,-230.12"/>
<polygon fill="#666666" stroke="#666666" points="882.82,-228.2 876.5,-227.5 881,-231.99 882.82,-228.2"/>
<text text-anchor="start" x="844.5" y="-275.6" font-family="Times,serif" font-weight="bold" font-size="13.00" fill="#666666"> ε </text>
</g>
<!-- 0x808942fc -->
<g id="node42" class="node">
<title>0x808942fc</title>
<text text-anchor="start" x="581.5" y="-46.9" font-family="Times,serif" font-weight="bold" font-size="12.00">ye24</text>
<path fill="#fff1f2" stroke="transparent" d="M560.83,-17.5C560.83,-17.5 626.17,-17.5 626.17,-17.5 630.33,-17.5 634.5,-21.67 634.5,-25.83 634.5,-25.83 634.5,-34.17 634.5,-34.17 634.5,-38.33 630.33,-42.5 626.17,-42.5 626.17,-42.5 560.83,-42.5 560.83,-42.5 556.67,-42.5 552.5,-38.33 552.5,-34.17 552.5,-34.17 552.5,-25.83 552.5,-25.83 552.5,-21.67 556.67,-17.5 560.83,-17.5"/>
<path fill="none" stroke="#9f1239" d="M560.83,-17.5C560.83,-17.5 626.17,-17.5 626.17,-17.5 630.33,-17.5 634.5,-21.67 634.5,-25.83 634.5,-25.83 634.5,-34.17 634.5,-34.17 634.5,-38.33 630.33,-42.5 626.17,-42.5 626.17,-42.5 560.83,-42.5 560.83,-42.5 556.67,-42.5 552.5,-38.33 552.5,-34.17 552.5,-34.17 552.5,-25.83 552.5,-25.83 552.5,-21.67 556.67,-17.5 560.83,-17.5"/>
<text text-anchor="start" x="557.5" y="-27.3" font-family="Times,serif" font-weight="bold" font-size="14.00">AX, A5, 1, 2</text>
</g>
<!-- 0x9aa92253 -->
<g id="node43" class="node">
<title>0x9aa92253</title>
<text text-anchor="start" x="480" y="-63.9" font-family="Times,serif" font-weight="bold" font-size="12.00">ye25</text>
<path fill="#f8f9fa" stroke="transparent" d="M461.83,-34.5C461.83,-34.5 522.17,-34.5 522.17,-34.5 526.33,-34.5 530.5,-38.67 530.5,-42.83 530.5,-42.83 530.5,-51.17 530.5,-51.17 530.5,-55.33 526.33,-59.5 522.17,-59.5 522.17,-59.5 461.83,-59.5 461.83,-59.5 457.67,-59.5 453.5,-55.33 453.5,-51.17 453.5,-51.17 453.5,-42.83 453.5,-42.83 453.5,-38.67 457.67,-34.5 461.83,-34.5"/>
<path fill="none" stroke="#333333" d="M461.83,-34.5C461.83,-34.5 522.17,-34.5 522.17,-34.5 526.33,-34.5 530.5,-38.67 530.5,-42.83 530.5,-42.83 530.5,-51.17 530.5,-51.17 530.5,-55.33 526.33,-59.5 522.17,-59.5 522.17,-59.5 461.83,-59.5 461.83,-59.5 457.67,-59.5 453.5,-55.33 453.5,-51.17 453.5,-51.17 453.5,-42.83 453.5,-42.83 453.5,-38.67 457.67,-34.5 461.83,-34.5"/>
<text text-anchor="start" x="458.5" y="-44.3" font-family="Times,serif" font-weight="bold" font-size="14.00">S8, A5, 1, 2</text>
<text text-anchor="start" x="471" y="-8.9" font-family="Times,serif" font-size="32.00">· · ·</text>
</g>
<!-- 0x80ba6378&#45;&gt;0x808942fc -->
<g id="edge48" class="edge">
<title>0x80ba6378&#45;&gt;0x808942fc:box</title>
<path fill="none" stroke="#666666" stroke-dasharray="5,2" d="M595.57,-123.05C602.65,-114.46 625.97,-84.7 634.5,-55.5 636.83,-47.52 642.3,-37.58 640.9,-32.62"/>
<polygon fill="#666666" stroke="#666666" points="641.75,-30.68 635.5,-29.5 639.65,-34.32 641.75,-30.68"/>
<text text-anchor="start" x="617.5" y="-95.6" font-family="Times,serif" font-weight="bold" font-size="13.00" fill="#666666"> o2 </text>
</g>
<!-- 0x80ba6378&#45;&gt;0x808942fc -->
<g id="edge50" class="edge">
<title>0x80ba6378&#45;&gt;0x808942fc:box</title>
<path fill="none" stroke="#666666" stroke-dasharray="5,2" d="M591.43,-123.05C584.35,-114.46 561.03,-84.7 552.5,-55.5 550.17,-47.52 544.7,-37.58 546.1,-32.62"/>
<polygon fill="#666666" stroke="#666666" points="547.35,-34.32 551.5,-29.5 545.25,-30.68 547.35,-34.32"/>
<text text-anchor="start" x="577.5" y="-95.6" font-family="Times,serif" font-weight="bold" font-size="13.00" fill="#666666"> o3 </text>
</g>
<!-- 0x80ba6378&#45;&gt;0x9aa92253 -->
<g id="edge49" class="edge">
<title>0x80ba6378&#45;&gt;0x9aa92253:box</title>
<path fill="none" stroke="#666666" stroke-dasharray="5,2" d="M590.37,-124.84C582.63,-123.05 562.49,-117.38 551.5,-105 549.69,-102.96 540.03,-66.97 534.57,-52.99"/>
<polygon fill="#666666" stroke="#666666" points="536.26,-51.71 531.5,-47.5 532.59,-53.76 536.26,-51.71"/>
<text text-anchor="start" x="551.5" y="-95.6" font-family="Times,serif" font-weight="bold" font-size="13.00" fill="#666666"> ε </text>
</g>
<!-- 0xc1ecb39 -->
<g id="node45" class="node">
<title>0xc1ecb39</title>
<text text-anchor="start" x="685.5" y="-46.9" font-family="Times,serif" font-weight="bold" font-size="12.00">ye26</text>
<path fill="#fff1f2" stroke="transparent" d="M664.83,-17.5C664.83,-17.5 730.17,-17.5 730.17,-17.5 734.33,-17.5 738.5,-21.67 738.5,-25.83 738.5,-25.83 738.5,-34.17 738.5,-34.17 738.5,-38.33 734.33,-42.5 730.17,-42.5 730.17,-42.5 664.83,-42.5 664.83,-42.5 660.67,-42.5 656.5,-38.33 656.5,-34.17 656.5,-34.17 656.5,-25.83 656.5,-25.83 656.5,-21.67 660.67,-17.5 664.83,-17.5"/>
<path fill="none" stroke="#9f1239" d="M664.83,-17.5C664.83,-17.5 730.17,-17.5 730.17,-17.5 734.33,-17.5 738.5,-21.67 738.5,-25.83 738.5,-25.83 738.5,-34.17 738.5,-34.17 738.5,-38.33 734.33,-42.5 730.17,-42.5 730.17,-42.5 664.83,-42.5 664.83,-42.5 660.67,-42.5 656.5,-38.33 656.5,-34.17 656.5,-34.17 656.5,-25.83 656.5,-25.83 656.5,-21.67 660.67,-17.5 664.83,-17.5"/>
<text text-anchor="start" x="661.5" y="-27.3" font-family="Times,serif" font-weight="bold" font-size="14.00">AX, A6, 6, 2</text>
</g>
<!-- 0xf4625f1b&#45;&gt;0xc1ecb39 -->
<g id="edge52" class="edge">
<title>0xf4625f1b&#45;&gt;0xc1ecb39:box</title>
<path fill="none" stroke="#666666" stroke-dasharray="5,2" d="M683.72,-123.49C698.04,-110.46 775.85,-38.07 745.83,-30.2"/>
<polygon fill="#666666" stroke="#666666" points="745.69,-28.07 739.5,-29.5 745.23,-32.24 745.69,-28.07"/>
<text text-anchor="start" x="715.5" y="-95.6" font-family="Times,serif" font-weight="bold" font-size="13.00" fill="#666666"> o1 </text>
</g>
<!-- 0xc1d47ad7 -->
<g id="node47" class="node">
<title>0xc1d47ad7</title>
<text text-anchor="start" x="225" y="-226.9" font-family="Times,serif" font-weight="bold" font-size="12.00">ye27</text>
<path fill="#f0fdf4" stroke="transparent" d="M206.83,-197.5C206.83,-197.5 267.17,-197.5 267.17,-197.5 271.33,-197.5 275.5,-201.67 275.5,-205.83 275.5,-205.83 275.5,-214.17 275.5,-214.17 275.5,-218.33 271.33,-222.5 267.17,-222.5 267.17,-222.5 206.83,-222.5 206.83,-222.5 202.67,-222.5 198.5,-218.33 198.5,-214.17 198.5,-214.17 198.5,-205.83 198.5,-205.83 198.5,-201.67 202.67,-197.5 206.83,-197.5"/>
<path fill="none" stroke="#166534" d="M206.83,-197.5C206.83,-197.5 267.17,-197.5 267.17,-197.5 271.33,-197.5 275.5,-201.67 275.5,-205.83 275.5,-205.83 275.5,-214.17 275.5,-214.17 275.5,-218.33 271.33,-222.5 267.17,-222.5 267.17,-222.5 206.83,-222.5 206.83,-222.5 202.67,-222.5 198.5,-218.33 198.5,-214.17 198.5,-214.17 198.5,-205.83 198.5,-205.83 198.5,-201.67 202.67,-197.5 206.83,-197.5"/>
<text text-anchor="start" x="203.5" y="-207.3" font-family="Times,serif" font-weight="bold" font-size="14.00">S1, A1, 5, 0</text>
</g>
<!-- 0x1545b75d -->
<g id="node48" class="node">
<title>0x1545b75d</title>
<text text-anchor="start" x="126" y="-226.9" font-family="Times,serif" font-weight="bold" font-size="12.00">ye28</text>
<path fill="#f0fdf4" stroke="transparent" d="M107.83,-197.5C107.83,-197.5 168.17,-197.5 168.17,-197.5 172.33,-197.5 176.5,-201.67 176.5,-205.83 176.5,-205.83 176.5,-214.17 176.5,-214.17 176.5,-218.33 172.33,-222.5 168.17,-222.5 168.17,-222.5 107.83,-222.5 107.83,-222.5 103.67,-222.5 99.5,-218.33 99.5,-214.17 99.5,-214.17 99.5,-205.83 99.5,-205.83 99.5,-201.67 103.67,-197.5 107.83,-197.5"/>
<path fill="none" stroke="#166534" d="M107.83,-197.5C107.83,-197.5 168.17,-197.5 168.17,-197.5 172.33,-197.5 176.5,-201.67 176.5,-205.83 176.5,-205.83 176.5,-214.17 176.5,-214.17 176.5,-218.33 172.33,-222.5 168.17,-222.5 168.17,-222.5 107.83,-222.5 107.83,-222.5 103.67,-222.5 99.5,-218.33 99.5,-214.17 99.5,-214.17 99.5,-205.83 99.5,-205.83 99.5,-201.67 103.67,-197.5 107.83,-197.5"/>
<text text-anchor="start" x="104.5" y="-207.3" font-family="Times,serif" font-weight="bold" font-size="14.00">S7, A1, 5, 1</text>
</g>
<!-- 0xc0d124c4&#45;&gt;0x5e1ff7ab -->
<g id="edge54" class="edge">
<title>0xc0d124c4&#45;&gt;0x5e1ff7ab:box</title>
<path fill="none" stroke="#666666" stroke-dasharray="5,2" d="M347.24,-303.27C354.45,-293.99 381.8,-258.69 384.5,-253 391.85,-237.52 379.96,-216.52 389.13,-210.92"/>
<polygon fill="#666666" stroke="#666666" points="390.1,-212.86 395.5,-209.5 389.19,-208.76 390.1,-212.86"/>
<text text-anchor="start" x="371.5" y="-275.6" font-family="Times,serif" font-weight="bold" font-size="13.00" fill="#666666"> o2 </text>
</g>
<!-- 0xc0d124c4&#45;&gt;0xc1d47ad7 -->
<g id="edge55" class="edge">
<title>0xc0d124c4&#45;&gt;0xc1d47ad7:box</title>
<path fill="none" stroke="#666666" stroke-dasharray="5,2" d="M342.93,-304.1C333.52,-298.81 300.7,-279.07 285.5,-253 276.95,-238.34 291.03,-216.75 282.63,-210.97"/>
<polygon fill="#666666" stroke="#666666" points="282.82,-208.86 276.5,-209.5 281.84,-212.94 282.82,-208.86"/>
<text text-anchor="start" x="314.5" y="-275.6" font-family="Times,serif" font-weight="bold" font-size="13.00" fill="#666666"> ε </text>
</g>
<!-- 0xc0d124c4&#45;&gt;0x1545b75d -->
<g id="edge56" class="edge">
<title>0xc0d124c4&#45;&gt;0x1545b75d:box</title>
<path fill="none" stroke="#666666" stroke-dasharray="5,2" d="M342.02,-305.55C322.93,-305.61 230.14,-303.27 186.5,-253 175.38,-240.19 191.31,-217.27 183.48,-211.08"/>
<polygon fill="#666666" stroke="#666666" points="183.84,-209 177.5,-209.5 182.76,-213.06 183.84,-209"/>
<text text-anchor="start" x="232.5" y="-275.6" font-family="Times,serif" font-weight="bold" font-size="13.00" fill="#666666"> o3 </text>
</g>
<!-- 0xfc1bafc1&#45;&gt;0xa6b2d5f6 -->
<g id="edge58" class="edge">
<title>0xfc1bafc1&#45;&gt;0xa6b2d5f6:box</title>
<path fill="none" stroke="#666666" stroke-dasharray="5,2" d="M442.11,-305.3C455.47,-304.44 503.07,-300.41 538.5,-285 561.01,-275.21 569.86,-273.4 583.5,-253 592.97,-238.83 578.9,-216.89 587.34,-211"/>
<polygon fill="#666666" stroke="#666666" points="588.17,-212.96 593.5,-209.5 587.17,-208.88 588.17,-212.96"/>
<text text-anchor="start" x="566.5" y="-275.6" font-family="Times,serif" font-weight="bold" font-size="13.00" fill="#666666"> o2 </text>
</g>
<!-- 0xfc1bafc1&#45;&gt;0x905323a9 -->
<g id="edge59" class="edge">
<title>0xfc1bafc1&#45;&gt;0x905323a9:box</title>
<path fill="none" stroke="#666666" stroke-dasharray="5,2" d="M436.07,-303.8C427.7,-297.81 399.73,-276.79 384.5,-253 379.64,-245.41 383.77,-234.86 381.07,-230.06"/>
<polygon fill="#666666" stroke="#666666" points="381.83,-228.1 375.5,-227.5 380.07,-231.92 381.83,-228.1"/>
<text text-anchor="start" x="413.5" y="-275.6" font-family="Times,serif" font-weight="bold" font-size="13.00" fill="#666666"> ε </text>
</g>
<!-- 0xfc1bafc1&#45;&gt;0xc4d8bf04 -->
<g id="edge60" class="edge">
<title>0xfc1bafc1&#45;&gt;0xc4d8bf04:box</title>
<path fill="none" stroke="#666666" stroke-dasharray="5,2" d="M439.47,-303.1C441.95,-297.16 449.02,-281.47 458.5,-271 467.69,-260.85 474.92,-263.67 483.5,-253 489.42,-245.63 485.49,-234.6 488.86,-229.83"/>
<polygon fill="#666666" stroke="#666666" points="489.76,-231.73 494.5,-227.5 488.15,-227.85 489.76,-231.73"/>
<text text-anchor="start" x="458.5" y="-275.6" font-family="Times,serif" font-weight="bold" font-size="13.00" fill="#666666"> o3 </text>
</g>
<!-- 0x492497a5 -->
<g id="node51" class="node">
<title>0x492497a5</title>
<text text-anchor="start" x="27" y="-226.9" font-family="Times,serif" font-weight="bold" font-size="12.00">ye29</text>
<path fill="#f0fdf4" stroke="transparent" d="M8.83,-197.5C8.83,-197.5 69.17,-197.5 69.17,-197.5 73.33,-197.5 77.5,-201.67 77.5,-205.83 77.5,-205.83 77.5,-214.17 77.5,-214.17 77.5,-218.33 73.33,-222.5 69.17,-222.5 69.17,-222.5 8.83,-222.5 8.83,-222.5 4.67,-222.5 0.5,-218.33 0.5,-214.17 0.5,-214.17 0.5,-205.83 0.5,-205.83 0.5,-201.67 4.67,-197.5 8.83,-197.5"/>
<path fill="none" stroke="#166534" d="M8.83,-197.5C8.83,-197.5 69.17,-197.5 69.17,-197.5 73.33,-197.5 77.5,-201.67 77.5,-205.83 77.5,-205.83 77.5,-214.17 77.5,-214.17 77.5,-218.33 73.33,-222.5 69.17,-222.5 69.17,-222.5 8.83,-222.5 8.83,-222.5 4.67,-222.5 0.5,-218.33 0.5,-214.17 0.5,-214.17 0.5,-205.83 0.5,-205.83 0.5,-201.67 4.67,-197.5 8.83,-197.5"/>
<text text-anchor="start" x="5.5" y="-207.3" font-family="Times,serif" font-weight="bold" font-size="14.00">S4, A1, 5, 1</text>
</g>
<!-- 0xd25ae00c&#45;&gt;0x1545b75d -->
<g id="edge63" class="edge">
<title>0xd25ae00c&#45;&gt;0x1545b75d:box</title>
<path fill="none" stroke="#666666" stroke-dasharray="5,2" d="M140.01,-303.13C148.14,-290.31 186.05,-229.31 182.37,-213.34"/>
<polygon fill="#666666" stroke="#666666" points="183.51,-211.56 177.5,-209.5 180.92,-214.86 183.51,-211.56"/>
<text text-anchor="start" x="159.5" y="-275.6" font-family="Times,serif" font-weight="bold" font-size="13.00" fill="#666666"> ε </text>
</g>
<!-- 0xd25ae00c&#45;&gt;0x492497a5 -->
<g id="edge62" class="edge">
<title>0xd25ae00c&#45;&gt;0x492497a5:box</title>
<path fill="none" stroke="#666666" stroke-dasharray="5,2" d="M136.1,-303.83C127.83,-297.95 100.36,-277.25 87.5,-253 83.85,-246.12 86.5,-223.01 82.93,-213.57"/>
<polygon fill="#666666" stroke="#666666" points="84.34,-212.01 78.5,-209.5 81.5,-215.1 84.34,-212.01"/>
<text text-anchor="start" x="113.5" y="-275.6" font-family="Times,serif" font-weight="bold" font-size="13.00" fill="#666666"> o2 </text>
</g>
<!-- legend_node -->
<g id="node53" class="node">
<title>legend_node</title>
<polygon fill="#f0fdf4" stroke="transparent" points="530.5,-1004 530.5,-1021 550.5,-1021 550.5,-1004 530.5,-1004"/>
<polygon fill="none" stroke="#166534" points="530.5,-1004 530.5,-1021 550.5,-1021 550.5,-1004 530.5,-1004"/>
<text text-anchor="start" x="556.5" y="-1009.4" font-family="Times,serif" font-size="12.00">Attacker&#45;Exposed States</text>
<polygon fill="#fff1f2" stroke="transparent" points="530.5,-983 530.5,-1000 550.5,-1000 550.5,-983 530.5,-983"/>
<polygon fill="none" stroke="#9f1239" points="530.5,-983 530.5,-1000 550.5,-1000 550.5,-983 530.5,-983"/>
<text text-anchor="start" x="556.5" y="-988.4" font-family="Times,serif" font-size="12.00">CS&#45;Detected States</text>
</g>
</g>
</svg>
