<?xml version="1.0" encoding="UTF-8" standalone="no"?>
<!DOCTYPE svg PUBLIC "-//W3C//DTD SVG 1.1//EN"
 "http://www.w3.org/Graphics/SVG/1.1/DTD/svg11.dtd">
<!-- Generated by graphviz version 2.43.0 (0)
 -->
<!-- Title: %3 Pages: 1 -->
<svg width="1117pt" height="1053pt"
 viewBox="0.00 0.00 1116.50 1053.00" xmlns="http://www.w3.org/2000/svg" xmlns:xlink="http://www.w3.org/1999/xlink">
<g id="graph0" class="graph" transform="scale(1 1) rotate(0) translate(4 1049)">
<title>%3</title>
<polygon fill="white" stroke="transparent" points="-4,4 -4,-1049 1112.5,-1049 1112.5,4 -4,4"/>
<g id="clust1" class="cluster">
<title>cluster_legend</title>
<path fill="none" stroke="lightgrey" d="M646.5,-967C646.5,-967 806.5,-967 806.5,-967 812.5,-967 818.5,-973 818.5,-979 818.5,-979 818.5,-1025 818.5,-1025 818.5,-1031 812.5,-1037 806.5,-1037 806.5,-1037 646.5,-1037 646.5,-1037 640.5,-1037 634.5,-1031 634.5,-1025 634.5,-1025 634.5,-979 634.5,-979 634.5,-973 640.5,-967 646.5,-967"/>
</g>
<!-- 0x46ac07f4 -->
<g id="node1" class="node">
<title>0x46ac07f4</title>
<text text-anchor="start" x="573" y="-1012.4" font-family="Times,serif" font-weight="bold" font-size="12.00">ye0</text>
<path fill="#f8f9fa" stroke="transparent" d="M551.83,-983C551.83,-983 612.17,-983 612.17,-983 616.33,-983 620.5,-987.17 620.5,-991.33 620.5,-991.33 620.5,-999.67 620.5,-999.67 620.5,-1003.83 616.33,-1008 612.17,-1008 612.17,-1008 551.83,-1008 551.83,-1008 547.67,-1008 543.5,-1003.83 543.5,-999.67 543.5,-999.67 543.5,-991.33 543.5,-991.33 543.5,-987.17 547.67,-983 551.83,-983"/>
<path fill="none" stroke="#333333" d="M551.83,-983C551.83,-983 612.17,-983 612.17,-983 616.33,-983 620.5,-987.17 620.5,-991.33 620.5,-991.33 620.5,-999.67 620.5,-999.67 620.5,-1003.83 616.33,-1008 612.17,-1008 612.17,-1008 551.83,-1008 551.83,-1008 547.67,-1008 543.5,-1003.83 543.5,-999.67 543.5,-999.67 543.5,-991.33 543.5,-991.33 543.5,-987.17 547.67,-983 551.83,-983"/>
<text text-anchor="start" x="548.5" y="-992.8" font-family="Times,serif" font-weight="bold" font-size="14.00">S1, A7, 0, 0</text>
</g>
<!-- 0xe133e2c2 -->
<g id="node3" class="node">
<title>0xe133e2c2</title>
<ellipse fill="white" stroke="black" stroke-width="0.8" cx="448.5" cy="-921.5" rx="3.5" ry="3.5"/>
</g>
<!-- 0x46ac07f4&#45;&gt;0xe133e2c2 -->
<g id="edge1" class="edge">
<title>0x46ac07f4:box&#45;&gt;0xe133e2c2</title>
<path fill="none" stroke="#22c55e" d="M542.5,-995C500.28,-995 465.44,-948.58 453.2,-930.03"/>
<polygon fill="#22c55e" stroke="#22c55e" points="454.94,-928.84 449.94,-924.91 451.4,-931.1 454.94,-928.84"/>
<text text-anchor="start" x="474.5" y="-947.6" font-family="Times,serif" font-weight="bold" font-size="13.00" fill="#22c55e"> o1 </text>
</g>
<!-- 0x324c1813 -->
<g id="node7" class="node">
<title>0x324c1813</title>
<ellipse fill="white" stroke="black" stroke-width="0.8" cx="582.5" cy="-921.5" rx="3.5" ry="3.5"/>
</g>
<!-- 0x46ac07f4&#45;&gt;0x324c1813 -->
<g id="edge3" class="edge">
<title>0x46ac07f4:box&#45;&gt;0x324c1813</title>
<path fill="none" stroke="#3b82f6" d="M582.5,-982C582.5,-964.04 582.5,-943.02 582.5,-931.39"/>
<polygon fill="#3b82f6" stroke="#3b82f6" points="584.6,-931.23 582.5,-925.23 580.4,-931.23 584.6,-931.23"/>
<text text-anchor="start" x="582.5" y="-947.6" font-family="Times,serif" font-weight="bold" font-size="13.00" fill="#3b82f6"> o2 </text>
</g>
<!-- 0xbba7dc50 -->
<g id="node11" class="node">
<title>0xbba7dc50</title>
<ellipse fill="white" stroke="black" stroke-width="0.8" cx="699.5" cy="-631.5" rx="3.5" ry="3.5"/>
</g>
<!-- 0x46ac07f4&#45;&gt;0xbba7dc50 -->
<g id="edge7" class="edge">
<title>0x46ac07f4:box&#45;&gt;0xbba7dc50</title>
<path fill="none" stroke="#3b82f6" d="M621.5,-995C634.44,-995 620.66,-976.45 629.5,-967 669.51,-924.25 753.5,-981.05 753.5,-922.5 753.5,-922.5 753.5,-922.5 753.5,-703 753.5,-673.05 722.41,-647.96 707.41,-637.6"/>
<polygon fill="#3b82f6" stroke="#3b82f6" points="708.27,-635.65 702.1,-634.09 705.95,-639.15 708.27,-635.65"/>
<text text-anchor="start" x="753.5" y="-802.6" font-family="Times,serif" font-weight="bold" font-size="13.00" fill="#3b82f6"> o3 </text>
</g>
<!-- 0x8e7109f3 -->
<g id="node2" class="node">
<title>0x8e7109f3</title>
<text text-anchor="start" x="375" y="-859.4" font-family="Times,serif" font-weight="bold" font-size="12.00">ye1</text>
<path fill="#f8f9fa" stroke="transparent" d="M353.83,-830C353.83,-830 414.17,-830 414.17,-830 418.33,-830 422.5,-834.17 422.5,-838.33 422.5,-838.33 422.5,-846.67 422.5,-846.67 422.5,-850.83 418.33,-855 414.17,-855 414.17,-855 353.83,-855 353.83,-855 349.67,-855 345.5,-850.83 345.5,-846.67 345.5,-846.67 345.5,-838.33 345.5,-838.33 345.5,-834.17 349.67,-830 353.83,-830"/>
<path fill="none" stroke="#333333" d="M353.83,-830C353.83,-830 414.17,-830 414.17,-830 418.33,-830 422.5,-834.17 422.5,-838.33 422.5,-838.33 422.5,-846.67 422.5,-846.67 422.5,-850.83 418.33,-855 414.17,-855 414.17,-855 353.83,-855 353.83,-855 349.67,-855 345.5,-850.83 345.5,-846.67 345.5,-846.67 345.5,-838.33 345.5,-838.33 345.5,-834.17 349.67,-830 353.83,-830"/>
<text text-anchor="start" x="350.5" y="-839.8" font-family="Times,serif" font-weight="bold" font-size="14.00">S2, A7, 1, 0</text>
</g>
<!-- 0x167445a2 -->
<g id="node13" class="node">
<title>0x167445a2</title>
<ellipse fill="white" stroke="black" stroke-width="0.8" cx="384.5" cy="-776.5" rx="3.5" ry="3.5"/>
</g>
<!-- 0x8e7109f3&#45;&gt;0x167445a2 -->
<g id="edge11" class="edge">
<title>0x8e7109f3:box&#45;&gt;0x167445a2</title>
<path fill="none" stroke="#4b5563" d="M384.5,-830C384.5,-814.74 384.5,-797 384.5,-786.53"/>
<polygon fill="#4b5563" stroke="#4b5563" points="386.6,-786.35 384.5,-780.35 382.4,-786.35 386.6,-786.35"/>
<text text-anchor="start" x="384.5" y="-802.6" font-family="Times,serif" font-weight="bold" font-size="13.00" fill="#4b5563"> uo2 </text>
</g>
<!-- 0xe133e2c2&#45;&gt;0x8e7109f3 -->
<g id="edge2" class="edge">
<title>0xe133e2c2&#45;&gt;0x8e7109f3:box</title>
<path fill="none" stroke="#666666" stroke-dasharray="5,2" d="M447.7,-917.89C444.33,-906.82 431.13,-863.64 425.76,-847.84"/>
<polygon fill="#666666" stroke="#666666" points="427.62,-846.84 423.5,-842 423.71,-848.35 427.62,-846.84"/>
<text text-anchor="start" x="442.5" y="-890.6" font-family="Times,serif" font-weight="bold" font-size="13.00" fill="#666666"> o1 </text>
</g>
<!-- 0x640c8300 -->
<g id="node4" class="node">
<title>0x640c8300</title>
<text text-anchor="start" x="474" y="-859.4" font-family="Times,serif" font-weight="bold" font-size="12.00">ye2</text>
<path fill="#f8f9fa" stroke="transparent" d="M452.83,-830C452.83,-830 513.17,-830 513.17,-830 517.33,-830 521.5,-834.17 521.5,-838.33 521.5,-838.33 521.5,-846.67 521.5,-846.67 521.5,-850.83 517.33,-855 513.17,-855 513.17,-855 452.83,-855 452.83,-855 448.67,-855 444.5,-850.83 444.5,-846.67 444.5,-846.67 444.5,-838.33 444.5,-838.33 444.5,-834.17 448.67,-830 452.83,-830"/>
<path fill="none" stroke="#333333" d="M452.83,-830C452.83,-830 513.17,-830 513.17,-830 517.33,-830 521.5,-834.17 521.5,-838.33 521.5,-838.33 521.5,-846.67 521.5,-846.67 521.5,-850.83 517.33,-855 513.17,-855 513.17,-855 452.83,-855 452.83,-855 448.67,-855 444.5,-850.83 444.5,-846.67 444.5,-846.67 444.5,-838.33 444.5,-838.33 444.5,-834.17 448.67,-830 452.83,-830"/>
<text text-anchor="start" x="449.5" y="-839.8" font-family="Times,serif" font-weight="bold" font-size="14.00">S1, A0, 3, 0</text>
</g>
<!-- 0x6cdc0eb -->
<g id="node15" class="node">
<title>0x6cdc0eb</title>
<ellipse fill="white" stroke="black" stroke-width="0.8" cx="483.5" cy="-776.5" rx="3.5" ry="3.5"/>
</g>
<!-- 0x640c8300&#45;&gt;0x6cdc0eb -->
<g id="edge13" class="edge">
<title>0x640c8300:box&#45;&gt;0x6cdc0eb</title>
<path fill="none" stroke="#ef4444" d="M483.5,-830C483.5,-814.74 483.5,-797 483.5,-786.53"/>
<polygon fill="#ef4444" stroke="#ef4444" points="485.6,-786.35 483.5,-780.35 481.4,-786.35 485.6,-786.35"/>
<text text-anchor="start" x="483.5" y="-802.6" font-family="Times,serif" font-weight="bold" font-size="13.00" fill="#ef4444"> o4 </text>
</g>
<!-- 0x14432f18 -->
<g id="node5" class="node">
<title>0x14432f18</title>
<text text-anchor="start" x="672" y="-859.4" font-family="Times,serif" font-weight="bold" font-size="12.00">ye3</text>
<path fill="#f8f9fa" stroke="transparent" d="M650.83,-830C650.83,-830 711.17,-830 711.17,-830 715.33,-830 719.5,-834.17 719.5,-838.33 719.5,-838.33 719.5,-846.67 719.5,-846.67 719.5,-850.83 715.33,-855 711.17,-855 711.17,-855 650.83,-855 650.83,-855 646.67,-855 642.5,-850.83 642.5,-846.67 642.5,-846.67 642.5,-838.33 642.5,-838.33 642.5,-834.17 646.67,-830 650.83,-830"/>
<path fill="none" stroke="#333333" d="M650.83,-830C650.83,-830 711.17,-830 711.17,-830 715.33,-830 719.5,-834.17 719.5,-838.33 719.5,-838.33 719.5,-846.67 719.5,-846.67 719.5,-850.83 715.33,-855 711.17,-855 711.17,-855 650.83,-855 650.83,-855 646.67,-855 642.5,-850.83 642.5,-846.67 642.5,-846.67 642.5,-838.33 642.5,-838.33 642.5,-834.17 646.67,-830 650.83,-830"/>
<text text-anchor="start" x="647.5" y="-839.8" font-family="Times,serif" font-weight="bold" font-size="14.00">S8, A0, 3, 2</text>
</g>
<!-- 0xb7b1f2c3 -->
<g id="node17" class="node">
<title>0xb7b1f2c3</title>
<ellipse fill="white" stroke="black" stroke-width="0.8" cx="681.5" cy="-776.5" rx="3.5" ry="3.5"/>
</g>
<!-- 0x14432f18&#45;&gt;0xb7b1f2c3 -->
<g id="edge15" class="edge">
<title>0x14432f18:box&#45;&gt;0xb7b1f2c3</title>
<path fill="none" stroke="#ef4444" d="M681.5,-830C681.5,-814.74 681.5,-797 681.5,-786.53"/>
<polygon fill="#ef4444" stroke="#ef4444" points="683.6,-786.35 681.5,-780.35 679.4,-786.35 683.6,-786.35"/>
<text text-anchor="start" x="681.5" y="-802.6" font-family="Times,serif" font-weight="bold" font-size="13.00" fill="#ef4444"> o4 </text>
</g>
<!-- 0x18921e5b -->
<g id="node6" class="node">
<title>0x18921e5b</title>
<text text-anchor="start" x="573" y="-859.4" font-family="Times,serif" font-weight="bold" font-size="12.00">ye4</text>
<path fill="#f8f9fa" stroke="transparent" d="M551.83,-830C551.83,-830 612.17,-830 612.17,-830 616.33,-830 620.5,-834.17 620.5,-838.33 620.5,-838.33 620.5,-846.67 620.5,-846.67 620.5,-850.83 616.33,-855 612.17,-855 612.17,-855 551.83,-855 551.83,-855 547.67,-855 543.5,-850.83 543.5,-846.67 543.5,-846.67 543.5,-838.33 543.5,-838.33 543.5,-834.17 547.67,-830 551.83,-830"/>
<path fill="none" stroke="#333333" d="M551.83,-830C551.83,-830 612.17,-830 612.17,-830 616.33,-830 620.5,-834.17 620.5,-838.33 620.5,-838.33 620.5,-846.67 620.5,-846.67 620.5,-850.83 616.33,-855 612.17,-855 612.17,-855 551.83,-855 551.83,-855 547.67,-855 543.5,-850.83 543.5,-846.67 543.5,-846.67 543.5,-838.33 543.5,-838.33 543.5,-834.17 547.67,-830 551.83,-830"/>
<text text-anchor="start" x="548.5" y="-839.8" font-family="Times,serif" font-weight="bold" font-size="14.00">S7, A0, 3, 1</text>
</g>
<!-- 0xfc30c96c -->
<g id="node19" class="node">
<title>0xfc30c96c</title>
<ellipse fill="white" stroke="black" stroke-width="0.8" cx="582.5" cy="-776.5" rx="3.5" ry="3.5"/>
</g>
<!-- 0x18921e5b&#45;&gt;0xfc30c96c -->
<g id="edge17" class="edge">
<title>0x18921e5b:box&#45;&gt;0xfc30c96c</title>
<path fill="none" stroke="#ef4444" d="M582.5,-830C582.5,-814.74 582.5,-797 582.5,-786.53"/>
<polygon fill="#ef4444" stroke="#ef4444" points="584.6,-786.35 582.5,-780.35 580.4,-786.35 584.6,-786.35"/>
<text text-anchor="start" x="582.5" y="-802.6" font-family="Times,serif" font-weight="bold" font-size="13.00" fill="#ef4444"> o4 </text>
</g>
<!-- 0x324c1813&#45;&gt;0x640c8300 -->
<g id="edge4" class="edge">
<title>0x324c1813&#45;&gt;0x640c8300:box</title>
<path fill="none" stroke="#666666" stroke-dasharray="5,2" d="M580.21,-918.77C572.31,-912.68 545.89,-891.37 531.5,-868 526.69,-860.19 530.91,-849.47 528.16,-844.6"/>
<polygon fill="#666666" stroke="#666666" points="528.83,-842.59 522.5,-842 527.08,-846.41 528.83,-842.59"/>
<text text-anchor="start" x="558.5" y="-890.6" font-family="Times,serif" font-weight="bold" font-size="13.00" fill="#666666"> ε </text>
</g>
<!-- 0x324c1813&#45;&gt;0x14432f18 -->
<g id="edge5" class="edge">
<title>0x324c1813&#45;&gt;0x14432f18:box</title>
<path fill="none" stroke="#666666" stroke-dasharray="5,2" d="M585.86,-920.09C594.55,-918.84 617.94,-914.24 629.5,-900 636.37,-891.54 631.06,-857.31 636.51,-845.8"/>
<polygon fill="#666666" stroke="#666666" points="638,-847.31 641.5,-842 635.46,-843.97 638,-847.31"/>
<text text-anchor="start" x="632.5" y="-890.6" font-family="Times,serif" font-weight="bold" font-size="13.00" fill="#666666"> o2 </text>
</g>
<!-- 0x324c1813&#45;&gt;0x18921e5b -->
<g id="edge6" class="edge">
<title>0x324c1813&#45;&gt;0x18921e5b:box</title>
<path fill="none" stroke="#666666" stroke-dasharray="5,2" d="M584.28,-918.12C591.65,-908.26 619.48,-870.95 620.5,-868 623.27,-859.97 628.75,-849.71 626.88,-844.83"/>
<polygon fill="#666666" stroke="#666666" points="627.79,-842.93 621.5,-842 625.83,-846.65 627.79,-842.93"/>
<text text-anchor="start" x="608.5" y="-890.6" font-family="Times,serif" font-weight="bold" font-size="13.00" fill="#666666"> o3 </text>
</g>
<!-- 0xc6588f2d -->
<g id="node8" class="node">
<title>0xc6588f2d</title>
<text text-anchor="start" x="488" y="-551.9" font-family="Times,serif" font-weight="bold" font-size="12.00">ye5</text>
<path fill="#f8f9fa" stroke="transparent" d="M466.83,-522.5C466.83,-522.5 527.17,-522.5 527.17,-522.5 531.33,-522.5 535.5,-526.67 535.5,-530.83 535.5,-530.83 535.5,-539.17 535.5,-539.17 535.5,-543.33 531.33,-547.5 527.17,-547.5 527.17,-547.5 466.83,-547.5 466.83,-547.5 462.67,-547.5 458.5,-543.33 458.5,-539.17 458.5,-539.17 458.5,-530.83 458.5,-530.83 458.5,-526.67 462.67,-522.5 466.83,-522.5"/>
<path fill="none" stroke="#333333" d="M466.83,-522.5C466.83,-522.5 527.17,-522.5 527.17,-522.5 531.33,-522.5 535.5,-526.67 535.5,-530.83 535.5,-530.83 535.5,-539.17 535.5,-539.17 535.5,-543.33 531.33,-547.5 527.17,-547.5 527.17,-547.5 466.83,-547.5 466.83,-547.5 462.67,-547.5 458.5,-543.33 458.5,-539.17 458.5,-539.17 458.5,-530.83 458.5,-530.83 458.5,-526.67 462.67,-522.5 466.83,-522.5"/>
<text text-anchor="start" x="463.5" y="-532.3" font-family="Times,serif" font-weight="bold" font-size="14.00">S1, A6, 7, 0</text>
</g>
<!-- 0x7cfdfcd9 -->
<g id="node23" class="node">
<title>0x7cfdfcd9</title>
<ellipse fill="white" stroke="black" stroke-width="0.8" cx="528.5" cy="-451.5" rx="3.5" ry="3.5"/>
</g>
<!-- 0xc6588f2d&#45;&gt;0x7cfdfcd9 -->
<g id="edge19" class="edge">
<title>0xc6588f2d:box&#45;&gt;0x7cfdfcd9</title>
<path fill="none" stroke="#3b82f6" d="M497.5,-521.5C497.5,-497.12 513.8,-471.82 522.76,-459.75"/>
<polygon fill="#3b82f6" stroke="#3b82f6" points="524.46,-460.98 526.47,-454.95 521.14,-458.42 524.46,-460.98"/>
<text text-anchor="start" x="513.5" y="-477.6" font-family="Times,serif" font-weight="bold" font-size="13.00" fill="#3b82f6"> o3 </text>
</g>
<!-- 0xf75f5c15 -->
<g id="node25" class="node">
<title>0xf75f5c15</title>
<ellipse fill="white" stroke="black" stroke-width="0.8" cx="390.5" cy="-451.5" rx="3.5" ry="3.5"/>
</g>
<!-- 0xc6588f2d&#45;&gt;0xf75f5c15 -->
<g id="edge23" class="edge">
<title>0xc6588f2d:box&#45;&gt;0xf75f5c15</title>
<path fill="none" stroke="#4b5563" d="M457.5,-534.5C456.3,-534.5 412.64,-480.14 396.45,-459.94"/>
<polygon fill="#4b5563" stroke="#4b5563" points="397.78,-458.24 392.39,-454.87 394.5,-460.86 397.78,-458.24"/>
<text text-anchor="start" x="417.5" y="-477.6" font-family="Times,serif" font-weight="bold" font-size="13.00" fill="#4b5563"> uo1 </text>
</g>
<!-- 0x5cb8417a -->
<g id="node9" class="node">
<title>0x5cb8417a</title>
<text text-anchor="start" x="714" y="-551.9" font-family="Times,serif" font-weight="bold" font-size="12.00">ye6</text>
<path fill="#f8f9fa" stroke="transparent" d="M692.83,-522.5C692.83,-522.5 753.17,-522.5 753.17,-522.5 757.33,-522.5 761.5,-526.67 761.5,-530.83 761.5,-530.83 761.5,-539.17 761.5,-539.17 761.5,-543.33 757.33,-547.5 753.17,-547.5 753.17,-547.5 692.83,-547.5 692.83,-547.5 688.67,-547.5 684.5,-543.33 684.5,-539.17 684.5,-539.17 684.5,-530.83 684.5,-530.83 684.5,-526.67 688.67,-522.5 692.83,-522.5"/>
<path fill="none" stroke="#333333" d="M692.83,-522.5C692.83,-522.5 753.17,-522.5 753.17,-522.5 757.33,-522.5 761.5,-526.67 761.5,-530.83 761.5,-530.83 761.5,-539.17 761.5,-539.17 761.5,-543.33 757.33,-547.5 753.17,-547.5 753.17,-547.5 692.83,-547.5 692.83,-547.5 688.67,-547.5 684.5,-543.33 684.5,-539.17 684.5,-539.17 684.5,-530.83 684.5,-530.83 684.5,-526.67 688.67,-522.5 692.83,-522.5"/>
<text text-anchor="start" x="689.5" y="-532.3" font-family="Times,serif" font-weight="bold" font-size="14.00">S8, A6, 7, 2</text>
</g>
<!-- 0xb734b6c0 -->
<g id="node27" class="node">
<title>0xb734b6c0</title>
<ellipse fill="white" stroke="black" stroke-width="0.8" cx="809.5" cy="-451.5" rx="3.5" ry="3.5"/>
</g>
<!-- 0x5cb8417a&#45;&gt;0xb734b6c0 -->
<g id="edge25" class="edge">
<title>0x5cb8417a:box&#45;&gt;0xb734b6c0</title>
<path fill="none" stroke="#3b82f6" d="M762.5,-534.5C795.97,-534.5 805.94,-482.45 808.61,-461.29"/>
<polygon fill="#3b82f6" stroke="#3b82f6" points="810.71,-461.42 809.28,-455.23 806.53,-460.96 810.71,-461.42"/>
<text text-anchor="start" x="806.5" y="-477.6" font-family="Times,serif" font-weight="bold" font-size="13.00" fill="#3b82f6"> o3 </text>
</g>
<!-- 0x866dba40 -->
<g id="node29" class="node">
<title>0x866dba40</title>
<ellipse fill="white" stroke="black" stroke-width="0.8" cx="711.5" cy="-451.5" rx="3.5" ry="3.5"/>
</g>
<!-- 0x5cb8417a&#45;&gt;0x866dba40 -->
<g id="edge29" class="edge">
<title>0x5cb8417a:box&#45;&gt;0x866dba40</title>
<path fill="none" stroke="#4b5563" d="M723.5,-521.5C723.5,-499.55 717.53,-474.23 714.01,-461.22"/>
<polygon fill="#4b5563" stroke="#4b5563" points="715.94,-460.31 712.29,-455.1 711.89,-461.45 715.94,-460.31"/>
<text text-anchor="start" x="719.5" y="-477.6" font-family="Times,serif" font-weight="bold" font-size="13.00" fill="#4b5563"> uo1 </text>
</g>
<!-- 0x7ade2a88 -->
<g id="node10" class="node">
<title>0x7ade2a88</title>
<text text-anchor="start" x="608" y="-551.9" font-family="Times,serif" font-weight="bold" font-size="12.00">ye7</text>
<path fill="#f8f9fa" stroke="transparent" d="M586.83,-522.5C586.83,-522.5 647.17,-522.5 647.17,-522.5 651.33,-522.5 655.5,-526.67 655.5,-530.83 655.5,-530.83 655.5,-539.17 655.5,-539.17 655.5,-543.33 651.33,-547.5 647.17,-547.5 647.17,-547.5 586.83,-547.5 586.83,-547.5 582.67,-547.5 578.5,-543.33 578.5,-539.17 578.5,-539.17 578.5,-530.83 578.5,-530.83 578.5,-526.67 582.67,-522.5 586.83,-522.5"/>
<path fill="none" stroke="#333333" d="M586.83,-522.5C586.83,-522.5 647.17,-522.5 647.17,-522.5 651.33,-522.5 655.5,-526.67 655.5,-530.83 655.5,-530.83 655.5,-539.17 655.5,-539.17 655.5,-543.33 651.33,-547.5 647.17,-547.5 647.17,-547.5 586.83,-547.5 586.83,-547.5 582.67,-547.5 578.5,-543.33 578.5,-539.17 578.5,-539.17 578.5,-530.83 578.5,-530.83 578.5,-526.67 582.67,-522.5 586.83,-522.5"/>
<text text-anchor="start" x="583.5" y="-532.3" font-family="Times,serif" font-weight="bold" font-size="14.00">S7, A6, 7, 1</text>
</g>
<!-- 0xecc26496 -->
<g id="node31" class="node">
<title>0xecc26496</title>
<ellipse fill="white" stroke="black" stroke-width="0.8" cx="617.5" cy="-451.5" rx="3.5" ry="3.5"/>
</g>
<!-- 0x7ade2a88&#45;&gt;0xecc26496 -->
<g id="edge31" class="edge">
<title>0x7ade2a88:box&#45;&gt;0xecc26496</title>
<path fill="none" stroke="#4b5563" d="M617.5,-521.5C617.5,-499.87 617.5,-474.43 617.5,-461.31"/>
<polygon fill="#4b5563" stroke="#4b5563" points="619.6,-461.13 617.5,-455.13 615.4,-461.13 619.6,-461.13"/>
<text text-anchor="start" x="618.5" y="-477.6" font-family="Times,serif" font-weight="bold" font-size="13.00" fill="#4b5563"> uo1 </text>
</g>
<!-- 0xbba7dc50&#45;&gt;0xc6588f2d -->
<g id="edge8" class="edge">
<title>0xbba7dc50&#45;&gt;0xc6588f2d:box</title>
<path fill="none" stroke="#666666" stroke-dasharray="5,2" d="M696.51,-629.44C677.84,-622.8 577.77,-586.96 566.5,-578 549.98,-564.87 557.89,-540.22 542.63,-535.35"/>
<polygon fill="#666666" stroke="#666666" points="542.73,-533.24 536.5,-534.5 542.16,-537.4 542.73,-533.24"/>
<text text-anchor="start" x="640.5" y="-600.6" font-family="Times,serif" font-weight="bold" font-size="13.00" fill="#666666"> ε </text>
</g>
<!-- 0xbba7dc50&#45;&gt;0x5cb8417a -->
<g id="edge9" class="edge">
<title>0xbba7dc50&#45;&gt;0x5cb8417a:box</title>
<path fill="none" stroke="#666666" stroke-dasharray="5,2" d="M701.85,-628.49C717.07,-615.41 800.07,-542.47 768.57,-535.1"/>
<polygon fill="#666666" stroke="#666666" points="768.68,-533 762.5,-534.5 768.26,-537.18 768.68,-533"/>
<text text-anchor="start" x="735.5" y="-600.6" font-family="Times,serif" font-weight="bold" font-size="13.00" fill="#666666"> o2 </text>
</g>
<!-- 0xbba7dc50&#45;&gt;0x7ade2a88 -->
<g id="edge10" class="edge">
<title>0xbba7dc50&#45;&gt;0x7ade2a88:box</title>
<path fill="none" stroke="#666666" stroke-dasharray="5,2" d="M698.23,-628.13C694.33,-620.78 682.22,-597.72 673.5,-578 666.09,-561.24 674.69,-540.17 662.53,-535.46"/>
<polygon fill="#666666" stroke="#666666" points="662.76,-533.37 656.5,-534.5 662.09,-537.52 662.76,-533.37"/>
<text text-anchor="start" x="687.5" y="-600.6" font-family="Times,serif" font-weight="bold" font-size="13.00" fill="#666666"> o3 </text>
</g>
<!-- 0x77c1714c -->
<g id="node12" class="node">
<title>0x77c1714c</title>
<text text-anchor="start" x="375" y="-714.4" font-family="Times,serif" font-weight="bold" font-size="12.00">ye8</text>
<path fill="#f8f9fa" stroke="transparent" d="M353.83,-685C353.83,-685 414.17,-685 414.17,-685 418.33,-685 422.5,-689.17 422.5,-693.33 422.5,-693.33 422.5,-701.67 422.5,-701.67 422.5,-705.83 418.33,-710 414.17,-710 414.17,-710 353.83,-710 353.83,-710 349.67,-710 345.5,-705.83 345.5,-701.67 345.5,-701.67 345.5,-693.33 345.5,-693.33 345.5,-689.17 349.67,-685 353.83,-685"/>
<path fill="none" stroke="#333333" d="M353.83,-685C353.83,-685 414.17,-685 414.17,-685 418.33,-685 422.5,-689.17 422.5,-693.33 422.5,-693.33 422.5,-701.67 422.5,-701.67 422.5,-705.83 418.33,-710 414.17,-710 414.17,-710 353.83,-710 353.83,-710 349.67,-710 345.5,-705.83 345.5,-701.67 345.5,-701.67 345.5,-693.33 345.5,-693.33 345.5,-689.17 349.67,-685 353.83,-685"/>
<text text-anchor="start" x="350.5" y="-694.8" font-family="Times,serif" font-weight="bold" font-size="14.00">S2, A7, 2, 0</text>
</g>
<!-- 0x54a95324 -->
<g id="node33" class="node">
<title>0x54a95324</title>
<ellipse fill="white" stroke="black" stroke-width="0.8" cx="384.5" cy="-631.5" rx="3.5" ry="3.5"/>
</g>
<!-- 0x77c1714c&#45;&gt;0x54a95324 -->
<g id="edge33" class="edge">
<title>0x77c1714c:box&#45;&gt;0x54a95324</title>
<path fill="none" stroke="#22c55e" d="M384.5,-685C384.5,-669.74 384.5,-652 384.5,-641.53"/>
<polygon fill="#22c55e" stroke="#22c55e" points="386.6,-641.35 384.5,-635.35 382.4,-641.35 386.6,-641.35"/>
<text text-anchor="start" x="384.5" y="-657.6" font-family="Times,serif" font-weight="bold" font-size="13.00" fill="#22c55e"> o1 </text>
</g>
<!-- 0x167445a2&#45;&gt;0x77c1714c -->
<g id="edge12" class="edge">
<title>0x167445a2&#45;&gt;0x77c1714c:box</title>
<path fill="none" stroke="#666666" stroke-dasharray="5,2" d="M386.79,-773.38C393.76,-766.75 414.71,-745.55 422.5,-723 425.27,-714.97 430.75,-704.71 428.88,-699.83"/>
<polygon fill="#666666" stroke="#666666" points="429.79,-697.93 423.5,-697 427.83,-701.65 429.79,-697.93"/>
<text text-anchor="start" x="413.5" y="-745.6" font-family="Times,serif" font-weight="bold" font-size="13.00" fill="#666666"> uo2 </text>
</g>
<!-- 0xdd0827d4 -->
<g id="node14" class="node">
<title>0xdd0827d4</title>
<text text-anchor="start" x="474" y="-714.4" font-family="Times,serif" font-weight="bold" font-size="12.00">ye9</text>
<path fill="#f8f9fa" stroke="transparent" d="M452.83,-685C452.83,-685 513.17,-685 513.17,-685 517.33,-685 521.5,-689.17 521.5,-693.33 521.5,-693.33 521.5,-701.67 521.5,-701.67 521.5,-705.83 517.33,-710 513.17,-710 513.17,-710 452.83,-710 452.83,-710 448.67,-710 444.5,-705.83 444.5,-701.67 444.5,-701.67 444.5,-693.33 444.5,-693.33 444.5,-689.17 448.67,-685 452.83,-685"/>
<path fill="none" stroke="#333333" d="M452.83,-685C452.83,-685 513.17,-685 513.17,-685 517.33,-685 521.5,-689.17 521.5,-693.33 521.5,-693.33 521.5,-701.67 521.5,-701.67 521.5,-705.83 517.33,-710 513.17,-710 513.17,-710 452.83,-710 452.83,-710 448.67,-710 444.5,-705.83 444.5,-701.67 444.5,-701.67 444.5,-693.33 444.5,-693.33 444.5,-689.17 448.67,-685 452.83,-685"/>
<text text-anchor="start" x="449.5" y="-694.8" font-family="Times,serif" font-weight="bold" font-size="14.00">S1, A6, 6, 0</text>
</g>
<!-- 0xa26184d -->
<g id="node34" class="node">
<title>0xa26184d</title>
<ellipse fill="white" stroke="black" stroke-width="0.8" cx="488.5" cy="-631.5" rx="3.5" ry="3.5"/>
</g>
<!-- 0xdd0827d4&#45;&gt;0xa26184d -->
<g id="edge35" class="edge">
<title>0xdd0827d4:box&#45;&gt;0xa26184d</title>
<path fill="none" stroke="#4b5563" d="M483.5,-685C483.5,-669.68 485.64,-651.95 487.12,-641.51"/>
<polygon fill="#4b5563" stroke="#4b5563" points="489.23,-641.58 488.04,-635.34 485.08,-640.96 489.23,-641.58"/>
<text text-anchor="start" x="486.5" y="-657.6" font-family="Times,serif" font-weight="bold" font-size="13.00" fill="#4b5563"> uo3 </text>
</g>
<!-- 0x6cdc0eb&#45;&gt;0xdd0827d4 -->
<g id="edge14" class="edge">
<title>0x6cdc0eb&#45;&gt;0xdd0827d4:box</title>
<path fill="none" stroke="#666666" stroke-dasharray="5,2" d="M485.79,-773.38C492.76,-766.75 513.71,-745.55 521.5,-723 524.27,-714.97 529.75,-704.71 527.88,-699.83"/>
<polygon fill="#666666" stroke="#666666" points="528.79,-697.93 522.5,-697 526.83,-701.65 528.79,-697.93"/>
<text text-anchor="start" x="512.5" y="-745.6" font-family="Times,serif" font-weight="bold" font-size="13.00" fill="#666666"> o4 </text>
</g>
<!-- 0x78a936d6 -->
<g id="node16" class="node">
<title>0x78a936d6</title>
<text text-anchor="start" x="669" y="-714.4" font-family="Times,serif" font-weight="bold" font-size="12.00">ye10</text>
<path fill="#f8f9fa" stroke="transparent" d="M650.83,-685C650.83,-685 711.17,-685 711.17,-685 715.33,-685 719.5,-689.17 719.5,-693.33 719.5,-693.33 719.5,-701.67 719.5,-701.67 719.5,-705.83 715.33,-710 711.17,-710 711.17,-710 650.83,-710 650.83,-710 646.67,-710 642.5,-705.83 642.5,-701.67 642.5,-701.67 642.5,-693.33 642.5,-693.33 642.5,-689.17 646.67,-685 650.83,-685"/>
<path fill="none" stroke="#333333" d="M650.83,-685C650.83,-685 711.17,-685 711.17,-685 715.33,-685 719.5,-689.17 719.5,-693.33 719.5,-693.33 719.5,-701.67 719.5,-701.67 719.5,-705.83 715.33,-710 711.17,-710 711.17,-710 650.83,-710 650.83,-710 646.67,-710 642.5,-705.83 642.5,-701.67 642.5,-701.67 642.5,-693.33 642.5,-693.33 642.5,-689.17 646.67,-685 650.83,-685"/>
<text text-anchor="start" x="647.5" y="-694.8" font-family="Times,serif" font-weight="bold" font-size="14.00">S8, A2, 6, 2</text>
</g>
<!-- 0xb7b1f2c3&#45;&gt;0x78a936d6 -->
<g id="edge16" class="edge">
<title>0xb7b1f2c3&#45;&gt;0x78a936d6:box</title>
<path fill="none" stroke="#666666" stroke-dasharray="5,2" d="M683.71,-773.24C695.26,-761.27 747.38,-705.66 726.53,-697.9"/>
<polygon fill="#666666" stroke="#666666" points="726.74,-695.81 720.5,-697 726.12,-699.96 726.74,-695.81"/>
<text text-anchor="start" x="709.5" y="-745.6" font-family="Times,serif" font-weight="bold" font-size="13.00" fill="#666666"> o4 </text>
</g>
<!-- 0x918dc32f -->
<g id="node18" class="node">
<title>0x918dc32f</title>
<text text-anchor="start" x="570" y="-714.4" font-family="Times,serif" font-weight="bold" font-size="12.00">ye11</text>
<path fill="#f8f9fa" stroke="transparent" d="M551.83,-685C551.83,-685 612.17,-685 612.17,-685 616.33,-685 620.5,-689.17 620.5,-693.33 620.5,-693.33 620.5,-701.67 620.5,-701.67 620.5,-705.83 616.33,-710 612.17,-710 612.17,-710 551.83,-710 551.83,-710 547.67,-710 543.5,-705.83 543.5,-701.67 543.5,-701.67 543.5,-693.33 543.5,-693.33 543.5,-689.17 547.67,-685 551.83,-685"/>
<path fill="none" stroke="#333333" d="M551.83,-685C551.83,-685 612.17,-685 612.17,-685 616.33,-685 620.5,-689.17 620.5,-693.33 620.5,-693.33 620.5,-701.67 620.5,-701.67 620.5,-705.83 616.33,-710 612.17,-710 612.17,-710 551.83,-710 551.83,-710 547.67,-710 543.5,-705.83 543.5,-701.67 543.5,-701.67 543.5,-693.33 543.5,-693.33 543.5,-689.17 547.67,-685 551.83,-685"/>
<text text-anchor="start" x="548.5" y="-694.8" font-family="Times,serif" font-weight="bold" font-size="14.00">S7, A6, 6, 1</text>
</g>
<!-- 0xe9933314 -->
<g id="node35" class="node">
<title>0xe9933314</title>
<ellipse fill="white" stroke="black" stroke-width="0.8" cx="582.5" cy="-631.5" rx="3.5" ry="3.5"/>
</g>
<!-- 0x918dc32f&#45;&gt;0xe9933314 -->
<g id="edge37" class="edge">
<title>0x918dc32f:box&#45;&gt;0xe9933314</title>
<path fill="none" stroke="#4b5563" d="M582.5,-685C582.5,-669.74 582.5,-652 582.5,-641.53"/>
<polygon fill="#4b5563" stroke="#4b5563" points="584.6,-641.35 582.5,-635.35 580.4,-641.35 584.6,-641.35"/>
<text text-anchor="start" x="582.5" y="-657.6" font-family="Times,serif" font-weight="bold" font-size="13.00" fill="#4b5563"> uo3 </text>
</g>
<!-- 0xfc30c96c&#45;&gt;0x918dc32f -->
<g id="edge18" class="edge">
<title>0xfc30c96c&#45;&gt;0x918dc32f:box</title>
<path fill="none" stroke="#666666" stroke-dasharray="5,2" d="M584.79,-773.38C591.76,-766.75 612.71,-745.55 620.5,-723 623.27,-714.97 628.75,-704.71 626.88,-699.83"/>
<polygon fill="#666666" stroke="#666666" points="627.79,-697.93 621.5,-697 625.83,-701.65 627.79,-697.93"/>
<text text-anchor="start" x="611.5" y="-745.6" font-family="Times,serif" font-weight="bold" font-size="13.00" fill="#666666"> o4 </text>
</g>
<!-- 0xe9ccaf5e -->
<g id="node20" class="node">
<title>0xe9ccaf5e</title>
<text text-anchor="start" x="527" y="-389.4" font-family="Times,serif" font-weight="bold" font-size="12.00">ye12</text>
<path fill="#f8f9fa" stroke="transparent" d="M508.83,-360C508.83,-360 569.17,-360 569.17,-360 573.33,-360 577.5,-364.17 577.5,-368.33 577.5,-368.33 577.5,-376.67 577.5,-376.67 577.5,-380.83 573.33,-385 569.17,-385 569.17,-385 508.83,-385 508.83,-385 504.67,-385 500.5,-380.83 500.5,-376.67 500.5,-376.67 500.5,-368.33 500.5,-368.33 500.5,-364.17 504.67,-360 508.83,-360"/>
<path fill="none" stroke="#333333" d="M508.83,-360C508.83,-360 569.17,-360 569.17,-360 573.33,-360 577.5,-364.17 577.5,-368.33 577.5,-368.33 577.5,-376.67 577.5,-376.67 577.5,-380.83 573.33,-385 569.17,-385 569.17,-385 508.83,-385 508.83,-385 504.67,-385 500.5,-380.83 500.5,-376.67 500.5,-376.67 500.5,-368.33 500.5,-368.33 500.5,-364.17 504.67,-360 508.83,-360"/>
<text text-anchor="start" x="505.5" y="-369.8" font-family="Times,serif" font-weight="bold" font-size="14.00">S1, A3, 8, 0</text>
</g>
<!-- 0xe5b270e -->
<g id="node39" class="node">
<title>0xe5b270e</title>
<ellipse fill="white" stroke="black" stroke-width="0.8" cx="475.5" cy="-306.5" rx="3.5" ry="3.5"/>
</g>
<!-- 0xe9ccaf5e&#45;&gt;0xe5b270e -->
<g id="edge39" class="edge">
<title>0xe9ccaf5e:box&#45;&gt;0xe5b270e</title>
<path fill="none" stroke="#3b82f6" d="M499.5,-372C493.59,-372 482.49,-333.51 477.74,-316"/>
<polygon fill="#3b82f6" stroke="#3b82f6" points="479.71,-315.21 476.13,-309.95 475.65,-316.29 479.71,-315.21"/>
<text text-anchor="start" x="485.5" y="-332.6" font-family="Times,serif" font-weight="bold" font-size="13.00" fill="#3b82f6"> o2 </text>
</g>
<!-- 0xaeca491c -->
<g id="node40" class="node">
<title>0xaeca491c</title>
<ellipse fill="white" stroke="black" stroke-width="0.8" cx="571.5" cy="-306.5" rx="3.5" ry="3.5"/>
</g>
<!-- 0xe9ccaf5e&#45;&gt;0xaeca491c -->
<g id="edge43" class="edge">
<title>0xe9ccaf5e:box&#45;&gt;0xaeca491c</title>
<path fill="none" stroke="#3b82f6" d="M539.5,-360C539.5,-340.91 555.12,-322.86 564.54,-313.73"/>
<polygon fill="#3b82f6" stroke="#3b82f6" points="566.01,-315.23 568.99,-309.61 563.16,-312.14 566.01,-315.23"/>
<text text-anchor="start" x="552.5" y="-332.6" font-family="Times,serif" font-weight="bold" font-size="13.00" fill="#3b82f6"> o3 </text>
</g>
<!-- 0x2c61ab -->
<g id="node21" class="node">
<title>0x2c61ab</title>
<text text-anchor="start" x="772" y="-389.4" font-family="Times,serif" font-weight="bold" font-size="12.00">ye13</text>
<path fill="#f8f9fa" stroke="transparent" d="M753.83,-360C753.83,-360 814.17,-360 814.17,-360 818.33,-360 822.5,-364.17 822.5,-368.33 822.5,-368.33 822.5,-376.67 822.5,-376.67 822.5,-380.83 818.33,-385 814.17,-385 814.17,-385 753.83,-385 753.83,-385 749.67,-385 745.5,-380.83 745.5,-376.67 745.5,-376.67 745.5,-368.33 745.5,-368.33 745.5,-364.17 749.67,-360 753.83,-360"/>
<path fill="none" stroke="#333333" d="M753.83,-360C753.83,-360 814.17,-360 814.17,-360 818.33,-360 822.5,-364.17 822.5,-368.33 822.5,-368.33 822.5,-376.67 822.5,-376.67 822.5,-380.83 818.33,-385 814.17,-385 814.17,-385 753.83,-385 753.83,-385 749.67,-385 745.5,-380.83 745.5,-376.67 745.5,-376.67 745.5,-368.33 745.5,-368.33 745.5,-364.17 749.67,-360 753.83,-360"/>
<text text-anchor="start" x="750.5" y="-369.8" font-family="Times,serif" font-weight="bold" font-size="14.00">S8, A3, 8, 2</text>
</g>
<!-- 0x9d698539 -->
<g id="node42" class="node">
<title>0x9d698539</title>
<ellipse fill="white" stroke="black" stroke-width="0.8" cx="795.5" cy="-306.5" rx="3.5" ry="3.5"/>
</g>
<!-- 0x2c61ab&#45;&gt;0x9d698539 -->
<g id="edge47" class="edge">
<title>0x2c61ab:box&#45;&gt;0x9d698539</title>
<path fill="none" stroke="#3b82f6" d="M784.5,-360C784.5,-344.26 789.29,-326.42 792.55,-316.12"/>
<polygon fill="#3b82f6" stroke="#3b82f6" points="794.58,-316.66 794.48,-310.3 790.6,-315.33 794.58,-316.66"/>
<text text-anchor="start" x="788.5" y="-332.6" font-family="Times,serif" font-weight="bold" font-size="13.00" fill="#3b82f6"> o2 </text>
</g>
<!-- 0x3c15fd1b -->
<g id="node45" class="node">
<title>0x3c15fd1b</title>
<ellipse fill="white" stroke="black" stroke-width="0.8" cx="989.5" cy="-306.5" rx="3.5" ry="3.5"/>
</g>
<!-- 0x2c61ab&#45;&gt;0x3c15fd1b -->
<g id="edge51" class="edge">
<title>0x2c61ab:box&#45;&gt;0x3c15fd1b</title>
<path fill="none" stroke="#3b82f6" d="M823.5,-372C830.44,-372 827.77,-363.92 833.5,-360 882.43,-326.5 954.54,-312.81 980.1,-308.83"/>
<polygon fill="#3b82f6" stroke="#3b82f6" points="980.61,-310.88 986.24,-307.93 980,-306.72 980.61,-310.88"/>
<text text-anchor="start" x="897.5" y="-332.6" font-family="Times,serif" font-weight="bold" font-size="13.00" fill="#3b82f6"> o3 </text>
</g>
<!-- 0xb752215d -->
<g id="node22" class="node">
<title>0xb752215d</title>
<text text-anchor="start" x="428" y="-389.4" font-family="Times,serif" font-weight="bold" font-size="12.00">ye14</text>
<path fill="#f8f9fa" stroke="transparent" d="M409.83,-360C409.83,-360 470.17,-360 470.17,-360 474.33,-360 478.5,-364.17 478.5,-368.33 478.5,-368.33 478.5,-376.67 478.5,-376.67 478.5,-380.83 474.33,-385 470.17,-385 470.17,-385 409.83,-385 409.83,-385 405.67,-385 401.5,-380.83 401.5,-376.67 401.5,-376.67 401.5,-368.33 401.5,-368.33 401.5,-364.17 405.67,-360 409.83,-360"/>
<path fill="none" stroke="#333333" d="M409.83,-360C409.83,-360 470.17,-360 470.17,-360 474.33,-360 478.5,-364.17 478.5,-368.33 478.5,-368.33 478.5,-376.67 478.5,-376.67 478.5,-380.83 474.33,-385 470.17,-385 470.17,-385 409.83,-385 409.83,-385 405.67,-385 401.5,-380.83 401.5,-376.67 401.5,-376.67 401.5,-368.33 401.5,-368.33 401.5,-364.17 405.67,-360 409.83,-360"/>
<text text-anchor="start" x="406.5" y="-369.8" font-family="Times,serif" font-weight="bold" font-size="14.00">S7, A3, 8, 1</text>
</g>
<!-- 0x55d0e56f -->
<g id="node48" class="node">
<title>0x55d0e56f</title>
<ellipse fill="white" stroke="black" stroke-width="0.8" cx="194.5" cy="-306.5" rx="3.5" ry="3.5"/>
</g>
<!-- 0xb752215d&#45;&gt;0x55d0e56f -->
<g id="edge55" class="edge">
<title>0xb752215d:box&#45;&gt;0x55d0e56f</title>
<path fill="none" stroke="#3b82f6" d="M400.5,-372C320.35,-372 230.34,-326.98 202.89,-312.16"/>
<polygon fill="#3b82f6" stroke="#3b82f6" points="203.57,-310.14 197.3,-309.09 201.55,-313.82 203.57,-310.14"/>
<text text-anchor="start" x="266.5" y="-332.6" font-family="Times,serif" font-weight="bold" font-size="13.00" fill="#3b82f6"> o2 </text>
</g>
<!-- 0x7cfdfcd9&#45;&gt;0xe9ccaf5e -->
<g id="edge20" class="edge">
<title>0x7cfdfcd9&#45;&gt;0xe9ccaf5e:box</title>
<path fill="none" stroke="#666666" stroke-dasharray="5,2" d="M526.81,-448.25C521.67,-441.27 506.22,-419.14 500.5,-398 498.33,-389.98 492.79,-380.06 494.14,-375.11"/>
<polygon fill="#666666" stroke="#666666" points="495.36,-376.83 499.5,-372 493.26,-373.19 495.36,-376.83"/>
<text text-anchor="start" x="514.5" y="-420.6" font-family="Times,serif" font-weight="bold" font-size="13.00" fill="#666666"> ε </text>
</g>
<!-- 0x7cfdfcd9&#45;&gt;0x2c61ab -->
<g id="edge21" class="edge">
<title>0x7cfdfcd9&#45;&gt;0x2c61ab:box</title>
<path fill="none" stroke="#666666" stroke-dasharray="5,2" d="M530.94,-448.86C547.62,-437.83 646.74,-374.79 738.47,-372.09"/>
<polygon fill="#666666" stroke="#666666" points="738.53,-374.19 744.5,-372 738.47,-369.99 738.53,-374.19"/>
<text text-anchor="start" x="584.5" y="-420.6" font-family="Times,serif" font-weight="bold" font-size="13.00" fill="#666666"> o2 </text>
</g>
<!-- 0x7cfdfcd9&#45;&gt;0xb752215d -->
<g id="edge22" class="edge">
<title>0x7cfdfcd9&#45;&gt;0xb752215d:box</title>
<path fill="none" stroke="#666666" stroke-dasharray="5,2" d="M525.09,-450.16C516.27,-449.07 492.69,-444.85 482.5,-430 476.57,-421.35 486.81,-388.47 483.94,-376.44"/>
<polygon fill="#666666" stroke="#666666" points="485.23,-374.76 479.5,-372 482.26,-377.73 485.23,-374.76"/>
<text text-anchor="start" x="482.5" y="-420.6" font-family="Times,serif" font-weight="bold" font-size="13.00" fill="#666666"> o3 </text>
</g>
<!-- 0x905323a9 -->
<g id="node24" class="node">
<title>0x905323a9</title>
<text text-anchor="start" x="354" y="-243.9" font-family="Times,serif" font-weight="bold" font-size="12.00">ye15</text>
<path fill="#f8f9fa" stroke="transparent" d="M335.83,-214.5C335.83,-214.5 396.17,-214.5 396.17,-214.5 400.33,-214.5 404.5,-218.67 404.5,-222.83 404.5,-222.83 404.5,-231.17 404.5,-231.17 404.5,-235.33 400.33,-239.5 396.17,-239.5 396.17,-239.5 335.83,-239.5 335.83,-239.5 331.67,-239.5 327.5,-235.33 327.5,-231.17 327.5,-231.17 327.5,-222.83 327.5,-222.83 327.5,-218.67 331.67,-214.5 335.83,-214.5"/>
<path fill="none" stroke="#333333" d="M335.83,-214.5C335.83,-214.5 396.17,-214.5 396.17,-214.5 400.33,-214.5 404.5,-218.67 404.5,-222.83 404.5,-222.83 404.5,-231.17 404.5,-231.17 404.5,-235.33 400.33,-239.5 396.17,-239.5 396.17,-239.5 335.83,-239.5 335.83,-239.5 331.67,-239.5 327.5,-235.33 327.5,-231.17 327.5,-231.17 327.5,-222.83 327.5,-222.83 327.5,-218.67 331.67,-214.5 335.83,-214.5"/>
<text text-anchor="start" x="332.5" y="-224.3" font-family="Times,serif" font-weight="bold" font-size="14.00">S1, A6, 4, 0</text>
<text text-anchor="start" x="345" y="-188.9" font-family="Times,serif" font-size="32.00">· · ·</text>
</g>
<!-- 0xcb0d9ca5 -->
<g id="node51" class="node">
<title>0xcb0d9ca5</title>
<ellipse fill="white" stroke="black" stroke-width="0.8" cx="366.5" cy="-126.5" rx="3.5" ry="3.5"/>
</g>
<!-- 0x905323a9&#45;&gt;0xcb0d9ca5 -->
<g id="edge59" class="edge">
<title>0x905323a9:box&#45;&gt;0xcb0d9ca5</title>
<path fill="none" stroke="#3b82f6" d="M405.5,-227.5C416.06,-227.5 407.86,-190.01 404.5,-180 398.16,-161.1 382.38,-143.21 373.28,-133.98"/>
<polygon fill="#3b82f6" stroke="#3b82f6" points="374.57,-132.31 368.81,-129.62 371.63,-135.31 374.57,-132.31"/>
<text text-anchor="start" x="395.5" y="-152.6" font-family="Times,serif" font-weight="bold" font-size="13.00" fill="#3b82f6"> o2 </text>
</g>
<!-- 0xf75f5c15&#45;&gt;0x905323a9 -->
<g id="edge24" class="edge">
<title>0xf75f5c15&#45;&gt;0x905323a9:box</title>
<path fill="none" stroke="#666666" stroke-dasharray="5,2" d="M390.43,-447.65C390.23,-439.77 389.68,-416.96 389.5,-398 389.34,-381.11 388.32,-376.85 389.5,-360 392.84,-312.1 400.22,-300.83 404.5,-253 405.19,-245.23 410.77,-236.09 410.5,-231.14"/>
<polygon fill="#666666" stroke="#666666" points="411.59,-229.33 405.5,-227.5 409.11,-232.73 411.59,-229.33"/>
<text text-anchor="start" x="393.5" y="-332.6" font-family="Times,serif" font-weight="bold" font-size="13.00" fill="#666666"> uo1 </text>
</g>
<!-- 0xd097850a -->
<g id="node26" class="node">
<title>0xd097850a</title>
<text text-anchor="start" x="873.5" y="-389.4" font-family="Times,serif" font-weight="bold" font-size="12.00">ye16</text>
<path fill="#fff1f2" stroke="transparent" d="M852.83,-360C852.83,-360 918.17,-360 918.17,-360 922.33,-360 926.5,-364.17 926.5,-368.33 926.5,-368.33 926.5,-376.67 926.5,-376.67 926.5,-380.83 922.33,-385 918.17,-385 918.17,-385 852.83,-385 852.83,-385 848.67,-385 844.5,-380.83 844.5,-376.67 844.5,-376.67 844.5,-368.33 844.5,-368.33 844.5,-364.17 848.67,-360 852.83,-360"/>
<path fill="none" stroke="#9f1239" d="M852.83,-360C852.83,-360 918.17,-360 918.17,-360 922.33,-360 926.5,-364.17 926.5,-368.33 926.5,-368.33 926.5,-376.67 926.5,-376.67 926.5,-380.83 922.33,-385 918.17,-385 918.17,-385 852.83,-385 852.83,-385 848.67,-385 844.5,-380.83 844.5,-376.67 844.5,-376.67 844.5,-368.33 844.5,-368.33 844.5,-364.17 848.67,-360 852.83,-360"/>
<text text-anchor="start" x="849.5" y="-369.8" font-family="Times,serif" font-weight="bold" font-size="14.00">AX, A3, 8, 2</text>
</g>
<!-- 0xb734b6c0&#45;&gt;0x2c61ab -->
<g id="edge26" class="edge">
<title>0xb734b6c0&#45;&gt;0x2c61ab:box</title>
<path fill="none" stroke="#666666" stroke-dasharray="5,2" d="M807.32,-448.58C801.56,-443.28 786.82,-428 793.5,-416 800.87,-402.74 814.87,-411.11 822.5,-398 826.86,-390.5 831.75,-379.63 829.04,-374.66"/>
<polygon fill="#666666" stroke="#666666" points="829.82,-372.7 823.5,-372 828,-376.49 829.82,-372.7"/>
<text text-anchor="start" x="793.5" y="-420.6" font-family="Times,serif" font-weight="bold" font-size="13.00" fill="#666666"> ε </text>
</g>
<!-- 0xb734b6c0&#45;&gt;0xd097850a -->
<g id="edge27" class="edge">
<title>0xb734b6c0&#45;&gt;0xd097850a:box</title>
<path fill="none" stroke="#666666" stroke-dasharray="5,2" d="M812.83,-450.25C828.97,-448.86 899.42,-440.41 926.5,-398 935.59,-383.77 938.3,-372.09 926.5,-360 921.53,-354.9 899.3,-351.6 889.81,-354.74"/>
<polygon fill="#666666" stroke="#666666" points="888.29,-353.29 885.5,-359 891.24,-356.28 888.29,-353.29"/>
<text text-anchor="start" x="908.5" y="-420.6" font-family="Times,serif" font-weight="bold" font-size="13.00" fill="#666666"> o2 </text>
</g>
<!-- 0xb734b6c0&#45;&gt;0xd097850a -->
<g id="edge28" class="edge">
<title>0xb734b6c0&#45;&gt;0xd097850a:box</title>
<path fill="none" stroke="#666666" stroke-dasharray="5,2" d="M810.65,-448.12C814.21,-440.74 825.27,-417.59 833.5,-398 837.17,-389.26 833.83,-378.66 837.61,-374.18"/>
<polygon fill="#666666" stroke="#666666" points="838.6,-376.05 843.5,-372 837.14,-372.11 838.6,-376.05"/>
<text text-anchor="start" x="824.5" y="-420.6" font-family="Times,serif" font-weight="bold" font-size="13.00" fill="#666666"> o3 </text>
</g>
<!-- 0xa6b2d5f6 -->
<g id="node28" class="node">
<title>0xa6b2d5f6</title>
<text text-anchor="start" x="651" y="-243.9" font-family="Times,serif" font-weight="bold" font-size="12.00">ye17</text>
<path fill="#f8f9fa" stroke="transparent" d="M632.83,-214.5C632.83,-214.5 693.17,-214.5 693.17,-214.5 697.33,-214.5 701.5,-218.67 701.5,-222.83 701.5,-222.83 701.5,-231.17 701.5,-231.17 701.5,-235.33 697.33,-239.5 693.17,-239.5 693.17,-239.5 632.83,-239.5 632.83,-239.5 628.67,-239.5 624.5,-235.33 624.5,-231.17 624.5,-231.17 624.5,-222.83 624.5,-222.83 624.5,-218.67 628.67,-214.5 632.83,-214.5"/>
<path fill="none" stroke="#333333" d="M632.83,-214.5C632.83,-214.5 693.17,-214.5 693.17,-214.5 697.33,-214.5 701.5,-218.67 701.5,-222.83 701.5,-222.83 701.5,-231.17 701.5,-231.17 701.5,-235.33 697.33,-239.5 693.17,-239.5 693.17,-239.5 632.83,-239.5 632.83,-239.5 628.67,-239.5 624.5,-235.33 624.5,-231.17 624.5,-231.17 624.5,-222.83 624.5,-222.83 624.5,-218.67 628.67,-214.5 632.83,-214.5"/>
<text text-anchor="start" x="629.5" y="-224.3" font-family="Times,serif" font-weight="bold" font-size="14.00">S8, A6, 4, 2</text>
<text text-anchor="start" x="642" y="-188.9" font-family="Times,serif" font-size="32.00">· · ·</text>
</g>
<!-- 0x866dba40&#45;&gt;0xa6b2d5f6 -->
<g id="edge30" class="edge">
<title>0x866dba40&#45;&gt;0xa6b2d5f6:box</title>
<path fill="none" stroke="#666666" stroke-dasharray="5,2" d="M711.54,-448C711.83,-425.89 713.7,-264.14 705.52,-232.77"/>
<polygon fill="#666666" stroke="#666666" points="707.31,-231.66 702.5,-227.5 703.67,-233.75 707.31,-231.66"/>
<text text-anchor="start" x="711.5" y="-332.6" font-family="Times,serif" font-weight="bold" font-size="13.00" fill="#666666"> uo1 </text>
</g>
<!-- 0xc4d8bf04 -->
<g id="node30" class="node">
<title>0xc4d8bf04</title>
<text text-anchor="start" x="552" y="-243.9" font-family="Times,serif" font-weight="bold" font-size="12.00">ye18</text>
<path fill="#f8f9fa" stroke="transparent" d="M533.83,-214.5C533.83,-214.5 594.17,-214.5 594.17,-214.5 598.33,-214.5 602.5,-218.67 602.5,-222.83 602.5,-222.83 602.5,-231.17 602.5,-231.17 602.5,-235.33 598.33,-239.5 594.17,-239.5 594.17,-239.5 533.83,-239.5 533.83,-239.5 529.67,-239.5 525.5,-235.33 525.5,-231.17 525.5,-231.17 525.5,-222.83 525.5,-222.83 525.5,-218.67 529.67,-214.5 533.83,-214.5"/>
<path fill="none" stroke="#333333" d="M533.83,-214.5C533.83,-214.5 594.17,-214.5 594.17,-214.5 598.33,-214.5 602.5,-218.67 602.5,-222.83 602.5,-222.83 602.5,-231.17 602.5,-231.17 602.5,-235.33 598.33,-239.5 594.17,-239.5 594.17,-239.5 533.83,-239.5 533.83,-239.5 529.67,-239.5 525.5,-235.33 525.5,-231.17 525.5,-231.17 525.5,-222.83 525.5,-222.83 525.5,-218.67 529.67,-214.5 533.83,-214.5"/>
<text text-anchor="start" x="530.5" y="-224.3" font-family="Times,serif" font-weight="bold" font-size="14.00">S7, A6, 4, 1</text>
<text text-anchor="start" x="543" y="-188.9" font-family="Times,serif" font-size="32.00">· · ·</text>
</g>
<!-- 0xecc26496&#45;&gt;0xc4d8bf04 -->
<g id="edge32" class="edge">
<title>0xecc26496&#45;&gt;0xc4d8bf04:box</title>
<path fill="none" stroke="#666666" stroke-dasharray="5,2" d="M617.48,-448C617.28,-425.89 615.53,-264.14 606.64,-232.77"/>
<polygon fill="#666666" stroke="#666666" points="608.38,-231.57 603.5,-227.5 604.77,-233.73 608.38,-231.57"/>
<text text-anchor="start" x="615.5" y="-332.6" font-family="Times,serif" font-weight="bold" font-size="13.00" fill="#666666"> uo1 </text>
</g>
<!-- 0xc2eeb9cf -->
<g id="node32" class="node">
<title>0xc2eeb9cf</title>
<text text-anchor="start" x="372" y="-568.9" font-family="Times,serif" font-weight="bold" font-size="12.00">ye19</text>
<path fill="#f8f9fa" stroke="transparent" d="M353.83,-539.5C353.83,-539.5 414.17,-539.5 414.17,-539.5 418.33,-539.5 422.5,-543.67 422.5,-547.83 422.5,-547.83 422.5,-556.17 422.5,-556.17 422.5,-560.33 418.33,-564.5 414.17,-564.5 414.17,-564.5 353.83,-564.5 353.83,-564.5 349.67,-564.5 345.5,-560.33 345.5,-556.17 345.5,-556.17 345.5,-547.83 345.5,-547.83 345.5,-543.67 349.67,-539.5 353.83,-539.5"/>
<path fill="none" stroke="#333333" d="M353.83,-539.5C353.83,-539.5 414.17,-539.5 414.17,-539.5 418.33,-539.5 422.5,-543.67 422.5,-547.83 422.5,-547.83 422.5,-556.17 422.5,-556.17 422.5,-560.33 418.33,-564.5 414.17,-564.5 414.17,-564.5 353.83,-564.5 353.83,-564.5 349.67,-564.5 345.5,-560.33 345.5,-556.17 345.5,-556.17 345.5,-547.83 345.5,-547.83 345.5,-543.67 349.67,-539.5 353.83,-539.5"/>
<text text-anchor="start" x="350.5" y="-549.3" font-family="Times,serif" font-weight="bold" font-size="14.00">S0, A7, 5, 0</text>
<text text-anchor="start" x="363" y="-513.9" font-family="Times,serif" font-size="32.00">· · ·</text>
</g>
<!-- 0x54a95324&#45;&gt;0xc2eeb9cf -->
<g id="edge34" class="edge">
<title>0x54a95324&#45;&gt;0xc2eeb9cf:box</title>
<path fill="none" stroke="#666666" stroke-dasharray="5,2" d="M386.7,-628.25C398.22,-616.36 450.22,-561.11 429.5,-553.39"/>
<polygon fill="#666666" stroke="#666666" points="429.74,-551.31 423.5,-552.5 429.12,-555.46 429.74,-551.31"/>
<text text-anchor="start" x="415.5" y="-600.6" font-family="Times,serif" font-weight="bold" font-size="13.00" fill="#666666"> o1 </text>
</g>
<!-- 0xa26184d&#45;&gt;0xc6588f2d -->
<g id="edge36" class="edge">
<title>0xa26184d&#45;&gt;0xc6588f2d:box</title>
<path fill="none" stroke="#666666" stroke-dasharray="5,2" d="M486.66,-628.13C476,-614.21 423.56,-543.52 451.35,-535.28"/>
<polygon fill="#666666" stroke="#666666" points="451.81,-537.34 457.5,-534.5 451.28,-533.17 451.81,-537.34"/>
<text text-anchor="start" x="473.5" y="-600.6" font-family="Times,serif" font-weight="bold" font-size="13.00" fill="#666666"> uo3 </text>
</g>
<!-- 0xe9933314&#45;&gt;0x7ade2a88 -->
<g id="edge38" class="edge">
<title>0xe9933314&#45;&gt;0x7ade2a88:box</title>
<path fill="none" stroke="#666666" stroke-dasharray="5,2" d="M581.36,-628.13C574.76,-614.21 542.85,-543.52 571.44,-535.28"/>
<polygon fill="#666666" stroke="#666666" points="571.82,-537.35 577.5,-534.5 571.28,-533.19 571.82,-537.35"/>
<text text-anchor="start" x="573.5" y="-600.6" font-family="Times,serif" font-weight="bold" font-size="13.00" fill="#666666"> uo3 </text>
</g>
<!-- 0xc1d47ad7 -->
<g id="node36" class="node">
<title>0xc1d47ad7</title>
<text text-anchor="start" x="453" y="-226.9" font-family="Times,serif" font-weight="bold" font-size="12.00">ye20</text>
<path fill="#f0fdf4" stroke="transparent" d="M434.83,-197.5C434.83,-197.5 495.17,-197.5 495.17,-197.5 499.33,-197.5 503.5,-201.67 503.5,-205.83 503.5,-205.83 503.5,-214.17 503.5,-214.17 503.5,-218.33 499.33,-222.5 495.17,-222.5 495.17,-222.5 434.83,-222.5 434.83,-222.5 430.67,-222.5 426.5,-218.33 426.5,-214.17 426.5,-214.17 426.5,-205.83 426.5,-205.83 426.5,-201.67 430.67,-197.5 434.83,-197.5"/>
<path fill="none" stroke="#166534" d="M434.83,-197.5C434.83,-197.5 495.17,-197.5 495.17,-197.5 499.33,-197.5 503.5,-201.67 503.5,-205.83 503.5,-205.83 503.5,-214.17 503.5,-214.17 503.5,-218.33 499.33,-222.5 495.17,-222.5 495.17,-222.5 434.83,-222.5 434.83,-222.5 430.67,-222.5 426.5,-218.33 426.5,-214.17 426.5,-214.17 426.5,-205.83 426.5,-205.83 426.5,-201.67 430.67,-197.5 434.83,-197.5"/>
<text text-anchor="start" x="431.5" y="-207.3" font-family="Times,serif" font-weight="bold" font-size="14.00">S1, A1, 5, 0</text>
</g>
<!-- 0x5e1ff7ab -->
<g id="node37" class="node">
<title>0x5e1ff7ab</title>
<text text-anchor="start" x="750" y="-226.9" font-family="Times,serif" font-weight="bold" font-size="12.00">ye21</text>
<path fill="#f0fdf4" stroke="transparent" d="M731.83,-197.5C731.83,-197.5 792.17,-197.5 792.17,-197.5 796.33,-197.5 800.5,-201.67 800.5,-205.83 800.5,-205.83 800.5,-214.17 800.5,-214.17 800.5,-218.33 796.33,-222.5 792.17,-222.5 792.17,-222.5 731.83,-222.5 731.83,-222.5 727.67,-222.5 723.5,-218.33 723.5,-214.17 723.5,-214.17 723.5,-205.83 723.5,-205.83 723.5,-201.67 727.67,-197.5 731.83,-197.5"/>
<path fill="none" stroke="#166534" d="M731.83,-197.5C731.83,-197.5 792.17,-197.5 792.17,-197.5 796.33,-197.5 800.5,-201.67 800.5,-205.83 800.5,-205.83 800.5,-214.17 800.5,-214.17 800.5,-218.33 796.33,-222.5 792.17,-222.5 792.17,-222.5 731.83,-222.5 731.83,-222.5 727.67,-222.5 723.5,-218.33 723.5,-214.17 723.5,-214.17 723.5,-205.83 723.5,-205.83 723.5,-201.67 727.67,-197.5 731.83,-197.5"/>
<text text-anchor="start" x="728.5" y="-207.3" font-family="Times,serif" font-weight="bold" font-size="14.00">S8, A1, 5, 2</text>
</g>
<!-- 0x1545b75d -->
<g id="node38" class="node">
<title>0x1545b75d</title>
<text text-anchor="start" x="255" y="-226.9" font-family="Times,serif" font-weight="bold" font-size="12.00">ye22</text>
<path fill="#f0fdf4" stroke="transparent" d="M236.83,-197.5C236.83,-197.5 297.17,-197.5 297.17,-197.5 301.33,-197.5 305.5,-201.67 305.5,-205.83 305.5,-205.83 305.5,-214.17 305.5,-214.17 305.5,-218.33 301.33,-222.5 297.17,-222.5 297.17,-222.5 236.83,-222.5 236.83,-222.5 232.67,-222.5 228.5,-218.33 228.5,-214.17 228.5,-214.17 228.5,-205.83 228.5,-205.83 228.5,-201.67 232.67,-197.5 236.83,-197.5"/>
<path fill="none" stroke="#166534" d="M236.83,-197.5C236.83,-197.5 297.17,-197.5 297.17,-197.5 301.33,-197.5 305.5,-201.67 305.5,-205.83 305.5,-205.83 305.5,-214.17 305.5,-214.17 305.5,-218.33 301.33,-222.5 297.17,-222.5 297.17,-222.5 236.83,-222.5 236.83,-222.5 232.67,-222.5 228.5,-218.33 228.5,-214.17 228.5,-214.17 228.5,-205.83 228.5,-205.83 228.5,-201.67 232.67,-197.5 236.83,-197.5"/>
<text text-anchor="start" x="233.5" y="-207.3" font-family="Times,serif" font-weight="bold" font-size="14.00">S7, A1, 5, 1</text>
</g>
<!-- 0xe5b270e&#45;&gt;0xc1d47ad7 -->
<g id="edge40" class="edge">
<title>0xe5b270e&#45;&gt;0xc1d47ad7:box</title>
<path fill="none" stroke="#666666" stroke-dasharray="5,2" d="M473.22,-303.5C469.3,-300 461.17,-292.43 455.5,-285 440.04,-264.73 433.65,-259.97 426.5,-235.5 424.17,-227.52 418.7,-217.58 420.1,-212.62"/>
<polygon fill="#666666" stroke="#666666" points="421.35,-214.32 425.5,-209.5 419.25,-210.68 421.35,-214.32"/>
<text text-anchor="start" x="455.5" y="-275.6" font-family="Times,serif" font-weight="bold" font-size="13.00" fill="#666666"> ε </text>
</g>
<!-- 0xe5b270e&#45;&gt;0x5e1ff7ab -->
<g id="edge41" class="edge">
<title>0xe5b270e&#45;&gt;0x5e1ff7ab:box</title>
<path fill="none" stroke="#666666" stroke-dasharray="5,2" d="M475.76,-302.77C476.57,-296.06 479.66,-278.75 490.5,-271 530.76,-242.21 675.06,-285.37 712.5,-253 725.4,-241.85 708.86,-217.74 716.55,-211.18"/>
<polygon fill="#666666" stroke="#666666" points="717.29,-213.15 722.5,-209.5 716.16,-209.11 717.29,-213.15"/>
<text text-anchor="start" x="490.5" y="-275.6" font-family="Times,serif" font-weight="bold" font-size="13.00" fill="#666666"> o2 </text>
</g>
<!-- 0xe5b270e&#45;&gt;0x1545b75d -->
<g id="edge42" class="edge">
<title>0xe5b270e&#45;&gt;0x1545b75d:box</title>
<path fill="none" stroke="#666666" stroke-dasharray="5,2" d="M472.02,-305.54C452.94,-305.54 360.09,-302.94 315.5,-253 304.2,-240.34 320.26,-217.31 312.46,-211.09"/>
<polygon fill="#666666" stroke="#666666" points="312.84,-209.01 306.5,-209.5 311.76,-213.07 312.84,-209.01"/>
<text text-anchor="start" x="362.5" y="-275.6" font-family="Times,serif" font-weight="bold" font-size="13.00" fill="#666666"> o3 </text>
</g>
<!-- 0xaeca491c&#45;&gt;0x905323a9 -->
<g id="edge44" class="edge">
<title>0xaeca491c&#45;&gt;0x905323a9:box</title>
<path fill="none" stroke="#666666" stroke-dasharray="5,2" d="M569.11,-303.56C561.68,-297.62 538.12,-279.62 515.5,-271 472.9,-254.76 449.26,-282.51 414.5,-253 407.77,-247.29 412.55,-236.21 410.81,-230.73"/>
<polygon fill="#666666" stroke="#666666" points="411.72,-228.83 405.5,-227.5 409.53,-232.41 411.72,-228.83"/>
<text text-anchor="start" x="543.5" y="-275.6" font-family="Times,serif" font-weight="bold" font-size="13.00" fill="#666666"> ε </text>
</g>
<!-- 0xaeca491c&#45;&gt;0xa6b2d5f6 -->
<g id="edge45" class="edge">
<title>0xaeca491c&#45;&gt;0xa6b2d5f6:box</title>
<path fill="none" stroke="#666666" stroke-dasharray="5,2" d="M574.45,-304.54C581.02,-302.26 596.98,-295.84 605.5,-285 608.86,-280.72 614.22,-245.44 619.71,-232.36"/>
<polygon fill="#666666" stroke="#666666" points="621.46,-233.52 623.5,-227.5 618.15,-230.94 621.46,-233.52"/>
<text text-anchor="start" x="610.5" y="-275.6" font-family="Times,serif" font-weight="bold" font-size="13.00" fill="#666666"> o2 </text>
</g>
<!-- 0xaeca491c&#45;&gt;0xc4d8bf04 -->
<g id="edge46" class="edge">
<title>0xaeca491c&#45;&gt;0xc4d8bf04:box</title>
<path fill="none" stroke="#666666" stroke-dasharray="5,2" d="M571.64,-302.77C572.08,-296.62 573.82,-281.42 580.5,-271 587.32,-260.36 596.87,-264.31 602.5,-253 606.21,-245.54 611.13,-235.29 608.99,-230.36"/>
<polygon fill="#666666" stroke="#666666" points="609.79,-228.41 603.5,-227.5 607.85,-232.14 609.79,-228.41"/>
<text text-anchor="start" x="580.5" y="-275.6" font-family="Times,serif" font-weight="bold" font-size="13.00" fill="#666666"> o3 </text>
</g>
<!-- 0xbbe6dce -->
<g id="node41" class="node">
<title>0xbbe6dce</title>
<text text-anchor="start" x="851.5" y="-226.9" font-family="Times,serif" font-weight="bold" font-size="12.00">ye23</text>
<path fill="#fff1f2" stroke="transparent" d="M830.83,-197.5C830.83,-197.5 896.17,-197.5 896.17,-197.5 900.33,-197.5 904.5,-201.67 904.5,-205.83 904.5,-205.83 904.5,-214.17 904.5,-214.17 904.5,-218.33 900.33,-222.5 896.17,-222.5 896.17,-222.5 830.83,-222.5 830.83,-222.5 826.67,-222.5 822.5,-218.33 822.5,-214.17 822.5,-214.17 822.5,-205.83 822.5,-205.83 822.5,-201.67 826.67,-197.5 830.83,-197.5"/>
<path fill="none" stroke="#9f1239" d="M830.83,-197.5C830.83,-197.5 896.17,-197.5 896.17,-197.5 900.33,-197.5 904.5,-201.67 904.5,-205.83 904.5,-205.83 904.5,-214.17 904.5,-214.17 904.5,-218.33 900.33,-222.5 896.17,-222.5 896.17,-222.5 830.83,-222.5 830.83,-222.5 826.67,-222.5 822.5,-218.33 822.5,-214.17 822.5,-214.17 822.5,-205.83 822.5,-205.83 822.5,-201.67 826.67,-197.5 830.83,-197.5"/>
<text text-anchor="start" x="827.5" y="-207.3" font-family="Times,serif" font-weight="bold" font-size="14.00">AX, A1, 5, 2</text>
</g>
<!-- 0x9d698539&#45;&gt;0x5e1ff7ab -->
<g id="edge48" class="edge">
<title>0x9d698539&#45;&gt;0x5e1ff7ab:box</title>
<path fill="none" stroke="#666666" stroke-dasharray="5,2" d="M792.38,-304.42C786.1,-302.05 772.06,-295.73 766.5,-285 763.64,-279.47 764.18,-276.77 766.5,-271 774.64,-250.73 791.97,-255.61 800.5,-235.5 803.82,-227.68 809.04,-217.32 807,-212.37"/>
<polygon fill="#666666" stroke="#666666" points="807.79,-210.42 801.5,-209.5 805.84,-214.14 807.79,-210.42"/>
<text text-anchor="start" x="766.5" y="-275.6" font-family="Times,serif" font-weight="bold" font-size="13.00" fill="#666666"> ε </text>
</g>
<!-- 0x9d698539&#45;&gt;0xbbe6dce -->
<g id="edge49" class="edge">
<title>0x9d698539&#45;&gt;0xbbe6dce:box</title>
<path fill="none" stroke="#666666" stroke-dasharray="5,2" d="M796.44,-302.67C799.02,-294.84 806.39,-272.15 811.5,-253 813.52,-245.44 812.4,-222.73 816.71,-213.48"/>
<polygon fill="#666666" stroke="#666666" points="818.23,-214.95 821.5,-209.5 815.54,-211.72 818.23,-214.95"/>
<text text-anchor="start" x="805.5" y="-275.6" font-family="Times,serif" font-weight="bold" font-size="13.00" fill="#666666"> o2 </text>
</g>
<!-- 0x9d698539&#45;&gt;0xbbe6dce -->
<g id="edge50" class="edge">
<title>0x9d698539&#45;&gt;0xbbe6dce:box</title>
<path fill="none" stroke="#666666" stroke-dasharray="5,2" d="M798.79,-304.74C806.07,-302.86 823.5,-297.22 830.5,-285 837.59,-272.63 814.28,-227.39 816.97,-213.55"/>
<polygon fill="#666666" stroke="#666666" points="818.43,-215.06 821.5,-209.5 815.63,-211.93 818.43,-215.06"/>
<text text-anchor="start" x="831.5" y="-275.6" font-family="Times,serif" font-weight="bold" font-size="13.00" fill="#666666"> o3 </text>
</g>
<!-- 0xee73027a -->
<g id="node43" class="node">
<title>0xee73027a</title>
<text text-anchor="start" x="954" y="-243.9" font-family="Times,serif" font-weight="bold" font-size="12.00">ye24</text>
<path fill="#f8f9fa" stroke="transparent" d="M935.83,-214.5C935.83,-214.5 996.17,-214.5 996.17,-214.5 1000.33,-214.5 1004.5,-218.67 1004.5,-222.83 1004.5,-222.83 1004.5,-231.17 1004.5,-231.17 1004.5,-235.33 1000.33,-239.5 996.17,-239.5 996.17,-239.5 935.83,-239.5 935.83,-239.5 931.67,-239.5 927.5,-235.33 927.5,-231.17 927.5,-231.17 927.5,-222.83 927.5,-222.83 927.5,-218.67 931.67,-214.5 935.83,-214.5"/>
<path fill="none" stroke="#333333" d="M935.83,-214.5C935.83,-214.5 996.17,-214.5 996.17,-214.5 1000.33,-214.5 1004.5,-218.67 1004.5,-222.83 1004.5,-222.83 1004.5,-231.17 1004.5,-231.17 1004.5,-235.33 1000.33,-239.5 996.17,-239.5 996.17,-239.5 935.83,-239.5 935.83,-239.5 931.67,-239.5 927.5,-235.33 927.5,-231.17 927.5,-231.17 927.5,-222.83 927.5,-222.83 927.5,-218.67 931.67,-214.5 935.83,-214.5"/>
<text text-anchor="start" x="932.5" y="-224.3" font-family="Times,serif" font-weight="bold" font-size="14.00">S8, A4, 4, 2</text>
<text text-anchor="start" x="945" y="-188.9" font-family="Times,serif" font-size="32.00">· · ·</text>
</g>
<!-- 0xc07556a -->
<g id="node44" class="node">
<title>0xc07556a</title>
<text text-anchor="start" x="1055.5" y="-226.9" font-family="Times,serif" font-weight="bold" font-size="12.00">ye25</text>
<path fill="#fff1f2" stroke="transparent" d="M1034.83,-197.5C1034.83,-197.5 1100.17,-197.5 1100.17,-197.5 1104.33,-197.5 1108.5,-201.67 1108.5,-205.83 1108.5,-205.83 1108.5,-214.17 1108.5,-214.17 1108.5,-218.33 1104.33,-222.5 1100.17,-222.5 1100.17,-222.5 1034.83,-222.5 1034.83,-222.5 1030.67,-222.5 1026.5,-218.33 1026.5,-214.17 1026.5,-214.17 1026.5,-205.83 1026.5,-205.83 1026.5,-201.67 1030.67,-197.5 1034.83,-197.5"/>
<path fill="none" stroke="#9f1239" d="M1034.83,-197.5C1034.83,-197.5 1100.17,-197.5 1100.17,-197.5 1104.33,-197.5 1108.5,-201.67 1108.5,-205.83 1108.5,-205.83 1108.5,-214.17 1108.5,-214.17 1108.5,-218.33 1104.33,-222.5 1100.17,-222.5 1100.17,-222.5 1034.83,-222.5 1034.83,-222.5 1030.67,-222.5 1026.5,-218.33 1026.5,-214.17 1026.5,-214.17 1026.5,-205.83 1026.5,-205.83 1026.5,-201.67 1030.67,-197.5 1034.83,-197.5"/>
<text text-anchor="start" x="1031.5" y="-207.3" font-family="Times,serif" font-weight="bold" font-size="14.00">AX, A4, 4, 2</text>
</g>
<!-- 0x3c15fd1b&#45;&gt;0xee73027a -->
<g id="edge52" class="edge">
<title>0x3c15fd1b&#45;&gt;0xee73027a:box</title>
<path fill="none" stroke="#666666" stroke-dasharray="5,2" d="M987.3,-303.57C981.49,-298.24 966.65,-282.9 973.5,-271 981.45,-257.19 996.28,-266.65 1004.5,-253 1008.89,-245.71 1013.64,-235.01 1010.95,-230.12"/>
<polygon fill="#666666" stroke="#666666" points="1011.82,-228.2 1005.5,-227.5 1010,-231.99 1011.82,-228.2"/>
<text text-anchor="start" x="973.5" y="-275.6" font-family="Times,serif" font-weight="bold" font-size="13.00" fill="#666666"> ε </text>
</g>
<!-- 0x3c15fd1b&#45;&gt;0xc07556a -->
<g id="edge53" class="edge">
<title>0x3c15fd1b&#45;&gt;0xc07556a:box</title>
<path fill="none" stroke="#666666" stroke-dasharray="5,2" d="M990.9,-303.18C995.18,-295.98 1008.25,-273.31 1015.5,-253 1018.13,-245.63 1016.66,-222.81 1020.8,-213.51"/>
<polygon fill="#666666" stroke="#666666" points="1022.29,-214.99 1025.5,-209.5 1019.57,-211.79 1022.29,-214.99"/>
<text text-anchor="start" x="1007.5" y="-275.6" font-family="Times,serif" font-weight="bold" font-size="13.00" fill="#666666"> o2 </text>
</g>
<!-- 0x3c15fd1b&#45;&gt;0xc07556a -->
<g id="edge54" class="edge">
<title>0x3c15fd1b&#45;&gt;0xc07556a:box</title>
<path fill="none" stroke="#666666" stroke-dasharray="5,2" d="M992.74,-305.11C1001.1,-303.9 1023.41,-299.41 1032.5,-285 1040.09,-272.98 1017.89,-227.49 1020.89,-213.57"/>
<polygon fill="#666666" stroke="#666666" points="1022.4,-215.05 1025.5,-209.5 1019.61,-211.9 1022.4,-215.05"/>
<text text-anchor="start" x="1033.5" y="-275.6" font-family="Times,serif" font-weight="bold" font-size="13.00" fill="#666666"> o3 </text>
</g>
<!-- 0x492497a5 -->
<g id="node46" class="node">
<title>0x492497a5</title>
<text text-anchor="start" x="27" y="-226.9" font-family="Times,serif" font-weight="bold" font-size="12.00">ye26</text>
<path fill="#f0fdf4" stroke="transparent" d="M8.83,-197.5C8.83,-197.5 69.17,-197.5 69.17,-197.5 73.33,-197.5 77.5,-201.67 77.5,-205.83 77.5,-205.83 77.5,-214.17 77.5,-214.17 77.5,-218.33 73.33,-222.5 69.17,-222.5 69.17,-222.5 8.83,-222.5 8.83,-222.5 4.67,-222.5 0.5,-218.33 0.5,-214.17 0.5,-214.17 0.5,-205.83 0.5,-205.83 0.5,-201.67 4.67,-197.5 8.83,-197.5"/>
<path fill="none" stroke="#166534" d="M8.83,-197.5C8.83,-197.5 69.17,-197.5 69.17,-197.5 73.33,-197.5 77.5,-201.67 77.5,-205.83 77.5,-205.83 77.5,-214.17 77.5,-214.17 77.5,-218.33 73.33,-222.5 69.17,-222.5 69.17,-222.5 8.83,-222.5 8.83,-222.5 4.67,-222.5 0.5,-218.33 0.5,-214.17 0.5,-214.17 0.5,-205.83 0.5,-205.83 0.5,-201.67 4.67,-197.5 8.83,-197.5"/>
<text text-anchor="start" x="5.5" y="-207.3" font-family="Times,serif" font-weight="bold" font-size="14.00">S4, A1, 5, 1</text>
</g>
<!-- 0x5e4ba17e -->
<g id="node47" class="node">
<title>0x5e4ba17e</title>
<text text-anchor="start" x="140.5" y="-226.9" font-family="Times,serif" font-weight="bold" font-size="12.00">ye27</text>
<path fill="#fff1f2" stroke="transparent" d="M107.83,-197.5C107.83,-197.5 197.17,-197.5 197.17,-197.5 201.33,-197.5 205.5,-201.67 205.5,-205.83 205.5,-205.83 205.5,-214.17 205.5,-214.17 205.5,-218.33 201.33,-222.5 197.17,-222.5 197.17,-222.5 107.83,-222.5 107.83,-222.5 103.67,-222.5 99.5,-218.33 99.5,-214.17 99.5,-214.17 99.5,-205.83 99.5,-205.83 99.5,-201.67 103.67,-197.5 107.83,-197.5"/>
<path fill="none" stroke="#9f1239" d="M107.83,-197.5C107.83,-197.5 197.17,-197.5 197.17,-197.5 201.33,-197.5 205.5,-201.67 205.5,-205.83 205.5,-205.83 205.5,-214.17 205.5,-214.17 205.5,-218.33 201.33,-222.5 197.17,-222.5 197.17,-222.5 107.83,-222.5 107.83,-222.5 103.67,-222.5 99.5,-218.33 99.5,-214.17 99.5,-214.17 99.5,-205.83 99.5,-205.83 99.5,-201.67 103.67,-197.5 107.83,-197.5"/>
<text text-anchor="start" x="104.5" y="-207.3" font-family="Times,serif" font-weight="bold" font-size="14.00">AX, A1, 5, z_det</text>
</g>
<!-- 0x55d0e56f&#45;&gt;0x1545b75d -->
<g id="edge56" class="edge">
<title>0x55d0e56f&#45;&gt;0x1545b75d:box</title>
<path fill="none" stroke="#666666" stroke-dasharray="5,2" d="M196.26,-303.23C199.01,-299.57 204.34,-292.08 207.5,-285 210.5,-278.27 221.69,-232.63 225.89,-215.76"/>
<polygon fill="#666666" stroke="#666666" points="228.04,-215.83 227.5,-209.5 223.97,-214.79 228.04,-215.83"/>
<text text-anchor="start" x="212.5" y="-275.6" font-family="Times,serif" font-weight="bold" font-size="13.00" fill="#666666"> ε </text>
</g>
<!-- 0x55d0e56f&#45;&gt;0x492497a5 -->
<g id="edge57" class="edge">
<title>0x55d0e56f&#45;&gt;0x492497a5:box</title>
<path fill="none" stroke="#666666" stroke-dasharray="5,2" d="M191.28,-304.94C176.78,-302.22 117.01,-289.1 88.5,-253 77.93,-239.62 92.79,-217.11 84.59,-211.05"/>
<polygon fill="#666666" stroke="#666666" points="84.83,-208.94 78.5,-209.5 83.8,-213.01 84.83,-208.94"/>
<text text-anchor="start" x="130.5" y="-275.6" font-family="Times,serif" font-weight="bold" font-size="13.00" fill="#666666"> o2 </text>
</g>
<!-- 0x55d0e56f&#45;&gt;0x5e4ba17e -->
<g id="edge58" class="edge">
<title>0x55d0e56f&#45;&gt;0x5e4ba17e:box</title>
<path fill="none" stroke="#666666" stroke-dasharray="5,2" d="M193.09,-302.98C190.07,-297.28 183.51,-282.93 186.5,-271 190.85,-253.64 201.15,-252.86 205.5,-235.5 209.61,-219.12 217.33,-209.55 205.5,-197.5 198.73,-190.6 167.4,-186.42 156.36,-191.64"/>
<polygon fill="#666666" stroke="#666666" points="154.59,-190.5 152.5,-196.5 157.88,-193.11 154.59,-190.5"/>
<text text-anchor="start" x="186.5" y="-275.6" font-family="Times,serif" font-weight="bold" font-size="13.00" fill="#666666"> o3 </text>
</g>
<!-- 0x51729f97 -->
<g id="node49" class="node">
<title>0x51729f97</title>
<text text-anchor="start" x="305" y="-63.9" font-family="Times,serif" font-weight="bold" font-size="12.00">ye28</text>
<path fill="#f8f9fa" stroke="transparent" d="M286.83,-34.5C286.83,-34.5 347.17,-34.5 347.17,-34.5 351.33,-34.5 355.5,-38.67 355.5,-42.83 355.5,-42.83 355.5,-51.17 355.5,-51.17 355.5,-55.33 351.33,-59.5 347.17,-59.5 347.17,-59.5 286.83,-59.5 286.83,-59.5 282.67,-59.5 278.5,-55.33 278.5,-51.17 278.5,-51.17 278.5,-42.83 278.5,-42.83 278.5,-38.67 282.67,-34.5 286.83,-34.5"/>
<path fill="none" stroke="#333333" d="M286.83,-34.5C286.83,-34.5 347.17,-34.5 347.17,-34.5 351.33,-34.5 355.5,-38.67 355.5,-42.83 355.5,-42.83 355.5,-51.17 355.5,-51.17 355.5,-55.33 351.33,-59.5 347.17,-59.5 347.17,-59.5 286.83,-59.5 286.83,-59.5 282.67,-59.5 278.5,-55.33 278.5,-51.17 278.5,-51.17 278.5,-42.83 278.5,-42.83 278.5,-38.67 282.67,-34.5 286.83,-34.5"/>
<text text-anchor="start" x="283.5" y="-44.3" font-family="Times,serif" font-weight="bold" font-size="14.00">S1, A5, 1, 0</text>
<text text-anchor="start" x="296" y="-8.9" font-family="Times,serif" font-size="32.00">· · ·</text>
</g>
<!-- 0x9aa92253 -->
<g id="node50" class="node">
<title>0x9aa92253</title>
<text text-anchor="start" x="404" y="-63.9" font-family="Times,serif" font-weight="bold" font-size="12.00">ye29</text>
<path fill="#f8f9fa" stroke="transparent" d="M385.83,-34.5C385.83,-34.5 446.17,-34.5 446.17,-34.5 450.33,-34.5 454.5,-38.67 454.5,-42.83 454.5,-42.83 454.5,-51.17 454.5,-51.17 454.5,-55.33 450.33,-59.5 446.17,-59.5 446.17,-59.5 385.83,-59.5 385.83,-59.5 381.67,-59.5 377.5,-55.33 377.5,-51.17 377.5,-51.17 377.5,-42.83 377.5,-42.83 377.5,-38.67 381.67,-34.5 385.83,-34.5"/>
<path fill="none" stroke="#333333" d="M385.83,-34.5C385.83,-34.5 446.17,-34.5 446.17,-34.5 450.33,-34.5 454.5,-38.67 454.5,-42.83 454.5,-42.83 454.5,-51.17 454.5,-51.17 454.5,-55.33 450.33,-59.5 446.17,-59.5 446.17,-59.5 385.83,-59.5 385.83,-59.5 381.67,-59.5 377.5,-55.33 377.5,-51.17 377.5,-51.17 377.5,-42.83 377.5,-42.83 377.5,-38.67 381.67,-34.5 385.83,-34.5"/>
<text text-anchor="start" x="382.5" y="-44.3" font-family="Times,serif" font-weight="bold" font-size="14.00">S8, A5, 1, 2</text>
<text text-anchor="start" x="395" y="-8.9" font-family="Times,serif" font-size="32.00">· · ·</text>
</g>
<!-- 0xcb0d9ca5&#45;&gt;0x51729f97 -->
<g id="edge60" class="edge">
<title>0xcb0d9ca5&#45;&gt;0x51729f97:box</title>
<path fill="none" stroke="#666666" stroke-dasharray="5,2" d="M366.45,-122.9C366.19,-111.7 364.87,-67.34 360.01,-52.42"/>
<polygon fill="#666666" stroke="#666666" points="361.69,-51.17 356.5,-47.5 358.27,-53.6 361.69,-51.17"/>
<text text-anchor="start" x="366.5" y="-95.6" font-family="Times,serif" font-weight="bold" font-size="13.00" fill="#666666"> ε </text>
</g>
<!-- 0xcb0d9ca5&#45;&gt;0x9aa92253 -->
<g id="edge61" class="edge">
<title>0xcb0d9ca5&#45;&gt;0x9aa92253:box</title>
<path fill="none" stroke="#666666" stroke-dasharray="5,2" d="M369.68,-124.76C382.96,-121.5 434.33,-106.95 454.5,-73 458.84,-65.69 463.61,-55 460.94,-50.11"/>
<polygon fill="#666666" stroke="#666666" points="461.82,-48.2 455.5,-47.5 460,-51.99 461.82,-48.2"/>
<text text-anchor="start" x="439.5" y="-95.6" font-family="Times,serif" font-weight="bold" font-size="13.00" fill="#666666"> o2 </text>
</g>
<!-- legend_node -->
<g id="node52" class="node">
<title>legend_node</title>
<polygon fill="#f0fdf4" stroke="transparent" points="654.5,-1004 654.5,-1021 674.5,-1021 674.5,-1004 654.5,-1004"/>
<polygon fill="none" stroke="#166534" points="654.5,-1004 654.5,-1021 674.5,-1021 674.5,-1004 654.5,-1004"/>
<text text-anchor="start" x="680.5" y="-1009.4" font-family="Times,serif" font-size="12.00">Attacker&#45;Exposed States</text>
<polygon fill="#fff1f2" stroke="transparent" points="654.5,-983 654.5,-1000 674.5,-1000 674.5,-983 654.5,-983"/>
<polygon fill="none" stroke="#9f1239" points="654.5,-983 654.5,-1000 674.5,-1000 674.5,-983 654.5,-983"/>
<text text-anchor="start" x="680.5" y="-988.4" font-family="Times,serif" font-size="12.00">CS&#45;Detected States</text>
</g>
</g>
</svg>
