<?xml version="1.0" encoding="UTF-8" standalone="no"?>
<!DOCTYPE svg PUBLIC "-//W3C//DTD SVG 1.1//EN"
 "http://www.w3.org/Graphics/SVG/1.1/DTD/svg11.dtd">
<!-- Generated by graphviz version 14.1.1 (20251213.1925)
 -->
<!-- Pages: 1 -->
<svg width="560pt" height="764pt"
 viewBox="0.00 0.00 560.00 764.00" xmlns="http://www.w3.org/2000/svg" xmlns:xlink="http://www.w3.org/1999/xlink">
<g id="graph0" class="graph" transform="scale(1 1) rotate(0) translate(4 760.42)">
<polygon fill="white" stroke="none" points="-4,4 -4,-760.42 556,-760.42 556,4 -4,4"/>
<!-- 0xbf9a1450 -->
<g id="node1" class="node">
<title>0xbf9a1450</title>
<path fill="#ffffff" stroke="none" d="M23.58,-426.96C23.58,-426.96 78.92,-426.96 78.92,-426.96 81.08,-426.96 83.25,-429.12 83.25,-431.29 83.25,-431.29 83.25,-435.62 83.25,-435.62 83.25,-437.79 81.08,-439.96 78.92,-439.96 78.92,-439.96 23.58,-439.96 23.58,-439.96 21.42,-439.96 19.25,-437.79 19.25,-435.62 19.25,-435.62 19.25,-431.29 19.25,-431.29 19.25,-429.12 21.42,-426.96 23.58,-426.96"/>
<path fill="none" stroke="#a0a0a0" d="M23.58,-426.96C23.58,-426.96 78.92,-426.96 78.92,-426.96 81.08,-426.96 83.25,-429.12 83.25,-431.29 83.25,-431.29 83.25,-435.62 83.25,-435.62 83.25,-437.79 81.08,-439.96 78.92,-439.96 78.92,-439.96 23.58,-439.96 23.58,-439.96 21.42,-439.96 19.25,-437.79 19.25,-435.62 19.25,-435.62 19.25,-431.29 19.25,-431.29 19.25,-429.12 21.42,-426.96 23.58,-426.96"/>
<text xml:space="preserve" text-anchor="start" x="21.25" y="-432.31" font-family="Times New Roman,serif" font-weight="bold" font-size="7.00">{ye1,ye19,ye37,ye8}</text>
<text xml:space="preserve" text-anchor="start" x="0" y="-453.61" font-family="Times New Roman,serif" font-size="8.00">qe1</text>
</g>
<!-- 0x544402e -->
<g id="node3" class="node">
<title>0x544402e</title>
<ellipse fill="white" stroke="black" cx="163.12" cy="-426.62" rx="0.72" ry="0.72"/>
</g>
<!-- 0xbf9a1450&#45;&gt;0x544402e -->
<g id="edge1" class="edge">
<title>0xbf9a1450:m&#45;&gt;0x544402e</title>
<path fill="none" stroke="#999999" d="M83.22,-435.55C96.74,-435.35 113.23,-433.29 150.85,-428.27"/>
<polygon fill="#999999" stroke="#999999" points="151.08,-431.77 160.53,-426.97 150.16,-424.83 151.08,-431.77"/>
<text xml:space="preserve" text-anchor="start" x="117.08" y="-433.71" font-family="Times New Roman,serif" font-size="6.00">o3</text>
</g>
<!-- 0x34397896 -->
<g id="node2" class="node">
<title>0x34397896</title>
<path fill="#f8f9fa" stroke="none" d="M241.4,-393.65C241.4,-393.65 335.74,-393.65 335.74,-393.65 337.9,-393.65 340.07,-395.82 340.07,-397.99 340.07,-397.99 340.07,-402.32 340.07,-402.32 340.07,-404.49 337.9,-406.65 335.74,-406.65 335.74,-406.65 241.4,-406.65 241.4,-406.65 239.24,-406.65 237.07,-404.49 237.07,-402.32 237.07,-402.32 237.07,-397.99 237.07,-397.99 237.07,-395.82 239.24,-393.65 241.4,-393.65"/>
<path fill="none" stroke="#333333" d="M241.4,-393.65C241.4,-393.65 335.74,-393.65 335.74,-393.65 337.9,-393.65 340.07,-395.82 340.07,-397.99 340.07,-397.99 340.07,-402.32 340.07,-402.32 340.07,-404.49 337.9,-406.65 335.74,-406.65 335.74,-406.65 241.4,-406.65 241.4,-406.65 239.24,-406.65 237.07,-404.49 237.07,-402.32 237.07,-402.32 237.07,-397.99 237.07,-397.99 237.07,-395.82 239.24,-393.65 241.4,-393.65"/>
<text xml:space="preserve" text-anchor="start" x="239.07" y="-399" font-family="Times New Roman,serif" font-weight="bold" font-size="7.00">{ye31,ye42,ye46,ye52,ye55,ye57}</text>
<text xml:space="preserve" text-anchor="start" x="217.82" y="-384.3" font-family="Times New Roman,serif" font-size="8.00">qe8</text>
</g>
<!-- 0xfc5eb895 -->
<g id="node7" class="node">
<title>0xfc5eb895</title>
<ellipse fill="white" stroke="black" cx="309.74" cy="-480.37" rx="0.72" ry="0.72"/>
</g>
<!-- 0x34397896&#45;&gt;0xfc5eb895 -->
<g id="edge5" class="edge">
<title>0x34397896:m&#45;&gt;0xfc5eb895</title>
<path fill="none" stroke="#2563eb" d="M292.55,-406.4C303.13,-423.26 304.47,-428.71 308.48,-467.85"/>
<polygon fill="#2563eb" stroke="#2563eb" points="304.98,-468.08 309.47,-477.68 311.95,-467.38 304.98,-468.08"/>
<text xml:space="preserve" text-anchor="start" x="299.54" y="-444.18" font-family="Times New Roman,serif" font-size="6.00">o3</text>
</g>
<!-- 0x150c1be -->
<g id="node9" class="node">
<title>0x150c1be</title>
<ellipse fill="white" stroke="black" cx="219.39" cy="-362.24" rx="0.72" ry="0.72"/>
</g>
<!-- 0x34397896&#45;&gt;0x150c1be -->
<g id="edge7" class="edge">
<title>0x34397896:m&#45;&gt;0x150c1be</title>
<path fill="none" stroke="#2563eb" d="M256.58,-393.83C248.89,-390.04 241.37,-383.37 227.94,-370.49"/>
<polygon fill="#2563eb" stroke="#2563eb" points="230.55,-368.14 220.92,-363.72 225.69,-373.18 230.55,-368.14"/>
<text xml:space="preserve" text-anchor="start" x="231.51" y="-373.8" font-family="Times New Roman,serif" font-size="6.00">o2</text>
</g>
<!-- 0x544402e&#45;&gt;0x34397896 -->
<g id="edge2" class="edge">
<title>0x544402e&#45;&gt;0x34397896:m</title>
<path fill="none" stroke="#999999" stroke-dasharray="5,2" d="M164.09,-426.66C199.39,-428.11 204.73,-428.15 258.69,-410.19"/>
<polygon fill="#999999" stroke="#999999" points="259.54,-413.6 267.92,-407.11 257.32,-406.96 259.54,-413.6"/>
<text xml:space="preserve" text-anchor="start" x="203.14" y="-424.54" font-family="Times New Roman,serif" font-size="6.00">empty</text>
</g>
<!-- 0x7543d303 -->
<g id="node4" class="node">
<title>0x7543d303</title>
<path fill="#ffffff" stroke="none" d="M517.21,-435.96C517.21,-435.96 532.8,-435.96 532.8,-435.96 534.96,-435.96 537.13,-438.13 537.13,-440.29 537.13,-440.29 537.13,-444.63 537.13,-444.63 537.13,-446.79 534.96,-448.96 532.8,-448.96 532.8,-448.96 517.21,-448.96 517.21,-448.96 515.05,-448.96 512.88,-446.79 512.88,-444.63 512.88,-444.63 512.88,-440.29 512.88,-440.29 512.88,-438.13 515.05,-435.96 517.21,-435.96"/>
<path fill="none" stroke="#a0a0a0" d="M517.21,-435.96C517.21,-435.96 532.8,-435.96 532.8,-435.96 534.96,-435.96 537.13,-438.13 537.13,-440.29 537.13,-440.29 537.13,-444.63 537.13,-444.63 537.13,-446.79 534.96,-448.96 532.8,-448.96 532.8,-448.96 517.21,-448.96 517.21,-448.96 515.05,-448.96 512.88,-446.79 512.88,-444.63 512.88,-444.63 512.88,-440.29 512.88,-440.29 512.88,-438.13 515.05,-435.96 517.21,-435.96"/>
<text xml:space="preserve" text-anchor="start" x="514.88" y="-441.31" font-family="Times New Roman,serif" font-weight="bold" font-size="7.00">{ye45}</text>
<text xml:space="preserve" text-anchor="start" x="486.75" y="-462.61" font-family="Times New Roman,serif" font-size="8.00">qe7</text>
</g>
<!-- 0x5cf99de2 -->
<g id="node5" class="node">
<title>0x5cf99de2</title>
<ellipse fill="white" stroke="black" cx="412.95" cy="-432.36" rx="0.72" ry="0.72"/>
</g>
<!-- 0x7543d303&#45;&gt;0x5cf99de2 -->
<g id="edge3" class="edge">
<title>0x7543d303:m&#45;&gt;0x5cf99de2</title>
<path fill="none" stroke="#999999" d="M513.06,-443.19C490.53,-444.41 481.48,-443.27 425.2,-434.32"/>
<polygon fill="#999999" stroke="#999999" points="426.05,-430.91 415.63,-432.79 424.95,-437.82 426.05,-430.91"/>
<text xml:space="preserve" text-anchor="start" x="457.23" y="-442" font-family="Times New Roman,serif" font-size="6.00">o4</text>
</g>
<!-- 0x5cf99de2&#45;&gt;0x34397896 -->
<g id="edge4" class="edge">
<title>0x5cf99de2&#45;&gt;0x34397896:m</title>
<path fill="none" stroke="#999999" stroke-dasharray="5,2" d="M412.01,-432.3C377.73,-430.14 372.77,-429.68 317.22,-410.24"/>
<polygon fill="#999999" stroke="#999999" points="318.68,-407.04 308.08,-407.03 316.36,-413.65 318.68,-407.04"/>
<text xml:space="preserve" text-anchor="start" x="352.02" y="-425.67" font-family="Times New Roman,serif" font-size="6.00">o4</text>
</g>
<!-- 0xfd1128f1 -->
<g id="node6" class="node">
<title>0xfd1128f1</title>
<path fill="#f8f9fa" stroke="none" d="M269.67,-552.44C269.67,-552.44 301,-552.44 301,-552.44 303.17,-552.44 305.34,-554.6 305.34,-556.77 305.34,-556.77 305.34,-561.1 305.34,-561.1 305.34,-563.27 303.17,-565.44 301,-565.44 301,-565.44 269.67,-565.44 269.67,-565.44 267.5,-565.44 265.34,-563.27 265.34,-561.1 265.34,-561.1 265.34,-556.77 265.34,-556.77 265.34,-554.6 267.5,-552.44 269.67,-552.44"/>
<path fill="none" stroke="#333333" d="M269.67,-552.44C269.67,-552.44 301,-552.44 301,-552.44 303.17,-552.44 305.34,-554.6 305.34,-556.77 305.34,-556.77 305.34,-561.1 305.34,-561.1 305.34,-563.27 303.17,-565.44 301,-565.44 301,-565.44 269.67,-565.44 269.67,-565.44 267.5,-565.44 265.34,-563.27 265.34,-561.1 265.34,-561.1 265.34,-556.77 265.34,-556.77 265.34,-554.6 267.5,-552.44 269.67,-552.44"/>
<text xml:space="preserve" text-anchor="start" x="267.34" y="-557.79" font-family="Times New Roman,serif" font-weight="bold" font-size="7.00">{ye50,ye56}</text>
<text xml:space="preserve" text-anchor="start" x="242.34" y="-579.09" font-family="Times New Roman,serif" font-size="8.00">qe16</text>
</g>
<!-- 0x3faea94c -->
<g id="node14" class="node">
<title>0x3faea94c</title>
<ellipse fill="white" stroke="black" cx="207.68" cy="-641.67" rx="0.72" ry="0.72"/>
</g>
<!-- 0xfd1128f1&#45;&gt;0x3faea94c -->
<g id="edge11" class="edge">
<title>0xfd1128f1:m&#45;&gt;0x3faea94c</title>
<path fill="none" stroke="#999999" d="M281.03,-565.43C247.42,-616.08 242.57,-622.48 218.36,-635.89"/>
<polygon fill="#999999" stroke="#999999" points="216.93,-632.68 209.81,-640.52 220.27,-638.84 216.93,-632.68"/>
<text xml:space="preserve" text-anchor="start" x="240.16" y="-616.44" font-family="Times New Roman,serif" font-size="6.00">o2</text>
</g>
<!-- 0x613de25 -->
<g id="node15" class="node">
<title>0x613de25</title>
<ellipse fill="white" stroke="black" cx="263.58" cy="-479.4" rx="0.72" ry="0.72"/>
</g>
<!-- 0xfd1128f1&#45;&gt;0x613de25 -->
<g id="edge13" class="edge">
<title>0xfd1128f1:m&#45;&gt;0x613de25</title>
<path fill="none" stroke="#2563eb" d="M281.29,-552.75C270.53,-536.06 269.15,-530.65 264.92,-491.82"/>
<polygon fill="#2563eb" stroke="#2563eb" points="268.42,-491.65 263.87,-482.08 261.46,-492.4 268.42,-491.65"/>
<text xml:space="preserve" text-anchor="start" x="262" y="-518.89" font-family="Times New Roman,serif" font-size="6.00">o3</text>
</g>
<!-- 0xfc5eb895&#45;&gt;0xfd1128f1 -->
<g id="edge6" class="edge">
<title>0xfc5eb895&#45;&gt;0xfd1128f1:m</title>
<path fill="none" stroke="#2563eb" stroke-dasharray="5,2" d="M309.61,-481.33C304.02,-520.14 302.39,-531.24 295.9,-542.94"/>
<polygon fill="#2563eb" stroke="#2563eb" points="293.06,-540.89 290.66,-551.21 298.97,-544.64 293.06,-540.89"/>
<text xml:space="preserve" text-anchor="start" x="288.09" y="-524.13" font-family="Times New Roman,serif" font-size="6.00">empty</text>
</g>
<!-- 0xcd95fada -->
<g id="node8" class="node">
<title>0xcd95fada</title>
<path fill="#f8f9fa" stroke="none" d="M130.11,-281.92C130.11,-281.92 224.44,-281.92 224.44,-281.92 226.61,-281.92 228.77,-284.09 228.77,-286.26 228.77,-286.26 228.77,-290.59 228.77,-290.59 228.77,-292.76 226.61,-294.92 224.44,-294.92 224.44,-294.92 130.11,-294.92 130.11,-294.92 127.94,-294.92 125.77,-292.76 125.77,-290.59 125.77,-290.59 125.77,-286.26 125.77,-286.26 125.77,-284.09 127.94,-281.92 130.11,-281.92"/>
<path fill="none" stroke="#333333" d="M130.11,-281.92C130.11,-281.92 224.44,-281.92 224.44,-281.92 226.61,-281.92 228.77,-284.09 228.77,-286.26 228.77,-286.26 228.77,-290.59 228.77,-290.59 228.77,-292.76 226.61,-294.92 224.44,-294.92 224.44,-294.92 130.11,-294.92 130.11,-294.92 127.94,-294.92 125.77,-292.76 125.77,-290.59 125.77,-290.59 125.77,-286.26 125.77,-286.26 125.77,-284.09 127.94,-281.92 130.11,-281.92"/>
<text xml:space="preserve" text-anchor="start" x="127.77" y="-287.27" font-family="Times New Roman,serif" font-weight="bold" font-size="7.00">{ye47,ye64,ye69,ye80,ye85,ye89}</text>
<text xml:space="preserve" text-anchor="start" x="102.77" y="-308.57" font-family="Times New Roman,serif" font-size="8.00">qe17</text>
</g>
<!-- 0xc4a67d33 -->
<g id="node16" class="node">
<title>0xc4a67d33</title>
<ellipse fill="white" stroke="black" cx="212.86" cy="-216.81" rx="0.72" ry="0.72"/>
</g>
<!-- 0xcd95fada&#45;&gt;0xc4a67d33 -->
<g id="edge15" class="edge">
<title>0xcd95fada:m&#45;&gt;0xc4a67d33</title>
<path fill="none" stroke="#2563eb" d="M178.09,-282.16C182.75,-246.7 184.34,-241.45 203.57,-224.73"/>
<polygon fill="#2563eb" stroke="#2563eb" points="205.71,-227.5 211.05,-218.35 201.17,-222.17 205.71,-227.5"/>
<text xml:space="preserve" text-anchor="start" x="179.69" y="-247.49" font-family="Times New Roman,serif" font-size="6.00">o4</text>
</g>
<!-- 0x150c1be&#45;&gt;0xcd95fada -->
<g id="edge8" class="edge">
<title>0x150c1be&#45;&gt;0xcd95fada:m</title>
<path fill="none" stroke="#2563eb" stroke-dasharray="5,2" d="M218.54,-361.56C188.57,-337.29 183.9,-333.29 179.69,-306"/>
<polygon fill="#2563eb" stroke="#2563eb" points="183.19,-305.72 178.32,-296.31 176.25,-306.7 183.19,-305.72"/>
<text xml:space="preserve" text-anchor="start" x="174.2" y="-336.36" font-family="Times New Roman,serif" font-size="6.00">empty</text>
</g>
<!-- 0x9da9bb4d -->
<g id="node10" class="node">
<title>0x9da9bb4d</title>
<path fill="#ffffff" stroke="none" d="M166.15,-11.5C166.15,-11.5 291.98,-11.5 291.98,-11.5 294.15,-11.5 296.32,-13.67 296.32,-15.83 296.32,-15.83 296.32,-20.17 296.32,-20.17 296.32,-22.33 294.15,-24.5 291.98,-24.5 291.98,-24.5 166.15,-24.5 166.15,-24.5 163.98,-24.5 161.82,-22.33 161.82,-20.17 161.82,-20.17 161.82,-15.83 161.82,-15.83 161.82,-13.67 163.98,-11.5 166.15,-11.5"/>
<path fill="none" stroke="#a0a0a0" d="M166.15,-11.5C166.15,-11.5 291.98,-11.5 291.98,-11.5 294.15,-11.5 296.32,-13.67 296.32,-15.83 296.32,-15.83 296.32,-20.17 296.32,-20.17 296.32,-22.33 294.15,-24.5 291.98,-24.5 291.98,-24.5 166.15,-24.5 166.15,-24.5 163.98,-24.5 161.82,-22.33 161.82,-20.17 161.82,-20.17 161.82,-15.83 161.82,-15.83 161.82,-13.67 163.98,-11.5 166.15,-11.5"/>
<text xml:space="preserve" text-anchor="start" x="163.82" y="-16.85" font-family="Times New Roman,serif" font-weight="bold" font-size="7.00">{ye28,ye39,ye47,ye64,ye69,ye80,ye85,ye89}</text>
<text xml:space="preserve" text-anchor="start" x="138.82" y="-38.15" font-family="Times New Roman,serif" font-size="8.00">qe12</text>
</g>
<!-- 0x528f73cd -->
<g id="node12" class="node">
<title>0x528f73cd</title>
<ellipse fill="white" stroke="black" cx="256.16" cy="-115.84" rx="0.72" ry="0.72"/>
</g>
<!-- 0x9da9bb4d&#45;&gt;0x528f73cd -->
<g id="edge9" class="edge">
<title>0x9da9bb4d:m&#45;&gt;0x528f73cd</title>
<path fill="none" stroke="#999999" d="M231.45,-24.26C239.56,-45.64 241.12,-51.41 253.32,-103.64"/>
<polygon fill="#999999" stroke="#999999" points="249.88,-104.31 255.56,-113.25 256.7,-102.72 249.88,-104.31"/>
<text xml:space="preserve" text-anchor="start" x="239.08" y="-70.66" font-family="Times New Roman,serif" font-size="6.00">o4</text>
</g>
<!-- 0x9fcecc75 -->
<g id="node11" class="node">
<title>0x9fcecc75</title>
<path fill="#f8f9fa" stroke="none" d="M235.91,-219.32C235.91,-219.32 354.25,-219.32 354.25,-219.32 356.41,-219.32 358.58,-221.48 358.58,-223.65 358.58,-223.65 358.58,-227.98 358.58,-227.98 358.58,-230.15 356.41,-232.32 354.25,-232.32 354.25,-232.32 235.91,-232.32 235.91,-232.32 233.75,-232.32 231.58,-230.15 231.58,-227.98 231.58,-227.98 231.58,-223.65 231.58,-223.65 231.58,-221.48 233.75,-219.32 235.91,-219.32"/>
<path fill="none" stroke="#333333" d="M235.91,-219.32C235.91,-219.32 354.25,-219.32 354.25,-219.32 356.41,-219.32 358.58,-221.48 358.58,-223.65 358.58,-223.65 358.58,-227.98 358.58,-227.98 358.58,-230.15 356.41,-232.32 354.25,-232.32 354.25,-232.32 235.91,-232.32 235.91,-232.32 233.75,-232.32 231.58,-230.15 231.58,-227.98 231.58,-227.98 231.58,-223.65 231.58,-223.65 231.58,-221.48 233.75,-219.32 235.91,-219.32"/>
<text xml:space="preserve" text-anchor="start" x="233.58" y="-224.67" font-family="Times New Roman,serif" font-weight="bold" font-size="7.00">{ye1,ye19,ye37,ye58,ye70,ye8,ye86,ye93}</text>
<text xml:space="preserve" text-anchor="start" x="208.58" y="-245.97" font-family="Times New Roman,serif" font-size="8.00">qe18</text>
</g>
<!-- 0x42f5db64 -->
<g id="node18" class="node">
<title>0x42f5db64</title>
<ellipse fill="white" stroke="black" cx="380.67" cy="-222.73" rx="0.72" ry="0.72"/>
</g>
<!-- 0x9fcecc75&#45;&gt;0x42f5db64 -->
<g id="edge17" class="edge">
<title>0x9fcecc75:m&#45;&gt;0x42f5db64</title>
<path fill="none" stroke="#2563eb" d="M315.89,-219.43C342.78,-211.47 350.12,-211.47 368.98,-218.3"/>
<polygon fill="#2563eb" stroke="#2563eb" points="367.67,-221.55 378.26,-221.81 370.14,-215 367.67,-221.55"/>
<text xml:space="preserve" text-anchor="start" x="341.89" y="-207.64" font-family="Times New Roman,serif" font-size="6.00">o2</text>
</g>
<!-- 0x5a39dbca -->
<g id="node19" class="node">
<title>0x5a39dbca</title>
<ellipse fill="white" stroke="black" cx="290.9" cy="-313.46" rx="0.72" ry="0.72"/>
</g>
<!-- 0x9fcecc75&#45;&gt;0x5a39dbca -->
<g id="edge19" class="edge">
<title>0x9fcecc75:m&#45;&gt;0x5a39dbca</title>
<path fill="none" stroke="#2563eb" d="M297.38,-232.14C306.52,-257.58 306.43,-262.51 294.47,-301.81"/>
<polygon fill="#2563eb" stroke="#2563eb" points="291.2,-300.54 291.61,-311.13 297.89,-302.59 291.2,-300.54"/>
<text xml:space="preserve" text-anchor="start" x="296.17" y="-275.71" font-family="Times New Roman,serif" font-size="6.00">o3</text>
</g>
<!-- 0xf00bd756 -->
<g id="node20" class="node">
<title>0xf00bd756</title>
<ellipse fill="white" stroke="black" cx="337.89" cy="-159.35" rx="0.72" ry="0.72"/>
</g>
<!-- 0x9fcecc75&#45;&gt;0xf00bd756 -->
<g id="edge21" class="edge">
<title>0x9fcecc75:m&#45;&gt;0xf00bd756</title>
<path fill="none" stroke="#2563eb" d="M304.66,-219.69C315.02,-208.52 330.02,-185.28 336.09,-171.04"/>
<polygon fill="#2563eb" stroke="#2563eb" points="339.44,-172.12 338.19,-161.6 332.6,-170.6 339.44,-172.12"/>
<text xml:space="preserve" text-anchor="start" x="318.92" y="-193.66" font-family="Times New Roman,serif" font-size="6.00">o4</text>
</g>
<!-- 0x528f73cd&#45;&gt;0x9fcecc75 -->
<g id="edge10" class="edge">
<title>0x528f73cd&#45;&gt;0x9fcecc75:m</title>
<path fill="none" stroke="#999999" stroke-dasharray="5,2" d="M256.6,-116.58C273.46,-145.02 274.95,-147.82 290.62,-208.49"/>
<polygon fill="#999999" stroke="#999999" points="287.22,-209.34 293.11,-218.15 294,-207.59 287.22,-209.34"/>
<text xml:space="preserve" text-anchor="start" x="273.41" y="-168.59" font-family="Times New Roman,serif" font-size="6.00">o4</text>
</g>
<!-- 0xb1cd24a3 -->
<g id="node13" class="node">
<title>0xb1cd24a3</title>
<path fill="#ffffff" stroke="none" d="M128.79,-718.57C128.79,-718.57 160.13,-718.57 160.13,-718.57 162.29,-718.57 164.46,-720.74 164.46,-722.91 164.46,-722.91 164.46,-727.24 164.46,-727.24 164.46,-729.41 162.29,-731.57 160.13,-731.57 160.13,-731.57 128.79,-731.57 128.79,-731.57 126.63,-731.57 124.46,-729.41 124.46,-727.24 124.46,-727.24 124.46,-722.91 124.46,-722.91 124.46,-720.74 126.63,-718.57 128.79,-718.57"/>
<path fill="none" stroke="#a0a0a0" d="M128.79,-718.57C128.79,-718.57 160.13,-718.57 160.13,-718.57 162.29,-718.57 164.46,-720.74 164.46,-722.91 164.46,-722.91 164.46,-727.24 164.46,-727.24 164.46,-729.41 162.29,-731.57 160.13,-731.57 160.13,-731.57 128.79,-731.57 128.79,-731.57 126.63,-731.57 124.46,-729.41 124.46,-727.24 124.46,-727.24 124.46,-722.91 124.46,-722.91 124.46,-720.74 126.63,-718.57 128.79,-718.57"/>
<text xml:space="preserve" text-anchor="start" x="126.46" y="-723.92" font-family="Times New Roman,serif" font-weight="bold" font-size="7.00">{ye60,ye68}</text>
<text xml:space="preserve" text-anchor="start" x="101.46" y="-745.22" font-family="Times New Roman,serif" font-size="8.00">qe23</text>
</g>
<!-- 0x3faea94c&#45;&gt;0xb1cd24a3 -->
<g id="edge12" class="edge">
<title>0x3faea94c&#45;&gt;0xb1cd24a3:m</title>
<path fill="none" stroke="#999999" stroke-dasharray="5,2" d="M207.23,-642.39C179.27,-687.23 171.88,-699.04 159.99,-710.9"/>
<polygon fill="#999999" stroke="#999999" points="157.79,-708.17 152.89,-717.56 162.58,-713.28 157.79,-708.17"/>
<text xml:space="preserve" text-anchor="start" x="162.58" y="-690.83" font-family="Times New Roman,serif" font-size="6.00">empty</text>
</g>
<!-- 0x613de25&#45;&gt;0x34397896 -->
<g id="edge14" class="edge">
<title>0x613de25&#45;&gt;0x34397896:m</title>
<path fill="none" stroke="#2563eb" stroke-dasharray="5,2" d="M263.72,-478.43C269.59,-438.54 271.23,-427.66 278.16,-415.61"/>
<polygon fill="#2563eb" stroke="#2563eb" points="280.95,-417.75 283.46,-407.46 275.08,-413.94 280.95,-417.75"/>
<text xml:space="preserve" text-anchor="start" x="255.55" y="-438.35" font-family="Times New Roman,serif" font-size="6.00">empty</text>
</g>
<!-- 0xc4a67d33&#45;&gt;0x9fcecc75 -->
<g id="edge16" class="edge">
<title>0xc4a67d33&#45;&gt;0x9fcecc75:m</title>
<path fill="none" stroke="#2563eb" stroke-dasharray="5,2" d="M213.85,-216.53C245.47,-207.61 253.17,-205.59 272.5,-214.35"/>
<polygon fill="#2563eb" stroke="#2563eb" points="270.82,-217.42 281.34,-218.67 273.9,-211.13 270.82,-217.42"/>
<text xml:space="preserve" text-anchor="start" x="242.17" y="-203.09" font-family="Times New Roman,serif" font-size="6.00">o4</text>
</g>
<!-- 0x300861ea -->
<g id="node17" class="node">
<title>0x300861ea</title>
<path fill="#f8f9fa" stroke="none" d="M392.99,-289.88C392.99,-289.88 424.32,-289.88 424.32,-289.88 426.49,-289.88 428.65,-292.05 428.65,-294.21 428.65,-294.21 428.65,-298.55 428.65,-298.55 428.65,-300.71 426.49,-302.88 424.32,-302.88 424.32,-302.88 392.99,-302.88 392.99,-302.88 390.82,-302.88 388.65,-300.71 388.65,-298.55 388.65,-298.55 388.65,-294.21 388.65,-294.21 388.65,-292.05 390.82,-289.88 392.99,-289.88"/>
<path fill="none" stroke="#333333" d="M392.99,-289.88C392.99,-289.88 424.32,-289.88 424.32,-289.88 426.49,-289.88 428.65,-292.05 428.65,-294.21 428.65,-294.21 428.65,-298.55 428.65,-298.55 428.65,-300.71 426.49,-302.88 424.32,-302.88 424.32,-302.88 392.99,-302.88 392.99,-302.88 390.82,-302.88 388.65,-300.71 388.65,-298.55 388.65,-298.55 388.65,-294.21 388.65,-294.21 388.65,-292.05 390.82,-289.88 392.99,-289.88"/>
<text xml:space="preserve" text-anchor="start" x="390.65" y="-295.23" font-family="Times New Roman,serif" font-weight="bold" font-size="7.00">{ye45,ye71}</text>
<text xml:space="preserve" text-anchor="start" x="365.65" y="-316.53" font-family="Times New Roman,serif" font-size="8.00">qe24</text>
</g>
<!-- 0x1f1572bb -->
<g id="node23" class="node">
<title>0x1f1572bb</title>
<ellipse fill="white" stroke="black" cx="359.89" cy="-366.4" rx="0.72" ry="0.72"/>
</g>
<!-- 0x300861ea&#45;&gt;0x1f1572bb -->
<g id="edge25" class="edge">
<title>0x300861ea:m&#45;&gt;0x1f1572bb</title>
<path fill="none" stroke="#2563eb" d="M407.34,-302.75C400.84,-334.06 398.51,-338.33 370.01,-359.09"/>
<polygon fill="#2563eb" stroke="#2563eb" points="368.06,-356.18 362,-364.88 372.16,-361.86 368.06,-356.18"/>
<text xml:space="preserve" text-anchor="start" x="385.68" y="-343.22" font-family="Times New Roman,serif" font-size="6.00">o4</text>
</g>
<!-- 0x42f5db64&#45;&gt;0x300861ea -->
<g id="edge18" class="edge">
<title>0x42f5db64&#45;&gt;0x300861ea:m</title>
<path fill="none" stroke="#2563eb" stroke-dasharray="5,2" d="M381.34,-223.46C404.88,-249.12 408.69,-253.5 408.85,-278.95"/>
<polygon fill="#2563eb" stroke="#2563eb" points="405.35,-278.76 408.77,-288.79 412.35,-278.81 405.35,-278.76"/>
<text xml:space="preserve" text-anchor="start" x="389.22" y="-253.79" font-family="Times New Roman,serif" font-size="6.00">empty</text>
</g>
<!-- 0x5a39dbca&#45;&gt;0x34397896 -->
<g id="edge20" class="edge">
<title>0x5a39dbca&#45;&gt;0x34397896:m</title>
<path fill="none" stroke="#2563eb" stroke-dasharray="5,2" d="M291.06,-314.45C298.07,-357.32 299.69,-367.56 294.9,-383.08"/>
<polygon fill="#2563eb" stroke="#2563eb" points="291.66,-381.74 291.59,-392.34 298.25,-384.1 291.66,-381.74"/>
<text xml:space="preserve" text-anchor="start" x="282.41" y="-360.85" font-family="Times New Roman,serif" font-size="6.00">empty</text>
</g>
<!-- 0xf00bd756&#45;&gt;0x9fcecc75 -->
<g id="edge22" class="edge">
<title>0xf00bd756&#45;&gt;0x9fcecc75:m</title>
<path fill="none" stroke="#2563eb" stroke-dasharray="5,2" d="M337.08,-159.1C330.56,-158.73 309.24,-188.87 299.34,-208.84"/>
<polygon fill="#2563eb" stroke="#2563eb" points="296.15,-207.39 295.53,-217.96 302.61,-210.08 296.15,-207.39"/>
<text xml:space="preserve" text-anchor="start" x="306.19" y="-188.61" font-family="Times New Roman,serif" font-size="6.00">o4</text>
</g>
<!-- 0xf85583c2 -->
<g id="node21" class="node">
<title>0xf85583c2</title>
<path fill="#ffffff" stroke="none" d="M367.59,-722.17C367.59,-722.17 477.67,-722.17 477.67,-722.17 479.84,-722.17 482,-724.33 482,-726.5 482,-726.5 482,-730.83 482,-730.83 482,-733 479.84,-735.17 477.67,-735.17 477.67,-735.17 367.59,-735.17 367.59,-735.17 365.42,-735.17 363.25,-733 363.25,-730.83 363.25,-730.83 363.25,-726.5 363.25,-726.5 363.25,-724.33 365.42,-722.17 367.59,-722.17"/>
<path fill="none" stroke="#a0a0a0" d="M367.59,-722.17C367.59,-722.17 477.67,-722.17 477.67,-722.17 479.84,-722.17 482,-724.33 482,-726.5 482,-726.5 482,-730.83 482,-730.83 482,-733 479.84,-735.17 477.67,-735.17 477.67,-735.17 367.59,-735.17 367.59,-735.17 365.42,-735.17 363.25,-733 363.25,-730.83 363.25,-730.83 363.25,-726.5 363.25,-726.5 363.25,-724.33 365.42,-722.17 367.59,-722.17"/>
<text xml:space="preserve" text-anchor="start" x="365.25" y="-727.52" font-family="Times New Roman,serif" font-weight="bold" font-size="7.00">{ye15,ye31,ye42,ye46,ye52,ye55,ye57}</text>
<text xml:space="preserve" text-anchor="start" x="340.25" y="-748.82" font-family="Times New Roman,serif" font-size="8.00">qe20</text>
</g>
<!-- 0xd63eff04 -->
<g id="node22" class="node">
<title>0xd63eff04</title>
<ellipse fill="white" stroke="black" cx="360.43" cy="-644.27" rx="0.72" ry="0.72"/>
</g>
<!-- 0xf85583c2&#45;&gt;0xd63eff04 -->
<g id="edge23" class="edge">
<title>0xf85583c2:m&#45;&gt;0xd63eff04</title>
<path fill="none" stroke="#999999" d="M415.95,-722.44C399.3,-706.76 395.15,-700.78 366.99,-654.96"/>
<polygon fill="#999999" stroke="#999999" points="370.04,-653.23 361.82,-646.54 364.07,-656.89 370.04,-653.23"/>
<text xml:space="preserve" text-anchor="start" x="380.07" y="-687.39" font-family="Times New Roman,serif" font-size="6.00">o3</text>
</g>
<!-- 0xd63eff04&#45;&gt;0xfd1128f1 -->
<g id="edge24" class="edge">
<title>0xd63eff04&#45;&gt;0xfd1128f1:m</title>
<path fill="none" stroke="#999999" stroke-dasharray="5,2" d="M359.65,-643.8C329.87,-625.75 326.92,-623.72 295.52,-574.84"/>
<polygon fill="#999999" stroke="#999999" points="298.47,-572.96 290.13,-566.43 292.58,-576.74 298.47,-572.96"/>
<text xml:space="preserve" text-anchor="start" x="303.53" y="-610.96" font-family="Times New Roman,serif" font-size="6.00">empty</text>
</g>
<!-- 0x1f1572bb&#45;&gt;0x34397896 -->
<g id="edge26" class="edge">
<title>0x1f1572bb&#45;&gt;0x34397896:m</title>
<path fill="none" stroke="#2563eb" stroke-dasharray="5,2" d="M359.19,-367.14C350.53,-376.21 344.39,-382.62 339,-387.21"/>
<polygon fill="#2563eb" stroke="#2563eb" points="337.17,-384.21 330.98,-392.81 341.18,-389.95 337.17,-384.21"/>
<text xml:space="preserve" text-anchor="start" x="339.18" y="-375.82" font-family="Times New Roman,serif" font-size="6.00">o4</text>
</g>
</g>
</svg>
