<?xml version="1.0" encoding="UTF-8" standalone="no"?>
<!DOCTYPE svg PUBLIC "-//W3C//DTD SVG 1.1//EN"
 "http://www.w3.org/Graphics/SVG/1.1/DTD/svg11.dtd">
<!-- Generated by graphviz version 14.1.1 (20251213.1925)
 -->
<!-- Pages: 1 -->
<svg width="978pt" height="1036pt"
 viewBox="0.00 0.00 978.00 1036.00" xmlns="http://www.w3.org/2000/svg" xmlns:xlink="http://www.w3.org/1999/xlink">
<g id="graph0" class="graph" transform="scale(1 1) rotate(0) translate(4 1032.45)">
<polygon fill="white" stroke="none" points="-4,4 -4,-1032.45 973.62,-1032.45 973.62,4 -4,4"/>
<g id="clust1" class="cluster">
<title>cluster_legend</title>
<path fill="none" stroke="lightgrey" d="M519,-947.95C519,-947.95 679,-947.95 679,-947.95 685,-947.95 691,-953.95 691,-959.95 691,-959.95 691,-1008.45 691,-1008.45 691,-1014.45 685,-1020.45 679,-1020.45 679,-1020.45 519,-1020.45 519,-1020.45 513,-1020.45 507,-1014.45 507,-1008.45 507,-1008.45 507,-959.95 507,-959.95 507,-953.95 513,-947.95 519,-947.95"/>
</g>
<!-- 0x46ac07f4 -->
<g id="node1" class="node">
<title>0x46ac07f4</title>
<text xml:space="preserve" text-anchor="start" x="446.38" y="-994.18" font-family="Times New Roman,serif" font-weight="bold" font-size="12.00">ye0</text>
<path fill="#f8f9fa" stroke="none" d="M425.83,-963.83C425.83,-963.83 484.17,-963.83 484.17,-963.83 488.58,-963.83 493,-968.24 493,-972.66 493,-972.66 493,-981.49 493,-981.49 493,-985.91 488.58,-990.33 484.17,-990.33 484.17,-990.33 425.83,-990.33 425.83,-990.33 421.42,-990.33 417,-985.91 417,-981.49 417,-981.49 417,-972.66 417,-972.66 417,-968.24 421.42,-963.83 425.83,-963.83"/>
<path fill="none" stroke="#333333" d="M425.83,-963.83C425.83,-963.83 484.17,-963.83 484.17,-963.83 488.58,-963.83 493,-968.24 493,-972.66 493,-972.66 493,-981.49 493,-981.49 493,-985.91 488.58,-990.33 484.17,-990.33 484.17,-990.33 425.83,-990.33 425.83,-990.33 421.42,-990.33 417,-985.91 417,-981.49 417,-981.49 417,-972.66 417,-972.66 417,-968.24 421.42,-963.83 425.83,-963.83"/>
<text xml:space="preserve" text-anchor="start" x="422" y="-973.03" font-family="Times New Roman,serif" font-weight="bold" font-size="14.00">S1, A7, 0, 0</text>
</g>
<!-- 0xc9341150 -->
<g id="node3" class="node">
<title>0xc9341150</title>
<ellipse fill="white" stroke="black" stroke-width="0.8" cx="315" cy="-901.35" rx="3.6" ry="3.6"/>
</g>
<!-- 0x46ac07f4&#45;&gt;0xc9341150 -->
<g id="edge1" class="edge">
<title>0x46ac07f4:box&#45;&gt;0xc9341150</title>
<path fill="none" stroke="#22c55e" d="M416,-977.08C371.9,-977.08 334.46,-930.47 320.67,-910.87"/>
<polygon fill="#22c55e" stroke="#22c55e" points="322.53,-909.88 317.43,-906.09 319.06,-912.23 322.53,-909.88"/>
<text xml:space="preserve" text-anchor="start" x="342.76" y="-926.6" font-family="Times New Roman,serif" font-weight="bold" font-size="13.00" fill="#22c55e"> o1 </text>
</g>
<!-- 0xf4b0df55 -->
<g id="node7" class="node">
<title>0xf4b0df55</title>
<ellipse fill="white" stroke="black" stroke-width="0.8" cx="455" cy="-901.35" rx="3.6" ry="3.6"/>
</g>
<!-- 0x46ac07f4&#45;&gt;0xf4b0df55 -->
<g id="edge3" class="edge">
<title>0x46ac07f4:box&#45;&gt;0xf4b0df55</title>
<path fill="none" stroke="#3b82f6" d="M455,-962.83C455,-945.09 455,-924.42 455,-912.42"/>
<polygon fill="#3b82f6" stroke="#3b82f6" points="457.1,-912.64 455,-906.64 452.9,-912.64 457.1,-912.64"/>
<text xml:space="preserve" text-anchor="start" x="455" y="-926.6" font-family="Times New Roman,serif" font-weight="bold" font-size="13.00" fill="#3b82f6"> o2 </text>
</g>
<!-- 0x43ed09e0 -->
<g id="node11" class="node">
<title>0x43ed09e0</title>
<ellipse fill="white" stroke="black" stroke-width="0.8" cx="625" cy="-601.45" rx="3.6" ry="3.6"/>
</g>
<!-- 0x46ac07f4&#45;&gt;0x43ed09e0 -->
<g id="edge7" class="edge">
<title>0x46ac07f4:box&#45;&gt;0x43ed09e0</title>
<path fill="none" stroke="#3b82f6" d="M494,-977.08C507.42,-977.08 492.93,-957.85 502,-947.95 541.4,-904.97 625,-960.65 625,-902.35 625,-902.35 625,-902.35 625,-675.43 625,-652.98 625,-626.64 625,-612.56"/>
<polygon fill="#3b82f6" stroke="#3b82f6" points="627.1,-612.75 625,-606.75 622.9,-612.75 627.1,-612.75"/>
<text xml:space="preserve" text-anchor="start" x="625" y="-776.65" font-family="Times New Roman,serif" font-weight="bold" font-size="13.00" fill="#3b82f6"> o3 </text>
</g>
<!-- 0x8e7109f3 -->
<g id="node2" class="node">
<title>0x8e7109f3</title>
<text xml:space="preserve" text-anchor="start" x="250.38" y="-836.35" font-family="Times New Roman,serif" font-weight="bold" font-size="12.00">ye1</text>
<path fill="#f8f9fa" stroke="none" d="M229.83,-806C229.83,-806 288.17,-806 288.17,-806 292.58,-806 297,-810.42 297,-814.83 297,-814.83 297,-823.67 297,-823.67 297,-828.08 292.58,-832.5 288.17,-832.5 288.17,-832.5 229.83,-832.5 229.83,-832.5 225.42,-832.5 221,-828.08 221,-823.67 221,-823.67 221,-814.83 221,-814.83 221,-810.42 225.42,-806 229.83,-806"/>
<path fill="none" stroke="#333333" d="M229.83,-806C229.83,-806 288.17,-806 288.17,-806 292.58,-806 297,-810.42 297,-814.83 297,-814.83 297,-823.67 297,-823.67 297,-828.08 292.58,-832.5 288.17,-832.5 288.17,-832.5 229.83,-832.5 229.83,-832.5 225.42,-832.5 221,-828.08 221,-823.67 221,-823.67 221,-814.83 221,-814.83 221,-810.42 225.42,-806 229.83,-806"/>
<text xml:space="preserve" text-anchor="start" x="226" y="-815.2" font-family="Times New Roman,serif" font-weight="bold" font-size="14.00">S2, A7, 1, 0</text>
</g>
<!-- 0x83b29587 -->
<g id="node13" class="node">
<title>0x83b29587</title>
<ellipse fill="white" stroke="black" stroke-width="0.8" cx="259" cy="-751.4" rx="3.6" ry="3.6"/>
</g>
<!-- 0x8e7109f3&#45;&gt;0x83b29587 -->
<g id="edge11" class="edge">
<title>0x8e7109f3:box&#45;&gt;0x83b29587</title>
<path fill="none" stroke="#4b5563" d="M259,-806C259,-790.88 259,-773.36 259,-762.58"/>
<polygon fill="#4b5563" stroke="#4b5563" points="261.1,-762.82 259,-756.82 256.9,-762.82 261.1,-762.82"/>
<text xml:space="preserve" text-anchor="start" x="259" y="-776.65" font-family="Times New Roman,serif" font-weight="bold" font-size="13.00" fill="#4b5563"> uo2 </text>
</g>
<!-- 0xc9341150&#45;&gt;0x8e7109f3 -->
<g id="edge2" class="edge">
<title>0xc9341150&#45;&gt;0x8e7109f3:box</title>
<path fill="none" stroke="#666666" stroke-dasharray="5,2" d="M314.73,-897.65C313.55,-886.22 308.66,-841.61 302.46,-825.28"/>
<polygon fill="#666666" stroke="#666666" points="304.16,-824.04 298.9,-820.47 300.78,-826.54 304.16,-824.04"/>
<text xml:space="preserve" text-anchor="start" x="312.55" y="-868.4" font-family="Times New Roman,serif" font-weight="bold" font-size="13.00" fill="#666666"> o1 </text>
</g>
<!-- 0x14432f18 -->
<g id="node4" class="node">
<title>0x14432f18</title>
<text xml:space="preserve" text-anchor="start" x="446.38" y="-836.35" font-family="Times New Roman,serif" font-weight="bold" font-size="12.00">ye2</text>
<path fill="#f8f9fa" stroke="none" d="M425.83,-806C425.83,-806 484.17,-806 484.17,-806 488.58,-806 493,-810.42 493,-814.83 493,-814.83 493,-823.67 493,-823.67 493,-828.08 488.58,-832.5 484.17,-832.5 484.17,-832.5 425.83,-832.5 425.83,-832.5 421.42,-832.5 417,-828.08 417,-823.67 417,-823.67 417,-814.83 417,-814.83 417,-810.42 421.42,-806 425.83,-806"/>
<path fill="none" stroke="#333333" d="M425.83,-806C425.83,-806 484.17,-806 484.17,-806 488.58,-806 493,-810.42 493,-814.83 493,-814.83 493,-823.67 493,-823.67 493,-828.08 488.58,-832.5 484.17,-832.5 484.17,-832.5 425.83,-832.5 425.83,-832.5 421.42,-832.5 417,-828.08 417,-823.67 417,-823.67 417,-814.83 417,-814.83 417,-810.42 421.42,-806 425.83,-806"/>
<text xml:space="preserve" text-anchor="start" x="422" y="-815.2" font-family="Times New Roman,serif" font-weight="bold" font-size="14.00">S8, A0, 3, 2</text>
</g>
<!-- 0xd572f2c3 -->
<g id="node15" class="node">
<title>0xd572f2c3</title>
<ellipse fill="white" stroke="black" stroke-width="0.8" cx="455" cy="-751.4" rx="3.6" ry="3.6"/>
</g>
<!-- 0x14432f18&#45;&gt;0xd572f2c3 -->
<g id="edge13" class="edge">
<title>0x14432f18:box&#45;&gt;0xd572f2c3</title>
<path fill="none" stroke="#ef4444" d="M455,-806C455,-790.88 455,-773.36 455,-762.58"/>
<polygon fill="#ef4444" stroke="#ef4444" points="457.1,-762.82 455,-756.82 452.9,-762.82 457.1,-762.82"/>
<text xml:space="preserve" text-anchor="start" x="455" y="-776.65" font-family="Times New Roman,serif" font-weight="bold" font-size="13.00" fill="#ef4444"> o4 </text>
</g>
<!-- 0x640c8300 -->
<g id="node5" class="node">
<title>0x640c8300</title>
<text xml:space="preserve" text-anchor="start" x="348.38" y="-836.35" font-family="Times New Roman,serif" font-weight="bold" font-size="12.00">ye3</text>
<path fill="#f8f9fa" stroke="none" d="M327.83,-806C327.83,-806 386.17,-806 386.17,-806 390.58,-806 395,-810.42 395,-814.83 395,-814.83 395,-823.67 395,-823.67 395,-828.08 390.58,-832.5 386.17,-832.5 386.17,-832.5 327.83,-832.5 327.83,-832.5 323.42,-832.5 319,-828.08 319,-823.67 319,-823.67 319,-814.83 319,-814.83 319,-810.42 323.42,-806 327.83,-806"/>
<path fill="none" stroke="#333333" d="M327.83,-806C327.83,-806 386.17,-806 386.17,-806 390.58,-806 395,-810.42 395,-814.83 395,-814.83 395,-823.67 395,-823.67 395,-828.08 390.58,-832.5 386.17,-832.5 386.17,-832.5 327.83,-832.5 327.83,-832.5 323.42,-832.5 319,-828.08 319,-823.67 319,-823.67 319,-814.83 319,-814.83 319,-810.42 323.42,-806 327.83,-806"/>
<text xml:space="preserve" text-anchor="start" x="324" y="-815.2" font-family="Times New Roman,serif" font-weight="bold" font-size="14.00">S1, A0, 3, 0</text>
</g>
<!-- 0xaa7a8b72 -->
<g id="node17" class="node">
<title>0xaa7a8b72</title>
<ellipse fill="white" stroke="black" stroke-width="0.8" cx="357" cy="-751.4" rx="3.6" ry="3.6"/>
</g>
<!-- 0x640c8300&#45;&gt;0xaa7a8b72 -->
<g id="edge15" class="edge">
<title>0x640c8300:box&#45;&gt;0xaa7a8b72</title>
<path fill="none" stroke="#ef4444" d="M357,-806C357,-790.88 357,-773.36 357,-762.58"/>
<polygon fill="#ef4444" stroke="#ef4444" points="359.1,-762.82 357,-756.82 354.9,-762.82 359.1,-762.82"/>
<text xml:space="preserve" text-anchor="start" x="357" y="-776.65" font-family="Times New Roman,serif" font-weight="bold" font-size="13.00" fill="#ef4444"> o4 </text>
</g>
<!-- 0x18921e5b -->
<g id="node6" class="node">
<title>0x18921e5b</title>
<text xml:space="preserve" text-anchor="start" x="544.38" y="-836.35" font-family="Times New Roman,serif" font-weight="bold" font-size="12.00">ye4</text>
<path fill="#f8f9fa" stroke="none" d="M523.83,-806C523.83,-806 582.17,-806 582.17,-806 586.58,-806 591,-810.42 591,-814.83 591,-814.83 591,-823.67 591,-823.67 591,-828.08 586.58,-832.5 582.17,-832.5 582.17,-832.5 523.83,-832.5 523.83,-832.5 519.42,-832.5 515,-828.08 515,-823.67 515,-823.67 515,-814.83 515,-814.83 515,-810.42 519.42,-806 523.83,-806"/>
<path fill="none" stroke="#333333" d="M523.83,-806C523.83,-806 582.17,-806 582.17,-806 586.58,-806 591,-810.42 591,-814.83 591,-814.83 591,-823.67 591,-823.67 591,-828.08 586.58,-832.5 582.17,-832.5 582.17,-832.5 523.83,-832.5 523.83,-832.5 519.42,-832.5 515,-828.08 515,-823.67 515,-823.67 515,-814.83 515,-814.83 515,-810.42 519.42,-806 523.83,-806"/>
<text xml:space="preserve" text-anchor="start" x="520" y="-815.2" font-family="Times New Roman,serif" font-weight="bold" font-size="14.00">S7, A0, 3, 1</text>
</g>
<!-- 0x19f1c96c -->
<g id="node19" class="node">
<title>0x19f1c96c</title>
<ellipse fill="white" stroke="black" stroke-width="0.8" cx="553" cy="-751.4" rx="3.6" ry="3.6"/>
</g>
<!-- 0x18921e5b&#45;&gt;0x19f1c96c -->
<g id="edge17" class="edge">
<title>0x18921e5b:box&#45;&gt;0x19f1c96c</title>
<path fill="none" stroke="#ef4444" d="M553,-806C553,-790.88 553,-773.36 553,-762.58"/>
<polygon fill="#ef4444" stroke="#ef4444" points="555.1,-762.82 553,-756.82 550.9,-762.82 555.1,-762.82"/>
<text xml:space="preserve" text-anchor="start" x="553" y="-776.65" font-family="Times New Roman,serif" font-weight="bold" font-size="13.00" fill="#ef4444"> o4 </text>
</g>
<!-- 0xf4b0df55&#45;&gt;0x14432f18 -->
<g id="edge4" class="edge">
<title>0xf4b0df55&#45;&gt;0x14432f18:box</title>
<path fill="none" stroke="#666666" stroke-dasharray="5,2" d="M456.73,-898.08C463.88,-888.65 490.97,-852.75 493,-846.75 495.64,-838.97 500.7,-829.23 500.03,-823.68"/>
<polygon fill="#666666" stroke="#666666" points="501.3,-822 495.22,-820.15 498.82,-825.39 501.3,-822"/>
<text xml:space="preserve" text-anchor="start" x="480.74" y="-868.4" font-family="Times New Roman,serif" font-weight="bold" font-size="13.00" fill="#666666"> o2 </text>
</g>
<!-- 0xf4b0df55&#45;&gt;0x640c8300 -->
<g id="edge5" class="edge">
<title>0xf4b0df55&#45;&gt;0x640c8300:box</title>
<path fill="none" stroke="#666666" stroke-dasharray="5,2" d="M452.82,-898.54C445.29,-892.19 420.11,-870.04 406,-846.75 401.16,-838.76 404.83,-828.05 402.45,-822.66"/>
<polygon fill="#666666" stroke="#666666" points="403.62,-820.9 397.34,-819.96 401.66,-824.62 403.62,-820.9"/>
<text xml:space="preserve" text-anchor="start" x="431.76" y="-868.4" font-family="Times New Roman,serif" font-weight="bold" font-size="13.00" fill="#666666"> ε </text>
</g>
<!-- 0xf4b0df55&#45;&gt;0x18921e5b -->
<g id="edge6" class="edge">
<title>0xf4b0df55&#45;&gt;0x18921e5b:box</title>
<path fill="none" stroke="#666666" stroke-dasharray="5,2" d="M458.62,-899.9C467.53,-898.59 490.62,-893.92 502,-879.75 508.97,-871.07 503.49,-836.55 508.54,-823.92"/>
<polygon fill="#666666" stroke="#666666" points="509.65,-825.73 512.85,-820.23 506.92,-822.54 509.65,-825.73"/>
<text xml:space="preserve" text-anchor="start" x="505.62" y="-868.4" font-family="Times New Roman,serif" font-weight="bold" font-size="13.00" fill="#666666"> o3 </text>
</g>
<!-- 0x5cb8417a -->
<g id="node8" class="node">
<title>0x5cb8417a</title>
<text xml:space="preserve" text-anchor="start" x="689.38" y="-527.08" font-family="Times New Roman,serif" font-weight="bold" font-size="12.00">ye5</text>
<path fill="#f8f9fa" stroke="none" d="M668.83,-496.73C668.83,-496.73 727.17,-496.73 727.17,-496.73 731.58,-496.73 736,-501.14 736,-505.56 736,-505.56 736,-514.39 736,-514.39 736,-518.81 731.58,-523.23 727.17,-523.23 727.17,-523.23 668.83,-523.23 668.83,-523.23 664.42,-523.23 660,-518.81 660,-514.39 660,-514.39 660,-505.56 660,-505.56 660,-501.14 664.42,-496.73 668.83,-496.73"/>
<path fill="none" stroke="#333333" d="M668.83,-496.73C668.83,-496.73 727.17,-496.73 727.17,-496.73 731.58,-496.73 736,-501.14 736,-505.56 736,-505.56 736,-514.39 736,-514.39 736,-518.81 731.58,-523.23 727.17,-523.23 727.17,-523.23 668.83,-523.23 668.83,-523.23 664.42,-523.23 660,-518.81 660,-514.39 660,-514.39 660,-505.56 660,-505.56 660,-501.14 664.42,-496.73 668.83,-496.73"/>
<text xml:space="preserve" text-anchor="start" x="665" y="-505.93" font-family="Times New Roman,serif" font-weight="bold" font-size="14.00">S8, A6, 7, 2</text>
</g>
<!-- 0x428f16fa -->
<g id="node22" class="node">
<title>0x428f16fa</title>
<ellipse fill="white" stroke="black" stroke-width="0.8" cx="769" cy="-432.75" rx="3.6" ry="3.6"/>
</g>
<!-- 0x5cb8417a&#45;&gt;0x428f16fa -->
<g id="edge19" class="edge">
<title>0x5cb8417a:box&#45;&gt;0x428f16fa</title>
<path fill="none" stroke="#3b82f6" d="M737,-509.98C765.26,-509.98 768.98,-464.9 769.19,-444.07"/>
<polygon fill="#3b82f6" stroke="#3b82f6" points="771.29,-444.14 769.13,-438.16 767.09,-444.18 771.29,-444.14"/>
<text xml:space="preserve" text-anchor="start" x="768.76" y="-458" font-family="Times New Roman,serif" font-weight="bold" font-size="13.00" fill="#3b82f6"> o3 </text>
</g>
<!-- 0x2c29a702 -->
<g id="node24" class="node">
<title>0x2c29a702</title>
<ellipse fill="white" stroke="black" stroke-width="0.8" cx="698" cy="-432.75" rx="3.6" ry="3.6"/>
</g>
<!-- 0x5cb8417a&#45;&gt;0x2c29a702 -->
<g id="edge23" class="edge">
<title>0x5cb8417a:box&#45;&gt;0x2c29a702</title>
<path fill="none" stroke="#4b5563" d="M698,-495.73C698,-477.55 698,-456.37 698,-444.07"/>
<polygon fill="#4b5563" stroke="#4b5563" points="700.1,-444.11 698,-438.11 695.9,-444.11 700.1,-444.11"/>
<text xml:space="preserve" text-anchor="start" x="698" y="-458" font-family="Times New Roman,serif" font-weight="bold" font-size="13.00" fill="#4b5563"> uo1 </text>
</g>
<!-- 0xc6588f2d -->
<g id="node9" class="node">
<title>0xc6588f2d</title>
<text xml:space="preserve" text-anchor="start" x="348.38" y="-527.08" font-family="Times New Roman,serif" font-weight="bold" font-size="12.00">ye6</text>
<path fill="#f8f9fa" stroke="none" d="M327.83,-496.73C327.83,-496.73 386.17,-496.73 386.17,-496.73 390.58,-496.73 395,-501.14 395,-505.56 395,-505.56 395,-514.39 395,-514.39 395,-518.81 390.58,-523.23 386.17,-523.23 386.17,-523.23 327.83,-523.23 327.83,-523.23 323.42,-523.23 319,-518.81 319,-514.39 319,-514.39 319,-505.56 319,-505.56 319,-501.14 323.42,-496.73 327.83,-496.73"/>
<path fill="none" stroke="#333333" d="M327.83,-496.73C327.83,-496.73 386.17,-496.73 386.17,-496.73 390.58,-496.73 395,-501.14 395,-505.56 395,-505.56 395,-514.39 395,-514.39 395,-518.81 390.58,-523.23 386.17,-523.23 386.17,-523.23 327.83,-523.23 327.83,-523.23 323.42,-523.23 319,-518.81 319,-514.39 319,-514.39 319,-505.56 319,-505.56 319,-501.14 323.42,-496.73 327.83,-496.73"/>
<text xml:space="preserve" text-anchor="start" x="324" y="-505.93" font-family="Times New Roman,serif" font-weight="bold" font-size="14.00">S1, A6, 7, 0</text>
</g>
<!-- 0x5432a69 -->
<g id="node27" class="node">
<title>0x5432a69</title>
<ellipse fill="white" stroke="black" stroke-width="0.8" cx="357" cy="-432.75" rx="3.6" ry="3.6"/>
</g>
<!-- 0xc6588f2d&#45;&gt;0x5432a69 -->
<g id="edge25" class="edge">
<title>0xc6588f2d:box&#45;&gt;0x5432a69</title>
<path fill="none" stroke="#3b82f6" d="M357,-495.73C357,-477.55 357,-456.37 357,-444.07"/>
<polygon fill="#3b82f6" stroke="#3b82f6" points="359.1,-444.11 357,-438.11 354.9,-444.11 359.1,-444.11"/>
<text xml:space="preserve" text-anchor="start" x="357" y="-458" font-family="Times New Roman,serif" font-weight="bold" font-size="13.00" fill="#3b82f6"> o3 </text>
</g>
<!-- 0x5de1c5f -->
<g id="node29" class="node">
<title>0x5de1c5f</title>
<ellipse fill="white" stroke="black" stroke-width="0.8" cx="293" cy="-432.75" rx="3.6" ry="3.6"/>
</g>
<!-- 0xc6588f2d&#45;&gt;0x5de1c5f -->
<g id="edge29" class="edge">
<title>0xc6588f2d:box&#45;&gt;0x5de1c5f</title>
<path fill="none" stroke="#4b5563" d="M318,-509.98C314.56,-509.98 301.52,-464.49 295.76,-443.79"/>
<polygon fill="#4b5563" stroke="#4b5563" points="297.81,-443.33 294.19,-438.1 293.76,-444.45 297.81,-443.33"/>
<text xml:space="preserve" text-anchor="start" x="302.7" y="-458" font-family="Times New Roman,serif" font-weight="bold" font-size="13.00" fill="#4b5563"> uo1 </text>
</g>
<!-- 0x7ade2a88 -->
<g id="node10" class="node">
<title>0x7ade2a88</title>
<text xml:space="preserve" text-anchor="start" x="524.38" y="-527.08" font-family="Times New Roman,serif" font-weight="bold" font-size="12.00">ye7</text>
<path fill="#f8f9fa" stroke="none" d="M503.83,-496.73C503.83,-496.73 562.17,-496.73 562.17,-496.73 566.58,-496.73 571,-501.14 571,-505.56 571,-505.56 571,-514.39 571,-514.39 571,-518.81 566.58,-523.23 562.17,-523.23 562.17,-523.23 503.83,-523.23 503.83,-523.23 499.42,-523.23 495,-518.81 495,-514.39 495,-514.39 495,-505.56 495,-505.56 495,-501.14 499.42,-496.73 503.83,-496.73"/>
<path fill="none" stroke="#333333" d="M503.83,-496.73C503.83,-496.73 562.17,-496.73 562.17,-496.73 566.58,-496.73 571,-501.14 571,-505.56 571,-505.56 571,-514.39 571,-514.39 571,-518.81 566.58,-523.23 562.17,-523.23 562.17,-523.23 503.83,-523.23 503.83,-523.23 499.42,-523.23 495,-518.81 495,-514.39 495,-514.39 495,-505.56 495,-505.56 495,-501.14 499.42,-496.73 503.83,-496.73"/>
<text xml:space="preserve" text-anchor="start" x="500" y="-505.93" font-family="Times New Roman,serif" font-weight="bold" font-size="14.00">S7, A6, 7, 1</text>
</g>
<!-- 0x927e5158 -->
<g id="node31" class="node">
<title>0x927e5158</title>
<ellipse fill="white" stroke="black" stroke-width="0.8" cx="528" cy="-432.75" rx="3.6" ry="3.6"/>
</g>
<!-- 0x7ade2a88&#45;&gt;0x927e5158 -->
<g id="edge31" class="edge">
<title>0x7ade2a88:box&#45;&gt;0x927e5158</title>
<path fill="none" stroke="#4b5563" d="M533,-495.73C533,-477.31 530.78,-455.92 529.3,-443.69"/>
<polygon fill="#4b5563" stroke="#4b5563" points="531.43,-443.77 528.58,-438.09 527.26,-444.3 531.43,-443.77"/>
<text xml:space="preserve" text-anchor="start" x="531.79" y="-458" font-family="Times New Roman,serif" font-weight="bold" font-size="13.00" fill="#4b5563"> uo1 </text>
</g>
<!-- 0x43ed09e0&#45;&gt;0x5cb8417a -->
<g id="edge8" class="edge">
<title>0x43ed09e0&#45;&gt;0x5cb8417a:box</title>
<path fill="none" stroke="#666666" stroke-dasharray="5,2" d="M627.93,-599C633.33,-596.16 644.78,-589.3 650,-579.85 663.72,-555.01 634.25,-517.81 651.91,-511.05"/>
<polygon fill="#666666" stroke="#666666" points="651.88,-513.17 657.5,-510.2 651.26,-509.02 651.88,-513.17"/>
<text xml:space="preserve" text-anchor="start" x="653.75" y="-568.5" font-family="Times New Roman,serif" font-weight="bold" font-size="13.00" fill="#666666"> o2 </text>
</g>
<!-- 0x43ed09e0&#45;&gt;0xc6588f2d -->
<g id="edge9" class="edge">
<title>0x43ed09e0&#45;&gt;0xc6588f2d:box</title>
<path fill="none" stroke="#666666" stroke-dasharray="5,2" d="M622.68,-598.84C614.57,-593.29 586.62,-574.75 561,-564.85 528.22,-552.19 517.43,-557.68 484,-546.85 446.02,-534.55 439.14,-512.73 403.09,-510.21"/>
<polygon fill="#666666" stroke="#666666" points="403.58,-508.13 397.51,-510.03 403.44,-512.33 403.58,-508.13"/>
<text xml:space="preserve" text-anchor="start" x="591.09" y="-568.5" font-family="Times New Roman,serif" font-weight="bold" font-size="13.00" fill="#666666"> ε </text>
</g>
<!-- 0x43ed09e0&#45;&gt;0x7ade2a88 -->
<g id="edge10" class="edge">
<title>0x43ed09e0&#45;&gt;0x7ade2a88:box</title>
<path fill="none" stroke="#666666" stroke-dasharray="5,2" d="M624.77,-597.84C623.37,-583.87 614.95,-518.33 579.03,-510.7"/>
<polygon fill="#666666" stroke="#666666" points="579.69,-508.66 573.51,-510.13 579.26,-512.84 579.69,-508.66"/>
<text xml:space="preserve" text-anchor="start" x="622" y="-568.5" font-family="Times New Roman,serif" font-weight="bold" font-size="13.00" fill="#666666"> o3 </text>
</g>
<!-- 0x77c1714c -->
<g id="node12" class="node">
<title>0x77c1714c</title>
<text xml:space="preserve" text-anchor="start" x="250.38" y="-686.4" font-family="Times New Roman,serif" font-weight="bold" font-size="12.00">ye8</text>
<path fill="#f8f9fa" stroke="none" d="M229.83,-656.05C229.83,-656.05 288.17,-656.05 288.17,-656.05 292.58,-656.05 297,-660.47 297,-664.88 297,-664.88 297,-673.72 297,-673.72 297,-678.13 292.58,-682.55 288.17,-682.55 288.17,-682.55 229.83,-682.55 229.83,-682.55 225.42,-682.55 221,-678.13 221,-673.72 221,-673.72 221,-664.88 221,-664.88 221,-660.47 225.42,-656.05 229.83,-656.05"/>
<path fill="none" stroke="#333333" d="M229.83,-656.05C229.83,-656.05 288.17,-656.05 288.17,-656.05 292.58,-656.05 297,-660.47 297,-664.88 297,-664.88 297,-673.72 297,-673.72 297,-678.13 292.58,-682.55 288.17,-682.55 288.17,-682.55 229.83,-682.55 229.83,-682.55 225.42,-682.55 221,-678.13 221,-673.72 221,-673.72 221,-664.88 221,-664.88 221,-660.47 225.42,-656.05 229.83,-656.05"/>
<text xml:space="preserve" text-anchor="start" x="226" y="-665.25" font-family="Times New Roman,serif" font-weight="bold" font-size="14.00">S2, A7, 2, 0</text>
</g>
<!-- 0x3ca981b2 -->
<g id="node33" class="node">
<title>0x3ca981b2</title>
<ellipse fill="white" stroke="black" stroke-width="0.8" cx="259" cy="-601.45" rx="3.6" ry="3.6"/>
</g>
<!-- 0x77c1714c&#45;&gt;0x3ca981b2 -->
<g id="edge33" class="edge">
<title>0x77c1714c:box&#45;&gt;0x3ca981b2</title>
<path fill="none" stroke="#22c55e" d="M259,-656.05C259,-640.93 259,-623.41 259,-612.63"/>
<polygon fill="#22c55e" stroke="#22c55e" points="261.1,-612.87 259,-606.87 256.9,-612.87 261.1,-612.87"/>
<text xml:space="preserve" text-anchor="start" x="259" y="-626.7" font-family="Times New Roman,serif" font-weight="bold" font-size="13.00" fill="#22c55e"> o1 </text>
</g>
<!-- 0x83b29587&#45;&gt;0x77c1714c -->
<g id="edge12" class="edge">
<title>0x83b29587&#45;&gt;0x77c1714c:box</title>
<path fill="none" stroke="#666666" stroke-dasharray="5,2" d="M261.29,-748.22C268.27,-741.43 289.24,-719.7 297,-696.8 299.64,-689.02 304.7,-679.28 304.03,-673.73"/>
<polygon fill="#666666" stroke="#666666" points="305.3,-672.05 299.22,-670.2 302.82,-675.44 305.3,-672.05"/>
<text xml:space="preserve" text-anchor="start" x="287.59" y="-718.45" font-family="Times New Roman,serif" font-weight="bold" font-size="13.00" fill="#666666"> uo2 </text>
</g>
<!-- 0x78a936d6 -->
<g id="node14" class="node">
<title>0x78a936d6</title>
<text xml:space="preserve" text-anchor="start" x="446.38" y="-686.4" font-family="Times New Roman,serif" font-weight="bold" font-size="12.00">ye9</text>
<path fill="#f8f9fa" stroke="none" d="M425.83,-656.05C425.83,-656.05 484.17,-656.05 484.17,-656.05 488.58,-656.05 493,-660.47 493,-664.88 493,-664.88 493,-673.72 493,-673.72 493,-678.13 488.58,-682.55 484.17,-682.55 484.17,-682.55 425.83,-682.55 425.83,-682.55 421.42,-682.55 417,-678.13 417,-673.72 417,-673.72 417,-664.88 417,-664.88 417,-660.47 421.42,-656.05 425.83,-656.05"/>
<path fill="none" stroke="#333333" d="M425.83,-656.05C425.83,-656.05 484.17,-656.05 484.17,-656.05 488.58,-656.05 493,-660.47 493,-664.88 493,-664.88 493,-673.72 493,-673.72 493,-678.13 488.58,-682.55 484.17,-682.55 484.17,-682.55 425.83,-682.55 425.83,-682.55 421.42,-682.55 417,-678.13 417,-673.72 417,-673.72 417,-664.88 417,-664.88 417,-660.47 421.42,-656.05 425.83,-656.05"/>
<text xml:space="preserve" text-anchor="start" x="422" y="-665.25" font-family="Times New Roman,serif" font-weight="bold" font-size="14.00">S8, A2, 6, 2</text>
</g>
<!-- 0xd572f2c3&#45;&gt;0x78a936d6 -->
<g id="edge14" class="edge">
<title>0xd572f2c3&#45;&gt;0x78a936d6:box</title>
<path fill="none" stroke="#666666" stroke-dasharray="5,2" d="M457.29,-748.22C464.27,-741.43 485.24,-719.7 493,-696.8 495.64,-689.02 500.7,-679.28 500.03,-673.73"/>
<polygon fill="#666666" stroke="#666666" points="501.3,-672.05 495.22,-670.2 498.82,-675.44 501.3,-672.05"/>
<text xml:space="preserve" text-anchor="start" x="483.59" y="-718.45" font-family="Times New Roman,serif" font-weight="bold" font-size="13.00" fill="#666666"> o4 </text>
</g>
<!-- 0xdd0827d4 -->
<g id="node16" class="node">
<title>0xdd0827d4</title>
<text xml:space="preserve" text-anchor="start" x="345.38" y="-686.4" font-family="Times New Roman,serif" font-weight="bold" font-size="12.00">ye10</text>
<path fill="#f8f9fa" stroke="none" d="M327.83,-656.05C327.83,-656.05 386.17,-656.05 386.17,-656.05 390.58,-656.05 395,-660.47 395,-664.88 395,-664.88 395,-673.72 395,-673.72 395,-678.13 390.58,-682.55 386.17,-682.55 386.17,-682.55 327.83,-682.55 327.83,-682.55 323.42,-682.55 319,-678.13 319,-673.72 319,-673.72 319,-664.88 319,-664.88 319,-660.47 323.42,-656.05 327.83,-656.05"/>
<path fill="none" stroke="#333333" d="M327.83,-656.05C327.83,-656.05 386.17,-656.05 386.17,-656.05 390.58,-656.05 395,-660.47 395,-664.88 395,-664.88 395,-673.72 395,-673.72 395,-678.13 390.58,-682.55 386.17,-682.55 386.17,-682.55 327.83,-682.55 327.83,-682.55 323.42,-682.55 319,-678.13 319,-673.72 319,-673.72 319,-664.88 319,-664.88 319,-660.47 323.42,-656.05 327.83,-656.05"/>
<text xml:space="preserve" text-anchor="start" x="324" y="-665.25" font-family="Times New Roman,serif" font-weight="bold" font-size="14.00">S1, A6, 6, 0</text>
</g>
<!-- 0xbb1d596d -->
<g id="node34" class="node">
<title>0xbb1d596d</title>
<ellipse fill="white" stroke="black" stroke-width="0.8" cx="357" cy="-601.45" rx="3.6" ry="3.6"/>
</g>
<!-- 0xdd0827d4&#45;&gt;0xbb1d596d -->
<g id="edge35" class="edge">
<title>0xdd0827d4:box&#45;&gt;0xbb1d596d</title>
<path fill="none" stroke="#4b5563" d="M357,-656.05C357,-640.93 357,-623.41 357,-612.63"/>
<polygon fill="#4b5563" stroke="#4b5563" points="359.1,-612.87 357,-606.87 354.9,-612.87 359.1,-612.87"/>
<text xml:space="preserve" text-anchor="start" x="357" y="-626.7" font-family="Times New Roman,serif" font-weight="bold" font-size="13.00" fill="#4b5563"> uo3 </text>
</g>
<!-- 0xaa7a8b72&#45;&gt;0xdd0827d4 -->
<g id="edge16" class="edge">
<title>0xaa7a8b72&#45;&gt;0xdd0827d4:box</title>
<path fill="none" stroke="#666666" stroke-dasharray="5,2" d="M359.29,-748.22C366.27,-741.43 387.24,-719.7 395,-696.8 397.64,-689.02 402.7,-679.28 402.03,-673.73"/>
<polygon fill="#666666" stroke="#666666" points="403.3,-672.05 397.22,-670.2 400.82,-675.44 403.3,-672.05"/>
<text xml:space="preserve" text-anchor="start" x="385.59" y="-718.45" font-family="Times New Roman,serif" font-weight="bold" font-size="13.00" fill="#666666"> o4 </text>
</g>
<!-- 0x918dc32f -->
<g id="node18" class="node">
<title>0x918dc32f</title>
<text xml:space="preserve" text-anchor="start" x="541.75" y="-686.4" font-family="Times New Roman,serif" font-weight="bold" font-size="12.00">ye11</text>
<path fill="#f8f9fa" stroke="none" d="M523.83,-656.05C523.83,-656.05 582.17,-656.05 582.17,-656.05 586.58,-656.05 591,-660.47 591,-664.88 591,-664.88 591,-673.72 591,-673.72 591,-678.13 586.58,-682.55 582.17,-682.55 582.17,-682.55 523.83,-682.55 523.83,-682.55 519.42,-682.55 515,-678.13 515,-673.72 515,-673.72 515,-664.88 515,-664.88 515,-660.47 519.42,-656.05 523.83,-656.05"/>
<path fill="none" stroke="#333333" d="M523.83,-656.05C523.83,-656.05 582.17,-656.05 582.17,-656.05 586.58,-656.05 591,-660.47 591,-664.88 591,-664.88 591,-673.72 591,-673.72 591,-678.13 586.58,-682.55 582.17,-682.55 582.17,-682.55 523.83,-682.55 523.83,-682.55 519.42,-682.55 515,-678.13 515,-673.72 515,-673.72 515,-664.88 515,-664.88 515,-660.47 519.42,-656.05 523.83,-656.05"/>
<text xml:space="preserve" text-anchor="start" x="520" y="-665.25" font-family="Times New Roman,serif" font-weight="bold" font-size="14.00">S7, A6, 6, 1</text>
</g>
<!-- 0x9a8a7434 -->
<g id="node35" class="node">
<title>0x9a8a7434</title>
<ellipse fill="white" stroke="black" stroke-width="0.8" cx="543" cy="-601.45" rx="3.6" ry="3.6"/>
</g>
<!-- 0x918dc32f&#45;&gt;0x9a8a7434 -->
<g id="edge37" class="edge">
<title>0x918dc32f:box&#45;&gt;0x9a8a7434</title>
<path fill="none" stroke="#4b5563" d="M553,-656.05C553,-640.67 548.97,-623.22 546.03,-612.52"/>
<polygon fill="#4b5563" stroke="#4b5563" points="548.05,-611.94 544.35,-606.77 544.01,-613.12 548.05,-611.94"/>
<text xml:space="preserve" text-anchor="start" x="551.32" y="-626.7" font-family="Times New Roman,serif" font-weight="bold" font-size="13.00" fill="#4b5563"> uo3 </text>
</g>
<!-- 0x19f1c96c&#45;&gt;0x918dc32f -->
<g id="edge18" class="edge">
<title>0x19f1c96c&#45;&gt;0x918dc32f:box</title>
<path fill="none" stroke="#666666" stroke-dasharray="5,2" d="M554.92,-748.4C565.75,-736.98 618.05,-680.35 599.27,-670.7"/>
<polygon fill="#666666" stroke="#666666" points="599.77,-668.66 593.49,-669.59 598.98,-672.78 599.77,-668.66"/>
<text xml:space="preserve" text-anchor="start" x="582.02" y="-718.45" font-family="Times New Roman,serif" font-weight="bold" font-size="13.00" fill="#666666"> o4 </text>
</g>
<!-- 0x1b03c4c7 -->
<g id="node20" class="node">
<title>0x1b03c4c7</title>
<text xml:space="preserve" text-anchor="start" x="787.38" y="-367.75" font-family="Times New Roman,serif" font-weight="bold" font-size="12.00">ye12</text>
<path fill="#fff1f2" stroke="none" d="M767.21,-337.4C767.21,-337.4 830.79,-337.4 830.79,-337.4 835.21,-337.4 839.62,-341.82 839.62,-346.23 839.62,-346.23 839.62,-355.07 839.62,-355.07 839.62,-359.48 835.21,-363.9 830.79,-363.9 830.79,-363.9 767.21,-363.9 767.21,-363.9 762.79,-363.9 758.38,-359.48 758.38,-355.07 758.38,-355.07 758.38,-346.23 758.38,-346.23 758.38,-341.82 762.79,-337.4 767.21,-337.4"/>
<path fill="none" stroke="#9f1239" d="M767.21,-337.4C767.21,-337.4 830.79,-337.4 830.79,-337.4 835.21,-337.4 839.62,-341.82 839.62,-346.23 839.62,-346.23 839.62,-355.07 839.62,-355.07 839.62,-359.48 835.21,-363.9 830.79,-363.9 830.79,-363.9 767.21,-363.9 767.21,-363.9 762.79,-363.9 758.38,-359.48 758.38,-355.07 758.38,-355.07 758.38,-346.23 758.38,-346.23 758.38,-341.82 762.79,-337.4 767.21,-337.4"/>
<text xml:space="preserve" text-anchor="start" x="763.38" y="-346.6" font-family="Times New Roman,serif" font-weight="bold" font-size="14.00">AX, A3, 8, 2</text>
</g>
<!-- 0x2c61ab -->
<g id="node21" class="node">
<title>0x2c61ab</title>
<text xml:space="preserve" text-anchor="start" x="603.38" y="-367.75" font-family="Times New Roman,serif" font-weight="bold" font-size="12.00">ye13</text>
<path fill="#f8f9fa" stroke="none" d="M585.83,-337.4C585.83,-337.4 644.17,-337.4 644.17,-337.4 648.58,-337.4 653,-341.82 653,-346.23 653,-346.23 653,-355.07 653,-355.07 653,-359.48 648.58,-363.9 644.17,-363.9 644.17,-363.9 585.83,-363.9 585.83,-363.9 581.42,-363.9 577,-359.48 577,-355.07 577,-355.07 577,-346.23 577,-346.23 577,-341.82 581.42,-337.4 585.83,-337.4"/>
<path fill="none" stroke="#333333" d="M585.83,-337.4C585.83,-337.4 644.17,-337.4 644.17,-337.4 648.58,-337.4 653,-341.82 653,-346.23 653,-346.23 653,-355.07 653,-355.07 653,-359.48 648.58,-363.9 644.17,-363.9 644.17,-363.9 585.83,-363.9 585.83,-363.9 581.42,-363.9 577,-359.48 577,-355.07 577,-355.07 577,-346.23 577,-346.23 577,-341.82 581.42,-337.4 585.83,-337.4"/>
<text xml:space="preserve" text-anchor="start" x="582" y="-346.6" font-family="Times New Roman,serif" font-weight="bold" font-size="14.00">S8, A3, 8, 2</text>
</g>
<!-- 0xe2e37f25 -->
<g id="node38" class="node">
<title>0xe2e37f25</title>
<ellipse fill="white" stroke="black" stroke-width="0.8" cx="609" cy="-282.8" rx="3.6" ry="3.6"/>
</g>
<!-- 0x2c61ab&#45;&gt;0xe2e37f25 -->
<g id="edge39" class="edge">
<title>0x2c61ab:box&#45;&gt;0xe2e37f25</title>
<path fill="none" stroke="#3b82f6" d="M615,-337.4C615,-328.14 606.92,-328.34 604.5,-319.4 602.16,-310.76 603.87,-300.59 605.82,-293.34"/>
<polygon fill="#3b82f6" stroke="#3b82f6" points="607.74,-294.24 607.53,-287.88 603.73,-292.98 607.74,-294.24"/>
<text xml:space="preserve" text-anchor="start" x="604.5" y="-308.05" font-family="Times New Roman,serif" font-weight="bold" font-size="13.00" fill="#3b82f6"> o2 </text>
</g>
<!-- 0x745b633d -->
<g id="node41" class="node">
<title>0x745b633d</title>
<ellipse fill="white" stroke="black" stroke-width="0.8" cx="851" cy="-282.8" rx="3.6" ry="3.6"/>
</g>
<!-- 0x2c61ab&#45;&gt;0x745b633d -->
<g id="edge43" class="edge">
<title>0x2c61ab:box&#45;&gt;0x745b633d</title>
<path fill="none" stroke="#3b82f6" d="M654,-350.65C674.59,-350.65 637.71,-319.69 651.5,-304.4 664.21,-290.31 799.96,-285.28 839.97,-284.1"/>
<polygon fill="#3b82f6" stroke="#3b82f6" points="840.02,-286.19 845.96,-283.93 839.9,-282 840.02,-286.19"/>
<text xml:space="preserve" text-anchor="start" x="651.5" y="-308.05" font-family="Times New Roman,serif" font-weight="bold" font-size="13.00" fill="#3b82f6"> o3 </text>
</g>
<!-- 0x428f16fa&#45;&gt;0x1b03c4c7 -->
<g id="edge20" class="edge">
<title>0x428f16fa&#45;&gt;0x1b03c4c7:box</title>
<path fill="none" stroke="#666666" stroke-dasharray="5,2" d="M772.18,-430.53C783.82,-425.86 824.16,-407.93 839.62,-378.15 843.59,-370.52 848.52,-360.02 846.85,-354.46"/>
<polygon fill="#666666" stroke="#666666" points="848.13,-352.79 841.92,-351.44 845.93,-356.37 848.13,-352.79"/>
<text xml:space="preserve" text-anchor="start" x="825.31" y="-399.8" font-family="Times New Roman,serif" font-weight="bold" font-size="13.00" fill="#666666"> o2 </text>
</g>
<!-- 0x428f16fa&#45;&gt;0x1b03c4c7 -->
<g id="edge22" class="edge">
<title>0x428f16fa&#45;&gt;0x1b03c4c7:box</title>
<path fill="none" stroke="#666666" stroke-dasharray="5,2" d="M767.65,-429.41C760.79,-417.31 730.81,-361.99 750.14,-352.15"/>
<polygon fill="#666666" stroke="#666666" points="750.44,-354.23 755.89,-350.96 749.59,-350.12 750.44,-354.23"/>
<text xml:space="preserve" text-anchor="start" x="757.55" y="-399.8" font-family="Times New Roman,serif" font-weight="bold" font-size="13.00" fill="#666666"> o3 </text>
</g>
<!-- 0x428f16fa&#45;&gt;0x2c61ab -->
<g id="edge21" class="edge">
<title>0x428f16fa&#45;&gt;0x2c61ab:box</title>
<path fill="none" stroke="#666666" stroke-dasharray="5,2" d="M766.19,-430.12C760.4,-426.73 746.77,-418.62 735.75,-411.15 700.53,-387.27 699.23,-354.73 661.49,-351"/>
<polygon fill="#666666" stroke="#666666" points="661.6,-348.91 655.51,-350.72 661.41,-353.1 661.6,-348.91"/>
<text xml:space="preserve" text-anchor="start" x="735.75" y="-399.8" font-family="Times New Roman,serif" font-weight="bold" font-size="13.00" fill="#666666"> ε </text>
</g>
<!-- 0xa6b2d5f6 -->
<g id="node23" class="node">
<title>0xa6b2d5f6</title>
<text xml:space="preserve" text-anchor="start" x="614.38" y="-208.42" font-family="Times New Roman,serif" font-weight="bold" font-size="12.00">ye14</text>
<path fill="#f8f9fa" stroke="none" d="M596.83,-178.07C596.83,-178.07 655.17,-178.07 655.17,-178.07 659.58,-178.07 664,-182.49 664,-186.91 664,-186.91 664,-195.74 664,-195.74 664,-200.16 659.58,-204.57 655.17,-204.57 655.17,-204.57 596.83,-204.57 596.83,-204.57 592.42,-204.57 588,-200.16 588,-195.74 588,-195.74 588,-186.91 588,-186.91 588,-182.49 592.42,-178.07 596.83,-178.07"/>
<path fill="none" stroke="#333333" d="M596.83,-178.07C596.83,-178.07 655.17,-178.07 655.17,-178.07 659.58,-178.07 664,-182.49 664,-186.91 664,-186.91 664,-195.74 664,-195.74 664,-200.16 659.58,-204.57 655.17,-204.57 655.17,-204.57 596.83,-204.57 596.83,-204.57 592.42,-204.57 588,-200.16 588,-195.74 588,-195.74 588,-186.91 588,-186.91 588,-182.49 592.42,-178.07 596.83,-178.07"/>
<text xml:space="preserve" text-anchor="start" x="593" y="-187.27" font-family="Times New Roman,serif" font-weight="bold" font-size="14.00">S8, A6, 4, 2</text>
</g>
<!-- 0x1f95f4bc -->
<g id="node44" class="node">
<title>0x1f95f4bc</title>
<ellipse fill="white" stroke="black" stroke-width="0.8" cx="538" cy="-114.1" rx="3.6" ry="3.6"/>
</g>
<!-- 0xa6b2d5f6&#45;&gt;0x1f95f4bc -->
<g id="edge47" class="edge">
<title>0xa6b2d5f6:box&#45;&gt;0x1f95f4bc</title>
<path fill="none" stroke="#3b82f6" d="M587,-191.32C576.01,-191.32 582.49,-178.23 577,-168.7 567.11,-151.52 552.87,-133.19 544.61,-123.04"/>
<polygon fill="#3b82f6" stroke="#3b82f6" points="546.39,-121.89 540.94,-118.6 543.15,-124.56 546.39,-121.89"/>
<text xml:space="preserve" text-anchor="start" x="564.7" y="-139.35" font-family="Times New Roman,serif" font-weight="bold" font-size="13.00" fill="#3b82f6"> o2 </text>
</g>
<!-- 0x1ecef736 -->
<g id="node46" class="node">
<title>0x1ecef736</title>
<ellipse fill="white" stroke="black" stroke-width="0.8" cx="665" cy="-114.1" rx="3.6" ry="3.6"/>
</g>
<!-- 0xa6b2d5f6&#45;&gt;0x1ecef736 -->
<g id="edge51" class="edge">
<title>0xa6b2d5f6:box&#45;&gt;0x1ecef736</title>
<path fill="none" stroke="#22c55e" d="M665,-191.32C678.08,-191.32 670.95,-145.84 667.03,-125.14"/>
<polygon fill="#22c55e" stroke="#22c55e" points="669.14,-124.96 665.91,-119.48 665.02,-125.77 669.14,-124.96"/>
<text xml:space="preserve" text-anchor="start" x="670.9" y="-139.35" font-family="Times New Roman,serif" font-weight="bold" font-size="13.00" fill="#22c55e"> o1 </text>
</g>
<!-- 0x2c29a702&#45;&gt;0xa6b2d5f6 -->
<g id="edge24" class="edge">
<title>0x2c29a702&#45;&gt;0xa6b2d5f6:box</title>
<path fill="none" stroke="#666666" stroke-dasharray="5,2" d="M698.05,-429.09C698.33,-412.29 698.99,-319.26 682,-246.2 680.06,-237.84 677.68,-236.35 675,-228.2 670.77,-215.35 677.71,-199.56 672.12,-193.68"/>
<polygon fill="#666666" stroke="#666666" points="672.79,-191.69 666.44,-191.8 671.47,-195.68 672.79,-191.69"/>
<text xml:space="preserve" text-anchor="start" x="693.37" y="-308.05" font-family="Times New Roman,serif" font-weight="bold" font-size="13.00" fill="#666666"> uo1 </text>
</g>
<!-- 0xe9ccaf5e -->
<g id="node25" class="node">
<title>0xe9ccaf5e</title>
<text xml:space="preserve" text-anchor="start" x="349.38" y="-367.75" font-family="Times New Roman,serif" font-weight="bold" font-size="12.00">ye15</text>
<path fill="#f8f9fa" stroke="none" d="M331.83,-337.4C331.83,-337.4 390.17,-337.4 390.17,-337.4 394.58,-337.4 399,-341.82 399,-346.23 399,-346.23 399,-355.07 399,-355.07 399,-359.48 394.58,-363.9 390.17,-363.9 390.17,-363.9 331.83,-363.9 331.83,-363.9 327.42,-363.9 323,-359.48 323,-355.07 323,-355.07 323,-346.23 323,-346.23 323,-341.82 327.42,-337.4 331.83,-337.4"/>
<path fill="none" stroke="#333333" d="M331.83,-337.4C331.83,-337.4 390.17,-337.4 390.17,-337.4 394.58,-337.4 399,-341.82 399,-346.23 399,-346.23 399,-355.07 399,-355.07 399,-359.48 394.58,-363.9 390.17,-363.9 390.17,-363.9 331.83,-363.9 331.83,-363.9 327.42,-363.9 323,-359.48 323,-355.07 323,-355.07 323,-346.23 323,-346.23 323,-341.82 327.42,-337.4 331.83,-337.4"/>
<text xml:space="preserve" text-anchor="start" x="328" y="-346.6" font-family="Times New Roman,serif" font-weight="bold" font-size="14.00">S1, A3, 8, 0</text>
</g>
<!-- 0x8c97bbf0 -->
<g id="node49" class="node">
<title>0x8c97bbf0</title>
<ellipse fill="white" stroke="black" stroke-width="0.8" cx="340" cy="-282.8" rx="3.6" ry="3.6"/>
</g>
<!-- 0xe9ccaf5e&#45;&gt;0x8c97bbf0 -->
<g id="edge53" class="edge">
<title>0xe9ccaf5e:box&#45;&gt;0x8c97bbf0</title>
<path fill="none" stroke="#3b82f6" d="M361,-337.4C361,-320.52 351.85,-302.57 345.63,-292.32"/>
<polygon fill="#3b82f6" stroke="#3b82f6" points="347.48,-291.31 342.47,-287.4 343.95,-293.58 347.48,-291.31"/>
<text xml:space="preserve" text-anchor="start" x="357.95" y="-308.05" font-family="Times New Roman,serif" font-weight="bold" font-size="13.00" fill="#3b82f6"> o2 </text>
</g>
<!-- 0x370f76ac -->
<g id="node50" class="node">
<title>0x370f76ac</title>
<ellipse fill="white" stroke="black" stroke-width="0.8" cx="434" cy="-282.8" rx="3.6" ry="3.6"/>
</g>
<!-- 0xe9ccaf5e&#45;&gt;0x370f76ac -->
<g id="edge57" class="edge">
<title>0xe9ccaf5e:box&#45;&gt;0x370f76ac</title>
<path fill="none" stroke="#3b82f6" d="M400,-350.65C425.06,-350.65 431.66,-312.85 433.39,-294.1"/>
<polygon fill="#3b82f6" stroke="#3b82f6" points="435.48,-294.31 433.8,-288.18 431.29,-294.02 435.48,-294.31"/>
<text xml:space="preserve" text-anchor="start" x="431.96" y="-308.05" font-family="Times New Roman,serif" font-weight="bold" font-size="13.00" fill="#3b82f6"> o3 </text>
</g>
<!-- 0xb752215d -->
<g id="node26" class="node">
<title>0xb752215d</title>
<text xml:space="preserve" text-anchor="start" x="185.38" y="-367.75" font-family="Times New Roman,serif" font-weight="bold" font-size="12.00">ye16</text>
<path fill="#f8f9fa" stroke="none" d="M167.83,-337.4C167.83,-337.4 226.17,-337.4 226.17,-337.4 230.58,-337.4 235,-341.82 235,-346.23 235,-346.23 235,-355.07 235,-355.07 235,-359.48 230.58,-363.9 226.17,-363.9 226.17,-363.9 167.83,-363.9 167.83,-363.9 163.42,-363.9 159,-359.48 159,-355.07 159,-355.07 159,-346.23 159,-346.23 159,-341.82 163.42,-337.4 167.83,-337.4"/>
<path fill="none" stroke="#333333" d="M167.83,-337.4C167.83,-337.4 226.17,-337.4 226.17,-337.4 230.58,-337.4 235,-341.82 235,-346.23 235,-346.23 235,-355.07 235,-355.07 235,-359.48 230.58,-363.9 226.17,-363.9 226.17,-363.9 167.83,-363.9 167.83,-363.9 163.42,-363.9 159,-359.48 159,-355.07 159,-355.07 159,-346.23 159,-346.23 159,-341.82 163.42,-337.4 167.83,-337.4"/>
<text xml:space="preserve" text-anchor="start" x="164" y="-346.6" font-family="Times New Roman,serif" font-weight="bold" font-size="14.00">S7, A3, 8, 1</text>
</g>
<!-- 0x4e21afca -->
<g id="node52" class="node">
<title>0x4e21afca</title>
<ellipse fill="white" stroke="black" stroke-width="0.8" cx="136" cy="-282.8" rx="3.6" ry="3.6"/>
</g>
<!-- 0xb752215d&#45;&gt;0x4e21afca -->
<g id="edge61" class="edge">
<title>0xb752215d:box&#45;&gt;0x4e21afca</title>
<path fill="none" stroke="#3b82f6" d="M197,-337.4C197,-310.75 163.73,-294.23 146.33,-287.41"/>
<polygon fill="#3b82f6" stroke="#3b82f6" points="147.06,-285.44 140.7,-285.36 145.62,-289.39 147.06,-285.44"/>
<text xml:space="preserve" text-anchor="start" x="190.66" y="-308.05" font-family="Times New Roman,serif" font-weight="bold" font-size="13.00" fill="#3b82f6"> o2 </text>
</g>
<!-- 0x5432a69&#45;&gt;0x2c61ab -->
<g id="edge26" class="edge">
<title>0x5432a69&#45;&gt;0x2c61ab:box</title>
<path fill="none" stroke="#666666" stroke-dasharray="5,2" d="M359.47,-430.06C376.28,-418.71 475.88,-354.05 568.76,-350.78"/>
<polygon fill="#666666" stroke="#666666" points="568.53,-352.88 574.49,-350.68 568.45,-348.68 568.53,-352.88"/>
<text xml:space="preserve" text-anchor="start" x="413.13" y="-399.8" font-family="Times New Roman,serif" font-weight="bold" font-size="13.00" fill="#666666"> o2 </text>
</g>
<!-- 0x5432a69&#45;&gt;0xe9ccaf5e -->
<g id="edge27" class="edge">
<title>0x5432a69&#45;&gt;0xe9ccaf5e:box</title>
<path fill="none" stroke="#666666" stroke-dasharray="5,2" d="M354.9,-429.41C344.1,-417.26 296.09,-361.52 314.85,-352.03"/>
<polygon fill="#666666" stroke="#666666" points="315.02,-354.13 320.51,-350.94 314.22,-350.01 315.02,-354.13"/>
<text xml:space="preserve" text-anchor="start" x="338.63" y="-399.8" font-family="Times New Roman,serif" font-weight="bold" font-size="13.00" fill="#666666"> ε </text>
</g>
<!-- 0x5432a69&#45;&gt;0xb752215d -->
<g id="edge28" class="edge">
<title>0x5432a69&#45;&gt;0xb752215d:box</title>
<path fill="none" stroke="#666666" stroke-dasharray="5,2" d="M353.56,-430.81C345.01,-428.39 322.26,-421.39 305.5,-411.15 272.74,-391.13 276.31,-355.47 243.15,-351.09"/>
<polygon fill="#666666" stroke="#666666" points="243.63,-349.02 237.51,-350.74 243.37,-353.21 243.63,-349.02"/>
<text xml:space="preserve" text-anchor="start" x="305.5" y="-399.8" font-family="Times New Roman,serif" font-weight="bold" font-size="13.00" fill="#666666"> o3 </text>
</g>
<!-- 0x905323a9 -->
<g id="node28" class="node">
<title>0x905323a9</title>
<text xml:space="preserve" text-anchor="start" x="320.38" y="-217.8" font-family="Times New Roman,serif" font-weight="bold" font-size="12.00">ye17</text>
<path fill="#f8f9fa" stroke="none" d="M302.83,-187.45C302.83,-187.45 361.17,-187.45 361.17,-187.45 365.58,-187.45 370,-191.87 370,-196.28 370,-196.28 370,-205.12 370,-205.12 370,-209.53 365.58,-213.95 361.17,-213.95 361.17,-213.95 302.83,-213.95 302.83,-213.95 298.42,-213.95 294,-209.53 294,-205.12 294,-205.12 294,-196.28 294,-196.28 294,-191.87 298.42,-187.45 302.83,-187.45"/>
<path fill="none" stroke="#333333" d="M302.83,-187.45C302.83,-187.45 361.17,-187.45 361.17,-187.45 365.58,-187.45 370,-191.87 370,-196.28 370,-196.28 370,-205.12 370,-205.12 370,-209.53 365.58,-213.95 361.17,-213.95 361.17,-213.95 302.83,-213.95 302.83,-213.95 298.42,-213.95 294,-209.53 294,-205.12 294,-205.12 294,-196.28 294,-196.28 294,-191.87 298.42,-187.45 302.83,-187.45"/>
<text xml:space="preserve" text-anchor="start" x="299" y="-196.65" font-family="Times New Roman,serif" font-weight="bold" font-size="14.00">S1, A6, 4, 0</text>
<text xml:space="preserve" text-anchor="start" x="326.38" y="-172.25" font-family="Times New Roman,serif" font-size="16.00">...</text>
</g>
<!-- 0x5de1c5f&#45;&gt;0x905323a9 -->
<g id="edge30" class="edge">
<title>0x5de1c5f&#45;&gt;0x905323a9:box</title>
<path fill="none" stroke="#666666" stroke-dasharray="5,2" d="M292.84,-428.83C291.57,-405.01 283.18,-242.66 289.83,-207.44"/>
<polygon fill="#666666" stroke="#666666" points="291.7,-208.39 292.36,-202.07 287.9,-206.6 291.7,-208.39"/>
<text xml:space="preserve" text-anchor="start" x="288.26" y="-308.05" font-family="Times New Roman,serif" font-weight="bold" font-size="13.00" fill="#666666"> uo1 </text>
</g>
<!-- 0xc4d8bf04 -->
<g id="node30" class="node">
<title>0xc4d8bf04</title>
<text xml:space="preserve" text-anchor="start" x="516.38" y="-217.8" font-family="Times New Roman,serif" font-weight="bold" font-size="12.00">ye18</text>
<path fill="#f8f9fa" stroke="none" d="M498.83,-187.45C498.83,-187.45 557.17,-187.45 557.17,-187.45 561.58,-187.45 566,-191.87 566,-196.28 566,-196.28 566,-205.12 566,-205.12 566,-209.53 561.58,-213.95 557.17,-213.95 557.17,-213.95 498.83,-213.95 498.83,-213.95 494.42,-213.95 490,-209.53 490,-205.12 490,-205.12 490,-196.28 490,-196.28 490,-191.87 494.42,-187.45 498.83,-187.45"/>
<path fill="none" stroke="#333333" d="M498.83,-187.45C498.83,-187.45 557.17,-187.45 557.17,-187.45 561.58,-187.45 566,-191.87 566,-196.28 566,-196.28 566,-205.12 566,-205.12 566,-209.53 561.58,-213.95 557.17,-213.95 557.17,-213.95 498.83,-213.95 498.83,-213.95 494.42,-213.95 490,-209.53 490,-205.12 490,-205.12 490,-196.28 490,-196.28 490,-191.87 494.42,-187.45 498.83,-187.45"/>
<text xml:space="preserve" text-anchor="start" x="495" y="-196.65" font-family="Times New Roman,serif" font-weight="bold" font-size="14.00">S7, A6, 4, 1</text>
<text xml:space="preserve" text-anchor="start" x="522.38" y="-172.25" font-family="Times New Roman,serif" font-size="16.00">...</text>
</g>
<!-- 0x927e5158&#45;&gt;0xc4d8bf04 -->
<g id="edge32" class="edge">
<title>0x927e5158&#45;&gt;0xc4d8bf04:box</title>
<path fill="none" stroke="#666666" stroke-dasharray="5,2" d="M527.47,-428.91C524.3,-411.03 508.99,-312.54 544,-246.2 549.9,-235.03 560.38,-239.52 566,-228.2 569.82,-220.5 574.81,-210.03 573.18,-204.5"/>
<polygon fill="#666666" stroke="#666666" points="574.5,-202.84 568.29,-201.49 572.31,-206.42 574.5,-202.84"/>
<text xml:space="preserve" text-anchor="start" x="525.36" y="-308.05" font-family="Times New Roman,serif" font-weight="bold" font-size="13.00" fill="#666666"> uo1 </text>
</g>
<!-- 0xc2eeb9cf -->
<g id="node32" class="node">
<title>0xc2eeb9cf</title>
<text xml:space="preserve" text-anchor="start" x="247.38" y="-536.45" font-family="Times New Roman,serif" font-weight="bold" font-size="12.00">ye19</text>
<path fill="#f8f9fa" stroke="none" d="M229.83,-506.1C229.83,-506.1 288.17,-506.1 288.17,-506.1 292.58,-506.1 297,-510.52 297,-514.93 297,-514.93 297,-523.77 297,-523.77 297,-528.18 292.58,-532.6 288.17,-532.6 288.17,-532.6 229.83,-532.6 229.83,-532.6 225.42,-532.6 221,-528.18 221,-523.77 221,-523.77 221,-514.93 221,-514.93 221,-510.52 225.42,-506.1 229.83,-506.1"/>
<path fill="none" stroke="#333333" d="M229.83,-506.1C229.83,-506.1 288.17,-506.1 288.17,-506.1 292.58,-506.1 297,-510.52 297,-514.93 297,-514.93 297,-523.77 297,-523.77 297,-528.18 292.58,-532.6 288.17,-532.6 288.17,-532.6 229.83,-532.6 229.83,-532.6 225.42,-532.6 221,-528.18 221,-523.77 221,-523.77 221,-514.93 221,-514.93 221,-510.52 225.42,-506.1 229.83,-506.1"/>
<text xml:space="preserve" text-anchor="start" x="226" y="-515.3" font-family="Times New Roman,serif" font-weight="bold" font-size="14.00">S0, A7, 5, 0</text>
<text xml:space="preserve" text-anchor="start" x="253.38" y="-490.9" font-family="Times New Roman,serif" font-size="16.00">...</text>
</g>
<!-- 0x3ca981b2&#45;&gt;0xc2eeb9cf -->
<g id="edge34" class="edge">
<title>0x3ca981b2&#45;&gt;0xc2eeb9cf:box</title>
<path fill="none" stroke="#666666" stroke-dasharray="5,2" d="M261.29,-598.27C268.27,-591.48 289.24,-569.75 297,-546.85 299.64,-539.07 304.7,-529.33 304.03,-523.78"/>
<polygon fill="#666666" stroke="#666666" points="305.3,-522.1 299.22,-520.25 302.82,-525.49 305.3,-522.1"/>
<text xml:space="preserve" text-anchor="start" x="287.59" y="-568.5" font-family="Times New Roman,serif" font-weight="bold" font-size="13.00" fill="#666666"> o1 </text>
</g>
<!-- 0xbb1d596d&#45;&gt;0xc6588f2d -->
<g id="edge36" class="edge">
<title>0xbb1d596d&#45;&gt;0xc6588f2d:box</title>
<path fill="none" stroke="#666666" stroke-dasharray="5,2" d="M359.01,-598.21C370.49,-585.32 426.43,-520.67 403.18,-511.15"/>
<polygon fill="#666666" stroke="#666666" points="403.75,-509.11 397.49,-510.22 403.08,-513.26 403.75,-509.11"/>
<text xml:space="preserve" text-anchor="start" x="384.97" y="-568.5" font-family="Times New Roman,serif" font-weight="bold" font-size="13.00" fill="#666666"> uo3 </text>
</g>
<!-- 0x9a8a7434&#45;&gt;0x7ade2a88 -->
<g id="edge38" class="edge">
<title>0x9a8a7434&#45;&gt;0x7ade2a88:box</title>
<path fill="none" stroke="#666666" stroke-dasharray="5,2" d="M541.19,-598.08C536.93,-592.19 527.03,-576.51 533,-564.85 542.49,-546.32 561.18,-555.83 571,-537.48 575.06,-529.89 579.95,-519.38 578.25,-513.8"/>
<polygon fill="#666666" stroke="#666666" points="579.5,-512.11 573.29,-510.77 577.31,-515.69 579.5,-512.11"/>
<text xml:space="preserve" text-anchor="start" x="533" y="-568.5" font-family="Times New Roman,serif" font-weight="bold" font-size="13.00" fill="#666666"> uo3 </text>
</g>
<!-- 0x75164eb6 -->
<g id="node36" class="node">
<title>0x75164eb6</title>
<text xml:space="preserve" text-anchor="start" x="715.38" y="-208.42" font-family="Times New Roman,serif" font-weight="bold" font-size="12.00">ye20</text>
<path fill="#fff1f2" stroke="none" d="M695.21,-178.07C695.21,-178.07 758.79,-178.07 758.79,-178.07 763.21,-178.07 767.62,-182.49 767.62,-186.91 767.62,-186.91 767.62,-195.74 767.62,-195.74 767.62,-200.16 763.21,-204.57 758.79,-204.57 758.79,-204.57 695.21,-204.57 695.21,-204.57 690.79,-204.57 686.38,-200.16 686.38,-195.74 686.38,-195.74 686.38,-186.91 686.38,-186.91 686.38,-182.49 690.79,-178.07 695.21,-178.07"/>
<path fill="none" stroke="#9f1239" d="M695.21,-178.07C695.21,-178.07 758.79,-178.07 758.79,-178.07 763.21,-178.07 767.62,-182.49 767.62,-186.91 767.62,-186.91 767.62,-195.74 767.62,-195.74 767.62,-200.16 763.21,-204.57 758.79,-204.57 758.79,-204.57 695.21,-204.57 695.21,-204.57 690.79,-204.57 686.38,-200.16 686.38,-195.74 686.38,-195.74 686.38,-186.91 686.38,-186.91 686.38,-182.49 690.79,-178.07 695.21,-178.07"/>
<text xml:space="preserve" text-anchor="start" x="691.38" y="-187.27" font-family="Times New Roman,serif" font-weight="bold" font-size="14.00">AX, A1, 5, 2</text>
</g>
<!-- 0x5e1ff7ab -->
<g id="node37" class="node">
<title>0x5e1ff7ab</title>
<text xml:space="preserve" text-anchor="start" x="418.38" y="-208.42" font-family="Times New Roman,serif" font-weight="bold" font-size="12.00">ye21</text>
<path fill="#f0fdf4" stroke="none" d="M400.83,-178.07C400.83,-178.07 459.17,-178.07 459.17,-178.07 463.58,-178.07 468,-182.49 468,-186.91 468,-186.91 468,-195.74 468,-195.74 468,-200.16 463.58,-204.57 459.17,-204.57 459.17,-204.57 400.83,-204.57 400.83,-204.57 396.42,-204.57 392,-200.16 392,-195.74 392,-195.74 392,-186.91 392,-186.91 392,-182.49 396.42,-178.07 400.83,-178.07"/>
<path fill="none" stroke="#166534" d="M400.83,-178.07C400.83,-178.07 459.17,-178.07 459.17,-178.07 463.58,-178.07 468,-182.49 468,-186.91 468,-186.91 468,-195.74 468,-195.74 468,-200.16 463.58,-204.57 459.17,-204.57 459.17,-204.57 400.83,-204.57 400.83,-204.57 396.42,-204.57 392,-200.16 392,-195.74 392,-195.74 392,-186.91 392,-186.91 392,-182.49 396.42,-178.07 400.83,-178.07"/>
<text xml:space="preserve" text-anchor="start" x="397" y="-187.27" font-family="Times New Roman,serif" font-weight="bold" font-size="14.00">S8, A1, 5, 2</text>
</g>
<!-- 0xe2e37f25&#45;&gt;0x75164eb6 -->
<g id="edge40" class="edge">
<title>0xe2e37f25&#45;&gt;0x75164eb6:box</title>
<path fill="none" stroke="#666666" stroke-dasharray="5,2" d="M608.55,-279.18C607.6,-272.71 606.11,-255.81 614.5,-246.2 632.94,-225.06 655.31,-248.18 675,-228.2 684.33,-218.72 675.03,-201.55 678.62,-194.49"/>
<polygon fill="#666666" stroke="#666666" points="679.46,-196.41 684,-191.97 677.68,-192.61 679.46,-196.41"/>
<text xml:space="preserve" text-anchor="start" x="614.5" y="-249.85" font-family="Times New Roman,serif" font-weight="bold" font-size="13.00" fill="#666666"> o2 </text>
</g>
<!-- 0xe2e37f25&#45;&gt;0x75164eb6 -->
<g id="edge42" class="edge">
<title>0xe2e37f25&#45;&gt;0x75164eb6:box</title>
<path fill="none" stroke="#666666" stroke-dasharray="5,2" d="M612.06,-280.24C622.57,-274.71 657.59,-254.91 675,-228.2 682.41,-216.83 673.79,-200.17 678.59,-193.86"/>
<polygon fill="#666666" stroke="#666666" points="679.08,-195.93 683.96,-191.86 677.6,-191.99 679.08,-195.93"/>
<text xml:space="preserve" text-anchor="start" x="658.82" y="-249.85" font-family="Times New Roman,serif" font-weight="bold" font-size="13.00" fill="#666666"> o3 </text>
</g>
<!-- 0xe2e37f25&#45;&gt;0x5e1ff7ab -->
<g id="edge41" class="edge">
<title>0xe2e37f25&#45;&gt;0x5e1ff7ab:box</title>
<path fill="none" stroke="#666666" stroke-dasharray="5,2" d="M605.5,-281.33C594.06,-279.7 556.88,-273.71 528.75,-261.2 504.51,-250.42 494.52,-249.72 479,-228.2 471.08,-217.23 480.22,-200.33 475.66,-193.91"/>
<polygon fill="#666666" stroke="#666666" points="476.76,-192.09 470.41,-191.87 475.24,-196 476.76,-192.09"/>
<text xml:space="preserve" text-anchor="start" x="528.75" y="-249.85" font-family="Times New Roman,serif" font-weight="bold" font-size="13.00" fill="#666666"> ε </text>
</g>
<!-- 0x26735c95 -->
<g id="node39" class="node">
<title>0x26735c95</title>
<text xml:space="preserve" text-anchor="start" x="917.38" y="-208.42" font-family="Times New Roman,serif" font-weight="bold" font-size="12.00">ye22</text>
<path fill="#fff1f2" stroke="none" d="M897.21,-178.07C897.21,-178.07 960.79,-178.07 960.79,-178.07 965.21,-178.07 969.62,-182.49 969.62,-186.91 969.62,-186.91 969.62,-195.74 969.62,-195.74 969.62,-200.16 965.21,-204.57 960.79,-204.57 960.79,-204.57 897.21,-204.57 897.21,-204.57 892.79,-204.57 888.38,-200.16 888.38,-195.74 888.38,-195.74 888.38,-186.91 888.38,-186.91 888.38,-182.49 892.79,-178.07 897.21,-178.07"/>
<path fill="none" stroke="#9f1239" d="M897.21,-178.07C897.21,-178.07 960.79,-178.07 960.79,-178.07 965.21,-178.07 969.62,-182.49 969.62,-186.91 969.62,-186.91 969.62,-195.74 969.62,-195.74 969.62,-200.16 965.21,-204.57 960.79,-204.57 960.79,-204.57 897.21,-204.57 897.21,-204.57 892.79,-204.57 888.38,-200.16 888.38,-195.74 888.38,-195.74 888.38,-186.91 888.38,-186.91 888.38,-182.49 892.79,-178.07 897.21,-178.07"/>
<text xml:space="preserve" text-anchor="start" x="893.38" y="-187.27" font-family="Times New Roman,serif" font-weight="bold" font-size="14.00">AX, A4, 4, 2</text>
</g>
<!-- 0xee73027a -->
<g id="node40" class="node">
<title>0xee73027a</title>
<text xml:space="preserve" text-anchor="start" x="816.38" y="-217.8" font-family="Times New Roman,serif" font-weight="bold" font-size="12.00">ye23</text>
<path fill="#f8f9fa" stroke="none" d="M798.83,-187.45C798.83,-187.45 857.17,-187.45 857.17,-187.45 861.58,-187.45 866,-191.87 866,-196.28 866,-196.28 866,-205.12 866,-205.12 866,-209.53 861.58,-213.95 857.17,-213.95 857.17,-213.95 798.83,-213.95 798.83,-213.95 794.42,-213.95 790,-209.53 790,-205.12 790,-205.12 790,-196.28 790,-196.28 790,-191.87 794.42,-187.45 798.83,-187.45"/>
<path fill="none" stroke="#333333" d="M798.83,-187.45C798.83,-187.45 857.17,-187.45 857.17,-187.45 861.58,-187.45 866,-191.87 866,-196.28 866,-196.28 866,-205.12 866,-205.12 866,-209.53 861.58,-213.95 857.17,-213.95 857.17,-213.95 798.83,-213.95 798.83,-213.95 794.42,-213.95 790,-209.53 790,-205.12 790,-205.12 790,-196.28 790,-196.28 790,-191.87 794.42,-187.45 798.83,-187.45"/>
<text xml:space="preserve" text-anchor="start" x="795" y="-196.65" font-family="Times New Roman,serif" font-weight="bold" font-size="14.00">S8, A4, 4, 2</text>
<text xml:space="preserve" text-anchor="start" x="822.38" y="-172.25" font-family="Times New Roman,serif" font-size="16.00">...</text>
</g>
<!-- 0x745b633d&#45;&gt;0x26735c95 -->
<g id="edge44" class="edge">
<title>0x745b633d&#45;&gt;0x26735c95:box</title>
<path fill="none" stroke="#666666" stroke-dasharray="5,2" d="M854.6,-281.53C863.9,-280.63 888.72,-276.8 899,-261.2 909.68,-244.99 892.29,-237.84 888.38,-218.82 886.75,-210.96 881.56,-201.58 881.64,-196.05"/>
<polygon fill="#666666" stroke="#666666" points="882.91,-197.73 886.21,-192.29 880.24,-194.49 882.91,-197.73"/>
<text xml:space="preserve" text-anchor="start" x="902.42" y="-249.85" font-family="Times New Roman,serif" font-weight="bold" font-size="13.00" fill="#666666"> o2 </text>
</g>
<!-- 0x745b633d&#45;&gt;0x26735c95 -->
<g id="edge46" class="edge">
<title>0x745b633d&#45;&gt;0x26735c95:box</title>
<path fill="none" stroke="#666666" stroke-dasharray="5,2" d="M852.35,-279.41C856.49,-272 869.22,-248.7 877,-228.2 881.82,-215.52 874.73,-199.63 880.27,-193.7"/>
<polygon fill="#666666" stroke="#666666" points="880.92,-195.7 885.94,-191.81 879.58,-191.72 880.92,-195.7"/>
<text xml:space="preserve" text-anchor="start" x="868.97" y="-249.85" font-family="Times New Roman,serif" font-weight="bold" font-size="13.00" fill="#666666"> o3 </text>
</g>
<!-- 0x745b633d&#45;&gt;0xee73027a -->
<g id="edge45" class="edge">
<title>0x745b633d&#45;&gt;0xee73027a:box</title>
<path fill="none" stroke="#666666" stroke-dasharray="5,2" d="M848.86,-279.8C843.23,-274.26 828.84,-258.36 835.75,-246.2 843.48,-232.6 858.02,-241.66 866,-228.2 870.39,-220.8 875.14,-210.21 873.33,-204.58"/>
<polygon fill="#666666" stroke="#666666" points="874.5,-202.83 868.29,-201.49 872.31,-206.41 874.5,-202.83"/>
<text xml:space="preserve" text-anchor="start" x="835.75" y="-249.85" font-family="Times New Roman,serif" font-weight="bold" font-size="13.00" fill="#666666"> ε </text>
</g>
<!-- 0xd2a97c6e -->
<g id="node42" class="node">
<title>0xd2a97c6e</title>
<text xml:space="preserve" text-anchor="start" x="554.38" y="-39.73" font-family="Times New Roman,serif" font-weight="bold" font-size="12.00">ye24</text>
<path fill="#fff1f2" stroke="none" d="M534.21,-9.38C534.21,-9.38 597.79,-9.38 597.79,-9.38 602.21,-9.38 606.62,-13.79 606.62,-18.21 606.62,-18.21 606.62,-27.04 606.62,-27.04 606.62,-31.46 602.21,-35.88 597.79,-35.88 597.79,-35.88 534.21,-35.88 534.21,-35.88 529.79,-35.88 525.38,-31.46 525.38,-27.04 525.38,-27.04 525.38,-18.21 525.38,-18.21 525.38,-13.79 529.79,-9.38 534.21,-9.38"/>
<path fill="none" stroke="#9f1239" d="M534.21,-9.38C534.21,-9.38 597.79,-9.38 597.79,-9.38 602.21,-9.38 606.62,-13.79 606.62,-18.21 606.62,-18.21 606.62,-27.04 606.62,-27.04 606.62,-31.46 602.21,-35.88 597.79,-35.88 597.79,-35.88 534.21,-35.88 534.21,-35.88 529.79,-35.88 525.38,-31.46 525.38,-27.04 525.38,-27.04 525.38,-18.21 525.38,-18.21 525.38,-13.79 529.79,-9.38 534.21,-9.38"/>
<text xml:space="preserve" text-anchor="start" x="530.38" y="-18.57" font-family="Times New Roman,serif" font-weight="bold" font-size="14.00">AX, A5, 1, 2</text>
</g>
<!-- 0x9aa92253 -->
<g id="node43" class="node">
<title>0x9aa92253</title>
<text xml:space="preserve" text-anchor="start" x="453.38" y="-49.1" font-family="Times New Roman,serif" font-weight="bold" font-size="12.00">ye25</text>
<path fill="#f8f9fa" stroke="none" d="M435.83,-18.75C435.83,-18.75 494.17,-18.75 494.17,-18.75 498.58,-18.75 503,-23.17 503,-27.58 503,-27.58 503,-36.42 503,-36.42 503,-40.83 498.58,-45.25 494.17,-45.25 494.17,-45.25 435.83,-45.25 435.83,-45.25 431.42,-45.25 427,-40.83 427,-36.42 427,-36.42 427,-27.58 427,-27.58 427,-23.17 431.42,-18.75 435.83,-18.75"/>
<path fill="none" stroke="#333333" d="M435.83,-18.75C435.83,-18.75 494.17,-18.75 494.17,-18.75 498.58,-18.75 503,-23.17 503,-27.58 503,-27.58 503,-36.42 503,-36.42 503,-40.83 498.58,-45.25 494.17,-45.25 494.17,-45.25 435.83,-45.25 435.83,-45.25 431.42,-45.25 427,-40.83 427,-36.42 427,-36.42 427,-27.58 427,-27.58 427,-23.17 431.42,-18.75 435.83,-18.75"/>
<text xml:space="preserve" text-anchor="start" x="432" y="-27.95" font-family="Times New Roman,serif" font-weight="bold" font-size="14.00">S8, A5, 1, 2</text>
<text xml:space="preserve" text-anchor="start" x="459.38" y="-3.55" font-family="Times New Roman,serif" font-size="16.00">...</text>
</g>
<!-- 0x1f95f4bc&#45;&gt;0xd2a97c6e -->
<g id="edge48" class="edge">
<title>0x1f95f4bc&#45;&gt;0xd2a97c6e:box</title>
<path fill="none" stroke="#666666" stroke-dasharray="5,2" d="M540.81,-111.63C551.75,-105.72 591.72,-82.43 606.62,-50.12 610.15,-42.49 615.08,-32.36 613.84,-26.77"/>
<polygon fill="#666666" stroke="#666666" points="615.04,-25.04 608.88,-23.46 612.72,-28.54 615.04,-25.04"/>
<text xml:space="preserve" text-anchor="start" x="585.65" y="-81.15" font-family="Times New Roman,serif" font-weight="bold" font-size="13.00" fill="#666666"> o2 </text>
</g>
<!-- 0x1f95f4bc&#45;&gt;0xd2a97c6e -->
<g id="edge50" class="edge">
<title>0x1f95f4bc&#45;&gt;0xd2a97c6e:box</title>
<path fill="none" stroke="#666666" stroke-dasharray="5,2" d="M537.04,-110.49C532.5,-97.97 513.6,-44.03 518.78,-27.47"/>
<polygon fill="#666666" stroke="#666666" points="520.07,-29.13 523.23,-23.62 517.32,-25.96 520.07,-29.13"/>
<text xml:space="preserve" text-anchor="start" x="530.59" y="-81.15" font-family="Times New Roman,serif" font-weight="bold" font-size="13.00" fill="#666666"> o3 </text>
</g>
<!-- 0x1f95f4bc&#45;&gt;0x9aa92253 -->
<g id="edge49" class="edge">
<title>0x1f95f4bc&#45;&gt;0x9aa92253:box</title>
<path fill="none" stroke="#666666" stroke-dasharray="5,2" d="M534.8,-111.74C528.89,-109.04 516.38,-102.4 510.75,-92.5 505.42,-83.13 512.89,-50.28 509.3,-37.31"/>
<polygon fill="#666666" stroke="#666666" points="510.79,-35.84 505.07,-33.07 507.82,-38.8 510.79,-35.84"/>
<text xml:space="preserve" text-anchor="start" x="510.75" y="-81.15" font-family="Times New Roman,serif" font-weight="bold" font-size="13.00" fill="#666666"> ε </text>
</g>
<!-- 0xf15e5a88 -->
<g id="node45" class="node">
<title>0xf15e5a88</title>
<text xml:space="preserve" text-anchor="start" x="657.38" y="-39.73" font-family="Times New Roman,serif" font-weight="bold" font-size="12.00">ye26</text>
<path fill="#fff1f2" stroke="none" d="M637.21,-9.38C637.21,-9.38 700.79,-9.38 700.79,-9.38 705.21,-9.38 709.62,-13.79 709.62,-18.21 709.62,-18.21 709.62,-27.04 709.62,-27.04 709.62,-31.46 705.21,-35.88 700.79,-35.88 700.79,-35.88 637.21,-35.88 637.21,-35.88 632.79,-35.88 628.38,-31.46 628.38,-27.04 628.38,-27.04 628.38,-18.21 628.38,-18.21 628.38,-13.79 632.79,-9.38 637.21,-9.38"/>
<path fill="none" stroke="#9f1239" d="M637.21,-9.38C637.21,-9.38 700.79,-9.38 700.79,-9.38 705.21,-9.38 709.62,-13.79 709.62,-18.21 709.62,-18.21 709.62,-27.04 709.62,-27.04 709.62,-31.46 705.21,-35.88 700.79,-35.88 700.79,-35.88 637.21,-35.88 637.21,-35.88 632.79,-35.88 628.38,-31.46 628.38,-27.04 628.38,-27.04 628.38,-18.21 628.38,-18.21 628.38,-13.79 632.79,-9.38 637.21,-9.38"/>
<text xml:space="preserve" text-anchor="start" x="633.38" y="-18.57" font-family="Times New Roman,serif" font-weight="bold" font-size="14.00">AX, A6, 6, 2</text>
</g>
<!-- 0x1ecef736&#45;&gt;0xf15e5a88 -->
<g id="edge52" class="edge">
<title>0x1ecef736&#45;&gt;0xf15e5a88:box</title>
<path fill="none" stroke="#666666" stroke-dasharray="5,2" d="M667.2,-110.86C679.8,-97.97 741.27,-33.32 717.94,-23.8"/>
<polygon fill="#666666" stroke="#666666" points="718.38,-21.74 712.12,-22.86 717.71,-25.89 718.38,-21.74"/>
<text xml:space="preserve" text-anchor="start" x="695.84" y="-81.15" font-family="Times New Roman,serif" font-weight="bold" font-size="13.00" fill="#666666"> o1 </text>
</g>
<!-- 0xc1d47ad7 -->
<g id="node47" class="node">
<title>0xc1d47ad7</title>
<text xml:space="preserve" text-anchor="start" x="222.38" y="-208.42" font-family="Times New Roman,serif" font-weight="bold" font-size="12.00">ye27</text>
<path fill="#f0fdf4" stroke="none" d="M204.83,-178.07C204.83,-178.07 263.17,-178.07 263.17,-178.07 267.58,-178.07 272,-182.49 272,-186.91 272,-186.91 272,-195.74 272,-195.74 272,-200.16 267.58,-204.57 263.17,-204.57 263.17,-204.57 204.83,-204.57 204.83,-204.57 200.42,-204.57 196,-200.16 196,-195.74 196,-195.74 196,-186.91 196,-186.91 196,-182.49 200.42,-178.07 204.83,-178.07"/>
<path fill="none" stroke="#166534" d="M204.83,-178.07C204.83,-178.07 263.17,-178.07 263.17,-178.07 267.58,-178.07 272,-182.49 272,-186.91 272,-186.91 272,-195.74 272,-195.74 272,-200.16 267.58,-204.57 263.17,-204.57 263.17,-204.57 204.83,-204.57 204.83,-204.57 200.42,-204.57 196,-200.16 196,-195.74 196,-195.74 196,-186.91 196,-186.91 196,-182.49 200.42,-178.07 204.83,-178.07"/>
<text xml:space="preserve" text-anchor="start" x="201" y="-187.27" font-family="Times New Roman,serif" font-weight="bold" font-size="14.00">S1, A1, 5, 0</text>
</g>
<!-- 0x1545b75d -->
<g id="node48" class="node">
<title>0x1545b75d</title>
<text xml:space="preserve" text-anchor="start" x="124.38" y="-208.42" font-family="Times New Roman,serif" font-weight="bold" font-size="12.00">ye28</text>
<path fill="#f0fdf4" stroke="none" d="M106.83,-178.07C106.83,-178.07 165.17,-178.07 165.17,-178.07 169.58,-178.07 174,-182.49 174,-186.91 174,-186.91 174,-195.74 174,-195.74 174,-200.16 169.58,-204.57 165.17,-204.57 165.17,-204.57 106.83,-204.57 106.83,-204.57 102.42,-204.57 98,-200.16 98,-195.74 98,-195.74 98,-186.91 98,-186.91 98,-182.49 102.42,-178.07 106.83,-178.07"/>
<path fill="none" stroke="#166534" d="M106.83,-178.07C106.83,-178.07 165.17,-178.07 165.17,-178.07 169.58,-178.07 174,-182.49 174,-186.91 174,-186.91 174,-195.74 174,-195.74 174,-200.16 169.58,-204.57 165.17,-204.57 165.17,-204.57 106.83,-204.57 106.83,-204.57 102.42,-204.57 98,-200.16 98,-195.74 98,-195.74 98,-186.91 98,-186.91 98,-182.49 102.42,-178.07 106.83,-178.07"/>
<text xml:space="preserve" text-anchor="start" x="103" y="-187.27" font-family="Times New Roman,serif" font-weight="bold" font-size="14.00">S7, A1, 5, 1</text>
</g>
<!-- 0x8c97bbf0&#45;&gt;0x5e1ff7ab -->
<g id="edge54" class="edge">
<title>0x8c97bbf0&#45;&gt;0x5e1ff7ab:box</title>
<path fill="none" stroke="#666666" stroke-dasharray="5,2" d="M341.83,-279.52C349.4,-270.06 378.12,-234.03 381,-228.2 386.99,-216.07 379,-199.86 384.1,-193.77"/>
<polygon fill="#666666" stroke="#666666" points="384.62,-195.81 389.57,-191.83 383.22,-191.86 384.62,-195.81"/>
<text xml:space="preserve" text-anchor="start" x="367.97" y="-249.85" font-family="Times New Roman,serif" font-weight="bold" font-size="13.00" fill="#666666"> o2 </text>
</g>
<!-- 0x8c97bbf0&#45;&gt;0xc1d47ad7 -->
<g id="edge55" class="edge">
<title>0x8c97bbf0&#45;&gt;0xc1d47ad7:box</title>
<path fill="none" stroke="#666666" stroke-dasharray="5,2" d="M337.37,-280.13C328.3,-274.22 298.1,-253.36 283,-228.2 276.04,-216.6 284.6,-200.07 279.78,-193.84"/>
<polygon fill="#666666" stroke="#666666" points="280.78,-191.96 274.42,-191.85 279.32,-195.9 280.78,-191.96"/>
<text xml:space="preserve" text-anchor="start" x="312.05" y="-249.85" font-family="Times New Roman,serif" font-weight="bold" font-size="13.00" fill="#666666"> ε </text>
</g>
<!-- 0x8c97bbf0&#45;&gt;0x1545b75d -->
<g id="edge56" class="edge">
<title>0x8c97bbf0&#45;&gt;0x1545b75d:box</title>
<path fill="none" stroke="#666666" stroke-dasharray="5,2" d="M336.16,-281.73C316.72,-281.18 228.46,-276.04 185,-228.2 176.08,-218.38 185.36,-201.4 181.75,-194.44"/>
<polygon fill="#666666" stroke="#666666" points="182.7,-192.57 176.37,-191.96 180.94,-196.38 182.7,-192.57"/>
<text xml:space="preserve" text-anchor="start" x="233.28" y="-249.85" font-family="Times New Roman,serif" font-weight="bold" font-size="13.00" fill="#666666"> o3 </text>
</g>
<!-- 0x370f76ac&#45;&gt;0xa6b2d5f6 -->
<g id="edge58" class="edge">
<title>0x370f76ac&#45;&gt;0xa6b2d5f6:box</title>
<path fill="none" stroke="#666666" stroke-dasharray="5,2" d="M437.55,-281.8C451.52,-281.67 503.82,-279.9 541,-261.2 560.39,-251.45 565.71,-246.74 577,-228.2 584.04,-216.64 575.43,-200.09 580.23,-193.84"/>
<polygon fill="#666666" stroke="#666666" points="580.69,-195.91 585.58,-191.85 579.23,-191.97 580.69,-195.91"/>
<text xml:space="preserve" text-anchor="start" x="563.56" y="-249.85" font-family="Times New Roman,serif" font-weight="bold" font-size="13.00" fill="#666666"> o2 </text>
</g>
<!-- 0x370f76ac&#45;&gt;0x905323a9 -->
<g id="edge59" class="edge">
<title>0x370f76ac&#45;&gt;0x905323a9:box</title>
<path fill="none" stroke="#666666" stroke-dasharray="5,2" d="M431.63,-280.03C423.46,-273.82 396.12,-252.09 381,-228.2 376,-220.3 379.74,-209.55 377.41,-204.13"/>
<polygon fill="#666666" stroke="#666666" points="378.62,-202.39 372.33,-201.41 376.64,-206.09 378.62,-202.39"/>
<text xml:space="preserve" text-anchor="start" x="408.79" y="-249.85" font-family="Times New Roman,serif" font-weight="bold" font-size="13.00" fill="#666666"> ε </text>
</g>
<!-- 0x370f76ac&#45;&gt;0xc4d8bf04 -->
<g id="edge60" class="edge">
<title>0x370f76ac&#45;&gt;0xc4d8bf04:box</title>
<path fill="none" stroke="#666666" stroke-dasharray="5,2" d="M435.04,-278.94C437.49,-272.53 444.12,-256.72 453.5,-246.2 462.74,-235.85 470.58,-239.22 479,-228.2 484.55,-220.93 480.81,-210.29 482.62,-204.61"/>
<polygon fill="#666666" stroke="#666666" points="483.69,-206.42 487.71,-201.49 481.5,-202.84 483.69,-206.42"/>
<text xml:space="preserve" text-anchor="start" x="453.5" y="-249.85" font-family="Times New Roman,serif" font-weight="bold" font-size="13.00" fill="#666666"> o3 </text>
</g>
<!-- 0x492497a5 -->
<g id="node51" class="node">
<title>0x492497a5</title>
<text xml:space="preserve" text-anchor="start" x="26.38" y="-208.42" font-family="Times New Roman,serif" font-weight="bold" font-size="12.00">ye29</text>
<path fill="#f0fdf4" stroke="none" d="M8.83,-178.07C8.83,-178.07 67.17,-178.07 67.17,-178.07 71.58,-178.07 76,-182.49 76,-186.91 76,-186.91 76,-195.74 76,-195.74 76,-200.16 71.58,-204.57 67.17,-204.57 67.17,-204.57 8.83,-204.57 8.83,-204.57 4.42,-204.57 0,-200.16 0,-195.74 0,-195.74 0,-186.91 0,-186.91 0,-182.49 4.42,-178.07 8.83,-178.07"/>
<path fill="none" stroke="#166534" d="M8.83,-178.07C8.83,-178.07 67.17,-178.07 67.17,-178.07 71.58,-178.07 76,-182.49 76,-186.91 76,-186.91 76,-195.74 76,-195.74 76,-200.16 71.58,-204.57 67.17,-204.57 67.17,-204.57 8.83,-204.57 8.83,-204.57 4.42,-204.57 0,-200.16 0,-195.74 0,-195.74 0,-186.91 0,-186.91 0,-182.49 4.42,-178.07 8.83,-178.07"/>
<text xml:space="preserve" text-anchor="start" x="5" y="-187.27" font-family="Times New Roman,serif" font-weight="bold" font-size="14.00">S4, A1, 5, 1</text>
</g>
<!-- 0x4e21afca&#45;&gt;0x1545b75d -->
<g id="edge63" class="edge">
<title>0x4e21afca&#45;&gt;0x1545b75d:box</title>
<path fill="none" stroke="#666666" stroke-dasharray="5,2" d="M137.92,-279.6C144.49,-271.92 166.12,-245.26 174,-218.82 176.35,-210.95 181.51,-201.24 180.94,-195.72"/>
<polygon fill="#666666" stroke="#666666" points="182.29,-194.11 176.22,-192.23 179.79,-197.48 182.29,-194.11"/>
<text xml:space="preserve" text-anchor="start" x="161.67" y="-249.85" font-family="Times New Roman,serif" font-weight="bold" font-size="13.00" fill="#666666"> ε </text>
</g>
<!-- 0x4e21afca&#45;&gt;0x492497a5 -->
<g id="edge62" class="edge">
<title>0x4e21afca&#45;&gt;0x492497a5:box</title>
<path fill="none" stroke="#666666" stroke-dasharray="5,2" d="M133.75,-280.03C125.98,-273.82 100.12,-252.06 87,-228.2 80.48,-216.34 88.78,-199.97 83.83,-193.8"/>
<polygon fill="#666666" stroke="#666666" points="84.78,-191.91 78.42,-191.84 83.35,-195.86 84.78,-191.91"/>
<text xml:space="preserve" text-anchor="start" x="112.05" y="-249.85" font-family="Times New Roman,serif" font-weight="bold" font-size="13.00" fill="#666666"> o2 </text>
</g>
<!-- legend_node -->
<g id="node53" class="node">
<title>legend_node</title>
<polygon fill="#f0fdf4" stroke="none" points="526.88,-986.2 526.88,-1004.45 546.88,-1004.45 546.88,-986.2 526.88,-986.2"/>
<polygon fill="none" stroke="#166534" points="526.88,-986.2 526.88,-1004.45 546.88,-1004.45 546.88,-986.2 526.88,-986.2"/>
<text xml:space="preserve" text-anchor="start" x="552.88" y="-991.05" font-family="Times New Roman,serif" font-size="12.00">Attacker&#45;Exposed States</text>
<polygon fill="#fff1f2" stroke="none" points="526.88,-963.95 526.88,-982.2 546.88,-982.2 546.88,-963.95 526.88,-963.95"/>
<polygon fill="none" stroke="#9f1239" points="526.88,-963.95 526.88,-982.2 546.88,-982.2 546.88,-963.95 526.88,-963.95"/>
<text xml:space="preserve" text-anchor="start" x="552.88" y="-968.8" font-family="Times New Roman,serif" font-size="12.00">CS&#45;Detected States</text>
</g>
</g>
</svg>
