<?xml version="1.0" encoding="UTF-8" standalone="no"?>
<!DOCTYPE svg PUBLIC "-//W3C//DTD SVG 1.1//EN"
 "http://www.w3.org/Graphics/SVG/1.1/DTD/svg11.dtd">
<!-- Generated by graphviz version 2.43.0 (0)
 -->
<!-- Title: %3 Pages: 1 -->
<svg width="1112pt" height="1155pt"
 viewBox="0.00 0.00 1111.50 1155.00" xmlns="http://www.w3.org/2000/svg" xmlns:xlink="http://www.w3.org/1999/xlink">
<g id="graph0" class="graph" transform="scale(1 1) rotate(0) translate(4 1151)">
<title>%3</title>
<polygon fill="white" stroke="transparent" points="-4,4 -4,-1151 1107.5,-1151 1107.5,4 -4,4"/>
<!-- 0xf34e22df -->
<g id="node1" class="node">
<title>0xf34e22df</title>
<text text-anchor="start" x="162.5" y="-503.8" font-family="Times,serif" font-weight="bold" font-size="14.00">qe21</text>
<path fill="#f0fdf4" stroke="transparent" d="M168.5,-477C168.5,-477 257.5,-477 257.5,-477 261,-477 264.5,-480.5 264.5,-484 264.5,-484 264.5,-491 264.5,-491 264.5,-494.5 261,-498 257.5,-498 257.5,-498 168.5,-498 168.5,-498 165,-498 161.5,-494.5 161.5,-491 161.5,-491 161.5,-484 161.5,-484 161.5,-480.5 165,-477 168.5,-477"/>
<path fill="none" stroke="#166534" d="M168.5,-477C168.5,-477 257.5,-477 257.5,-477 261,-477 264.5,-480.5 264.5,-484 264.5,-484 264.5,-491 264.5,-491 264.5,-494.5 261,-498 257.5,-498 257.5,-498 168.5,-498 168.5,-498 165,-498 161.5,-494.5 161.5,-491 161.5,-491 161.5,-484 161.5,-484 161.5,-480.5 165,-477 168.5,-477"/>
<text text-anchor="start" x="164.5" y="-484.8" font-family="Times,serif" font-weight="bold" font-size="14.00">{ye34,ye63,ye68}</text>
</g>
<!-- 0x127117a9 -->
<g id="node2" class="node">
<title>0x127117a9</title>
<text text-anchor="start" x="311.5" y="-340.8" font-family="Times,serif" font-weight="bold" font-size="14.00">qe14</text>
<path fill="#f8f9fa" stroke="transparent" d="M317.5,-314C317.5,-314 556.5,-314 556.5,-314 560,-314 563.5,-317.5 563.5,-321 563.5,-321 563.5,-328 563.5,-328 563.5,-331.5 560,-335 556.5,-335 556.5,-335 317.5,-335 317.5,-335 314,-335 310.5,-331.5 310.5,-328 310.5,-328 310.5,-321 310.5,-321 310.5,-317.5 314,-314 317.5,-314"/>
<path fill="none" stroke="#333333" d="M317.5,-314C317.5,-314 556.5,-314 556.5,-314 560,-314 563.5,-317.5 563.5,-321 563.5,-321 563.5,-328 563.5,-328 563.5,-331.5 560,-335 556.5,-335 556.5,-335 317.5,-335 317.5,-335 314,-335 310.5,-331.5 310.5,-328 310.5,-328 310.5,-321 310.5,-321 310.5,-317.5 314,-314 317.5,-314"/>
<text text-anchor="start" x="313.5" y="-321.8" font-family="Times,serif" font-weight="bold" font-size="14.00">{ye35,ye43,ye51,ye67,ye69,ye84,ye85,ye92}</text>
</g>
<!-- 0x12e503d1 -->
<g id="node39" class="node">
<title>0x12e503d1</title>
<ellipse fill="white" stroke="black" cx="567.5" cy="-255.5" rx="3.5" ry="3.5"/>
</g>
<!-- 0x127117a9&#45;&gt;0x12e503d1 -->
<g id="edge41" class="edge">
<title>0x127117a9:box&#45;&gt;0x12e503d1</title>
<path fill="none" stroke="black" d="M564.5,-324C567.22,-324 567.57,-288.6 567.56,-269.07"/>
<polygon fill="black" stroke="black" points="571.06,-269.05 567.52,-259.06 564.06,-269.08 571.06,-269.05"/>
<text text-anchor="start" x="567.5" y="-280.8" font-family="Times,serif" font-size="14.00">o4</text>
</g>
<!-- 0xf8d50e3e -->
<g id="node3" class="node">
<title>0xf8d50e3e</title>
<text text-anchor="start" x="917.5" y="-185.8" font-family="Times,serif" font-weight="bold" font-size="14.00">qe25</text>
<path fill="#f8f9fa" stroke="transparent" d="M923.5,-159C923.5,-159 952.5,-159 952.5,-159 956,-159 959.5,-162.5 959.5,-166 959.5,-166 959.5,-173 959.5,-173 959.5,-176.5 956,-180 952.5,-180 952.5,-180 923.5,-180 923.5,-180 920,-180 916.5,-176.5 916.5,-173 916.5,-173 916.5,-166 916.5,-166 916.5,-162.5 920,-159 923.5,-159"/>
<path fill="none" stroke="#333333" d="M923.5,-159C923.5,-159 952.5,-159 952.5,-159 956,-159 959.5,-162.5 959.5,-166 959.5,-166 959.5,-173 959.5,-173 959.5,-176.5 956,-180 952.5,-180 952.5,-180 923.5,-180 923.5,-180 920,-180 916.5,-176.5 916.5,-173 916.5,-173 916.5,-166 916.5,-166 916.5,-162.5 920,-159 923.5,-159"/>
<text text-anchor="start" x="919.5" y="-166.8" font-family="Times,serif" font-weight="bold" font-size="14.00">{ye73}</text>
</g>
<!-- 0x9c88e384 -->
<g id="node46" class="node">
<title>0x9c88e384</title>
<ellipse fill="white" stroke="black" cx="953.5" cy="-100.5" rx="3.5" ry="3.5"/>
</g>
<!-- 0xf8d50e3e&#45;&gt;0x9c88e384 -->
<g id="edge56" class="edge">
<title>0xf8d50e3e:box&#45;&gt;0x9c88e384</title>
<path fill="none" stroke="black" d="M938.5,-158C938.5,-142.2 944.05,-124.72 948.4,-113.45"/>
<polygon fill="black" stroke="black" points="951.71,-114.6 952.32,-104.03 945.24,-111.91 951.71,-114.6"/>
<text text-anchor="start" x="944.5" y="-125.8" font-family="Times,serif" font-size="14.00">o4</text>
</g>
<!-- 0x90ee6438 -->
<g id="node4" class="node">
<title>0x90ee6438</title>
<polygon fill="#eff6ff" stroke="#1d4ed8" points="890.83,-325.54 890.83,-340.46 870.14,-351 840.86,-351 820.17,-340.46 820.17,-325.54 840.86,-315 870.14,-315 890.83,-325.54"/>
<polygon fill="none" stroke="#1d4ed8" points="894.85,-323.1 894.85,-342.9 871.1,-355 839.9,-355 816.15,-342.9 816.15,-323.1 839.9,-311 871.1,-311 894.85,-323.1"/>
<text text-anchor="start" x="838.5" y="-330.3" font-family="Times,serif" font-weight="bold" font-size="14.00">SCC0</text>
</g>
<!-- 0xf1b5a498 -->
<g id="node43" class="node">
<title>0xf1b5a498</title>
<ellipse fill="white" stroke="black" cx="943.5" cy="-255.5" rx="3.5" ry="3.5"/>
</g>
<!-- 0x90ee6438&#45;&gt;0xf1b5a498 -->
<g id="edge49" class="edge">
<title>0x90ee6438&#45;&gt;0xf1b5a498</title>
<path fill="none" stroke="black" d="M876.8,-313.72C894.81,-298.27 919.81,-276.83 933.52,-265.07"/>
<polygon fill="black" stroke="black" points="935.93,-267.61 941.24,-258.44 931.37,-262.29 935.93,-267.61"/>
<text text-anchor="start" x="916.5" y="-280.8" font-family="Times,serif" font-size="14.00">o2</text>
</g>
<!-- 0xba1b4977 -->
<g id="node5" class="node">
<title>0xba1b4977</title>
<polygon fill="#eff6ff" stroke="#1d4ed8" points="1003.83,-15.54 1003.83,-30.46 983.14,-41 953.86,-41 933.17,-30.46 933.17,-15.54 953.86,-5 983.14,-5 1003.83,-15.54"/>
<polygon fill="none" stroke="#1d4ed8" points="1007.85,-13.1 1007.85,-32.9 984.1,-45 952.9,-45 929.15,-32.9 929.15,-13.1 952.9,-1 984.1,-1 1007.85,-13.1"/>
<text text-anchor="start" x="951.5" y="-20.3" font-family="Times,serif" font-weight="bold" font-size="14.00">SCC2</text>
</g>
<!-- 0x1cc5814d -->
<g id="node6" class="node">
<title>0x1cc5814d</title>
<text text-anchor="start" x="216.5" y="-658.8" font-family="Times,serif" font-weight="bold" font-size="14.00">qe15</text>
<path fill="#f8f9fa" stroke="transparent" d="M222.5,-632C222.5,-632 311.5,-632 311.5,-632 315,-632 318.5,-635.5 318.5,-639 318.5,-639 318.5,-646 318.5,-646 318.5,-649.5 315,-653 311.5,-653 311.5,-653 222.5,-653 222.5,-653 219,-653 215.5,-649.5 215.5,-646 215.5,-646 215.5,-639 215.5,-639 215.5,-635.5 219,-632 222.5,-632"/>
<path fill="none" stroke="#333333" d="M222.5,-632C222.5,-632 311.5,-632 311.5,-632 315,-632 318.5,-635.5 318.5,-639 318.5,-639 318.5,-646 318.5,-646 318.5,-649.5 315,-653 311.5,-653 311.5,-653 222.5,-653 222.5,-653 219,-653 215.5,-649.5 215.5,-646 215.5,-646 215.5,-639 215.5,-639 215.5,-635.5 219,-632 222.5,-632"/>
<text text-anchor="start" x="218.5" y="-639.8" font-family="Times,serif" font-weight="bold" font-size="14.00">{ye17,ye53,ye56}</text>
</g>
<!-- 0x5f3ac467 -->
<g id="node40" class="node">
<title>0x5f3ac467</title>
<ellipse fill="white" stroke="black" cx="252.5" cy="-573.5" rx="3.5" ry="3.5"/>
</g>
<!-- 0x1cc5814d&#45;&gt;0x5f3ac467 -->
<g id="edge43" class="edge">
<title>0x1cc5814d:box&#45;&gt;0x5f3ac467</title>
<path fill="none" stroke="black" d="M267.5,-631C267.5,-615.2 261.95,-597.72 257.6,-586.45"/>
<polygon fill="black" stroke="black" points="260.76,-584.91 253.68,-577.03 254.29,-587.6 260.76,-584.91"/>
<text text-anchor="start" x="265.5" y="-598.8" font-family="Times,serif" font-size="14.00">o2</text>
</g>
<!-- 0xff8f5351 -->
<g id="node41" class="node">
<title>0xff8f5351</title>
<ellipse fill="white" stroke="black" cx="361.5" cy="-573.5" rx="3.5" ry="3.5"/>
</g>
<!-- 0x1cc5814d&#45;&gt;0xff8f5351 -->
<g id="edge45" class="edge">
<title>0x1cc5814d:box&#45;&gt;0xff8f5351</title>
<path fill="none" stroke="black" d="M319.5,-642C345.09,-642 355.64,-606.6 359.52,-587.07"/>
<polygon fill="black" stroke="black" points="362.99,-587.5 361.19,-577.06 356.09,-586.35 362.99,-587.5"/>
<text text-anchor="start" x="357.5" y="-598.8" font-family="Times,serif" font-size="14.00">o3</text>
</g>
<!-- 0xe8cfe28 -->
<g id="node7" class="node">
<title>0xe8cfe28</title>
<text text-anchor="start" x="590.5" y="-30.8" font-family="Times,serif" font-weight="bold" font-size="14.00">qe23</text>
<path fill="#f0fdf4" stroke="transparent" d="M596.5,-4C596.5,-4 655.5,-4 655.5,-4 659,-4 662.5,-7.5 662.5,-11 662.5,-11 662.5,-18 662.5,-18 662.5,-21.5 659,-25 655.5,-25 655.5,-25 596.5,-25 596.5,-25 593,-25 589.5,-21.5 589.5,-18 589.5,-18 589.5,-11 589.5,-11 589.5,-7.5 593,-4 596.5,-4"/>
<path fill="none" stroke="#166534" d="M596.5,-4C596.5,-4 655.5,-4 655.5,-4 659,-4 662.5,-7.5 662.5,-11 662.5,-11 662.5,-18 662.5,-18 662.5,-21.5 659,-25 655.5,-25 655.5,-25 596.5,-25 596.5,-25 593,-25 589.5,-21.5 589.5,-18 589.5,-18 589.5,-11 589.5,-11 589.5,-7.5 593,-4 596.5,-4"/>
<text text-anchor="start" x="592.5" y="-11.8" font-family="Times,serif" font-weight="bold" font-size="14.00">{ye63,ye68}</text>
</g>
<!-- 0xa497d224 -->
<g id="node8" class="node">
<title>0xa497d224</title>
<text text-anchor="start" x="865.5" y="-976.8" font-family="Times,serif" font-weight="bold" font-size="14.00">qe1</text>
<path fill="#f8f9fa" stroke="transparent" d="M871.5,-950C871.5,-950 977.5,-950 977.5,-950 981,-950 984.5,-953.5 984.5,-957 984.5,-957 984.5,-964 984.5,-964 984.5,-967.5 981,-971 977.5,-971 977.5,-971 871.5,-971 871.5,-971 868,-971 864.5,-967.5 864.5,-964 864.5,-964 864.5,-957 864.5,-957 864.5,-953.5 868,-950 871.5,-950"/>
<path fill="none" stroke="#333333" d="M871.5,-950C871.5,-950 977.5,-950 977.5,-950 981,-950 984.5,-953.5 984.5,-957 984.5,-957 984.5,-964 984.5,-964 984.5,-967.5 981,-971 977.5,-971 977.5,-971 871.5,-971 871.5,-971 868,-971 864.5,-967.5 864.5,-964 864.5,-964 864.5,-957 864.5,-957 864.5,-953.5 868,-950 871.5,-950"/>
<text text-anchor="start" x="867.5" y="-957.8" font-family="Times,serif" font-weight="bold" font-size="14.00">{ye1,ye19,ye37,ye8}</text>
</g>
<!-- 0x770311ca -->
<g id="node26" class="node">
<title>0x770311ca</title>
<ellipse fill="white" stroke="black" cx="924.5" cy="-891.5" rx="3.5" ry="3.5"/>
</g>
<!-- 0xa497d224&#45;&gt;0x770311ca -->
<g id="edge10" class="edge">
<title>0xa497d224:box&#45;&gt;0x770311ca</title>
<path fill="none" stroke="black" d="M924.5,-949C924.5,-934.05 924.5,-916.88 924.5,-905.43"/>
<polygon fill="black" stroke="black" points="928,-905.09 924.5,-895.09 921,-905.09 928,-905.09"/>
<text text-anchor="start" x="924.5" y="-916.8" font-family="Times,serif" font-size="14.00">o2</text>
</g>
<!-- 0x393aceb7 -->
<g id="node27" class="node">
<title>0x393aceb7</title>
<ellipse fill="white" stroke="black" cx="762.5" cy="-891.5" rx="3.5" ry="3.5"/>
</g>
<!-- 0xa497d224&#45;&gt;0x393aceb7 -->
<g id="edge14" class="edge">
<title>0xa497d224:box&#45;&gt;0x393aceb7</title>
<path fill="none" stroke="black" d="M863.5,-960C840.59,-960 779.72,-945.96 765.5,-928 760.48,-921.66 759.81,-912.54 760.35,-905.14"/>
<polygon fill="black" stroke="black" points="763.83,-905.48 761.85,-895.07 756.91,-904.45 763.83,-905.48"/>
<text text-anchor="start" x="765.5" y="-916.8" font-family="Times,serif" font-size="14.00">o3</text>
</g>
<!-- 0xe1f067e4 -->
<g id="node9" class="node">
<title>0xe1f067e4</title>
<text text-anchor="start" x="711.5" y="-976.8" font-family="Times,serif" font-weight="bold" font-size="14.00">qe4</text>
<path fill="#f8f9fa" stroke="transparent" d="M717.5,-950C717.5,-950 740.5,-950 740.5,-950 744,-950 747.5,-953.5 747.5,-957 747.5,-957 747.5,-964 747.5,-964 747.5,-967.5 744,-971 740.5,-971 740.5,-971 717.5,-971 717.5,-971 714,-971 710.5,-967.5 710.5,-964 710.5,-964 710.5,-957 710.5,-957 710.5,-953.5 714,-950 717.5,-950"/>
<path fill="none" stroke="#333333" d="M717.5,-950C717.5,-950 740.5,-950 740.5,-950 744,-950 747.5,-953.5 747.5,-957 747.5,-957 747.5,-964 747.5,-964 747.5,-967.5 744,-971 740.5,-971 740.5,-971 717.5,-971 717.5,-971 714,-971 710.5,-967.5 710.5,-964 710.5,-964 710.5,-957 710.5,-957 710.5,-953.5 714,-950 717.5,-950"/>
<text text-anchor="start" x="713.5" y="-957.8" font-family="Times,serif" font-weight="bold" font-size="14.00">{ye4}</text>
</g>
<!-- 0x57d4c15a -->
<g id="node30" class="node">
<title>0x57d4c15a</title>
<ellipse fill="white" stroke="black" cx="708.5" cy="-891.5" rx="3.5" ry="3.5"/>
</g>
<!-- 0xe1f067e4&#45;&gt;0x57d4c15a -->
<g id="edge21" class="edge">
<title>0xe1f067e4:box&#45;&gt;0x57d4c15a</title>
<path fill="none" stroke="black" d="M729.5,-949C729.5,-932.53 721.57,-914.97 715.45,-903.87"/>
<polygon fill="black" stroke="black" points="718.27,-901.77 710.15,-894.97 712.26,-905.35 718.27,-901.77"/>
<text text-anchor="start" x="724.5" y="-916.8" font-family="Times,serif" font-size="14.00">o4</text>
</g>
<!-- 0x228bb75e -->
<g id="node10" class="node">
<title>0x228bb75e</title>
<text text-anchor="start" x="1002.5" y="-821.8" font-family="Times,serif" font-weight="bold" font-size="14.00">qe7</text>
<path fill="#f8f9fa" stroke="transparent" d="M1008.5,-795C1008.5,-795 1037.5,-795 1037.5,-795 1041,-795 1044.5,-798.5 1044.5,-802 1044.5,-802 1044.5,-809 1044.5,-809 1044.5,-812.5 1041,-816 1037.5,-816 1037.5,-816 1008.5,-816 1008.5,-816 1005,-816 1001.5,-812.5 1001.5,-809 1001.5,-809 1001.5,-802 1001.5,-802 1001.5,-798.5 1005,-795 1008.5,-795"/>
<path fill="none" stroke="#333333" d="M1008.5,-795C1008.5,-795 1037.5,-795 1037.5,-795 1041,-795 1044.5,-798.5 1044.5,-802 1044.5,-802 1044.5,-809 1044.5,-809 1044.5,-812.5 1041,-816 1037.5,-816 1037.5,-816 1008.5,-816 1008.5,-816 1005,-816 1001.5,-812.5 1001.5,-809 1001.5,-809 1001.5,-802 1001.5,-802 1001.5,-798.5 1005,-795 1008.5,-795"/>
<text text-anchor="start" x="1004.5" y="-802.8" font-family="Times,serif" font-weight="bold" font-size="14.00">{ye45}</text>
</g>
<!-- 0xfdfe54f1 -->
<g id="node34" class="node">
<title>0xfdfe54f1</title>
<ellipse fill="white" stroke="black" cx="987.5" cy="-602.5" rx="3.5" ry="3.5"/>
</g>
<!-- 0x228bb75e&#45;&gt;0xfdfe54f1 -->
<g id="edge30" class="edge">
<title>0x228bb75e:box&#45;&gt;0xfdfe54f1</title>
<path fill="none" stroke="black" d="M1045.5,-805C1124.17,-805 1086.93,-693.6 1043.5,-628 1034.09,-613.78 1014.43,-607.76 1001.1,-605.25"/>
<polygon fill="black" stroke="black" points="1001.19,-601.73 990.79,-603.76 1000.19,-608.65 1001.19,-601.73"/>
<text text-anchor="start" x="1089.5" y="-728.8" font-family="Times,serif" font-size="14.00">o4</text>
</g>
<!-- 0x4c12e78 -->
<g id="node11" class="node">
<title>0x4c12e78</title>
<text text-anchor="start" x="587.5" y="-821.8" font-family="Times,serif" font-weight="bold" font-size="14.00">qe5</text>
<path fill="#f8f9fa" stroke="transparent" d="M593.5,-795C593.5,-795 736.5,-795 736.5,-795 740,-795 743.5,-798.5 743.5,-802 743.5,-802 743.5,-809 743.5,-809 743.5,-812.5 740,-816 736.5,-816 736.5,-816 593.5,-816 593.5,-816 590,-816 586.5,-812.5 586.5,-809 586.5,-809 586.5,-802 586.5,-802 586.5,-798.5 590,-795 593.5,-795"/>
<path fill="none" stroke="#333333" d="M593.5,-795C593.5,-795 736.5,-795 736.5,-795 740,-795 743.5,-798.5 743.5,-802 743.5,-802 743.5,-809 743.5,-809 743.5,-812.5 740,-816 736.5,-816 736.5,-816 593.5,-816 593.5,-816 590,-816 586.5,-812.5 586.5,-809 586.5,-809 586.5,-802 586.5,-802 586.5,-798.5 590,-795 593.5,-795"/>
<text text-anchor="start" x="589.5" y="-802.8" font-family="Times,serif" font-weight="bold" font-size="14.00">{ye15,ye30,ye42,ye50,ye6}</text>
</g>
<!-- 0xf6685fb -->
<g id="node31" class="node">
<title>0xf6685fb</title>
<ellipse fill="white" stroke="black" cx="679.5" cy="-573.5" rx="3.5" ry="3.5"/>
</g>
<!-- 0x4c12e78&#45;&gt;0xf6685fb -->
<g id="edge23" class="edge">
<title>0x4c12e78:box&#45;&gt;0xf6685fb</title>
<path fill="none" stroke="black" d="M665.5,-794C665.5,-715.12 674.62,-620.61 678.14,-587.06"/>
<polygon fill="black" stroke="black" points="681.62,-587.42 679.21,-577.1 674.66,-586.67 681.62,-587.42"/>
<text text-anchor="start" x="668.5" y="-695.8" font-family="Times,serif" font-size="14.00">o2</text>
</g>
<!-- 0x99e3d107 -->
<g id="node12" class="node">
<title>0x99e3d107</title>
<polygon fill="#eff6ff" stroke="#1d4ed8" points="661.83,-170.54 661.83,-185.46 641.14,-196 611.86,-196 591.17,-185.46 591.17,-170.54 611.86,-160 641.14,-160 661.83,-170.54"/>
<polygon fill="none" stroke="#1d4ed8" points="665.85,-168.1 665.85,-187.9 642.1,-200 610.9,-200 587.15,-187.9 587.15,-168.1 610.9,-156 642.1,-156 665.85,-168.1"/>
<text text-anchor="start" x="609.5" y="-175.3" font-family="Times,serif" font-weight="bold" font-size="14.00">SCC1</text>
</g>
<!-- 0xf5097e57 -->
<g id="node42" class="node">
<title>0xf5097e57</title>
<ellipse fill="white" stroke="black" cx="626.5" cy="-100.5" rx="3.5" ry="3.5"/>
</g>
<!-- 0x99e3d107&#45;&gt;0xf5097e57 -->
<g id="edge47" class="edge">
<title>0x99e3d107&#45;&gt;0xf5097e57</title>
<path fill="none" stroke="black" d="M626.5,-155.97C626.5,-142.53 626.5,-125.54 626.5,-114.14"/>
<polygon fill="black" stroke="black" points="630,-114.13 626.5,-104.13 623,-114.13 630,-114.13"/>
<text text-anchor="start" x="626.5" y="-125.8" font-family="Times,serif" font-size="14.00">o2</text>
</g>
<!-- 0xacc49e93 -->
<g id="node13" class="node">
<title>0xacc49e93</title>
<text text-anchor="start" x="844.5" y="-658.8" font-family="Times,serif" font-weight="bold" font-size="14.00">qe10</text>
<path fill="#f8f9fa" stroke="transparent" d="M850.5,-632C850.5,-632 1023.5,-632 1023.5,-632 1027,-632 1030.5,-635.5 1030.5,-639 1030.5,-639 1030.5,-646 1030.5,-646 1030.5,-649.5 1027,-653 1023.5,-653 1023.5,-653 850.5,-653 850.5,-653 847,-653 843.5,-649.5 843.5,-646 843.5,-646 843.5,-639 843.5,-639 843.5,-635.5 847,-632 850.5,-632"/>
<path fill="none" stroke="#333333" d="M850.5,-632C850.5,-632 1023.5,-632 1023.5,-632 1027,-632 1030.5,-635.5 1030.5,-639 1030.5,-639 1030.5,-646 1030.5,-646 1030.5,-649.5 1027,-653 1023.5,-653 1023.5,-653 850.5,-653 850.5,-653 847,-653 843.5,-649.5 843.5,-646 843.5,-646 843.5,-639 843.5,-639 843.5,-635.5 847,-632 850.5,-632"/>
<text text-anchor="start" x="846.5" y="-639.8" font-family="Times,serif" font-weight="bold" font-size="14.00">{ye10,ye15,ye30,ye42,ye50,ye6}</text>
</g>
<!-- 0x4a65bae9 -->
<g id="node35" class="node">
<title>0x4a65bae9</title>
<ellipse fill="white" stroke="black" cx="893.5" cy="-573.5" rx="3.5" ry="3.5"/>
</g>
<!-- 0xacc49e93&#45;&gt;0x4a65bae9 -->
<g id="edge32" class="edge">
<title>0xacc49e93:box&#45;&gt;0x4a65bae9</title>
<path fill="none" stroke="black" d="M937.5,-631C937.5,-609.61 917.63,-591.46 904.6,-581.85"/>
<polygon fill="black" stroke="black" points="906.36,-578.81 896.12,-576.07 902.42,-584.6 906.36,-578.81"/>
<text text-anchor="start" x="930.5" y="-598.8" font-family="Times,serif" font-size="14.00">o2</text>
</g>
<!-- 0xebca81c8 -->
<g id="node14" class="node">
<title>0xebca81c8</title>
<text text-anchor="start" x="779.5" y="-658.8" font-family="Times,serif" font-weight="bold" font-size="14.00">qe9</text>
<path fill="#f8f9fa" stroke="transparent" d="M785.5,-632C785.5,-632 808.5,-632 808.5,-632 812,-632 815.5,-635.5 815.5,-639 815.5,-639 815.5,-646 815.5,-646 815.5,-649.5 812,-653 808.5,-653 808.5,-653 785.5,-653 785.5,-653 782,-653 778.5,-649.5 778.5,-646 778.5,-646 778.5,-639 778.5,-639 778.5,-635.5 782,-632 785.5,-632"/>
<path fill="none" stroke="#333333" d="M785.5,-632C785.5,-632 808.5,-632 808.5,-632 812,-632 815.5,-635.5 815.5,-639 815.5,-639 815.5,-646 815.5,-646 815.5,-649.5 812,-653 808.5,-653 808.5,-653 785.5,-653 785.5,-653 782,-653 778.5,-649.5 778.5,-646 778.5,-646 778.5,-639 778.5,-639 778.5,-635.5 782,-632 785.5,-632"/>
<text text-anchor="start" x="781.5" y="-639.8" font-family="Times,serif" font-weight="bold" font-size="14.00">{ye9}</text>
</g>
<!-- 0xa1e02d33 -->
<g id="node15" class="node">
<title>0xa1e02d33</title>
<text text-anchor="start" x="9.5" y="-821.8" font-family="Times,serif" font-weight="bold" font-size="14.00">qe6</text>
<path fill="#f8f9fa" stroke="transparent" d="M15.5,-795C15.5,-795 248.5,-795 248.5,-795 252,-795 255.5,-798.5 255.5,-802 255.5,-802 255.5,-809 255.5,-809 255.5,-812.5 252,-816 248.5,-816 248.5,-816 15.5,-816 15.5,-816 12,-816 8.5,-812.5 8.5,-809 8.5,-809 8.5,-802 8.5,-802 8.5,-798.5 12,-795 15.5,-795"/>
<path fill="none" stroke="#333333" d="M15.5,-795C15.5,-795 248.5,-795 248.5,-795 252,-795 255.5,-798.5 255.5,-802 255.5,-802 255.5,-809 255.5,-809 255.5,-812.5 252,-816 248.5,-816 248.5,-816 15.5,-816 15.5,-816 12,-816 8.5,-812.5 8.5,-809 8.5,-809 8.5,-802 8.5,-802 8.5,-798.5 12,-795 15.5,-795"/>
<text text-anchor="start" x="11.5" y="-802.8" font-family="Times,serif" font-weight="bold" font-size="14.00">{ye18,ye36,ye44,ye46,ye54,ye55,ye57,ye7}</text>
</g>
<!-- 0x413547ee -->
<g id="node32" class="node">
<title>0x413547ee</title>
<ellipse fill="white" stroke="black" cx="134.5" cy="-544.5" rx="3.5" ry="3.5"/>
</g>
<!-- 0xa1e02d33&#45;&gt;0x413547ee -->
<g id="edge26" class="edge">
<title>0xa1e02d33:box&#45;&gt;0x413547ee</title>
<path fill="none" stroke="black" d="M132.5,-794C132.5,-767.11 132.5,-760.39 132.5,-733.5 132.5,-733.5 132.5,-733.5 132.5,-601.5 132.5,-586.68 133.21,-569.66 133.78,-558.31"/>
<polygon fill="black" stroke="black" points="137.29,-558.24 134.34,-548.07 130.3,-557.86 137.29,-558.24"/>
<text text-anchor="start" x="132.5" y="-695.8" font-family="Times,serif" font-size="14.00">o2</text>
</g>
<!-- 0x75c27e18 -->
<g id="node33" class="node">
<title>0x75c27e18</title>
<ellipse fill="white" stroke="black" cx="183.5" cy="-732.5" rx="3.5" ry="3.5"/>
</g>
<!-- 0xa1e02d33&#45;&gt;0x75c27e18 -->
<g id="edge28" class="edge">
<title>0xa1e02d33:box&#45;&gt;0x75c27e18</title>
<path fill="none" stroke="black" d="M132.5,-794C132.5,-781.38 158.78,-755.71 173.61,-742.22"/>
<polygon fill="black" stroke="black" points="176.16,-744.64 181.31,-735.38 171.51,-739.4 176.16,-744.64"/>
<text text-anchor="start" x="156.5" y="-761.8" font-family="Times,serif" font-size="14.00">o3</text>
</g>
<!-- 0xe5b9e126 -->
<g id="node16" class="node">
<title>0xe5b9e126</title>
<text text-anchor="start" x="283.5" y="-821.8" font-family="Times,serif" font-weight="bold" font-size="14.00">qe11</text>
<path fill="#f8f9fa" stroke="transparent" d="M289.5,-795C289.5,-795 552.5,-795 552.5,-795 556,-795 559.5,-798.5 559.5,-802 559.5,-802 559.5,-809 559.5,-809 559.5,-812.5 556,-816 552.5,-816 552.5,-816 289.5,-816 289.5,-816 286,-816 282.5,-812.5 282.5,-809 282.5,-809 282.5,-802 282.5,-802 282.5,-798.5 286,-795 289.5,-795"/>
<path fill="none" stroke="#333333" d="M289.5,-795C289.5,-795 552.5,-795 552.5,-795 556,-795 559.5,-798.5 559.5,-802 559.5,-802 559.5,-809 559.5,-809 559.5,-812.5 556,-816 552.5,-816 552.5,-816 289.5,-816 289.5,-816 286,-816 282.5,-812.5 282.5,-809 282.5,-809 282.5,-802 282.5,-802 282.5,-798.5 286,-795 289.5,-795"/>
<text text-anchor="start" x="285.5" y="-802.8" font-family="Times,serif" font-weight="bold" font-size="14.00">{ye11,ye18,ye36,ye44,ye46,ye54,ye55,ye57,ye7}</text>
</g>
<!-- 0xf542cc52 -->
<g id="node36" class="node">
<title>0xf542cc52</title>
<ellipse fill="white" stroke="black" cx="495.5" cy="-699.5" rx="3.5" ry="3.5"/>
</g>
<!-- 0xe5b9e126&#45;&gt;0xf542cc52 -->
<g id="edge35" class="edge">
<title>0xe5b9e126:box&#45;&gt;0xf542cc52</title>
<path fill="none" stroke="black" d="M421.5,-794C421.5,-783.59 467.2,-731.79 486.78,-710.09"/>
<polygon fill="black" stroke="black" points="489.54,-712.25 493.67,-702.49 484.36,-707.55 489.54,-712.25"/>
<text text-anchor="start" x="445.5" y="-761.8" font-family="Times,serif" font-size="14.00">o2</text>
</g>
<!-- 0x555e868d -->
<g id="node37" class="node">
<title>0x555e868d</title>
<ellipse fill="white" stroke="black" cx="341.5" cy="-732.5" rx="3.5" ry="3.5"/>
</g>
<!-- 0xe5b9e126&#45;&gt;0x555e868d -->
<g id="edge37" class="edge">
<title>0xe5b9e126:box&#45;&gt;0x555e868d</title>
<path fill="none" stroke="black" d="M421.5,-794C421.5,-760.94 377.49,-743.64 354.76,-736.91"/>
<polygon fill="black" stroke="black" points="355.5,-733.48 344.94,-734.27 353.69,-740.24 355.5,-733.48"/>
<text text-anchor="start" x="415.5" y="-761.8" font-family="Times,serif" font-size="14.00">o3</text>
</g>
<!-- 0xcfab1a49 -->
<g id="node17" class="node">
<title>0xcfab1a49</title>
<text text-anchor="start" x="736.5" y="-1131.8" font-family="Times,serif" font-weight="bold" font-size="14.00">qe0</text>
<path fill="#f8f9fa" stroke="transparent" d="M742.5,-1105C742.5,-1105 841.5,-1105 841.5,-1105 845,-1105 848.5,-1108.5 848.5,-1112 848.5,-1112 848.5,-1119 848.5,-1119 848.5,-1122.5 845,-1126 841.5,-1126 841.5,-1126 742.5,-1126 742.5,-1126 739,-1126 735.5,-1122.5 735.5,-1119 735.5,-1119 735.5,-1112 735.5,-1112 735.5,-1108.5 739,-1105 742.5,-1105"/>
<path fill="none" stroke="#333333" d="M742.5,-1105C742.5,-1105 841.5,-1105 841.5,-1105 845,-1105 848.5,-1108.5 848.5,-1112 848.5,-1112 848.5,-1119 848.5,-1119 848.5,-1122.5 845,-1126 841.5,-1126 841.5,-1126 742.5,-1126 742.5,-1126 739,-1126 735.5,-1122.5 735.5,-1119 735.5,-1119 735.5,-1112 735.5,-1112 735.5,-1108.5 739,-1105 742.5,-1105"/>
<text text-anchor="start" x="738.5" y="-1112.8" font-family="Times,serif" font-weight="bold" font-size="14.00">{ye0,ye1,ye19,ye8}</text>
</g>
<!-- 0xba6c58df -->
<g id="node23" class="node">
<title>0xba6c58df</title>
<ellipse fill="white" stroke="black" cx="874.5" cy="-1046.5" rx="3.5" ry="3.5"/>
</g>
<!-- 0xcfab1a49&#45;&gt;0xba6c58df -->
<g id="edge1" class="edge">
<title>0xcfab1a49:box&#45;&gt;0xba6c58df</title>
<path fill="none" stroke="black" d="M849.5,-1115C872.67,-1115 875.39,-1079.6 875.13,-1060.07"/>
<polygon fill="black" stroke="black" points="878.63,-1059.91 874.71,-1050.06 871.63,-1060.2 878.63,-1059.91"/>
<text text-anchor="start" x="874.5" y="-1071.8" font-family="Times,serif" font-size="14.00">o4</text>
</g>
<!-- 0x7691fe48 -->
<g id="node24" class="node">
<title>0x7691fe48</title>
<ellipse fill="white" stroke="black" cx="792.5" cy="-1046.5" rx="3.5" ry="3.5"/>
</g>
<!-- 0xcfab1a49&#45;&gt;0x7691fe48 -->
<g id="edge3" class="edge">
<title>0xcfab1a49:box&#45;&gt;0x7691fe48</title>
<path fill="none" stroke="black" d="M792.5,-1104C792.5,-1089.05 792.5,-1071.88 792.5,-1060.43"/>
<polygon fill="black" stroke="black" points="796,-1060.09 792.5,-1050.09 789,-1060.09 796,-1060.09"/>
<text text-anchor="start" x="792.5" y="-1071.8" font-family="Times,serif" font-size="14.00">o2</text>
</g>
<!-- 0x262562c9 -->
<g id="node25" class="node">
<title>0x262562c9</title>
<ellipse fill="white" stroke="black" cx="665.5" cy="-891.5" rx="3.5" ry="3.5"/>
</g>
<!-- 0xcfab1a49&#45;&gt;0x262562c9 -->
<g id="edge7" class="edge">
<title>0xcfab1a49:box&#45;&gt;0x262562c9</title>
<path fill="none" stroke="black" d="M734.5,-1115C645.97,-1115 658.39,-952.31 663.85,-905.16"/>
<polygon fill="black" stroke="black" points="667.35,-905.36 665.14,-895 660.41,-904.48 667.35,-905.36"/>
<text text-anchor="start" x="662.5" y="-1013.8" font-family="Times,serif" font-size="14.00">o3</text>
</g>
<!-- 0x7409dcc5 -->
<g id="node18" class="node">
<title>0x7409dcc5</title>
<text text-anchor="start" x="906.5" y="-821.8" font-family="Times,serif" font-weight="bold" font-size="14.00">qe3</text>
<path fill="#f8f9fa" stroke="transparent" d="M912.5,-795C912.5,-795 935.5,-795 935.5,-795 939,-795 942.5,-798.5 942.5,-802 942.5,-802 942.5,-809 942.5,-809 942.5,-812.5 939,-816 935.5,-816 935.5,-816 912.5,-816 912.5,-816 909,-816 905.5,-812.5 905.5,-809 905.5,-809 905.5,-802 905.5,-802 905.5,-798.5 909,-795 912.5,-795"/>
<path fill="none" stroke="#333333" d="M912.5,-795C912.5,-795 935.5,-795 935.5,-795 939,-795 942.5,-798.5 942.5,-802 942.5,-802 942.5,-809 942.5,-809 942.5,-812.5 939,-816 935.5,-816 935.5,-816 912.5,-816 912.5,-816 909,-816 905.5,-812.5 905.5,-809 905.5,-809 905.5,-802 905.5,-802 905.5,-798.5 909,-795 912.5,-795"/>
<text text-anchor="start" x="908.5" y="-802.8" font-family="Times,serif" font-weight="bold" font-size="14.00">{ye3}</text>
</g>
<!-- 0xd0e84f5a -->
<g id="node29" class="node">
<title>0xd0e84f5a</title>
<ellipse fill="white" stroke="black" cx="927.5" cy="-732.5" rx="3.5" ry="3.5"/>
</g>
<!-- 0x7409dcc5&#45;&gt;0xd0e84f5a -->
<g id="edge19" class="edge">
<title>0x7409dcc5:box&#45;&gt;0xd0e84f5a</title>
<path fill="none" stroke="black" d="M924.5,-794C924.5,-777.63 925.61,-758.79 926.48,-746.55"/>
<polygon fill="black" stroke="black" points="929.99,-746.51 927.26,-736.27 923.01,-745.98 929.99,-746.51"/>
<text text-anchor="start" x="925.5" y="-761.8" font-family="Times,serif" font-size="14.00">o4</text>
</g>
<!-- 0x2d5d253f -->
<g id="node19" class="node">
<title>0x2d5d253f</title>
<text text-anchor="start" x="987.5" y="-185.8" font-family="Times,serif" font-weight="bold" font-size="14.00">qe26</text>
<path fill="#f8f9fa" stroke="transparent" d="M993.5,-159C993.5,-159 1022.5,-159 1022.5,-159 1026,-159 1029.5,-162.5 1029.5,-166 1029.5,-166 1029.5,-173 1029.5,-173 1029.5,-176.5 1026,-180 1022.5,-180 1022.5,-180 993.5,-180 993.5,-180 990,-180 986.5,-176.5 986.5,-173 986.5,-173 986.5,-166 986.5,-166 986.5,-162.5 990,-159 993.5,-159"/>
<path fill="none" stroke="#333333" d="M993.5,-159C993.5,-159 1022.5,-159 1022.5,-159 1026,-159 1029.5,-162.5 1029.5,-166 1029.5,-166 1029.5,-173 1029.5,-173 1029.5,-176.5 1026,-180 1022.5,-180 1022.5,-180 993.5,-180 993.5,-180 990,-180 986.5,-176.5 986.5,-173 986.5,-173 986.5,-166 986.5,-166 986.5,-162.5 990,-159 993.5,-159"/>
<text text-anchor="start" x="989.5" y="-166.8" font-family="Times,serif" font-weight="bold" font-size="14.00">{ye75}</text>
</g>
<!-- 0xfa1549b2 -->
<g id="node47" class="node">
<title>0xfa1549b2</title>
<ellipse fill="white" stroke="black" cx="995.5" cy="-100.5" rx="3.5" ry="3.5"/>
</g>
<!-- 0x2d5d253f&#45;&gt;0xfa1549b2 -->
<g id="edge58" class="edge">
<title>0x2d5d253f:box&#45;&gt;0xfa1549b2</title>
<path fill="none" stroke="black" d="M1008.5,-158C1008.5,-142.33 1003.69,-124.82 999.92,-113.51"/>
<polygon fill="black" stroke="black" points="1003.2,-112.27 996.52,-104.04 996.61,-114.64 1003.2,-112.27"/>
<text text-anchor="start" x="1005.5" y="-125.8" font-family="Times,serif" font-size="14.00">o4</text>
</g>
<!-- 0x6c30be83 -->
<g id="node20" class="node">
<title>0x6c30be83</title>
<text text-anchor="start" x="795.5" y="-821.8" font-family="Times,serif" font-weight="bold" font-size="14.00">qe2</text>
<path fill="#f8f9fa" stroke="transparent" d="M801.5,-795C801.5,-795 824.5,-795 824.5,-795 828,-795 831.5,-798.5 831.5,-802 831.5,-802 831.5,-809 831.5,-809 831.5,-812.5 828,-816 824.5,-816 824.5,-816 801.5,-816 801.5,-816 798,-816 794.5,-812.5 794.5,-809 794.5,-809 794.5,-802 794.5,-802 794.5,-798.5 798,-795 801.5,-795"/>
<path fill="none" stroke="#333333" d="M801.5,-795C801.5,-795 824.5,-795 824.5,-795 828,-795 831.5,-798.5 831.5,-802 831.5,-802 831.5,-809 831.5,-809 831.5,-812.5 828,-816 824.5,-816 824.5,-816 801.5,-816 801.5,-816 798,-816 794.5,-812.5 794.5,-809 794.5,-809 794.5,-802 794.5,-802 794.5,-798.5 798,-795 801.5,-795"/>
<text text-anchor="start" x="797.5" y="-802.8" font-family="Times,serif" font-weight="bold" font-size="14.00">{ye2}</text>
</g>
<!-- 0xb2f27417 -->
<g id="node28" class="node">
<title>0xb2f27417</title>
<ellipse fill="white" stroke="black" cx="801.5" cy="-732.5" rx="3.5" ry="3.5"/>
</g>
<!-- 0x6c30be83&#45;&gt;0xb2f27417 -->
<g id="edge17" class="edge">
<title>0x6c30be83:box&#45;&gt;0xb2f27417</title>
<path fill="none" stroke="black" d="M813.5,-794C813.5,-777.15 808.97,-758.16 805.47,-746.02"/>
<polygon fill="black" stroke="black" points="808.74,-744.75 802.44,-736.24 802.06,-746.82 808.74,-744.75"/>
<text text-anchor="start" x="810.5" y="-761.8" font-family="Times,serif" font-size="14.00">o4</text>
</g>
<!-- 0x1bda185f -->
<g id="node21" class="node">
<title>0x1bda185f</title>
<text text-anchor="start" x="706.5" y="-503.8" font-family="Times,serif" font-weight="bold" font-size="14.00">qe13</text>
<path fill="#f8f9fa" stroke="transparent" d="M712.5,-477C712.5,-477 861.5,-477 861.5,-477 865,-477 868.5,-480.5 868.5,-484 868.5,-484 868.5,-491 868.5,-491 868.5,-494.5 865,-498 861.5,-498 861.5,-498 712.5,-498 712.5,-498 709,-498 705.5,-494.5 705.5,-491 705.5,-491 705.5,-484 705.5,-484 705.5,-480.5 709,-477 712.5,-477"/>
<path fill="none" stroke="#333333" d="M712.5,-477C712.5,-477 861.5,-477 861.5,-477 865,-477 868.5,-480.5 868.5,-484 868.5,-484 868.5,-491 868.5,-491 868.5,-494.5 865,-498 861.5,-498 861.5,-498 712.5,-498 712.5,-498 709,-498 705.5,-494.5 705.5,-491 705.5,-491 705.5,-484 705.5,-484 705.5,-480.5 709,-477 712.5,-477"/>
<text text-anchor="start" x="708.5" y="-484.8" font-family="Times,serif" font-weight="bold" font-size="14.00">{ye29,ye41,ye49,ye60,ye77}</text>
</g>
<!-- 0xddbce8c7 -->
<g id="node38" class="node">
<title>0xddbce8c7</title>
<ellipse fill="white" stroke="black" cx="835.5" cy="-414.5" rx="3.5" ry="3.5"/>
</g>
<!-- 0x1bda185f&#45;&gt;0xddbce8c7 -->
<g id="edge39" class="edge">
<title>0x1bda185f:box&#45;&gt;0xddbce8c7</title>
<path fill="none" stroke="black" d="M787.5,-476C787.5,-452.49 810.01,-432.81 824.2,-422.74"/>
<polygon fill="black" stroke="black" points="826.49,-425.42 832.92,-417 822.64,-419.57 826.49,-425.42"/>
<text text-anchor="start" x="802.5" y="-443.8" font-family="Times,serif" font-size="14.00">o4</text>
</g>
<!-- 0xe8206084 -->
<g id="node22" class="node">
<title>0xe8206084</title>
<text text-anchor="start" x="292.5" y="-503.8" font-family="Times,serif" font-weight="bold" font-size="14.00">qe22</text>
<path fill="#f8f9fa" stroke="transparent" d="M298.5,-477C298.5,-477 507.5,-477 507.5,-477 511,-477 514.5,-480.5 514.5,-484 514.5,-484 514.5,-491 514.5,-491 514.5,-494.5 511,-498 507.5,-498 507.5,-498 298.5,-498 298.5,-498 295,-498 291.5,-494.5 291.5,-491 291.5,-491 291.5,-484 291.5,-484 291.5,-480.5 295,-477 298.5,-477"/>
<path fill="none" stroke="#333333" d="M298.5,-477C298.5,-477 507.5,-477 507.5,-477 511,-477 514.5,-480.5 514.5,-484 514.5,-484 514.5,-491 514.5,-491 514.5,-494.5 511,-498 507.5,-498 507.5,-498 298.5,-498 298.5,-498 295,-498 291.5,-494.5 291.5,-491 291.5,-491 291.5,-484 291.5,-484 291.5,-480.5 295,-477 298.5,-477"/>
<text text-anchor="start" x="294.5" y="-484.8" font-family="Times,serif" font-weight="bold" font-size="14.00">{ye18,ye36,ye44,ye46,ye54,ye55,ye57}</text>
</g>
<!-- 0x4f1f86af -->
<g id="node44" class="node">
<title>0x4f1f86af</title>
<ellipse fill="white" stroke="black" cx="403.5" cy="-414.5" rx="3.5" ry="3.5"/>
</g>
<!-- 0xe8206084&#45;&gt;0x4f1f86af -->
<g id="edge52" class="edge">
<title>0xe8206084:box&#45;&gt;0x4f1f86af</title>
<path fill="none" stroke="black" d="M403.5,-476C403.5,-459.65 403.5,-440.81 403.5,-428.56"/>
<polygon fill="black" stroke="black" points="407,-428.27 403.5,-418.27 400,-428.27 407,-428.27"/>
<text text-anchor="start" x="403.5" y="-443.8" font-family="Times,serif" font-size="14.00">o2</text>
</g>
<!-- 0xaaf3e231 -->
<g id="node45" class="node">
<title>0xaaf3e231</title>
<ellipse fill="white" stroke="black" cx="486.5" cy="-381.5" rx="3.5" ry="3.5"/>
</g>
<!-- 0xe8206084&#45;&gt;0xaaf3e231 -->
<g id="edge54" class="edge">
<title>0xe8206084:box&#45;&gt;0xaaf3e231</title>
<path fill="none" stroke="black" d="M403.5,-476C403.5,-473.23 456.16,-415.56 477.59,-392.2"/>
<polygon fill="black" stroke="black" points="480.26,-394.46 484.45,-384.73 475.11,-389.72 480.26,-394.46"/>
<text text-anchor="start" x="433.5" y="-443.8" font-family="Times,serif" font-size="14.00">o3</text>
</g>
<!-- 0xba6c58df&#45;&gt;0xa497d224 -->
<g id="edge2" class="edge">
<title>0xba6c58df&#45;&gt;0xa497d224:box</title>
<path fill="none" stroke="#2563eb" stroke-dasharray="5,2" d="M873.12,-1043.03C866.35,-1030.77 837.71,-976.39 853.71,-962.99"/>
<polygon fill="#2563eb" stroke="#2563eb" points="854.96,-966.27 863.5,-960 852.91,-959.58 854.96,-966.27"/>
<text text-anchor="start" x="863.5" y="-1013.8" font-family="Times,serif" font-size="14.00">o4</text>
</g>
<!-- 0x7691fe48&#45;&gt;0xe1f067e4 -->
<g id="edge6" class="edge">
<title>0x7691fe48&#45;&gt;0xe1f067e4:box</title>
<path fill="none" stroke="#2563eb" stroke-dasharray="5,2" d="M789.27,-1045.1C780.94,-1043.87 758.7,-1039.34 749.5,-1025 736.82,-1005.24 763.16,-974.68 757.98,-963.91"/>
<polygon fill="#2563eb" stroke="#2563eb" points="759.08,-960.58 748.5,-960 756.41,-967.05 759.08,-960.58"/>
<text text-anchor="start" x="749.5" y="-1013.8" font-family="Times,serif" font-size="14.00">empty</text>
</g>
<!-- 0x7691fe48&#45;&gt;0x7409dcc5 -->
<g id="edge5" class="edge">
<title>0x7691fe48&#45;&gt;0x7409dcc5:box</title>
<path fill="none" stroke="#2563eb" stroke-dasharray="5,2" d="M793.43,-1042.8C801.75,-1018.85 863.51,-843.01 895.59,-810.25"/>
<polygon fill="#2563eb" stroke="#2563eb" points="897.66,-813.09 904.5,-805 894.11,-807.06 897.66,-813.09"/>
<text text-anchor="start" x="841.5" y="-916.8" font-family="Times,serif" font-size="14.00">o3</text>
</g>
<!-- 0x7691fe48&#45;&gt;0x6c30be83 -->
<g id="edge4" class="edge">
<title>0x7691fe48&#45;&gt;0x6c30be83:box</title>
<path fill="none" stroke="#2563eb" stroke-dasharray="5,2" d="M792.22,-1042.8C789.8,-1019.37 772.98,-850.52 786.67,-812.56"/>
<polygon fill="#2563eb" stroke="#2563eb" points="789.39,-814.77 793.5,-805 784.2,-810.07 789.39,-814.77"/>
<text text-anchor="start" x="782.5" y="-916.8" font-family="Times,serif" font-size="14.00">o2</text>
</g>
<!-- 0x262562c9&#45;&gt;0x4c12e78 -->
<g id="edge8" class="edge">
<title>0x262562c9&#45;&gt;0x4c12e78:box</title>
<path fill="none" stroke="#2563eb" stroke-dasharray="5,2" d="M665.57,-887.81C665.91,-881.19 667.72,-863.97 677.5,-855 702.28,-832.26 730.24,-863.46 751,-837 762.52,-822.31 764.12,-808.28 751,-795 740.04,-783.91 689.53,-777.56 671.73,-786.12"/>
<polygon fill="#2563eb" stroke="#2563eb" points="668.95,-783.98 665.5,-794 674.45,-788.32 668.95,-783.98"/>
<text text-anchor="start" x="677.5" y="-858.8" font-family="Times,serif" font-size="14.00">o3</text>
</g>
<!-- 0x262562c9&#45;&gt;0xa1e02d33 -->
<g id="edge9" class="edge">
<title>0x262562c9&#45;&gt;0xa1e02d33:box</title>
<path fill="none" stroke="#2563eb" stroke-dasharray="5,2" d="M661.81,-890.51C625.58,-890.52 333.76,-889.02 268.5,-837 260.89,-830.93 264.34,-819.51 263.81,-812.08"/>
<polygon fill="#2563eb" stroke="#2563eb" points="266.12,-809.44 256.5,-805 261.25,-814.47 266.12,-809.44"/>
<text text-anchor="start" x="365.5" y="-858.8" font-family="Times,serif" font-size="14.00">empty</text>
</g>
<!-- 0x770311ca&#45;&gt;0x228bb75e -->
<g id="edge13" class="edge">
<title>0x770311ca&#45;&gt;0x228bb75e:box</title>
<path fill="none" stroke="#2563eb" stroke-dasharray="5,2" d="M927.63,-889.2C934.02,-886.42 948.8,-879.4 958.5,-870 980.3,-848.87 969.54,-814.39 990.38,-806.6"/>
<polygon fill="#2563eb" stroke="#2563eb" points="991.17,-810.02 1000.5,-805 990.08,-803.1 991.17,-810.02"/>
<text text-anchor="start" x="967.5" y="-858.8" font-family="Times,serif" font-size="14.00">empty</text>
</g>
<!-- 0x770311ca&#45;&gt;0x7409dcc5 -->
<g id="edge12" class="edge">
<title>0x770311ca&#45;&gt;0x7409dcc5:box</title>
<path fill="none" stroke="#2563eb" stroke-dasharray="5,2" d="M926.13,-888.03C934.13,-875.77 968.2,-821.39 953.17,-807.99"/>
<polygon fill="#2563eb" stroke="#2563eb" points="954.09,-804.61 943.5,-805 952.02,-811.3 954.09,-804.61"/>
<text text-anchor="start" x="944.5" y="-858.8" font-family="Times,serif" font-size="14.00">o3</text>
</g>
<!-- 0x770311ca&#45;&gt;0x6c30be83 -->
<g id="edge11" class="edge">
<title>0x770311ca&#45;&gt;0x6c30be83:box</title>
<path fill="none" stroke="#2563eb" stroke-dasharray="5,2" d="M923.4,-888.03C917.39,-874.97 887.21,-814.18 842.56,-805.93"/>
<polygon fill="#2563eb" stroke="#2563eb" points="842.78,-802.43 832.5,-805 842.14,-809.4 842.78,-802.43"/>
<text text-anchor="start" x="913.5" y="-858.8" font-family="Times,serif" font-size="14.00">o2</text>
</g>
<!-- 0x393aceb7&#45;&gt;0x4c12e78 -->
<g id="edge15" class="edge">
<title>0x393aceb7&#45;&gt;0x4c12e78:box</title>
<path fill="none" stroke="#2563eb" stroke-dasharray="5,2" d="M760.32,-888.62C756.66,-885.3 749.38,-877.98 746.5,-870 738.37,-847.49 762.15,-817.69 754.16,-808.11"/>
<polygon fill="#2563eb" stroke="#2563eb" points="755.09,-804.73 744.5,-805 752.95,-811.39 755.09,-804.73"/>
<text text-anchor="start" x="746.5" y="-858.8" font-family="Times,serif" font-size="14.00">o3</text>
</g>
<!-- 0x393aceb7&#45;&gt;0x99e3d107 -->
<g id="edge16" class="edge">
<title>0x393aceb7&#45;&gt;0x99e3d107</title>
<path fill="none" stroke="#2563eb" stroke-dasharray="5,2" d="M762.34,-887.84C761.07,-866.25 752.5,-720.07 752.5,-700.5 752.5,-700.5 752.5,-700.5 752.5,-572.5 752.5,-552.68 740.61,-549.83 725.5,-537 712.46,-525.94 703.43,-531.25 691.5,-519 667.09,-493.94 656.5,-483.48 656.5,-448.5 656.5,-448.5 656.5,-448.5 656.5,-254.5 656.5,-238.95 650.94,-222.79 644.6,-209.43"/>
<polygon fill="#2563eb" stroke="#2563eb" points="647.58,-207.57 639.92,-200.25 641.34,-210.75 647.58,-207.57"/>
<text text-anchor="start" x="743.5" y="-540.8" font-family="Times,serif" font-size="14.00">empty</text>
</g>
<!-- 0xb2f27417&#45;&gt;0xebca81c8 -->
<g id="edge18" class="edge">
<title>0xb2f27417&#45;&gt;0xebca81c8:box</title>
<path fill="none" stroke="#2563eb" stroke-dasharray="5,2" d="M802.49,-728.92C806.92,-717.28 824.53,-669.45 822.59,-650.14"/>
<polygon fill="#2563eb" stroke="#2563eb" points="825.3,-647.91 816.5,-642 819.69,-652.1 825.3,-647.91"/>
<text text-anchor="start" x="814.5" y="-695.8" font-family="Times,serif" font-size="14.00">o4</text>
</g>
<!-- 0xd0e84f5a&#45;&gt;0xacc49e93 -->
<g id="edge20" class="edge">
<title>0xd0e84f5a&#45;&gt;0xacc49e93:box</title>
<path fill="none" stroke="#2563eb" stroke-dasharray="5,2" d="M931.07,-730.97C947.11,-728.38 1012.87,-715.41 1038,-674 1047.69,-658.04 1051.13,-645.26 1038,-632 1031.65,-625.58 969.86,-621.59 946.44,-626.2"/>
<polygon fill="#2563eb" stroke="#2563eb" points="944.65,-623.18 937.5,-631 947.97,-629.35 944.65,-623.18"/>
<text text-anchor="start" x="1021.5" y="-695.8" font-family="Times,serif" font-size="14.00">o4</text>
</g>
<!-- 0x57d4c15a&#45;&gt;0xe5b9e126 -->
<g id="edge22" class="edge">
<title>0x57d4c15a&#45;&gt;0xe5b9e126:box</title>
<path fill="none" stroke="#2563eb" stroke-dasharray="5,2" d="M707.91,-887.72C706.29,-880.89 701.14,-863.24 689.5,-855 646.56,-824.6 613.33,-870.18 572.5,-837 564.95,-830.86 568.38,-819.46 567.83,-812.05"/>
<polygon fill="#2563eb" stroke="#2563eb" points="570.13,-809.41 560.5,-805 565.28,-814.45 570.13,-809.41"/>
<text text-anchor="start" x="700.5" y="-858.8" font-family="Times,serif" font-size="14.00">o4</text>
</g>
<!-- 0xf6685fb&#45;&gt;0x90ee6438 -->
<g id="edge24" class="edge">
<title>0xf6685fb&#45;&gt;0x90ee6438</title>
<path fill="none" stroke="#2563eb" stroke-dasharray="5,2" d="M679.15,-569.83C677.69,-557.76 673.02,-507.32 691.5,-473 720.57,-419 779.9,-377.05 818.65,-353.93"/>
<polygon fill="#2563eb" stroke="#2563eb" points="820.68,-356.8 827.55,-348.74 817.15,-350.76 820.68,-356.8"/>
<text text-anchor="start" x="712.5" y="-443.8" font-family="Times,serif" font-size="14.00">o2</text>
</g>
<!-- 0xf6685fb&#45;&gt;0x1bda185f -->
<g id="edge25" class="edge">
<title>0xf6685fb&#45;&gt;0x1bda185f:box</title>
<path fill="none" stroke="#2563eb" stroke-dasharray="5,2" d="M680.46,-569.86C681.85,-565.98 684.5,-558.47 686.5,-552 694.1,-527.39 679.79,-497.07 694.64,-489.03"/>
<polygon fill="#2563eb" stroke="#2563eb" points="695.41,-492.45 704.5,-487 694,-485.59 695.41,-492.45"/>
<text text-anchor="start" x="688.5" y="-540.8" font-family="Times,serif" font-size="14.00">empty</text>
</g>
<!-- 0x413547ee&#45;&gt;0x127117a9 -->
<g id="edge27" class="edge">
<title>0x413547ee&#45;&gt;0x127117a9:box</title>
<path fill="none" stroke="#2563eb" stroke-dasharray="5,2" d="M134.41,-540.87C134.18,-531.17 134.38,-496.75 147.5,-473 193.14,-390.39 210.45,-328.48 299.48,-324.23"/>
<polygon fill="#2563eb" stroke="#2563eb" points="299.58,-327.73 309.5,-324 299.42,-320.73 299.58,-327.73"/>
<text text-anchor="start" x="164.5" y="-443.8" font-family="Times,serif" font-size="14.00">empty</text>
</g>
<!-- 0x75c27e18&#45;&gt;0x1cc5814d -->
<g id="edge29" class="edge">
<title>0x75c27e18&#45;&gt;0x1cc5814d:box</title>
<path fill="none" stroke="#2563eb" stroke-dasharray="5,2" d="M183.22,-728.92C181.93,-715.68 177.64,-655.56 204.6,-643.95"/>
<polygon fill="#2563eb" stroke="#2563eb" points="205.36,-647.36 214.5,-642 204.01,-640.5 205.36,-647.36"/>
<text text-anchor="start" x="183.5" y="-695.8" font-family="Times,serif" font-size="14.00">empty</text>
</g>
<!-- 0xfdfe54f1&#45;&gt;0x99e3d107 -->
<g id="edge31" class="edge">
<title>0xfdfe54f1&#45;&gt;0x99e3d107</title>
<path fill="none" stroke="#2563eb" stroke-dasharray="5,2" d="M984.32,-600.56C971.13,-596.47 921.5,-578.86 921.5,-545.5 921.5,-545.5 921.5,-545.5 921.5,-254.5 921.5,-204.45 760.11,-187.13 676.07,-181.51"/>
<polygon fill="#2563eb" stroke="#2563eb" points="676.18,-178.01 665.98,-180.87 675.74,-185 676.18,-178.01"/>
<text text-anchor="start" x="921.5" y="-410.8" font-family="Times,serif" font-size="14.00">o4</text>
</g>
<!-- 0x4a65bae9&#45;&gt;0x90ee6438 -->
<g id="edge33" class="edge">
<title>0x4a65bae9&#45;&gt;0x90ee6438</title>
<path fill="none" stroke="#2563eb" stroke-dasharray="5,2" d="M893.23,-569.72C892.08,-557.97 887.37,-511.18 881.5,-473 875.78,-435.78 867.58,-393.25 861.92,-365.15"/>
<polygon fill="#2563eb" stroke="#2563eb" points="865.31,-364.23 859.89,-355.12 858.45,-365.62 865.31,-364.23"/>
<text text-anchor="start" x="877.5" y="-443.8" font-family="Times,serif" font-size="14.00">o2</text>
</g>
<!-- 0x4a65bae9&#45;&gt;0x1bda185f -->
<g id="edge34" class="edge">
<title>0x4a65bae9&#45;&gt;0x1bda185f:box</title>
<path fill="none" stroke="#2563eb" stroke-dasharray="5,2" d="M890.26,-572.11C881.9,-570.9 859.59,-566.41 850.5,-552 846.94,-546.36 847.95,-543.16 850.5,-537 854.83,-526.55 864.01,-529.38 868.5,-519 871.99,-510.94 876.97,-500.64 876.93,-493.93"/>
<polygon fill="#2563eb" stroke="#2563eb" points="879.2,-491.26 869.5,-487 874.42,-496.38 879.2,-491.26"/>
<text text-anchor="start" x="850.5" y="-540.8" font-family="Times,serif" font-size="14.00">empty</text>
</g>
<!-- 0xf542cc52&#45;&gt;0x127117a9 -->
<g id="edge36" class="edge">
<title>0xf542cc52&#45;&gt;0x127117a9:box</title>
<path fill="none" stroke="#2563eb" stroke-dasharray="5,2" d="M497.39,-696.33C505.81,-686.41 539.5,-644.21 539.5,-603.5 539.5,-603.5 539.5,-603.5 539.5,-413.5 539.5,-376.72 592.09,-334.46 574.42,-325.66"/>
<polygon fill="#2563eb" stroke="#2563eb" points="574.94,-322.2 564.5,-324 573.79,-329.1 574.94,-322.2"/>
<text text-anchor="start" x="539.5" y="-540.8" font-family="Times,serif" font-size="14.00">empty</text>
</g>
<!-- 0x555e868d&#45;&gt;0x1cc5814d -->
<g id="edge38" class="edge">
<title>0x555e868d&#45;&gt;0x1cc5814d:box</title>
<path fill="none" stroke="#2563eb" stroke-dasharray="5,2" d="M342,-728.92C344.45,-715.79 353.96,-656.6 329.6,-644.26"/>
<polygon fill="#2563eb" stroke="#2563eb" points="330.02,-640.77 319.5,-642 328.49,-647.6 330.02,-640.77"/>
<text text-anchor="start" x="346.5" y="-695.8" font-family="Times,serif" font-size="14.00">empty</text>
</g>
<!-- 0xddbce8c7&#45;&gt;0x90ee6438 -->
<g id="edge40" class="edge">
<title>0xddbce8c7&#45;&gt;0x90ee6438</title>
<path fill="none" stroke="#2563eb" stroke-dasharray="5,2" d="M836.17,-410.85C837.98,-403.66 843.16,-383.06 847.7,-365"/>
<polygon fill="#2563eb" stroke="#2563eb" points="851.16,-365.6 850.2,-355.05 844.37,-363.89 851.16,-365.6"/>
<text text-anchor="start" x="844.5" y="-377.8" font-family="Times,serif" font-size="14.00">o4</text>
</g>
<!-- 0x12e503d1&#45;&gt;0x99e3d107 -->
<g id="edge42" class="edge">
<title>0x12e503d1&#45;&gt;0x99e3d107</title>
<path fill="none" stroke="#2563eb" stroke-dasharray="5,2" d="M567.3,-251.68C567,-245.34 567.01,-229.68 573.5,-219 577.83,-211.86 583.96,-205.57 590.51,-200.2"/>
<polygon fill="#2563eb" stroke="#2563eb" points="593.02,-202.7 598.94,-193.91 588.83,-197.09 593.02,-202.7"/>
<text text-anchor="start" x="573.5" y="-222.8" font-family="Times,serif" font-size="14.00">o4</text>
</g>
<!-- 0x5f3ac467&#45;&gt;0xf34e22df -->
<g id="edge44" class="edge">
<title>0x5f3ac467&#45;&gt;0xf34e22df:box</title>
<path fill="none" stroke="#2563eb" stroke-dasharray="5,2" d="M253.71,-570.13C257.37,-562.78 268.36,-539.64 272,-519 273.62,-509.81 278.54,-483.66 272,-477 265.16,-470.05 235.68,-465.65 221.36,-469.37"/>
<polygon fill="#2563eb" stroke="#2563eb" points="218.88,-466.88 213.5,-476 223.4,-472.22 218.88,-466.88"/>
<text text-anchor="start" x="267.5" y="-540.8" font-family="Times,serif" font-size="14.00">empty</text>
</g>
<!-- 0xff8f5351&#45;&gt;0xe8206084 -->
<g id="edge46" class="edge">
<title>0xff8f5351&#45;&gt;0xe8206084:box</title>
<path fill="none" stroke="#2563eb" stroke-dasharray="5,2" d="M364.63,-571.69C386.17,-566.1 511.95,-532.94 522,-519 532.91,-503.86 535.14,-490.25 522,-477 514.32,-469.26 438.09,-464.62 412.12,-470.74"/>
<polygon fill="#2563eb" stroke="#2563eb" points="410.21,-467.8 403.5,-476 413.86,-473.77 410.21,-467.8"/>
<text text-anchor="start" x="481.5" y="-540.8" font-family="Times,serif" font-size="14.00">empty</text>
</g>
<!-- 0xf5097e57&#45;&gt;0xe8cfe28 -->
<g id="edge48" class="edge">
<title>0xf5097e57&#45;&gt;0xe8cfe28:box</title>
<path fill="none" stroke="#2563eb" stroke-dasharray="5,2" d="M628.4,-97.39C638.68,-85.87 686.57,-30.66 673.25,-17.04"/>
<polygon fill="#2563eb" stroke="#2563eb" points="674.09,-13.64 663.5,-14 672,-20.32 674.09,-13.64"/>
<text text-anchor="start" x="654.5" y="-67.8" font-family="Times,serif" font-size="14.00">empty</text>
</g>
<!-- 0xf1b5a498&#45;&gt;0xf8d50e3e -->
<g id="edge50" class="edge">
<title>0xf1b5a498&#45;&gt;0xf8d50e3e:box</title>
<path fill="none" stroke="#2563eb" stroke-dasharray="5,2" d="M944.34,-252C947.39,-242.89 957.81,-211.43 959.5,-201 960.82,-192.88 965.7,-183.45 966.84,-176.94"/>
<polygon fill="#2563eb" stroke="#2563eb" points="969.47,-174.63 960.5,-169 964,-179 969.47,-174.63"/>
<text text-anchor="start" x="954.5" y="-222.8" font-family="Times,serif" font-size="14.00">empty</text>
</g>
<!-- 0xf1b5a498&#45;&gt;0x2d5d253f -->
<g id="edge51" class="edge">
<title>0xf1b5a498&#45;&gt;0x2d5d253f:box</title>
<path fill="none" stroke="#2563eb" stroke-dasharray="5,2" d="M946.88,-254.16C955.62,-253.08 978.93,-248.87 988.5,-234 1001.09,-214.43 972.75,-184.27 976.27,-173.23"/>
<polygon fill="#2563eb" stroke="#2563eb" points="977.87,-176.35 985.5,-169 974.95,-169.98 977.87,-176.35"/>
<text text-anchor="start" x="991.5" y="-222.8" font-family="Times,serif" font-size="14.00">o2</text>
</g>
<!-- 0x4f1f86af&#45;&gt;0x127117a9 -->
<g id="edge53" class="edge">
<title>0x4f1f86af&#45;&gt;0x127117a9:box</title>
<path fill="none" stroke="#2563eb" stroke-dasharray="5,2" d="M404.94,-411.21C409.48,-404.24 424.24,-383.17 442.5,-374 468.27,-361.06 552.08,-377.76 571,-356 583.25,-341.91 584.15,-327.25 571,-314 562.22,-305.16 474.03,-300 446,-307.36"/>
<polygon fill="#2563eb" stroke="#2563eb" points="443.9,-304.56 437.5,-313 447.77,-310.39 443.9,-304.56"/>
<text text-anchor="start" x="442.5" y="-377.8" font-family="Times,serif" font-size="14.00">empty</text>
</g>
<!-- 0xaaf3e231&#45;&gt;0x99e3d107 -->
<g id="edge55" class="edge">
<title>0xaaf3e231&#45;&gt;0x99e3d107</title>
<path fill="none" stroke="#2563eb" stroke-dasharray="5,2" d="M490.2,-380.68C503.79,-381.14 551.42,-380.84 576.5,-356 597.03,-335.66 613.52,-255.61 621.43,-210.45"/>
<polygon fill="#2563eb" stroke="#2563eb" points="624.92,-210.75 623.16,-200.3 618.02,-209.57 624.92,-210.75"/>
<text text-anchor="start" x="606.5" y="-280.8" font-family="Times,serif" font-size="14.00">empty</text>
</g>
<!-- 0x9c88e384&#45;&gt;0xba1b4977 -->
<g id="edge57" class="edge">
<title>0x9c88e384&#45;&gt;0xba1b4977</title>
<path fill="none" stroke="#2563eb" stroke-dasharray="5,2" d="M954,-96.99C955.31,-90.38 958.99,-71.85 962.32,-55.12"/>
<polygon fill="#2563eb" stroke="#2563eb" points="965.8,-55.55 964.32,-45.06 958.94,-54.18 965.8,-55.55"/>
<text text-anchor="start" x="960.5" y="-67.8" font-family="Times,serif" font-size="14.00">o4</text>
</g>
<!-- 0xfa1549b2&#45;&gt;0xba1b4977 -->
<g id="edge59" class="edge">
<title>0xfa1549b2&#45;&gt;0xba1b4977</title>
<path fill="none" stroke="#2563eb" stroke-dasharray="5,2" d="M994.6,-96.99C992.22,-90.31 985.49,-71.5 979.46,-54.65"/>
<polygon fill="#2563eb" stroke="#2563eb" points="982.69,-53.29 976.03,-45.06 976.1,-55.65 982.69,-53.29"/>
<text text-anchor="start" x="987.5" y="-67.8" font-family="Times,serif" font-size="14.00">o4</text>
</g>
</g>
</svg>
