<?xml version="1.0" encoding="UTF-8" standalone="no"?>
<!DOCTYPE svg PUBLIC "-//W3C//DTD SVG 1.1//EN"
 "http://www.w3.org/Graphics/SVG/1.1/DTD/svg11.dtd">
<!-- Generated by graphviz version 14.1.1 (20251213.1925)
 -->
<!-- Pages: 1 -->
<svg width="1072pt" height="1139pt"
 viewBox="0.00 0.00 1072.00 1139.00" xmlns="http://www.w3.org/2000/svg" xmlns:xlink="http://www.w3.org/1999/xlink">
<g id="graph0" class="graph" transform="scale(1 1) rotate(0) translate(4 1134.6)">
<polygon fill="white" stroke="none" points="-4,4 -4,-1134.6 1068.49,-1134.6 1068.49,4 -4,4"/>
<!-- 0x11bdd5d3 -->
<g id="node1" class="node">
<title>0x11bdd5d3</title>
<text xml:space="preserve" text-anchor="start" x="9" y="-488.6" font-family="Times New Roman,serif" font-weight="bold" font-size="14.00">qe19</text>
<path fill="#f0fdf4" stroke="none" d="M15.5,-460.9C15.5,-460.9 103.25,-460.9 103.25,-460.9 107,-460.9 110.75,-464.65 110.75,-468.4 110.75,-468.4 110.75,-475.9 110.75,-475.9 110.75,-479.65 107,-483.4 103.25,-483.4 103.25,-483.4 15.5,-483.4 15.5,-483.4 11.75,-483.4 8,-479.65 8,-475.9 8,-475.9 8,-468.4 8,-468.4 8,-464.65 11.75,-460.9 15.5,-460.9"/>
<path fill="none" stroke="#166534" d="M15.5,-460.9C15.5,-460.9 103.25,-460.9 103.25,-460.9 107,-460.9 110.75,-464.65 110.75,-468.4 110.75,-468.4 110.75,-475.9 110.75,-475.9 110.75,-479.65 107,-483.4 103.25,-483.4 103.25,-483.4 15.5,-483.4 15.5,-483.4 11.75,-483.4 8,-479.65 8,-475.9 8,-475.9 8,-468.4 8,-468.4 8,-464.65 11.75,-460.9 15.5,-460.9"/>
<text xml:space="preserve" text-anchor="start" x="11" y="-468.1" font-family="Times New Roman,serif" font-weight="bold" font-size="14.00">{ye27,ye60,ye68}</text>
</g>
<!-- 0x2434b4b8 -->
<g id="node2" class="node">
<title>0x2434b4b8</title>
<text xml:space="preserve" text-anchor="start" x="728.12" y="-1113.3" font-family="Times New Roman,serif" font-weight="bold" font-size="14.00">qe0</text>
<path fill="#f8f9fa" stroke="none" d="M734.62,-1085.6C734.62,-1085.6 832.12,-1085.6 832.12,-1085.6 835.88,-1085.6 839.62,-1089.35 839.62,-1093.1 839.62,-1093.1 839.62,-1100.6 839.62,-1100.6 839.62,-1104.35 835.88,-1108.1 832.12,-1108.1 832.12,-1108.1 734.62,-1108.1 734.62,-1108.1 730.88,-1108.1 727.12,-1104.35 727.12,-1100.6 727.12,-1100.6 727.12,-1093.1 727.12,-1093.1 727.12,-1089.35 730.88,-1085.6 734.62,-1085.6"/>
<path fill="none" stroke="#333333" d="M734.62,-1085.6C734.62,-1085.6 832.12,-1085.6 832.12,-1085.6 835.88,-1085.6 839.62,-1089.35 839.62,-1093.1 839.62,-1093.1 839.62,-1100.6 839.62,-1100.6 839.62,-1104.35 835.88,-1108.1 832.12,-1108.1 832.12,-1108.1 734.62,-1108.1 734.62,-1108.1 730.88,-1108.1 727.12,-1104.35 727.12,-1100.6 727.12,-1100.6 727.12,-1093.1 727.12,-1093.1 727.12,-1089.35 730.88,-1085.6 734.62,-1085.6"/>
<text xml:space="preserve" text-anchor="start" x="730.12" y="-1092.8" font-family="Times New Roman,serif" font-weight="bold" font-size="14.00">{ye0,ye1,ye19,ye8}</text>
</g>
<!-- 0x3443050d -->
<g id="node23" class="node">
<title>0x3443050d</title>
<ellipse fill="white" stroke="black" cx="732.38" cy="-1026.85" rx="3.6" ry="3.6"/>
</g>
<!-- 0x2434b4b8&#45;&gt;0x3443050d -->
<g id="edge1" class="edge">
<title>0x2434b4b8:box&#45;&gt;0x3443050d</title>
<path fill="none" stroke="black" d="M726.12,-1096.85C703.83,-1096.85 717.1,-1060.66 726.12,-1040.7"/>
<polygon fill="black" stroke="black" points="729.2,-1042.37 730.36,-1031.84 722.89,-1039.35 729.2,-1042.37"/>
<text xml:space="preserve" text-anchor="start" x="722.08" y="-1053.3" font-family="Times New Roman,serif" font-size="14.00">o4</text>
</g>
<!-- 0xa90515ff -->
<g id="node24" class="node">
<title>0xa90515ff</title>
<ellipse fill="white" stroke="black" cx="877.38" cy="-899.85" rx="3.6" ry="3.6"/>
</g>
<!-- 0x2434b4b8&#45;&gt;0xa90515ff -->
<g id="edge3" class="edge">
<title>0x2434b4b8:box&#45;&gt;0xa90515ff</title>
<path fill="none" stroke="black" d="M840.62,-1096.85C877.56,-1096.85 878.46,-960.66 877.73,-915.33"/>
<polygon fill="black" stroke="black" points="881.23,-915.36 877.51,-905.44 874.23,-915.52 881.23,-915.36"/>
<text xml:space="preserve" text-anchor="start" x="873.65" y="-1021.8" font-family="Times New Roman,serif" font-size="14.00">o2</text>
</g>
<!-- 0x5e15a5d6 -->
<g id="node25" class="node">
<title>0x5e15a5d6</title>
<ellipse fill="white" stroke="black" cx="596.38" cy="-1026.85" rx="3.6" ry="3.6"/>
</g>
<!-- 0x2434b4b8&#45;&gt;0x5e15a5d6 -->
<g id="edge5" class="edge">
<title>0x2434b4b8:box&#45;&gt;0x5e15a5d6</title>
<path fill="none" stroke="black" d="M726.12,-1096.85C699.86,-1096.85 631.54,-1084.01 611.88,-1066.6 604.7,-1060.25 600.8,-1050.11 598.71,-1041.8"/>
<polygon fill="black" stroke="black" points="602.21,-1041.47 596.94,-1032.27 595.32,-1042.74 602.21,-1041.47"/>
<text xml:space="preserve" text-anchor="start" x="611.88" y="-1053.3" font-family="Times New Roman,serif" font-size="14.00">o2</text>
</g>
<!-- 0x2ee90ac2 -->
<g id="node26" class="node">
<title>0x2ee90ac2</title>
<ellipse fill="white" stroke="black" cx="797.38" cy="-995.35" rx="3.6" ry="3.6"/>
</g>
<!-- 0x2434b4b8&#45;&gt;0x2ee90ac2 -->
<g id="edge7" class="edge">
<title>0x2434b4b8:box&#45;&gt;0x2ee90ac2</title>
<path fill="none" stroke="black" d="M783.38,-1084.6C783.38,-1057.94 789.69,-1027.3 793.83,-1010.04"/>
<polygon fill="black" stroke="black" points="797.18,-1011.09 796.25,-1000.54 790.39,-1009.37 797.18,-1011.09"/>
<text xml:space="preserve" text-anchor="start" x="785.91" y="-1053.3" font-family="Times New Roman,serif" font-size="14.00">o2</text>
</g>
<!-- 0x1e75ff8d -->
<g id="node27" class="node">
<title>0x1e75ff8d</title>
<ellipse fill="white" stroke="black" cx="583.38" cy="-899.85" rx="3.6" ry="3.6"/>
</g>
<!-- 0x2434b4b8&#45;&gt;0x1e75ff8d -->
<g id="edge9" class="edge">
<title>0x2434b4b8:box&#45;&gt;0x1e75ff8d</title>
<path fill="none" stroke="black" d="M726.12,-1096.85C680.73,-1096.85 610.5,-957.72 589.5,-913.9"/>
<polygon fill="black" stroke="black" points="592.73,-912.54 585.3,-904.99 586.4,-915.53 592.73,-912.54"/>
<text xml:space="preserve" text-anchor="start" x="656" y="-1021.8" font-family="Times New Roman,serif" font-size="14.00">o3</text>
</g>
<!-- 0x5d14956d -->
<g id="node28" class="node">
<title>0x5d14956d</title>
<ellipse fill="white" stroke="black" cx="922.38" cy="-995.35" rx="3.6" ry="3.6"/>
</g>
<!-- 0x2434b4b8&#45;&gt;0x5d14956d -->
<g id="edge11" class="edge">
<title>0x2434b4b8:box&#45;&gt;0x5d14956d</title>
<path fill="none" stroke="black" d="M840.62,-1096.85C884.88,-1096.85 909.4,-1037.48 918.38,-1010.01"/>
<polygon fill="black" stroke="black" points="921.65,-1011.28 921.18,-1000.7 914.94,-1009.26 921.65,-1011.28"/>
<text xml:space="preserve" text-anchor="start" x="900.75" y="-1053.3" font-family="Times New Roman,serif" font-size="14.00">o3</text>
</g>
<!-- 0x97b2358 -->
<g id="node3" class="node">
<title>0x97b2358</title>
<polygon fill="#eff6ff" stroke="#1d4ed8" points="631.12,-166.24 631.12,-181.16 609.6,-191.7 579.15,-191.7 557.63,-181.16 557.63,-166.24 579.15,-155.7 609.6,-155.7 631.12,-166.24"/>
<polygon fill="none" stroke="#1d4ed8" points="635.12,-163.75 635.12,-183.65 610.52,-195.7 578.23,-195.7 553.63,-183.65 553.63,-163.75 578.23,-151.7 610.52,-151.7 635.12,-163.75"/>
<text xml:space="preserve" text-anchor="start" x="577.5" y="-169.65" font-family="Times New Roman,serif" font-weight="bold" font-size="14.00">SCC1</text>
</g>
<!-- 0xc621d7cd -->
<g id="node51" class="node">
<title>0xc621d7cd</title>
<ellipse fill="white" stroke="black" cx="594.38" cy="-99.1" rx="3.6" ry="3.6"/>
</g>
<!-- 0x97b2358&#45;&gt;0xc621d7cd -->
<g id="edge57" class="edge">
<title>0x97b2358&#45;&gt;0xc621d7cd</title>
<path fill="none" stroke="black" d="M594.38,-151.31C594.38,-139.35 594.38,-124.77 594.38,-114.23"/>
<polygon fill="black" stroke="black" points="597.88,-114.5 594.38,-104.5 590.88,-114.5 597.88,-114.5"/>
<text xml:space="preserve" text-anchor="start" x="594.38" y="-120.9" font-family="Times New Roman,serif" font-size="14.00">o2</text>
</g>
<!-- 0x544bc016 -->
<g id="node4" class="node">
<title>0x544bc016</title>
<text xml:space="preserve" text-anchor="start" x="26.38" y="-796.3" font-family="Times New Roman,serif" font-weight="bold" font-size="14.00">qe10</text>
<path fill="#f8f9fa" stroke="none" d="M32.88,-768.6C32.88,-768.6 293.88,-768.6 293.88,-768.6 297.62,-768.6 301.38,-772.35 301.38,-776.1 301.38,-776.1 301.38,-783.6 301.38,-783.6 301.38,-787.35 297.62,-791.1 293.88,-791.1 293.88,-791.1 32.88,-791.1 32.88,-791.1 29.12,-791.1 25.38,-787.35 25.38,-783.6 25.38,-783.6 25.38,-776.1 25.38,-776.1 25.38,-772.35 29.12,-768.6 32.88,-768.6"/>
<path fill="none" stroke="#333333" d="M32.88,-768.6C32.88,-768.6 293.88,-768.6 293.88,-768.6 297.62,-768.6 301.38,-772.35 301.38,-776.1 301.38,-776.1 301.38,-783.6 301.38,-783.6 301.38,-787.35 297.62,-791.1 293.88,-791.1 293.88,-791.1 32.88,-791.1 32.88,-791.1 29.12,-791.1 25.38,-787.35 25.38,-783.6 25.38,-783.6 25.38,-776.1 25.38,-776.1 25.38,-772.35 29.12,-768.6 32.88,-768.6"/>
<text xml:space="preserve" text-anchor="start" x="28.38" y="-775.8" font-family="Times New Roman,serif" font-weight="bold" font-size="14.00">{ye10,ye17,ye33,ye42,ye46,ye52,ye55,ye57,ye6}</text>
</g>
<!-- 0xe268fe91 -->
<g id="node43" class="node">
<title>0xe268fe91</title>
<ellipse fill="white" stroke="black" cx="353.38" cy="-582.85" rx="3.6" ry="3.6"/>
</g>
<!-- 0x544bc016&#45;&gt;0xe268fe91 -->
<g id="edge41" class="edge">
<title>0x544bc016:box&#45;&gt;0xe268fe91</title>
<path fill="none" stroke="black" d="M302.38,-779.85C321.21,-779.85 344.25,-642.51 351.26,-597.76"/>
<polygon fill="black" stroke="black" points="354.68,-598.53 352.73,-588.12 347.76,-597.47 354.68,-598.53"/>
<text xml:space="preserve" text-anchor="start" x="331.81" y="-704.8" font-family="Times New Roman,serif" font-size="14.00">o2</text>
</g>
<!-- 0x688a513e -->
<g id="node44" class="node">
<title>0x688a513e</title>
<ellipse fill="white" stroke="black" cx="170.38" cy="-709.85" rx="3.6" ry="3.6"/>
</g>
<!-- 0x544bc016&#45;&gt;0x688a513e -->
<g id="edge43" class="edge">
<title>0x544bc016:box&#45;&gt;0x688a513e</title>
<path fill="none" stroke="black" d="M163.38,-767.6C163.38,-752.8 165.75,-736 167.73,-724.54"/>
<polygon fill="black" stroke="black" points="171.13,-725.4 169.55,-714.93 164.25,-724.1 171.13,-725.4"/>
<text xml:space="preserve" text-anchor="start" x="166.25" y="-736.3" font-family="Times New Roman,serif" font-size="14.00">o3</text>
</g>
<!-- 0x6ec947ee -->
<g id="node5" class="node">
<title>0x6ec947ee</title>
<polygon fill="#eff6ff" stroke="#1d4ed8" points="941.12,-315.44 941.12,-330.36 919.6,-340.9 889.15,-340.9 867.63,-330.36 867.63,-315.44 889.15,-304.9 919.6,-304.9 941.12,-315.44"/>
<polygon fill="none" stroke="#1d4ed8" points="945.12,-312.95 945.12,-332.85 920.52,-344.9 888.23,-344.9 863.63,-332.85 863.63,-312.95 888.23,-300.9 920.52,-300.9 945.12,-312.95"/>
<text xml:space="preserve" text-anchor="start" x="887.5" y="-318.85" font-family="Times New Roman,serif" font-weight="bold" font-size="14.00">SCC0</text>
</g>
<!-- 0xc5c28da5 -->
<g id="node54" class="node">
<title>0xc5c28da5</title>
<ellipse fill="white" stroke="black" cx="883.38" cy="-248.3" rx="3.6" ry="3.6"/>
</g>
<!-- 0x6ec947ee&#45;&gt;0xc5c28da5 -->
<g id="edge63" class="edge">
<title>0x6ec947ee&#45;&gt;0xc5c28da5</title>
<path fill="none" stroke="black" d="M898.19,-300.51C894.69,-288.41 890.42,-273.64 887.36,-263.07"/>
<polygon fill="black" stroke="black" points="890.77,-262.28 884.63,-253.64 884.05,-264.22 890.77,-262.28"/>
<text xml:space="preserve" text-anchor="start" x="892.62" y="-270.1" font-family="Times New Roman,serif" font-size="14.00">o2</text>
</g>
<!-- 0xfcc534c0 -->
<g id="node55" class="node">
<title>0xfcc534c0</title>
<ellipse fill="white" stroke="black" cx="924.38" cy="-248.3" rx="3.6" ry="3.6"/>
</g>
<!-- 0x6ec947ee&#45;&gt;0xfcc534c0 -->
<g id="edge65" class="edge">
<title>0x6ec947ee&#45;&gt;0xfcc534c0</title>
<path fill="none" stroke="black" d="M910.27,-300.51C913.6,-288.41 917.67,-273.64 920.58,-263.07"/>
<polygon fill="black" stroke="black" points="923.89,-264.22 923.18,-253.65 917.15,-262.36 923.89,-264.22"/>
<text xml:space="preserve" text-anchor="start" x="919.01" y="-270.1" font-family="Times New Roman,serif" font-size="14.00">o2</text>
</g>
<!-- 0x13ffcef6 -->
<g id="node6" class="node">
<title>0x13ffcef6</title>
<text xml:space="preserve" text-anchor="start" x="147" y="-637.8" font-family="Times New Roman,serif" font-weight="bold" font-size="14.00">qe13</text>
<path fill="#f8f9fa" stroke="none" d="M153.5,-610.1C153.5,-610.1 241.25,-610.1 241.25,-610.1 245,-610.1 248.75,-613.85 248.75,-617.6 248.75,-617.6 248.75,-625.1 248.75,-625.1 248.75,-628.85 245,-632.6 241.25,-632.6 241.25,-632.6 153.5,-632.6 153.5,-632.6 149.75,-632.6 146,-628.85 146,-625.1 146,-625.1 146,-617.6 146,-617.6 146,-613.85 149.75,-610.1 153.5,-610.1"/>
<path fill="none" stroke="#333333" d="M153.5,-610.1C153.5,-610.1 241.25,-610.1 241.25,-610.1 245,-610.1 248.75,-613.85 248.75,-617.6 248.75,-617.6 248.75,-625.1 248.75,-625.1 248.75,-628.85 245,-632.6 241.25,-632.6 241.25,-632.6 153.5,-632.6 153.5,-632.6 149.75,-632.6 146,-628.85 146,-625.1 146,-625.1 146,-617.6 146,-617.6 146,-613.85 149.75,-610.1 153.5,-610.1"/>
<text xml:space="preserve" text-anchor="start" x="149" y="-617.3" font-family="Times New Roman,serif" font-weight="bold" font-size="14.00">{ye15,ye50,ye56}</text>
</g>
<!-- 0xd0e476d5 -->
<g id="node48" class="node">
<title>0xd0e476d5</title>
<ellipse fill="white" stroke="black" cx="103.38" cy="-556" rx="3.6" ry="3.6"/>
</g>
<!-- 0x13ffcef6&#45;&gt;0xd0e476d5 -->
<g id="edge51" class="edge">
<title>0x13ffcef6:box&#45;&gt;0xd0e476d5</title>
<path fill="none" stroke="black" d="M145,-621.35C121.13,-621.35 110.28,-589.76 105.92,-570.84"/>
<polygon fill="black" stroke="black" points="109.39,-570.4 104.05,-561.25 102.52,-571.73 109.39,-570.4"/>
<text xml:space="preserve" text-anchor="start" x="111.41" y="-577.8" font-family="Times New Roman,serif" font-size="14.00">o2</text>
</g>
<!-- 0x2102649f -->
<g id="node49" class="node">
<title>0x2102649f</title>
<ellipse fill="white" stroke="black" cx="248.38" cy="-556" rx="3.6" ry="3.6"/>
</g>
<!-- 0x13ffcef6&#45;&gt;0x2102649f -->
<g id="edge53" class="edge">
<title>0x13ffcef6:box&#45;&gt;0x2102649f</title>
<path fill="none" stroke="black" d="M197.38,-609.1C197.38,-587.54 219.95,-571.61 235.06,-563.36"/>
<polygon fill="black" stroke="black" points="236.57,-566.52 243.98,-558.95 233.46,-560.24 236.57,-566.52"/>
<text xml:space="preserve" text-anchor="start" x="216.81" y="-577.8" font-family="Times New Roman,serif" font-size="14.00">o3</text>
</g>
<!-- 0xed5f402 -->
<g id="node7" class="node">
<title>0xed5f402</title>
<text xml:space="preserve" text-anchor="start" x="893.38" y="-796.3" font-family="Times New Roman,serif" font-weight="bold" font-size="14.00">qe6</text>
<path fill="#f8f9fa" stroke="none" d="M899.88,-768.6C899.88,-768.6 1040.88,-768.6 1040.88,-768.6 1044.62,-768.6 1048.38,-772.35 1048.38,-776.1 1048.38,-776.1 1048.38,-783.6 1048.38,-783.6 1048.38,-787.35 1044.62,-791.1 1040.88,-791.1 1040.88,-791.1 899.88,-791.1 899.88,-791.1 896.12,-791.1 892.38,-787.35 892.38,-783.6 892.38,-783.6 892.38,-776.1 892.38,-776.1 892.38,-772.35 896.12,-768.6 899.88,-768.6"/>
<path fill="none" stroke="#333333" d="M899.88,-768.6C899.88,-768.6 1040.88,-768.6 1040.88,-768.6 1044.62,-768.6 1048.38,-772.35 1048.38,-776.1 1048.38,-776.1 1048.38,-783.6 1048.38,-783.6 1048.38,-787.35 1044.62,-791.1 1040.88,-791.1 1040.88,-791.1 899.88,-791.1 899.88,-791.1 896.12,-791.1 892.38,-787.35 892.38,-783.6 892.38,-783.6 892.38,-776.1 892.38,-776.1 892.38,-772.35 896.12,-768.6 899.88,-768.6"/>
<text xml:space="preserve" text-anchor="start" x="895.38" y="-775.8" font-family="Times New Roman,serif" font-weight="bold" font-size="14.00">{ye18,ye36,ye44,ye54,ye7}</text>
</g>
<!-- 0x501d7ed2 -->
<g id="node40" class="node">
<title>0x501d7ed2</title>
<ellipse fill="white" stroke="black" cx="1008.38" cy="-433.65" rx="3.6" ry="3.6"/>
</g>
<!-- 0xed5f402&#45;&gt;0x501d7ed2 -->
<g id="edge35" class="edge">
<title>0xed5f402:box&#45;&gt;0x501d7ed2</title>
<path fill="none" stroke="black" d="M1049.38,-779.85C1056.17,-779.85 1050.35,-771.1 1048.38,-764.6 1040.38,-738.21 1017.38,-738.43 1017.38,-710.85 1017.38,-710.85 1017.38,-710.85 1017.38,-528.15 1017.38,-499.84 1013.24,-466.93 1010.57,-448.68"/>
<polygon fill="black" stroke="black" points="1014.07,-448.4 1009.09,-439.04 1007.15,-449.46 1014.07,-448.4"/>
<text xml:space="preserve" text-anchor="start" x="1017.38" y="-625.55" font-family="Times New Roman,serif" font-size="14.00">o2</text>
</g>
<!-- 0x4603c1aa -->
<g id="node41" class="node">
<title>0x4603c1aa</title>
<ellipse fill="white" stroke="black" cx="969.38" cy="-678.35" rx="3.6" ry="3.6"/>
</g>
<!-- 0xed5f402&#45;&gt;0x4603c1aa -->
<g id="edge37" class="edge">
<title>0xed5f402:box&#45;&gt;0x4603c1aa</title>
<path fill="none" stroke="black" d="M970.38,-767.6C970.38,-741.63 969.94,-711.38 969.64,-693.88"/>
<polygon fill="black" stroke="black" points="973.14,-693.85 969.46,-683.91 966.14,-693.97 973.14,-693.85"/>
<text xml:space="preserve" text-anchor="start" x="970.31" y="-736.3" font-family="Times New Roman,serif" font-size="14.00">o2</text>
</g>
<!-- 0xa7910a56 -->
<g id="node8" class="node">
<title>0xa7910a56</title>
<text xml:space="preserve" text-anchor="start" x="323" y="-330.1" font-family="Times New Roman,serif" font-weight="bold" font-size="14.00">qe12</text>
<path fill="#f8f9fa" stroke="none" d="M329.5,-302.4C329.5,-302.4 567.25,-302.4 567.25,-302.4 571,-302.4 574.75,-306.15 574.75,-309.9 574.75,-309.9 574.75,-317.4 574.75,-317.4 574.75,-321.15 571,-324.9 567.25,-324.9 567.25,-324.9 329.5,-324.9 329.5,-324.9 325.75,-324.9 322,-321.15 322,-317.4 322,-317.4 322,-309.9 322,-309.9 322,-306.15 325.75,-302.4 329.5,-302.4"/>
<path fill="none" stroke="#333333" d="M329.5,-302.4C329.5,-302.4 567.25,-302.4 567.25,-302.4 571,-302.4 574.75,-306.15 574.75,-309.9 574.75,-309.9 574.75,-317.4 574.75,-317.4 574.75,-321.15 571,-324.9 567.25,-324.9 567.25,-324.9 329.5,-324.9 329.5,-324.9 325.75,-324.9 322,-321.15 322,-317.4 322,-317.4 322,-309.9 322,-309.9 322,-306.15 325.75,-302.4 329.5,-302.4"/>
<text xml:space="preserve" text-anchor="start" x="325" y="-309.6" font-family="Times New Roman,serif" font-weight="bold" font-size="14.00">{ye31,ye40,ye48,ye64,ye69,ye80,ye85,ye89}</text>
</g>
<!-- 0xb714ffd7 -->
<g id="node47" class="node">
<title>0xb714ffd7</title>
<ellipse fill="white" stroke="black" cx="499.38" cy="-248.3" rx="3.6" ry="3.6"/>
</g>
<!-- 0xa7910a56&#45;&gt;0xb714ffd7 -->
<g id="edge49" class="edge">
<title>0xa7910a56:box&#45;&gt;0xb714ffd7</title>
<path fill="none" stroke="black" d="M448.38,-301.4C448.38,-279.84 470.95,-263.91 486.06,-255.66"/>
<polygon fill="black" stroke="black" points="487.57,-258.82 494.98,-251.25 484.46,-252.54 487.57,-258.82"/>
<text xml:space="preserve" text-anchor="start" x="467.81" y="-270.1" font-family="Times New Roman,serif" font-size="14.00">o4</text>
</g>
<!-- 0xd942d98f -->
<g id="node9" class="node">
<title>0xd942d98f</title>
<text xml:space="preserve" text-anchor="start" x="848" y="-180.9" font-family="Times New Roman,serif" font-weight="bold" font-size="14.00">qe26</text>
<path fill="#f8f9fa" stroke="none" d="M854.5,-153.2C854.5,-153.2 882.25,-153.2 882.25,-153.2 886,-153.2 889.75,-156.95 889.75,-160.7 889.75,-160.7 889.75,-168.2 889.75,-168.2 889.75,-171.95 886,-175.7 882.25,-175.7 882.25,-175.7 854.5,-175.7 854.5,-175.7 850.75,-175.7 847,-171.95 847,-168.2 847,-168.2 847,-160.7 847,-160.7 847,-156.95 850.75,-153.2 854.5,-153.2"/>
<path fill="none" stroke="#333333" d="M854.5,-153.2C854.5,-153.2 882.25,-153.2 882.25,-153.2 886,-153.2 889.75,-156.95 889.75,-160.7 889.75,-160.7 889.75,-168.2 889.75,-168.2 889.75,-171.95 886,-175.7 882.25,-175.7 882.25,-175.7 854.5,-175.7 854.5,-175.7 850.75,-175.7 847,-171.95 847,-168.2 847,-168.2 847,-160.7 847,-160.7 847,-156.95 850.75,-153.2 854.5,-153.2"/>
<text xml:space="preserve" text-anchor="start" x="850" y="-160.4" font-family="Times New Roman,serif" font-weight="bold" font-size="14.00">{ye83}</text>
</g>
<!-- 0xfb9e3fd4 -->
<g id="node56" class="node">
<title>0xfb9e3fd4</title>
<ellipse fill="white" stroke="black" cx="871.38" cy="-99.1" rx="3.6" ry="3.6"/>
</g>
<!-- 0xd942d98f&#45;&gt;0xfb9e3fd4 -->
<g id="edge67" class="edge">
<title>0xd942d98f:box&#45;&gt;0xfb9e3fd4</title>
<path fill="none" stroke="black" d="M868.38,-152.2C868.38,-139.39 869.29,-124.84 870.11,-114.38"/>
<polygon fill="black" stroke="black" points="873.6,-114.69 870.97,-104.43 866.62,-114.09 873.6,-114.69"/>
<text xml:space="preserve" text-anchor="start" x="869.79" y="-120.9" font-family="Times New Roman,serif" font-size="14.00">o4</text>
</g>
<!-- 0xb843d79c -->
<g id="node10" class="node">
<title>0xb843d79c</title>
<text xml:space="preserve" text-anchor="start" x="824" y="-488.6" font-family="Times New Roman,serif" font-weight="bold" font-size="14.00">qe15</text>
<path fill="#f8f9fa" stroke="none" d="M830.5,-460.9C830.5,-460.9 978.25,-460.9 978.25,-460.9 982,-460.9 985.75,-464.65 985.75,-468.4 985.75,-468.4 985.75,-475.9 985.75,-475.9 985.75,-479.65 982,-483.4 978.25,-483.4 978.25,-483.4 830.5,-483.4 830.5,-483.4 826.75,-483.4 823,-479.65 823,-475.9 823,-475.9 823,-468.4 823,-468.4 823,-464.65 826.75,-460.9 830.5,-460.9"/>
<path fill="none" stroke="#333333" d="M830.5,-460.9C830.5,-460.9 978.25,-460.9 978.25,-460.9 982,-460.9 985.75,-464.65 985.75,-468.4 985.75,-468.4 985.75,-475.9 985.75,-475.9 985.75,-479.65 982,-483.4 978.25,-483.4 978.25,-483.4 830.5,-483.4 830.5,-483.4 826.75,-483.4 823,-479.65 823,-475.9 823,-475.9 823,-468.4 823,-468.4 823,-464.65 826.75,-460.9 830.5,-460.9"/>
<text xml:space="preserve" text-anchor="start" x="826" y="-468.1" font-family="Times New Roman,serif" font-weight="bold" font-size="14.00">{ye32,ye41,ye49,ye67,ye84}</text>
</g>
<!-- 0xa5fd7c74 -->
<g id="node50" class="node">
<title>0xa5fd7c74</title>
<ellipse fill="white" stroke="black" cx="904.38" cy="-402.15" rx="3.6" ry="3.6"/>
</g>
<!-- 0xb843d79c&#45;&gt;0xa5fd7c74 -->
<g id="edge55" class="edge">
<title>0xb843d79c:box&#45;&gt;0xa5fd7c74</title>
<path fill="none" stroke="black" d="M904.38,-459.9C904.38,-445.49 904.38,-429.02 904.38,-417.55"/>
<polygon fill="black" stroke="black" points="907.88,-417.74 904.38,-407.74 900.88,-417.74 907.88,-417.74"/>
<text xml:space="preserve" text-anchor="start" x="904.38" y="-428.6" font-family="Times New Roman,serif" font-size="14.00">o4</text>
</g>
<!-- 0xad3adf02 -->
<g id="node11" class="node">
<title>0xad3adf02</title>
<text xml:space="preserve" text-anchor="start" x="903.38" y="-637.8" font-family="Times New Roman,serif" font-weight="bold" font-size="14.00">qe9</text>
<path fill="#f8f9fa" stroke="none" d="M909.88,-610.1C909.88,-610.1 930.88,-610.1 930.88,-610.1 934.62,-610.1 938.38,-613.85 938.38,-617.6 938.38,-617.6 938.38,-625.1 938.38,-625.1 938.38,-628.85 934.62,-632.6 930.88,-632.6 930.88,-632.6 909.88,-632.6 909.88,-632.6 906.12,-632.6 902.38,-628.85 902.38,-625.1 902.38,-625.1 902.38,-617.6 902.38,-617.6 902.38,-613.85 906.12,-610.1 909.88,-610.1"/>
<path fill="none" stroke="#333333" d="M909.88,-610.1C909.88,-610.1 930.88,-610.1 930.88,-610.1 934.62,-610.1 938.38,-613.85 938.38,-617.6 938.38,-617.6 938.38,-625.1 938.38,-625.1 938.38,-628.85 934.62,-632.6 930.88,-632.6 930.88,-632.6 909.88,-632.6 909.88,-632.6 906.12,-632.6 902.38,-628.85 902.38,-625.1 902.38,-625.1 902.38,-617.6 902.38,-617.6 902.38,-613.85 906.12,-610.1 909.88,-610.1"/>
<text xml:space="preserve" text-anchor="start" x="905.38" y="-617.3" font-family="Times New Roman,serif" font-weight="bold" font-size="14.00">{ye9}</text>
</g>
<!-- 0x536ae14d -->
<g id="node12" class="node">
<title>0x536ae14d</title>
<text xml:space="preserve" text-anchor="start" x="826.38" y="-796.3" font-family="Times New Roman,serif" font-weight="bold" font-size="14.00">qe2</text>
<path fill="#f8f9fa" stroke="none" d="M832.88,-768.6C832.88,-768.6 853.88,-768.6 853.88,-768.6 857.62,-768.6 861.38,-772.35 861.38,-776.1 861.38,-776.1 861.38,-783.6 861.38,-783.6 861.38,-787.35 857.62,-791.1 853.88,-791.1 853.88,-791.1 832.88,-791.1 832.88,-791.1 829.12,-791.1 825.38,-787.35 825.38,-783.6 825.38,-783.6 825.38,-776.1 825.38,-776.1 825.38,-772.35 829.12,-768.6 832.88,-768.6"/>
<path fill="none" stroke="#333333" d="M832.88,-768.6C832.88,-768.6 853.88,-768.6 853.88,-768.6 857.62,-768.6 861.38,-772.35 861.38,-776.1 861.38,-776.1 861.38,-783.6 861.38,-783.6 861.38,-787.35 857.62,-791.1 853.88,-791.1 853.88,-791.1 832.88,-791.1 832.88,-791.1 829.12,-791.1 825.38,-787.35 825.38,-783.6 825.38,-783.6 825.38,-776.1 825.38,-776.1 825.38,-772.35 829.12,-768.6 832.88,-768.6"/>
<text xml:space="preserve" text-anchor="start" x="828.38" y="-775.8" font-family="Times New Roman,serif" font-weight="bold" font-size="14.00">{ye2}</text>
</g>
<!-- 0x4e0fa998 -->
<g id="node35" class="node">
<title>0x4e0fa998</title>
<ellipse fill="white" stroke="black" cx="900.38" cy="-709.85" rx="3.6" ry="3.6"/>
</g>
<!-- 0x536ae14d&#45;&gt;0x4e0fa998 -->
<g id="edge25" class="edge">
<title>0x536ae14d:box&#45;&gt;0x4e0fa998</title>
<path fill="none" stroke="black" d="M843.38,-767.6C843.38,-743.12 870.11,-725.55 886.96,-716.91"/>
<polygon fill="black" stroke="black" points="888.36,-720.12 895.94,-712.72 885.4,-713.78 888.36,-720.12"/>
<text xml:space="preserve" text-anchor="start" x="861.81" y="-736.3" font-family="Times New Roman,serif" font-size="14.00">o4</text>
</g>
<!-- 0x6bc16e7b -->
<g id="node13" class="node">
<title>0x6bc16e7b</title>
<text xml:space="preserve" text-anchor="start" x="559" y="-31.7" font-family="Times New Roman,serif" font-weight="bold" font-size="14.00">qe23</text>
<path fill="#f0fdf4" stroke="none" d="M565.5,-4C565.5,-4 623.25,-4 623.25,-4 627,-4 630.75,-7.75 630.75,-11.5 630.75,-11.5 630.75,-19 630.75,-19 630.75,-22.75 627,-26.5 623.25,-26.5 623.25,-26.5 565.5,-26.5 565.5,-26.5 561.75,-26.5 558,-22.75 558,-19 558,-19 558,-11.5 558,-11.5 558,-7.75 561.75,-4 565.5,-4"/>
<path fill="none" stroke="#166534" d="M565.5,-4C565.5,-4 623.25,-4 623.25,-4 627,-4 630.75,-7.75 630.75,-11.5 630.75,-11.5 630.75,-19 630.75,-19 630.75,-22.75 627,-26.5 623.25,-26.5 623.25,-26.5 565.5,-26.5 565.5,-26.5 561.75,-26.5 558,-22.75 558,-19 558,-19 558,-11.5 558,-11.5 558,-7.75 561.75,-4 565.5,-4"/>
<text xml:space="preserve" text-anchor="start" x="561" y="-11.2" font-family="Times New Roman,serif" font-weight="bold" font-size="14.00">{ye60,ye68}</text>
</g>
<!-- 0x89c13466 -->
<g id="node14" class="node">
<title>0x89c13466</title>
<text xml:space="preserve" text-anchor="start" x="758.38" y="-796.3" font-family="Times New Roman,serif" font-weight="bold" font-size="14.00">qe4</text>
<path fill="#f8f9fa" stroke="none" d="M764.88,-768.6C764.88,-768.6 785.88,-768.6 785.88,-768.6 789.62,-768.6 793.38,-772.35 793.38,-776.1 793.38,-776.1 793.38,-783.6 793.38,-783.6 793.38,-787.35 789.62,-791.1 785.88,-791.1 785.88,-791.1 764.88,-791.1 764.88,-791.1 761.12,-791.1 757.38,-787.35 757.38,-783.6 757.38,-783.6 757.38,-776.1 757.38,-776.1 757.38,-772.35 761.12,-768.6 764.88,-768.6"/>
<path fill="none" stroke="#333333" d="M764.88,-768.6C764.88,-768.6 785.88,-768.6 785.88,-768.6 789.62,-768.6 793.38,-772.35 793.38,-776.1 793.38,-776.1 793.38,-783.6 793.38,-783.6 793.38,-787.35 789.62,-791.1 785.88,-791.1 785.88,-791.1 764.88,-791.1 764.88,-791.1 761.12,-791.1 757.38,-787.35 757.38,-783.6 757.38,-783.6 757.38,-776.1 757.38,-776.1 757.38,-772.35 761.12,-768.6 764.88,-768.6"/>
<text xml:space="preserve" text-anchor="start" x="760.38" y="-775.8" font-family="Times New Roman,serif" font-weight="bold" font-size="14.00">{ye4}</text>
</g>
<!-- 0xaea846d4 -->
<g id="node37" class="node">
<title>0xaea846d4</title>
<ellipse fill="white" stroke="black" cx="776.38" cy="-709.85" rx="3.6" ry="3.6"/>
</g>
<!-- 0x89c13466&#45;&gt;0xaea846d4 -->
<g id="edge29" class="edge">
<title>0x89c13466:box&#45;&gt;0xaea846d4</title>
<path fill="none" stroke="black" d="M775.38,-767.6C775.38,-753.19 775.7,-736.72 775.98,-725.25"/>
<polygon fill="black" stroke="black" points="779.47,-725.53 776.24,-715.44 772.48,-725.34 779.47,-725.53"/>
<text xml:space="preserve" text-anchor="start" x="775.79" y="-736.3" font-family="Times New Roman,serif" font-size="14.00">o4</text>
</g>
<!-- 0xc882830a -->
<g id="node15" class="node">
<title>0xc882830a</title>
<polygon fill="#eff6ff" stroke="#1d4ed8" points="929.12,-17.04 929.12,-31.96 907.6,-42.5 877.15,-42.5 855.63,-31.96 855.63,-17.04 877.15,-6.5 907.6,-6.5 929.12,-17.04"/>
<polygon fill="none" stroke="#1d4ed8" points="933.12,-14.55 933.12,-34.45 908.52,-46.5 876.23,-46.5 851.63,-34.45 851.63,-14.55 876.23,-2.5 908.52,-2.5 933.12,-14.55"/>
<text xml:space="preserve" text-anchor="start" x="875.5" y="-20.45" font-family="Times New Roman,serif" font-weight="bold" font-size="14.00">SCC2</text>
</g>
<!-- 0xf1a383ed -->
<g id="node16" class="node">
<title>0xf1a383ed</title>
<text xml:space="preserve" text-anchor="start" x="921" y="-180.9" font-family="Times New Roman,serif" font-weight="bold" font-size="14.00">qe27</text>
<path fill="#f8f9fa" stroke="none" d="M927.5,-153.2C927.5,-153.2 955.25,-153.2 955.25,-153.2 959,-153.2 962.75,-156.95 962.75,-160.7 962.75,-160.7 962.75,-168.2 962.75,-168.2 962.75,-171.95 959,-175.7 955.25,-175.7 955.25,-175.7 927.5,-175.7 927.5,-175.7 923.75,-175.7 920,-171.95 920,-168.2 920,-168.2 920,-160.7 920,-160.7 920,-156.95 923.75,-153.2 927.5,-153.2"/>
<path fill="none" stroke="#333333" d="M927.5,-153.2C927.5,-153.2 955.25,-153.2 955.25,-153.2 959,-153.2 962.75,-156.95 962.75,-160.7 962.75,-160.7 962.75,-168.2 962.75,-168.2 962.75,-171.95 959,-175.7 955.25,-175.7 955.25,-175.7 927.5,-175.7 927.5,-175.7 923.75,-175.7 920,-171.95 920,-168.2 920,-168.2 920,-160.7 920,-160.7 920,-156.95 923.75,-153.2 927.5,-153.2"/>
<text xml:space="preserve" text-anchor="start" x="923" y="-160.4" font-family="Times New Roman,serif" font-weight="bold" font-size="14.00">{ye77}</text>
</g>
<!-- 0x76c4cdf5 -->
<g id="node57" class="node">
<title>0x76c4cdf5</title>
<ellipse fill="white" stroke="black" cx="930.38" cy="-99.1" rx="3.6" ry="3.6"/>
</g>
<!-- 0xf1a383ed&#45;&gt;0x76c4cdf5 -->
<g id="edge69" class="edge">
<title>0xf1a383ed:box&#45;&gt;0x76c4cdf5</title>
<path fill="none" stroke="black" d="M941.38,-152.2C941.38,-138.83 937.86,-123.94 934.81,-113.51"/>
<polygon fill="black" stroke="black" points="938.25,-112.77 931.85,-104.32 931.58,-114.91 938.25,-112.77"/>
<text xml:space="preserve" text-anchor="start" x="939.53" y="-120.9" font-family="Times New Roman,serif" font-size="14.00">o4</text>
</g>
<!-- 0x55828562 -->
<g id="node17" class="node">
<title>0x55828562</title>
<text xml:space="preserve" text-anchor="start" x="529.38" y="-954.8" font-family="Times New Roman,serif" font-weight="bold" font-size="14.00">qe3</text>
<path fill="#f8f9fa" stroke="none" d="M535.88,-927.1C535.88,-927.1 556.88,-927.1 556.88,-927.1 560.62,-927.1 564.38,-930.85 564.38,-934.6 564.38,-934.6 564.38,-942.1 564.38,-942.1 564.38,-945.85 560.62,-949.6 556.88,-949.6 556.88,-949.6 535.88,-949.6 535.88,-949.6 532.12,-949.6 528.38,-945.85 528.38,-942.1 528.38,-942.1 528.38,-934.6 528.38,-934.6 528.38,-930.85 532.12,-927.1 535.88,-927.1"/>
<path fill="none" stroke="#333333" d="M535.88,-927.1C535.88,-927.1 556.88,-927.1 556.88,-927.1 560.62,-927.1 564.38,-930.85 564.38,-934.6 564.38,-934.6 564.38,-942.1 564.38,-942.1 564.38,-945.85 560.62,-949.6 556.88,-949.6 556.88,-949.6 535.88,-949.6 535.88,-949.6 532.12,-949.6 528.38,-945.85 528.38,-942.1 528.38,-942.1 528.38,-934.6 528.38,-934.6 528.38,-930.85 532.12,-927.1 535.88,-927.1"/>
<text xml:space="preserve" text-anchor="start" x="531.38" y="-934.3" font-family="Times New Roman,serif" font-weight="bold" font-size="14.00">{ye3}</text>
</g>
<!-- 0xcc73fdd5 -->
<g id="node36" class="node">
<title>0xcc73fdd5</title>
<ellipse fill="white" stroke="black" cx="388.38" cy="-868.35" rx="3.6" ry="3.6"/>
</g>
<!-- 0x55828562&#45;&gt;0xcc73fdd5 -->
<g id="edge27" class="edge">
<title>0x55828562:box&#45;&gt;0xcc73fdd5</title>
<path fill="none" stroke="black" d="M546.38,-926.1C546.38,-895.86 442.56,-877.36 403.23,-871.43"/>
<polygon fill="black" stroke="black" points="403.87,-867.99 393.47,-870.03 402.87,-874.92 403.87,-867.99"/>
<text xml:space="preserve" text-anchor="start" x="532.86" y="-894.8" font-family="Times New Roman,serif" font-size="14.00">o4</text>
</g>
<!-- 0xd3ead654 -->
<g id="node18" class="node">
<title>0xd3ead654</title>
<text xml:space="preserve" text-anchor="start" x="142" y="-488.6" font-family="Times New Roman,serif" font-weight="bold" font-size="14.00">qe20</text>
<path fill="#f8f9fa" stroke="none" d="M148.5,-460.9C148.5,-460.9 356.25,-460.9 356.25,-460.9 360,-460.9 363.75,-464.65 363.75,-468.4 363.75,-468.4 363.75,-475.9 363.75,-475.9 363.75,-479.65 360,-483.4 356.25,-483.4 356.25,-483.4 148.5,-483.4 148.5,-483.4 144.75,-483.4 141,-479.65 141,-475.9 141,-475.9 141,-468.4 141,-468.4 141,-464.65 144.75,-460.9 148.5,-460.9"/>
<path fill="none" stroke="#333333" d="M148.5,-460.9C148.5,-460.9 356.25,-460.9 356.25,-460.9 360,-460.9 363.75,-464.65 363.75,-468.4 363.75,-468.4 363.75,-475.9 363.75,-475.9 363.75,-479.65 360,-483.4 356.25,-483.4 356.25,-483.4 148.5,-483.4 148.5,-483.4 144.75,-483.4 141,-479.65 141,-475.9 141,-475.9 141,-468.4 141,-468.4 141,-464.65 144.75,-460.9 148.5,-460.9"/>
<text xml:space="preserve" text-anchor="start" x="144" y="-468.1" font-family="Times New Roman,serif" font-weight="bold" font-size="14.00">{ye17,ye33,ye42,ye46,ye52,ye55,ye57}</text>
</g>
<!-- 0xf137ef1c -->
<g id="node52" class="node">
<title>0xf137ef1c</title>
<ellipse fill="white" stroke="black" cx="335.38" cy="-402.15" rx="3.6" ry="3.6"/>
</g>
<!-- 0xd3ead654&#45;&gt;0xf137ef1c -->
<g id="edge59" class="edge">
<title>0xd3ead654:box&#45;&gt;0xf137ef1c</title>
<path fill="none" stroke="black" d="M364.75,-472.15C389.68,-472.15 360.88,-433.55 344.78,-414.09"/>
<polygon fill="black" stroke="black" points="347.55,-411.94 338.4,-406.6 342.22,-416.48 347.55,-411.94"/>
<text xml:space="preserve" text-anchor="start" x="365.23" y="-428.6" font-family="Times New Roman,serif" font-size="14.00">o2</text>
</g>
<!-- 0xb295097e -->
<g id="node53" class="node">
<title>0xb295097e</title>
<ellipse fill="white" stroke="black" cx="285.38" cy="-370.65" rx="3.6" ry="3.6"/>
</g>
<!-- 0xd3ead654&#45;&gt;0xb295097e -->
<g id="edge61" class="edge">
<title>0xd3ead654:box&#45;&gt;0xb295097e</title>
<path fill="none" stroke="black" d="M252.38,-459.9C252.38,-431.22 267.85,-400.44 277.61,-383.88"/>
<polygon fill="black" stroke="black" points="280.48,-385.88 282.8,-375.54 274.54,-382.18 280.48,-385.88"/>
<text xml:space="preserve" text-anchor="start" x="258.35" y="-428.6" font-family="Times New Roman,serif" font-size="14.00">o3</text>
</g>
<!-- 0xd00d4115 -->
<g id="node19" class="node">
<title>0xd00d4115</title>
<text xml:space="preserve" text-anchor="start" x="686.75" y="-637.8" font-family="Times New Roman,serif" font-weight="bold" font-size="14.00">qe11</text>
<path fill="#f8f9fa" stroke="none" d="M693.25,-610.1C693.25,-610.1 863.5,-610.1 863.5,-610.1 867.25,-610.1 871,-613.85 871,-617.6 871,-617.6 871,-625.1 871,-625.1 871,-628.85 867.25,-632.6 863.5,-632.6 863.5,-632.6 693.25,-632.6 693.25,-632.6 689.5,-632.6 685.75,-628.85 685.75,-625.1 685.75,-625.1 685.75,-617.6 685.75,-617.6 685.75,-613.85 689.5,-610.1 693.25,-610.1"/>
<path fill="none" stroke="#333333" d="M693.25,-610.1C693.25,-610.1 863.5,-610.1 863.5,-610.1 867.25,-610.1 871,-613.85 871,-617.6 871,-617.6 871,-625.1 871,-625.1 871,-628.85 867.25,-632.6 863.5,-632.6 863.5,-632.6 693.25,-632.6 693.25,-632.6 689.5,-632.6 685.75,-628.85 685.75,-625.1 685.75,-625.1 685.75,-617.6 685.75,-617.6 685.75,-613.85 689.5,-610.1 693.25,-610.1"/>
<text xml:space="preserve" text-anchor="start" x="688.75" y="-617.3" font-family="Times New Roman,serif" font-weight="bold" font-size="14.00">{ye11,ye18,ye36,ye44,ye54,ye7}</text>
</g>
<!-- 0x2d0434bf -->
<g id="node45" class="node">
<title>0x2d0434bf</title>
<ellipse fill="white" stroke="black" cx="783.38" cy="-529.15" rx="3.6" ry="3.6"/>
</g>
<!-- 0xd00d4115&#45;&gt;0x2d0434bf -->
<g id="edge45" class="edge">
<title>0xd00d4115:box&#45;&gt;0x2d0434bf</title>
<path fill="none" stroke="black" d="M778.38,-609.1C778.38,-586.39 780.46,-560.07 781.94,-544.29"/>
<polygon fill="black" stroke="black" points="785.39,-544.96 782.9,-534.66 778.42,-544.27 785.39,-544.96"/>
<text xml:space="preserve" text-anchor="start" x="779.55" y="-577.8" font-family="Times New Roman,serif" font-size="14.00">o2</text>
</g>
<!-- 0x957a6ff9 -->
<g id="node46" class="node">
<title>0x957a6ff9</title>
<ellipse fill="white" stroke="black" cx="847.38" cy="-556" rx="3.6" ry="3.6"/>
</g>
<!-- 0xd00d4115&#45;&gt;0x957a6ff9 -->
<g id="edge47" class="edge">
<title>0xd00d4115:box&#45;&gt;0x957a6ff9</title>
<path fill="none" stroke="black" d="M778.38,-609.1C778.38,-602.08 815.25,-577.48 835.09,-564.75"/>
<polygon fill="black" stroke="black" points="836.9,-567.75 843.48,-559.44 833.16,-561.83 836.9,-567.75"/>
<text xml:space="preserve" text-anchor="start" x="819.06" y="-577.8" font-family="Times New Roman,serif" font-size="14.00">o2</text>
</g>
<!-- 0x36d2dd44 -->
<g id="node20" class="node">
<title>0x36d2dd44</title>
<text xml:space="preserve" text-anchor="start" x="332.38" y="-796.3" font-family="Times New Roman,serif" font-weight="bold" font-size="14.00">qe5</text>
<path fill="#f8f9fa" stroke="none" d="M338.88,-768.6C338.88,-768.6 569.88,-768.6 569.88,-768.6 573.62,-768.6 577.38,-772.35 577.38,-776.1 577.38,-776.1 577.38,-783.6 577.38,-783.6 577.38,-787.35 573.62,-791.1 569.88,-791.1 569.88,-791.1 338.88,-791.1 338.88,-791.1 335.12,-791.1 331.38,-787.35 331.38,-783.6 331.38,-783.6 331.38,-776.1 331.38,-776.1 331.38,-772.35 335.12,-768.6 338.88,-768.6"/>
<path fill="none" stroke="#333333" d="M338.88,-768.6C338.88,-768.6 569.88,-768.6 569.88,-768.6 573.62,-768.6 577.38,-772.35 577.38,-776.1 577.38,-776.1 577.38,-783.6 577.38,-783.6 577.38,-787.35 573.62,-791.1 569.88,-791.1 569.88,-791.1 338.88,-791.1 338.88,-791.1 335.12,-791.1 331.38,-787.35 331.38,-783.6 331.38,-783.6 331.38,-776.1 331.38,-776.1 331.38,-772.35 335.12,-768.6 338.88,-768.6"/>
<text xml:space="preserve" text-anchor="start" x="334.38" y="-775.8" font-family="Times New Roman,serif" font-weight="bold" font-size="14.00">{ye17,ye33,ye42,ye46,ye52,ye55,ye57,ye6}</text>
</g>
<!-- 0xa8b3adf5 -->
<g id="node38" class="node">
<title>0xa8b3adf5</title>
<ellipse fill="white" stroke="black" cx="455.38" cy="-529.15" rx="3.6" ry="3.6"/>
</g>
<!-- 0x36d2dd44&#45;&gt;0xa8b3adf5 -->
<g id="edge31" class="edge">
<title>0x36d2dd44:box&#45;&gt;0xa8b3adf5</title>
<path fill="none" stroke="black" d="M454.38,-767.6C454.38,-742.38 454.38,-736.07 454.38,-710.85 454.38,-710.85 454.38,-710.85 454.38,-581.85 454.38,-569.16 454.68,-554.72 454.95,-544.33"/>
<polygon fill="black" stroke="black" points="458.45,-544.56 455.24,-534.46 451.45,-544.36 458.45,-544.56"/>
<text xml:space="preserve" text-anchor="start" x="454.38" y="-673.3" font-family="Times New Roman,serif" font-size="14.00">o2</text>
</g>
<!-- 0x996d6595 -->
<g id="node39" class="node">
<title>0x996d6595</title>
<ellipse fill="white" stroke="black" cx="397.38" cy="-709.85" rx="3.6" ry="3.6"/>
</g>
<!-- 0x36d2dd44&#45;&gt;0x996d6595 -->
<g id="edge33" class="edge">
<title>0x36d2dd44:box&#45;&gt;0x996d6595</title>
<path fill="none" stroke="black" d="M454.38,-767.6C454.38,-754.09 439.73,-758.84 429.88,-749.6 420.99,-741.27 412.2,-730.6 406,-722.56"/>
<polygon fill="black" stroke="black" points="408.92,-720.62 400.14,-714.69 403.31,-724.8 408.92,-720.62"/>
<text xml:space="preserve" text-anchor="start" x="429.88" y="-736.3" font-family="Times New Roman,serif" font-size="14.00">o3</text>
</g>
<!-- 0x301b6a6e -->
<g id="node21" class="node">
<title>0x301b6a6e</title>
<text xml:space="preserve" text-anchor="start" x="638" y="-796.3" font-family="Times New Roman,serif" font-weight="bold" font-size="14.00">qe7</text>
<path fill="#f8f9fa" stroke="none" d="M644.5,-768.6C644.5,-768.6 672.25,-768.6 672.25,-768.6 676,-768.6 679.75,-772.35 679.75,-776.1 679.75,-776.1 679.75,-783.6 679.75,-783.6 679.75,-787.35 676,-791.1 672.25,-791.1 672.25,-791.1 644.5,-791.1 644.5,-791.1 640.75,-791.1 637,-787.35 637,-783.6 637,-783.6 637,-776.1 637,-776.1 637,-772.35 640.75,-768.6 644.5,-768.6"/>
<path fill="none" stroke="#333333" d="M644.5,-768.6C644.5,-768.6 672.25,-768.6 672.25,-768.6 676,-768.6 679.75,-772.35 679.75,-776.1 679.75,-776.1 679.75,-783.6 679.75,-783.6 679.75,-787.35 676,-791.1 672.25,-791.1 672.25,-791.1 644.5,-791.1 644.5,-791.1 640.75,-791.1 637,-787.35 637,-783.6 637,-783.6 637,-776.1 637,-776.1 637,-772.35 640.75,-768.6 644.5,-768.6"/>
<text xml:space="preserve" text-anchor="start" x="640" y="-775.8" font-family="Times New Roman,serif" font-weight="bold" font-size="14.00">{ye45}</text>
</g>
<!-- 0x1cf46369 -->
<g id="node42" class="node">
<title>0x1cf46369</title>
<ellipse fill="white" stroke="black" cx="656.38" cy="-678.35" rx="3.6" ry="3.6"/>
</g>
<!-- 0x301b6a6e&#45;&gt;0x1cf46369 -->
<g id="edge39" class="edge">
<title>0x301b6a6e:box&#45;&gt;0x1cf46369</title>
<path fill="none" stroke="black" d="M658.38,-767.6C658.38,-741.63 657.5,-711.37 656.91,-693.88"/>
<polygon fill="black" stroke="black" points="660.4,-693.78 656.55,-683.91 653.41,-694.03 660.4,-693.78"/>
<text xml:space="preserve" text-anchor="start" x="658.24" y="-736.3" font-family="Times New Roman,serif" font-size="14.00">o4</text>
</g>
<!-- 0x85a9ffe6 -->
<g id="node22" class="node">
<title>0x85a9ffe6</title>
<text xml:space="preserve" text-anchor="start" x="669.75" y="-954.8" font-family="Times New Roman,serif" font-weight="bold" font-size="14.00">qe1</text>
<path fill="#f8f9fa" stroke="none" d="M676.25,-927.1C676.25,-927.1 780.5,-927.1 780.5,-927.1 784.25,-927.1 788,-930.85 788,-934.6 788,-934.6 788,-942.1 788,-942.1 788,-945.85 784.25,-949.6 780.5,-949.6 780.5,-949.6 676.25,-949.6 676.25,-949.6 672.5,-949.6 668.75,-945.85 668.75,-942.1 668.75,-942.1 668.75,-934.6 668.75,-934.6 668.75,-930.85 672.5,-927.1 676.25,-927.1"/>
<path fill="none" stroke="#333333" d="M676.25,-927.1C676.25,-927.1 780.5,-927.1 780.5,-927.1 784.25,-927.1 788,-930.85 788,-934.6 788,-934.6 788,-942.1 788,-942.1 788,-945.85 784.25,-949.6 780.5,-949.6 780.5,-949.6 676.25,-949.6 676.25,-949.6 672.5,-949.6 668.75,-945.85 668.75,-942.1 668.75,-942.1 668.75,-934.6 668.75,-934.6 668.75,-930.85 672.5,-927.1 676.25,-927.1"/>
<text xml:space="preserve" text-anchor="start" x="671.75" y="-934.3" font-family="Times New Roman,serif" font-weight="bold" font-size="14.00">{ye1,ye19,ye37,ye8}</text>
</g>
<!-- 0x1bb39c34 -->
<g id="node29" class="node">
<title>0x1bb39c34</title>
<ellipse fill="white" stroke="black" cx="789.38" cy="-868.35" rx="3.6" ry="3.6"/>
</g>
<!-- 0x85a9ffe6&#45;&gt;0x1bb39c34 -->
<g id="edge13" class="edge">
<title>0x85a9ffe6:box&#45;&gt;0x1bb39c34</title>
<path fill="none" stroke="black" d="M789,-938.35C802.44,-938.35 788.9,-921.54 788.88,-908.1 788.86,-900.77 788.79,-898.93 788.88,-891.6 788.9,-888.99 788.95,-886.21 789.01,-883.53"/>
<polygon fill="black" stroke="black" points="792.5,-883.83 789.25,-873.74 785.5,-883.65 792.5,-883.83"/>
<text xml:space="preserve" text-anchor="start" x="788.88" y="-894.8" font-family="Times New Roman,serif" font-size="14.00">o2</text>
</g>
<!-- 0xd375ef82 -->
<g id="node30" class="node">
<title>0xd375ef82</title>
<ellipse fill="white" stroke="black" cx="655.38" cy="-868.35" rx="3.6" ry="3.6"/>
</g>
<!-- 0x85a9ffe6&#45;&gt;0xd375ef82 -->
<g id="edge15" class="edge">
<title>0x85a9ffe6:box&#45;&gt;0xd375ef82</title>
<path fill="none" stroke="black" d="M667.75,-938.35C645.6,-938.35 648.69,-903.48 652.33,-883.31"/>
<polygon fill="black" stroke="black" points="655.7,-884.3 654.32,-873.8 648.84,-882.87 655.7,-884.3"/>
<text xml:space="preserve" text-anchor="start" x="651.01" y="-894.8" font-family="Times New Roman,serif" font-size="14.00">o2</text>
</g>
<!-- 0x1e38a1e2 -->
<g id="node31" class="node">
<title>0x1e38a1e2</title>
<ellipse fill="white" stroke="black" cx="703.38" cy="-868.35" rx="3.6" ry="3.6"/>
</g>
<!-- 0x85a9ffe6&#45;&gt;0x1e38a1e2 -->
<g id="edge17" class="edge">
<title>0x85a9ffe6:box&#45;&gt;0x1e38a1e2</title>
<path fill="none" stroke="black" d="M667.75,-938.35C641.69,-938.35 675.28,-899.02 693.31,-879.75"/>
<polygon fill="black" stroke="black" points="695.64,-882.38 700.04,-872.74 690.59,-877.53 695.64,-882.38"/>
<text xml:space="preserve" text-anchor="start" x="682.58" y="-894.8" font-family="Times New Roman,serif" font-size="14.00">o2</text>
</g>
<!-- 0x7764bdbc -->
<g id="node32" class="node">
<title>0x7764bdbc</title>
<ellipse fill="white" stroke="black" cx="608.38" cy="-836.85" rx="3.6" ry="3.6"/>
</g>
<!-- 0x85a9ffe6&#45;&gt;0x7764bdbc -->
<g id="edge19" class="edge">
<title>0x85a9ffe6:box&#45;&gt;0x7764bdbc</title>
<path fill="none" stroke="black" d="M667.75,-938.35C662.62,-938.35 635.75,-912.35 632.88,-908.1 621.01,-890.6 614.3,-866.76 611.01,-851.84"/>
<polygon fill="black" stroke="black" points="614.48,-851.39 609.13,-842.25 607.62,-852.74 614.48,-851.39"/>
<text xml:space="preserve" text-anchor="start" x="632.88" y="-894.8" font-family="Times New Roman,serif" font-size="14.00">o3</text>
</g>
<!-- 0x2db25085 -->
<g id="node33" class="node">
<title>0x2db25085</title>
<ellipse fill="white" stroke="black" cx="848.38" cy="-868.35" rx="3.6" ry="3.6"/>
</g>
<!-- 0x85a9ffe6&#45;&gt;0x2db25085 -->
<g id="edge21" class="edge">
<title>0x85a9ffe6:box&#45;&gt;0x2db25085</title>
<path fill="none" stroke="black" d="M789,-938.35C813.24,-938.35 819.42,-927.18 834.38,-908.1 840.07,-900.83 843.58,-891.04 845.66,-883.12"/>
<polygon fill="black" stroke="black" points="849.04,-884.06 847.68,-873.56 842.19,-882.62 849.04,-884.06"/>
<text xml:space="preserve" text-anchor="start" x="842.77" y="-894.8" font-family="Times New Roman,serif" font-size="14.00">o3</text>
</g>
<!-- 0xfd690923 -->
<g id="node34" class="node">
<title>0xfd690923</title>
<ellipse fill="white" stroke="black" cx="733.38" cy="-868.35" rx="3.6" ry="3.6"/>
</g>
<!-- 0x85a9ffe6&#45;&gt;0xfd690923 -->
<g id="edge23" class="edge">
<title>0x85a9ffe6:box&#45;&gt;0xfd690923</title>
<path fill="none" stroke="black" d="M728.38,-926.1C728.38,-917.73 724.11,-916.37 722.88,-908.1 721.79,-900.85 721.27,-898.76 722.88,-891.6 723.63,-888.24 724.94,-884.8 726.4,-881.65"/>
<polygon fill="black" stroke="black" points="729.32,-883.6 731.03,-873.15 723.17,-880.25 729.32,-883.6"/>
<text xml:space="preserve" text-anchor="start" x="722.88" y="-894.8" font-family="Times New Roman,serif" font-size="14.00">o4</text>
</g>
<!-- 0x3443050d&#45;&gt;0x85a9ffe6 -->
<g id="edge2" class="edge">
<title>0x3443050d&#45;&gt;0x85a9ffe6:box</title>
<path fill="none" stroke="#2563eb" stroke-dasharray="5,2" d="M734.44,-1023.6C740.19,-1017.39 757,-999.66 772.88,-987.1 782.48,-979.5 790.15,-982.86 796,-972.1 805.55,-954.53 810.04,-941.35 796,-927.1 788.01,-918.99 753.29,-913.96 736.95,-918.55"/>
<polygon fill="#2563eb" stroke="#2563eb" points="734.7,-915.86 729.51,-925.1 739.33,-921.12 734.7,-915.86"/>
<text xml:space="preserve" text-anchor="start" x="772.88" y="-990.3" font-family="Times New Roman,serif" font-size="14.00">o4</text>
</g>
<!-- 0xa90515ff&#45;&gt;0x536ae14d -->
<g id="edge4" class="edge">
<title>0xa90515ff&#45;&gt;0x536ae14d:box</title>
<path fill="none" stroke="#2563eb" stroke-dasharray="5,2" d="M877.32,-895.91C877.03,-881.09 875.33,-814.35 868.31,-789.35"/>
<polygon fill="#2563eb" stroke="#2563eb" points="871.44,-787.76 863.18,-781.13 865.51,-791.47 871.44,-787.76"/>
<text xml:space="preserve" text-anchor="start" x="876.73" y="-863.3" font-family="Times New Roman,serif" font-size="14.00">o2</text>
</g>
<!-- 0x5e15a5d6&#45;&gt;0x55828562 -->
<g id="edge6" class="edge">
<title>0x5e15a5d6&#45;&gt;0x55828562:box</title>
<path fill="none" stroke="#2563eb" stroke-dasharray="5,2" d="M595.67,-1022.94C592.8,-1011.14 581.64,-966.57 572.49,-947.31"/>
<polygon fill="#2563eb" stroke="#2563eb" points="575.28,-945.19 566.32,-939.54 569.8,-949.54 575.28,-945.19"/>
<text xml:space="preserve" text-anchor="start" x="590.42" y="-990.3" font-family="Times New Roman,serif" font-size="14.00">empty</text>
</g>
<!-- 0x2ee90ac2&#45;&gt;0x89c13466 -->
<g id="edge8" class="edge">
<title>0x2ee90ac2&#45;&gt;0x89c13466:box</title>
<path fill="none" stroke="#2563eb" stroke-dasharray="5,2" d="M798.37,-991.51C799.78,-987.33 802.32,-979.22 803.38,-972.1 812.75,-908.99 815.67,-891.86 807.38,-828.6 805.14,-811.58 811.85,-792.04 805.06,-783.82"/>
<polygon fill="#2563eb" stroke="#2563eb" points="806.39,-780.58 795.79,-780.38 803.95,-787.14 806.39,-780.58"/>
<text xml:space="preserve" text-anchor="start" x="812.23" y="-894.8" font-family="Times New Roman,serif" font-size="14.00">o3</text>
</g>
<!-- 0x1e75ff8d&#45;&gt;0x36d2dd44 -->
<g id="edge10" class="edge">
<title>0x1e75ff8d&#45;&gt;0x36d2dd44:box</title>
<path fill="none" stroke="#2563eb" stroke-dasharray="5,2" d="M582.1,-896.05C580.29,-891.9 577.06,-883.84 575.88,-876.6 574.74,-869.66 576.4,-845.04 577.38,-813.6 577.63,-805.51 582.26,-796.34 584.12,-789.6"/>
<polygon fill="#2563eb" stroke="#2563eb" points="587.24,-787.99 579.14,-781.15 581.21,-791.55 587.24,-787.99"/>
<text xml:space="preserve" text-anchor="start" x="575.88" y="-863.3" font-family="Times New Roman,serif" font-size="14.00">empty</text>
</g>
<!-- 0x5d14956d&#45;&gt;0xed5f402 -->
<g id="edge12" class="edge">
<title>0x5d14956d&#45;&gt;0xed5f402:box</title>
<path fill="none" stroke="#2563eb" stroke-dasharray="5,2" d="M924.94,-992.15C940.99,-978.18 1027.96,-899.66 1056.38,-813.6 1062.65,-794.61 1070.43,-782.82 1056.38,-768.6 1051.18,-763.34 1002.57,-759.9 980.82,-763.04"/>
<polygon fill="#2563eb" stroke="#2563eb" points="979.52,-759.78 971.76,-766.99 982.33,-766.2 979.52,-759.78"/>
<text xml:space="preserve" text-anchor="start" x="1015.06" y="-894.8" font-family="Times New Roman,serif" font-size="14.00">o3</text>
</g>
<!-- 0x1bb39c34&#45;&gt;0x536ae14d -->
<g id="edge14" class="edge">
<title>0x1bb39c34&#45;&gt;0x536ae14d:box</title>
<path fill="none" stroke="#2563eb" stroke-dasharray="5,2" d="M790.46,-864.44C794.76,-852.87 810.83,-809.85 819.28,-790"/>
<polygon fill="#2563eb" stroke="#2563eb" points="822.34,-791.71 823.7,-781.2 816.08,-788.57 822.34,-791.71"/>
<text xml:space="preserve" text-anchor="start" x="803.88" y="-831.8" font-family="Times New Roman,serif" font-size="14.00">o2</text>
</g>
<!-- 0xd375ef82&#45;&gt;0x301b6a6e -->
<g id="edge16" class="edge">
<title>0xd375ef82&#45;&gt;0x301b6a6e:box</title>
<path fill="none" stroke="#2563eb" stroke-dasharray="5,2" d="M653.71,-864.83C645.68,-852.5 611.94,-798.6 625.33,-783.69"/>
<polygon fill="#2563eb" stroke="#2563eb" points="626.35,-787.04 634.58,-780.36 623.98,-780.45 626.35,-787.04"/>
<text xml:space="preserve" text-anchor="start" x="641.06" y="-831.8" font-family="Times New Roman,serif" font-size="14.00">empty</text>
</g>
<!-- 0x1e38a1e2&#45;&gt;0x89c13466 -->
<g id="edge18" class="edge">
<title>0x1e38a1e2&#45;&gt;0x89c13466:box</title>
<path fill="none" stroke="#2563eb" stroke-dasharray="5,2" d="M703.69,-864.44C705.3,-850.74 713.93,-792.89 745.35,-781.72"/>
<polygon fill="#2563eb" stroke="#2563eb" points="745.61,-785.23 754.88,-780.1 744.44,-778.33 745.61,-785.23"/>
<text xml:space="preserve" text-anchor="start" x="711.12" y="-831.8" font-family="Times New Roman,serif" font-size="14.00">o3</text>
</g>
<!-- 0x7764bdbc&#45;&gt;0x97b2358 -->
<g id="edge20" class="edge">
<title>0x7764bdbc&#45;&gt;0x97b2358</title>
<path fill="none" stroke="#2563eb" stroke-dasharray="5,2" d="M608.32,-832.94C608.11,-821.45 607.38,-778.06 607.38,-742.35 607.38,-742.35 607.38,-742.35 607.38,-247.3 607.38,-234.1 605.27,-219.77 602.75,-207.34"/>
<polygon fill="#2563eb" stroke="#2563eb" points="606.17,-206.61 600.59,-197.6 599.34,-208.12 606.17,-206.61"/>
<text xml:space="preserve" text-anchor="start" x="607.38" y="-524.1" font-family="Times New Roman,serif" font-size="14.00">empty</text>
</g>
<!-- 0x2db25085&#45;&gt;0xed5f402 -->
<g id="edge22" class="edge">
<title>0x2db25085&#45;&gt;0xed5f402:box</title>
<path fill="none" stroke="#2563eb" stroke-dasharray="5,2" d="M849.79,-864.93C854.17,-857.44 867.72,-833.9 877.38,-813.6 881.84,-804.21 879.67,-793 881.8,-786.15"/>
<polygon fill="#2563eb" stroke="#2563eb" points="883.68,-789.1 890.11,-780.68 879.83,-783.26 883.68,-789.1"/>
<text xml:space="preserve" text-anchor="start" x="869.88" y="-831.8" font-family="Times New Roman,serif" font-size="14.00">o3</text>
</g>
<!-- 0xfd690923&#45;&gt;0x85a9ffe6 -->
<g id="edge24" class="edge">
<title>0xfd690923&#45;&gt;0x85a9ffe6:box</title>
<path fill="none" stroke="#2563eb" stroke-dasharray="5,2" d="M733.72,-872.22C734.2,-876.46 735.06,-884.63 735.38,-891.6 735.7,-898.93 736.73,-900.89 735.38,-908.1 734.73,-911.53 733.46,-913.72 732.17,-915.7"/>
<polygon fill="#2563eb" stroke="#2563eb" points="729.03,-914.08 728.89,-924.68 735.61,-916.48 729.03,-914.08"/>
<text xml:space="preserve" text-anchor="start" x="736.06" y="-894.8" font-family="Times New Roman,serif" font-size="14.00">o4</text>
</g>
<!-- 0x4e0fa998&#45;&gt;0xad3adf02 -->
<g id="edge26" class="edge">
<title>0x4e0fa998&#45;&gt;0xad3adf02:box</title>
<path fill="none" stroke="#2563eb" stroke-dasharray="5,2" d="M902.36,-706.69C912.86,-695.11 961.15,-640.41 950.03,-625.25"/>
<polygon fill="#2563eb" stroke="#2563eb" points="951.39,-622.02 940.8,-621.87 948.98,-628.6 951.39,-622.02"/>
<text xml:space="preserve" text-anchor="start" x="932.14" y="-673.3" font-family="Times New Roman,serif" font-size="14.00">o4</text>
</g>
<!-- 0xcc73fdd5&#45;&gt;0x544bc016 -->
<g id="edge28" class="edge">
<title>0xcc73fdd5&#45;&gt;0x544bc016:box</title>
<path fill="none" stroke="#2563eb" stroke-dasharray="5,2" d="M385.31,-866.05C374.09,-861.11 334.97,-842.34 317.38,-813.6 306.77,-796.28 324.9,-781.7 309.38,-768.6 299.01,-759.85 203.95,-753.7 173.04,-761.39"/>
<polygon fill="#2563eb" stroke="#2563eb" points="171.17,-758.43 164.65,-766.78 174.95,-764.32 171.17,-758.43"/>
<text xml:space="preserve" text-anchor="start" x="348.13" y="-831.8" font-family="Times New Roman,serif" font-size="14.00">o4</text>
</g>
<!-- 0xaea846d4&#45;&gt;0xd00d4115 -->
<g id="edge30" class="edge">
<title>0xaea846d4&#45;&gt;0xd00d4115:box</title>
<path fill="none" stroke="#2563eb" stroke-dasharray="5,2" d="M780.1,-708.28C795.68,-705.67 855.88,-693.3 879,-655.1 884.18,-646.54 886.04,-617.21 879,-610.1 872.73,-603.77 812.56,-599.79 788.37,-604.1"/>
<polygon fill="#2563eb" stroke="#2563eb" points="787.1,-600.82 779.73,-608.42 790.24,-607.07 787.1,-600.82"/>
<text xml:space="preserve" text-anchor="start" x="866" y="-673.3" font-family="Times New Roman,serif" font-size="14.00">o4</text>
</g>
<!-- 0xa8b3adf5&#45;&gt;0xa7910a56 -->
<g id="edge32" class="edge">
<title>0xa8b3adf5&#45;&gt;0xa7910a56:box</title>
<path fill="none" stroke="#2563eb" stroke-dasharray="5,2" d="M457.49,-525.8C476.76,-504.23 620.63,-340.57 582.75,-302.4 574.04,-293.62 487.6,-288.46 458.15,-295.42"/>
<polygon fill="#2563eb" stroke="#2563eb" points="456.37,-292.41 449.67,-300.61 460.02,-298.38 456.37,-292.41"/>
<text xml:space="preserve" text-anchor="start" x="537.95" y="-428.6" font-family="Times New Roman,serif" font-size="14.00">empty</text>
</g>
<!-- 0x996d6595&#45;&gt;0x13ffcef6 -->
<g id="edge34" class="edge">
<title>0x996d6595&#45;&gt;0x13ffcef6:box</title>
<path fill="none" stroke="#2563eb" stroke-dasharray="5,2" d="M395.55,-706.69C384.59,-693.95 325.83,-629.04 261.05,-621.97"/>
<polygon fill="#2563eb" stroke="#2563eb" points="261.44,-618.49 251.26,-621.43 261.05,-625.48 261.44,-618.49"/>
<text xml:space="preserve" text-anchor="start" x="375.24" y="-673.3" font-family="Times New Roman,serif" font-size="14.00">empty</text>
</g>
<!-- 0x501d7ed2&#45;&gt;0x6ec947ee -->
<g id="edge36" class="edge">
<title>0x501d7ed2&#45;&gt;0x6ec947ee</title>
<path fill="none" stroke="#2563eb" stroke-dasharray="5,2" d="M1006.2,-430.38C996.69,-420.43 957.95,-379.92 931.1,-351.85"/>
<polygon fill="#2563eb" stroke="#2563eb" points="933.68,-349.48 924.24,-344.67 928.62,-354.32 933.68,-349.48"/>
<text xml:space="preserve" text-anchor="start" x="985.91" y="-397.1" font-family="Times New Roman,serif" font-size="14.00">o2</text>
</g>
<!-- 0x4603c1aa&#45;&gt;0xb843d79c -->
<g id="edge38" class="edge">
<title>0x4603c1aa&#45;&gt;0xb843d79c:box</title>
<path fill="none" stroke="#2563eb" stroke-dasharray="5,2" d="M969.26,-674.48C968.82,-662.33 967.46,-613.97 971.88,-574.6 975.35,-543.64 982.19,-536.85 985.75,-505.9 986.69,-497.75 991.39,-488.42 993,-481.64"/>
<polygon fill="#2563eb" stroke="#2563eb" points="996.01,-479.84 987.58,-473.41 990.16,-483.69 996.01,-479.84"/>
<text xml:space="preserve" text-anchor="start" x="971.88" y="-577.8" font-family="Times New Roman,serif" font-size="14.00">empty</text>
</g>
<!-- 0x1cf46369&#45;&gt;0x97b2358 -->
<g id="edge40" class="edge">
<title>0x1cf46369&#45;&gt;0x97b2358</title>
<path fill="none" stroke="#2563eb" stroke-dasharray="5,2" d="M656.32,-674.44C656.11,-662.95 655.38,-619.56 655.38,-583.85 655.38,-583.85 655.38,-583.85 655.38,-247.3 655.38,-228.08 642.68,-211.29 628.88,-198.71"/>
<polygon fill="#2563eb" stroke="#2563eb" points="631.31,-196.18 621.4,-192.41 626.8,-201.53 631.31,-196.18"/>
<text xml:space="preserve" text-anchor="start" x="655.38" y="-428.6" font-family="Times New Roman,serif" font-size="14.00">o4</text>
</g>
<!-- 0xe268fe91&#45;&gt;0xa7910a56 -->
<g id="edge42" class="edge">
<title>0xe268fe91&#45;&gt;0xa7910a56:box</title>
<path fill="none" stroke="#2563eb" stroke-dasharray="5,2" d="M356.39,-580.36C366.63,-575.07 399.38,-556.1 399.38,-530.15 399.38,-530.15 399.38,-530.15 399.38,-401.15 399.38,-358.69 557.29,-381.39 582.75,-347.4 594.74,-331.39 596.84,-316.59 582.75,-302.4 574.04,-293.62 487.6,-288.46 458.15,-295.42"/>
<polygon fill="#2563eb" stroke="#2563eb" points="456.37,-292.41 449.67,-300.61 460.02,-298.38 456.37,-292.41"/>
<text xml:space="preserve" text-anchor="start" x="399.38" y="-476.35" font-family="Times New Roman,serif" font-size="14.00">empty</text>
</g>
<!-- 0x688a513e&#45;&gt;0x13ffcef6 -->
<g id="edge44" class="edge">
<title>0x688a513e&#45;&gt;0x13ffcef6:box</title>
<path fill="none" stroke="#2563eb" stroke-dasharray="5,2" d="M168.52,-706.33C159.56,-694 121.76,-640.1 134.4,-625.19"/>
<polygon fill="#2563eb" stroke="#2563eb" points="135.37,-628.56 143.58,-621.87 132.98,-621.98 135.37,-628.56"/>
<text xml:space="preserve" text-anchor="start" x="154.3" y="-673.3" font-family="Times New Roman,serif" font-size="14.00">empty</text>
</g>
<!-- 0x2d0434bf&#45;&gt;0x6ec947ee -->
<g id="edge46" class="edge">
<title>0x2d0434bf&#45;&gt;0x6ec947ee</title>
<path fill="none" stroke="#2563eb" stroke-dasharray="5,2" d="M784.06,-525.31C786.48,-515.47 795.27,-482 808.38,-456.9 828.42,-418.52 858.53,-378.8 879.67,-352.88"/>
<polygon fill="#2563eb" stroke="#2563eb" points="882.11,-355.42 885.78,-345.48 876.71,-350.97 882.11,-355.42"/>
<text xml:space="preserve" text-anchor="start" x="825.73" y="-428.6" font-family="Times New Roman,serif" font-size="14.00">o2</text>
</g>
<!-- 0x957a6ff9&#45;&gt;0xb843d79c -->
<g id="edge48" class="edge">
<title>0x957a6ff9&#45;&gt;0xb843d79c:box</title>
<path fill="none" stroke="#2563eb" stroke-dasharray="5,2" d="M850.21,-553.48C860.08,-548.22 894.02,-530.64 923.88,-520.9 954.07,-511.05 973.79,-530.6 993.75,-505.9 1006.32,-490.34 1007.81,-475.12 993.75,-460.9 988.29,-455.38 936.81,-451.81 914.55,-455.25"/>
<polygon fill="#2563eb" stroke="#2563eb" points="913.39,-451.93 905.75,-459.27 916.3,-458.3 913.39,-451.93"/>
<text xml:space="preserve" text-anchor="start" x="923.88" y="-524.1" font-family="Times New Roman,serif" font-size="14.00">empty</text>
</g>
<!-- 0xb714ffd7&#45;&gt;0x97b2358 -->
<g id="edge50" class="edge">
<title>0xb714ffd7&#45;&gt;0x97b2358</title>
<path fill="none" stroke="#2563eb" stroke-dasharray="5,2" d="M501.72,-245.51C510.05,-239.14 538.9,-217.1 562.22,-199.28"/>
<polygon fill="#2563eb" stroke="#2563eb" points="564.13,-202.22 569.95,-193.37 559.88,-196.66 564.13,-202.22"/>
<text xml:space="preserve" text-anchor="start" x="541.19" y="-216.4" font-family="Times New Roman,serif" font-size="14.00">o4</text>
</g>
<!-- 0xd0e476d5&#45;&gt;0x11bdd5d3 -->
<g id="edge52" class="edge">
<title>0xd0e476d5&#45;&gt;0x11bdd5d3:box</title>
<path fill="none" stroke="#2563eb" stroke-dasharray="5,2" d="M104.5,-552.41C107.55,-545.2 115.94,-524.27 118.75,-505.9 121.77,-486.13 132.77,-475.16 118.75,-460.9 111.96,-453.99 83.12,-449.57 68.28,-452.94"/>
<polygon fill="#2563eb" stroke="#2563eb" points="66.29,-450.05 60.57,-458.97 70.6,-455.57 66.29,-450.05"/>
<text xml:space="preserve" text-anchor="start" x="115.21" y="-524.1" font-family="Times New Roman,serif" font-size="14.00">empty</text>
</g>
<!-- 0x2102649f&#45;&gt;0xd3ead654 -->
<g id="edge54" class="edge">
<title>0x2102649f&#45;&gt;0xd3ead654:box</title>
<path fill="none" stroke="#2563eb" stroke-dasharray="5,2" d="M251.95,-554.15C270.66,-549.6 357,-527.65 371.75,-505.9 382.98,-489.35 385.83,-475.1 371.75,-460.9 364.12,-453.21 289.38,-448.57 262.2,-454.34"/>
<polygon fill="#2563eb" stroke="#2563eb" points="260.67,-451.18 253.69,-459.15 264.12,-457.28 260.67,-451.18"/>
<text xml:space="preserve" text-anchor="start" x="350.28" y="-524.1" font-family="Times New Roman,serif" font-size="14.00">empty</text>
</g>
<!-- 0xa5fd7c74&#45;&gt;0x6ec947ee -->
<g id="edge56" class="edge">
<title>0xa5fd7c74&#45;&gt;0x6ec947ee</title>
<path fill="none" stroke="#2563eb" stroke-dasharray="5,2" d="M904.38,-398.22C904.38,-391.23 904.38,-372.94 904.38,-356.26"/>
<polygon fill="#2563eb" stroke="#2563eb" points="907.88,-356.64 904.38,-346.64 900.88,-356.64 907.88,-356.64"/>
<text xml:space="preserve" text-anchor="start" x="904.38" y="-365.6" font-family="Times New Roman,serif" font-size="14.00">o4</text>
</g>
<!-- 0xc621d7cd&#45;&gt;0x6bc16e7b -->
<g id="edge58" class="edge">
<title>0xc621d7cd&#45;&gt;0x6bc16e7b:box</title>
<path fill="none" stroke="#2563eb" stroke-dasharray="5,2" d="M596.58,-95.71C607.02,-84.25 650.72,-34.85 642.32,-19.69"/>
<polygon fill="#2563eb" stroke="#2563eb" points="643.72,-16.48 633.15,-15.84 641.01,-22.94 643.72,-16.48"/>
<text xml:space="preserve" text-anchor="start" x="622.85" y="-67.2" font-family="Times New Roman,serif" font-size="14.00">empty</text>
</g>
<!-- 0xf137ef1c&#45;&gt;0xa7910a56 -->
<g id="edge60" class="edge">
<title>0xf137ef1c&#45;&gt;0xa7910a56:box</title>
<path fill="none" stroke="#2563eb" stroke-dasharray="5,2" d="M333.86,-398.63C326.6,-386.3 296.17,-332.4 310.23,-317.49"/>
<polygon fill="#2563eb" stroke="#2563eb" points="311.33,-320.81 319.57,-314.16 308.98,-314.22 311.33,-320.81"/>
<text xml:space="preserve" text-anchor="start" x="322.5" y="-365.6" font-family="Times New Roman,serif" font-size="14.00">empty</text>
</g>
<!-- 0xb295097e&#45;&gt;0x97b2358 -->
<g id="edge62" class="edge">
<title>0xb295097e&#45;&gt;0x97b2358</title>
<path fill="none" stroke="#2563eb" stroke-dasharray="5,2" d="M285.44,-366.79C285.82,-356.3 288.52,-319.4 307.38,-298.4 369.78,-228.9 478.05,-196.93 542.27,-183.45"/>
<polygon fill="#2563eb" stroke="#2563eb" points="542.75,-186.92 551.86,-181.51 541.37,-180.06 542.75,-186.92"/>
<text xml:space="preserve" text-anchor="start" x="340.98" y="-270.1" font-family="Times New Roman,serif" font-size="14.00">empty</text>
</g>
<!-- 0xc5c28da5&#45;&gt;0xd942d98f -->
<g id="edge64" class="edge">
<title>0xc5c28da5&#45;&gt;0xd942d98f:box</title>
<path fill="none" stroke="#2563eb" stroke-dasharray="5,2" d="M882.82,-244.32C882.2,-240.84 881.24,-234.87 880.88,-229.7 880.36,-222.38 878.94,-220.27 880.88,-213.2 882.92,-205.73 887.59,-205.64 889.75,-198.2 892.13,-189.98 897,-180.16 897.97,-173.24"/>
<polygon fill="#2563eb" stroke="#2563eb" points="900.76,-171.13 891.71,-165.62 895.35,-175.57 900.76,-171.13"/>
<text xml:space="preserve" text-anchor="start" x="880.88" y="-216.4" font-family="Times New Roman,serif" font-size="14.00">empty</text>
</g>
<!-- 0xfcc534c0&#45;&gt;0xf1a383ed -->
<g id="edge66" class="edge">
<title>0xfcc534c0&#45;&gt;0xf1a383ed:box</title>
<path fill="none" stroke="#2563eb" stroke-dasharray="5,2" d="M923.61,-244.54C920.59,-233.54 909.86,-192.43 912.37,-173.77"/>
<polygon fill="#2563eb" stroke="#2563eb" points="915.18,-175.86 918.12,-165.68 909.48,-171.81 915.18,-175.86"/>
<text xml:space="preserve" text-anchor="start" x="919.73" y="-216.4" font-family="Times New Roman,serif" font-size="14.00">o2</text>
</g>
<!-- 0xfb9e3fd4&#45;&gt;0xc882830a -->
<g id="edge68" class="edge">
<title>0xfb9e3fd4&#45;&gt;0xc882830a</title>
<path fill="none" stroke="#2563eb" stroke-dasharray="5,2" d="M872.17,-95.34C874.01,-89.01 878.7,-72.78 883.1,-57.56"/>
<polygon fill="#2563eb" stroke="#2563eb" points="886.37,-58.85 885.79,-48.27 879.65,-56.9 886.37,-58.85"/>
<text xml:space="preserve" text-anchor="start" x="880.62" y="-67.2" font-family="Times New Roman,serif" font-size="14.00">o4</text>
</g>
<!-- 0x76c4cdf5&#45;&gt;0xc882830a -->
<g id="edge70" class="edge">
<title>0x76c4cdf5&#45;&gt;0xc882830a</title>
<path fill="none" stroke="#2563eb" stroke-dasharray="5,2" d="M928.93,-95.34C925.55,-88.88 916.79,-72.15 908.69,-56.68"/>
<polygon fill="#2563eb" stroke="#2563eb" points="911.97,-55.39 904.23,-48.16 905.77,-58.64 911.97,-55.39"/>
<text xml:space="preserve" text-anchor="start" x="920.18" y="-67.2" font-family="Times New Roman,serif" font-size="14.00">o4</text>
</g>
</g>
</svg>
