<?xml version="1.0" encoding="UTF-8" standalone="no"?>
<!DOCTYPE svg PUBLIC "-//W3C//DTD SVG 1.1//EN"
 "http://www.w3.org/Graphics/SVG/1.1/DTD/svg11.dtd">
<!-- Generated by graphviz version 14.1.1 (20251213.1925)
 -->
<!-- Pages: 1 -->
<svg width="1048pt" height="776pt"
 viewBox="0.00 0.00 1048.00 776.00" xmlns="http://www.w3.org/2000/svg" xmlns:xlink="http://www.w3.org/1999/xlink">
<g id="graph0" class="graph" transform="scale(1 1) rotate(0) translate(4 771.73)">
<polygon fill="white" stroke="none" points="-4,4 -4,-771.73 1044.25,-771.73 1044.25,4 -4,4"/>
<!-- 0x46ac07f4 -->
<g id="node1" class="node">
<title>0x46ac07f4</title>
<path fill="#f8f9fa" stroke="none" d="M692.75,-710.04C692.75,-710.04 749.75,-710.04 749.75,-710.04 753.5,-710.04 757.25,-713.79 757.25,-717.54 757.25,-717.54 757.25,-725.04 757.25,-725.04 757.25,-728.79 753.5,-732.54 749.75,-732.54 749.75,-732.54 692.75,-732.54 692.75,-732.54 689,-732.54 685.25,-728.79 685.25,-725.04 685.25,-725.04 685.25,-717.54 685.25,-717.54 685.25,-713.79 689,-710.04 692.75,-710.04"/>
<path fill="none" stroke="#333333" d="M692.75,-710.04C692.75,-710.04 749.75,-710.04 749.75,-710.04 753.5,-710.04 757.25,-713.79 757.25,-717.54 757.25,-717.54 757.25,-725.04 757.25,-725.04 757.25,-728.79 753.5,-732.54 749.75,-732.54 749.75,-732.54 692.75,-732.54 692.75,-732.54 689,-732.54 685.25,-728.79 685.25,-725.04 685.25,-725.04 685.25,-717.54 685.25,-717.54 685.25,-713.79 689,-710.04 692.75,-710.04"/>
<text xml:space="preserve" text-anchor="start" x="688.25" y="-717.24" font-family="Times New Roman,serif" font-weight="bold" font-size="14.00">S1, A7, 0, 0</text>
<text xml:space="preserve" text-anchor="middle" x="675.5" y="-742.49" font-family="Times New Roman,serif" font-size="14.00">ye0</text>
</g>
<!-- 0xc57f2dae -->
<g id="node3" class="node">
<title>0xc57f2dae</title>
<ellipse fill="white" stroke="black" stroke-width="0.7" cx="681.25" cy="-664.66" rx="2.88" ry="2.88"/>
</g>
<!-- 0x46ac07f4&#45;&gt;0xc57f2dae -->
<g id="edge1" class="edge">
<title>0x46ac07f4:m&#45;&gt;0xc57f2dae</title>
<path fill="none" stroke="#444444" d="M713.91,-710.27C705.62,-698.94 692.38,-680.87 685.59,-671.59"/>
<polygon fill="#444444" stroke="#444444" points="686.8,-670.88 683.31,-668.48 684.55,-672.53 686.8,-670.88"/>
<text xml:space="preserve" text-anchor="middle" x="701.25" y="-682.69" font-family="Times New Roman,serif" font-size="8.00"> o1 </text>
</g>
<!-- 0xf30c09ff -->
<g id="node7" class="node">
<title>0xf30c09ff</title>
<ellipse fill="white" stroke="black" stroke-width="0.7" cx="815.25" cy="-664.66" rx="2.88" ry="2.88"/>
</g>
<!-- 0x46ac07f4&#45;&gt;0xf30c09ff -->
<g id="edge3" class="edge">
<title>0x46ac07f4:m&#45;&gt;0xf30c09ff</title>
<path fill="none" stroke="#444444" d="M738.49,-710.27C759.45,-698.09 793.83,-678.11 808.39,-669.65"/>
<polygon fill="#444444" stroke="#444444" points="809,-670.91 811.76,-667.69 807.59,-668.49 809,-670.91"/>
<text xml:space="preserve" text-anchor="middle" x="793.47" y="-682.69" font-family="Times New Roman,serif" font-size="8.00"> o2 </text>
</g>
<!-- 0x41f34c2f -->
<g id="node11" class="node">
<title>0x41f34c2f</title>
<ellipse fill="white" stroke="black" stroke-width="0.7" cx="745.25" cy="-438.14" rx="2.88" ry="2.88"/>
</g>
<!-- 0x46ac07f4&#45;&gt;0x41f34c2f -->
<g id="edge7" class="edge">
<title>0x46ac07f4:m&#45;&gt;0x41f34c2f</title>
<path fill="none" stroke="#444444" d="M722.11,-710.21C724.86,-674.9 733.25,-567.28 733.25,-567.28 733.25,-567.28 741.77,-475.61 744.45,-446.74"/>
<polygon fill="#444444" stroke="#444444" points="745.84,-446.95 744.81,-442.84 743.05,-446.69 745.84,-446.95"/>
<text xml:space="preserve" text-anchor="middle" x="727.25" y="-569.43" font-family="Times New Roman,serif" font-size="8.00"> o3 </text>
</g>
<!-- 0x8e7109f3 -->
<g id="node2" class="node">
<title>0x8e7109f3</title>
<path fill="#f8f9fa" stroke="none" d="M626.75,-596.78C626.75,-596.78 683.75,-596.78 683.75,-596.78 687.5,-596.78 691.25,-600.53 691.25,-604.28 691.25,-604.28 691.25,-611.78 691.25,-611.78 691.25,-615.53 687.5,-619.28 683.75,-619.28 683.75,-619.28 626.75,-619.28 626.75,-619.28 623,-619.28 619.25,-615.53 619.25,-611.78 619.25,-611.78 619.25,-604.28 619.25,-604.28 619.25,-600.53 623,-596.78 626.75,-596.78"/>
<path fill="none" stroke="#333333" d="M626.75,-596.78C626.75,-596.78 683.75,-596.78 683.75,-596.78 687.5,-596.78 691.25,-600.53 691.25,-604.28 691.25,-604.28 691.25,-611.78 691.25,-611.78 691.25,-615.53 687.5,-619.28 683.75,-619.28 683.75,-619.28 626.75,-619.28 626.75,-619.28 623,-619.28 619.25,-615.53 619.25,-611.78 619.25,-611.78 619.25,-604.28 619.25,-604.28 619.25,-600.53 623,-596.78 626.75,-596.78"/>
<text xml:space="preserve" text-anchor="start" x="622.25" y="-603.98" font-family="Times New Roman,serif" font-weight="bold" font-size="14.00">S2, A7, 1, 0</text>
<text xml:space="preserve" text-anchor="middle" x="609.5" y="-629.23" font-family="Times New Roman,serif" font-size="14.00">ye1</text>
</g>
<!-- 0x1b1731a5 -->
<g id="node13" class="node">
<title>0x1b1731a5</title>
<ellipse fill="white" stroke="black" stroke-width="0.7" cx="646.25" cy="-551.4" rx="2.88" ry="2.88"/>
</g>
<!-- 0x8e7109f3&#45;&gt;0x1b1731a5 -->
<g id="edge11" class="edge">
<title>0x8e7109f3:m&#45;&gt;0x1b1731a5</title>
<path fill="none" stroke="#444444" d="M653.6,-597.01C651.82,-586.2 649.03,-569.24 647.44,-559.65"/>
<polygon fill="#444444" stroke="#444444" points="648.85,-559.56 646.82,-555.85 646.09,-560.02 648.85,-559.56"/>
<text xml:space="preserve" text-anchor="middle" x="658.09" y="-569.43" font-family="Times New Roman,serif" font-size="8.00"> uo2 </text>
</g>
<!-- 0xc57f2dae&#45;&gt;0x8e7109f3 -->
<g id="edge2" class="edge">
<title>0xc57f2dae&#45;&gt;0x8e7109f3:m</title>
<path fill="none" stroke="#444444" stroke-dasharray="5,2" d="M680.38,-661.84C677.59,-655.97 668.62,-637.12 662.19,-623.61"/>
<polygon fill="#444444" stroke="#444444" points="663.59,-623.29 660.61,-620.28 661.06,-624.5 663.59,-623.29"/>
<text xml:space="preserve" text-anchor="middle" x="679.57" y="-641.18" font-family="Times New Roman,serif" font-size="8.00"> o1 </text>
</g>
<!-- 0x640c8300 -->
<g id="node4" class="node">
<title>0x640c8300</title>
<path fill="#f8f9fa" stroke="none" d="M756.75,-596.78C756.75,-596.78 813.75,-596.78 813.75,-596.78 817.5,-596.78 821.25,-600.53 821.25,-604.28 821.25,-604.28 821.25,-611.78 821.25,-611.78 821.25,-615.53 817.5,-619.28 813.75,-619.28 813.75,-619.28 756.75,-619.28 756.75,-619.28 753,-619.28 749.25,-615.53 749.25,-611.78 749.25,-611.78 749.25,-604.28 749.25,-604.28 749.25,-600.53 753,-596.78 756.75,-596.78"/>
<path fill="none" stroke="#333333" d="M756.75,-596.78C756.75,-596.78 813.75,-596.78 813.75,-596.78 817.5,-596.78 821.25,-600.53 821.25,-604.28 821.25,-604.28 821.25,-611.78 821.25,-611.78 821.25,-615.53 817.5,-619.28 813.75,-619.28 813.75,-619.28 756.75,-619.28 756.75,-619.28 753,-619.28 749.25,-615.53 749.25,-611.78 749.25,-611.78 749.25,-604.28 749.25,-604.28 749.25,-600.53 753,-596.78 756.75,-596.78"/>
<text xml:space="preserve" text-anchor="start" x="752.25" y="-603.98" font-family="Times New Roman,serif" font-weight="bold" font-size="14.00">S1, A0, 3, 0</text>
<text xml:space="preserve" text-anchor="middle" x="739.5" y="-629.23" font-family="Times New Roman,serif" font-size="14.00">ye2</text>
</g>
<!-- 0x8ecdcac0 -->
<g id="node15" class="node">
<title>0x8ecdcac0</title>
<ellipse fill="white" stroke="black" stroke-width="0.7" cx="785.25" cy="-551.4" rx="2.88" ry="2.88"/>
</g>
<!-- 0x640c8300&#45;&gt;0x8ecdcac0 -->
<g id="edge13" class="edge">
<title>0x640c8300:m&#45;&gt;0x8ecdcac0</title>
<path fill="none" stroke="#444444" d="M785.25,-597.01C785.25,-586.2 785.25,-569.24 785.25,-559.65"/>
<polygon fill="#444444" stroke="#444444" points="786.65,-559.87 785.25,-555.87 783.85,-559.87 786.65,-559.87"/>
<text xml:space="preserve" text-anchor="middle" x="791.25" y="-569.43" font-family="Times New Roman,serif" font-size="8.00"> o4 </text>
</g>
<!-- 0x18921e5b -->
<g id="node5" class="node">
<title>0x18921e5b</title>
<path fill="#f8f9fa" stroke="none" d="M846.75,-596.78C846.75,-596.78 903.75,-596.78 903.75,-596.78 907.5,-596.78 911.25,-600.53 911.25,-604.28 911.25,-604.28 911.25,-611.78 911.25,-611.78 911.25,-615.53 907.5,-619.28 903.75,-619.28 903.75,-619.28 846.75,-619.28 846.75,-619.28 843,-619.28 839.25,-615.53 839.25,-611.78 839.25,-611.78 839.25,-604.28 839.25,-604.28 839.25,-600.53 843,-596.78 846.75,-596.78"/>
<path fill="none" stroke="#333333" d="M846.75,-596.78C846.75,-596.78 903.75,-596.78 903.75,-596.78 907.5,-596.78 911.25,-600.53 911.25,-604.28 911.25,-604.28 911.25,-611.78 911.25,-611.78 911.25,-615.53 907.5,-619.28 903.75,-619.28 903.75,-619.28 846.75,-619.28 846.75,-619.28 843,-619.28 839.25,-615.53 839.25,-611.78 839.25,-611.78 839.25,-604.28 839.25,-604.28 839.25,-600.53 843,-596.78 846.75,-596.78"/>
<text xml:space="preserve" text-anchor="start" x="842.25" y="-603.98" font-family="Times New Roman,serif" font-weight="bold" font-size="14.00">S7, A0, 3, 1</text>
<text xml:space="preserve" text-anchor="middle" x="829.5" y="-629.23" font-family="Times New Roman,serif" font-size="14.00">ye3</text>
</g>
<!-- 0x8430d341 -->
<g id="node17" class="node">
<title>0x8430d341</title>
<ellipse fill="white" stroke="black" stroke-width="0.7" cx="875.25" cy="-551.4" rx="2.88" ry="2.88"/>
</g>
<!-- 0x18921e5b&#45;&gt;0x8430d341 -->
<g id="edge15" class="edge">
<title>0x18921e5b:m&#45;&gt;0x8430d341</title>
<path fill="none" stroke="#444444" d="M875.25,-597.01C875.25,-586.2 875.25,-569.24 875.25,-559.65"/>
<polygon fill="#444444" stroke="#444444" points="876.65,-559.87 875.25,-555.87 873.85,-559.87 876.65,-559.87"/>
<text xml:space="preserve" text-anchor="middle" x="881.25" y="-569.43" font-family="Times New Roman,serif" font-size="8.00"> o4 </text>
</g>
<!-- 0x14432f18 -->
<g id="node6" class="node">
<title>0x14432f18</title>
<path fill="#f8f9fa" stroke="none" d="M936.75,-596.78C936.75,-596.78 993.75,-596.78 993.75,-596.78 997.5,-596.78 1001.25,-600.53 1001.25,-604.28 1001.25,-604.28 1001.25,-611.78 1001.25,-611.78 1001.25,-615.53 997.5,-619.28 993.75,-619.28 993.75,-619.28 936.75,-619.28 936.75,-619.28 933,-619.28 929.25,-615.53 929.25,-611.78 929.25,-611.78 929.25,-604.28 929.25,-604.28 929.25,-600.53 933,-596.78 936.75,-596.78"/>
<path fill="none" stroke="#333333" d="M936.75,-596.78C936.75,-596.78 993.75,-596.78 993.75,-596.78 997.5,-596.78 1001.25,-600.53 1001.25,-604.28 1001.25,-604.28 1001.25,-611.78 1001.25,-611.78 1001.25,-615.53 997.5,-619.28 993.75,-619.28 993.75,-619.28 936.75,-619.28 936.75,-619.28 933,-619.28 929.25,-615.53 929.25,-611.78 929.25,-611.78 929.25,-604.28 929.25,-604.28 929.25,-600.53 933,-596.78 936.75,-596.78"/>
<text xml:space="preserve" text-anchor="start" x="932.25" y="-603.98" font-family="Times New Roman,serif" font-weight="bold" font-size="14.00">S8, A0, 3, 2</text>
<text xml:space="preserve" text-anchor="middle" x="919.5" y="-629.23" font-family="Times New Roman,serif" font-size="14.00">ye4</text>
</g>
<!-- 0x3fb1fc98 -->
<g id="node19" class="node">
<title>0x3fb1fc98</title>
<ellipse fill="white" stroke="black" stroke-width="0.7" cx="965.25" cy="-551.4" rx="2.88" ry="2.88"/>
</g>
<!-- 0x14432f18&#45;&gt;0x3fb1fc98 -->
<g id="edge17" class="edge">
<title>0x14432f18:m&#45;&gt;0x3fb1fc98</title>
<path fill="none" stroke="#444444" d="M965.25,-597.01C965.25,-586.2 965.25,-569.24 965.25,-559.65"/>
<polygon fill="#444444" stroke="#444444" points="966.65,-559.87 965.25,-555.87 963.85,-559.87 966.65,-559.87"/>
<text xml:space="preserve" text-anchor="middle" x="971.25" y="-569.43" font-family="Times New Roman,serif" font-size="8.00"> o4 </text>
</g>
<!-- 0xf30c09ff&#45;&gt;0x640c8300 -->
<g id="edge4" class="edge">
<title>0xf30c09ff&#45;&gt;0x640c8300:m</title>
<path fill="none" stroke="#444444" stroke-dasharray="5,2" d="M814.25,-661.84C811.03,-655.97 800.68,-637.12 793.26,-623.61"/>
<polygon fill="#444444" stroke="#444444" points="794.56,-623.07 791.41,-620.24 792.11,-624.42 794.56,-623.07"/>
<text xml:space="preserve" text-anchor="middle" x="810.14" y="-641.18" font-family="Times New Roman,serif" font-size="8.00"> ε </text>
</g>
<!-- 0xf30c09ff&#45;&gt;0x18921e5b -->
<g id="edge5" class="edge">
<title>0xf30c09ff&#45;&gt;0x18921e5b:m</title>
<path fill="none" stroke="#444444" stroke-dasharray="5,2" d="M816.98,-662.08C823.23,-656.39 845.08,-636.5 860.16,-622.77"/>
<polygon fill="#444444" stroke="#444444" points="861.09,-623.82 863.1,-620.09 859.2,-621.75 861.09,-623.82"/>
<text xml:space="preserve" text-anchor="middle" x="847.66" y="-641.18" font-family="Times New Roman,serif" font-size="8.00"> o3 </text>
</g>
<!-- 0xf30c09ff&#45;&gt;0x14432f18 -->
<g id="edge6" class="edge">
<title>0xf30c09ff&#45;&gt;0x14432f18:m</title>
<path fill="none" stroke="#444444" stroke-dasharray="5,2" d="M817.37,-662.89C829.69,-658.4 892.87,-635.39 932.56,-620.94"/>
<polygon fill="#444444" stroke="#444444" points="932.58,-622.42 935.86,-619.74 931.62,-619.79 932.58,-622.42"/>
<text xml:space="preserve" text-anchor="middle" x="889.11" y="-641.18" font-family="Times New Roman,serif" font-size="8.00"> o2 </text>
</g>
<!-- 0xc6588f2d -->
<g id="node8" class="node">
<title>0xc6588f2d</title>
<path fill="#f8f9fa" stroke="none" d="M704.75,-367.63C704.75,-367.63 761.75,-367.63 761.75,-367.63 765.5,-367.63 769.25,-371.38 769.25,-375.13 769.25,-375.13 769.25,-382.63 769.25,-382.63 769.25,-386.38 765.5,-390.13 761.75,-390.13 761.75,-390.13 704.75,-390.13 704.75,-390.13 701,-390.13 697.25,-386.38 697.25,-382.63 697.25,-382.63 697.25,-375.13 697.25,-375.13 697.25,-371.38 701,-367.63 704.75,-367.63"/>
<path fill="none" stroke="#333333" d="M704.75,-367.63C704.75,-367.63 761.75,-367.63 761.75,-367.63 765.5,-367.63 769.25,-371.38 769.25,-375.13 769.25,-375.13 769.25,-382.63 769.25,-382.63 769.25,-386.38 765.5,-390.13 761.75,-390.13 761.75,-390.13 704.75,-390.13 704.75,-390.13 701,-390.13 697.25,-386.38 697.25,-382.63 697.25,-382.63 697.25,-375.13 697.25,-375.13 697.25,-371.38 701,-367.63 704.75,-367.63"/>
<text xml:space="preserve" text-anchor="start" x="700.25" y="-374.83" font-family="Times New Roman,serif" font-weight="bold" font-size="14.00">S1, A6, 7, 0</text>
<text xml:space="preserve" text-anchor="middle" x="687.5" y="-400.08" font-family="Times New Roman,serif" font-size="14.00">ye5</text>
</g>
<!-- 0x3496cb8 -->
<g id="node23" class="node">
<title>0x3496cb8</title>
<ellipse fill="white" stroke="black" stroke-width="0.7" cx="601.25" cy="-317.63" rx="2.88" ry="2.88"/>
</g>
<!-- 0xc6588f2d&#45;&gt;0x3496cb8 -->
<g id="edge19" class="edge">
<title>0xc6588f2d:m&#45;&gt;0x3496cb8</title>
<path fill="none" stroke="#444444" d="M710.56,-367.7C680.1,-354.03 627.6,-330.46 608.48,-321.88"/>
<polygon fill="#444444" stroke="#444444" points="609.28,-320.71 605.06,-320.35 608.14,-323.26 609.28,-320.71"/>
<text xml:space="preserve" text-anchor="middle" x="665.35" y="-337.66" font-family="Times New Roman,serif" font-size="8.00"> o3 </text>
</g>
<!-- 0xe265a6b4 -->
<g id="node25" class="node">
<title>0xe265a6b4</title>
<ellipse fill="white" stroke="black" stroke-width="0.7" cx="904.25" cy="-223.13" rx="2.88" ry="2.88"/>
</g>
<!-- 0xc6588f2d&#45;&gt;0xe265a6b4 -->
<g id="edge23" class="edge">
<title>0xc6588f2d:m&#45;&gt;0xe265a6b4</title>
<path fill="none" stroke="#444444" d="M761.3,-367.75C802.69,-351.32 875.25,-322.51 875.25,-322.51 875.25,-322.51 894.98,-254.92 901.89,-231.22"/>
<polygon fill="#444444" stroke="#444444" points="903.21,-231.69 902.99,-227.45 900.52,-230.9 903.21,-231.69"/>
<text xml:space="preserve" text-anchor="middle" x="883.12" y="-314.91" font-family="Times New Roman,serif" font-size="8.00"> uo1 </text>
</g>
<!-- 0x7ade2a88 -->
<g id="node9" class="node">
<title>0x7ade2a88</title>
<path fill="#f8f9fa" stroke="none" d="M884.75,-367.63C884.75,-367.63 941.75,-367.63 941.75,-367.63 945.5,-367.63 949.25,-371.38 949.25,-375.13 949.25,-375.13 949.25,-382.63 949.25,-382.63 949.25,-386.38 945.5,-390.13 941.75,-390.13 941.75,-390.13 884.75,-390.13 884.75,-390.13 881,-390.13 877.25,-386.38 877.25,-382.63 877.25,-382.63 877.25,-375.13 877.25,-375.13 877.25,-371.38 881,-367.63 884.75,-367.63"/>
<path fill="none" stroke="#333333" d="M884.75,-367.63C884.75,-367.63 941.75,-367.63 941.75,-367.63 945.5,-367.63 949.25,-371.38 949.25,-375.13 949.25,-375.13 949.25,-382.63 949.25,-382.63 949.25,-386.38 945.5,-390.13 941.75,-390.13 941.75,-390.13 884.75,-390.13 884.75,-390.13 881,-390.13 877.25,-386.38 877.25,-382.63 877.25,-382.63 877.25,-375.13 877.25,-375.13 877.25,-371.38 881,-367.63 884.75,-367.63"/>
<text xml:space="preserve" text-anchor="start" x="880.25" y="-374.83" font-family="Times New Roman,serif" font-weight="bold" font-size="14.00">S7, A6, 7, 1</text>
<text xml:space="preserve" text-anchor="middle" x="867.5" y="-400.08" font-family="Times New Roman,serif" font-size="14.00">ye6</text>
</g>
<!-- 0x9f06143f -->
<g id="node27" class="node">
<title>0x9f06143f</title>
<ellipse fill="white" stroke="black" stroke-width="0.7" cx="961.25" cy="-294.88" rx="2.88" ry="2.88"/>
</g>
<!-- 0x7ade2a88&#45;&gt;0x9f06143f -->
<g id="edge25" class="edge">
<title>0x7ade2a88:m&#45;&gt;0x9f06143f</title>
<path fill="none" stroke="#444444" d="M919.14,-367.87C924.39,-358.07 931.25,-345.26 931.25,-345.26 931.25,-345.26 948.52,-316.27 956.85,-302.27"/>
<polygon fill="#444444" stroke="#444444" points="958.02,-303.05 958.86,-298.89 955.61,-301.61 958.02,-303.05"/>
<text xml:space="preserve" text-anchor="middle" x="939.12" y="-337.66" font-family="Times New Roman,serif" font-size="8.00"> uo1 </text>
</g>
<!-- 0x5cb8417a -->
<g id="node10" class="node">
<title>0x5cb8417a</title>
<path fill="#f8f9fa" stroke="none" d="M794.75,-367.63C794.75,-367.63 851.75,-367.63 851.75,-367.63 855.5,-367.63 859.25,-371.38 859.25,-375.13 859.25,-375.13 859.25,-382.63 859.25,-382.63 859.25,-386.38 855.5,-390.13 851.75,-390.13 851.75,-390.13 794.75,-390.13 794.75,-390.13 791,-390.13 787.25,-386.38 787.25,-382.63 787.25,-382.63 787.25,-375.13 787.25,-375.13 787.25,-371.38 791,-367.63 794.75,-367.63"/>
<path fill="none" stroke="#333333" d="M794.75,-367.63C794.75,-367.63 851.75,-367.63 851.75,-367.63 855.5,-367.63 859.25,-371.38 859.25,-375.13 859.25,-375.13 859.25,-382.63 859.25,-382.63 859.25,-386.38 855.5,-390.13 851.75,-390.13 851.75,-390.13 794.75,-390.13 794.75,-390.13 791,-390.13 787.25,-386.38 787.25,-382.63 787.25,-382.63 787.25,-375.13 787.25,-375.13 787.25,-371.38 791,-367.63 794.75,-367.63"/>
<text xml:space="preserve" text-anchor="start" x="790.25" y="-374.83" font-family="Times New Roman,serif" font-weight="bold" font-size="14.00">S8, A6, 7, 2</text>
<text xml:space="preserve" text-anchor="middle" x="777.5" y="-400.08" font-family="Times New Roman,serif" font-size="14.00">ye7</text>
</g>
<!-- 0x109520b7 -->
<g id="node29" class="node">
<title>0x109520b7</title>
<ellipse fill="white" stroke="black" stroke-width="0.7" cx="755.25" cy="-317.63" rx="2.88" ry="2.88"/>
</g>
<!-- 0x5cb8417a&#45;&gt;0x109520b7 -->
<g id="edge27" class="edge">
<title>0x5cb8417a:m&#45;&gt;0x109520b7</title>
<path fill="none" stroke="#444444" d="M811.71,-367.83C796.99,-355.01 772.1,-333.32 760.95,-323.6"/>
<polygon fill="#444444" stroke="#444444" points="761.96,-322.62 758.02,-321.05 760.12,-324.73 761.96,-322.62"/>
<text xml:space="preserve" text-anchor="middle" x="791.18" y="-337.66" font-family="Times New Roman,serif" font-size="8.00"> o3 </text>
</g>
<!-- 0x38b169e9 -->
<g id="node31" class="node">
<title>0x38b169e9</title>
<ellipse fill="white" stroke="black" stroke-width="0.7" cx="823.25" cy="-294.88" rx="2.88" ry="2.88"/>
</g>
<!-- 0x5cb8417a&#45;&gt;0x38b169e9 -->
<g id="edge31" class="edge">
<title>0x5cb8417a:m&#45;&gt;0x38b169e9</title>
<path fill="none" stroke="#444444" d="M823.25,-367.87C823.25,-358.07 823.25,-345.26 823.25,-345.26 823.25,-345.26 823.25,-317.29 823.25,-303.03"/>
<polygon fill="#444444" stroke="#444444" points="824.65,-303.4 823.25,-299.4 821.85,-303.4 824.65,-303.4"/>
<text xml:space="preserve" text-anchor="middle" x="831.12" y="-337.66" font-family="Times New Roman,serif" font-size="8.00"> uo1 </text>
</g>
<!-- 0x41f34c2f&#45;&gt;0xc6588f2d -->
<g id="edge8" class="edge">
<title>0x41f34c2f&#45;&gt;0xc6588f2d:m</title>
<path fill="none" stroke="#444444" stroke-dasharray="5,2" d="M744.85,-435.24C743.56,-429.07 739.4,-409.23 736.43,-395.07"/>
<polygon fill="#444444" stroke="#444444" points="737.82,-394.89 735.63,-391.26 735.08,-395.46 737.82,-394.89"/>
<text xml:space="preserve" text-anchor="middle" x="743.5" y="-414.66" font-family="Times New Roman,serif" font-size="8.00"> ε </text>
</g>
<!-- 0x41f34c2f&#45;&gt;0x7ade2a88 -->
<g id="edge9" class="edge">
<title>0x41f34c2f&#45;&gt;0x7ade2a88:m</title>
<path fill="none" stroke="#444444" stroke-dasharray="5,2" d="M747.62,-436.33C761.6,-431.57 834.06,-406.87 878.38,-391.77"/>
<polygon fill="#444444" stroke="#444444" points="878.61,-393.17 881.94,-390.56 877.7,-390.52 878.61,-393.17"/>
<text xml:space="preserve" text-anchor="middle" x="838.88" y="-414.66" font-family="Times New Roman,serif" font-size="8.00"> o3 </text>
</g>
<!-- 0x41f34c2f&#45;&gt;0x5cb8417a -->
<g id="edge10" class="edge">
<title>0x41f34c2f&#45;&gt;0x5cb8417a:m</title>
<path fill="none" stroke="#444444" stroke-dasharray="5,2" d="M747.18,-435.72C755.03,-429.96 785.12,-407.87 805.02,-393.26"/>
<polygon fill="#444444" stroke="#444444" points="805.73,-394.48 808.13,-390.98 804.08,-392.22 805.73,-394.48"/>
<text xml:space="preserve" text-anchor="middle" x="797.89" y="-414.66" font-family="Times New Roman,serif" font-size="8.00"> o2 </text>
</g>
<!-- 0x77c1714c -->
<g id="node12" class="node">
<title>0x77c1714c</title>
<path fill="#f8f9fa" stroke="none" d="M614.75,-483.52C614.75,-483.52 671.75,-483.52 671.75,-483.52 675.5,-483.52 679.25,-487.27 679.25,-491.02 679.25,-491.02 679.25,-498.52 679.25,-498.52 679.25,-502.27 675.5,-506.02 671.75,-506.02 671.75,-506.02 614.75,-506.02 614.75,-506.02 611,-506.02 607.25,-502.27 607.25,-498.52 607.25,-498.52 607.25,-491.02 607.25,-491.02 607.25,-487.27 611,-483.52 614.75,-483.52"/>
<path fill="none" stroke="#333333" d="M614.75,-483.52C614.75,-483.52 671.75,-483.52 671.75,-483.52 675.5,-483.52 679.25,-487.27 679.25,-491.02 679.25,-491.02 679.25,-498.52 679.25,-498.52 679.25,-502.27 675.5,-506.02 671.75,-506.02 671.75,-506.02 614.75,-506.02 614.75,-506.02 611,-506.02 607.25,-502.27 607.25,-498.52 607.25,-498.52 607.25,-491.02 607.25,-491.02 607.25,-487.27 611,-483.52 614.75,-483.52"/>
<text xml:space="preserve" text-anchor="start" x="610.25" y="-490.72" font-family="Times New Roman,serif" font-weight="bold" font-size="14.00">S2, A7, 2, 0</text>
<text xml:space="preserve" text-anchor="middle" x="597.5" y="-515.97" font-family="Times New Roman,serif" font-size="14.00">ye8</text>
</g>
<!-- 0x38f49e10 -->
<g id="node33" class="node">
<title>0x38f49e10</title>
<ellipse fill="white" stroke="black" stroke-width="0.7" cx="643.25" cy="-438.14" rx="2.88" ry="2.88"/>
</g>
<!-- 0x77c1714c&#45;&gt;0x38f49e10 -->
<g id="edge33" class="edge">
<title>0x77c1714c:m&#45;&gt;0x38f49e10</title>
<path fill="none" stroke="#444444" d="M643.25,-483.75C643.25,-472.94 643.25,-455.98 643.25,-446.39"/>
<polygon fill="#444444" stroke="#444444" points="644.65,-446.61 643.25,-442.61 641.85,-446.61 644.65,-446.61"/>
<text xml:space="preserve" text-anchor="middle" x="649.25" y="-456.17" font-family="Times New Roman,serif" font-size="8.00"> o1 </text>
</g>
<!-- 0x1b1731a5&#45;&gt;0x77c1714c -->
<g id="edge12" class="edge">
<title>0x1b1731a5&#45;&gt;0x77c1714c:m</title>
<path fill="none" stroke="#444444" stroke-dasharray="5,2" d="M646.15,-548.58C645.83,-542.82 644.83,-524.52 644.09,-511.07"/>
<polygon fill="#444444" stroke="#444444" points="645.49,-511.08 643.88,-507.17 642.7,-511.24 645.49,-511.08"/>
<text xml:space="preserve" text-anchor="middle" x="653.24" y="-527.92" font-family="Times New Roman,serif" font-size="8.00"> uo2 </text>
</g>
<!-- 0xdd0827d4 -->
<g id="node14" class="node">
<title>0xdd0827d4</title>
<path fill="#f8f9fa" stroke="none" d="M756.75,-483.52C756.75,-483.52 813.75,-483.52 813.75,-483.52 817.5,-483.52 821.25,-487.27 821.25,-491.02 821.25,-491.02 821.25,-498.52 821.25,-498.52 821.25,-502.27 817.5,-506.02 813.75,-506.02 813.75,-506.02 756.75,-506.02 756.75,-506.02 753,-506.02 749.25,-502.27 749.25,-498.52 749.25,-498.52 749.25,-491.02 749.25,-491.02 749.25,-487.27 753,-483.52 756.75,-483.52"/>
<path fill="none" stroke="#333333" d="M756.75,-483.52C756.75,-483.52 813.75,-483.52 813.75,-483.52 817.5,-483.52 821.25,-487.27 821.25,-491.02 821.25,-491.02 821.25,-498.52 821.25,-498.52 821.25,-502.27 817.5,-506.02 813.75,-506.02 813.75,-506.02 756.75,-506.02 756.75,-506.02 753,-506.02 749.25,-502.27 749.25,-498.52 749.25,-498.52 749.25,-491.02 749.25,-491.02 749.25,-487.27 753,-483.52 756.75,-483.52"/>
<text xml:space="preserve" text-anchor="start" x="752.25" y="-490.72" font-family="Times New Roman,serif" font-weight="bold" font-size="14.00">S1, A6, 6, 0</text>
<text xml:space="preserve" text-anchor="middle" x="739.5" y="-515.97" font-family="Times New Roman,serif" font-size="14.00">ye9</text>
</g>
<!-- 0x39d6a1b4 -->
<g id="node34" class="node">
<title>0x39d6a1b4</title>
<ellipse fill="white" stroke="black" stroke-width="0.7" cx="775.25" cy="-438.14" rx="2.88" ry="2.88"/>
</g>
<!-- 0xdd0827d4&#45;&gt;0x39d6a1b4 -->
<g id="edge35" class="edge">
<title>0xdd0827d4:m&#45;&gt;0x39d6a1b4</title>
<path fill="none" stroke="#444444" d="M783.42,-483.75C781.44,-472.94 778.33,-455.98 776.58,-446.39"/>
<polygon fill="#444444" stroke="#444444" points="777.98,-446.26 775.88,-442.58 775.22,-446.77 777.98,-446.26"/>
<text xml:space="preserve" text-anchor="middle" x="787.53" y="-456.17" font-family="Times New Roman,serif" font-size="8.00"> uo3 </text>
</g>
<!-- 0x8ecdcac0&#45;&gt;0xdd0827d4 -->
<g id="edge14" class="edge">
<title>0x8ecdcac0&#45;&gt;0xdd0827d4:m</title>
<path fill="none" stroke="#444444" stroke-dasharray="5,2" d="M785.25,-548.58C785.25,-542.82 785.25,-524.52 785.25,-511.07"/>
<polygon fill="#444444" stroke="#444444" points="786.65,-511.17 785.25,-507.17 783.85,-511.17 786.65,-511.17"/>
<text xml:space="preserve" text-anchor="middle" x="791.25" y="-527.92" font-family="Times New Roman,serif" font-size="8.00"> o4 </text>
</g>
<!-- 0x918dc32f -->
<g id="node16" class="node">
<title>0x918dc32f</title>
<path fill="#f8f9fa" stroke="none" d="M846.75,-483.52C846.75,-483.52 903.75,-483.52 903.75,-483.52 907.5,-483.52 911.25,-487.27 911.25,-491.02 911.25,-491.02 911.25,-498.52 911.25,-498.52 911.25,-502.27 907.5,-506.02 903.75,-506.02 903.75,-506.02 846.75,-506.02 846.75,-506.02 843,-506.02 839.25,-502.27 839.25,-498.52 839.25,-498.52 839.25,-491.02 839.25,-491.02 839.25,-487.27 843,-483.52 846.75,-483.52"/>
<path fill="none" stroke="#333333" d="M846.75,-483.52C846.75,-483.52 903.75,-483.52 903.75,-483.52 907.5,-483.52 911.25,-487.27 911.25,-491.02 911.25,-491.02 911.25,-498.52 911.25,-498.52 911.25,-502.27 907.5,-506.02 903.75,-506.02 903.75,-506.02 846.75,-506.02 846.75,-506.02 843,-506.02 839.25,-502.27 839.25,-498.52 839.25,-498.52 839.25,-491.02 839.25,-491.02 839.25,-487.27 843,-483.52 846.75,-483.52"/>
<text xml:space="preserve" text-anchor="start" x="842.25" y="-490.72" font-family="Times New Roman,serif" font-weight="bold" font-size="14.00">S7, A6, 6, 1</text>
<text xml:space="preserve" text-anchor="middle" x="826.12" y="-515.97" font-family="Times New Roman,serif" font-size="14.00">ye10</text>
</g>
<!-- 0x9c1a5458 -->
<g id="node35" class="node">
<title>0x9c1a5458</title>
<ellipse fill="white" stroke="black" stroke-width="0.7" cx="894.25" cy="-438.14" rx="2.88" ry="2.88"/>
</g>
<!-- 0x918dc32f&#45;&gt;0x9c1a5458 -->
<g id="edge37" class="edge">
<title>0x918dc32f:m&#45;&gt;0x9c1a5458</title>
<path fill="none" stroke="#444444" d="M878.73,-483.75C882.53,-472.83 888.51,-455.66 891.82,-446.12"/>
<polygon fill="#444444" stroke="#444444" points="893.08,-446.76 893.07,-442.52 890.44,-445.84 893.08,-446.76"/>
<text xml:space="preserve" text-anchor="middle" x="896.51" y="-456.17" font-family="Times New Roman,serif" font-size="8.00"> uo3 </text>
</g>
<!-- 0x8430d341&#45;&gt;0x918dc32f -->
<g id="edge16" class="edge">
<title>0x8430d341&#45;&gt;0x918dc32f:m</title>
<path fill="none" stroke="#444444" stroke-dasharray="5,2" d="M875.25,-548.58C875.25,-542.82 875.25,-524.52 875.25,-511.07"/>
<polygon fill="#444444" stroke="#444444" points="876.65,-511.17 875.25,-507.17 873.85,-511.17 876.65,-511.17"/>
<text xml:space="preserve" text-anchor="middle" x="881.25" y="-527.92" font-family="Times New Roman,serif" font-size="8.00"> o4 </text>
</g>
<!-- 0x78a936d6 -->
<g id="node18" class="node">
<title>0x78a936d6</title>
<path fill="#f8f9fa" stroke="none" d="M936.75,-483.52C936.75,-483.52 993.75,-483.52 993.75,-483.52 997.5,-483.52 1001.25,-487.27 1001.25,-491.02 1001.25,-491.02 1001.25,-498.52 1001.25,-498.52 1001.25,-502.27 997.5,-506.02 993.75,-506.02 993.75,-506.02 936.75,-506.02 936.75,-506.02 933,-506.02 929.25,-502.27 929.25,-498.52 929.25,-498.52 929.25,-491.02 929.25,-491.02 929.25,-487.27 933,-483.52 936.75,-483.52"/>
<path fill="none" stroke="#333333" d="M936.75,-483.52C936.75,-483.52 993.75,-483.52 993.75,-483.52 997.5,-483.52 1001.25,-487.27 1001.25,-491.02 1001.25,-491.02 1001.25,-498.52 1001.25,-498.52 1001.25,-502.27 997.5,-506.02 993.75,-506.02 993.75,-506.02 936.75,-506.02 936.75,-506.02 933,-506.02 929.25,-502.27 929.25,-498.52 929.25,-498.52 929.25,-491.02 929.25,-491.02 929.25,-487.27 933,-483.52 936.75,-483.52"/>
<text xml:space="preserve" text-anchor="start" x="932.25" y="-490.72" font-family="Times New Roman,serif" font-weight="bold" font-size="14.00">S8, A2, 6, 2</text>
<text xml:space="preserve" text-anchor="middle" x="916.12" y="-515.97" font-family="Times New Roman,serif" font-size="14.00">ye11</text>
</g>
<!-- 0x3fb1fc98&#45;&gt;0x78a936d6 -->
<g id="edge18" class="edge">
<title>0x3fb1fc98&#45;&gt;0x78a936d6:m</title>
<path fill="none" stroke="#444444" stroke-dasharray="5,2" d="M965.25,-548.58C965.25,-542.82 965.25,-524.52 965.25,-511.07"/>
<polygon fill="#444444" stroke="#444444" points="966.65,-511.17 965.25,-507.17 963.85,-511.17 966.65,-511.17"/>
<text xml:space="preserve" text-anchor="middle" x="971.25" y="-527.92" font-family="Times New Roman,serif" font-size="8.00"> o4 </text>
</g>
<!-- 0xe9ccaf5e -->
<g id="node20" class="node">
<title>0xe9ccaf5e</title>
<path fill="#f8f9fa" stroke="none" d="M454.75,-247.76C454.75,-247.76 511.75,-247.76 511.75,-247.76 515.5,-247.76 519.25,-251.51 519.25,-255.26 519.25,-255.26 519.25,-262.76 519.25,-262.76 519.25,-266.51 515.5,-270.26 511.75,-270.26 511.75,-270.26 454.75,-270.26 454.75,-270.26 451,-270.26 447.25,-266.51 447.25,-262.76 447.25,-262.76 447.25,-255.26 447.25,-255.26 447.25,-251.51 451,-247.76 454.75,-247.76"/>
<path fill="none" stroke="#333333" d="M454.75,-247.76C454.75,-247.76 511.75,-247.76 511.75,-247.76 515.5,-247.76 519.25,-251.51 519.25,-255.26 519.25,-255.26 519.25,-262.76 519.25,-262.76 519.25,-266.51 515.5,-270.26 511.75,-270.26 511.75,-270.26 454.75,-270.26 454.75,-270.26 451,-270.26 447.25,-266.51 447.25,-262.76 447.25,-262.76 447.25,-255.26 447.25,-255.26 447.25,-251.51 451,-247.76 454.75,-247.76"/>
<text xml:space="preserve" text-anchor="start" x="450.25" y="-254.96" font-family="Times New Roman,serif" font-weight="bold" font-size="14.00">S1, A3, 8, 0</text>
<text xml:space="preserve" text-anchor="middle" x="434.12" y="-280.21" font-family="Times New Roman,serif" font-size="14.00">ye12</text>
</g>
<!-- 0x5506e381 -->
<g id="node39" class="node">
<title>0x5506e381</title>
<ellipse fill="white" stroke="black" stroke-width="0.7" cx="202.25" cy="-200.38" rx="2.88" ry="2.88"/>
</g>
<!-- 0xe9ccaf5e&#45;&gt;0x5506e381 -->
<g id="edge39" class="edge">
<title>0xe9ccaf5e:m&#45;&gt;0x5506e381</title>
<path fill="none" stroke="#444444" d="M447.38,-250.78C381.35,-237.48 244.22,-209.84 210.08,-202.96"/>
<polygon fill="#444444" stroke="#444444" points="210.62,-201.64 206.43,-202.23 210.07,-204.39 210.62,-201.64"/>
<text xml:space="preserve" text-anchor="middle" x="340.32" y="-220.41" font-family="Times New Roman,serif" font-size="8.00"> o2 </text>
</g>
<!-- 0x3515b8fb -->
<g id="node40" class="node">
<title>0x3515b8fb</title>
<ellipse fill="white" stroke="black" stroke-width="0.7" cx="872.25" cy="-200.38" rx="2.88" ry="2.88"/>
</g>
<!-- 0xe9ccaf5e&#45;&gt;0x3515b8fb -->
<g id="edge43" class="edge">
<title>0xe9ccaf5e:m&#45;&gt;0x3515b8fb</title>
<path fill="none" stroke="#444444" d="M519.15,-252.78C605.38,-240.23 820.3,-208.95 864.3,-202.54"/>
<polygon fill="#444444" stroke="#444444" points="864.43,-203.94 868.19,-201.98 864.03,-201.17 864.43,-203.94"/>
<text xml:space="preserve" text-anchor="middle" x="859.46" y="-220.41" font-family="Times New Roman,serif" font-size="8.00"> o3 </text>
</g>
<!-- 0xb752215d -->
<g id="node21" class="node">
<title>0xb752215d</title>
<path fill="#f8f9fa" stroke="none" d="M544.75,-247.76C544.75,-247.76 601.75,-247.76 601.75,-247.76 605.5,-247.76 609.25,-251.51 609.25,-255.26 609.25,-255.26 609.25,-262.76 609.25,-262.76 609.25,-266.51 605.5,-270.26 601.75,-270.26 601.75,-270.26 544.75,-270.26 544.75,-270.26 541,-270.26 537.25,-266.51 537.25,-262.76 537.25,-262.76 537.25,-255.26 537.25,-255.26 537.25,-251.51 541,-247.76 544.75,-247.76"/>
<path fill="none" stroke="#333333" d="M544.75,-247.76C544.75,-247.76 601.75,-247.76 601.75,-247.76 605.5,-247.76 609.25,-251.51 609.25,-255.26 609.25,-255.26 609.25,-262.76 609.25,-262.76 609.25,-266.51 605.5,-270.26 601.75,-270.26 601.75,-270.26 544.75,-270.26 544.75,-270.26 541,-270.26 537.25,-266.51 537.25,-262.76 537.25,-262.76 537.25,-255.26 537.25,-255.26 537.25,-251.51 541,-247.76 544.75,-247.76"/>
<text xml:space="preserve" text-anchor="start" x="540.25" y="-254.96" font-family="Times New Roman,serif" font-weight="bold" font-size="14.00">S7, A3, 8, 1</text>
<text xml:space="preserve" text-anchor="middle" x="524.12" y="-280.21" font-family="Times New Roman,serif" font-size="14.00">ye13</text>
</g>
<!-- 0x9c7ca1e2 -->
<g id="node43" class="node">
<title>0x9c7ca1e2</title>
<ellipse fill="white" stroke="black" stroke-width="0.7" cx="309.25" cy="-200.38" rx="2.88" ry="2.88"/>
</g>
<!-- 0xb752215d&#45;&gt;0x9c7ca1e2 -->
<g id="edge47" class="edge">
<title>0xb752215d:m&#45;&gt;0x9c7ca1e2</title>
<path fill="none" stroke="#444444" d="M537.37,-250.31C474.99,-236.93 350.04,-210.13 317.27,-203.11"/>
<polygon fill="#444444" stroke="#444444" points="317.68,-201.76 313.47,-202.29 317.09,-204.5 317.68,-201.76"/>
<text xml:space="preserve" text-anchor="middle" x="457.16" y="-220.41" font-family="Times New Roman,serif" font-size="8.00"> o2 </text>
</g>
<!-- 0x2c61ab -->
<g id="node22" class="node">
<title>0x2c61ab</title>
<path fill="#f8f9fa" stroke="none" d="M634.75,-247.76C634.75,-247.76 691.75,-247.76 691.75,-247.76 695.5,-247.76 699.25,-251.51 699.25,-255.26 699.25,-255.26 699.25,-262.76 699.25,-262.76 699.25,-266.51 695.5,-270.26 691.75,-270.26 691.75,-270.26 634.75,-270.26 634.75,-270.26 631,-270.26 627.25,-266.51 627.25,-262.76 627.25,-262.76 627.25,-255.26 627.25,-255.26 627.25,-251.51 631,-247.76 634.75,-247.76"/>
<path fill="none" stroke="#333333" d="M634.75,-247.76C634.75,-247.76 691.75,-247.76 691.75,-247.76 695.5,-247.76 699.25,-251.51 699.25,-255.26 699.25,-255.26 699.25,-262.76 699.25,-262.76 699.25,-266.51 695.5,-270.26 691.75,-270.26 691.75,-270.26 634.75,-270.26 634.75,-270.26 631,-270.26 627.25,-266.51 627.25,-262.76 627.25,-262.76 627.25,-255.26 627.25,-255.26 627.25,-251.51 631,-247.76 634.75,-247.76"/>
<text xml:space="preserve" text-anchor="start" x="630.25" y="-254.96" font-family="Times New Roman,serif" font-weight="bold" font-size="14.00">S8, A3, 8, 2</text>
<text xml:space="preserve" text-anchor="middle" x="614.12" y="-280.21" font-family="Times New Roman,serif" font-size="14.00">ye14</text>
</g>
<!-- 0x313e713d -->
<g id="node45" class="node">
<title>0x313e713d</title>
<ellipse fill="white" stroke="black" stroke-width="0.7" cx="544.25" cy="-200.38" rx="2.88" ry="2.88"/>
</g>
<!-- 0x2c61ab&#45;&gt;0x313e713d -->
<g id="edge51" class="edge">
<title>0x2c61ab:m&#45;&gt;0x313e713d</title>
<path fill="none" stroke="#444444" d="M641.98,-247.89C614.59,-234.85 568.46,-212.9 551.12,-204.65"/>
<polygon fill="#444444" stroke="#444444" points="551.99,-203.52 547.77,-203.06 550.78,-206.04 551.99,-203.52"/>
<text xml:space="preserve" text-anchor="middle" x="606.18" y="-220.41" font-family="Times New Roman,serif" font-size="8.00"> o2 </text>
</g>
<!-- 0x42616cfa -->
<g id="node48" class="node">
<title>0x42616cfa</title>
<ellipse fill="white" stroke="black" stroke-width="0.7" cx="672.25" cy="-200.38" rx="2.88" ry="2.88"/>
</g>
<!-- 0x2c61ab&#45;&gt;0x42616cfa -->
<g id="edge55" class="edge">
<title>0x2c61ab:m&#45;&gt;0x42616cfa</title>
<path fill="none" stroke="#444444" d="M664.86,-247.89C666.65,-236.61 669.5,-218.67 671.09,-208.69"/>
<polygon fill="#444444" stroke="#444444" points="672.44,-209.09 671.69,-204.92 669.68,-208.65 672.44,-209.09"/>
<text xml:space="preserve" text-anchor="middle" x="675.34" y="-220.41" font-family="Times New Roman,serif" font-size="8.00"> o3 </text>
</g>
<!-- 0x3496cb8&#45;&gt;0xe9ccaf5e -->
<g id="edge20" class="edge">
<title>0x3496cb8&#45;&gt;0xe9ccaf5e:m</title>
<path fill="none" stroke="#444444" stroke-dasharray="5,2" d="M599.2,-315.65C588.69,-310.61 540.06,-287.27 509.21,-272.47"/>
<polygon fill="#444444" stroke="#444444" points="510,-271.29 505.79,-270.83 508.79,-273.82 510,-271.29"/>
<text xml:space="preserve" text-anchor="middle" x="566.83" y="-292.16" font-family="Times New Roman,serif" font-size="8.00"> ε </text>
</g>
<!-- 0x3496cb8&#45;&gt;0xb752215d -->
<g id="edge21" class="edge">
<title>0x3496cb8&#45;&gt;0xb752215d:m</title>
<path fill="none" stroke="#444444" stroke-dasharray="5,2" d="M600.32,-314.75C597.31,-308.67 587.65,-289.13 580.73,-275.13"/>
<polygon fill="#444444" stroke="#444444" points="582.02,-274.58 578.99,-271.61 579.51,-275.82 582.02,-274.58"/>
<text xml:space="preserve" text-anchor="middle" x="598.19" y="-292.16" font-family="Times New Roman,serif" font-size="8.00"> o3 </text>
</g>
<!-- 0x3496cb8&#45;&gt;0x2c61ab -->
<g id="edge22" class="edge">
<title>0x3496cb8&#45;&gt;0x2c61ab:m</title>
<path fill="none" stroke="#444444" stroke-dasharray="5,2" d="M603.04,-315C609.59,-309.02 632.71,-287.9 648.32,-273.64"/>
<polygon fill="#444444" stroke="#444444" points="648.99,-274.93 651,-271.2 647.1,-272.86 648.99,-274.93"/>
<text xml:space="preserve" text-anchor="middle" x="636.39" y="-292.16" font-family="Times New Roman,serif" font-size="8.00"> o2 </text>
</g>
<!-- 0x905323a9 -->
<g id="node24" class="node">
<title>0x905323a9</title>
<path fill="#f8f9fa" stroke="none" d="M885.75,-137.26C885.75,-137.26 942.75,-137.26 942.75,-137.26 946.5,-137.26 950.25,-141.01 950.25,-144.76 950.25,-144.76 950.25,-152.26 950.25,-152.26 950.25,-156.01 946.5,-159.76 942.75,-159.76 942.75,-159.76 885.75,-159.76 885.75,-159.76 882,-159.76 878.25,-156.01 878.25,-152.26 878.25,-152.26 878.25,-144.76 878.25,-144.76 878.25,-141.01 882,-137.26 885.75,-137.26"/>
<path fill="none" stroke="#333333" d="M885.75,-137.26C885.75,-137.26 942.75,-137.26 942.75,-137.26 946.5,-137.26 950.25,-141.01 950.25,-144.76 950.25,-144.76 950.25,-152.26 950.25,-152.26 950.25,-156.01 946.5,-159.76 942.75,-159.76 942.75,-159.76 885.75,-159.76 885.75,-159.76 882,-159.76 878.25,-156.01 878.25,-152.26 878.25,-152.26 878.25,-144.76 878.25,-144.76 878.25,-141.01 882,-137.26 885.75,-137.26"/>
<text xml:space="preserve" text-anchor="start" x="881.25" y="-144.46" font-family="Times New Roman,serif" font-weight="bold" font-size="14.00">S1, A6, 4, 0</text>
<text xml:space="preserve" text-anchor="start" x="908.62" y="-122.06" font-family="Times New Roman,serif" font-size="16.00">...</text>
<text xml:space="preserve" text-anchor="middle" x="865.12" y="-162.96" font-family="Times New Roman,serif" font-size="14.00">ye15</text>
</g>
<!-- 0x41b991aa -->
<g id="node51" class="node">
<title>0x41b991aa</title>
<ellipse fill="white" stroke="black" stroke-width="0.7" cx="914.25" cy="-79.88" rx="2.88" ry="2.88"/>
</g>
<!-- 0x905323a9&#45;&gt;0x41b991aa -->
<g id="edge59" class="edge">
<title>0x905323a9:m&#45;&gt;0x41b991aa</title>
<path fill="none" stroke="#444444" d="M914.25,-160.76C914.25,-160.76 914.25,-107.8 914.25,-88.13"/>
<polygon fill="#444444" stroke="#444444" points="915.65,-88.37 914.25,-84.37 912.85,-88.37 915.65,-88.37"/>
<text xml:space="preserve" text-anchor="middle" x="943.58" y="-97.91" font-family="Times New Roman,serif" font-size="8.00"> o2 </text>
</g>
<!-- 0xe265a6b4&#45;&gt;0x905323a9 -->
<g id="edge24" class="edge">
<title>0xe265a6b4&#45;&gt;0x905323a9:m</title>
<path fill="none" stroke="#444444" stroke-dasharray="5,2" d="M905.81,-220.34C908.62,-215.31 914.25,-205.26 914.25,-205.26 914.25,-205.26 914.25,-181.85 914.25,-165.1"/>
<polygon fill="#444444" stroke="#444444" points="915.65,-165.24 914.25,-161.24 912.85,-165.24 915.65,-165.24"/>
<text xml:space="preserve" text-anchor="middle" x="922.12" y="-197.66" font-family="Times New Roman,serif" font-size="8.00"> uo1 </text>
</g>
<!-- 0xc4d8bf04 -->
<g id="node26" class="node">
<title>0xc4d8bf04</title>
<path fill="#f8f9fa" stroke="none" d="M975.75,-137.26C975.75,-137.26 1032.75,-137.26 1032.75,-137.26 1036.5,-137.26 1040.25,-141.01 1040.25,-144.76 1040.25,-144.76 1040.25,-152.26 1040.25,-152.26 1040.25,-156.01 1036.5,-159.76 1032.75,-159.76 1032.75,-159.76 975.75,-159.76 975.75,-159.76 972,-159.76 968.25,-156.01 968.25,-152.26 968.25,-152.26 968.25,-144.76 968.25,-144.76 968.25,-141.01 972,-137.26 975.75,-137.26"/>
<path fill="none" stroke="#333333" d="M975.75,-137.26C975.75,-137.26 1032.75,-137.26 1032.75,-137.26 1036.5,-137.26 1040.25,-141.01 1040.25,-144.76 1040.25,-144.76 1040.25,-152.26 1040.25,-152.26 1040.25,-156.01 1036.5,-159.76 1032.75,-159.76 1032.75,-159.76 975.75,-159.76 975.75,-159.76 972,-159.76 968.25,-156.01 968.25,-152.26 968.25,-152.26 968.25,-144.76 968.25,-144.76 968.25,-141.01 972,-137.26 975.75,-137.26"/>
<text xml:space="preserve" text-anchor="start" x="971.25" y="-144.46" font-family="Times New Roman,serif" font-weight="bold" font-size="14.00">S7, A6, 4, 1</text>
<text xml:space="preserve" text-anchor="start" x="998.62" y="-122.06" font-family="Times New Roman,serif" font-size="16.00">...</text>
<text xml:space="preserve" text-anchor="middle" x="955.12" y="-162.96" font-family="Times New Roman,serif" font-size="14.00">ye16</text>
</g>
<!-- 0x9f06143f&#45;&gt;0xc4d8bf04 -->
<g id="edge26" class="edge">
<title>0x9f06143f&#45;&gt;0xc4d8bf04:m</title>
<path fill="none" stroke="#444444" stroke-dasharray="5,2" d="M962.58,-292.35C968.97,-280.13 996.25,-228.01 996.25,-228.01 996.25,-228.01 1000.27,-188.07 1002.61,-164.81"/>
<polygon fill="#444444" stroke="#444444" points="1003.98,-165.19 1002.99,-161.07 1001.19,-164.91 1003.98,-165.19"/>
<text xml:space="preserve" text-anchor="middle" x="1004.12" y="-220.41" font-family="Times New Roman,serif" font-size="8.00"> uo1 </text>
</g>
<!-- 0xcc824205 -->
<g id="node28" class="node">
<title>0xcc824205</title>
<path fill="#fff1f2" stroke="none" d="M725.12,-247.76C725.12,-247.76 787.38,-247.76 787.38,-247.76 791.12,-247.76 794.88,-251.51 794.88,-255.26 794.88,-255.26 794.88,-262.76 794.88,-262.76 794.88,-266.51 791.12,-270.26 787.38,-270.26 787.38,-270.26 725.12,-270.26 725.12,-270.26 721.38,-270.26 717.62,-266.51 717.62,-262.76 717.62,-262.76 717.62,-255.26 717.62,-255.26 717.62,-251.51 721.38,-247.76 725.12,-247.76"/>
<path fill="none" stroke="#9f1239" d="M725.12,-247.76C725.12,-247.76 787.38,-247.76 787.38,-247.76 791.12,-247.76 794.88,-251.51 794.88,-255.26 794.88,-255.26 794.88,-262.76 794.88,-262.76 794.88,-266.51 791.12,-270.26 787.38,-270.26 787.38,-270.26 725.12,-270.26 725.12,-270.26 721.38,-270.26 717.62,-266.51 717.62,-262.76 717.62,-262.76 717.62,-255.26 717.62,-255.26 717.62,-251.51 721.38,-247.76 725.12,-247.76"/>
<text xml:space="preserve" text-anchor="start" x="720.62" y="-254.96" font-family="Times New Roman,serif" font-weight="bold" font-size="14.00">AX, A3, 8, 2</text>
<text xml:space="preserve" text-anchor="middle" x="704.5" y="-280.21" font-family="Times New Roman,serif" font-size="14.00">ye17</text>
</g>
<!-- 0x109520b7&#45;&gt;0x2c61ab -->
<g id="edge28" class="edge">
<title>0x109520b7&#45;&gt;0x2c61ab:m</title>
<path fill="none" stroke="#444444" stroke-dasharray="5,2" d="M753.33,-315.45C744.62,-310.09 708.25,-287.71 684.47,-273.07"/>
<polygon fill="#444444" stroke="#444444" points="685.33,-271.95 681.19,-271.05 683.86,-274.34 685.33,-271.95"/>
<text xml:space="preserve" text-anchor="middle" x="731.5" y="-292.16" font-family="Times New Roman,serif" font-size="8.00"> ε </text>
</g>
<!-- 0x109520b7&#45;&gt;0xcc824205 -->
<g id="edge29" class="edge">
<title>0x109520b7&#45;&gt;0xcc824205:m</title>
<path fill="none" stroke="#444444" stroke-dasharray="5,2" d="M755.28,-314.75C755.39,-308.72 755.73,-289.47 755.98,-275.5"/>
<polygon fill="#444444" stroke="#444444" points="757.37,-275.79 756.04,-271.77 754.57,-275.74 757.37,-275.79"/>
<text xml:space="preserve" text-anchor="middle" x="745.25" y="-292.16" font-family="Times New Roman,serif" font-size="8.00"> o3 </text>
</g>
<!-- 0x109520b7&#45;&gt;0xcc824205 -->
<g id="edge30" class="edge">
<title>0x109520b7&#45;&gt;0xcc824205:m</title>
<path fill="none" stroke="#444444" stroke-dasharray="5,2" d="M755.28,-314.75C755.39,-308.72 755.73,-289.47 755.98,-275.5"/>
<polygon fill="#444444" stroke="#444444" points="757.37,-275.79 756.04,-271.77 754.57,-275.74 757.37,-275.79"/>
<text xml:space="preserve" text-anchor="middle" x="761.72" y="-292.16" font-family="Times New Roman,serif" font-size="8.00"> o2 </text>
</g>
<!-- 0xa6b2d5f6 -->
<g id="node30" class="node">
<title>0xa6b2d5f6</title>
<path fill="#f8f9fa" stroke="none" d="M795.75,-137.26C795.75,-137.26 852.75,-137.26 852.75,-137.26 856.5,-137.26 860.25,-141.01 860.25,-144.76 860.25,-144.76 860.25,-152.26 860.25,-152.26 860.25,-156.01 856.5,-159.76 852.75,-159.76 852.75,-159.76 795.75,-159.76 795.75,-159.76 792,-159.76 788.25,-156.01 788.25,-152.26 788.25,-152.26 788.25,-144.76 788.25,-144.76 788.25,-141.01 792,-137.26 795.75,-137.26"/>
<path fill="none" stroke="#333333" d="M795.75,-137.26C795.75,-137.26 852.75,-137.26 852.75,-137.26 856.5,-137.26 860.25,-141.01 860.25,-144.76 860.25,-144.76 860.25,-152.26 860.25,-152.26 860.25,-156.01 856.5,-159.76 852.75,-159.76 852.75,-159.76 795.75,-159.76 795.75,-159.76 792,-159.76 788.25,-156.01 788.25,-152.26 788.25,-152.26 788.25,-144.76 788.25,-144.76 788.25,-141.01 792,-137.26 795.75,-137.26"/>
<text xml:space="preserve" text-anchor="start" x="791.25" y="-144.46" font-family="Times New Roman,serif" font-weight="bold" font-size="14.00">S8, A6, 4, 2</text>
<text xml:space="preserve" text-anchor="start" x="818.62" y="-122.06" font-family="Times New Roman,serif" font-size="16.00">...</text>
<text xml:space="preserve" text-anchor="middle" x="775.12" y="-162.96" font-family="Times New Roman,serif" font-size="14.00">ye18</text>
</g>
<!-- 0x38b169e9&#45;&gt;0xa6b2d5f6 -->
<g id="edge32" class="edge">
<title>0x38b169e9&#45;&gt;0xa6b2d5f6:m</title>
<path fill="none" stroke="#444444" stroke-dasharray="5,2" d="M823.25,-291.66C823.25,-278.3 823.25,-228.01 823.25,-228.01 823.25,-228.01 823.75,-188.07 824.04,-164.81"/>
<polygon fill="#444444" stroke="#444444" points="825.44,-165.09 824.09,-161.08 822.64,-165.06 825.44,-165.09"/>
<text xml:space="preserve" text-anchor="middle" x="831.12" y="-220.41" font-family="Times New Roman,serif" font-size="8.00"> uo1 </text>
</g>
<!-- 0xc2eeb9cf -->
<g id="node32" class="node">
<title>0xc2eeb9cf</title>
<path fill="#f8f9fa" stroke="none" d="M614.75,-377.01C614.75,-377.01 671.75,-377.01 671.75,-377.01 675.5,-377.01 679.25,-380.76 679.25,-384.51 679.25,-384.51 679.25,-392.01 679.25,-392.01 679.25,-395.76 675.5,-399.51 671.75,-399.51 671.75,-399.51 614.75,-399.51 614.75,-399.51 611,-399.51 607.25,-395.76 607.25,-392.01 607.25,-392.01 607.25,-384.51 607.25,-384.51 607.25,-380.76 611,-377.01 614.75,-377.01"/>
<path fill="none" stroke="#333333" d="M614.75,-377.01C614.75,-377.01 671.75,-377.01 671.75,-377.01 675.5,-377.01 679.25,-380.76 679.25,-384.51 679.25,-384.51 679.25,-392.01 679.25,-392.01 679.25,-395.76 675.5,-399.51 671.75,-399.51 671.75,-399.51 614.75,-399.51 614.75,-399.51 611,-399.51 607.25,-395.76 607.25,-392.01 607.25,-392.01 607.25,-384.51 607.25,-384.51 607.25,-380.76 611,-377.01 614.75,-377.01"/>
<text xml:space="preserve" text-anchor="start" x="610.25" y="-384.21" font-family="Times New Roman,serif" font-weight="bold" font-size="14.00">S0, A7, 5, 0</text>
<text xml:space="preserve" text-anchor="start" x="637.62" y="-361.81" font-family="Times New Roman,serif" font-size="16.00">...</text>
<text xml:space="preserve" text-anchor="middle" x="594.12" y="-402.71" font-family="Times New Roman,serif" font-size="14.00">ye19</text>
</g>
<!-- 0x38f49e10&#45;&gt;0xc2eeb9cf -->
<g id="edge34" class="edge">
<title>0x38f49e10&#45;&gt;0xc2eeb9cf:m</title>
<path fill="none" stroke="#444444" stroke-dasharray="5,2" d="M643.25,-435.12C643.25,-429.44 643.25,-413.21 643.25,-404.77"/>
<polygon fill="#444444" stroke="#444444" points="644.65,-405.02 643.25,-401.02 641.85,-405.02 644.65,-405.02"/>
<text xml:space="preserve" text-anchor="middle" x="649.25" y="-414.66" font-family="Times New Roman,serif" font-size="8.00"> o1 </text>
</g>
<!-- 0x39d6a1b4&#45;&gt;0xc6588f2d -->
<g id="edge36" class="edge">
<title>0x39d6a1b4&#45;&gt;0xc6588f2d:m</title>
<path fill="none" stroke="#444444" stroke-dasharray="5,2" d="M773.85,-435.24C769.21,-428.9 754,-408.17 743.57,-393.95"/>
<polygon fill="#444444" stroke="#444444" points="744.9,-393.39 741.4,-391 742.64,-395.05 744.9,-393.39"/>
<text xml:space="preserve" text-anchor="middle" x="771.86" y="-414.66" font-family="Times New Roman,serif" font-size="8.00"> uo3 </text>
</g>
<!-- 0x9c1a5458&#45;&gt;0x7ade2a88 -->
<g id="edge38" class="edge">
<title>0x9c1a5458&#45;&gt;0x7ade2a88:m</title>
<path fill="none" stroke="#444444" stroke-dasharray="5,2" d="M894.88,-435.24C896.95,-429.01 903.63,-408.88 908.34,-394.7"/>
<polygon fill="#444444" stroke="#444444" points="909.56,-395.45 909.49,-391.21 906.9,-394.57 909.56,-395.45"/>
<text xml:space="preserve" text-anchor="middle" x="909.92" y="-414.66" font-family="Times New Roman,serif" font-size="8.00"> uo3 </text>
</g>
<!-- 0xc1d47ad7 -->
<g id="node36" class="node">
<title>0xc1d47ad7</title>
<path fill="#f0fdf4" stroke="none" d="M33.75,-127.88C33.75,-127.88 90.75,-127.88 90.75,-127.88 94.5,-127.88 98.25,-131.63 98.25,-135.38 98.25,-135.38 98.25,-142.88 98.25,-142.88 98.25,-146.63 94.5,-150.38 90.75,-150.38 90.75,-150.38 33.75,-150.38 33.75,-150.38 30,-150.38 26.25,-146.63 26.25,-142.88 26.25,-142.88 26.25,-135.38 26.25,-135.38 26.25,-131.63 30,-127.88 33.75,-127.88"/>
<path fill="none" stroke="#166534" d="M33.75,-127.88C33.75,-127.88 90.75,-127.88 90.75,-127.88 94.5,-127.88 98.25,-131.63 98.25,-135.38 98.25,-135.38 98.25,-142.88 98.25,-142.88 98.25,-146.63 94.5,-150.38 90.75,-150.38 90.75,-150.38 33.75,-150.38 33.75,-150.38 30,-150.38 26.25,-146.63 26.25,-142.88 26.25,-142.88 26.25,-135.38 26.25,-135.38 26.25,-131.63 30,-127.88 33.75,-127.88"/>
<text xml:space="preserve" text-anchor="start" x="29.25" y="-135.08" font-family="Times New Roman,serif" font-weight="bold" font-size="14.00">S1, A1, 5, 0</text>
<text xml:space="preserve" text-anchor="middle" x="13.12" y="-160.33" font-family="Times New Roman,serif" font-size="14.00">ye20</text>
</g>
<!-- 0x1545b75d -->
<g id="node37" class="node">
<title>0x1545b75d</title>
<path fill="#f0fdf4" stroke="none" d="M123.75,-127.88C123.75,-127.88 180.75,-127.88 180.75,-127.88 184.5,-127.88 188.25,-131.63 188.25,-135.38 188.25,-135.38 188.25,-142.88 188.25,-142.88 188.25,-146.63 184.5,-150.38 180.75,-150.38 180.75,-150.38 123.75,-150.38 123.75,-150.38 120,-150.38 116.25,-146.63 116.25,-142.88 116.25,-142.88 116.25,-135.38 116.25,-135.38 116.25,-131.63 120,-127.88 123.75,-127.88"/>
<path fill="none" stroke="#166534" d="M123.75,-127.88C123.75,-127.88 180.75,-127.88 180.75,-127.88 184.5,-127.88 188.25,-131.63 188.25,-135.38 188.25,-135.38 188.25,-142.88 188.25,-142.88 188.25,-146.63 184.5,-150.38 180.75,-150.38 180.75,-150.38 123.75,-150.38 123.75,-150.38 120,-150.38 116.25,-146.63 116.25,-142.88 116.25,-142.88 116.25,-135.38 116.25,-135.38 116.25,-131.63 120,-127.88 123.75,-127.88"/>
<text xml:space="preserve" text-anchor="start" x="119.25" y="-135.08" font-family="Times New Roman,serif" font-weight="bold" font-size="14.00">S7, A1, 5, 1</text>
<text xml:space="preserve" text-anchor="middle" x="103.12" y="-160.33" font-family="Times New Roman,serif" font-size="14.00">ye21</text>
</g>
<!-- 0x5e1ff7ab -->
<g id="node38" class="node">
<title>0x5e1ff7ab</title>
<path fill="#f0fdf4" stroke="none" d="M423.75,-127.88C423.75,-127.88 480.75,-127.88 480.75,-127.88 484.5,-127.88 488.25,-131.63 488.25,-135.38 488.25,-135.38 488.25,-142.88 488.25,-142.88 488.25,-146.63 484.5,-150.38 480.75,-150.38 480.75,-150.38 423.75,-150.38 423.75,-150.38 420,-150.38 416.25,-146.63 416.25,-142.88 416.25,-142.88 416.25,-135.38 416.25,-135.38 416.25,-131.63 420,-127.88 423.75,-127.88"/>
<path fill="none" stroke="#166534" d="M423.75,-127.88C423.75,-127.88 480.75,-127.88 480.75,-127.88 484.5,-127.88 488.25,-131.63 488.25,-135.38 488.25,-135.38 488.25,-142.88 488.25,-142.88 488.25,-146.63 484.5,-150.38 480.75,-150.38 480.75,-150.38 423.75,-150.38 423.75,-150.38 420,-150.38 416.25,-146.63 416.25,-142.88 416.25,-142.88 416.25,-135.38 416.25,-135.38 416.25,-131.63 420,-127.88 423.75,-127.88"/>
<text xml:space="preserve" text-anchor="start" x="419.25" y="-135.08" font-family="Times New Roman,serif" font-weight="bold" font-size="14.00">S8, A1, 5, 2</text>
<text xml:space="preserve" text-anchor="middle" x="403.12" y="-160.33" font-family="Times New Roman,serif" font-size="14.00">ye22</text>
</g>
<!-- 0x5506e381&#45;&gt;0xc1d47ad7 -->
<g id="edge40" class="edge">
<title>0x5506e381&#45;&gt;0xc1d47ad7:m</title>
<path fill="none" stroke="#444444" stroke-dasharray="5,2" d="M199.82,-198.36C187.1,-192.97 127.4,-167.71 90.95,-152.28"/>
<polygon fill="#444444" stroke="#444444" points="91.81,-151.13 87.58,-150.86 90.72,-153.7 91.81,-151.13"/>
<text xml:space="preserve" text-anchor="middle" x="160.5" y="-174.91" font-family="Times New Roman,serif" font-size="8.00"> ε </text>
</g>
<!-- 0x5506e381&#45;&gt;0x1545b75d -->
<g id="edge41" class="edge">
<title>0x5506e381&#45;&gt;0x1545b75d:m</title>
<path fill="none" stroke="#444444" stroke-dasharray="5,2" d="M200.81,-197.68C195.48,-191.36 176.57,-168.96 163.98,-154.04"/>
<polygon fill="#444444" stroke="#444444" points="165.24,-153.36 161.59,-151.2 163.1,-155.16 165.24,-153.36"/>
<text xml:space="preserve" text-anchor="middle" x="179.25" y="-174.91" font-family="Times New Roman,serif" font-size="8.00"> o3 </text>
</g>
<!-- 0x5506e381&#45;&gt;0x5e1ff7ab -->
<g id="edge42" class="edge">
<title>0x5506e381&#45;&gt;0x5e1ff7ab:m</title>
<path fill="none" stroke="#444444" stroke-dasharray="5,2" d="M204.72,-198.8C223.63,-194.32 346.23,-165.26 411.5,-149.79"/>
<polygon fill="#444444" stroke="#444444" points="411.44,-151.25 415.01,-148.96 410.79,-148.52 411.44,-151.25"/>
<text xml:space="preserve" text-anchor="middle" x="378.47" y="-174.91" font-family="Times New Roman,serif" font-size="8.00"> o2 </text>
</g>
<!-- 0x3515b8fb&#45;&gt;0x905323a9 -->
<g id="edge44" class="edge">
<title>0x3515b8fb&#45;&gt;0x905323a9:m</title>
<path fill="none" stroke="#444444" stroke-dasharray="5,2" d="M873.65,-198.07C879.4,-192.64 901.35,-171.93 910.36,-163.43"/>
<polygon fill="#444444" stroke="#444444" points="911.2,-164.56 913.15,-160.8 909.28,-162.53 911.2,-164.56"/>
<text xml:space="preserve" text-anchor="middle" x="897.5" y="-174.91" font-family="Times New Roman,serif" font-size="8.00"> ε </text>
</g>
<!-- 0x3515b8fb&#45;&gt;0xc4d8bf04 -->
<g id="edge45" class="edge">
<title>0x3515b8fb&#45;&gt;0xc4d8bf04:m</title>
<path fill="none" stroke="#444444" stroke-dasharray="5,2" d="M874.23,-198.32C885.85,-192.1 945.13,-160.35 962.48,-151.07"/>
<polygon fill="#444444" stroke="#444444" points="963.05,-152.35 965.92,-149.22 961.73,-149.88 963.05,-152.35"/>
<text xml:space="preserve" text-anchor="middle" x="934.63" y="-174.91" font-family="Times New Roman,serif" font-size="8.00"> o3 </text>
</g>
<!-- 0x3515b8fb&#45;&gt;0xa6b2d5f6 -->
<g id="edge46" class="edge">
<title>0x3515b8fb&#45;&gt;0xa6b2d5f6:m</title>
<path fill="none" stroke="#444444" stroke-dasharray="5,2" d="M871.78,-197.2C870.15,-189.67 864.74,-164.66 862.38,-153.72"/>
<polygon fill="#444444" stroke="#444444" points="863.78,-153.6 861.57,-149.99 861.05,-154.19 863.78,-153.6"/>
<text xml:space="preserve" text-anchor="middle" x="874.38" y="-174.91" font-family="Times New Roman,serif" font-size="8.00"> o2 </text>
</g>
<!-- 0xc089c1f7 -->
<g id="node41" class="node">
<title>0xc089c1f7</title>
<path fill="#fff1f2" stroke="none" d="M214.12,-127.88C214.12,-127.88 300.38,-127.88 300.38,-127.88 304.12,-127.88 307.88,-131.63 307.88,-135.38 307.88,-135.38 307.88,-142.88 307.88,-142.88 307.88,-146.63 304.12,-150.38 300.38,-150.38 300.38,-150.38 214.12,-150.38 214.12,-150.38 210.38,-150.38 206.62,-146.63 206.62,-142.88 206.62,-142.88 206.62,-135.38 206.62,-135.38 206.62,-131.63 210.38,-127.88 214.12,-127.88"/>
<path fill="none" stroke="#9f1239" d="M214.12,-127.88C214.12,-127.88 300.38,-127.88 300.38,-127.88 304.12,-127.88 307.88,-131.63 307.88,-135.38 307.88,-135.38 307.88,-142.88 307.88,-142.88 307.88,-146.63 304.12,-150.38 300.38,-150.38 300.38,-150.38 214.12,-150.38 214.12,-150.38 210.38,-150.38 206.62,-146.63 206.62,-142.88 206.62,-142.88 206.62,-135.38 206.62,-135.38 206.62,-131.63 210.38,-127.88 214.12,-127.88"/>
<text xml:space="preserve" text-anchor="start" x="209.62" y="-135.08" font-family="Times New Roman,serif" font-weight="bold" font-size="14.00">AX, A1, 5, z_det</text>
<text xml:space="preserve" text-anchor="middle" x="193.5" y="-160.33" font-family="Times New Roman,serif" font-size="14.00">ye23</text>
</g>
<!-- 0x492497a5 -->
<g id="node42" class="node">
<title>0x492497a5</title>
<path fill="#f0fdf4" stroke="none" d="M333.75,-127.88C333.75,-127.88 390.75,-127.88 390.75,-127.88 394.5,-127.88 398.25,-131.63 398.25,-135.38 398.25,-135.38 398.25,-142.88 398.25,-142.88 398.25,-146.63 394.5,-150.38 390.75,-150.38 390.75,-150.38 333.75,-150.38 333.75,-150.38 330,-150.38 326.25,-146.63 326.25,-142.88 326.25,-142.88 326.25,-135.38 326.25,-135.38 326.25,-131.63 330,-127.88 333.75,-127.88"/>
<path fill="none" stroke="#166534" d="M333.75,-127.88C333.75,-127.88 390.75,-127.88 390.75,-127.88 394.5,-127.88 398.25,-131.63 398.25,-135.38 398.25,-135.38 398.25,-142.88 398.25,-142.88 398.25,-146.63 394.5,-150.38 390.75,-150.38 390.75,-150.38 333.75,-150.38 333.75,-150.38 330,-150.38 326.25,-146.63 326.25,-142.88 326.25,-142.88 326.25,-135.38 326.25,-135.38 326.25,-131.63 330,-127.88 333.75,-127.88"/>
<text xml:space="preserve" text-anchor="start" x="329.25" y="-135.08" font-family="Times New Roman,serif" font-weight="bold" font-size="14.00">S4, A1, 5, 1</text>
<text xml:space="preserve" text-anchor="middle" x="313.12" y="-160.33" font-family="Times New Roman,serif" font-size="14.00">ye24</text>
</g>
<!-- 0x9c7ca1e2&#45;&gt;0x1545b75d -->
<g id="edge48" class="edge">
<title>0x9c7ca1e2&#45;&gt;0x1545b75d:m</title>
<path fill="none" stroke="#444444" stroke-dasharray="5,2" d="M306.78,-198.45C293.09,-193.29 225.55,-167.8 184.42,-152.28"/>
<polygon fill="#444444" stroke="#444444" points="184.95,-150.98 180.71,-150.88 183.96,-153.6 184.95,-150.98"/>
<text xml:space="preserve" text-anchor="middle" x="263.71" y="-174.91" font-family="Times New Roman,serif" font-size="8.00"> ε </text>
</g>
<!-- 0x9c7ca1e2&#45;&gt;0xc089c1f7 -->
<g id="edge49" class="edge">
<title>0x9c7ca1e2&#45;&gt;0xc089c1f7:m</title>
<path fill="none" stroke="#444444" stroke-dasharray="5,2" d="M307.75,-197.68C302.21,-191.36 282.54,-168.96 269.45,-154.04"/>
<polygon fill="#444444" stroke="#444444" points="270.64,-153.27 266.95,-151.19 268.53,-155.12 270.64,-153.27"/>
<text xml:space="preserve" text-anchor="middle" x="299.88" y="-174.91" font-family="Times New Roman,serif" font-size="8.00"> o3 </text>
</g>
<!-- 0x9c7ca1e2&#45;&gt;0x492497a5 -->
<g id="edge50" class="edge">
<title>0x9c7ca1e2&#45;&gt;0x492497a5:m</title>
<path fill="none" stroke="#444444" stroke-dasharray="5,2" d="M310.78,-197.68C316.43,-191.36 336.47,-168.96 349.81,-154.04"/>
<polygon fill="#444444" stroke="#444444" points="350.75,-155.09 352.37,-151.18 348.66,-153.22 350.75,-155.09"/>
<text xml:space="preserve" text-anchor="middle" x="338.58" y="-174.91" font-family="Times New Roman,serif" font-size="8.00"> o2 </text>
</g>
<!-- 0x83800a6e -->
<g id="node44" class="node">
<title>0x83800a6e</title>
<path fill="#fff1f2" stroke="none" d="M514.12,-127.88C514.12,-127.88 576.38,-127.88 576.38,-127.88 580.12,-127.88 583.88,-131.63 583.88,-135.38 583.88,-135.38 583.88,-142.88 583.88,-142.88 583.88,-146.63 580.12,-150.38 576.38,-150.38 576.38,-150.38 514.12,-150.38 514.12,-150.38 510.38,-150.38 506.62,-146.63 506.62,-142.88 506.62,-142.88 506.62,-135.38 506.62,-135.38 506.62,-131.63 510.38,-127.88 514.12,-127.88"/>
<path fill="none" stroke="#9f1239" d="M514.12,-127.88C514.12,-127.88 576.38,-127.88 576.38,-127.88 580.12,-127.88 583.88,-131.63 583.88,-135.38 583.88,-135.38 583.88,-142.88 583.88,-142.88 583.88,-146.63 580.12,-150.38 576.38,-150.38 576.38,-150.38 514.12,-150.38 514.12,-150.38 510.38,-150.38 506.62,-146.63 506.62,-142.88 506.62,-142.88 506.62,-135.38 506.62,-135.38 506.62,-131.63 510.38,-127.88 514.12,-127.88"/>
<text xml:space="preserve" text-anchor="start" x="509.62" y="-135.08" font-family="Times New Roman,serif" font-weight="bold" font-size="14.00">AX, A1, 5, 2</text>
<text xml:space="preserve" text-anchor="middle" x="493.5" y="-160.33" font-family="Times New Roman,serif" font-size="14.00">ye25</text>
</g>
<!-- 0x313e713d&#45;&gt;0x5e1ff7ab -->
<g id="edge52" class="edge">
<title>0x313e713d&#45;&gt;0x5e1ff7ab:m</title>
<path fill="none" stroke="#444444" stroke-dasharray="5,2" d="M542.33,-198.15C533.52,-192.48 496.44,-168.59 472.69,-153.3"/>
<polygon fill="#444444" stroke="#444444" points="473.52,-152.17 469.4,-151.18 472,-154.52 473.52,-152.17"/>
<text xml:space="preserve" text-anchor="middle" x="520.5" y="-174.91" font-family="Times New Roman,serif" font-size="8.00"> ε </text>
</g>
<!-- 0x313e713d&#45;&gt;0x83800a6e -->
<g id="edge53" class="edge">
<title>0x313e713d&#45;&gt;0x83800a6e:m</title>
<path fill="none" stroke="#444444" stroke-dasharray="5,2" d="M544.28,-197.41C544.39,-191.03 544.74,-170.5 544.98,-155.85"/>
<polygon fill="#444444" stroke="#444444" points="546.38,-155.91 545.05,-151.88 543.58,-155.86 546.38,-155.91"/>
<text xml:space="preserve" text-anchor="middle" x="534.25" y="-174.91" font-family="Times New Roman,serif" font-size="8.00"> o3 </text>
</g>
<!-- 0x313e713d&#45;&gt;0x83800a6e -->
<g id="edge54" class="edge">
<title>0x313e713d&#45;&gt;0x83800a6e:m</title>
<path fill="none" stroke="#444444" stroke-dasharray="5,2" d="M544.28,-197.41C544.39,-191.03 544.74,-170.5 544.98,-155.85"/>
<polygon fill="#444444" stroke="#444444" points="546.38,-155.91 545.05,-151.88 543.58,-155.86 546.38,-155.91"/>
<text xml:space="preserve" text-anchor="middle" x="550.69" y="-174.91" font-family="Times New Roman,serif" font-size="8.00"> o2 </text>
</g>
<!-- 0xee73027a -->
<g id="node46" class="node">
<title>0xee73027a</title>
<path fill="#f8f9fa" stroke="none" d="M609.75,-137.26C609.75,-137.26 666.75,-137.26 666.75,-137.26 670.5,-137.26 674.25,-141.01 674.25,-144.76 674.25,-144.76 674.25,-152.26 674.25,-152.26 674.25,-156.01 670.5,-159.76 666.75,-159.76 666.75,-159.76 609.75,-159.76 609.75,-159.76 606,-159.76 602.25,-156.01 602.25,-152.26 602.25,-152.26 602.25,-144.76 602.25,-144.76 602.25,-141.01 606,-137.26 609.75,-137.26"/>
<path fill="none" stroke="#333333" d="M609.75,-137.26C609.75,-137.26 666.75,-137.26 666.75,-137.26 670.5,-137.26 674.25,-141.01 674.25,-144.76 674.25,-144.76 674.25,-152.26 674.25,-152.26 674.25,-156.01 670.5,-159.76 666.75,-159.76 666.75,-159.76 609.75,-159.76 609.75,-159.76 606,-159.76 602.25,-156.01 602.25,-152.26 602.25,-152.26 602.25,-144.76 602.25,-144.76 602.25,-141.01 606,-137.26 609.75,-137.26"/>
<text xml:space="preserve" text-anchor="start" x="605.25" y="-144.46" font-family="Times New Roman,serif" font-weight="bold" font-size="14.00">S8, A4, 4, 2</text>
<text xml:space="preserve" text-anchor="start" x="632.62" y="-122.06" font-family="Times New Roman,serif" font-size="16.00">...</text>
<text xml:space="preserve" text-anchor="middle" x="589.12" y="-162.96" font-family="Times New Roman,serif" font-size="14.00">ye26</text>
</g>
<!-- 0x92106b11 -->
<g id="node47" class="node">
<title>0x92106b11</title>
<path fill="#fff1f2" stroke="none" d="M700.12,-127.88C700.12,-127.88 762.38,-127.88 762.38,-127.88 766.12,-127.88 769.88,-131.63 769.88,-135.38 769.88,-135.38 769.88,-142.88 769.88,-142.88 769.88,-146.63 766.12,-150.38 762.38,-150.38 762.38,-150.38 700.12,-150.38 700.12,-150.38 696.38,-150.38 692.62,-146.63 692.62,-142.88 692.62,-142.88 692.62,-135.38 692.62,-135.38 692.62,-131.63 696.38,-127.88 700.12,-127.88"/>
<path fill="none" stroke="#9f1239" d="M700.12,-127.88C700.12,-127.88 762.38,-127.88 762.38,-127.88 766.12,-127.88 769.88,-131.63 769.88,-135.38 769.88,-135.38 769.88,-142.88 769.88,-142.88 769.88,-146.63 766.12,-150.38 762.38,-150.38 762.38,-150.38 700.12,-150.38 700.12,-150.38 696.38,-150.38 692.62,-146.63 692.62,-142.88 692.62,-142.88 692.62,-135.38 692.62,-135.38 692.62,-131.63 696.38,-127.88 700.12,-127.88"/>
<text xml:space="preserve" text-anchor="start" x="695.62" y="-135.08" font-family="Times New Roman,serif" font-weight="bold" font-size="14.00">AX, A4, 4, 2</text>
<text xml:space="preserve" text-anchor="middle" x="679.5" y="-160.33" font-family="Times New Roman,serif" font-size="14.00">ye27</text>
</g>
<!-- 0x42616cfa&#45;&gt;0xee73027a -->
<g id="edge56" class="edge">
<title>0x42616cfa&#45;&gt;0xee73027a:m</title>
<path fill="none" stroke="#444444" stroke-dasharray="5,2" d="M670.79,-197.68C665.76,-191.82 649.04,-172.34 641.73,-163.81"/>
<polygon fill="#444444" stroke="#444444" points="642.9,-163.03 639.24,-160.91 640.78,-164.86 642.9,-163.03"/>
<text xml:space="preserve" text-anchor="middle" x="650.5" y="-174.91" font-family="Times New Roman,serif" font-size="8.00"> ε </text>
</g>
<!-- 0x42616cfa&#45;&gt;0x92106b11 -->
<g id="edge57" class="edge">
<title>0x42616cfa&#45;&gt;0x92106b11:m</title>
<path fill="none" stroke="#444444" stroke-dasharray="5,2" d="M673.95,-197.68C680.29,-191.31 702.93,-168.57 717.79,-153.66"/>
<polygon fill="#444444" stroke="#444444" points="718.48,-154.94 720.31,-151.12 716.5,-152.97 718.48,-154.94"/>
<text xml:space="preserve" text-anchor="middle" x="690.25" y="-174.91" font-family="Times New Roman,serif" font-size="8.00"> o3 </text>
</g>
<!-- 0x42616cfa&#45;&gt;0x92106b11 -->
<g id="edge58" class="edge">
<title>0x42616cfa&#45;&gt;0x92106b11:m</title>
<path fill="none" stroke="#444444" stroke-dasharray="5,2" d="M673.95,-197.68C680.29,-191.31 702.93,-168.57 717.79,-153.66"/>
<polygon fill="#444444" stroke="#444444" points="718.48,-154.94 720.31,-151.12 716.5,-152.97 718.48,-154.94"/>
<text xml:space="preserve" text-anchor="middle" x="709.81" y="-174.91" font-family="Times New Roman,serif" font-size="8.00"> o2 </text>
</g>
<!-- 0x51729f97 -->
<g id="node49" class="node">
<title>0x51729f97</title>
<path fill="#f8f9fa" stroke="none" d="M840.75,-18.75C840.75,-18.75 897.75,-18.75 897.75,-18.75 901.5,-18.75 905.25,-22.5 905.25,-26.25 905.25,-26.25 905.25,-33.75 905.25,-33.75 905.25,-37.5 901.5,-41.25 897.75,-41.25 897.75,-41.25 840.75,-41.25 840.75,-41.25 837,-41.25 833.25,-37.5 833.25,-33.75 833.25,-33.75 833.25,-26.25 833.25,-26.25 833.25,-22.5 837,-18.75 840.75,-18.75"/>
<path fill="none" stroke="#333333" d="M840.75,-18.75C840.75,-18.75 897.75,-18.75 897.75,-18.75 901.5,-18.75 905.25,-22.5 905.25,-26.25 905.25,-26.25 905.25,-33.75 905.25,-33.75 905.25,-37.5 901.5,-41.25 897.75,-41.25 897.75,-41.25 840.75,-41.25 840.75,-41.25 837,-41.25 833.25,-37.5 833.25,-33.75 833.25,-33.75 833.25,-26.25 833.25,-26.25 833.25,-22.5 837,-18.75 840.75,-18.75"/>
<text xml:space="preserve" text-anchor="start" x="836.25" y="-25.95" font-family="Times New Roman,serif" font-weight="bold" font-size="14.00">S1, A5, 1, 0</text>
<text xml:space="preserve" text-anchor="start" x="863.62" y="-3.55" font-family="Times New Roman,serif" font-size="16.00">...</text>
<text xml:space="preserve" text-anchor="middle" x="820.12" y="-44.45" font-family="Times New Roman,serif" font-size="14.00">ye28</text>
</g>
<!-- 0xa4e3dc1d -->
<g id="node50" class="node">
<title>0xa4e3dc1d</title>
<path fill="#f8f9fa" stroke="none" d="M930.75,-18.75C930.75,-18.75 987.75,-18.75 987.75,-18.75 991.5,-18.75 995.25,-22.5 995.25,-26.25 995.25,-26.25 995.25,-33.75 995.25,-33.75 995.25,-37.5 991.5,-41.25 987.75,-41.25 987.75,-41.25 930.75,-41.25 930.75,-41.25 927,-41.25 923.25,-37.5 923.25,-33.75 923.25,-33.75 923.25,-26.25 923.25,-26.25 923.25,-22.5 927,-18.75 930.75,-18.75"/>
<path fill="none" stroke="#333333" d="M930.75,-18.75C930.75,-18.75 987.75,-18.75 987.75,-18.75 991.5,-18.75 995.25,-22.5 995.25,-26.25 995.25,-26.25 995.25,-33.75 995.25,-33.75 995.25,-37.5 991.5,-41.25 987.75,-41.25 987.75,-41.25 930.75,-41.25 930.75,-41.25 927,-41.25 923.25,-37.5 923.25,-33.75 923.25,-33.75 923.25,-26.25 923.25,-26.25 923.25,-22.5 927,-18.75 930.75,-18.75"/>
<text xml:space="preserve" text-anchor="start" x="926.25" y="-25.95" font-family="Times New Roman,serif" font-weight="bold" font-size="14.00">S7, A5, 1, 1</text>
<text xml:space="preserve" text-anchor="start" x="953.62" y="-3.55" font-family="Times New Roman,serif" font-size="16.00">...</text>
<text xml:space="preserve" text-anchor="middle" x="910.12" y="-44.45" font-family="Times New Roman,serif" font-size="14.00">ye29</text>
</g>
<!-- 0x41b991aa&#45;&gt;0x51729f97 -->
<g id="edge60" class="edge">
<title>0x41b991aa&#45;&gt;0x51729f97:m</title>
<path fill="none" stroke="#444444" stroke-dasharray="5,2" d="M912.75,-77.63C906.59,-72.48 883.07,-52.8 873.42,-44.74"/>
<polygon fill="#444444" stroke="#444444" points="874.38,-43.71 870.41,-42.22 872.58,-45.86 874.38,-43.71"/>
<text xml:space="preserve" text-anchor="middle" x="899.53" y="-56.4" font-family="Times New Roman,serif" font-size="8.00"> ε </text>
</g>
<!-- 0x41b991aa&#45;&gt;0xa4e3dc1d -->
<g id="edge61" class="edge">
<title>0x41b991aa&#45;&gt;0xa4e3dc1d:m</title>
<path fill="none" stroke="#444444" stroke-dasharray="5,2" d="M915.75,-77.63C921.91,-72.48 945.43,-52.8 955.08,-44.74"/>
<polygon fill="#444444" stroke="#444444" points="955.92,-45.86 958.09,-42.22 954.12,-43.71 955.92,-45.86"/>
<text xml:space="preserve" text-anchor="middle" x="949.41" y="-56.4" font-family="Times New Roman,serif" font-size="8.00"> o3 </text>
</g>
<!-- start -->
<g id="node52" class="node">
<title>start</title>
</g>
<!-- start&#45;&gt;0x46ac07f4 -->
<g id="edge62" class="edge">
<title>start&#45;&gt;0x46ac07f4:m</title>
<path fill="none" stroke="black" d="M721.25,-766.16C721.25,-764.68 721.25,-750.47 721.25,-738.62"/>
<polygon fill="black" stroke="black" points="723,-738.88 721.25,-733.88 719.5,-738.88 723,-738.88"/>
</g>
</g>
</svg>
