<?xml version="1.0" encoding="UTF-8" standalone="no"?>
<!DOCTYPE svg PUBLIC "-//W3C//DTD SVG 1.1//EN"
 "http://www.w3.org/Graphics/SVG/1.1/DTD/svg11.dtd">
<!-- Generated by graphviz version 2.43.0 (0)
 -->
<!-- Title: %3 Pages: 1 -->
<svg width="907pt" height="762pt"
 viewBox="0.00 0.00 907.00 762.00" xmlns="http://www.w3.org/2000/svg" xmlns:xlink="http://www.w3.org/1999/xlink">
<g id="graph0" class="graph" transform="scale(1 1) rotate(0) translate(4 758)">
<title>%3</title>
<polygon fill="white" stroke="transparent" points="-4,4 -4,-758 903,-758 903,4 -4,4"/>
<!-- 0x46ac07f4 -->
<g id="node1" class="node">
<title>0x46ac07f4</title>
<path fill="#f8f9fa" stroke="transparent" d="M455,-697C455,-697 514,-697 514,-697 517.5,-697 521,-700.5 521,-704 521,-704 521,-711 521,-711 521,-714.5 517.5,-718 514,-718 514,-718 455,-718 455,-718 451.5,-718 448,-714.5 448,-711 448,-711 448,-704 448,-704 448,-700.5 451.5,-697 455,-697"/>
<path fill="none" stroke="#333333" d="M455,-697C455,-697 514,-697 514,-697 517.5,-697 521,-700.5 521,-704 521,-704 521,-711 521,-711 521,-714.5 517.5,-718 514,-718 514,-718 455,-718 455,-718 451.5,-718 448,-714.5 448,-711 448,-711 448,-704 448,-704 448,-700.5 451.5,-697 455,-697"/>
<text text-anchor="start" x="451" y="-704.8" font-family="Times,serif" font-weight="bold" font-size="14.00">S1, A7, 0, 0</text>
<text text-anchor="middle" x="437.5" y="-729.8" font-family="Times,serif" font-size="14.00">ye0</text>
</g>
<!-- 0x2fd277db -->
<g id="node3" class="node">
<title>0x2fd277db</title>
<ellipse fill="white" stroke="black" stroke-width="0.7" cx="409" cy="-652" rx="3" ry="3"/>
</g>
<!-- 0x46ac07f4&#45;&gt;0x2fd277db -->
<g id="edge1" class="edge">
<title>0x46ac07f4:m&#45;&gt;0x2fd277db</title>
<path fill="none" stroke="#444444" d="M471.76,-696.77C454.8,-684.94 426.17,-664.97 414.35,-656.73"/>
<polygon fill="#444444" stroke="#444444" points="415.11,-655.55 411.03,-654.41 413.51,-657.85 415.11,-655.55"/>
<text text-anchor="middle" x="449.5" y="-670.6" font-family="Times,serif" font-size="8.00"> o1 </text>
</g>
<!-- 0xa6199f68 -->
<g id="node7" class="node">
<title>0xa6199f68</title>
<ellipse fill="white" stroke="black" stroke-width="0.7" cx="485" cy="-652" rx="3" ry="3"/>
</g>
<!-- 0x46ac07f4&#45;&gt;0xa6199f68 -->
<g id="edge3" class="edge">
<title>0x46ac07f4:m&#45;&gt;0xa6199f68</title>
<path fill="none" stroke="#444444" d="M485,-696.77C485,-686.06 485,-668.69 485,-659.38"/>
<polygon fill="#444444" stroke="#444444" points="486.4,-659.32 485,-655.32 483.6,-659.32 486.4,-659.32"/>
<text text-anchor="middle" x="491.5" y="-670.6" font-family="Times,serif" font-size="8.00"> o2 </text>
</g>
<!-- 0xc19111f0 -->
<g id="node11" class="node">
<title>0xc19111f0</title>
<ellipse fill="white" stroke="black" stroke-width="0.7" cx="639" cy="-428" rx="3" ry="3"/>
</g>
<!-- 0x46ac07f4&#45;&gt;0xc19111f0 -->
<g id="edge7" class="edge">
<title>0x46ac07f4:m&#45;&gt;0xc19111f0</title>
<path fill="none" stroke="#444444" d="M496.15,-696.79C531.69,-664.23 640,-565 640,-565 640,-565 639.27,-464.45 639.06,-435.63"/>
<polygon fill="#444444" stroke="#444444" points="640.45,-435.38 639.02,-431.39 637.65,-435.4 640.45,-435.38"/>
<text text-anchor="middle" x="646.5" y="-558.6" font-family="Times,serif" font-size="8.00"> o3 </text>
</g>
<!-- 0x8e7109f3 -->
<g id="node2" class="node">
<title>0x8e7109f3</title>
<path fill="#f8f9fa" stroke="transparent" d="M273,-585C273,-585 332,-585 332,-585 335.5,-585 339,-588.5 339,-592 339,-592 339,-599 339,-599 339,-602.5 335.5,-606 332,-606 332,-606 273,-606 273,-606 269.5,-606 266,-602.5 266,-599 266,-599 266,-592 266,-592 266,-588.5 269.5,-585 273,-585"/>
<path fill="none" stroke="#333333" d="M273,-585C273,-585 332,-585 332,-585 335.5,-585 339,-588.5 339,-592 339,-592 339,-599 339,-599 339,-602.5 335.5,-606 332,-606 332,-606 273,-606 273,-606 269.5,-606 266,-602.5 266,-599 266,-599 266,-592 266,-592 266,-588.5 269.5,-585 273,-585"/>
<text text-anchor="start" x="269" y="-592.8" font-family="Times,serif" font-weight="bold" font-size="14.00">S2, A7, 1, 0</text>
<text text-anchor="middle" x="255.5" y="-617.8" font-family="Times,serif" font-size="14.00">ye1</text>
</g>
<!-- 0xf7ec581a -->
<g id="node13" class="node">
<title>0xf7ec581a</title>
<ellipse fill="white" stroke="black" stroke-width="0.7" cx="303" cy="-540" rx="3" ry="3"/>
</g>
<!-- 0x8e7109f3&#45;&gt;0xf7ec581a -->
<g id="edge11" class="edge">
<title>0x8e7109f3:m&#45;&gt;0xf7ec581a</title>
<path fill="none" stroke="#444444" d="M303,-584.77C303,-574.06 303,-556.69 303,-547.38"/>
<polygon fill="#444444" stroke="#444444" points="304.4,-547.32 303,-543.32 301.6,-547.32 304.4,-547.32"/>
<text text-anchor="middle" x="311" y="-558.6" font-family="Times,serif" font-size="8.00"> uo2 </text>
</g>
<!-- 0x2fd277db&#45;&gt;0x8e7109f3 -->
<g id="edge2" class="edge">
<title>0x2fd277db&#45;&gt;0x8e7109f3:m</title>
<path fill="none" stroke="#444444" stroke-dasharray="5,2" d="M406.79,-649.85C396.6,-644.57 353.57,-622.24 326.22,-608.05"/>
<polygon fill="#444444" stroke="#444444" points="326.83,-606.79 322.63,-606.19 325.54,-609.27 326.83,-606.79"/>
<text text-anchor="middle" x="384.5" y="-629.6" font-family="Times,serif" font-size="8.00"> o1 </text>
</g>
<!-- 0x18921e5b -->
<g id="node4" class="node">
<title>0x18921e5b</title>
<path fill="#f8f9fa" stroke="transparent" d="M455,-585C455,-585 514,-585 514,-585 517.5,-585 521,-588.5 521,-592 521,-592 521,-599 521,-599 521,-602.5 517.5,-606 514,-606 514,-606 455,-606 455,-606 451.5,-606 448,-602.5 448,-599 448,-599 448,-592 448,-592 448,-588.5 451.5,-585 455,-585"/>
<path fill="none" stroke="#333333" d="M455,-585C455,-585 514,-585 514,-585 517.5,-585 521,-588.5 521,-592 521,-592 521,-599 521,-599 521,-602.5 517.5,-606 514,-606 514,-606 455,-606 455,-606 451.5,-606 448,-602.5 448,-599 448,-599 448,-592 448,-592 448,-588.5 451.5,-585 455,-585"/>
<text text-anchor="start" x="451" y="-592.8" font-family="Times,serif" font-weight="bold" font-size="14.00">S7, A0, 3, 1</text>
<text text-anchor="middle" x="437.5" y="-617.8" font-family="Times,serif" font-size="14.00">ye2</text>
</g>
<!-- 0x5dc0496d -->
<g id="node15" class="node">
<title>0x5dc0496d</title>
<ellipse fill="white" stroke="black" stroke-width="0.7" cx="485" cy="-540" rx="3" ry="3"/>
</g>
<!-- 0x18921e5b&#45;&gt;0x5dc0496d -->
<g id="edge13" class="edge">
<title>0x18921e5b:m&#45;&gt;0x5dc0496d</title>
<path fill="none" stroke="#444444" d="M485,-584.77C485,-574.06 485,-556.69 485,-547.38"/>
<polygon fill="#444444" stroke="#444444" points="486.4,-547.32 485,-543.32 483.6,-547.32 486.4,-547.32"/>
<text text-anchor="middle" x="491.5" y="-558.6" font-family="Times,serif" font-size="8.00"> o4 </text>
</g>
<!-- 0x640c8300 -->
<g id="node5" class="node">
<title>0x640c8300</title>
<path fill="#f8f9fa" stroke="transparent" d="M546,-585C546,-585 605,-585 605,-585 608.5,-585 612,-588.5 612,-592 612,-592 612,-599 612,-599 612,-602.5 608.5,-606 605,-606 605,-606 546,-606 546,-606 542.5,-606 539,-602.5 539,-599 539,-599 539,-592 539,-592 539,-588.5 542.5,-585 546,-585"/>
<path fill="none" stroke="#333333" d="M546,-585C546,-585 605,-585 605,-585 608.5,-585 612,-588.5 612,-592 612,-592 612,-599 612,-599 612,-602.5 608.5,-606 605,-606 605,-606 546,-606 546,-606 542.5,-606 539,-602.5 539,-599 539,-599 539,-592 539,-592 539,-588.5 542.5,-585 546,-585"/>
<text text-anchor="start" x="542" y="-592.8" font-family="Times,serif" font-weight="bold" font-size="14.00">S1, A0, 3, 0</text>
<text text-anchor="middle" x="528.5" y="-566.8" font-family="Times,serif" font-size="14.00">ye3</text>
</g>
<!-- 0xa11fdbe2 -->
<g id="node17" class="node">
<title>0xa11fdbe2</title>
<ellipse fill="white" stroke="black" stroke-width="0.7" cx="576" cy="-540" rx="3" ry="3"/>
</g>
<!-- 0x640c8300&#45;&gt;0xa11fdbe2 -->
<g id="edge15" class="edge">
<title>0x640c8300:m&#45;&gt;0xa11fdbe2</title>
<path fill="none" stroke="#444444" d="M576,-584.77C576,-574.06 576,-556.69 576,-547.38"/>
<polygon fill="#444444" stroke="#444444" points="577.4,-547.32 576,-543.32 574.6,-547.32 577.4,-547.32"/>
<text text-anchor="middle" x="582.5" y="-558.6" font-family="Times,serif" font-size="8.00"> o4 </text>
</g>
<!-- 0x14432f18 -->
<g id="node6" class="node">
<title>0x14432f18</title>
<path fill="#f8f9fa" stroke="transparent" d="M364,-585C364,-585 423,-585 423,-585 426.5,-585 430,-588.5 430,-592 430,-592 430,-599 430,-599 430,-602.5 426.5,-606 423,-606 423,-606 364,-606 364,-606 360.5,-606 357,-602.5 357,-599 357,-599 357,-592 357,-592 357,-588.5 360.5,-585 364,-585"/>
<path fill="none" stroke="#333333" d="M364,-585C364,-585 423,-585 423,-585 426.5,-585 430,-588.5 430,-592 430,-592 430,-599 430,-599 430,-602.5 426.5,-606 423,-606 423,-606 364,-606 364,-606 360.5,-606 357,-602.5 357,-599 357,-599 357,-592 357,-592 357,-588.5 360.5,-585 364,-585"/>
<text text-anchor="start" x="360" y="-592.8" font-family="Times,serif" font-weight="bold" font-size="14.00">S8, A0, 3, 2</text>
<text text-anchor="middle" x="346.5" y="-617.8" font-family="Times,serif" font-size="14.00">ye4</text>
</g>
<!-- 0x8204464c -->
<g id="node19" class="node">
<title>0x8204464c</title>
<ellipse fill="white" stroke="black" stroke-width="0.7" cx="394" cy="-540" rx="3" ry="3"/>
</g>
<!-- 0x14432f18&#45;&gt;0x8204464c -->
<g id="edge17" class="edge">
<title>0x14432f18:m&#45;&gt;0x8204464c</title>
<path fill="none" stroke="#444444" d="M394,-584.77C394,-574.06 394,-556.69 394,-547.38"/>
<polygon fill="#444444" stroke="#444444" points="395.4,-547.32 394,-543.32 392.6,-547.32 395.4,-547.32"/>
<text text-anchor="middle" x="400.5" y="-558.6" font-family="Times,serif" font-size="8.00"> o4 </text>
</g>
<!-- 0xa6199f68&#45;&gt;0x18921e5b -->
<g id="edge4" class="edge">
<title>0xa6199f68&#45;&gt;0x18921e5b:m</title>
<path fill="none" stroke="#444444" stroke-dasharray="5,2" d="M485,-648.64C485,-642.13 485,-623.58 485,-610.35"/>
<polygon fill="#444444" stroke="#444444" points="486.4,-610.09 485,-606.09 483.6,-610.09 486.4,-610.09"/>
<text text-anchor="middle" x="491.5" y="-629.6" font-family="Times,serif" font-size="8.00"> o3 </text>
</g>
<!-- 0xa6199f68&#45;&gt;0x640c8300 -->
<g id="edge5" class="edge">
<title>0xa6199f68&#45;&gt;0x640c8300:m</title>
<path fill="none" stroke="#444444" stroke-dasharray="5,2" d="M487.25,-649.64C496.55,-644.02 532.6,-622.23 555.8,-608.21"/>
<polygon fill="#444444" stroke="#444444" points="556.7,-609.3 559.4,-606.03 555.25,-606.9 556.7,-609.3"/>
<text text-anchor="middle" x="526" y="-629.6" font-family="Times,serif" font-size="8.00"> ε </text>
</g>
<!-- 0xa6199f68&#45;&gt;0x14432f18 -->
<g id="edge6" class="edge">
<title>0xa6199f68&#45;&gt;0x14432f18:m</title>
<path fill="none" stroke="#444444" stroke-dasharray="5,2" d="M482.75,-649.64C473.45,-644.02 437.4,-622.23 414.2,-608.21"/>
<polygon fill="#444444" stroke="#444444" points="414.75,-606.9 410.6,-606.03 413.3,-609.3 414.75,-606.9"/>
<text text-anchor="middle" x="465.5" y="-629.6" font-family="Times,serif" font-size="8.00"> o2 </text>
</g>
<!-- 0x7ade2a88 -->
<g id="node8" class="node">
<title>0x7ade2a88</title>
<path fill="#f8f9fa" stroke="transparent" d="M455,-359.5C455,-359.5 514,-359.5 514,-359.5 517.5,-359.5 521,-363 521,-366.5 521,-366.5 521,-373.5 521,-373.5 521,-377 517.5,-380.5 514,-380.5 514,-380.5 455,-380.5 455,-380.5 451.5,-380.5 448,-377 448,-373.5 448,-373.5 448,-366.5 448,-366.5 448,-363 451.5,-359.5 455,-359.5"/>
<path fill="none" stroke="#333333" d="M455,-359.5C455,-359.5 514,-359.5 514,-359.5 517.5,-359.5 521,-363 521,-366.5 521,-366.5 521,-373.5 521,-373.5 521,-377 517.5,-380.5 514,-380.5 514,-380.5 455,-380.5 455,-380.5 451.5,-380.5 448,-377 448,-373.5 448,-373.5 448,-366.5 448,-366.5 448,-363 451.5,-359.5 455,-359.5"/>
<text text-anchor="start" x="451" y="-367.3" font-family="Times,serif" font-weight="bold" font-size="14.00">S7, A6, 7, 1</text>
<text text-anchor="middle" x="437.5" y="-392.3" font-family="Times,serif" font-size="14.00">ye5</text>
</g>
<!-- 0x192416d3 -->
<g id="node21" class="node">
<title>0x192416d3</title>
<ellipse fill="white" stroke="black" stroke-width="0.7" cx="418" cy="-289.5" rx="3" ry="3"/>
</g>
<!-- 0x7ade2a88&#45;&gt;0x192416d3 -->
<g id="edge19" class="edge">
<title>0x7ade2a88:m&#45;&gt;0x192416d3</title>
<path fill="none" stroke="#444444" d="M477.93,-359.28C469.64,-347.28 457,-329 457,-329 457,-329 434.2,-305.9 423.46,-295.03"/>
<polygon fill="#444444" stroke="#444444" points="424.37,-293.95 420.56,-292.09 422.37,-295.92 424.37,-293.95"/>
<text text-anchor="middle" x="449" y="-331.6" font-family="Times,serif" font-size="8.00"> uo1 </text>
</g>
<!-- 0xc6588f2d -->
<g id="node9" class="node">
<title>0xc6588f2d</title>
<path fill="#f8f9fa" stroke="transparent" d="M566,-359.5C566,-359.5 625,-359.5 625,-359.5 628.5,-359.5 632,-363 632,-366.5 632,-366.5 632,-373.5 632,-373.5 632,-377 628.5,-380.5 625,-380.5 625,-380.5 566,-380.5 566,-380.5 562.5,-380.5 559,-377 559,-373.5 559,-373.5 559,-366.5 559,-366.5 559,-363 562.5,-359.5 566,-359.5"/>
<path fill="none" stroke="#333333" d="M566,-359.5C566,-359.5 625,-359.5 625,-359.5 628.5,-359.5 632,-363 632,-366.5 632,-366.5 632,-373.5 632,-373.5 632,-377 628.5,-380.5 625,-380.5 625,-380.5 566,-380.5 566,-380.5 562.5,-380.5 559,-377 559,-373.5 559,-373.5 559,-366.5 559,-366.5 559,-363 562.5,-359.5 566,-359.5"/>
<text text-anchor="start" x="562" y="-367.3" font-family="Times,serif" font-weight="bold" font-size="14.00">S1, A6, 7, 0</text>
<text text-anchor="middle" x="548.5" y="-392.3" font-family="Times,serif" font-size="14.00">ye6</text>
</g>
<!-- 0xccfb2f60 -->
<g id="node25" class="node">
<title>0xccfb2f60</title>
<ellipse fill="white" stroke="black" stroke-width="0.7" cx="565" cy="-311.5" rx="3" ry="3"/>
</g>
<!-- 0xc6588f2d&#45;&gt;0xccfb2f60 -->
<g id="edge21" class="edge">
<title>0xc6588f2d:m&#45;&gt;0xccfb2f60</title>
<path fill="none" stroke="#444444" d="M590.88,-359.25C584.44,-347.61 573.57,-327.98 568.2,-318.28"/>
<polygon fill="#444444" stroke="#444444" points="569.32,-317.41 566.15,-314.58 566.87,-318.76 569.32,-317.41"/>
<text text-anchor="middle" x="584.5" y="-331.6" font-family="Times,serif" font-size="8.00"> o3 </text>
</g>
<!-- 0x59ad116b -->
<g id="node27" class="node">
<title>0x59ad116b</title>
<ellipse fill="white" stroke="black" stroke-width="0.7" cx="607" cy="-215.5" rx="3" ry="3"/>
</g>
<!-- 0xc6588f2d&#45;&gt;0x59ad116b -->
<g id="edge25" class="edge">
<title>0xc6588f2d:m&#45;&gt;0x59ad116b</title>
<path fill="none" stroke="#444444" d="M600.43,-359.18C607.12,-343.64 619,-316 619,-316 619,-316 610.7,-246.52 607.91,-223.1"/>
<polygon fill="#444444" stroke="#444444" points="609.26,-222.65 607.4,-218.84 606.48,-222.98 609.26,-222.65"/>
<text text-anchor="middle" x="627" y="-309.6" font-family="Times,serif" font-size="8.00"> uo1 </text>
</g>
<!-- 0x5cb8417a -->
<g id="node10" class="node">
<title>0x5cb8417a</title>
<path fill="#f8f9fa" stroke="transparent" d="M671,-359.5C671,-359.5 730,-359.5 730,-359.5 733.5,-359.5 737,-363 737,-366.5 737,-366.5 737,-373.5 737,-373.5 737,-377 733.5,-380.5 730,-380.5 730,-380.5 671,-380.5 671,-380.5 667.5,-380.5 664,-377 664,-373.5 664,-373.5 664,-366.5 664,-366.5 664,-363 667.5,-359.5 671,-359.5"/>
<path fill="none" stroke="#333333" d="M671,-359.5C671,-359.5 730,-359.5 730,-359.5 733.5,-359.5 737,-363 737,-366.5 737,-366.5 737,-373.5 737,-373.5 737,-377 733.5,-380.5 730,-380.5 730,-380.5 671,-380.5 671,-380.5 667.5,-380.5 664,-377 664,-373.5 664,-373.5 664,-366.5 664,-366.5 664,-363 667.5,-359.5 671,-359.5"/>
<text text-anchor="start" x="667" y="-367.3" font-family="Times,serif" font-weight="bold" font-size="14.00">S8, A6, 7, 2</text>
<text text-anchor="middle" x="653.5" y="-392.3" font-family="Times,serif" font-size="14.00">ye7</text>
</g>
<!-- 0x8a471bf1 -->
<g id="node29" class="node">
<title>0x8a471bf1</title>
<ellipse fill="white" stroke="black" stroke-width="0.7" cx="792" cy="-311.5" rx="3" ry="3"/>
</g>
<!-- 0x5cb8417a&#45;&gt;0x8a471bf1 -->
<g id="edge27" class="edge">
<title>0x5cb8417a:m&#45;&gt;0x8a471bf1</title>
<path fill="none" stroke="#444444" d="M716.03,-359.25C736.52,-346.64 772.29,-324.63 786.21,-316.06"/>
<polygon fill="#444444" stroke="#444444" points="787.12,-317.15 789.8,-313.86 785.66,-314.76 787.12,-317.15"/>
<text text-anchor="middle" x="771.5" y="-331.6" font-family="Times,serif" font-size="8.00"> o3 </text>
</g>
<!-- 0xb2cf6c7d -->
<g id="node31" class="node">
<title>0xb2cf6c7d</title>
<ellipse fill="white" stroke="black" stroke-width="0.7" cx="701" cy="-289.5" rx="3" ry="3"/>
</g>
<!-- 0x5cb8417a&#45;&gt;0xb2cf6c7d -->
<g id="edge31" class="edge">
<title>0x5cb8417a:m&#45;&gt;0xb2cf6c7d</title>
<path fill="none" stroke="#444444" d="M701,-359.19C701,-350 701,-338 701,-338 701,-338 701,-310.61 701,-297"/>
<polygon fill="#444444" stroke="#444444" points="702.4,-296.68 701,-292.68 699.6,-296.68 702.4,-296.68"/>
<text text-anchor="middle" x="709" y="-331.6" font-family="Times,serif" font-size="8.00"> uo1 </text>
</g>
<!-- 0xc19111f0&#45;&gt;0x7ade2a88 -->
<g id="edge8" class="edge">
<title>0xc19111f0&#45;&gt;0x7ade2a88:m</title>
<path fill="none" stroke="#444444" stroke-dasharray="5,2" d="M636.33,-426.02C622.28,-420.87 556.14,-396.6 516.1,-381.91"/>
<polygon fill="#444444" stroke="#444444" points="516.54,-380.58 512.3,-380.52 515.58,-383.21 516.54,-380.58"/>
<text text-anchor="middle" x="572.5" y="-405.6" font-family="Times,serif" font-size="8.00"> o3 </text>
</g>
<!-- 0xc19111f0&#45;&gt;0xc6588f2d -->
<g id="edge9" class="edge">
<title>0xc19111f0&#45;&gt;0xc6588f2d:m</title>
<path fill="none" stroke="#444444" stroke-dasharray="5,2" d="M637.57,-425.12C632.79,-418.84 617.06,-398.17 606.38,-384.14"/>
<polygon fill="#444444" stroke="#444444" points="607.32,-383.06 603.78,-380.72 605.09,-384.75 607.32,-383.06"/>
<text text-anchor="middle" x="631" y="-405.6" font-family="Times,serif" font-size="8.00"> ε </text>
</g>
<!-- 0xc19111f0&#45;&gt;0x5cb8417a -->
<g id="edge10" class="edge">
<title>0xc19111f0&#45;&gt;0x5cb8417a:m</title>
<path fill="none" stroke="#444444" stroke-dasharray="5,2" d="M640.79,-425.37C647.45,-419.3 671.25,-397.61 686.86,-383.39"/>
<polygon fill="#444444" stroke="#444444" points="687.85,-384.38 689.86,-380.65 685.96,-382.31 687.85,-384.38"/>
<text text-anchor="middle" x="670.5" y="-405.6" font-family="Times,serif" font-size="8.00"> o2 </text>
</g>
<!-- 0x77c1714c -->
<g id="node12" class="node">
<title>0x77c1714c</title>
<path fill="#f8f9fa" stroke="transparent" d="M273,-473C273,-473 332,-473 332,-473 335.5,-473 339,-476.5 339,-480 339,-480 339,-487 339,-487 339,-490.5 335.5,-494 332,-494 332,-494 273,-494 273,-494 269.5,-494 266,-490.5 266,-487 266,-487 266,-480 266,-480 266,-476.5 269.5,-473 273,-473"/>
<path fill="none" stroke="#333333" d="M273,-473C273,-473 332,-473 332,-473 335.5,-473 339,-476.5 339,-480 339,-480 339,-487 339,-487 339,-490.5 335.5,-494 332,-494 332,-494 273,-494 273,-494 269.5,-494 266,-490.5 266,-487 266,-487 266,-480 266,-480 266,-476.5 269.5,-473 273,-473"/>
<text text-anchor="start" x="269" y="-480.8" font-family="Times,serif" font-weight="bold" font-size="14.00">S2, A7, 2, 0</text>
<text text-anchor="middle" x="255.5" y="-505.8" font-family="Times,serif" font-size="14.00">ye8</text>
</g>
<!-- 0xa347e83d -->
<g id="node33" class="node">
<title>0xa347e83d</title>
<ellipse fill="white" stroke="black" stroke-width="0.7" cx="303" cy="-428" rx="3" ry="3"/>
</g>
<!-- 0x77c1714c&#45;&gt;0xa347e83d -->
<g id="edge33" class="edge">
<title>0x77c1714c:m&#45;&gt;0xa347e83d</title>
<path fill="none" stroke="#444444" d="M303,-472.77C303,-462.06 303,-444.69 303,-435.38"/>
<polygon fill="#444444" stroke="#444444" points="304.4,-435.32 303,-431.32 301.6,-435.32 304.4,-435.32"/>
<text text-anchor="middle" x="309.5" y="-446.6" font-family="Times,serif" font-size="8.00"> o1 </text>
</g>
<!-- 0xf7ec581a&#45;&gt;0x77c1714c -->
<g id="edge12" class="edge">
<title>0xf7ec581a&#45;&gt;0x77c1714c:m</title>
<path fill="none" stroke="#444444" stroke-dasharray="5,2" d="M303,-536.64C303,-530.13 303,-511.58 303,-498.35"/>
<polygon fill="#444444" stroke="#444444" points="304.4,-498.09 303,-494.09 301.6,-498.09 304.4,-498.09"/>
<text text-anchor="middle" x="311" y="-517.6" font-family="Times,serif" font-size="8.00"> uo2 </text>
</g>
<!-- 0x918dc32f -->
<g id="node14" class="node">
<title>0x918dc32f</title>
<path fill="#f8f9fa" stroke="transparent" d="M455,-473C455,-473 514,-473 514,-473 517.5,-473 521,-476.5 521,-480 521,-480 521,-487 521,-487 521,-490.5 517.5,-494 514,-494 514,-494 455,-494 455,-494 451.5,-494 448,-490.5 448,-487 448,-487 448,-480 448,-480 448,-476.5 451.5,-473 455,-473"/>
<path fill="none" stroke="#333333" d="M455,-473C455,-473 514,-473 514,-473 517.5,-473 521,-476.5 521,-480 521,-480 521,-487 521,-487 521,-490.5 517.5,-494 514,-494 514,-494 455,-494 455,-494 451.5,-494 448,-490.5 448,-487 448,-487 448,-480 448,-480 448,-476.5 451.5,-473 455,-473"/>
<text text-anchor="start" x="451" y="-480.8" font-family="Times,serif" font-weight="bold" font-size="14.00">S7, A6, 6, 1</text>
<text text-anchor="middle" x="437.5" y="-505.8" font-family="Times,serif" font-size="14.00">ye9</text>
</g>
<!-- 0x4d6f23f3 -->
<g id="node34" class="node">
<title>0x4d6f23f3</title>
<ellipse fill="white" stroke="black" stroke-width="0.7" cx="485" cy="-428" rx="3" ry="3"/>
</g>
<!-- 0x918dc32f&#45;&gt;0x4d6f23f3 -->
<g id="edge35" class="edge">
<title>0x918dc32f:m&#45;&gt;0x4d6f23f3</title>
<path fill="none" stroke="#444444" d="M485,-472.77C485,-462.06 485,-444.69 485,-435.38"/>
<polygon fill="#444444" stroke="#444444" points="486.4,-435.32 485,-431.32 483.6,-435.32 486.4,-435.32"/>
<text text-anchor="middle" x="493" y="-446.6" font-family="Times,serif" font-size="8.00"> uo3 </text>
</g>
<!-- 0x5dc0496d&#45;&gt;0x918dc32f -->
<g id="edge14" class="edge">
<title>0x5dc0496d&#45;&gt;0x918dc32f:m</title>
<path fill="none" stroke="#444444" stroke-dasharray="5,2" d="M485,-536.64C485,-530.13 485,-511.58 485,-498.35"/>
<polygon fill="#444444" stroke="#444444" points="486.4,-498.09 485,-494.09 483.6,-498.09 486.4,-498.09"/>
<text text-anchor="middle" x="491.5" y="-517.6" font-family="Times,serif" font-size="8.00"> o4 </text>
</g>
<!-- 0xdd0827d4 -->
<g id="node16" class="node">
<title>0xdd0827d4</title>
<path fill="#f8f9fa" stroke="transparent" d="M546,-473C546,-473 605,-473 605,-473 608.5,-473 612,-476.5 612,-480 612,-480 612,-487 612,-487 612,-490.5 608.5,-494 605,-494 605,-494 546,-494 546,-494 542.5,-494 539,-490.5 539,-487 539,-487 539,-480 539,-480 539,-476.5 542.5,-473 546,-473"/>
<path fill="none" stroke="#333333" d="M546,-473C546,-473 605,-473 605,-473 608.5,-473 612,-476.5 612,-480 612,-480 612,-487 612,-487 612,-490.5 608.5,-494 605,-494 605,-494 546,-494 546,-494 542.5,-494 539,-490.5 539,-487 539,-487 539,-480 539,-480 539,-476.5 542.5,-473 546,-473"/>
<text text-anchor="start" x="542" y="-480.8" font-family="Times,serif" font-weight="bold" font-size="14.00">S1, A6, 6, 0</text>
<text text-anchor="middle" x="525" y="-505.8" font-family="Times,serif" font-size="14.00">ye10</text>
</g>
<!-- 0x68163ea5 -->
<g id="node35" class="node">
<title>0x68163ea5</title>
<ellipse fill="white" stroke="black" stroke-width="0.7" cx="579" cy="-428" rx="3" ry="3"/>
</g>
<!-- 0xdd0827d4&#45;&gt;0x68163ea5 -->
<g id="edge37" class="edge">
<title>0xdd0827d4:m&#45;&gt;0x68163ea5</title>
<path fill="none" stroke="#444444" d="M576.52,-472.77C577.13,-462.06 578.11,-444.69 578.64,-435.38"/>
<polygon fill="#444444" stroke="#444444" points="580.04,-435.39 578.87,-431.32 577.24,-435.23 580.04,-435.39"/>
<text text-anchor="middle" x="586" y="-446.6" font-family="Times,serif" font-size="8.00"> uo3 </text>
</g>
<!-- 0xa11fdbe2&#45;&gt;0xdd0827d4 -->
<g id="edge16" class="edge">
<title>0xa11fdbe2&#45;&gt;0xdd0827d4:m</title>
<path fill="none" stroke="#444444" stroke-dasharray="5,2" d="M576,-536.64C576,-530.13 576,-511.58 576,-498.35"/>
<polygon fill="#444444" stroke="#444444" points="577.4,-498.09 576,-494.09 574.6,-498.09 577.4,-498.09"/>
<text text-anchor="middle" x="582.5" y="-517.6" font-family="Times,serif" font-size="8.00"> o4 </text>
</g>
<!-- 0x78a936d6 -->
<g id="node18" class="node">
<title>0x78a936d6</title>
<path fill="#f8f9fa" stroke="transparent" d="M364,-473C364,-473 423,-473 423,-473 426.5,-473 430,-476.5 430,-480 430,-480 430,-487 430,-487 430,-490.5 426.5,-494 423,-494 423,-494 364,-494 364,-494 360.5,-494 357,-490.5 357,-487 357,-487 357,-480 357,-480 357,-476.5 360.5,-473 364,-473"/>
<path fill="none" stroke="#333333" d="M364,-473C364,-473 423,-473 423,-473 426.5,-473 430,-476.5 430,-480 430,-480 430,-487 430,-487 430,-490.5 426.5,-494 423,-494 423,-494 364,-494 364,-494 360.5,-494 357,-490.5 357,-487 357,-487 357,-480 357,-480 357,-476.5 360.5,-473 364,-473"/>
<text text-anchor="start" x="360" y="-480.8" font-family="Times,serif" font-weight="bold" font-size="14.00">S8, A2, 6, 2</text>
<text text-anchor="middle" x="343" y="-505.8" font-family="Times,serif" font-size="14.00">ye11</text>
</g>
<!-- 0x8204464c&#45;&gt;0x78a936d6 -->
<g id="edge18" class="edge">
<title>0x8204464c&#45;&gt;0x78a936d6:m</title>
<path fill="none" stroke="#444444" stroke-dasharray="5,2" d="M394,-536.64C394,-530.13 394,-511.58 394,-498.35"/>
<polygon fill="#444444" stroke="#444444" points="395.4,-498.09 394,-494.09 392.6,-498.09 395.4,-498.09"/>
<text text-anchor="middle" x="400.5" y="-517.6" font-family="Times,serif" font-size="8.00"> o4 </text>
</g>
<!-- 0xc4d8bf04 -->
<g id="node20" class="node">
<title>0xc4d8bf04</title>
<path fill="#f8f9fa" stroke="transparent" d="M428,-123.5C428,-123.5 487,-123.5 487,-123.5 490.5,-123.5 494,-127 494,-130.5 494,-130.5 494,-137.5 494,-137.5 494,-141 490.5,-144.5 487,-144.5 487,-144.5 428,-144.5 428,-144.5 424.5,-144.5 421,-141 421,-137.5 421,-137.5 421,-130.5 421,-130.5 421,-127 424.5,-123.5 428,-123.5"/>
<path fill="none" stroke="#333333" d="M428,-123.5C428,-123.5 487,-123.5 487,-123.5 490.5,-123.5 494,-127 494,-130.5 494,-130.5 494,-137.5 494,-137.5 494,-141 490.5,-144.5 487,-144.5 487,-144.5 428,-144.5 428,-144.5 424.5,-144.5 421,-141 421,-137.5 421,-137.5 421,-130.5 421,-130.5 421,-127 424.5,-123.5 428,-123.5"/>
<text text-anchor="start" x="424" y="-131.3" font-family="Times,serif" font-weight="bold" font-size="14.00">S7, A6, 4, 1</text>
<text text-anchor="middle" x="407" y="-156.3" font-family="Times,serif" font-size="14.00">ye12</text>
</g>
<!-- 0xa4340948 -->
<g id="node39" class="node">
<title>0xa4340948</title>
<ellipse fill="white" stroke="black" stroke-width="0.7" cx="378" cy="-77" rx="3" ry="3"/>
</g>
<!-- 0xc4d8bf04&#45;&gt;0xa4340948 -->
<g id="edge39" class="edge">
<title>0xc4d8bf04:m&#45;&gt;0xa4340948</title>
<path fill="none" stroke="#444444" d="M444.43,-123.25C426.49,-111.03 395.7,-90.06 383.35,-81.65"/>
<polygon fill="#444444" stroke="#444444" points="384.01,-80.4 379.92,-79.31 382.44,-82.72 384.01,-80.4"/>
<text text-anchor="middle" x="420.5" y="-95.6" font-family="Times,serif" font-size="8.00"> o2 </text>
</g>
<!-- 0x35d604fe -->
<g id="node41" class="node">
<title>0x35d604fe</title>
<ellipse fill="white" stroke="black" stroke-width="0.7" cx="522" cy="-77" rx="3" ry="3"/>
</g>
<!-- 0xc4d8bf04&#45;&gt;0x35d604fe -->
<g id="edge43" class="edge">
<title>0xc4d8bf04:m&#45;&gt;0x35d604fe</title>
<path fill="none" stroke="#444444" d="M468.86,-123.25C482.83,-111.35 506.55,-91.16 516.9,-82.34"/>
<polygon fill="#444444" stroke="#444444" points="517.94,-83.3 520.07,-79.64 516.12,-81.17 517.94,-83.3"/>
<text text-anchor="middle" x="509.5" y="-95.6" font-family="Times,serif" font-size="8.00"> o1 </text>
</g>
<!-- 0x192416d3&#45;&gt;0xc4d8bf04 -->
<g id="edge20" class="edge">
<title>0x192416d3&#45;&gt;0xc4d8bf04:m</title>
<path fill="none" stroke="#444444" stroke-dasharray="5,2" d="M417.83,-286.13C417.06,-271.1 414,-211 414,-211 414,-211 436.81,-170.82 449.59,-148.32"/>
<polygon fill="#444444" stroke="#444444" points="450.94,-148.77 451.7,-144.6 448.5,-147.39 450.94,-148.77"/>
<text text-anchor="middle" x="406" y="-213.6" font-family="Times,serif" font-size="8.00"> uo1 </text>
</g>
<!-- 0xb752215d -->
<g id="node22" class="node">
<title>0xb752215d</title>
<path fill="#f8f9fa" stroke="transparent" d="M434,-241.5C434,-241.5 493,-241.5 493,-241.5 496.5,-241.5 500,-245 500,-248.5 500,-248.5 500,-255.5 500,-255.5 500,-259 496.5,-262.5 493,-262.5 493,-262.5 434,-262.5 434,-262.5 430.5,-262.5 427,-259 427,-255.5 427,-255.5 427,-248.5 427,-248.5 427,-245 430.5,-241.5 434,-241.5"/>
<path fill="none" stroke="#333333" d="M434,-241.5C434,-241.5 493,-241.5 493,-241.5 496.5,-241.5 500,-245 500,-248.5 500,-248.5 500,-255.5 500,-255.5 500,-259 496.5,-262.5 493,-262.5 493,-262.5 434,-262.5 434,-262.5 430.5,-262.5 427,-259 427,-255.5 427,-255.5 427,-248.5 427,-248.5 427,-245 430.5,-241.5 434,-241.5"/>
<text text-anchor="start" x="430" y="-249.3" font-family="Times,serif" font-weight="bold" font-size="14.00">S7, A3, 8, 1</text>
<text text-anchor="middle" x="413" y="-274.3" font-family="Times,serif" font-size="14.00">ye13</text>
</g>
<!-- 0xc99e6cc4 -->
<g id="node45" class="node">
<title>0xc99e6cc4</title>
<ellipse fill="white" stroke="black" stroke-width="0.7" cx="208" cy="-193.5" rx="3" ry="3"/>
</g>
<!-- 0xb752215d&#45;&gt;0xc99e6cc4 -->
<g id="edge45" class="edge">
<title>0xb752215d:m&#45;&gt;0xc99e6cc4</title>
<path fill="none" stroke="#444444" d="M426.78,-242.36C364.9,-228.82 244.72,-202.53 214.85,-196"/>
<polygon fill="#444444" stroke="#444444" points="214.81,-194.56 210.6,-195.07 214.21,-197.29 214.81,-194.56"/>
<text text-anchor="middle" x="327.5" y="-213.6" font-family="Times,serif" font-size="8.00"> o2 </text>
</g>
<!-- 0xe9ccaf5e -->
<g id="node23" class="node">
<title>0xe9ccaf5e</title>
<path fill="#f8f9fa" stroke="transparent" d="M525,-241.5C525,-241.5 584,-241.5 584,-241.5 587.5,-241.5 591,-245 591,-248.5 591,-248.5 591,-255.5 591,-255.5 591,-259 587.5,-262.5 584,-262.5 584,-262.5 525,-262.5 525,-262.5 521.5,-262.5 518,-259 518,-255.5 518,-255.5 518,-248.5 518,-248.5 518,-245 521.5,-241.5 525,-241.5"/>
<path fill="none" stroke="#333333" d="M525,-241.5C525,-241.5 584,-241.5 584,-241.5 587.5,-241.5 591,-245 591,-248.5 591,-248.5 591,-255.5 591,-255.5 591,-259 587.5,-262.5 584,-262.5 584,-262.5 525,-262.5 525,-262.5 521.5,-262.5 518,-259 518,-255.5 518,-255.5 518,-248.5 518,-248.5 518,-245 521.5,-241.5 525,-241.5"/>
<text text-anchor="start" x="521" y="-249.3" font-family="Times,serif" font-weight="bold" font-size="14.00">S1, A3, 8, 0</text>
<text text-anchor="middle" x="504" y="-274.3" font-family="Times,serif" font-size="14.00">ye14</text>
</g>
<!-- 0x881478ea -->
<g id="node48" class="node">
<title>0x881478ea</title>
<ellipse fill="white" stroke="black" stroke-width="0.7" cx="367" cy="-193.5" rx="3" ry="3"/>
</g>
<!-- 0xe9ccaf5e&#45;&gt;0x881478ea -->
<g id="edge49" class="edge">
<title>0xe9ccaf5e:m&#45;&gt;0x881478ea</title>
<path fill="none" stroke="#444444" d="M524.38,-241.38C479.12,-227.9 397.16,-203.48 373.54,-196.45"/>
<polygon fill="#444444" stroke="#444444" points="373.85,-195.08 369.62,-195.28 373.05,-197.76 373.85,-195.08"/>
<text text-anchor="middle" x="466.5" y="-213.6" font-family="Times,serif" font-size="8.00"> o2 </text>
</g>
<!-- 0x2ec7b435 -->
<g id="node49" class="node">
<title>0x2ec7b435</title>
<ellipse fill="white" stroke="black" stroke-width="0.7" cx="551" cy="-193.5" rx="3" ry="3"/>
</g>
<!-- 0xe9ccaf5e&#45;&gt;0x2ec7b435 -->
<g id="edge53" class="edge">
<title>0xe9ccaf5e:m&#45;&gt;0x2ec7b435</title>
<path fill="none" stroke="#444444" d="M554.34,-241.25C553.52,-229.82 552.16,-210.68 551.45,-200.81"/>
<polygon fill="#444444" stroke="#444444" points="552.83,-200.47 551.15,-196.58 550.04,-200.67 552.83,-200.47"/>
<text text-anchor="middle" x="558.5" y="-213.6" font-family="Times,serif" font-size="8.00"> o3 </text>
</g>
<!-- 0x2c61ab -->
<g id="node24" class="node">
<title>0x2c61ab</title>
<path fill="#f8f9fa" stroke="transparent" d="M737,-250.5C737,-250.5 796,-250.5 796,-250.5 799.5,-250.5 803,-254 803,-257.5 803,-257.5 803,-264.5 803,-264.5 803,-268 799.5,-271.5 796,-271.5 796,-271.5 737,-271.5 737,-271.5 733.5,-271.5 730,-268 730,-264.5 730,-264.5 730,-257.5 730,-257.5 730,-254 733.5,-250.5 737,-250.5"/>
<path fill="none" stroke="#333333" d="M737,-250.5C737,-250.5 796,-250.5 796,-250.5 799.5,-250.5 803,-254 803,-257.5 803,-257.5 803,-264.5 803,-264.5 803,-268 799.5,-271.5 796,-271.5 796,-271.5 737,-271.5 737,-271.5 733.5,-271.5 730,-268 730,-264.5 730,-264.5 730,-257.5 730,-257.5 730,-254 733.5,-250.5 737,-250.5"/>
<text text-anchor="start" x="733" y="-258.3" font-family="Times,serif" font-weight="bold" font-size="14.00">S8, A3, 8, 2</text>
<text text-anchor="start" x="760.5" y="-237.7" font-family="Times,serif" font-size="16.00">...</text>
<text text-anchor="middle" x="716" y="-236.8" font-family="Times,serif" font-size="14.00">ye15</text>
</g>
<!-- 0xde603c1f -->
<g id="node51" class="node">
<title>0xde603c1f</title>
<ellipse fill="white" stroke="black" stroke-width="0.7" cx="768" cy="-193.5" rx="3" ry="3"/>
</g>
<!-- 0x2c61ab&#45;&gt;0xde603c1f -->
<g id="edge57" class="edge">
<title>0x2c61ab:m&#45;&gt;0xde603c1f</title>
<path fill="none" stroke="#444444" d="M767,-272.5C767,-272.5 767.67,-219.9 767.92,-201.09"/>
<polygon fill="#444444" stroke="#444444" points="769.32,-200.77 767.97,-196.75 766.52,-200.73 769.32,-200.77"/>
<text text-anchor="middle" x="796.5" y="-213.6" font-family="Times,serif" font-size="8.00"> o2 </text>
</g>
<!-- 0xccfb2f60&#45;&gt;0xb752215d -->
<g id="edge22" class="edge">
<title>0xccfb2f60&#45;&gt;0xb752215d:m</title>
<path fill="none" stroke="#444444" stroke-dasharray="5,2" d="M562.89,-309.29C553.06,-303.64 511.15,-279.57 485.14,-264.64"/>
<polygon fill="#444444" stroke="#444444" points="485.59,-263.29 481.43,-262.51 484.2,-265.71 485.59,-263.29"/>
<text text-anchor="middle" x="541.5" y="-287.6" font-family="Times,serif" font-size="8.00"> o3 </text>
</g>
<!-- 0xccfb2f60&#45;&gt;0xe9ccaf5e -->
<g id="edge23" class="edge">
<title>0xccfb2f60&#45;&gt;0xe9ccaf5e:m</title>
<path fill="none" stroke="#444444" stroke-dasharray="5,2" d="M564.57,-308.01C563.36,-301.01 559.88,-280.79 557.46,-266.79"/>
<polygon fill="#444444" stroke="#444444" points="558.81,-266.37 556.75,-262.67 556.05,-266.85 558.81,-266.37"/>
<text text-anchor="middle" x="563" y="-287.6" font-family="Times,serif" font-size="8.00"> ε </text>
</g>
<!-- 0xccfb2f60&#45;&gt;0x2c61ab -->
<g id="edge24" class="edge">
<title>0xccfb2f60&#45;&gt;0x2c61ab:m</title>
<path fill="none" stroke="#444444" stroke-dasharray="5,2" d="M567.58,-309.73C586.32,-304.13 701.68,-269.66 724.92,-262.72"/>
<polygon fill="#444444" stroke="#444444" points="725.57,-263.99 729,-261.5 724.77,-261.3 725.57,-263.99"/>
<text text-anchor="middle" x="653.5" y="-287.6" font-family="Times,serif" font-size="8.00"> o2 </text>
</g>
<!-- 0x905323a9 -->
<g id="node26" class="node">
<title>0x905323a9</title>
<path fill="#f8f9fa" stroke="transparent" d="M519,-132.5C519,-132.5 578,-132.5 578,-132.5 581.5,-132.5 585,-136 585,-139.5 585,-139.5 585,-146.5 585,-146.5 585,-150 581.5,-153.5 578,-153.5 578,-153.5 519,-153.5 519,-153.5 515.5,-153.5 512,-150 512,-146.5 512,-146.5 512,-139.5 512,-139.5 512,-136 515.5,-132.5 519,-132.5"/>
<path fill="none" stroke="#333333" d="M519,-132.5C519,-132.5 578,-132.5 578,-132.5 581.5,-132.5 585,-136 585,-139.5 585,-139.5 585,-146.5 585,-146.5 585,-150 581.5,-153.5 578,-153.5 578,-153.5 519,-153.5 519,-153.5 515.5,-153.5 512,-150 512,-146.5 512,-146.5 512,-139.5 512,-139.5 512,-136 515.5,-132.5 519,-132.5"/>
<text text-anchor="start" x="515" y="-140.3" font-family="Times,serif" font-weight="bold" font-size="14.00">S1, A6, 4, 0</text>
<text text-anchor="start" x="542.5" y="-119.7" font-family="Times,serif" font-size="16.00">...</text>
<text text-anchor="middle" x="598" y="-157.8" font-family="Times,serif" font-size="14.00">ye16</text>
</g>
<!-- 0x59ad116b&#45;&gt;0x905323a9 -->
<g id="edge26" class="edge">
<title>0x59ad116b&#45;&gt;0x905323a9:m</title>
<path fill="none" stroke="#444444" stroke-dasharray="5,2" d="M605.28,-212.77C602.19,-207.84 596,-198 596,-198 596,-198 574.43,-172.98 560.51,-156.85"/>
<polygon fill="#444444" stroke="#444444" points="561.51,-155.87 557.84,-153.75 559.39,-157.69 561.51,-155.87"/>
<text text-anchor="middle" x="604" y="-191.6" font-family="Times,serif" font-size="8.00"> uo1 </text>
</g>
<!-- 0x5ea697c0 -->
<g id="node28" class="node">
<title>0x5ea697c0</title>
<path fill="#fff1f2" stroke="transparent" d="M828,-241.5C828,-241.5 892,-241.5 892,-241.5 895.5,-241.5 899,-245 899,-248.5 899,-248.5 899,-255.5 899,-255.5 899,-259 895.5,-262.5 892,-262.5 892,-262.5 828,-262.5 828,-262.5 824.5,-262.5 821,-259 821,-255.5 821,-255.5 821,-248.5 821,-248.5 821,-245 824.5,-241.5 828,-241.5"/>
<path fill="none" stroke="#9f1239" d="M828,-241.5C828,-241.5 892,-241.5 892,-241.5 895.5,-241.5 899,-245 899,-248.5 899,-248.5 899,-255.5 899,-255.5 899,-259 895.5,-262.5 892,-262.5 892,-262.5 828,-262.5 828,-262.5 824.5,-262.5 821,-259 821,-255.5 821,-255.5 821,-248.5 821,-248.5 821,-245 824.5,-241.5 828,-241.5"/>
<text text-anchor="start" x="824" y="-249.3" font-family="Times,serif" font-weight="bold" font-size="14.00">AX, A3, 8, 2</text>
<text text-anchor="middle" x="834.5" y="-274.3" font-family="Times,serif" font-size="14.00">ye17</text>
</g>
<!-- 0x8a471bf1&#45;&gt;0x2c61ab -->
<g id="edge29" class="edge">
<title>0x8a471bf1&#45;&gt;0x2c61ab:m</title>
<path fill="none" stroke="#444444" stroke-dasharray="5,2" d="M790.66,-308.43C786.6,-302.18 774.44,-283.46 769.32,-275.57"/>
<polygon fill="#444444" stroke="#444444" points="770.35,-274.59 767,-272 768,-276.12 770.35,-274.59"/>
<text text-anchor="middle" x="784" y="-287.6" font-family="Times,serif" font-size="8.00"> ε </text>
</g>
<!-- 0x8a471bf1&#45;&gt;0x5ea697c0 -->
<g id="edge28" class="edge">
<title>0x8a471bf1&#45;&gt;0x5ea697c0:m</title>
<path fill="none" stroke="#444444" stroke-dasharray="5,2" d="M793.96,-308.83C801.31,-302.56 827.67,-280.08 844.78,-265.48"/>
<polygon fill="#444444" stroke="#444444" points="845.93,-266.34 848.07,-262.68 844.12,-264.21 845.93,-266.34"/>
<text text-anchor="middle" x="843.5" y="-287.6" font-family="Times,serif" font-size="8.00"> o3 </text>
</g>
<!-- 0x8a471bf1&#45;&gt;0x5ea697c0 -->
<g id="edge30" class="edge">
<title>0x8a471bf1&#45;&gt;0x5ea697c0:m</title>
<path fill="none" stroke="#444444" stroke-dasharray="5,2" d="M793.96,-308.83C801.31,-302.56 827.67,-280.08 844.78,-265.48"/>
<polygon fill="#444444" stroke="#444444" points="845.93,-266.34 848.07,-262.68 844.12,-264.21 845.93,-266.34"/>
<text text-anchor="middle" x="820.5" y="-287.6" font-family="Times,serif" font-size="8.00"> o2 </text>
</g>
<!-- 0xa6b2d5f6 -->
<g id="node30" class="node">
<title>0xa6b2d5f6</title>
<path fill="#f8f9fa" stroke="transparent" d="M701,-132.5C701,-132.5 760,-132.5 760,-132.5 763.5,-132.5 767,-136 767,-139.5 767,-139.5 767,-146.5 767,-146.5 767,-150 763.5,-153.5 760,-153.5 760,-153.5 701,-153.5 701,-153.5 697.5,-153.5 694,-150 694,-146.5 694,-146.5 694,-139.5 694,-139.5 694,-136 697.5,-132.5 701,-132.5"/>
<path fill="none" stroke="#333333" d="M701,-132.5C701,-132.5 760,-132.5 760,-132.5 763.5,-132.5 767,-136 767,-139.5 767,-139.5 767,-146.5 767,-146.5 767,-150 763.5,-153.5 760,-153.5 760,-153.5 701,-153.5 701,-153.5 697.5,-153.5 694,-150 694,-146.5 694,-146.5 694,-139.5 694,-139.5 694,-136 697.5,-132.5 701,-132.5"/>
<text text-anchor="start" x="697" y="-140.3" font-family="Times,serif" font-weight="bold" font-size="14.00">S8, A6, 4, 2</text>
<text text-anchor="start" x="724.5" y="-119.7" font-family="Times,serif" font-size="16.00">...</text>
<text text-anchor="middle" x="680" y="-157.8" font-family="Times,serif" font-size="14.00">ye18</text>
</g>
<!-- 0xb2cf6c7d&#45;&gt;0xa6b2d5f6 -->
<g id="edge32" class="edge">
<title>0xb2cf6c7d&#45;&gt;0xa6b2d5f6:m</title>
<path fill="none" stroke="#444444" stroke-dasharray="5,2" d="M701.61,-286.52C704.53,-272.18 717,-211 717,-211 717,-211 723.94,-177.56 728.04,-157.75"/>
<polygon fill="#444444" stroke="#444444" points="729.43,-157.95 728.87,-153.75 726.69,-157.38 729.43,-157.95"/>
<text text-anchor="middle" x="709" y="-213.6" font-family="Times,serif" font-size="8.00"> uo1 </text>
</g>
<!-- 0xc2eeb9cf -->
<g id="node32" class="node">
<title>0xc2eeb9cf</title>
<path fill="#f8f9fa" stroke="transparent" d="M273,-368.5C273,-368.5 332,-368.5 332,-368.5 335.5,-368.5 339,-372 339,-375.5 339,-375.5 339,-382.5 339,-382.5 339,-386 335.5,-389.5 332,-389.5 332,-389.5 273,-389.5 273,-389.5 269.5,-389.5 266,-386 266,-382.5 266,-382.5 266,-375.5 266,-375.5 266,-372 269.5,-368.5 273,-368.5"/>
<path fill="none" stroke="#333333" d="M273,-368.5C273,-368.5 332,-368.5 332,-368.5 335.5,-368.5 339,-372 339,-375.5 339,-375.5 339,-382.5 339,-382.5 339,-386 335.5,-389.5 332,-389.5 332,-389.5 273,-389.5 273,-389.5 269.5,-389.5 266,-386 266,-382.5 266,-382.5 266,-375.5 266,-375.5 266,-372 269.5,-368.5 273,-368.5"/>
<text text-anchor="start" x="269" y="-376.3" font-family="Times,serif" font-weight="bold" font-size="14.00">S0, A7, 5, 0</text>
<text text-anchor="start" x="296.5" y="-355.7" font-family="Times,serif" font-size="16.00">...</text>
<text text-anchor="middle" x="252" y="-393.8" font-family="Times,serif" font-size="14.00">ye19</text>
</g>
<!-- 0xa347e83d&#45;&gt;0xc2eeb9cf -->
<g id="edge34" class="edge">
<title>0xa347e83d&#45;&gt;0xc2eeb9cf:m</title>
<path fill="none" stroke="#444444" stroke-dasharray="5,2" d="M303,-424.57C303,-418.4 303,-402.04 303,-394.24"/>
<polygon fill="#444444" stroke="#444444" points="304.4,-394 303,-390 301.6,-394 304.4,-394"/>
<text text-anchor="middle" x="309.5" y="-405.6" font-family="Times,serif" font-size="8.00"> o1 </text>
</g>
<!-- 0x4d6f23f3&#45;&gt;0x7ade2a88 -->
<g id="edge36" class="edge">
<title>0x4d6f23f3&#45;&gt;0x7ade2a88:m</title>
<path fill="none" stroke="#444444" stroke-dasharray="5,2" d="M485,-424.57C485,-417.83 485,-398.5 485,-384.89"/>
<polygon fill="#444444" stroke="#444444" points="486.4,-384.86 485,-380.86 483.6,-384.86 486.4,-384.86"/>
<text text-anchor="middle" x="493" y="-405.6" font-family="Times,serif" font-size="8.00"> uo3 </text>
</g>
<!-- 0x68163ea5&#45;&gt;0xc6588f2d -->
<g id="edge38" class="edge">
<title>0x68163ea5&#45;&gt;0xc6588f2d:m</title>
<path fill="none" stroke="#444444" stroke-dasharray="5,2" d="M579.73,-424.57C581.76,-417.83 587.57,-398.5 591.67,-384.89"/>
<polygon fill="#444444" stroke="#444444" points="593.07,-385.1 592.88,-380.86 590.39,-384.29 593.07,-385.1"/>
<text text-anchor="middle" x="593" y="-405.6" font-family="Times,serif" font-size="8.00"> uo3 </text>
</g>
<!-- 0xb40e49f7 -->
<g id="node36" class="node">
<title>0xb40e49f7</title>
<path fill="#fff1f2" stroke="transparent" d="M387,-8.5C387,-8.5 475,-8.5 475,-8.5 478.5,-8.5 482,-12 482,-15.5 482,-15.5 482,-22.5 482,-22.5 482,-26 478.5,-29.5 475,-29.5 475,-29.5 387,-29.5 387,-29.5 383.5,-29.5 380,-26 380,-22.5 380,-22.5 380,-15.5 380,-15.5 380,-12 383.5,-8.5 387,-8.5"/>
<path fill="none" stroke="#9f1239" d="M387,-8.5C387,-8.5 475,-8.5 475,-8.5 478.5,-8.5 482,-12 482,-15.5 482,-15.5 482,-22.5 482,-22.5 482,-26 478.5,-29.5 475,-29.5 475,-29.5 387,-29.5 387,-29.5 383.5,-29.5 380,-26 380,-22.5 380,-22.5 380,-15.5 380,-15.5 380,-12 383.5,-8.5 387,-8.5"/>
<text text-anchor="start" x="383" y="-16.3" font-family="Times,serif" font-weight="bold" font-size="14.00">AX, A5, 1, z_det</text>
<text text-anchor="middle" x="393.5" y="-41.3" font-family="Times,serif" font-size="14.00">ye20</text>
</g>
<!-- 0xa4e3dc1d -->
<g id="node37" class="node">
<title>0xa4e3dc1d</title>
<path fill="#f8f9fa" stroke="transparent" d="M205,-17.5C205,-17.5 264,-17.5 264,-17.5 267.5,-17.5 271,-21 271,-24.5 271,-24.5 271,-31.5 271,-31.5 271,-35 267.5,-38.5 264,-38.5 264,-38.5 205,-38.5 205,-38.5 201.5,-38.5 198,-35 198,-31.5 198,-31.5 198,-24.5 198,-24.5 198,-21 201.5,-17.5 205,-17.5"/>
<path fill="none" stroke="#333333" d="M205,-17.5C205,-17.5 264,-17.5 264,-17.5 267.5,-17.5 271,-21 271,-24.5 271,-24.5 271,-31.5 271,-31.5 271,-35 267.5,-38.5 264,-38.5 264,-38.5 205,-38.5 205,-38.5 201.5,-38.5 198,-35 198,-31.5 198,-31.5 198,-24.5 198,-24.5 198,-21 201.5,-17.5 205,-17.5"/>
<text text-anchor="start" x="201" y="-25.3" font-family="Times,serif" font-weight="bold" font-size="14.00">S7, A5, 1, 1</text>
<text text-anchor="start" x="228.5" y="-4.7" font-family="Times,serif" font-size="16.00">...</text>
<text text-anchor="middle" x="184" y="-42.8" font-family="Times,serif" font-size="14.00">ye21</text>
</g>
<!-- 0x75a39f1a -->
<g id="node38" class="node">
<title>0x75a39f1a</title>
<path fill="#f8f9fa" stroke="transparent" d="M296,-17.5C296,-17.5 355,-17.5 355,-17.5 358.5,-17.5 362,-21 362,-24.5 362,-24.5 362,-31.5 362,-31.5 362,-35 358.5,-38.5 355,-38.5 355,-38.5 296,-38.5 296,-38.5 292.5,-38.5 289,-35 289,-31.5 289,-31.5 289,-24.5 289,-24.5 289,-21 292.5,-17.5 296,-17.5"/>
<path fill="none" stroke="#333333" d="M296,-17.5C296,-17.5 355,-17.5 355,-17.5 358.5,-17.5 362,-21 362,-24.5 362,-24.5 362,-31.5 362,-31.5 362,-35 358.5,-38.5 355,-38.5 355,-38.5 296,-38.5 296,-38.5 292.5,-38.5 289,-35 289,-31.5 289,-31.5 289,-24.5 289,-24.5 289,-21 292.5,-17.5 296,-17.5"/>
<text text-anchor="start" x="292" y="-25.3" font-family="Times,serif" font-weight="bold" font-size="14.00">S4, A5, 1, 1</text>
<text text-anchor="start" x="319.5" y="-4.7" font-family="Times,serif" font-size="16.00">...</text>
<text text-anchor="middle" x="275" y="-42.8" font-family="Times,serif" font-size="14.00">ye22</text>
</g>
<!-- 0xa4340948&#45;&gt;0xb40e49f7 -->
<g id="edge40" class="edge">
<title>0xa4340948&#45;&gt;0xb40e49f7:m</title>
<path fill="none" stroke="#444444" stroke-dasharray="5,2" d="M379.76,-74.12C385.71,-67.78 405.38,-46.81 418.54,-32.78"/>
<polygon fill="#444444" stroke="#444444" points="419.69,-33.6 421.41,-29.72 417.65,-31.68 419.69,-33.6"/>
<text text-anchor="middle" x="406.5" y="-54.6" font-family="Times,serif" font-size="8.00"> o3 </text>
</g>
<!-- 0xa4340948&#45;&gt;0xa4e3dc1d -->
<g id="edge41" class="edge">
<title>0xa4340948&#45;&gt;0xa4e3dc1d:m</title>
<path fill="none" stroke="#444444" stroke-dasharray="5,2" d="M375.27,-75.29C357.66,-70.74 260.15,-45.51 239.04,-40.04"/>
<polygon fill="#444444" stroke="#444444" points="239.22,-38.65 235,-39 238.52,-41.36 239.22,-38.65"/>
<text text-anchor="middle" x="324" y="-54.6" font-family="Times,serif" font-size="8.00"> ε </text>
</g>
<!-- 0xa4340948&#45;&gt;0x75a39f1a -->
<g id="edge42" class="edge">
<title>0xa4340948&#45;&gt;0x75a39f1a:m</title>
<path fill="none" stroke="#444444" stroke-dasharray="5,2" d="M375.77,-74.41C367.6,-68.6 339.34,-48.49 329.45,-41.46"/>
<polygon fill="#444444" stroke="#444444" points="330.07,-40.18 326,-39 328.45,-42.46 330.07,-40.18"/>
<text text-anchor="middle" x="363.5" y="-54.6" font-family="Times,serif" font-size="8.00"> o2 </text>
</g>
<!-- 0x8714b3fa -->
<g id="node40" class="node">
<title>0x8714b3fa</title>
<path fill="#f8f9fa" stroke="transparent" d="M508,-17.5C508,-17.5 567,-17.5 567,-17.5 570.5,-17.5 574,-21 574,-24.5 574,-24.5 574,-31.5 574,-31.5 574,-35 570.5,-38.5 567,-38.5 567,-38.5 508,-38.5 508,-38.5 504.5,-38.5 501,-35 501,-31.5 501,-31.5 501,-24.5 501,-24.5 501,-21 504.5,-17.5 508,-17.5"/>
<path fill="none" stroke="#333333" d="M508,-17.5C508,-17.5 567,-17.5 567,-17.5 570.5,-17.5 574,-21 574,-24.5 574,-24.5 574,-31.5 574,-31.5 574,-35 570.5,-38.5 567,-38.5 567,-38.5 508,-38.5 508,-38.5 504.5,-38.5 501,-35 501,-31.5 501,-31.5 501,-24.5 501,-24.5 501,-21 504.5,-17.5 508,-17.5"/>
<text text-anchor="start" x="504" y="-25.3" font-family="Times,serif" font-weight="bold" font-size="14.00">S6, A6, 6, 1</text>
<text text-anchor="start" x="531.5" y="-4.7" font-family="Times,serif" font-size="16.00">...</text>
<text text-anchor="middle" x="487" y="-42.8" font-family="Times,serif" font-size="14.00">ye23</text>
</g>
<!-- 0x35d604fe&#45;&gt;0x8714b3fa -->
<g id="edge44" class="edge">
<title>0x35d604fe&#45;&gt;0x8714b3fa:m</title>
<path fill="none" stroke="#444444" stroke-dasharray="5,2" d="M522.86,-74.01C525.4,-68.13 532.93,-50.73 536.31,-42.9"/>
<polygon fill="#444444" stroke="#444444" points="537.7,-43.23 538,-39 535.13,-42.12 537.7,-43.23"/>
<text text-anchor="middle" x="538.5" y="-54.6" font-family="Times,serif" font-size="8.00"> o1 </text>
</g>
<!-- 0xd08f51b8 -->
<g id="node42" class="node">
<title>0xd08f51b8</title>
<path fill="#fff1f2" stroke="transparent" d="M34,-123.5C34,-123.5 122,-123.5 122,-123.5 125.5,-123.5 129,-127 129,-130.5 129,-130.5 129,-137.5 129,-137.5 129,-141 125.5,-144.5 122,-144.5 122,-144.5 34,-144.5 34,-144.5 30.5,-144.5 27,-141 27,-137.5 27,-137.5 27,-130.5 27,-130.5 27,-127 30.5,-123.5 34,-123.5"/>
<path fill="none" stroke="#9f1239" d="M34,-123.5C34,-123.5 122,-123.5 122,-123.5 125.5,-123.5 129,-127 129,-130.5 129,-130.5 129,-137.5 129,-137.5 129,-141 125.5,-144.5 122,-144.5 122,-144.5 34,-144.5 34,-144.5 30.5,-144.5 27,-141 27,-137.5 27,-137.5 27,-130.5 27,-130.5 27,-127 30.5,-123.5 34,-123.5"/>
<text text-anchor="start" x="30" y="-131.3" font-family="Times,serif" font-weight="bold" font-size="14.00">AX, A1, 5, z_det</text>
<text text-anchor="middle" x="13.5" y="-156.3" font-family="Times,serif" font-size="14.00">ye24</text>
</g>
<!-- 0x1545b75d -->
<g id="node43" class="node">
<title>0x1545b75d</title>
<path fill="#f0fdf4" stroke="transparent" d="M246,-123.5C246,-123.5 305,-123.5 305,-123.5 308.5,-123.5 312,-127 312,-130.5 312,-130.5 312,-137.5 312,-137.5 312,-141 308.5,-144.5 305,-144.5 305,-144.5 246,-144.5 246,-144.5 242.5,-144.5 239,-141 239,-137.5 239,-137.5 239,-130.5 239,-130.5 239,-127 242.5,-123.5 246,-123.5"/>
<path fill="none" stroke="#166534" d="M246,-123.5C246,-123.5 305,-123.5 305,-123.5 308.5,-123.5 312,-127 312,-130.5 312,-130.5 312,-137.5 312,-137.5 312,-141 308.5,-144.5 305,-144.5 305,-144.5 246,-144.5 246,-144.5 242.5,-144.5 239,-141 239,-137.5 239,-137.5 239,-130.5 239,-130.5 239,-127 242.5,-123.5 246,-123.5"/>
<text text-anchor="start" x="242" y="-131.3" font-family="Times,serif" font-weight="bold" font-size="14.00">S7, A1, 5, 1</text>
<text text-anchor="middle" x="225" y="-156.3" font-family="Times,serif" font-size="14.00">ye25</text>
</g>
<!-- 0x492497a5 -->
<g id="node44" class="node">
<title>0x492497a5</title>
<path fill="#f0fdf4" stroke="transparent" d="M155,-123.5C155,-123.5 214,-123.5 214,-123.5 217.5,-123.5 221,-127 221,-130.5 221,-130.5 221,-137.5 221,-137.5 221,-141 217.5,-144.5 214,-144.5 214,-144.5 155,-144.5 155,-144.5 151.5,-144.5 148,-141 148,-137.5 148,-137.5 148,-130.5 148,-130.5 148,-127 151.5,-123.5 155,-123.5"/>
<path fill="none" stroke="#166534" d="M155,-123.5C155,-123.5 214,-123.5 214,-123.5 217.5,-123.5 221,-127 221,-130.5 221,-130.5 221,-137.5 221,-137.5 221,-141 217.5,-144.5 214,-144.5 214,-144.5 155,-144.5 155,-144.5 151.5,-144.5 148,-141 148,-137.5 148,-137.5 148,-130.5 148,-130.5 148,-127 151.5,-123.5 155,-123.5"/>
<text text-anchor="start" x="151" y="-131.3" font-family="Times,serif" font-weight="bold" font-size="14.00">S4, A1, 5, 1</text>
<text text-anchor="middle" x="134" y="-156.3" font-family="Times,serif" font-size="14.00">ye26</text>
</g>
<!-- 0xc99e6cc4&#45;&gt;0xd08f51b8 -->
<g id="edge46" class="edge">
<title>0xc99e6cc4&#45;&gt;0xd08f51b8:m</title>
<path fill="none" stroke="#444444" stroke-dasharray="5,2" d="M205.74,-191.49C193.92,-186.22 138.35,-161.42 104.51,-146.33"/>
<polygon fill="#444444" stroke="#444444" points="104.72,-144.89 100.5,-144.54 103.58,-147.45 104.72,-144.89"/>
<text text-anchor="middle" x="176.5" y="-169.6" font-family="Times,serif" font-size="8.00"> o3 </text>
</g>
<!-- 0xc99e6cc4&#45;&gt;0x1545b75d -->
<g id="edge47" class="edge">
<title>0xc99e6cc4&#45;&gt;0x1545b75d:m</title>
<path fill="none" stroke="#444444" stroke-dasharray="5,2" d="M209.96,-190.83C217.31,-184.56 243.67,-162.08 260.78,-147.48"/>
<polygon fill="#444444" stroke="#444444" points="261.93,-148.34 264.07,-144.68 260.12,-146.21 261.93,-148.34"/>
<text text-anchor="middle" x="240" y="-169.6" font-family="Times,serif" font-size="8.00"> ε </text>
</g>
<!-- 0xc99e6cc4&#45;&gt;0x492497a5 -->
<g id="edge48" class="edge">
<title>0xc99e6cc4&#45;&gt;0x492497a5:m</title>
<path fill="none" stroke="#444444" stroke-dasharray="5,2" d="M207.23,-190.57C204.67,-184.1 196.22,-162.79 190.5,-148.38"/>
<polygon fill="#444444" stroke="#444444" points="191.75,-147.72 188.97,-144.52 189.15,-148.75 191.75,-147.72"/>
<text text-anchor="middle" x="208.5" y="-169.6" font-family="Times,serif" font-size="8.00"> o2 </text>
</g>
<!-- 0xc1d47ad7 -->
<g id="node46" class="node">
<title>0xc1d47ad7</title>
<path fill="#f0fdf4" stroke="transparent" d="M337,-123.5C337,-123.5 396,-123.5 396,-123.5 399.5,-123.5 403,-127 403,-130.5 403,-130.5 403,-137.5 403,-137.5 403,-141 399.5,-144.5 396,-144.5 396,-144.5 337,-144.5 337,-144.5 333.5,-144.5 330,-141 330,-137.5 330,-137.5 330,-130.5 330,-130.5 330,-127 333.5,-123.5 337,-123.5"/>
<path fill="none" stroke="#166534" d="M337,-123.5C337,-123.5 396,-123.5 396,-123.5 399.5,-123.5 403,-127 403,-130.5 403,-130.5 403,-137.5 403,-137.5 403,-141 399.5,-144.5 396,-144.5 396,-144.5 337,-144.5 337,-144.5 333.5,-144.5 330,-141 330,-137.5 330,-137.5 330,-130.5 330,-130.5 330,-127 333.5,-123.5 337,-123.5"/>
<text text-anchor="start" x="333" y="-131.3" font-family="Times,serif" font-weight="bold" font-size="14.00">S1, A1, 5, 0</text>
<text text-anchor="middle" x="316" y="-156.3" font-family="Times,serif" font-size="14.00">ye27</text>
</g>
<!-- 0x5e1ff7ab -->
<g id="node47" class="node">
<title>0x5e1ff7ab</title>
<path fill="#f0fdf4" stroke="transparent" d="M610,-123.5C610,-123.5 669,-123.5 669,-123.5 672.5,-123.5 676,-127 676,-130.5 676,-130.5 676,-137.5 676,-137.5 676,-141 672.5,-144.5 669,-144.5 669,-144.5 610,-144.5 610,-144.5 606.5,-144.5 603,-141 603,-137.5 603,-137.5 603,-130.5 603,-130.5 603,-127 606.5,-123.5 610,-123.5"/>
<path fill="none" stroke="#166534" d="M610,-123.5C610,-123.5 669,-123.5 669,-123.5 672.5,-123.5 676,-127 676,-130.5 676,-130.5 676,-137.5 676,-137.5 676,-141 672.5,-144.5 669,-144.5 669,-144.5 610,-144.5 610,-144.5 606.5,-144.5 603,-141 603,-137.5 603,-137.5 603,-130.5 603,-130.5 603,-127 606.5,-123.5 610,-123.5"/>
<text text-anchor="start" x="606" y="-131.3" font-family="Times,serif" font-weight="bold" font-size="14.00">S8, A1, 5, 2</text>
<text text-anchor="middle" x="616" y="-105.3" font-family="Times,serif" font-size="14.00">ye28</text>
</g>
<!-- 0x881478ea&#45;&gt;0x1545b75d -->
<g id="edge50" class="edge">
<title>0x881478ea&#45;&gt;0x1545b75d:m</title>
<path fill="none" stroke="#444444" stroke-dasharray="5,2" d="M364.75,-191.07C355.35,-185.07 318.59,-161.65 295.43,-146.89"/>
<polygon fill="#444444" stroke="#444444" points="295.96,-145.56 291.84,-144.59 294.46,-147.93 295.96,-145.56"/>
<text text-anchor="middle" x="347.5" y="-169.6" font-family="Times,serif" font-size="8.00"> o3 </text>
</g>
<!-- 0x881478ea&#45;&gt;0xc1d47ad7 -->
<g id="edge51" class="edge">
<title>0x881478ea&#45;&gt;0xc1d47ad7:m</title>
<path fill="none" stroke="#444444" stroke-dasharray="5,2" d="M367,-190.01C367,-183.01 367,-162.79 367,-148.79"/>
<polygon fill="#444444" stroke="#444444" points="368.4,-148.67 367,-144.67 365.6,-148.67 368.4,-148.67"/>
<text text-anchor="middle" x="371" y="-169.6" font-family="Times,serif" font-size="8.00"> ε </text>
</g>
<!-- 0x881478ea&#45;&gt;0x5e1ff7ab -->
<g id="edge52" class="edge">
<title>0x881478ea&#45;&gt;0x5e1ff7ab:m</title>
<path fill="none" stroke="#444444" stroke-dasharray="5,2" d="M369.7,-191.93C390.66,-187.47 528.32,-158.23 598.71,-143.27"/>
<polygon fill="#444444" stroke="#444444" points="599.21,-144.6 602.83,-142.4 598.63,-141.86 599.21,-144.6"/>
<text text-anchor="middle" x="501.5" y="-169.6" font-family="Times,serif" font-size="8.00"> o2 </text>
</g>
<!-- 0x2ec7b435&#45;&gt;0xc4d8bf04 -->
<g id="edge54" class="edge">
<title>0x2ec7b435&#45;&gt;0xc4d8bf04:m</title>
<path fill="none" stroke="#444444" stroke-dasharray="5,2" d="M548.7,-191.07C539.09,-185.07 501.53,-161.65 477.86,-146.89"/>
<polygon fill="#444444" stroke="#444444" points="478.32,-145.52 474.19,-144.59 476.84,-147.9 478.32,-145.52"/>
<text text-anchor="middle" x="529.5" y="-169.6" font-family="Times,serif" font-size="8.00"> o3 </text>
</g>
<!-- 0x2ec7b435&#45;&gt;0x905323a9 -->
<g id="edge55" class="edge">
<title>0x2ec7b435&#45;&gt;0x905323a9:m</title>
<path fill="none" stroke="#444444" stroke-dasharray="5,2" d="M550.89,-190.43C550.57,-184.31 549.63,-166.21 549.21,-158.06"/>
<polygon fill="#444444" stroke="#444444" points="550.61,-157.92 549,-154 547.81,-158.07 550.61,-157.92"/>
<text text-anchor="middle" x="554" y="-169.6" font-family="Times,serif" font-size="8.00"> ε </text>
</g>
<!-- 0x2ec7b435&#45;&gt;0xa6b2d5f6 -->
<g id="edge56" class="edge">
<title>0x2ec7b435&#45;&gt;0xa6b2d5f6:m</title>
<path fill="none" stroke="#444444" stroke-dasharray="5,2" d="M553.46,-191.65C570.26,-185.85 667.82,-152.19 688.96,-144.89"/>
<polygon fill="#444444" stroke="#444444" points="689.68,-146.13 693,-143.5 688.76,-143.48 689.68,-146.13"/>
<text text-anchor="middle" x="643.5" y="-169.6" font-family="Times,serif" font-size="8.00"> o2 </text>
</g>
<!-- 0xc6b8866c -->
<g id="node50" class="node">
<title>0xc6b8866c</title>
<path fill="#fff1f2" stroke="transparent" d="M792,-123.5C792,-123.5 856,-123.5 856,-123.5 859.5,-123.5 863,-127 863,-130.5 863,-130.5 863,-137.5 863,-137.5 863,-141 859.5,-144.5 856,-144.5 856,-144.5 792,-144.5 792,-144.5 788.5,-144.5 785,-141 785,-137.5 785,-137.5 785,-130.5 785,-130.5 785,-127 788.5,-123.5 792,-123.5"/>
<path fill="none" stroke="#9f1239" d="M792,-123.5C792,-123.5 856,-123.5 856,-123.5 859.5,-123.5 863,-127 863,-130.5 863,-130.5 863,-137.5 863,-137.5 863,-141 859.5,-144.5 856,-144.5 856,-144.5 792,-144.5 792,-144.5 788.5,-144.5 785,-141 785,-137.5 785,-137.5 785,-130.5 785,-130.5 785,-127 788.5,-123.5 792,-123.5"/>
<text text-anchor="start" x="788" y="-131.3" font-family="Times,serif" font-weight="bold" font-size="14.00">AX, A1, 5, 2</text>
<text text-anchor="middle" x="798.5" y="-156.3" font-family="Times,serif" font-size="14.00">ye29</text>
</g>
<!-- 0xde603c1f&#45;&gt;0x5e1ff7ab -->
<g id="edge59" class="edge">
<title>0xde603c1f&#45;&gt;0x5e1ff7ab:m</title>
<path fill="none" stroke="#444444" stroke-dasharray="5,2" d="M765.33,-191.29C752.77,-185.6 698.88,-161.18 665.99,-146.28"/>
<polygon fill="#444444" stroke="#444444" points="666.31,-144.88 662.09,-144.51 665.15,-147.43 666.31,-144.88"/>
<text text-anchor="middle" x="734" y="-169.6" font-family="Times,serif" font-size="8.00"> ε </text>
</g>
<!-- 0xde603c1f&#45;&gt;0xc6b8866c -->
<g id="edge58" class="edge">
<title>0xde603c1f&#45;&gt;0xc6b8866c:m</title>
<path fill="none" stroke="#444444" stroke-dasharray="5,2" d="M769.86,-190.57C776.21,-183.99 797.4,-162.05 811.3,-147.65"/>
<polygon fill="#444444" stroke="#444444" points="812.55,-148.37 814.33,-144.52 810.54,-146.43 812.55,-148.37"/>
<text text-anchor="middle" x="811.5" y="-169.6" font-family="Times,serif" font-size="8.00"> o3 </text>
</g>
<!-- 0xde603c1f&#45;&gt;0xc6b8866c -->
<g id="edge60" class="edge">
<title>0xde603c1f&#45;&gt;0xc6b8866c:m</title>
<path fill="none" stroke="#444444" stroke-dasharray="5,2" d="M769.86,-190.57C776.21,-183.99 797.4,-162.05 811.3,-147.65"/>
<polygon fill="#444444" stroke="#444444" points="812.55,-148.37 814.33,-144.52 810.54,-146.43 812.55,-148.37"/>
<text text-anchor="middle" x="790.5" y="-169.6" font-family="Times,serif" font-size="8.00"> o2 </text>
</g>
<!-- start -->
<g id="node52" class="node">
<title>start</title>
</g>
<!-- start&#45;&gt;0x46ac07f4 -->
<g id="edge61" class="edge">
<title>start&#45;&gt;0x46ac07f4:m</title>
<path fill="none" stroke="black" d="M485,-752.87C485,-751.3 485,-735.73 485,-723.36"/>
<polygon fill="black" stroke="black" points="486.75,-723.31 485,-718.31 483.25,-723.31 486.75,-723.31"/>
</g>
</g>
</svg>
