<?xml version="1.0" encoding="UTF-8" standalone="no"?>
<!DOCTYPE svg PUBLIC "-//W3C//DTD SVG 1.1//EN"
 "http://www.w3.org/Graphics/SVG/1.1/DTD/svg11.dtd">
<!-- Generated by graphviz version 2.43.0 (0)
 -->
<!-- Title: %3 Pages: 1 -->
<svg width="1037pt" height="825pt"
 viewBox="0.00 0.00 1037.36 825.00" xmlns="http://www.w3.org/2000/svg" xmlns:xlink="http://www.w3.org/1999/xlink">
<g id="graph0" class="graph" transform="scale(1 1) rotate(0) translate(4 821)">
<title>%3</title>
<polygon fill="white" stroke="transparent" points="-4,4 -4,-821 1033.36,-821 1033.36,4 -4,4"/>
<!-- 0x46ac07f4 -->
<g id="node1" class="node">
<title>0x46ac07f4</title>
<text text-anchor="start" x="290" y="-808.4" font-family="Times,serif" font-weight="bold" font-size="12.00">ye0</text>
<path fill="#f8f9fa" stroke="transparent" d="M268.83,-779C268.83,-779 329.17,-779 329.17,-779 333.33,-779 337.5,-783.17 337.5,-787.33 337.5,-787.33 337.5,-795.67 337.5,-795.67 337.5,-799.83 333.33,-804 329.17,-804 329.17,-804 268.83,-804 268.83,-804 264.67,-804 260.5,-799.83 260.5,-795.67 260.5,-795.67 260.5,-787.33 260.5,-787.33 260.5,-783.17 264.67,-779 268.83,-779"/>
<path fill="none" stroke="#333333" d="M268.83,-779C268.83,-779 329.17,-779 329.17,-779 333.33,-779 337.5,-783.17 337.5,-787.33 337.5,-787.33 337.5,-795.67 337.5,-795.67 337.5,-799.83 333.33,-804 329.17,-804 329.17,-804 268.83,-804 268.83,-804 264.67,-804 260.5,-799.83 260.5,-795.67 260.5,-795.67 260.5,-787.33 260.5,-787.33 260.5,-783.17 264.67,-779 268.83,-779"/>
<text text-anchor="start" x="265.5" y="-788.8" font-family="Times,serif" font-weight="bold" font-size="14.00">S1, A7, 0, 0</text>
</g>
<!-- 0x1573beba -->
<g id="node3" class="node">
<title>0x1573beba</title>
<ellipse fill="white" stroke="black" stroke-width="0.8" cx="198.5" cy="-725.5" rx="3.5" ry="3.5"/>
</g>
<!-- 0x46ac07f4&#45;&gt;0x1573beba -->
<g id="edge1" class="edge">
<title>0x46ac07f4:box&#45;&gt;0x1573beba</title>
<path fill="none" stroke="#444444" d="M259.5,-791C228.75,-791 208.88,-751.82 201.61,-734.53"/>
<polygon fill="#444444" stroke="#444444" points="203.55,-733.75 199.38,-728.95 199.65,-735.3 203.55,-733.75"/>
<text text-anchor="start" x="215.5" y="-751.6" font-family="Times,serif" font-weight="bold" font-size="13.00"> o1 </text>
</g>
<!-- 0x91695c82 -->
<g id="node7" class="node">
<title>0x91695c82</title>
<ellipse fill="white" stroke="black" stroke-width="0.8" cx="299.5" cy="-725.5" rx="3.5" ry="3.5"/>
</g>
<!-- 0x46ac07f4&#45;&gt;0x91695c82 -->
<g id="edge3" class="edge">
<title>0x46ac07f4:box&#45;&gt;0x91695c82</title>
<path fill="none" stroke="#444444" d="M299.5,-779C299.5,-763.74 299.5,-746 299.5,-735.53"/>
<polygon fill="#444444" stroke="#444444" points="301.6,-735.35 299.5,-729.35 297.4,-735.35 301.6,-735.35"/>
<text text-anchor="start" x="299.5" y="-751.6" font-family="Times,serif" font-weight="bold" font-size="13.00"> o2 </text>
</g>
<!-- 0xb1d239fb -->
<g id="node11" class="node">
<title>0xb1d239fb</title>
<ellipse fill="white" stroke="black" stroke-width="0.8" cx="486.5" cy="-435.5" rx="3.5" ry="3.5"/>
</g>
<!-- 0x46ac07f4&#45;&gt;0xb1d239fb -->
<g id="edge7" class="edge">
<title>0x46ac07f4:box&#45;&gt;0xb1d239fb</title>
<path fill="none" stroke="#444444" d="M338.5,-791C374.17,-791 485.5,-762.17 485.5,-726.5 485.5,-726.5 485.5,-726.5 485.5,-507 485.5,-484.9 486,-458.9 486.29,-445.5"/>
<polygon fill="#444444" stroke="#444444" points="488.4,-445.24 486.43,-439.19 484.2,-445.14 488.4,-445.24"/>
<text text-anchor="start" x="485.5" y="-606.6" font-family="Times,serif" font-weight="bold" font-size="13.00"> o3 </text>
</g>
<!-- 0x8e7109f3 -->
<g id="node2" class="node">
<title>0x8e7109f3</title>
<text text-anchor="start" x="92" y="-663.4" font-family="Times,serif" font-weight="bold" font-size="12.00">ye1</text>
<path fill="#f8f9fa" stroke="transparent" d="M70.83,-634C70.83,-634 131.17,-634 131.17,-634 135.33,-634 139.5,-638.17 139.5,-642.33 139.5,-642.33 139.5,-650.67 139.5,-650.67 139.5,-654.83 135.33,-659 131.17,-659 131.17,-659 70.83,-659 70.83,-659 66.67,-659 62.5,-654.83 62.5,-650.67 62.5,-650.67 62.5,-642.33 62.5,-642.33 62.5,-638.17 66.67,-634 70.83,-634"/>
<path fill="none" stroke="#333333" d="M70.83,-634C70.83,-634 131.17,-634 131.17,-634 135.33,-634 139.5,-638.17 139.5,-642.33 139.5,-642.33 139.5,-650.67 139.5,-650.67 139.5,-654.83 135.33,-659 131.17,-659 131.17,-659 70.83,-659 70.83,-659 66.67,-659 62.5,-654.83 62.5,-650.67 62.5,-650.67 62.5,-642.33 62.5,-642.33 62.5,-638.17 66.67,-634 70.83,-634"/>
<text text-anchor="start" x="67.5" y="-643.8" font-family="Times,serif" font-weight="bold" font-size="14.00">S2, A7, 1, 0</text>
</g>
<!-- 0xca8283dd -->
<g id="node13" class="node">
<title>0xca8283dd</title>
<ellipse fill="white" stroke="black" stroke-width="0.8" cx="101.5" cy="-580.5" rx="3.5" ry="3.5"/>
</g>
<!-- 0x8e7109f3&#45;&gt;0xca8283dd -->
<g id="edge11" class="edge">
<title>0x8e7109f3:box&#45;&gt;0xca8283dd</title>
<path fill="none" stroke="#444444" d="M101.5,-634C101.5,-618.74 101.5,-601 101.5,-590.53"/>
<polygon fill="#444444" stroke="#444444" points="103.6,-590.35 101.5,-584.35 99.4,-590.35 103.6,-590.35"/>
<text text-anchor="start" x="101.5" y="-606.6" font-family="Times,serif" font-weight="bold" font-size="13.00"> uo2 </text>
</g>
<!-- 0x1573beba&#45;&gt;0x8e7109f3 -->
<g id="edge2" class="edge">
<title>0x1573beba&#45;&gt;0x8e7109f3:box</title>
<path fill="none" stroke="#444444" stroke-dasharray="5,2" d="M196.3,-722.74C188.73,-716.58 163.39,-695.07 149.5,-672 144.77,-664.14 148.95,-653.45 146.18,-648.59"/>
<polygon fill="#444444" stroke="#444444" points="146.83,-646.58 140.5,-646 145.09,-650.4 146.83,-646.58"/>
<text text-anchor="start" x="175.5" y="-694.6" font-family="Times,serif" font-weight="bold" font-size="13.00"> o1 </text>
</g>
<!-- 0x14432f18 -->
<g id="node4" class="node">
<title>0x14432f18</title>
<text text-anchor="start" x="191" y="-663.4" font-family="Times,serif" font-weight="bold" font-size="12.00">ye2</text>
<path fill="#f8f9fa" stroke="transparent" d="M169.83,-634C169.83,-634 230.17,-634 230.17,-634 234.33,-634 238.5,-638.17 238.5,-642.33 238.5,-642.33 238.5,-650.67 238.5,-650.67 238.5,-654.83 234.33,-659 230.17,-659 230.17,-659 169.83,-659 169.83,-659 165.67,-659 161.5,-654.83 161.5,-650.67 161.5,-650.67 161.5,-642.33 161.5,-642.33 161.5,-638.17 165.67,-634 169.83,-634"/>
<path fill="none" stroke="#333333" d="M169.83,-634C169.83,-634 230.17,-634 230.17,-634 234.33,-634 238.5,-638.17 238.5,-642.33 238.5,-642.33 238.5,-650.67 238.5,-650.67 238.5,-654.83 234.33,-659 230.17,-659 230.17,-659 169.83,-659 169.83,-659 165.67,-659 161.5,-654.83 161.5,-650.67 161.5,-650.67 161.5,-642.33 161.5,-642.33 161.5,-638.17 165.67,-634 169.83,-634"/>
<text text-anchor="start" x="166.5" y="-643.8" font-family="Times,serif" font-weight="bold" font-size="14.00">S8, A0, 3, 2</text>
</g>
<!-- 0xbef0c65a -->
<g id="node15" class="node">
<title>0xbef0c65a</title>
<ellipse fill="white" stroke="black" stroke-width="0.8" cx="200.5" cy="-580.5" rx="3.5" ry="3.5"/>
</g>
<!-- 0x14432f18&#45;&gt;0xbef0c65a -->
<g id="edge13" class="edge">
<title>0x14432f18:box&#45;&gt;0xbef0c65a</title>
<path fill="none" stroke="#444444" d="M200.5,-634C200.5,-618.74 200.5,-601 200.5,-590.53"/>
<polygon fill="#444444" stroke="#444444" points="202.6,-590.35 200.5,-584.35 198.4,-590.35 202.6,-590.35"/>
<text text-anchor="start" x="200.5" y="-606.6" font-family="Times,serif" font-weight="bold" font-size="13.00"> o4 </text>
</g>
<!-- 0x18921e5b -->
<g id="node5" class="node">
<title>0x18921e5b</title>
<text text-anchor="start" x="290" y="-663.4" font-family="Times,serif" font-weight="bold" font-size="12.00">ye3</text>
<path fill="#f8f9fa" stroke="transparent" d="M268.83,-634C268.83,-634 329.17,-634 329.17,-634 333.33,-634 337.5,-638.17 337.5,-642.33 337.5,-642.33 337.5,-650.67 337.5,-650.67 337.5,-654.83 333.33,-659 329.17,-659 329.17,-659 268.83,-659 268.83,-659 264.67,-659 260.5,-654.83 260.5,-650.67 260.5,-650.67 260.5,-642.33 260.5,-642.33 260.5,-638.17 264.67,-634 268.83,-634"/>
<path fill="none" stroke="#333333" d="M268.83,-634C268.83,-634 329.17,-634 329.17,-634 333.33,-634 337.5,-638.17 337.5,-642.33 337.5,-642.33 337.5,-650.67 337.5,-650.67 337.5,-654.83 333.33,-659 329.17,-659 329.17,-659 268.83,-659 268.83,-659 264.67,-659 260.5,-654.83 260.5,-650.67 260.5,-650.67 260.5,-642.33 260.5,-642.33 260.5,-638.17 264.67,-634 268.83,-634"/>
<text text-anchor="start" x="265.5" y="-643.8" font-family="Times,serif" font-weight="bold" font-size="14.00">S7, A0, 3, 1</text>
</g>
<!-- 0x5098cc94 -->
<g id="node17" class="node">
<title>0x5098cc94</title>
<ellipse fill="white" stroke="black" stroke-width="0.8" cx="299.5" cy="-580.5" rx="3.5" ry="3.5"/>
</g>
<!-- 0x18921e5b&#45;&gt;0x5098cc94 -->
<g id="edge15" class="edge">
<title>0x18921e5b:box&#45;&gt;0x5098cc94</title>
<path fill="none" stroke="#444444" d="M299.5,-634C299.5,-618.74 299.5,-601 299.5,-590.53"/>
<polygon fill="#444444" stroke="#444444" points="301.6,-590.35 299.5,-584.35 297.4,-590.35 301.6,-590.35"/>
<text text-anchor="start" x="299.5" y="-606.6" font-family="Times,serif" font-weight="bold" font-size="13.00"> o4 </text>
</g>
<!-- 0x640c8300 -->
<g id="node6" class="node">
<title>0x640c8300</title>
<text text-anchor="start" x="389" y="-663.4" font-family="Times,serif" font-weight="bold" font-size="12.00">ye4</text>
<path fill="#f8f9fa" stroke="transparent" d="M367.83,-634C367.83,-634 428.17,-634 428.17,-634 432.33,-634 436.5,-638.17 436.5,-642.33 436.5,-642.33 436.5,-650.67 436.5,-650.67 436.5,-654.83 432.33,-659 428.17,-659 428.17,-659 367.83,-659 367.83,-659 363.67,-659 359.5,-654.83 359.5,-650.67 359.5,-650.67 359.5,-642.33 359.5,-642.33 359.5,-638.17 363.67,-634 367.83,-634"/>
<path fill="none" stroke="#333333" d="M367.83,-634C367.83,-634 428.17,-634 428.17,-634 432.33,-634 436.5,-638.17 436.5,-642.33 436.5,-642.33 436.5,-650.67 436.5,-650.67 436.5,-654.83 432.33,-659 428.17,-659 428.17,-659 367.83,-659 367.83,-659 363.67,-659 359.5,-654.83 359.5,-650.67 359.5,-650.67 359.5,-642.33 359.5,-642.33 359.5,-638.17 363.67,-634 367.83,-634"/>
<text text-anchor="start" x="364.5" y="-643.8" font-family="Times,serif" font-weight="bold" font-size="14.00">S1, A0, 3, 0</text>
</g>
<!-- 0xe0c9482 -->
<g id="node19" class="node">
<title>0xe0c9482</title>
<ellipse fill="white" stroke="black" stroke-width="0.8" cx="398.5" cy="-580.5" rx="3.5" ry="3.5"/>
</g>
<!-- 0x640c8300&#45;&gt;0xe0c9482 -->
<g id="edge17" class="edge">
<title>0x640c8300:box&#45;&gt;0xe0c9482</title>
<path fill="none" stroke="#444444" d="M398.5,-634C398.5,-618.74 398.5,-601 398.5,-590.53"/>
<polygon fill="#444444" stroke="#444444" points="400.6,-590.35 398.5,-584.35 396.4,-590.35 400.6,-590.35"/>
<text text-anchor="start" x="398.5" y="-606.6" font-family="Times,serif" font-weight="bold" font-size="13.00"> o4 </text>
</g>
<!-- 0x91695c82&#45;&gt;0x14432f18 -->
<g id="edge4" class="edge">
<title>0x91695c82&#45;&gt;0x14432f18:box</title>
<path fill="none" stroke="#444444" stroke-dasharray="5,2" d="M297.21,-722.77C289.31,-716.68 262.89,-695.37 248.5,-672 243.69,-664.19 247.91,-653.47 245.16,-648.6"/>
<polygon fill="#444444" stroke="#444444" points="245.83,-646.59 239.5,-646 244.08,-650.41 245.83,-646.59"/>
<text text-anchor="start" x="275.5" y="-694.6" font-family="Times,serif" font-weight="bold" font-size="13.00"> o2 </text>
</g>
<!-- 0x91695c82&#45;&gt;0x18921e5b -->
<g id="edge5" class="edge">
<title>0x91695c82&#45;&gt;0x18921e5b:box</title>
<path fill="none" stroke="#444444" stroke-dasharray="5,2" d="M301.28,-722.12C308.65,-712.26 336.48,-674.95 337.5,-672 340.27,-663.97 345.75,-653.71 343.88,-648.83"/>
<polygon fill="#444444" stroke="#444444" points="344.79,-646.93 338.5,-646 342.83,-650.65 344.79,-646.93"/>
<text text-anchor="start" x="325.5" y="-694.6" font-family="Times,serif" font-weight="bold" font-size="13.00"> o3 </text>
</g>
<!-- 0x91695c82&#45;&gt;0x640c8300 -->
<g id="edge6" class="edge">
<title>0x91695c82&#45;&gt;0x640c8300:box</title>
<path fill="none" stroke="#444444" stroke-dasharray="5,2" d="M302.86,-724.09C311.55,-722.84 334.94,-718.24 346.5,-704 353.37,-695.54 348.06,-661.31 353.51,-649.8"/>
<polygon fill="#444444" stroke="#444444" points="355,-651.31 358.5,-646 352.46,-647.97 355,-651.31"/>
<text text-anchor="start" x="350.5" y="-694.6" font-family="Times,serif" font-weight="bold" font-size="13.00"> ε </text>
</g>
<!-- 0x5cb8417a -->
<g id="node8" class="node">
<title>0x5cb8417a</title>
<text text-anchor="start" x="698" y="-364.4" font-family="Times,serif" font-weight="bold" font-size="12.00">ye5</text>
<path fill="#f8f9fa" stroke="transparent" d="M676.83,-335C676.83,-335 737.17,-335 737.17,-335 741.33,-335 745.5,-339.17 745.5,-343.33 745.5,-343.33 745.5,-351.67 745.5,-351.67 745.5,-355.83 741.33,-360 737.17,-360 737.17,-360 676.83,-360 676.83,-360 672.67,-360 668.5,-355.83 668.5,-351.67 668.5,-351.67 668.5,-343.33 668.5,-343.33 668.5,-339.17 672.67,-335 676.83,-335"/>
<path fill="none" stroke="#333333" d="M676.83,-335C676.83,-335 737.17,-335 737.17,-335 741.33,-335 745.5,-339.17 745.5,-343.33 745.5,-343.33 745.5,-351.67 745.5,-351.67 745.5,-355.83 741.33,-360 737.17,-360 737.17,-360 676.83,-360 676.83,-360 672.67,-360 668.5,-355.83 668.5,-351.67 668.5,-351.67 668.5,-343.33 668.5,-343.33 668.5,-339.17 672.67,-335 676.83,-335"/>
<text text-anchor="start" x="673.5" y="-344.8" font-family="Times,serif" font-weight="bold" font-size="14.00">S8, A6, 7, 2</text>
</g>
<!-- 0x740e83 -->
<g id="node22" class="node">
<title>0x740e83</title>
<ellipse fill="white" stroke="black" stroke-width="0.8" cx="781.5" cy="-272.5" rx="3.5" ry="3.5"/>
</g>
<!-- 0x5cb8417a&#45;&gt;0x740e83 -->
<g id="edge19" class="edge">
<title>0x5cb8417a:box&#45;&gt;0x740e83</title>
<path fill="none" stroke="#444444" d="M746.5,-347C774.82,-347 780.25,-301.96 781.27,-282.4"/>
<polygon fill="#444444" stroke="#444444" points="783.37,-282.36 781.49,-276.29 779.18,-282.21 783.37,-282.36"/>
<text text-anchor="start" x="779.5" y="-298.6" font-family="Times,serif" font-weight="bold" font-size="13.00"> o3 </text>
</g>
<!-- 0x82ee1f64 -->
<g id="node24" class="node">
<title>0x82ee1f64</title>
<ellipse fill="white" stroke="black" stroke-width="0.8" cx="707.5" cy="-272.5" rx="3.5" ry="3.5"/>
</g>
<!-- 0x5cb8417a&#45;&gt;0x82ee1f64 -->
<g id="edge23" class="edge">
<title>0x5cb8417a:box&#45;&gt;0x82ee1f64</title>
<path fill="none" stroke="#444444" d="M707.5,-334C707.5,-315.73 707.5,-294.37 707.5,-282.54"/>
<polygon fill="#444444" stroke="#444444" points="709.6,-282.27 707.5,-276.27 705.4,-282.27 709.6,-282.27"/>
<text text-anchor="start" x="707.5" y="-298.6" font-family="Times,serif" font-weight="bold" font-size="13.00"> uo1 </text>
</g>
<!-- 0x7ade2a88 -->
<g id="node9" class="node">
<title>0x7ade2a88</title>
<text text-anchor="start" x="290" y="-364.4" font-family="Times,serif" font-weight="bold" font-size="12.00">ye6</text>
<path fill="#f8f9fa" stroke="transparent" d="M268.83,-335C268.83,-335 329.17,-335 329.17,-335 333.33,-335 337.5,-339.17 337.5,-343.33 337.5,-343.33 337.5,-351.67 337.5,-351.67 337.5,-355.83 333.33,-360 329.17,-360 329.17,-360 268.83,-360 268.83,-360 264.67,-360 260.5,-355.83 260.5,-351.67 260.5,-351.67 260.5,-343.33 260.5,-343.33 260.5,-339.17 264.67,-335 268.83,-335"/>
<path fill="none" stroke="#333333" d="M268.83,-335C268.83,-335 329.17,-335 329.17,-335 333.33,-335 337.5,-339.17 337.5,-343.33 337.5,-343.33 337.5,-351.67 337.5,-351.67 337.5,-355.83 333.33,-360 329.17,-360 329.17,-360 268.83,-360 268.83,-360 264.67,-360 260.5,-355.83 260.5,-351.67 260.5,-351.67 260.5,-343.33 260.5,-343.33 260.5,-339.17 264.67,-335 268.83,-335"/>
<text text-anchor="start" x="265.5" y="-344.8" font-family="Times,serif" font-weight="bold" font-size="14.00">S7, A6, 7, 1</text>
</g>
<!-- 0xe942c9ba -->
<g id="node26" class="node">
<title>0xe942c9ba</title>
<ellipse fill="white" stroke="black" stroke-width="0.8" cx="280.5" cy="-272.5" rx="3.5" ry="3.5"/>
</g>
<!-- 0x7ade2a88&#45;&gt;0xe942c9ba -->
<g id="edge25" class="edge">
<title>0x7ade2a88:box&#45;&gt;0xe942c9ba</title>
<path fill="none" stroke="#444444" d="M299.5,-334C299.5,-314.49 290.39,-293 284.79,-281.62"/>
<polygon fill="#444444" stroke="#444444" points="286.6,-280.55 281.99,-276.18 282.87,-282.47 286.6,-280.55"/>
<text text-anchor="start" x="295.5" y="-298.6" font-family="Times,serif" font-weight="bold" font-size="13.00"> uo1 </text>
</g>
<!-- 0xc6588f2d -->
<g id="node10" class="node">
<title>0xc6588f2d</title>
<text text-anchor="start" x="416" y="-364.4" font-family="Times,serif" font-weight="bold" font-size="12.00">ye7</text>
<path fill="#f8f9fa" stroke="transparent" d="M394.83,-335C394.83,-335 455.17,-335 455.17,-335 459.33,-335 463.5,-339.17 463.5,-343.33 463.5,-343.33 463.5,-351.67 463.5,-351.67 463.5,-355.83 459.33,-360 455.17,-360 455.17,-360 394.83,-360 394.83,-360 390.67,-360 386.5,-355.83 386.5,-351.67 386.5,-351.67 386.5,-343.33 386.5,-343.33 386.5,-339.17 390.67,-335 394.83,-335"/>
<path fill="none" stroke="#333333" d="M394.83,-335C394.83,-335 455.17,-335 455.17,-335 459.33,-335 463.5,-339.17 463.5,-343.33 463.5,-343.33 463.5,-351.67 463.5,-351.67 463.5,-355.83 459.33,-360 455.17,-360 455.17,-360 394.83,-360 394.83,-360 390.67,-360 386.5,-355.83 386.5,-351.67 386.5,-351.67 386.5,-343.33 386.5,-343.33 386.5,-339.17 390.67,-335 394.83,-335"/>
<text text-anchor="start" x="391.5" y="-344.8" font-family="Times,serif" font-weight="bold" font-size="14.00">S1, A6, 7, 0</text>
</g>
<!-- 0x432821f2 -->
<g id="node29" class="node">
<title>0x432821f2</title>
<ellipse fill="white" stroke="black" stroke-width="0.8" cx="505.5" cy="-272.5" rx="3.5" ry="3.5"/>
</g>
<!-- 0xc6588f2d&#45;&gt;0x432821f2 -->
<g id="edge27" class="edge">
<title>0xc6588f2d:box&#45;&gt;0x432821f2</title>
<path fill="none" stroke="#444444" d="M425.5,-334C425.5,-298.96 474.94,-281.62 496.09,-275.81"/>
<polygon fill="#444444" stroke="#444444" points="496.78,-277.8 502.06,-274.27 495.73,-273.73 496.78,-277.8"/>
<text text-anchor="start" x="451.5" y="-298.6" font-family="Times,serif" font-weight="bold" font-size="13.00"> o3 </text>
</g>
<!-- 0xa6b691a8 -->
<g id="node31" class="node">
<title>0xa6b691a8</title>
<ellipse fill="white" stroke="black" stroke-width="0.8" cx="333.5" cy="-272.5" rx="3.5" ry="3.5"/>
</g>
<!-- 0xc6588f2d&#45;&gt;0xa6b691a8 -->
<g id="edge31" class="edge">
<title>0xc6588f2d:box&#45;&gt;0xa6b691a8</title>
<path fill="none" stroke="#444444" d="M385.5,-347C354.18,-347 340.03,-301.96 335.36,-282.4"/>
<polygon fill="#444444" stroke="#444444" points="337.36,-281.7 334.02,-276.29 333.26,-282.6 337.36,-281.7"/>
<text text-anchor="start" x="343.5" y="-298.6" font-family="Times,serif" font-weight="bold" font-size="13.00"> uo1 </text>
</g>
<!-- 0xb1d239fb&#45;&gt;0x5cb8417a -->
<g id="edge8" class="edge">
<title>0xb1d239fb&#45;&gt;0x5cb8417a:box</title>
<path fill="none" stroke="#444444" stroke-dasharray="5,2" d="M488.84,-432.34C503.29,-419.2 582.36,-350.61 661.33,-347.14"/>
<polygon fill="#444444" stroke="#444444" points="661.55,-349.23 667.5,-347 661.45,-345.03 661.55,-349.23"/>
<text text-anchor="start" x="526.5" y="-404.6" font-family="Times,serif" font-weight="bold" font-size="13.00"> o2 </text>
</g>
<!-- 0xb1d239fb&#45;&gt;0x7ade2a88 -->
<g id="edge9" class="edge">
<title>0xb1d239fb&#45;&gt;0x7ade2a88:box</title>
<path fill="none" stroke="#444444" stroke-dasharray="5,2" d="M483.9,-433.12C474.84,-428.33 443.8,-412.06 417.5,-400 398.67,-391.36 391.79,-393.42 374.5,-382 357.77,-370.95 360.06,-351.5 344.51,-347.67"/>
<polygon fill="#444444" stroke="#444444" points="344.7,-345.58 338.5,-347 344.23,-349.75 344.7,-345.58"/>
<text text-anchor="start" x="446.5" y="-404.6" font-family="Times,serif" font-weight="bold" font-size="13.00"> o3 </text>
</g>
<!-- 0xb1d239fb&#45;&gt;0xc6588f2d -->
<g id="edge10" class="edge">
<title>0xb1d239fb&#45;&gt;0xc6588f2d:box</title>
<path fill="none" stroke="#444444" stroke-dasharray="5,2" d="M486.98,-431.98C489.41,-418.53 499.19,-355.61 470.72,-347.8"/>
<polygon fill="#444444" stroke="#444444" points="470.72,-345.68 464.5,-347 470.18,-349.85 470.72,-345.68"/>
<text text-anchor="start" x="489.5" y="-404.6" font-family="Times,serif" font-weight="bold" font-size="13.00"> ε </text>
</g>
<!-- 0x77c1714c -->
<g id="node12" class="node">
<title>0x77c1714c</title>
<text text-anchor="start" x="92" y="-518.4" font-family="Times,serif" font-weight="bold" font-size="12.00">ye8</text>
<path fill="#f8f9fa" stroke="transparent" d="M70.83,-489C70.83,-489 131.17,-489 131.17,-489 135.33,-489 139.5,-493.17 139.5,-497.33 139.5,-497.33 139.5,-505.67 139.5,-505.67 139.5,-509.83 135.33,-514 131.17,-514 131.17,-514 70.83,-514 70.83,-514 66.67,-514 62.5,-509.83 62.5,-505.67 62.5,-505.67 62.5,-497.33 62.5,-497.33 62.5,-493.17 66.67,-489 70.83,-489"/>
<path fill="none" stroke="#333333" d="M70.83,-489C70.83,-489 131.17,-489 131.17,-489 135.33,-489 139.5,-493.17 139.5,-497.33 139.5,-497.33 139.5,-505.67 139.5,-505.67 139.5,-509.83 135.33,-514 131.17,-514 131.17,-514 70.83,-514 70.83,-514 66.67,-514 62.5,-509.83 62.5,-505.67 62.5,-505.67 62.5,-497.33 62.5,-497.33 62.5,-493.17 66.67,-489 70.83,-489"/>
<text text-anchor="start" x="67.5" y="-498.8" font-family="Times,serif" font-weight="bold" font-size="14.00">S2, A7, 2, 0</text>
</g>
<!-- 0x88e92f1c -->
<g id="node33" class="node">
<title>0x88e92f1c</title>
<ellipse fill="white" stroke="black" stroke-width="0.8" cx="101.5" cy="-435.5" rx="3.5" ry="3.5"/>
</g>
<!-- 0x77c1714c&#45;&gt;0x88e92f1c -->
<g id="edge33" class="edge">
<title>0x77c1714c:box&#45;&gt;0x88e92f1c</title>
<path fill="none" stroke="#444444" d="M101.5,-489C101.5,-473.74 101.5,-456 101.5,-445.53"/>
<polygon fill="#444444" stroke="#444444" points="103.6,-445.35 101.5,-439.35 99.4,-445.35 103.6,-445.35"/>
<text text-anchor="start" x="101.5" y="-461.6" font-family="Times,serif" font-weight="bold" font-size="13.00"> o1 </text>
</g>
<!-- 0xca8283dd&#45;&gt;0x77c1714c -->
<g id="edge12" class="edge">
<title>0xca8283dd&#45;&gt;0x77c1714c:box</title>
<path fill="none" stroke="#444444" stroke-dasharray="5,2" d="M103.79,-577.38C110.76,-570.75 131.71,-549.55 139.5,-527 142.27,-518.97 147.75,-508.71 145.88,-503.83"/>
<polygon fill="#444444" stroke="#444444" points="146.79,-501.93 140.5,-501 144.83,-505.65 146.79,-501.93"/>
<text text-anchor="start" x="130.5" y="-549.6" font-family="Times,serif" font-weight="bold" font-size="13.00"> uo2 </text>
</g>
<!-- 0x78a936d6 -->
<g id="node14" class="node">
<title>0x78a936d6</title>
<text text-anchor="start" x="191" y="-518.4" font-family="Times,serif" font-weight="bold" font-size="12.00">ye9</text>
<path fill="#f8f9fa" stroke="transparent" d="M169.83,-489C169.83,-489 230.17,-489 230.17,-489 234.33,-489 238.5,-493.17 238.5,-497.33 238.5,-497.33 238.5,-505.67 238.5,-505.67 238.5,-509.83 234.33,-514 230.17,-514 230.17,-514 169.83,-514 169.83,-514 165.67,-514 161.5,-509.83 161.5,-505.67 161.5,-505.67 161.5,-497.33 161.5,-497.33 161.5,-493.17 165.67,-489 169.83,-489"/>
<path fill="none" stroke="#333333" d="M169.83,-489C169.83,-489 230.17,-489 230.17,-489 234.33,-489 238.5,-493.17 238.5,-497.33 238.5,-497.33 238.5,-505.67 238.5,-505.67 238.5,-509.83 234.33,-514 230.17,-514 230.17,-514 169.83,-514 169.83,-514 165.67,-514 161.5,-509.83 161.5,-505.67 161.5,-505.67 161.5,-497.33 161.5,-497.33 161.5,-493.17 165.67,-489 169.83,-489"/>
<text text-anchor="start" x="166.5" y="-498.8" font-family="Times,serif" font-weight="bold" font-size="14.00">S8, A2, 6, 2</text>
</g>
<!-- 0xbef0c65a&#45;&gt;0x78a936d6 -->
<g id="edge14" class="edge">
<title>0xbef0c65a&#45;&gt;0x78a936d6:box</title>
<path fill="none" stroke="#444444" stroke-dasharray="5,2" d="M202.79,-577.38C209.76,-570.75 230.71,-549.55 238.5,-527 241.27,-518.97 246.75,-508.71 244.88,-503.83"/>
<polygon fill="#444444" stroke="#444444" points="245.79,-501.93 239.5,-501 243.83,-505.65 245.79,-501.93"/>
<text text-anchor="start" x="229.5" y="-549.6" font-family="Times,serif" font-weight="bold" font-size="13.00"> o4 </text>
</g>
<!-- 0x918dc32f -->
<g id="node16" class="node">
<title>0x918dc32f</title>
<text text-anchor="start" x="287" y="-518.4" font-family="Times,serif" font-weight="bold" font-size="12.00">ye10</text>
<path fill="#f8f9fa" stroke="transparent" d="M268.83,-489C268.83,-489 329.17,-489 329.17,-489 333.33,-489 337.5,-493.17 337.5,-497.33 337.5,-497.33 337.5,-505.67 337.5,-505.67 337.5,-509.83 333.33,-514 329.17,-514 329.17,-514 268.83,-514 268.83,-514 264.67,-514 260.5,-509.83 260.5,-505.67 260.5,-505.67 260.5,-497.33 260.5,-497.33 260.5,-493.17 264.67,-489 268.83,-489"/>
<path fill="none" stroke="#333333" d="M268.83,-489C268.83,-489 329.17,-489 329.17,-489 333.33,-489 337.5,-493.17 337.5,-497.33 337.5,-497.33 337.5,-505.67 337.5,-505.67 337.5,-509.83 333.33,-514 329.17,-514 329.17,-514 268.83,-514 268.83,-514 264.67,-514 260.5,-509.83 260.5,-505.67 260.5,-505.67 260.5,-497.33 260.5,-497.33 260.5,-493.17 264.67,-489 268.83,-489"/>
<text text-anchor="start" x="265.5" y="-498.8" font-family="Times,serif" font-weight="bold" font-size="14.00">S7, A6, 6, 1</text>
</g>
<!-- 0xf4a400e0 -->
<g id="node34" class="node">
<title>0xf4a400e0</title>
<ellipse fill="white" stroke="black" stroke-width="0.8" cx="299.5" cy="-435.5" rx="3.5" ry="3.5"/>
</g>
<!-- 0x918dc32f&#45;&gt;0xf4a400e0 -->
<g id="edge35" class="edge">
<title>0x918dc32f:box&#45;&gt;0xf4a400e0</title>
<path fill="none" stroke="#444444" d="M299.5,-489C299.5,-473.74 299.5,-456 299.5,-445.53"/>
<polygon fill="#444444" stroke="#444444" points="301.6,-445.35 299.5,-439.35 297.4,-445.35 301.6,-445.35"/>
<text text-anchor="start" x="299.5" y="-461.6" font-family="Times,serif" font-weight="bold" font-size="13.00"> uo3 </text>
</g>
<!-- 0x5098cc94&#45;&gt;0x918dc32f -->
<g id="edge16" class="edge">
<title>0x5098cc94&#45;&gt;0x918dc32f:box</title>
<path fill="none" stroke="#444444" stroke-dasharray="5,2" d="M301.79,-577.38C308.76,-570.75 329.71,-549.55 337.5,-527 340.27,-518.97 345.75,-508.71 343.88,-503.83"/>
<polygon fill="#444444" stroke="#444444" points="344.79,-501.93 338.5,-501 342.83,-505.65 344.79,-501.93"/>
<text text-anchor="start" x="328.5" y="-549.6" font-family="Times,serif" font-weight="bold" font-size="13.00"> o4 </text>
</g>
<!-- 0xdd0827d4 -->
<g id="node18" class="node">
<title>0xdd0827d4</title>
<text text-anchor="start" x="386" y="-518.4" font-family="Times,serif" font-weight="bold" font-size="12.00">ye11</text>
<path fill="#f8f9fa" stroke="transparent" d="M367.83,-489C367.83,-489 428.17,-489 428.17,-489 432.33,-489 436.5,-493.17 436.5,-497.33 436.5,-497.33 436.5,-505.67 436.5,-505.67 436.5,-509.83 432.33,-514 428.17,-514 428.17,-514 367.83,-514 367.83,-514 363.67,-514 359.5,-509.83 359.5,-505.67 359.5,-505.67 359.5,-497.33 359.5,-497.33 359.5,-493.17 363.67,-489 367.83,-489"/>
<path fill="none" stroke="#333333" d="M367.83,-489C367.83,-489 428.17,-489 428.17,-489 432.33,-489 436.5,-493.17 436.5,-497.33 436.5,-497.33 436.5,-505.67 436.5,-505.67 436.5,-509.83 432.33,-514 428.17,-514 428.17,-514 367.83,-514 367.83,-514 363.67,-514 359.5,-509.83 359.5,-505.67 359.5,-505.67 359.5,-497.33 359.5,-497.33 359.5,-493.17 363.67,-489 367.83,-489"/>
<text text-anchor="start" x="364.5" y="-498.8" font-family="Times,serif" font-weight="bold" font-size="14.00">S1, A6, 6, 0</text>
</g>
<!-- 0x12604e3c -->
<g id="node35" class="node">
<title>0x12604e3c</title>
<ellipse fill="white" stroke="black" stroke-width="0.8" cx="393.5" cy="-435.5" rx="3.5" ry="3.5"/>
</g>
<!-- 0xdd0827d4&#45;&gt;0x12604e3c -->
<g id="edge37" class="edge">
<title>0xdd0827d4:box&#45;&gt;0x12604e3c</title>
<path fill="none" stroke="#444444" d="M398.5,-489C398.5,-473.68 396.36,-455.95 394.88,-445.51"/>
<polygon fill="#444444" stroke="#444444" points="396.92,-444.96 393.96,-439.34 392.77,-445.58 396.92,-444.96"/>
<text text-anchor="start" x="398.5" y="-461.6" font-family="Times,serif" font-weight="bold" font-size="13.00"> uo3 </text>
</g>
<!-- 0xe0c9482&#45;&gt;0xdd0827d4 -->
<g id="edge18" class="edge">
<title>0xe0c9482&#45;&gt;0xdd0827d4:box</title>
<path fill="none" stroke="#444444" stroke-dasharray="5,2" d="M400.71,-577.24C412.26,-565.27 464.38,-509.66 443.53,-501.9"/>
<polygon fill="#444444" stroke="#444444" points="443.74,-499.81 437.5,-501 443.12,-503.96 443.74,-499.81"/>
<text text-anchor="start" x="427.5" y="-549.6" font-family="Times,serif" font-weight="bold" font-size="13.00"> o4 </text>
</g>
<!-- 0xb80f535b -->
<g id="node20" class="node">
<title>0xb80f535b</title>
<text text-anchor="start" x="836.5" y="-201.4" font-family="Times,serif" font-weight="bold" font-size="12.00">ye12</text>
<path fill="#fff1f2" stroke="transparent" d="M815.83,-172C815.83,-172 881.17,-172 881.17,-172 885.33,-172 889.5,-176.17 889.5,-180.33 889.5,-180.33 889.5,-188.67 889.5,-188.67 889.5,-192.83 885.33,-197 881.17,-197 881.17,-197 815.83,-197 815.83,-197 811.67,-197 807.5,-192.83 807.5,-188.67 807.5,-188.67 807.5,-180.33 807.5,-180.33 807.5,-176.17 811.67,-172 815.83,-172"/>
<path fill="none" stroke="#9f1239" d="M815.83,-172C815.83,-172 881.17,-172 881.17,-172 885.33,-172 889.5,-176.17 889.5,-180.33 889.5,-180.33 889.5,-188.67 889.5,-188.67 889.5,-192.83 885.33,-197 881.17,-197 881.17,-197 815.83,-197 815.83,-197 811.67,-197 807.5,-192.83 807.5,-188.67 807.5,-188.67 807.5,-180.33 807.5,-180.33 807.5,-176.17 811.67,-172 815.83,-172"/>
<text text-anchor="start" x="812.5" y="-181.8" font-family="Times,serif" font-weight="bold" font-size="14.00">AX, A3, 8, 2</text>
</g>
<!-- 0x2c61ab -->
<g id="node21" class="node">
<title>0x2c61ab</title>
<text text-anchor="start" x="607" y="-201.4" font-family="Times,serif" font-weight="bold" font-size="12.00">ye13</text>
<path fill="#f8f9fa" stroke="transparent" d="M588.83,-172C588.83,-172 649.17,-172 649.17,-172 653.33,-172 657.5,-176.17 657.5,-180.33 657.5,-180.33 657.5,-188.67 657.5,-188.67 657.5,-192.83 653.33,-197 649.17,-197 649.17,-197 588.83,-197 588.83,-197 584.67,-197 580.5,-192.83 580.5,-188.67 580.5,-188.67 580.5,-180.33 580.5,-180.33 580.5,-176.17 584.67,-172 588.83,-172"/>
<path fill="none" stroke="#333333" d="M588.83,-172C588.83,-172 649.17,-172 649.17,-172 653.33,-172 657.5,-176.17 657.5,-180.33 657.5,-180.33 657.5,-188.67 657.5,-188.67 657.5,-192.83 653.33,-197 649.17,-197 649.17,-197 588.83,-197 588.83,-197 584.67,-197 580.5,-192.83 580.5,-188.67 580.5,-188.67 580.5,-180.33 580.5,-180.33 580.5,-176.17 584.67,-172 588.83,-172"/>
<text text-anchor="start" x="585.5" y="-181.8" font-family="Times,serif" font-weight="bold" font-size="14.00">S8, A3, 8, 2</text>
</g>
<!-- 0x49aff939 -->
<g id="node38" class="node">
<title>0x49aff939</title>
<ellipse fill="white" stroke="black" stroke-width="0.8" cx="619.5" cy="-109.5" rx="3.5" ry="3.5"/>
</g>
<!-- 0x2c61ab&#45;&gt;0x49aff939 -->
<g id="edge39" class="edge">
<title>0x2c61ab:box&#45;&gt;0x49aff939</title>
<path fill="none" stroke="#444444" d="M619.5,-171C619.5,-152.73 619.5,-131.37 619.5,-119.54"/>
<polygon fill="#444444" stroke="#444444" points="621.6,-119.27 619.5,-113.27 617.4,-119.27 621.6,-119.27"/>
<text text-anchor="start" x="619.5" y="-135.6" font-family="Times,serif" font-weight="bold" font-size="13.00"> o2 </text>
</g>
<!-- 0x32405ac6 -->
<g id="node41" class="node">
<title>0x32405ac6</title>
<ellipse fill="white" stroke="black" stroke-width="0.8" cx="446.5" cy="-109.5" rx="3.5" ry="3.5"/>
</g>
<!-- 0x2c61ab&#45;&gt;0x32405ac6 -->
<g id="edge43" class="edge">
<title>0x2c61ab:box&#45;&gt;0x32405ac6</title>
<path fill="none" stroke="#444444" d="M579.5,-184C569.16,-184 576.96,-170.16 569.5,-163 535.64,-130.5 478.57,-116.59 456.05,-112.18"/>
<polygon fill="#444444" stroke="#444444" points="456.31,-110.09 450.03,-111.07 455.55,-114.22 456.31,-110.09"/>
<text text-anchor="start" x="544.5" y="-135.6" font-family="Times,serif" font-weight="bold" font-size="13.00"> o3 </text>
</g>
<!-- 0x740e83&#45;&gt;0xb80f535b -->
<g id="edge20" class="edge">
<title>0x740e83&#45;&gt;0xb80f535b:box</title>
<path fill="none" stroke="#444444" stroke-dasharray="5,2" d="M782.22,-268.98C785.58,-257.21 799.77,-207.57 804.76,-190.11"/>
<polygon fill="#444444" stroke="#444444" points="806.87,-190.35 806.5,-184 802.83,-189.19 806.87,-190.35"/>
<text text-anchor="start" x="790.5" y="-241.6" font-family="Times,serif" font-weight="bold" font-size="13.00"> o2 </text>
</g>
<!-- 0x740e83&#45;&gt;0xb80f535b -->
<g id="edge21" class="edge">
<title>0x740e83&#45;&gt;0xb80f535b:box</title>
<path fill="none" stroke="#444444" stroke-dasharray="5,2" d="M784.96,-270.79C800.54,-267.41 864.41,-251.31 889.5,-210 894,-202.59 898.82,-191.67 896.07,-186.67"/>
<polygon fill="#444444" stroke="#444444" points="896.82,-184.7 890.5,-184 895,-188.49 896.82,-184.7"/>
<text text-anchor="start" x="862.5" y="-241.6" font-family="Times,serif" font-weight="bold" font-size="13.00"> o3 </text>
</g>
<!-- 0x740e83&#45;&gt;0x2c61ab -->
<g id="edge22" class="edge">
<title>0x740e83&#45;&gt;0x2c61ab:box</title>
<path fill="none" stroke="#444444" stroke-dasharray="5,2" d="M778.93,-269.5C771.79,-263.98 751.01,-248.2 732.5,-237 717.54,-227.94 711.91,-228.92 697.5,-219 680.27,-207.13 681.32,-188.34 664.82,-184.64"/>
<polygon fill="#444444" stroke="#444444" points="664.68,-182.52 658.5,-184 664.26,-186.7 664.68,-182.52"/>
<text text-anchor="start" x="752.5" y="-241.6" font-family="Times,serif" font-weight="bold" font-size="13.00"> ε </text>
</g>
<!-- 0xa6b2d5f6 -->
<g id="node23" class="node">
<title>0xa6b2d5f6</title>
<text text-anchor="start" x="735" y="-201.4" font-family="Times,serif" font-weight="bold" font-size="12.00">ye14</text>
<path fill="#f8f9fa" stroke="transparent" d="M716.83,-172C716.83,-172 777.17,-172 777.17,-172 781.33,-172 785.5,-176.17 785.5,-180.33 785.5,-180.33 785.5,-188.67 785.5,-188.67 785.5,-192.83 781.33,-197 777.17,-197 777.17,-197 716.83,-197 716.83,-197 712.67,-197 708.5,-192.83 708.5,-188.67 708.5,-188.67 708.5,-180.33 708.5,-180.33 708.5,-176.17 712.67,-172 716.83,-172"/>
<path fill="none" stroke="#333333" d="M716.83,-172C716.83,-172 777.17,-172 777.17,-172 781.33,-172 785.5,-176.17 785.5,-180.33 785.5,-180.33 785.5,-188.67 785.5,-188.67 785.5,-192.83 781.33,-197 777.17,-197 777.17,-197 716.83,-197 716.83,-197 712.67,-197 708.5,-192.83 708.5,-188.67 708.5,-188.67 708.5,-180.33 708.5,-180.33 708.5,-176.17 712.67,-172 716.83,-172"/>
<text text-anchor="start" x="713.5" y="-181.8" font-family="Times,serif" font-weight="bold" font-size="14.00">S8, A6, 4, 2</text>
</g>
<!-- 0x86626ed0 -->
<g id="node44" class="node">
<title>0x86626ed0</title>
<ellipse fill="white" stroke="black" stroke-width="0.8" cx="880.5" cy="-109.5" rx="3.5" ry="3.5"/>
</g>
<!-- 0xa6b2d5f6&#45;&gt;0x86626ed0 -->
<g id="edge47" class="edge">
<title>0xa6b2d5f6:box&#45;&gt;0x86626ed0</title>
<path fill="none" stroke="#444444" d="M786.5,-184C796.84,-184 789.62,-170.71 796.5,-163 818.53,-138.29 854.93,-121.06 871.63,-114.03"/>
<polygon fill="#444444" stroke="#444444" points="872.71,-115.85 877.48,-111.65 871.13,-111.96 872.71,-115.85"/>
<text text-anchor="start" x="836.5" y="-135.6" font-family="Times,serif" font-weight="bold" font-size="13.00"> o2 </text>
</g>
<!-- 0x6b0ea4a0 -->
<g id="node46" class="node">
<title>0x6b0ea4a0</title>
<ellipse fill="white" stroke="black" stroke-width="0.8" cx="762.5" cy="-109.5" rx="3.5" ry="3.5"/>
</g>
<!-- 0xa6b2d5f6&#45;&gt;0x6b0ea4a0 -->
<g id="edge51" class="edge">
<title>0xa6b2d5f6:box&#45;&gt;0x6b0ea4a0</title>
<path fill="none" stroke="#444444" d="M747.5,-171C747.5,-152 754.55,-130.61 758.99,-119.04"/>
<polygon fill="#444444" stroke="#444444" points="761.04,-119.56 761.32,-113.21 757.14,-118 761.04,-119.56"/>
<text text-anchor="start" x="754.5" y="-135.6" font-family="Times,serif" font-weight="bold" font-size="13.00"> o1 </text>
</g>
<!-- 0x82ee1f64&#45;&gt;0xa6b2d5f6 -->
<g id="edge24" class="edge">
<title>0x82ee1f64&#45;&gt;0xa6b2d5f6:box</title>
<path fill="none" stroke="#444444" stroke-dasharray="5,2" d="M706.42,-268.98C700.8,-255.58 676.16,-193.13 701.35,-184.9"/>
<polygon fill="#444444" stroke="#444444" points="701.87,-186.94 707.5,-184 701.26,-182.79 701.87,-186.94"/>
<text text-anchor="start" x="699.5" y="-241.6" font-family="Times,serif" font-weight="bold" font-size="13.00"> uo1 </text>
</g>
<!-- 0xc4d8bf04 -->
<g id="node25" class="node">
<title>0xc4d8bf04</title>
<text text-anchor="start" x="193" y="-210.4" font-family="Times,serif" font-weight="bold" font-size="12.00">ye15</text>
<path fill="#f8f9fa" stroke="transparent" d="M174.83,-181C174.83,-181 235.17,-181 235.17,-181 239.33,-181 243.5,-185.17 243.5,-189.33 243.5,-189.33 243.5,-197.67 243.5,-197.67 243.5,-201.83 239.33,-206 235.17,-206 235.17,-206 174.83,-206 174.83,-206 170.67,-206 166.5,-201.83 166.5,-197.67 166.5,-197.67 166.5,-189.33 166.5,-189.33 166.5,-185.17 170.67,-181 174.83,-181"/>
<path fill="none" stroke="#333333" d="M174.83,-181C174.83,-181 235.17,-181 235.17,-181 239.33,-181 243.5,-185.17 243.5,-189.33 243.5,-189.33 243.5,-197.67 243.5,-197.67 243.5,-201.83 239.33,-206 235.17,-206 235.17,-206 174.83,-206 174.83,-206 170.67,-206 166.5,-201.83 166.5,-197.67 166.5,-197.67 166.5,-189.33 166.5,-189.33 166.5,-185.17 170.67,-181 174.83,-181"/>
<text text-anchor="start" x="171.5" y="-190.8" font-family="Times,serif" font-weight="bold" font-size="14.00">S7, A6, 4, 1</text>
<text text-anchor="start" x="199" y="-168.2" font-family="Times,serif" font-size="16.00">...</text>
</g>
<!-- 0x8f83c662 -->
<g id="node50" class="node">
<title>0x8f83c662</title>
<ellipse fill="white" stroke="black" stroke-width="0.8" cx="161.5" cy="-109.5" rx="3.5" ry="3.5"/>
</g>
<!-- 0xc4d8bf04&#45;&gt;0x8f83c662 -->
<g id="edge53" class="edge">
<title>0xc4d8bf04:box&#45;&gt;0x8f83c662</title>
<path fill="none" stroke="#444444" d="M165.5,-194C135.51,-194 151.33,-139.6 158.54,-118.62"/>
<polygon fill="#444444" stroke="#444444" points="160.54,-119.27 160.58,-112.91 156.59,-117.85 160.54,-119.27"/>
<text text-anchor="start" x="154.5" y="-135.6" font-family="Times,serif" font-weight="bold" font-size="13.00"> o2 </text>
</g>
<!-- 0xe942c9ba&#45;&gt;0xc4d8bf04 -->
<g id="edge26" class="edge">
<title>0xe942c9ba&#45;&gt;0xc4d8bf04:box</title>
<path fill="none" stroke="#444444" stroke-dasharray="5,2" d="M279.91,-268.92C277.12,-257.05 264.84,-207.75 250.36,-196.36"/>
<polygon fill="#444444" stroke="#444444" points="250.85,-194.29 244.5,-194 249.28,-198.19 250.85,-194.29"/>
<text text-anchor="start" x="275.5" y="-241.6" font-family="Times,serif" font-weight="bold" font-size="13.00"> uo1 </text>
</g>
<!-- 0xb752215d -->
<g id="node27" class="node">
<title>0xb752215d</title>
<text text-anchor="start" x="409" y="-210.4" font-family="Times,serif" font-weight="bold" font-size="12.00">ye16</text>
<path fill="#f8f9fa" stroke="transparent" d="M390.83,-181C390.83,-181 451.17,-181 451.17,-181 455.33,-181 459.5,-185.17 459.5,-189.33 459.5,-189.33 459.5,-197.67 459.5,-197.67 459.5,-201.83 455.33,-206 451.17,-206 451.17,-206 390.83,-206 390.83,-206 386.67,-206 382.5,-201.83 382.5,-197.67 382.5,-197.67 382.5,-189.33 382.5,-189.33 382.5,-185.17 386.67,-181 390.83,-181"/>
<path fill="none" stroke="#333333" d="M390.83,-181C390.83,-181 451.17,-181 451.17,-181 455.33,-181 459.5,-185.17 459.5,-189.33 459.5,-189.33 459.5,-197.67 459.5,-197.67 459.5,-201.83 455.33,-206 451.17,-206 451.17,-206 390.83,-206 390.83,-206 386.67,-206 382.5,-201.83 382.5,-197.67 382.5,-197.67 382.5,-189.33 382.5,-189.33 382.5,-185.17 386.67,-181 390.83,-181"/>
<text text-anchor="start" x="387.5" y="-190.8" font-family="Times,serif" font-weight="bold" font-size="14.00">S7, A3, 8, 1</text>
<text text-anchor="start" x="415" y="-168.2" font-family="Times,serif" font-size="16.00">...</text>
</g>
<!-- 0xe9ccaf5e -->
<g id="node28" class="node">
<title>0xe9ccaf5e</title>
<text text-anchor="start" x="508" y="-210.4" font-family="Times,serif" font-weight="bold" font-size="12.00">ye17</text>
<path fill="#f8f9fa" stroke="transparent" d="M489.83,-181C489.83,-181 550.17,-181 550.17,-181 554.33,-181 558.5,-185.17 558.5,-189.33 558.5,-189.33 558.5,-197.67 558.5,-197.67 558.5,-201.83 554.33,-206 550.17,-206 550.17,-206 489.83,-206 489.83,-206 485.67,-206 481.5,-201.83 481.5,-197.67 481.5,-197.67 481.5,-189.33 481.5,-189.33 481.5,-185.17 485.67,-181 489.83,-181"/>
<path fill="none" stroke="#333333" d="M489.83,-181C489.83,-181 550.17,-181 550.17,-181 554.33,-181 558.5,-185.17 558.5,-189.33 558.5,-189.33 558.5,-197.67 558.5,-197.67 558.5,-201.83 554.33,-206 550.17,-206 550.17,-206 489.83,-206 489.83,-206 485.67,-206 481.5,-201.83 481.5,-197.67 481.5,-197.67 481.5,-189.33 481.5,-189.33 481.5,-185.17 485.67,-181 489.83,-181"/>
<text text-anchor="start" x="486.5" y="-190.8" font-family="Times,serif" font-weight="bold" font-size="14.00">S1, A3, 8, 0</text>
<text text-anchor="start" x="514" y="-168.2" font-family="Times,serif" font-size="16.00">...</text>
</g>
<!-- 0x432821f2&#45;&gt;0x2c61ab -->
<g id="edge28" class="edge">
<title>0x432821f2&#45;&gt;0x2c61ab:box</title>
<path fill="none" stroke="#444444" stroke-dasharray="5,2" d="M508.99,-271.37C519.08,-270.79 548.5,-267.67 563.5,-251 567.74,-246.29 570.68,-203.43 575.91,-188.84"/>
<polygon fill="#444444" stroke="#444444" points="577.62,-190.07 579.5,-184 574.24,-187.57 577.62,-190.07"/>
<text text-anchor="start" x="566.5" y="-241.6" font-family="Times,serif" font-weight="bold" font-size="13.00"> o2 </text>
</g>
<!-- 0x432821f2&#45;&gt;0xb752215d -->
<g id="edge29" class="edge">
<title>0x432821f2&#45;&gt;0xb752215d:box</title>
<path fill="none" stroke="#444444" stroke-dasharray="5,2" d="M503.62,-269.23C497.86,-262.17 480.18,-239.85 469.5,-219 465.46,-211.12 469.06,-201 466.13,-196.43"/>
<polygon fill="#444444" stroke="#444444" points="466.84,-194.45 460.5,-194 465.18,-198.3 466.84,-194.45"/>
<text text-anchor="start" x="489.5" y="-241.6" font-family="Times,serif" font-weight="bold" font-size="13.00"> o3 </text>
</g>
<!-- 0x432821f2&#45;&gt;0xe9ccaf5e -->
<g id="edge30" class="edge">
<title>0x432821f2&#45;&gt;0xe9ccaf5e:box</title>
<path fill="none" stroke="#444444" stroke-dasharray="5,2" d="M508.15,-269.93C517.24,-264.38 547.22,-244.6 558.5,-219 561.72,-211.69 566.57,-201.97 564.92,-197.08"/>
<polygon fill="#444444" stroke="#444444" points="565.75,-195.14 559.5,-194 563.68,-198.79 565.75,-195.14"/>
<text text-anchor="start" x="546.5" y="-241.6" font-family="Times,serif" font-weight="bold" font-size="13.00"> ε </text>
</g>
<!-- 0x905323a9 -->
<g id="node30" class="node">
<title>0x905323a9</title>
<text text-anchor="start" x="310" y="-210.4" font-family="Times,serif" font-weight="bold" font-size="12.00">ye18</text>
<path fill="#f8f9fa" stroke="transparent" d="M291.83,-181C291.83,-181 352.17,-181 352.17,-181 356.33,-181 360.5,-185.17 360.5,-189.33 360.5,-189.33 360.5,-197.67 360.5,-197.67 360.5,-201.83 356.33,-206 352.17,-206 352.17,-206 291.83,-206 291.83,-206 287.67,-206 283.5,-201.83 283.5,-197.67 283.5,-197.67 283.5,-189.33 283.5,-189.33 283.5,-185.17 287.67,-181 291.83,-181"/>
<path fill="none" stroke="#333333" d="M291.83,-181C291.83,-181 352.17,-181 352.17,-181 356.33,-181 360.5,-185.17 360.5,-189.33 360.5,-189.33 360.5,-197.67 360.5,-197.67 360.5,-201.83 356.33,-206 352.17,-206 352.17,-206 291.83,-206 291.83,-206 287.67,-206 283.5,-201.83 283.5,-197.67 283.5,-197.67 283.5,-189.33 283.5,-189.33 283.5,-185.17 287.67,-181 291.83,-181"/>
<text text-anchor="start" x="288.5" y="-190.8" font-family="Times,serif" font-weight="bold" font-size="14.00">S1, A6, 4, 0</text>
<text text-anchor="start" x="316" y="-168.2" font-family="Times,serif" font-size="16.00">...</text>
</g>
<!-- 0xa6b691a8&#45;&gt;0x905323a9 -->
<g id="edge32" class="edge">
<title>0xa6b691a8&#45;&gt;0x905323a9:box</title>
<path fill="none" stroke="#444444" stroke-dasharray="5,2" d="M335.02,-268.92C341.57,-257.68 367.07,-212.88 365.73,-198.48"/>
<polygon fill="#444444" stroke="#444444" points="367.15,-196.92 361.5,-194 364.09,-199.8 367.15,-196.92"/>
<text text-anchor="start" x="352.5" y="-241.6" font-family="Times,serif" font-weight="bold" font-size="13.00"> uo1 </text>
</g>
<!-- 0xc2eeb9cf -->
<g id="node32" class="node">
<title>0xc2eeb9cf</title>
<text text-anchor="start" x="89" y="-373.4" font-family="Times,serif" font-weight="bold" font-size="12.00">ye19</text>
<path fill="#f8f9fa" stroke="transparent" d="M70.83,-344C70.83,-344 131.17,-344 131.17,-344 135.33,-344 139.5,-348.17 139.5,-352.33 139.5,-352.33 139.5,-360.67 139.5,-360.67 139.5,-364.83 135.33,-369 131.17,-369 131.17,-369 70.83,-369 70.83,-369 66.67,-369 62.5,-364.83 62.5,-360.67 62.5,-360.67 62.5,-352.33 62.5,-352.33 62.5,-348.17 66.67,-344 70.83,-344"/>
<path fill="none" stroke="#333333" d="M70.83,-344C70.83,-344 131.17,-344 131.17,-344 135.33,-344 139.5,-348.17 139.5,-352.33 139.5,-352.33 139.5,-360.67 139.5,-360.67 139.5,-364.83 135.33,-369 131.17,-369 131.17,-369 70.83,-369 70.83,-369 66.67,-369 62.5,-364.83 62.5,-360.67 62.5,-360.67 62.5,-352.33 62.5,-352.33 62.5,-348.17 66.67,-344 70.83,-344"/>
<text text-anchor="start" x="67.5" y="-353.8" font-family="Times,serif" font-weight="bold" font-size="14.00">S0, A7, 5, 0</text>
<text text-anchor="start" x="95" y="-331.2" font-family="Times,serif" font-size="16.00">...</text>
</g>
<!-- 0x88e92f1c&#45;&gt;0xc2eeb9cf -->
<g id="edge34" class="edge">
<title>0x88e92f1c&#45;&gt;0xc2eeb9cf:box</title>
<path fill="none" stroke="#444444" stroke-dasharray="5,2" d="M103.7,-432.26C115.19,-420.45 167.07,-365.55 146.47,-357.89"/>
<polygon fill="#444444" stroke="#444444" points="146.74,-355.81 140.5,-357 146.13,-359.96 146.74,-355.81"/>
<text text-anchor="start" x="132.5" y="-404.6" font-family="Times,serif" font-weight="bold" font-size="13.00"> o1 </text>
</g>
<!-- 0xf4a400e0&#45;&gt;0x7ade2a88 -->
<g id="edge36" class="edge">
<title>0xf4a400e0&#45;&gt;0x7ade2a88:box</title>
<path fill="none" stroke="#444444" stroke-dasharray="5,2" d="M301.48,-432.34C312.94,-419.7 369.36,-355.75 344.58,-347.81"/>
<polygon fill="#444444" stroke="#444444" points="344.72,-345.71 338.5,-347 344.17,-349.87 344.72,-345.71"/>
<text text-anchor="start" x="327.5" y="-404.6" font-family="Times,serif" font-weight="bold" font-size="13.00"> uo3 </text>
</g>
<!-- 0x12604e3c&#45;&gt;0xc6588f2d -->
<g id="edge38" class="edge">
<title>0x12604e3c&#45;&gt;0xc6588f2d:box</title>
<path fill="none" stroke="#444444" stroke-dasharray="5,2" d="M392.18,-431.98C385.32,-418.58 354.87,-356.13 379.4,-347.9"/>
<polygon fill="#444444" stroke="#444444" points="379.87,-349.95 385.5,-347 379.26,-345.8 379.87,-349.95"/>
<text text-anchor="start" x="384.5" y="-404.6" font-family="Times,serif" font-weight="bold" font-size="13.00"> uo3 </text>
</g>
<!-- 0xf3363c1f -->
<g id="node36" class="node">
<title>0xf3363c1f</title>
<text text-anchor="start" x="560.5" y="-38.4" font-family="Times,serif" font-weight="bold" font-size="12.00">ye20</text>
<path fill="#fff1f2" stroke="transparent" d="M539.83,-9C539.83,-9 605.17,-9 605.17,-9 609.33,-9 613.5,-13.17 613.5,-17.33 613.5,-17.33 613.5,-25.67 613.5,-25.67 613.5,-29.83 609.33,-34 605.17,-34 605.17,-34 539.83,-34 539.83,-34 535.67,-34 531.5,-29.83 531.5,-25.67 531.5,-25.67 531.5,-17.33 531.5,-17.33 531.5,-13.17 535.67,-9 539.83,-9"/>
<path fill="none" stroke="#9f1239" d="M539.83,-9C539.83,-9 605.17,-9 605.17,-9 609.33,-9 613.5,-13.17 613.5,-17.33 613.5,-17.33 613.5,-25.67 613.5,-25.67 613.5,-29.83 609.33,-34 605.17,-34 605.17,-34 539.83,-34 539.83,-34 535.67,-34 531.5,-29.83 531.5,-25.67 531.5,-25.67 531.5,-17.33 531.5,-17.33 531.5,-13.17 535.67,-9 539.83,-9"/>
<text text-anchor="start" x="536.5" y="-18.8" font-family="Times,serif" font-weight="bold" font-size="14.00">AX, A1, 5, 2</text>
</g>
<!-- 0x5e1ff7ab -->
<g id="node37" class="node">
<title>0x5e1ff7ab</title>
<text text-anchor="start" x="663" y="-38.4" font-family="Times,serif" font-weight="bold" font-size="12.00">ye21</text>
<path fill="#f0fdf4" stroke="transparent" d="M644.83,-9C644.83,-9 705.17,-9 705.17,-9 709.33,-9 713.5,-13.17 713.5,-17.33 713.5,-17.33 713.5,-25.67 713.5,-25.67 713.5,-29.83 709.33,-34 705.17,-34 705.17,-34 644.83,-34 644.83,-34 640.67,-34 636.5,-29.83 636.5,-25.67 636.5,-25.67 636.5,-17.33 636.5,-17.33 636.5,-13.17 640.67,-9 644.83,-9"/>
<path fill="none" stroke="#166534" d="M644.83,-9C644.83,-9 705.17,-9 705.17,-9 709.33,-9 713.5,-13.17 713.5,-17.33 713.5,-17.33 713.5,-25.67 713.5,-25.67 713.5,-29.83 709.33,-34 705.17,-34 705.17,-34 644.83,-34 644.83,-34 640.67,-34 636.5,-29.83 636.5,-25.67 636.5,-25.67 636.5,-17.33 636.5,-17.33 636.5,-13.17 640.67,-9 644.83,-9"/>
<text text-anchor="start" x="641.5" y="-18.8" font-family="Times,serif" font-weight="bold" font-size="14.00">S8, A1, 5, 2</text>
</g>
<!-- 0x49aff939&#45;&gt;0xf3363c1f -->
<g id="edge40" class="edge">
<title>0x49aff939&#45;&gt;0xf3363c1f:box</title>
<path fill="none" stroke="#444444" stroke-dasharray="5,2" d="M616.23,-108.24C607.33,-107.34 582.64,-103.49 572.5,-88 569.09,-82.79 569.55,-79.48 572.5,-74 582.85,-54.79 602.78,-66.01 613.5,-47 617.76,-39.45 622.7,-28.6 620.02,-23.65"/>
<polygon fill="#444444" stroke="#444444" points="620.82,-21.7 614.5,-21 619,-25.49 620.82,-21.7"/>
<text text-anchor="start" x="572.5" y="-78.6" font-family="Times,serif" font-weight="bold" font-size="13.00"> o2 </text>
</g>
<!-- 0x49aff939&#45;&gt;0xf3363c1f -->
<g id="edge41" class="edge">
<title>0x49aff939&#45;&gt;0xf3363c1f:box</title>
<path fill="none" stroke="#444444" stroke-dasharray="5,2" d="M619.9,-105.98C621.82,-93.42 629.64,-37.78 619.85,-24.06"/>
<polygon fill="#444444" stroke="#444444" points="620.75,-22.16 614.5,-21 618.66,-25.8 620.75,-22.16"/>
<text text-anchor="start" x="623.5" y="-78.6" font-family="Times,serif" font-weight="bold" font-size="13.00"> o3 </text>
</g>
<!-- 0x49aff939&#45;&gt;0x5e1ff7ab -->
<g id="edge42" class="edge">
<title>0x49aff939&#45;&gt;0x5e1ff7ab:box</title>
<path fill="none" stroke="#444444" stroke-dasharray="5,2" d="M622.53,-107.64C636.15,-103.59 691.99,-85.02 713.5,-47 717.77,-39.45 722.7,-28.6 720.02,-23.65"/>
<polygon fill="#444444" stroke="#444444" points="720.82,-21.7 714.5,-21 719,-25.49 720.82,-21.7"/>
<text text-anchor="start" x="687.5" y="-78.6" font-family="Times,serif" font-weight="bold" font-size="13.00"> ε </text>
</g>
<!-- 0xa0b23ded -->
<g id="node39" class="node">
<title>0xa0b23ded</title>
<text text-anchor="start" x="356.5" y="-38.4" font-family="Times,serif" font-weight="bold" font-size="12.00">ye22</text>
<path fill="#fff1f2" stroke="transparent" d="M335.83,-9C335.83,-9 401.17,-9 401.17,-9 405.33,-9 409.5,-13.17 409.5,-17.33 409.5,-17.33 409.5,-25.67 409.5,-25.67 409.5,-29.83 405.33,-34 401.17,-34 401.17,-34 335.83,-34 335.83,-34 331.67,-34 327.5,-29.83 327.5,-25.67 327.5,-25.67 327.5,-17.33 327.5,-17.33 327.5,-13.17 331.67,-9 335.83,-9"/>
<path fill="none" stroke="#9f1239" d="M335.83,-9C335.83,-9 401.17,-9 401.17,-9 405.33,-9 409.5,-13.17 409.5,-17.33 409.5,-17.33 409.5,-25.67 409.5,-25.67 409.5,-29.83 405.33,-34 401.17,-34 401.17,-34 335.83,-34 335.83,-34 331.67,-34 327.5,-29.83 327.5,-25.67 327.5,-25.67 327.5,-17.33 327.5,-17.33 327.5,-13.17 331.67,-9 335.83,-9"/>
<text text-anchor="start" x="332.5" y="-18.8" font-family="Times,serif" font-weight="bold" font-size="14.00">AX, A4, 4, 2</text>
</g>
<!-- 0xee73027a -->
<g id="node40" class="node">
<title>0xee73027a</title>
<text text-anchor="start" x="459" y="-47.4" font-family="Times,serif" font-weight="bold" font-size="12.00">ye23</text>
<path fill="#f8f9fa" stroke="transparent" d="M440.83,-18C440.83,-18 501.17,-18 501.17,-18 505.33,-18 509.5,-22.17 509.5,-26.33 509.5,-26.33 509.5,-34.67 509.5,-34.67 509.5,-38.83 505.33,-43 501.17,-43 501.17,-43 440.83,-43 440.83,-43 436.67,-43 432.5,-38.83 432.5,-34.67 432.5,-34.67 432.5,-26.33 432.5,-26.33 432.5,-22.17 436.67,-18 440.83,-18"/>
<path fill="none" stroke="#333333" d="M440.83,-18C440.83,-18 501.17,-18 501.17,-18 505.33,-18 509.5,-22.17 509.5,-26.33 509.5,-26.33 509.5,-34.67 509.5,-34.67 509.5,-38.83 505.33,-43 501.17,-43 501.17,-43 440.83,-43 440.83,-43 436.67,-43 432.5,-38.83 432.5,-34.67 432.5,-34.67 432.5,-26.33 432.5,-26.33 432.5,-22.17 436.67,-18 440.83,-18"/>
<text text-anchor="start" x="437.5" y="-27.8" font-family="Times,serif" font-weight="bold" font-size="14.00">S8, A4, 4, 2</text>
<text text-anchor="start" x="465" y="-5.2" font-family="Times,serif" font-size="16.00">...</text>
</g>
<!-- 0x32405ac6&#45;&gt;0xa0b23ded -->
<g id="edge44" class="edge">
<title>0x32405ac6&#45;&gt;0xa0b23ded:box</title>
<path fill="none" stroke="#444444" stroke-dasharray="5,2" d="M443.06,-108.78C431.25,-109.52 392.16,-110.15 375.5,-88 358.23,-65.03 406.14,-53.64 409.5,-47 413.42,-39.26 418.53,-28.51 415.96,-23.61"/>
<polygon fill="#444444" stroke="#444444" points="416.82,-21.7 410.5,-21 415.01,-25.48 416.82,-21.7"/>
<text text-anchor="start" x="375.5" y="-78.6" font-family="Times,serif" font-weight="bold" font-size="13.00"> o2 </text>
</g>
<!-- 0x32405ac6&#45;&gt;0xa0b23ded -->
<g id="edge45" class="edge">
<title>0x32405ac6&#45;&gt;0xa0b23ded:box</title>
<path fill="none" stroke="#444444" stroke-dasharray="5,2" d="M445.15,-106.16C441,-98.92 428.28,-76.11 420.5,-56 415.67,-43.5 423.08,-27.7 416.58,-22.64"/>
<polygon fill="#444444" stroke="#444444" points="416.84,-20.53 410.5,-21 415.75,-24.59 416.84,-20.53"/>
<text text-anchor="start" x="435.5" y="-78.6" font-family="Times,serif" font-weight="bold" font-size="13.00"> o3 </text>
</g>
<!-- 0x32405ac6&#45;&gt;0xee73027a -->
<g id="edge46" class="edge">
<title>0x32405ac6&#45;&gt;0xee73027a:box</title>
<path fill="none" stroke="#444444" stroke-dasharray="5,2" d="M449.35,-107.21C459.74,-102.34 495.78,-83.84 509.5,-56 513.11,-48.68 517.95,-38.63 515.87,-33.8"/>
<polygon fill="#444444" stroke="#444444" points="516.79,-31.92 510.5,-31 514.85,-35.64 516.79,-31.92"/>
<text text-anchor="start" x="496.5" y="-78.6" font-family="Times,serif" font-weight="bold" font-size="13.00"> ε </text>
</g>
<!-- 0x82d460df -->
<g id="node42" class="node">
<title>0x82d460df</title>
<text text-anchor="start" x="868.5" y="-38.4" font-family="Times,serif" font-weight="bold" font-size="12.00">ye24</text>
<path fill="#fff1f2" stroke="transparent" d="M847.83,-9C847.83,-9 913.17,-9 913.17,-9 917.33,-9 921.5,-13.17 921.5,-17.33 921.5,-17.33 921.5,-25.67 921.5,-25.67 921.5,-29.83 917.33,-34 913.17,-34 913.17,-34 847.83,-34 847.83,-34 843.67,-34 839.5,-29.83 839.5,-25.67 839.5,-25.67 839.5,-17.33 839.5,-17.33 839.5,-13.17 843.67,-9 847.83,-9"/>
<path fill="none" stroke="#9f1239" d="M847.83,-9C847.83,-9 913.17,-9 913.17,-9 917.33,-9 921.5,-13.17 921.5,-17.33 921.5,-17.33 921.5,-25.67 921.5,-25.67 921.5,-29.83 917.33,-34 913.17,-34 913.17,-34 847.83,-34 847.83,-34 843.67,-34 839.5,-29.83 839.5,-25.67 839.5,-25.67 839.5,-17.33 839.5,-17.33 839.5,-13.17 843.67,-9 847.83,-9"/>
<text text-anchor="start" x="844.5" y="-18.8" font-family="Times,serif" font-weight="bold" font-size="14.00">AX, A5, 1, 2</text>
</g>
<!-- 0x9aa92253 -->
<g id="node43" class="node">
<title>0x9aa92253</title>
<text text-anchor="start" x="971" y="-47.4" font-family="Times,serif" font-weight="bold" font-size="12.00">ye25</text>
<path fill="#f8f9fa" stroke="transparent" d="M952.83,-18C952.83,-18 1013.17,-18 1013.17,-18 1017.33,-18 1021.5,-22.17 1021.5,-26.33 1021.5,-26.33 1021.5,-34.67 1021.5,-34.67 1021.5,-38.83 1017.33,-43 1013.17,-43 1013.17,-43 952.83,-43 952.83,-43 948.67,-43 944.5,-38.83 944.5,-34.67 944.5,-34.67 944.5,-26.33 944.5,-26.33 944.5,-22.17 948.67,-18 952.83,-18"/>
<path fill="none" stroke="#333333" d="M952.83,-18C952.83,-18 1013.17,-18 1013.17,-18 1017.33,-18 1021.5,-22.17 1021.5,-26.33 1021.5,-26.33 1021.5,-34.67 1021.5,-34.67 1021.5,-38.83 1017.33,-43 1013.17,-43 1013.17,-43 952.83,-43 952.83,-43 948.67,-43 944.5,-38.83 944.5,-34.67 944.5,-34.67 944.5,-26.33 944.5,-26.33 944.5,-22.17 948.67,-18 952.83,-18"/>
<text text-anchor="start" x="949.5" y="-27.8" font-family="Times,serif" font-weight="bold" font-size="14.00">S8, A5, 1, 2</text>
<text text-anchor="start" x="977" y="-5.2" font-family="Times,serif" font-size="16.00">...</text>
</g>
<!-- 0x86626ed0&#45;&gt;0x82d460df -->
<g id="edge48" class="edge">
<title>0x86626ed0&#45;&gt;0x82d460df:box</title>
<path fill="none" stroke="#444444" stroke-dasharray="5,2" d="M882.56,-106.4C889.64,-99.02 912.96,-73.37 921.5,-47 924.12,-38.92 929.67,-28.69 927.85,-23.82"/>
<polygon fill="#444444" stroke="#444444" points="928.79,-21.94 922.5,-21 926.83,-25.65 928.79,-21.94"/>
<text text-anchor="start" x="907.5" y="-78.6" font-family="Times,serif" font-weight="bold" font-size="13.00"> o2 </text>
</g>
<!-- 0x86626ed0&#45;&gt;0x82d460df -->
<g id="edge49" class="edge">
<title>0x86626ed0&#45;&gt;0x82d460df:box</title>
<path fill="none" stroke="#444444" stroke-dasharray="5,2" d="M878.44,-106.4C871.36,-99.02 848.04,-73.37 839.5,-47 836.88,-38.92 831.33,-28.69 833.15,-23.82"/>
<polygon fill="#444444" stroke="#444444" points="834.17,-25.65 838.5,-21 832.21,-21.94 834.17,-25.65"/>
<text text-anchor="start" x="861.5" y="-78.6" font-family="Times,serif" font-weight="bold" font-size="13.00"> o3 </text>
</g>
<!-- 0x86626ed0&#45;&gt;0x9aa92253 -->
<g id="edge50" class="edge">
<title>0x86626ed0&#45;&gt;0x9aa92253:box</title>
<path fill="none" stroke="#444444" stroke-dasharray="5,2" d="M883.94,-108.48C902.01,-108.19 986.55,-104.22 1021.5,-56 1026.39,-49.25 1030.76,-38.56 1027.95,-33.64"/>
<polygon fill="#444444" stroke="#444444" points="1028.82,-31.72 1022.5,-31 1026.99,-35.5 1028.82,-31.72"/>
<text text-anchor="start" x="1001.5" y="-78.6" font-family="Times,serif" font-weight="bold" font-size="13.00"> ε </text>
</g>
<!-- 0x8e69e91c -->
<g id="node45" class="node">
<title>0x8e69e91c</title>
<text text-anchor="start" x="764.5" y="-38.4" font-family="Times,serif" font-weight="bold" font-size="12.00">ye26</text>
<path fill="#fff1f2" stroke="transparent" d="M743.83,-9C743.83,-9 809.17,-9 809.17,-9 813.33,-9 817.5,-13.17 817.5,-17.33 817.5,-17.33 817.5,-25.67 817.5,-25.67 817.5,-29.83 813.33,-34 809.17,-34 809.17,-34 743.83,-34 743.83,-34 739.67,-34 735.5,-29.83 735.5,-25.67 735.5,-25.67 735.5,-17.33 735.5,-17.33 735.5,-13.17 739.67,-9 743.83,-9"/>
<path fill="none" stroke="#9f1239" d="M743.83,-9C743.83,-9 809.17,-9 809.17,-9 813.33,-9 817.5,-13.17 817.5,-17.33 817.5,-17.33 817.5,-25.67 817.5,-25.67 817.5,-29.83 813.33,-34 809.17,-34 809.17,-34 743.83,-34 743.83,-34 739.67,-34 735.5,-29.83 735.5,-25.67 735.5,-25.67 735.5,-17.33 735.5,-17.33 735.5,-13.17 739.67,-9 743.83,-9"/>
<text text-anchor="start" x="740.5" y="-18.8" font-family="Times,serif" font-weight="bold" font-size="14.00">AX, A6, 6, 2</text>
</g>
<!-- 0x6b0ea4a0&#45;&gt;0x8e69e91c -->
<g id="edge52" class="edge">
<title>0x6b0ea4a0&#45;&gt;0x8e69e91c:box</title>
<path fill="none" stroke="#444444" stroke-dasharray="5,2" d="M765,-106.75C774.14,-100.19 805.8,-75.95 817.5,-47 820.68,-39.13 825.97,-28.8 823.97,-23.86"/>
<polygon fill="#444444" stroke="#444444" points="824.79,-21.92 818.5,-21 822.84,-25.64 824.79,-21.92"/>
<text text-anchor="start" x="799.5" y="-78.6" font-family="Times,serif" font-weight="bold" font-size="13.00"> o1 </text>
</g>
<!-- 0x75a39f1a -->
<g id="node47" class="node">
<title>0x75a39f1a</title>
<text text-anchor="start" x="27" y="-47.4" font-family="Times,serif" font-weight="bold" font-size="12.00">ye27</text>
<path fill="#f8f9fa" stroke="transparent" d="M8.83,-18C8.83,-18 69.17,-18 69.17,-18 73.33,-18 77.5,-22.17 77.5,-26.33 77.5,-26.33 77.5,-34.67 77.5,-34.67 77.5,-38.83 73.33,-43 69.17,-43 69.17,-43 8.83,-43 8.83,-43 4.67,-43 0.5,-38.83 0.5,-34.67 0.5,-34.67 0.5,-26.33 0.5,-26.33 0.5,-22.17 4.67,-18 8.83,-18"/>
<path fill="none" stroke="#333333" d="M8.83,-18C8.83,-18 69.17,-18 69.17,-18 73.33,-18 77.5,-22.17 77.5,-26.33 77.5,-26.33 77.5,-34.67 77.5,-34.67 77.5,-38.83 73.33,-43 69.17,-43 69.17,-43 8.83,-43 8.83,-43 4.67,-43 0.5,-38.83 0.5,-34.67 0.5,-34.67 0.5,-26.33 0.5,-26.33 0.5,-22.17 4.67,-18 8.83,-18"/>
<text text-anchor="start" x="5.5" y="-27.8" font-family="Times,serif" font-weight="bold" font-size="14.00">S4, A5, 1, 1</text>
<text text-anchor="start" x="33" y="-5.2" font-family="Times,serif" font-size="16.00">...</text>
</g>
<!-- 0xc69bcbe -->
<g id="node48" class="node">
<title>0xc69bcbe</title>
<text text-anchor="start" x="140.5" y="-38.4" font-family="Times,serif" font-weight="bold" font-size="12.00">ye28</text>
<path fill="#fff1f2" stroke="transparent" d="M107.83,-9C107.83,-9 197.17,-9 197.17,-9 201.33,-9 205.5,-13.17 205.5,-17.33 205.5,-17.33 205.5,-25.67 205.5,-25.67 205.5,-29.83 201.33,-34 197.17,-34 197.17,-34 107.83,-34 107.83,-34 103.67,-34 99.5,-29.83 99.5,-25.67 99.5,-25.67 99.5,-17.33 99.5,-17.33 99.5,-13.17 103.67,-9 107.83,-9"/>
<path fill="none" stroke="#9f1239" d="M107.83,-9C107.83,-9 197.17,-9 197.17,-9 201.33,-9 205.5,-13.17 205.5,-17.33 205.5,-17.33 205.5,-25.67 205.5,-25.67 205.5,-29.83 201.33,-34 197.17,-34 197.17,-34 107.83,-34 107.83,-34 103.67,-34 99.5,-29.83 99.5,-25.67 99.5,-25.67 99.5,-17.33 99.5,-17.33 99.5,-13.17 103.67,-9 107.83,-9"/>
<text text-anchor="start" x="104.5" y="-18.8" font-family="Times,serif" font-weight="bold" font-size="14.00">AX, A5, 1, z_det</text>
</g>
<!-- 0xa4e3dc1d -->
<g id="node49" class="node">
<title>0xa4e3dc1d</title>
<text text-anchor="start" x="255" y="-47.4" font-family="Times,serif" font-weight="bold" font-size="12.00">ye29</text>
<path fill="#f8f9fa" stroke="transparent" d="M236.83,-18C236.83,-18 297.17,-18 297.17,-18 301.33,-18 305.5,-22.17 305.5,-26.33 305.5,-26.33 305.5,-34.67 305.5,-34.67 305.5,-38.83 301.33,-43 297.17,-43 297.17,-43 236.83,-43 236.83,-43 232.67,-43 228.5,-38.83 228.5,-34.67 228.5,-34.67 228.5,-26.33 228.5,-26.33 228.5,-22.17 232.67,-18 236.83,-18"/>
<path fill="none" stroke="#333333" d="M236.83,-18C236.83,-18 297.17,-18 297.17,-18 301.33,-18 305.5,-22.17 305.5,-26.33 305.5,-26.33 305.5,-34.67 305.5,-34.67 305.5,-38.83 301.33,-43 297.17,-43 297.17,-43 236.83,-43 236.83,-43 232.67,-43 228.5,-38.83 228.5,-34.67 228.5,-34.67 228.5,-26.33 228.5,-26.33 228.5,-22.17 232.67,-18 236.83,-18"/>
<text text-anchor="start" x="233.5" y="-27.8" font-family="Times,serif" font-weight="bold" font-size="14.00">S7, A5, 1, 1</text>
<text text-anchor="start" x="261" y="-5.2" font-family="Times,serif" font-size="16.00">...</text>
</g>
<!-- 0x8f83c662&#45;&gt;0x75a39f1a -->
<g id="edge54" class="edge">
<title>0x8f83c662&#45;&gt;0x75a39f1a:box</title>
<path fill="none" stroke="#444444" stroke-dasharray="5,2" d="M158.54,-107.14C147.66,-102.03 109.47,-82.8 88.5,-56 82.97,-48.93 86.84,-38.4 84.07,-33.58"/>
<polygon fill="#444444" stroke="#444444" points="84.83,-31.62 78.5,-31 83.06,-35.43 84.83,-31.62"/>
<text text-anchor="start" x="123.5" y="-78.6" font-family="Times,serif" font-weight="bold" font-size="13.00"> o2 </text>
</g>
<!-- 0x8f83c662&#45;&gt;0xc69bcbe -->
<g id="edge55" class="edge">
<title>0x8f83c662&#45;&gt;0xc69bcbe:box</title>
<path fill="none" stroke="#444444" stroke-dasharray="5,2" d="M163.71,-106.59C176.16,-95.61 235.93,-40.01 205.5,-9 198.73,-2.1 167.4,2.08 156.36,-3.14"/>
<polygon fill="#444444" stroke="#444444" points="154.59,-2 152.5,-8 157.88,-4.61 154.59,-2"/>
<text text-anchor="start" x="194.5" y="-78.6" font-family="Times,serif" font-weight="bold" font-size="13.00"> o3 </text>
</g>
<!-- 0x8f83c662&#45;&gt;0xa4e3dc1d -->
<g id="edge56" class="edge">
<title>0x8f83c662&#45;&gt;0xa4e3dc1d:box</title>
<path fill="none" stroke="#444444" stroke-dasharray="5,2" d="M165.01,-108.52C183.49,-108.39 269.89,-105.12 305.5,-56 310.4,-49.25 314.77,-38.56 311.95,-33.64"/>
<polygon fill="#444444" stroke="#444444" points="312.82,-31.72 306.5,-31 310.99,-35.5 312.82,-31.72"/>
<text text-anchor="start" x="285.5" y="-78.6" font-family="Times,serif" font-weight="bold" font-size="13.00"> ε </text>
</g>
</g>
</svg>
