<?xml version="1.0" encoding="UTF-8" standalone="no"?>
<!DOCTYPE svg PUBLIC "-//W3C//DTD SVG 1.1//EN"
 "http://www.w3.org/Graphics/SVG/1.1/DTD/svg11.dtd">
<!-- Generated by graphviz version 14.1.1 (20251213.1925)
 -->
<!-- Pages: 1 -->
<svg width="286pt" height="378pt"
 viewBox="0.00 0.00 286.00 378.00" xmlns="http://www.w3.org/2000/svg" xmlns:xlink="http://www.w3.org/1999/xlink">
<g id="graph0" class="graph" transform="scale(1 1) rotate(0) translate(4 374.04)">
<polygon fill="white" stroke="none" points="-4,4 -4,-374.04 282.45,-374.04 282.45,4 -4,4"/>
<!-- 0xd44f4a92 -->
<g id="node1" class="node">
<title>0xd44f4a92</title>
<path fill="#ffffff" stroke="none" d="M34.21,-325.88C34.21,-325.88 49.79,-325.88 49.79,-325.88 51.96,-325.88 54.12,-328.05 54.12,-330.21 54.12,-330.21 54.12,-334.55 54.12,-334.55 54.12,-336.71 51.96,-338.88 49.79,-338.88 49.79,-338.88 34.21,-338.88 34.21,-338.88 32.04,-338.88 29.88,-336.71 29.88,-334.55 29.88,-334.55 29.88,-330.21 29.88,-330.21 29.88,-328.05 32.04,-325.88 34.21,-325.88"/>
<path fill="none" stroke="#a0a0a0" d="M34.21,-325.88C34.21,-325.88 49.79,-325.88 49.79,-325.88 51.96,-325.88 54.12,-328.05 54.12,-330.21 54.12,-330.21 54.12,-334.55 54.12,-334.55 54.12,-336.71 51.96,-338.88 49.79,-338.88 49.79,-338.88 34.21,-338.88 34.21,-338.88 32.04,-338.88 29.88,-336.71 29.88,-334.55 29.88,-334.55 29.88,-330.21 29.88,-330.21 29.88,-328.05 32.04,-325.88 34.21,-325.88"/>
<text xml:space="preserve" text-anchor="start" x="31.88" y="-331.23" font-family="Times New Roman,serif" font-weight="bold" font-size="7.00">{ye79}</text>
<text xml:space="preserve" text-anchor="start" x="0" y="-352.53" font-family="Times New Roman,serif" font-size="8.00">qe26</text>
</g>
<!-- 0x9fd79ef1 -->
<g id="node3" class="node">
<title>0x9fd79ef1</title>
<ellipse fill="white" stroke="black" cx="96.66" cy="-285.7" rx="0.72" ry="0.72"/>
</g>
<!-- 0xd44f4a92&#45;&gt;0x9fd79ef1 -->
<g id="edge1" class="edge">
<title>0xd44f4a92:m&#45;&gt;0x9fd79ef1</title>
<path fill="none" stroke="#999999" d="M53.11,-326.05C62.48,-320.29 68.32,-314.74 88.09,-294.5"/>
<polygon fill="#999999" stroke="#999999" points="90.51,-297.03 94.98,-287.43 85.49,-292.15 90.51,-297.03"/>
<text xml:space="preserve" text-anchor="start" x="69.28" y="-309.28" font-family="Times New Roman,serif" font-size="6.00">o4</text>
</g>
<!-- 0x7da2bf92 -->
<g id="node2" class="node">
<title>0x7da2bf92</title>
<path fill="#f8f9fa" stroke="none" d="M103.08,-223.39C103.08,-223.39 201.16,-223.39 201.16,-223.39 203.33,-223.39 205.49,-225.56 205.49,-227.73 205.49,-227.73 205.49,-232.06 205.49,-232.06 205.49,-234.23 203.33,-236.39 201.16,-236.39 201.16,-236.39 103.08,-236.39 103.08,-236.39 100.91,-236.39 98.74,-234.23 98.74,-232.06 98.74,-232.06 98.74,-227.73 98.74,-227.73 98.74,-225.56 100.91,-223.39 103.08,-223.39"/>
<path fill="none" stroke="#333333" d="M103.08,-223.39C103.08,-223.39 201.16,-223.39 201.16,-223.39 203.33,-223.39 205.49,-225.56 205.49,-227.73 205.49,-227.73 205.49,-232.06 205.49,-232.06 205.49,-234.23 203.33,-236.39 201.16,-236.39 201.16,-236.39 103.08,-236.39 103.08,-236.39 100.91,-236.39 98.74,-234.23 98.74,-232.06 98.74,-232.06 98.74,-227.73 98.74,-227.73 98.74,-225.56 100.91,-223.39 103.08,-223.39"/>
<text xml:space="preserve" text-anchor="start" x="100.74" y="-228.74" font-family="Times New Roman,serif" font-weight="bold" font-size="7.00">{ye100,ye88,ye91,ye95,ye97,ye99}</text>
<text xml:space="preserve" text-anchor="start" x="75.74" y="-250.04" font-family="Times New Roman,serif" font-size="8.00">qe30</text>
</g>
<!-- 0x829491ee -->
<g id="node7" class="node">
<title>0x829491ee</title>
<ellipse fill="white" stroke="black" cx="108.95" cy="-191.03" rx="0.72" ry="0.72"/>
</g>
<!-- 0x7da2bf92&#45;&gt;0x829491ee -->
<g id="edge5" class="edge">
<title>0x7da2bf92:m&#45;&gt;0x829491ee</title>
<path fill="none" stroke="#2563eb" d="M134.78,-223.43C126.97,-219.55 123,-214.6 115.25,-201.71"/>
<polygon fill="#2563eb" stroke="#2563eb" points="118.39,-200.15 110.29,-193.32 112.36,-203.71 118.39,-200.15"/>
<text xml:space="preserve" text-anchor="start" x="114.55" y="-204.4" font-family="Times New Roman,serif" font-size="6.00">o2</text>
</g>
<!-- 0x9fd79ef1&#45;&gt;0x7da2bf92 -->
<g id="edge2" class="edge">
<title>0x9fd79ef1&#45;&gt;0x7da2bf92:m</title>
<path fill="none" stroke="#999999" stroke-dasharray="5,2" d="M97.47,-285.26C116.97,-274.59 119.91,-272.77 140.78,-245.05"/>
<polygon fill="#999999" stroke="#999999" points="143.42,-247.37 146.62,-237.27 137.82,-243.17 143.42,-247.37"/>
<text xml:space="preserve" text-anchor="start" x="120.03" y="-265.6" font-family="Times New Roman,serif" font-size="6.00">o4</text>
</g>
<!-- 0x270a14e0 -->
<g id="node4" class="node">
<title>0x270a14e0</title>
<path fill="#ffffff" stroke="none" d="M243.66,-335.79C243.66,-335.79 259.24,-335.79 259.24,-335.79 261.41,-335.79 263.58,-337.95 263.58,-340.12 263.58,-340.12 263.58,-344.45 263.58,-344.45 263.58,-346.62 261.41,-348.79 259.24,-348.79 259.24,-348.79 243.66,-348.79 243.66,-348.79 241.49,-348.79 239.33,-346.62 239.33,-344.45 239.33,-344.45 239.33,-340.12 239.33,-340.12 239.33,-337.95 241.49,-335.79 243.66,-335.79"/>
<path fill="none" stroke="#a0a0a0" d="M243.66,-335.79C243.66,-335.79 259.24,-335.79 259.24,-335.79 261.41,-335.79 263.58,-337.95 263.58,-340.12 263.58,-340.12 263.58,-344.45 263.58,-344.45 263.58,-346.62 261.41,-348.79 259.24,-348.79 259.24,-348.79 243.66,-348.79 243.66,-348.79 241.49,-348.79 239.33,-346.62 239.33,-344.45 239.33,-344.45 239.33,-340.12 239.33,-340.12 239.33,-337.95 241.49,-335.79 243.66,-335.79"/>
<text xml:space="preserve" text-anchor="start" x="241.33" y="-341.14" font-family="Times New Roman,serif" font-weight="bold" font-size="7.00">{ye82}</text>
<text xml:space="preserve" text-anchor="start" x="209.45" y="-362.44" font-family="Times New Roman,serif" font-size="8.00">qe27</text>
</g>
<!-- 0xc8ebaaab -->
<g id="node5" class="node">
<title>0xc8ebaaab</title>
<ellipse fill="white" stroke="black" cx="203.2" cy="-289.37" rx="0.72" ry="0.72"/>
</g>
<!-- 0x270a14e0&#45;&gt;0xc8ebaaab -->
<g id="edge3" class="edge">
<title>0x270a14e0:m&#45;&gt;0xc8ebaaab</title>
<path fill="none" stroke="#999999" d="M244.03,-335.98C234.83,-327.97 230.28,-322.72 210.95,-298.93"/>
<polygon fill="#999999" stroke="#999999" points="213.78,-296.85 204.76,-291.29 208.34,-301.26 213.78,-296.85"/>
<text xml:space="preserve" text-anchor="start" x="217.29" y="-315.8" font-family="Times New Roman,serif" font-size="6.00">o4</text>
</g>
<!-- 0xc8ebaaab&#45;&gt;0x7da2bf92 -->
<g id="edge4" class="edge">
<title>0xc8ebaaab&#45;&gt;0x7da2bf92:m</title>
<path fill="none" stroke="#999999" stroke-dasharray="5,2" d="M202.28,-288.67C185.92,-276.2 183.33,-273.99 163.11,-245.47"/>
<polygon fill="#999999" stroke="#999999" points="166.08,-243.6 157.45,-237.46 160.36,-247.64 166.08,-243.6"/>
<text xml:space="preserve" text-anchor="start" x="170.98" y="-266.29" font-family="Times New Roman,serif" font-size="6.00">o4</text>
</g>
<!-- 0xac954acb -->
<g id="node6" class="node">
<title>0xac954acb</title>
<path fill="#f8f9fa" stroke="none" d="M36.24,-131.09C36.24,-131.09 141.82,-131.09 141.82,-131.09 143.99,-131.09 146.16,-133.26 146.16,-135.42 146.16,-135.42 146.16,-139.76 146.16,-139.76 146.16,-141.92 143.99,-144.09 141.82,-144.09 141.82,-144.09 36.24,-144.09 36.24,-144.09 34.07,-144.09 31.91,-141.92 31.91,-139.76 31.91,-139.76 31.91,-135.42 31.91,-135.42 31.91,-133.26 34.07,-131.09 36.24,-131.09"/>
<path fill="none" stroke="#333333" d="M36.24,-131.09C36.24,-131.09 141.82,-131.09 141.82,-131.09 143.99,-131.09 146.16,-133.26 146.16,-135.42 146.16,-135.42 146.16,-139.76 146.16,-139.76 146.16,-141.92 143.99,-144.09 141.82,-144.09 141.82,-144.09 36.24,-144.09 36.24,-144.09 34.07,-144.09 31.91,-141.92 31.91,-139.76 31.91,-139.76 31.91,-135.42 31.91,-135.42 31.91,-133.26 34.07,-131.09 36.24,-131.09"/>
<text xml:space="preserve" text-anchor="start" x="33.91" y="-136.44" font-family="Times New Roman,serif" font-weight="bold" font-size="7.00">{ye102,ye104,ye106,ye33,ye43,ye53}</text>
<text xml:space="preserve" text-anchor="start" x="8.91" y="-157.74" font-family="Times New Roman,serif" font-size="8.00">qe33</text>
</g>
<!-- 0x61e35a80 -->
<g id="node9" class="node">
<title>0x61e35a80</title>
<ellipse fill="white" stroke="black" cx="106.91" cy="-83.84" rx="0.72" ry="0.72"/>
</g>
<!-- 0xac954acb&#45;&gt;0x61e35a80 -->
<g id="edge7" class="edge">
<title>0xac954acb:m&#45;&gt;0x61e35a80</title>
<path fill="none" stroke="#2563eb" d="M88.81,-131.29C88.13,-109.84 88.87,-105.21 99.23,-92.74"/>
<polygon fill="#2563eb" stroke="#2563eb" points="101.63,-95.32 105.51,-85.46 96.33,-90.74 101.63,-95.32"/>
<text xml:space="preserve" text-anchor="start" x="85" y="-107.04" font-family="Times New Roman,serif" font-size="6.00">o4</text>
</g>
<!-- 0x829491ee&#45;&gt;0xac954acb -->
<g id="edge6" class="edge">
<title>0x829491ee&#45;&gt;0xac954acb:m</title>
<path fill="none" stroke="#2563eb" stroke-dasharray="5,2" d="M108.24,-190.26C93.28,-174.02 89.68,-169.91 89.03,-155.32"/>
<polygon fill="#2563eb" stroke="#2563eb" points="92.53,-155.48 88.95,-145.5 85.53,-155.53 92.53,-155.48"/>
<text xml:space="preserve" text-anchor="start" x="77.28" y="-172.14" font-family="Times New Roman,serif" font-size="6.00">empty</text>
</g>
<!-- 0x17c31d00 -->
<g id="node8" class="node">
<title>0x17c31d00</title>
<path fill="#f8f9fa" stroke="none" d="M87.16,-48.62C87.16,-48.62 227.24,-48.62 227.24,-48.62 229.41,-48.62 231.57,-50.79 231.57,-52.96 231.57,-52.96 231.57,-57.29 231.57,-57.29 231.57,-59.46 229.41,-61.62 227.24,-61.62 227.24,-61.62 87.16,-61.62 87.16,-61.62 84.99,-61.62 82.82,-59.46 82.82,-57.29 82.82,-57.29 82.82,-52.96 82.82,-52.96 82.82,-50.79 84.99,-48.62 87.16,-48.62"/>
<path fill="none" stroke="#333333" d="M87.16,-48.62C87.16,-48.62 227.24,-48.62 227.24,-48.62 229.41,-48.62 231.57,-50.79 231.57,-52.96 231.57,-52.96 231.57,-57.29 231.57,-57.29 231.57,-59.46 229.41,-61.62 227.24,-61.62 227.24,-61.62 87.16,-61.62 87.16,-61.62 84.99,-61.62 82.82,-59.46 82.82,-57.29 82.82,-57.29 82.82,-52.96 82.82,-52.96 82.82,-50.79 84.99,-48.62 87.16,-48.62"/>
<text xml:space="preserve" text-anchor="start" x="84.82" y="-53.97" font-family="Times New Roman,serif" font-weight="bold" font-size="7.00">{ye107,ye108,ye109,ye110,ye66,ye81,ye90,ye96}</text>
</g>
<!-- 0xd9d2e789 -->
<g id="node11" class="node">
<title>0xd9d2e789</title>
<ellipse fill="white" stroke="black" cx="205.76" cy="-86.61" rx="0.72" ry="0.72"/>
</g>
<!-- 0x17c31d00&#45;&gt;0xd9d2e789 -->
<g id="edge9" class="edge">
<title>0x17c31d00:m&#45;&gt;0xd9d2e789</title>
<path fill="none" stroke="#2563eb" d="M182.57,-61.57C187.84,-64.38 191.95,-68.74 198.32,-76.88"/>
<polygon fill="#2563eb" stroke="#2563eb" points="195.46,-78.91 204.32,-84.72 201.02,-74.65 195.46,-78.91"/>
<text xml:space="preserve" text-anchor="start" x="188.95" y="-74.48" font-family="Times New Roman,serif" font-size="6.00">o2</text>
</g>
<!-- 0xf3c313bf -->
<g id="node12" class="node">
<title>0xf3c313bf</title>
<ellipse fill="white" stroke="black" cx="158.03" cy="-0.72" rx="0.72" ry="0.72"/>
</g>
<!-- 0x17c31d00&#45;&gt;0xf3c313bf -->
<g id="edge11" class="edge">
<title>0x17c31d00:m&#45;&gt;0xf3c313bf</title>
<path fill="none" stroke="#2563eb" d="M161.79,-48.95C164.56,-39.84 165.15,-22.66 163.35,-11.46"/>
<polygon fill="#2563eb" stroke="#2563eb" points="166.64,-10.24 159.57,-2.35 160.17,-12.93 166.64,-10.24"/>
<text xml:space="preserve" text-anchor="start" x="158.37" y="-27" font-family="Times New Roman,serif" font-size="6.00">o4</text>
</g>
<!-- 0x61e35a80&#45;&gt;0x17c31d00 -->
<g id="edge8" class="edge">
<title>0x61e35a80&#45;&gt;0x17c31d00:m</title>
<path fill="none" stroke="#2563eb" stroke-dasharray="5,2" d="M107.66,-82.96C112.78,-76.94 116.66,-72.4 120.03,-68.92"/>
<polygon fill="#2563eb" stroke="#2563eb" points="122.18,-71.69 127.58,-62.57 117.67,-66.33 122.18,-71.69"/>
<text xml:space="preserve" text-anchor="start" x="111.74" y="-73.16" font-family="Times New Roman,serif" font-size="6.00">o4</text>
</g>
<!-- 0xf4a77530 -->
<g id="node10" class="node">
<title>0xf4a77530</title>
<path fill="#f8f9fa" stroke="none" d="M204.92,-134.88C204.92,-134.88 236.25,-134.88 236.25,-134.88 238.42,-134.88 240.59,-137.04 240.59,-139.21 240.59,-139.21 240.59,-143.54 240.59,-143.54 240.59,-145.71 238.42,-147.88 236.25,-147.88 236.25,-147.88 204.92,-147.88 204.92,-147.88 202.75,-147.88 200.59,-145.71 200.59,-143.54 200.59,-143.54 200.59,-139.21 200.59,-139.21 200.59,-137.04 202.75,-134.88 204.92,-134.88"/>
<path fill="none" stroke="#333333" d="M204.92,-134.88C204.92,-134.88 236.25,-134.88 236.25,-134.88 238.42,-134.88 240.59,-137.04 240.59,-139.21 240.59,-139.21 240.59,-143.54 240.59,-143.54 240.59,-145.71 238.42,-147.88 236.25,-147.88 236.25,-147.88 204.92,-147.88 204.92,-147.88 202.75,-147.88 200.59,-145.71 200.59,-143.54 200.59,-143.54 200.59,-139.21 200.59,-139.21 200.59,-137.04 202.75,-134.88 204.92,-134.88"/>
<text xml:space="preserve" text-anchor="start" x="202.59" y="-140.23" font-family="Times New Roman,serif" font-weight="bold" font-size="7.00">{ye79,ye82}</text>
</g>
<!-- 0x5f06ea87 -->
<g id="node13" class="node">
<title>0x5f06ea87</title>
<ellipse fill="white" stroke="black" cx="197.81" cy="-193.75" rx="0.72" ry="0.72"/>
</g>
<!-- 0xf4a77530&#45;&gt;0x5f06ea87 -->
<g id="edge13" class="edge">
<title>0xf4a77530:m&#45;&gt;0x5f06ea87</title>
<path fill="none" stroke="#2563eb" d="M220.33,-147.86C219.44,-168.79 218.25,-173.21 206.18,-185.5"/>
<polygon fill="#2563eb" stroke="#2563eb" points="204.01,-182.72 199.36,-192.24 208.93,-187.7 204.01,-182.72"/>
<text xml:space="preserve" text-anchor="start" x="209.47" y="-175.97" font-family="Times New Roman,serif" font-size="6.00">o4</text>
</g>
<!-- 0xd9d2e789&#45;&gt;0xf4a77530 -->
<g id="edge10" class="edge">
<title>0xd9d2e789&#45;&gt;0xf4a77530:m</title>
<path fill="none" stroke="#2563eb" stroke-dasharray="5,2" d="M206.38,-87.4C219.6,-104.33 222.62,-108.45 221.97,-123.87"/>
<polygon fill="#2563eb" stroke="#2563eb" points="218.5,-123.42 221.27,-133.64 225.48,-123.92 218.5,-123.42"/>
<text xml:space="preserve" text-anchor="start" x="205.5" y="-110.85" font-family="Times New Roman,serif" font-size="6.00">empty</text>
</g>
<!-- 0xf3c313bf&#45;&gt;0x17c31d00 -->
<g id="edge12" class="edge">
<title>0xf3c313bf&#45;&gt;0x17c31d00:m</title>
<path fill="none" stroke="#2563eb" stroke-dasharray="5,2" d="M157.21,-0.86C152.19,-2.74 150.05,-22.49 151.12,-37.62"/>
<polygon fill="#2563eb" stroke="#2563eb" points="147.62,-37.89 152.56,-47.26 154.54,-36.86 147.62,-37.89"/>
<text xml:space="preserve" text-anchor="start" x="144.96" y="-26.43" font-family="Times New Roman,serif" font-size="6.00">o4</text>
</g>
<!-- 0x5f06ea87&#45;&gt;0x7da2bf92 -->
<g id="edge14" class="edge">
<title>0x5f06ea87&#45;&gt;0x7da2bf92:m</title>
<path fill="none" stroke="#2563eb" stroke-dasharray="5,2" d="M197.36,-194.43C190.04,-205.32 185.47,-212.07 181.21,-216.63"/>
<polygon fill="#2563eb" stroke="#2563eb" points="179.15,-213.8 173.29,-222.63 183.37,-219.38 179.15,-213.8"/>
<text xml:space="preserve" text-anchor="start" x="180.49" y="-204.46" font-family="Times New Roman,serif" font-size="6.00">o4</text>
</g>
</g>
</svg>
