<?xml version="1.0" encoding="UTF-8" standalone="no"?>
<!DOCTYPE svg PUBLIC "-//W3C//DTD SVG 1.1//EN"
 "http://www.w3.org/Graphics/SVG/1.1/DTD/svg11.dtd">
<!-- Generated by graphviz version 14.1.1 (20251213.1925)
 -->
<!-- Pages: 1 -->
<svg width="905pt" height="1102pt"
 viewBox="0.00 0.00 905.00 1102.00" xmlns="http://www.w3.org/2000/svg" xmlns:xlink="http://www.w3.org/1999/xlink">
<g id="graph0" class="graph" transform="scale(1 1) rotate(0) translate(4 1098.32)">
<polygon fill="white" stroke="none" points="-4,4 -4,-1098.32 901.11,-1098.32 901.11,4 -4,4"/>
<!-- 0xc50e3d5b -->
<g id="node1" class="node">
<title>0xc50e3d5b</title>
<path fill="#ffffff" stroke="none" d="M23.58,-580.52C23.58,-580.52 98.42,-580.52 98.42,-580.52 100.58,-580.52 102.75,-582.69 102.75,-584.85 102.75,-584.85 102.75,-589.19 102.75,-589.19 102.75,-591.35 100.58,-593.52 98.42,-593.52 98.42,-593.52 23.58,-593.52 23.58,-593.52 21.42,-593.52 19.25,-591.35 19.25,-589.19 19.25,-589.19 19.25,-584.85 19.25,-584.85 19.25,-582.69 21.42,-580.52 23.58,-580.52"/>
<path fill="none" stroke="#a0a0a0" d="M23.58,-580.52C23.58,-580.52 98.42,-580.52 98.42,-580.52 100.58,-580.52 102.75,-582.69 102.75,-584.85 102.75,-584.85 102.75,-589.19 102.75,-589.19 102.75,-591.35 100.58,-593.52 98.42,-593.52 98.42,-593.52 23.58,-593.52 23.58,-593.52 21.42,-593.52 19.25,-591.35 19.25,-589.19 19.25,-589.19 19.25,-584.85 19.25,-584.85 19.25,-582.69 21.42,-580.52 23.58,-580.52"/>
<text xml:space="preserve" text-anchor="start" x="21.25" y="-585.87" font-family="Times New Roman,serif" font-weight="bold" font-size="7.00">{ye16,ye34,ye44,ye54,ye6}</text>
<text xml:space="preserve" text-anchor="start" x="0" y="-607.17" font-family="Times New Roman,serif" font-size="8.00">qe6</text>
</g>
<!-- 0xb4aee4aa -->
<g id="node3" class="node">
<title>0xb4aee4aa</title>
<ellipse fill="white" stroke="black" cx="216.03" cy="-595.67" rx="0.72" ry="0.72"/>
</g>
<!-- 0xc50e3d5b&#45;&gt;0xb4aee4aa -->
<g id="edge1" class="edge">
<title>0xc50e3d5b:m&#45;&gt;0xb4aee4aa</title>
<path fill="none" stroke="#999999" d="M98.6,-593.48C119.06,-595.91 141.78,-595.97 204,-595.72"/>
<polygon fill="#999999" stroke="#999999" points="203.7,-599.22 213.68,-595.68 203.67,-592.22 203.7,-599.22"/>
<text xml:space="preserve" text-anchor="start" x="151.07" y="-597.6" font-family="Times New Roman,serif" font-size="6.00">o2</text>
</g>
<!-- 0x8789302b -->
<g id="node2" class="node">
<title>0x8789302b</title>
<path fill="#f8f9fa" stroke="none" d="M360.15,-601.49C360.15,-601.49 407.23,-601.49 407.23,-601.49 409.4,-601.49 411.56,-603.66 411.56,-605.82 411.56,-605.82 411.56,-610.16 411.56,-610.16 411.56,-612.32 409.4,-614.49 407.23,-614.49 407.23,-614.49 360.15,-614.49 360.15,-614.49 357.98,-614.49 355.81,-612.32 355.81,-610.16 355.81,-610.16 355.81,-605.82 355.81,-605.82 355.81,-603.66 357.98,-601.49 360.15,-601.49"/>
<path fill="none" stroke="#333333" d="M360.15,-601.49C360.15,-601.49 407.23,-601.49 407.23,-601.49 409.4,-601.49 411.56,-603.66 411.56,-605.82 411.56,-605.82 411.56,-610.16 411.56,-610.16 411.56,-612.32 409.4,-614.49 407.23,-614.49 407.23,-614.49 360.15,-614.49 360.15,-614.49 357.98,-614.49 355.81,-612.32 355.81,-610.16 355.81,-610.16 355.81,-605.82 355.81,-605.82 355.81,-603.66 357.98,-601.49 360.15,-601.49"/>
<text xml:space="preserve" text-anchor="start" x="357.81" y="-606.84" font-family="Times New Roman,serif" font-weight="bold" font-size="7.00">{ye33,ye43,ye53}</text>
<text xml:space="preserve" text-anchor="start" x="332.81" y="-628.14" font-family="Times New Roman,serif" font-size="8.00">qe15</text>
</g>
<!-- 0x28aefd35 -->
<g id="node10" class="node">
<title>0x28aefd35</title>
<ellipse fill="white" stroke="black" cx="322.62" cy="-706.71" rx="0.72" ry="0.72"/>
</g>
<!-- 0x8789302b&#45;&gt;0x28aefd35 -->
<g id="edge7" class="edge">
<title>0x8789302b:m&#45;&gt;0x28aefd35</title>
<path fill="none" stroke="#2563eb" d="M374.7,-614.23C342.47,-636.81 339.22,-642.44 325.75,-694.54"/>
<polygon fill="#2563eb" stroke="#2563eb" points="322.39,-693.58 323.29,-704.13 329.17,-695.32 322.39,-693.58"/>
<text xml:space="preserve" text-anchor="start" x="331.35" y="-657.16" font-family="Times New Roman,serif" font-size="6.00">o4</text>
</g>
<!-- 0xb4aee4aa&#45;&gt;0x8789302b -->
<g id="edge2" class="edge">
<title>0xb4aee4aa&#45;&gt;0x8789302b:m</title>
<path fill="none" stroke="#999999" stroke-dasharray="5,2" d="M216.95,-595.99C261.86,-611.62 268.15,-613.61 344.74,-609.96"/>
<polygon fill="#999999" stroke="#999999" points="344.69,-613.46 354.51,-609.48 344.35,-606.47 344.69,-613.46"/>
<text xml:space="preserve" text-anchor="start" x="279.77" y="-613.19" font-family="Times New Roman,serif" font-size="6.00">o2</text>
</g>
<!-- 0x5004fe9d -->
<g id="node4" class="node">
<title>0x5004fe9d</title>
<path fill="#ffffff" stroke="none" d="M623.66,-791.06C623.66,-791.06 714.24,-791.06 714.24,-791.06 716.41,-791.06 718.58,-793.23 718.58,-795.4 718.58,-795.4 718.58,-799.73 718.58,-799.73 718.58,-801.9 716.41,-804.06 714.24,-804.06 714.24,-804.06 623.66,-804.06 623.66,-804.06 621.49,-804.06 619.33,-801.9 619.33,-799.73 619.33,-799.73 619.33,-795.4 619.33,-795.4 619.33,-793.23 621.49,-791.06 623.66,-791.06"/>
<path fill="none" stroke="#a0a0a0" d="M623.66,-791.06C623.66,-791.06 714.24,-791.06 714.24,-791.06 716.41,-791.06 718.58,-793.23 718.58,-795.4 718.58,-795.4 718.58,-799.73 718.58,-799.73 718.58,-801.9 716.41,-804.06 714.24,-804.06 714.24,-804.06 623.66,-804.06 623.66,-804.06 621.49,-804.06 619.33,-801.9 619.33,-799.73 619.33,-799.73 619.33,-795.4 619.33,-795.4 619.33,-793.23 621.49,-791.06 623.66,-791.06"/>
<text xml:space="preserve" text-anchor="start" x="621.33" y="-796.41" font-family="Times New Roman,serif" font-weight="bold" font-size="7.00">{ye10,ye16,ye34,ye44,ye54,ye6}</text>
<text xml:space="preserve" text-anchor="start" x="596.33" y="-817.71" font-family="Times New Roman,serif" font-size="8.00">qe10</text>
</g>
<!-- 0xd88ef337 -->
<g id="node5" class="node">
<title>0xd88ef337</title>
<ellipse fill="white" stroke="black" cx="491.5" cy="-717.69" rx="0.72" ry="0.72"/>
</g>
<!-- 0x5004fe9d&#45;&gt;0xd88ef337 -->
<g id="edge3" class="edge">
<title>0x5004fe9d:m&#45;&gt;0xd88ef337</title>
<path fill="none" stroke="#999999" d="M619.53,-791.15C590.96,-784.54 568.61,-769.97 501.66,-724.59"/>
<polygon fill="#999999" stroke="#999999" points="503.87,-721.85 493.63,-719.13 499.94,-727.64 503.87,-721.85"/>
<text xml:space="preserve" text-anchor="start" x="547.43" y="-760.94" font-family="Times New Roman,serif" font-size="6.00">o2</text>
</g>
<!-- 0xd88ef337&#45;&gt;0x8789302b -->
<g id="edge4" class="edge">
<title>0xd88ef337&#45;&gt;0x8789302b:m</title>
<path fill="none" stroke="#999999" stroke-dasharray="5,2" d="M490.48,-717.27C437.24,-694.92 433.41,-692.99 393.03,-624"/>
<polygon fill="#999999" stroke="#999999" points="396.19,-622.47 388.12,-615.6 390.14,-626 396.19,-622.47"/>
<text xml:space="preserve" text-anchor="start" x="419.8" y="-677.5" font-family="Times New Roman,serif" font-size="6.00">o2</text>
</g>
<!-- 0x9303b285 -->
<g id="node6" class="node">
<title>0x9303b285</title>
<path fill="#ffffff" stroke="none" d="M806.2,-103.45C806.2,-103.45 884.78,-103.45 884.78,-103.45 886.95,-103.45 889.11,-105.62 889.11,-107.79 889.11,-107.79 889.11,-112.12 889.11,-112.12 889.11,-114.29 886.95,-116.45 884.78,-116.45 884.78,-116.45 806.2,-116.45 806.2,-116.45 804.03,-116.45 801.86,-114.29 801.86,-112.12 801.86,-112.12 801.86,-107.79 801.86,-107.79 801.86,-105.62 804.03,-103.45 806.2,-103.45"/>
<path fill="none" stroke="#a0a0a0" d="M806.2,-103.45C806.2,-103.45 884.78,-103.45 884.78,-103.45 886.95,-103.45 889.11,-105.62 889.11,-107.79 889.11,-107.79 889.11,-112.12 889.11,-112.12 889.11,-114.29 886.95,-116.45 884.78,-116.45 884.78,-116.45 806.2,-116.45 806.2,-116.45 804.03,-116.45 801.86,-114.29 801.86,-112.12 801.86,-112.12 801.86,-107.79 801.86,-107.79 801.86,-105.62 804.03,-103.45 806.2,-103.45"/>
<text xml:space="preserve" text-anchor="start" x="803.86" y="-108.8" font-family="Times New Roman,serif" font-weight="bold" font-size="7.00">{ye29,ye40,ye48,ye67,ye84}</text>
<text xml:space="preserve" text-anchor="start" x="778.86" y="-130.1" font-family="Times New Roman,serif" font-size="8.00">qe14</text>
</g>
<!-- 0xa2743de4 -->
<g id="node8" class="node">
<title>0xa2743de4</title>
<ellipse fill="white" stroke="black" cx="723.06" cy="-183.48" rx="0.72" ry="0.72"/>
</g>
<!-- 0x9303b285&#45;&gt;0xa2743de4 -->
<g id="edge5" class="edge">
<title>0x9303b285:m&#45;&gt;0xa2743de4</title>
<path fill="none" stroke="#999999" d="M827.29,-116.38C801.85,-125.84 790.72,-133.57 733.09,-176.08"/>
<polygon fill="#999999" stroke="#999999" points="731.02,-173.26 725.06,-182.01 735.18,-178.89 731.02,-173.26"/>
<text xml:space="preserve" text-anchor="start" x="767.3" y="-148.56" font-family="Times New Roman,serif" font-size="6.00">o4</text>
</g>
<!-- 0xee19b7c4 -->
<g id="node7" class="node">
<title>0xee19b7c4</title>
<path fill="#f8f9fa" stroke="none" d="M582.67,-287.34C582.67,-287.34 645.5,-287.34 645.5,-287.34 647.67,-287.34 649.84,-289.51 649.84,-291.67 649.84,-291.67 649.84,-296.01 649.84,-296.01 649.84,-298.17 647.67,-300.34 645.5,-300.34 645.5,-300.34 582.67,-300.34 582.67,-300.34 580.5,-300.34 578.34,-298.17 578.34,-296.01 578.34,-296.01 578.34,-291.67 578.34,-291.67 578.34,-289.51 580.5,-287.34 582.67,-287.34"/>
<path fill="none" stroke="#333333" d="M582.67,-287.34C582.67,-287.34 645.5,-287.34 645.5,-287.34 647.67,-287.34 649.84,-289.51 649.84,-291.67 649.84,-291.67 649.84,-296.01 649.84,-296.01 649.84,-298.17 647.67,-300.34 645.5,-300.34 645.5,-300.34 582.67,-300.34 582.67,-300.34 580.5,-300.34 578.34,-298.17 578.34,-296.01 578.34,-296.01 578.34,-291.67 578.34,-291.67 578.34,-289.51 580.5,-287.34 582.67,-287.34"/>
<text xml:space="preserve" text-anchor="start" x="580.34" y="-292.69" font-family="Times New Roman,serif" font-weight="bold" font-size="7.00">{ye59,ye76,ye87,ye94}</text>
<text xml:space="preserve" text-anchor="start" x="555.34" y="-313.99" font-family="Times New Roman,serif" font-size="8.00">qe21</text>
</g>
<!-- 0x1b4618b4 -->
<g id="node11" class="node">
<title>0x1b4618b4</title>
<ellipse fill="white" stroke="black" cx="718.09" cy="-290.76" rx="0.72" ry="0.72"/>
</g>
<!-- 0xee19b7c4&#45;&gt;0x1b4618b4 -->
<g id="edge9" class="edge">
<title>0xee19b7c4:m&#45;&gt;0x1b4618b4</title>
<path fill="none" stroke="#2563eb" d="M649.78,-299.23C669.88,-299.41 693.61,-298.02 707.15,-295.45"/>
<polygon fill="#2563eb" stroke="#2563eb" points="707.97,-298.87 716.26,-292.26 705.66,-292.26 707.97,-298.87"/>
<text xml:space="preserve" text-anchor="start" x="677.75" y="-299.98" font-family="Times New Roman,serif" font-size="6.00">o4</text>
</g>
<!-- 0xf0c38f7 -->
<g id="node13" class="node">
<title>0xf0c38f7</title>
<ellipse fill="white" stroke="black" cx="490.49" cy="-168.04" rx="0.72" ry="0.72"/>
</g>
<!-- 0xee19b7c4&#45;&gt;0xf0c38f7 -->
<g id="edge11" class="edge">
<title>0xee19b7c4:m&#45;&gt;0xf0c38f7</title>
<path fill="none" stroke="#999999" d="M611.63,-287.66C582.42,-214.03 579.06,-209.77 501.85,-173.38"/>
<polygon fill="#999999" stroke="#999999" points="503.43,-170.26 492.9,-169.17 500.46,-176.59 503.43,-170.26"/>
<text xml:space="preserve" text-anchor="start" x="560.85" y="-211.06" font-family="Times New Roman,serif" font-size="6.00">o2</text>
</g>
<!-- 0xa2743de4&#45;&gt;0xee19b7c4 -->
<g id="edge6" class="edge">
<title>0xa2743de4&#45;&gt;0xee19b7c4:m</title>
<path fill="none" stroke="#999999" stroke-dasharray="5,2" d="M722.21,-184.18C688.8,-211.42 686.12,-213.75 627.28,-279.17"/>
<polygon fill="#999999" stroke="#999999" points="624.91,-276.56 620.83,-286.34 630.12,-281.24 624.91,-276.56"/>
<text xml:space="preserve" text-anchor="start" x="662.83" y="-235.23" font-family="Times New Roman,serif" font-size="6.00">o4</text>
</g>
<!-- 0x524a541 -->
<g id="node9" class="node">
<title>0x524a541</title>
<path fill="#f8f9fa" stroke="none" d="M257.95,-814.66C257.95,-814.66 320.78,-814.66 320.78,-814.66 322.95,-814.66 325.12,-816.82 325.12,-818.99 325.12,-818.99 325.12,-823.32 325.12,-823.32 325.12,-825.49 322.95,-827.66 320.78,-827.66 320.78,-827.66 257.95,-827.66 257.95,-827.66 255.78,-827.66 253.62,-825.49 253.62,-823.32 253.62,-823.32 253.62,-818.99 253.62,-818.99 253.62,-816.82 255.78,-814.66 257.95,-814.66"/>
<path fill="none" stroke="#333333" d="M257.95,-814.66C257.95,-814.66 320.78,-814.66 320.78,-814.66 322.95,-814.66 325.12,-816.82 325.12,-818.99 325.12,-818.99 325.12,-823.32 325.12,-823.32 325.12,-825.49 322.95,-827.66 320.78,-827.66 320.78,-827.66 257.95,-827.66 257.95,-827.66 255.78,-827.66 253.62,-825.49 253.62,-823.32 253.62,-823.32 253.62,-818.99 253.62,-818.99 253.62,-816.82 255.78,-814.66 257.95,-814.66"/>
<text xml:space="preserve" text-anchor="start" x="255.62" y="-820.01" font-family="Times New Roman,serif" font-weight="bold" font-size="7.00">{ye66,ye81,ye90,ye96}</text>
<text xml:space="preserve" text-anchor="start" x="230.62" y="-805.31" font-family="Times New Roman,serif" font-size="8.00">qe22</text>
</g>
<!-- 0x29f1ef8a -->
<g id="node15" class="node">
<title>0x29f1ef8a</title>
<ellipse fill="white" stroke="black" cx="182.97" cy="-857.58" rx="0.72" ry="0.72"/>
</g>
<!-- 0x524a541&#45;&gt;0x29f1ef8a -->
<g id="edge14" class="edge">
<title>0x524a541:m&#45;&gt;0x29f1ef8a</title>
<path fill="none" stroke="#2563eb" d="M253.65,-826.69C231.88,-833.13 205.72,-842.82 192.13,-849.97"/>
<polygon fill="#2563eb" stroke="#2563eb" points="190.41,-846.89 184.34,-855.57 194.5,-852.57 190.41,-846.89"/>
<text xml:space="preserve" text-anchor="start" x="211.27" y="-840.83" font-family="Times New Roman,serif" font-size="6.00">o4</text>
</g>
<!-- 0x2bebf925 -->
<g id="node17" class="node">
<title>0x2bebf925</title>
<ellipse fill="white" stroke="black" cx="350.36" cy="-924.34" rx="0.72" ry="0.72"/>
</g>
<!-- 0x524a541&#45;&gt;0x2bebf925 -->
<g id="edge16" class="edge">
<title>0x524a541:m&#45;&gt;0x2bebf925</title>
<path fill="none" stroke="#2563eb" d="M290.57,-827.35C301.67,-884.65 303.75,-889.9 340.58,-917.15"/>
<polygon fill="#2563eb" stroke="#2563eb" points="338.2,-919.74 348.33,-922.85 342.34,-914.1 338.2,-919.74"/>
<text xml:space="preserve" text-anchor="start" x="300.08" y="-885.6" font-family="Times New Roman,serif" font-size="6.00">o2</text>
</g>
<!-- 0x28aefd35&#45;&gt;0x524a541 -->
<g id="edge8" class="edge">
<title>0x28aefd35&#45;&gt;0x524a541:m</title>
<path fill="none" stroke="#2563eb" stroke-dasharray="5,2" d="M321.92,-707.69C286.65,-756.72 282.72,-762.5 287.28,-803.67"/>
<polygon fill="#2563eb" stroke="#2563eb" points="283.78,-803.92 288.43,-813.44 290.73,-803.1 283.78,-803.92"/>
<text xml:space="preserve" text-anchor="start" x="283.63" y="-760.5" font-family="Times New Roman,serif" font-size="6.00">o4</text>
</g>
<!-- 0x1b4618b4&#45;&gt;0xee19b7c4 -->
<g id="edge10" class="edge">
<title>0x1b4618b4&#45;&gt;0xee19b7c4:m</title>
<path fill="none" stroke="#2563eb" stroke-dasharray="5,2" d="M717.77,-289.95C713.98,-285.18 677.63,-284.39 649.02,-286.38"/>
<polygon fill="#2563eb" stroke="#2563eb" points="648.91,-282.88 639.25,-287.23 649.52,-289.85 648.91,-282.88"/>
<text xml:space="preserve" text-anchor="start" x="671.57" y="-287.16" font-family="Times New Roman,serif" font-size="6.00">o4</text>
</g>
<!-- 0xf9265481 -->
<g id="node12" class="node">
<title>0xf9265481</title>
<path fill="#f8f9fa" stroke="none" d="M365.59,-184.45C365.59,-184.45 381.18,-184.45 381.18,-184.45 383.34,-184.45 385.51,-186.62 385.51,-188.78 385.51,-188.78 385.51,-193.12 385.51,-193.12 385.51,-195.28 383.34,-197.45 381.18,-197.45 381.18,-197.45 365.59,-197.45 365.59,-197.45 363.43,-197.45 361.26,-195.28 361.26,-193.12 361.26,-193.12 361.26,-188.78 361.26,-188.78 361.26,-186.62 363.43,-184.45 365.59,-184.45"/>
<path fill="none" stroke="#333333" d="M365.59,-184.45C365.59,-184.45 381.18,-184.45 381.18,-184.45 383.34,-184.45 385.51,-186.62 385.51,-188.78 385.51,-188.78 385.51,-193.12 385.51,-193.12 385.51,-195.28 383.34,-197.45 381.18,-197.45 381.18,-197.45 365.59,-197.45 365.59,-197.45 363.43,-197.45 361.26,-195.28 361.26,-193.12 361.26,-193.12 361.26,-188.78 361.26,-188.78 361.26,-186.62 363.43,-184.45 365.59,-184.45"/>
<text xml:space="preserve" text-anchor="start" x="363.26" y="-189.8" font-family="Times New Roman,serif" font-weight="bold" font-size="7.00">{ye77}</text>
<text xml:space="preserve" text-anchor="start" x="331.38" y="-211.1" font-family="Times New Roman,serif" font-size="8.00">qe25</text>
</g>
<!-- 0x1831df40 -->
<g id="node20" class="node">
<title>0x1831df40</title>
<ellipse fill="white" stroke="black" cx="295.72" cy="-279.07" rx="0.72" ry="0.72"/>
</g>
<!-- 0xf9265481&#45;&gt;0x1831df40 -->
<g id="edge19" class="edge">
<title>0xf9265481:m&#45;&gt;0x1831df40</title>
<path fill="none" stroke="#2563eb" d="M361.26,-197.03C320.64,-217.6 316.22,-222.86 299.98,-267.31"/>
<polygon fill="#2563eb" stroke="#2563eb" points="296.71,-266.08 296.59,-276.67 303.29,-268.47 296.71,-266.08"/>
<text xml:space="preserve" text-anchor="start" x="310.8" y="-231.19" font-family="Times New Roman,serif" font-size="6.00">o4</text>
</g>
<!-- 0xf0c38f7&#45;&gt;0xf9265481 -->
<g id="edge12" class="edge">
<title>0xf0c38f7&#45;&gt;0xf9265481:m</title>
<path fill="none" stroke="#2563eb" stroke-dasharray="5,2" d="M489.49,-167.83C440.49,-157.26 433.76,-156.02 394.06,-178.82"/>
<polygon fill="#2563eb" stroke="#2563eb" points="392.34,-175.78 385.46,-183.83 395.86,-181.83 392.34,-175.78"/>
<text xml:space="preserve" text-anchor="start" x="419.13" y="-163.17" font-family="Times New Roman,serif" font-size="6.00">empty</text>
</g>
<!-- 0xd44f4a92 -->
<g id="node14" class="node">
<title>0xd44f4a92</title>
<path fill="#ffffff" stroke="none" d="M474.93,-11.5C474.93,-11.5 490.51,-11.5 490.51,-11.5 492.68,-11.5 494.84,-13.67 494.84,-15.83 494.84,-15.83 494.84,-20.17 494.84,-20.17 494.84,-22.33 492.68,-24.5 490.51,-24.5 490.51,-24.5 474.93,-24.5 474.93,-24.5 472.76,-24.5 470.59,-22.33 470.59,-20.17 470.59,-20.17 470.59,-15.83 470.59,-15.83 470.59,-13.67 472.76,-11.5 474.93,-11.5"/>
<path fill="none" stroke="#a0a0a0" d="M474.93,-11.5C474.93,-11.5 490.51,-11.5 490.51,-11.5 492.68,-11.5 494.84,-13.67 494.84,-15.83 494.84,-15.83 494.84,-20.17 494.84,-20.17 494.84,-22.33 492.68,-24.5 490.51,-24.5 490.51,-24.5 474.93,-24.5 474.93,-24.5 472.76,-24.5 470.59,-22.33 470.59,-20.17 470.59,-20.17 470.59,-15.83 470.59,-15.83 470.59,-13.67 472.76,-11.5 474.93,-11.5"/>
<text xml:space="preserve" text-anchor="start" x="472.59" y="-16.85" font-family="Times New Roman,serif" font-weight="bold" font-size="7.00">{ye79}</text>
<text xml:space="preserve" text-anchor="start" x="440.72" y="-38.15" font-family="Times New Roman,serif" font-size="8.00">qe26</text>
</g>
<!-- 0xf0c38f7&#45;&gt;0xd44f4a92 -->
<g id="edge13" class="edge">
<title>0xf0c38f7&#45;&gt;0xd44f4a92:m</title>
<path fill="none" stroke="#999999" stroke-dasharray="5,2" d="M490.48,-167.12C489.02,-78.39 488.79,-65.22 485.02,-35.42"/>
<polygon fill="#999999" stroke="#999999" points="488.49,-35 483.72,-25.54 481.55,-35.91 488.49,-35"/>
<text xml:space="preserve" text-anchor="start" x="482.62" y="-80.96" font-family="Times New Roman,serif" font-size="6.00">o2</text>
</g>
<!-- 0x29f1ef8a&#45;&gt;0x524a541 -->
<g id="edge15" class="edge">
<title>0x29f1ef8a&#45;&gt;0x524a541:m</title>
<path fill="none" stroke="#2563eb" stroke-dasharray="5,2" d="M183.77,-858.38C191.17,-861.92 244.28,-845.25 272.26,-832.61"/>
<polygon fill="#2563eb" stroke="#2563eb" points="273.76,-835.77 281.16,-828.18 270.65,-829.51 273.76,-835.77"/>
<text xml:space="preserve" text-anchor="start" x="228.35" y="-848.91" font-family="Times New Roman,serif" font-size="6.00">o4</text>
</g>
<!-- 0x270a14e0 -->
<g id="node16" class="node">
<title>0x270a14e0</title>
<path fill="#ffffff" stroke="none" d="M295.33,-1060.07C295.33,-1060.07 310.92,-1060.07 310.92,-1060.07 313.08,-1060.07 315.25,-1062.23 315.25,-1064.4 315.25,-1064.4 315.25,-1068.73 315.25,-1068.73 315.25,-1070.9 313.08,-1073.07 310.92,-1073.07 310.92,-1073.07 295.33,-1073.07 295.33,-1073.07 293.17,-1073.07 291,-1070.9 291,-1068.73 291,-1068.73 291,-1064.4 291,-1064.4 291,-1062.23 293.17,-1060.07 295.33,-1060.07"/>
<path fill="none" stroke="#a0a0a0" d="M295.33,-1060.07C295.33,-1060.07 310.92,-1060.07 310.92,-1060.07 313.08,-1060.07 315.25,-1062.23 315.25,-1064.4 315.25,-1064.4 315.25,-1068.73 315.25,-1068.73 315.25,-1070.9 313.08,-1073.07 310.92,-1073.07 310.92,-1073.07 295.33,-1073.07 295.33,-1073.07 293.17,-1073.07 291,-1070.9 291,-1068.73 291,-1068.73 291,-1064.4 291,-1064.4 291,-1062.23 293.17,-1060.07 295.33,-1060.07"/>
<text xml:space="preserve" text-anchor="start" x="293" y="-1065.42" font-family="Times New Roman,serif" font-weight="bold" font-size="7.00">{ye82}</text>
<text xml:space="preserve" text-anchor="start" x="261.13" y="-1086.72" font-family="Times New Roman,serif" font-size="8.00">qe27</text>
</g>
<!-- 0x2bebf925&#45;&gt;0x270a14e0 -->
<g id="edge17" class="edge">
<title>0x2bebf925&#45;&gt;0x270a14e0:m</title>
<path fill="none" stroke="#999999" stroke-dasharray="5,2" d="M350.08,-925.21C323.37,-1009.35 319.31,-1022.14 309.23,-1049.88"/>
<polygon fill="#999999" stroke="#999999" points="306.03,-1048.44 305.89,-1059.03 312.61,-1050.84 306.03,-1048.44"/>
<text xml:space="preserve" text-anchor="start" x="308.42" y="-1010.51" font-family="Times New Roman,serif" font-size="6.00">empty</text>
</g>
<!-- 0x94035e38 -->
<g id="node18" class="node">
<title>0x94035e38</title>
<path fill="#f8f9fa" stroke="none" d="M459.27,-922.89C459.27,-922.89 474.85,-922.89 474.85,-922.89 477.02,-922.89 479.19,-925.06 479.19,-927.23 479.19,-927.23 479.19,-931.56 479.19,-931.56 479.19,-933.73 477.02,-935.89 474.85,-935.89 474.85,-935.89 459.27,-935.89 459.27,-935.89 457.1,-935.89 454.94,-933.73 454.94,-931.56 454.94,-931.56 454.94,-927.23 454.94,-927.23 454.94,-925.06 457.1,-922.89 459.27,-922.89"/>
<path fill="none" stroke="#333333" d="M459.27,-922.89C459.27,-922.89 474.85,-922.89 474.85,-922.89 477.02,-922.89 479.19,-925.06 479.19,-927.23 479.19,-927.23 479.19,-931.56 479.19,-931.56 479.19,-933.73 477.02,-935.89 474.85,-935.89 474.85,-935.89 459.27,-935.89 459.27,-935.89 457.1,-935.89 454.94,-933.73 454.94,-931.56 454.94,-931.56 454.94,-927.23 454.94,-927.23 454.94,-925.06 457.1,-922.89 459.27,-922.89"/>
<text xml:space="preserve" text-anchor="start" x="456.94" y="-928.24" font-family="Times New Roman,serif" font-weight="bold" font-size="7.00">{ye83}</text>
<text xml:space="preserve" text-anchor="start" x="425.06" y="-949.54" font-family="Times New Roman,serif" font-size="8.00">qe28</text>
</g>
<!-- 0x2bebf925&#45;&gt;0x94035e38 -->
<g id="edge18" class="edge">
<title>0x2bebf925&#45;&gt;0x94035e38:m</title>
<path fill="none" stroke="#2563eb" stroke-dasharray="5,2" d="M351.33,-924.79C398.05,-946.44 404.99,-949.44 444.34,-936.93"/>
<polygon fill="#2563eb" stroke="#2563eb" points="445.23,-940.33 453.64,-933.89 443.05,-933.67 445.23,-940.33"/>
<text xml:space="preserve" text-anchor="start" x="395.18" y="-945.56" font-family="Times New Roman,serif" font-size="6.00">o2</text>
</g>
<!-- 0x361e1b5b -->
<g id="node22" class="node">
<title>0x361e1b5b</title>
<ellipse fill="white" stroke="black" cx="543.43" cy="-840.36" rx="0.72" ry="0.72"/>
</g>
<!-- 0x94035e38&#45;&gt;0x361e1b5b -->
<g id="edge21" class="edge">
<title>0x94035e38:m&#45;&gt;0x361e1b5b</title>
<path fill="none" stroke="#2563eb" d="M479.17,-923.45C515.68,-905.3 519.94,-899.68 538.89,-851.89"/>
<polygon fill="#2563eb" stroke="#2563eb" points="542.06,-853.38 542.47,-842.8 535.55,-850.82 542.06,-853.38"/>
<text xml:space="preserve" text-anchor="start" x="516.31" y="-890.83" font-family="Times New Roman,serif" font-size="6.00">o4</text>
</g>
<!-- 0x651ef23f -->
<g id="node19" class="node">
<title>0x651ef23f</title>
<path fill="#f8f9fa" stroke="none" d="M268.89,-389.43C268.89,-389.43 315.97,-389.43 315.97,-389.43 318.14,-389.43 320.31,-391.59 320.31,-393.76 320.31,-393.76 320.31,-398.09 320.31,-398.09 320.31,-400.26 318.14,-402.43 315.97,-402.43 315.97,-402.43 268.89,-402.43 268.89,-402.43 266.72,-402.43 264.56,-400.26 264.56,-398.09 264.56,-398.09 264.56,-393.76 264.56,-393.76 264.56,-391.59 266.72,-389.43 268.89,-389.43"/>
<path fill="none" stroke="#333333" d="M268.89,-389.43C268.89,-389.43 315.97,-389.43 315.97,-389.43 318.14,-389.43 320.31,-391.59 320.31,-393.76 320.31,-393.76 320.31,-398.09 320.31,-398.09 320.31,-400.26 318.14,-402.43 315.97,-402.43 315.97,-402.43 268.89,-402.43 268.89,-402.43 266.72,-402.43 264.56,-400.26 264.56,-398.09 264.56,-398.09 264.56,-393.76 264.56,-393.76 264.56,-391.59 266.72,-389.43 268.89,-389.43"/>
<text xml:space="preserve" text-anchor="start" x="266.56" y="-394.78" font-family="Times New Roman,serif" font-weight="bold" font-size="7.00">{ye34,ye44,ye54}</text>
<text xml:space="preserve" text-anchor="start" x="241.56" y="-416.08" font-family="Times New Roman,serif" font-size="8.00">qe29</text>
</g>
<!-- 0xfe45e737 -->
<g id="node24" class="node">
<title>0xfe45e737</title>
<ellipse fill="white" stroke="black" cx="366.64" cy="-489.89" rx="0.72" ry="0.72"/>
</g>
<!-- 0x651ef23f&#45;&gt;0xfe45e737 -->
<g id="edge23" class="edge">
<title>0x651ef23f:m&#45;&gt;0xfe45e737</title>
<path fill="none" stroke="#2563eb" d="M294.58,-402.27C313.26,-457.17 316.12,-462.2 355.8,-483.99"/>
<polygon fill="#2563eb" stroke="#2563eb" points="353.98,-486.99 364.44,-488.7 357.33,-480.84 353.98,-486.99"/>
<text xml:space="preserve" text-anchor="start" x="311.5" y="-457.6" font-family="Times New Roman,serif" font-size="6.00">o2</text>
</g>
<!-- 0x1831df40&#45;&gt;0x651ef23f -->
<g id="edge20" class="edge">
<title>0x1831df40&#45;&gt;0x651ef23f:m</title>
<path fill="none" stroke="#2563eb" stroke-dasharray="5,2" d="M295.29,-280.14C273.68,-333.62 271.31,-339.97 285.93,-379.03"/>
<polygon fill="#2563eb" stroke="#2563eb" points="282.64,-380.21 289.48,-388.3 289.18,-377.71 282.64,-380.21"/>
<text xml:space="preserve" text-anchor="start" x="271.01" y="-336.87" font-family="Times New Roman,serif" font-size="6.00">o4</text>
</g>
<!-- 0x93f41b47 -->
<g id="node21" class="node">
<title>0x93f41b47</title>
<path fill="#f8f9fa" stroke="none" d="M514.55,-710.19C514.55,-710.19 612.63,-710.19 612.63,-710.19 614.8,-710.19 616.97,-712.36 616.97,-714.53 616.97,-714.53 616.97,-718.86 616.97,-718.86 616.97,-721.03 614.8,-723.19 612.63,-723.19 612.63,-723.19 514.55,-723.19 514.55,-723.19 512.38,-723.19 510.22,-721.03 510.22,-718.86 510.22,-718.86 510.22,-714.53 510.22,-714.53 510.22,-712.36 512.38,-710.19 514.55,-710.19"/>
<path fill="none" stroke="#333333" d="M514.55,-710.19C514.55,-710.19 612.63,-710.19 612.63,-710.19 614.8,-710.19 616.97,-712.36 616.97,-714.53 616.97,-714.53 616.97,-718.86 616.97,-718.86 616.97,-721.03 614.8,-723.19 612.63,-723.19 612.63,-723.19 514.55,-723.19 514.55,-723.19 512.38,-723.19 510.22,-721.03 510.22,-718.86 510.22,-718.86 510.22,-714.53 510.22,-714.53 510.22,-712.36 512.38,-710.19 514.55,-710.19"/>
<text xml:space="preserve" text-anchor="start" x="512.22" y="-715.54" font-family="Times New Roman,serif" font-weight="bold" font-size="7.00">{ye101,ye34,ye44,ye54,ye92,ye98}</text>
<text xml:space="preserve" text-anchor="start" x="487.22" y="-736.84" font-family="Times New Roman,serif" font-size="8.00">qe31</text>
</g>
<!-- 0x2976c83d -->
<g id="node26" class="node">
<title>0x2976c83d</title>
<ellipse fill="white" stroke="black" cx="505.77" cy="-606.29" rx="0.72" ry="0.72"/>
</g>
<!-- 0x93f41b47&#45;&gt;0x2976c83d -->
<g id="edge26" class="edge">
<title>0x93f41b47:m&#45;&gt;0x2976c83d</title>
<path fill="none" stroke="#2563eb" d="M562.62,-710.47C552.96,-648.79 551.1,-643.21 515.28,-614"/>
<polygon fill="#2563eb" stroke="#2563eb" points="517.71,-611.45 507.73,-607.88 513.3,-616.89 517.71,-611.45"/>
<text xml:space="preserve" text-anchor="start" x="542.72" y="-651.78" font-family="Times New Roman,serif" font-size="6.00">o2</text>
</g>
<!-- 0x361e1b5b&#45;&gt;0x93f41b47 -->
<g id="edge22" class="edge">
<title>0x361e1b5b&#45;&gt;0x93f41b47:m</title>
<path fill="none" stroke="#2563eb" stroke-dasharray="5,2" d="M544.04,-839.32C575.02,-786.36 578.08,-780.71 567.62,-734.1"/>
<polygon fill="#2563eb" stroke="#2563eb" points="571.09,-733.58 565.44,-724.62 564.27,-735.15 571.09,-733.58"/>
<text xml:space="preserve" text-anchor="start" x="565.41" y="-785.97" font-family="Times New Roman,serif" font-size="6.00">o4</text>
</g>
<!-- 0x4076a006 -->
<g id="node23" class="node">
<title>0x4076a006</title>
<path fill="#f8f9fa" stroke="none" d="M422.35,-406.24C422.35,-406.24 469.43,-406.24 469.43,-406.24 471.6,-406.24 473.76,-408.41 473.76,-410.58 473.76,-410.58 473.76,-414.91 473.76,-414.91 473.76,-417.08 471.6,-419.24 469.43,-419.24 469.43,-419.24 422.35,-419.24 422.35,-419.24 420.18,-419.24 418.01,-417.08 418.01,-414.91 418.01,-414.91 418.01,-410.58 418.01,-410.58 418.01,-408.41 420.18,-406.24 422.35,-406.24"/>
<path fill="none" stroke="#333333" d="M422.35,-406.24C422.35,-406.24 469.43,-406.24 469.43,-406.24 471.6,-406.24 473.76,-408.41 473.76,-410.58 473.76,-410.58 473.76,-414.91 473.76,-414.91 473.76,-417.08 471.6,-419.24 469.43,-419.24 469.43,-419.24 422.35,-419.24 422.35,-419.24 420.18,-419.24 418.01,-417.08 418.01,-414.91 418.01,-414.91 418.01,-410.58 418.01,-410.58 418.01,-408.41 420.18,-406.24 422.35,-406.24"/>
<text xml:space="preserve" text-anchor="start" x="420.01" y="-411.59" font-family="Times New Roman,serif" font-weight="bold" font-size="7.00">{ye48,ye67,ye84}</text>
<text xml:space="preserve" text-anchor="start" x="395.01" y="-432.89" font-family="Times New Roman,serif" font-size="8.00">qe32</text>
</g>
<!-- 0x6f32121a -->
<g id="node27" class="node">
<title>0x6f32121a</title>
<ellipse fill="white" stroke="black" cx="524.77" cy="-333.24" rx="0.72" ry="0.72"/>
</g>
<!-- 0x4076a006&#45;&gt;0x6f32121a -->
<g id="edge29" class="edge">
<title>0x4076a006:m&#45;&gt;0x6f32121a</title>
<path fill="none" stroke="#2563eb" d="M460.3,-406.31C498.85,-388.87 503.68,-383.53 519.99,-344.72"/>
<polygon fill="#2563eb" stroke="#2563eb" points="523.21,-346.08 523.83,-335.51 516.75,-343.39 523.21,-346.08"/>
<text xml:space="preserve" text-anchor="start" x="497.1" y="-379.85" font-family="Times New Roman,serif" font-size="6.00">o4</text>
</g>
<!-- 0xfe45e737&#45;&gt;0x8789302b -->
<g id="edge25" class="edge">
<title>0xfe45e737&#45;&gt;0x8789302b:m</title>
<path fill="none" stroke="#2563eb" stroke-dasharray="5,2" d="M366.38,-490.88C352.92,-540.75 351.76,-545.9 375.23,-591.66"/>
<polygon fill="#2563eb" stroke="#2563eb" points="372.03,-593.11 379.73,-600.38 378.25,-589.89 372.03,-593.11"/>
<text xml:space="preserve" text-anchor="start" x="351.75" y="-550.82" font-family="Times New Roman,serif" font-size="6.00">o2</text>
</g>
<!-- 0xfe45e737&#45;&gt;0x4076a006 -->
<g id="edge24" class="edge">
<title>0xfe45e737&#45;&gt;0x4076a006:m</title>
<path fill="none" stroke="#2563eb" stroke-dasharray="5,2" d="M367.49,-489.51C399.67,-474.76 403.01,-472.97 434.81,-428.36"/>
<polygon fill="#2563eb" stroke="#2563eb" points="437.51,-430.59 440.45,-420.41 431.81,-426.54 437.51,-430.59"/>
<text xml:space="preserve" text-anchor="start" x="396.13" y="-461.68" font-family="Times New Roman,serif" font-size="6.00">empty</text>
</g>
<!-- 0xe41ae611 -->
<g id="node25" class="node">
<title>0xe41ae611</title>
<path fill="#f8f9fa" stroke="none" d="M553.87,-519.12C553.87,-519.12 639.95,-519.12 639.95,-519.12 642.12,-519.12 644.29,-521.29 644.29,-523.46 644.29,-523.46 644.29,-527.79 644.29,-527.79 644.29,-529.96 642.12,-532.12 639.95,-532.12 639.95,-532.12 553.87,-532.12 553.87,-532.12 551.7,-532.12 549.54,-529.96 549.54,-527.79 549.54,-527.79 549.54,-523.46 549.54,-523.46 549.54,-521.29 551.7,-519.12 553.87,-519.12"/>
<path fill="none" stroke="#333333" d="M553.87,-519.12C553.87,-519.12 639.95,-519.12 639.95,-519.12 642.12,-519.12 644.29,-521.29 644.29,-523.46 644.29,-523.46 644.29,-527.79 644.29,-527.79 644.29,-529.96 642.12,-532.12 639.95,-532.12 639.95,-532.12 553.87,-532.12 553.87,-532.12 551.7,-532.12 549.54,-529.96 549.54,-527.79 549.54,-527.79 549.54,-523.46 549.54,-523.46 549.54,-521.29 551.7,-519.12 553.87,-519.12"/>
<text xml:space="preserve" text-anchor="start" x="551.54" y="-524.47" font-family="Times New Roman,serif" font-weight="bold" font-size="7.00">{ye103,ye105,ye48,ye67,ye84}</text>
<text xml:space="preserve" text-anchor="start" x="526.54" y="-545.77" font-family="Times New Roman,serif" font-size="8.00">qe34</text>
</g>
<!-- 0x56b3b519 -->
<g id="node28" class="node">
<title>0x56b3b519</title>
<ellipse fill="white" stroke="black" cx="640.28" cy="-416.6" rx="0.72" ry="0.72"/>
</g>
<!-- 0xe41ae611&#45;&gt;0x56b3b519 -->
<g id="edge31" class="edge">
<title>0xe41ae611:m&#45;&gt;0x56b3b519</title>
<path fill="none" stroke="#2563eb" d="M601.03,-519.37C635.62,-466.86 639.26,-460.23 640.07,-428.77"/>
<polygon fill="#2563eb" stroke="#2563eb" points="643.56,-429.16 640.24,-419.1 636.56,-429.04 643.56,-429.16"/>
<text xml:space="preserve" text-anchor="start" x="627.22" y="-467.96" font-family="Times New Roman,serif" font-size="6.00">o4</text>
</g>
<!-- 0x2976c83d&#45;&gt;0x8789302b -->
<g id="edge28" class="edge">
<title>0x2976c83d&#45;&gt;0x8789302b:m</title>
<path fill="none" stroke="#2563eb" stroke-dasharray="5,2" d="M504.74,-605.88C456.77,-586.68 448.54,-583.59 410.54,-597.57"/>
<polygon fill="#2563eb" stroke="#2563eb" points="409.72,-594.14 401.61,-600.96 412.2,-600.68 409.72,-594.14"/>
<text xml:space="preserve" text-anchor="start" x="447.6" y="-591.05" font-family="Times New Roman,serif" font-size="6.00">o2</text>
</g>
<!-- 0x2976c83d&#45;&gt;0xe41ae611 -->
<g id="edge27" class="edge">
<title>0x2976c83d&#45;&gt;0xe41ae611:m</title>
<path fill="none" stroke="#2563eb" stroke-dasharray="5,2" d="M506.58,-605.84C565.44,-573.54 574.17,-568.66 588.63,-541.77"/>
<polygon fill="#2563eb" stroke="#2563eb" points="591.64,-543.57 593.13,-533.08 585.42,-540.34 591.64,-543.57"/>
<text xml:space="preserve" text-anchor="start" x="549.27" y="-573.56" font-family="Times New Roman,serif" font-size="6.00">empty</text>
</g>
<!-- 0x6f32121a&#45;&gt;0xee19b7c4 -->
<g id="edge30" class="edge">
<title>0x6f32121a&#45;&gt;0xee19b7c4:m</title>
<path fill="none" stroke="#2563eb" stroke-dasharray="5,2" d="M525.89,-332.88C570.71,-318.47 583.73,-314.24 596.51,-306.3"/>
<polygon fill="#2563eb" stroke="#2563eb" points="598.16,-309.42 604.45,-300.9 594.21,-303.63 598.16,-309.42"/>
<text xml:space="preserve" text-anchor="start" x="573.25" y="-318.95" font-family="Times New Roman,serif" font-size="6.00">o4</text>
</g>
<!-- 0x56b3b519&#45;&gt;0xee19b7c4 -->
<g id="edge32" class="edge">
<title>0x56b3b519&#45;&gt;0xee19b7c4:m</title>
<path fill="none" stroke="#2563eb" stroke-dasharray="5,2" d="M640.32,-415.66C643.57,-347.4 643.92,-337.99 624.69,-309.19"/>
<polygon fill="#2563eb" stroke="#2563eb" points="627.8,-307.54 619.27,-301.27 622.03,-311.5 627.8,-307.54"/>
<text xml:space="preserve" text-anchor="start" x="634.93" y="-349.41" font-family="Times New Roman,serif" font-size="6.00">o4</text>
</g>
</g>
</svg>
